<svg xmlns="http://www.w3.org/2000/svg" width="84.208" height="84.207" viewBox="0 0 84.208 84.207">
  <g id="Grupo_1189697" data-name="Grupo 1189697" transform="translate(-768.175 -3568.479)">
    <g id="Grupo_1189018" data-name="Grupo 1189018" transform="translate(-104.551 3289.701)">
      <g id="Grupo_1188789" data-name="Grupo 1188789" transform="translate(583.726 -5835.222)">
        <rect id="Rectángulo_400898" data-name="Rectángulo 400898" width="75.49" height="75.489" rx="37.744" transform="translate(293.36 6118.358)" fill="#ffd907"/>
        <rect id="Rectángulo_400907" data-name="Rectángulo 400907" width="75.49" height="75.489" rx="37.744" transform="translate(293.36 6118.358)" fill="none"/>
        <g id="Grupo_1098742" data-name="Grupo 1098742" transform="translate(289 6114)">
          <g id="Rectángulo_400898-2" data-name="Rectángulo 400898" transform="translate(0)" fill="none" stroke="#fff" stroke-width="1" opacity="0.859">
            <rect width="84.208" height="84.207" rx="42.104" stroke="none"/>
            <rect x="0.5" y="0.5" width="83.208" height="83.207" rx="41.604" fill="none"/>
          </g>
          <g id="Rectángulo_400907-2" data-name="Rectángulo 400907" transform="translate(0)" fill="none" stroke="#0f1f33" stroke-linecap="round" stroke-width="1">
            <rect width="84.208" height="84.207" rx="42.104" stroke="none"/>
            <rect x="0.5" y="0.5" width="83.208" height="83.207" rx="41.604" fill="none"/>
          </g>
        </g>
      </g>
    </g>
    <g id="perro" transform="translate(754.289 3583.297)">
      <path id="Trazado_878385" data-name="Trazado 878385" d="M100.517,49.81a7.918,7.918,0,0,1-3.948-5.837,1.4,1.4,0,0,0-2.751,0,7.919,7.919,0,0,1-3.948,5.837c-3.961,1.981-3.961,6.685-.5,8.171,3.383,1.45,5.818-2.414,5.818-2.414s2.435,3.864,5.818,2.414C104.479,56.5,104.479,51.791,100.517,49.81Z" transform="translate(-39.035 -34.025)" fill="#f4dbce"/>
      <path id="Trazado_878386" data-name="Trazado 878386" d="M120.947,77.743a2.3,2.3,0,0,1-4.595,0c0-1.119,1.178-.668,2.3-.668S120.947,76.624,120.947,77.743Z" transform="translate(-62.49 -61.176)" fill="#7d3d1a"/>
      <path id="Trazado_878387" data-name="Trazado 878387" d="M97.517,56.828a5.869,5.869,0,0,1-4.31-2.37c-1.15,1.425-3.412,3.127-6.021,2.008a4.519,4.519,0,0,1-2.85-4.074,5.566,5.566,0,0,1,3.318-5.028,7.429,7.429,0,0,0,3.672-5.47,1.909,1.909,0,0,1,3.761,0,7.429,7.429,0,0,0,3.672,5.47,5.566,5.566,0,0,1,3.318,5.028,4.519,4.519,0,0,1-2.85,4.074,4.311,4.311,0,0,1-1.71.362Zm-4.31-3.761a.513.513,0,0,1,.434.24,7.064,7.064,0,0,0,1.539,1.632,3.476,3.476,0,0,0,3.643.584,3.516,3.516,0,0,0,2.228-3.16A4.556,4.556,0,0,0,98.3,48.283a8.427,8.427,0,0,1-4.223-6.205.883.883,0,0,0-1.74,0,8.426,8.426,0,0,1-4.223,6.205,4.556,4.556,0,0,0-2.751,4.08,3.515,3.515,0,0,0,2.228,3.16c2.946,1.263,5.16-2.181,5.182-2.216A.512.512,0,0,1,93.207,53.067Z" transform="translate(-37.048 -32.038)"/>
      <path id="Trazado_878388" data-name="Trazado 878388" d="M116.662,78.556a3,3,0,0,1-2.811-2.8,1.231,1.231,0,0,1,.367-.954,2.153,2.153,0,0,1,1.713-.274c.243.023.494.046.731.046s.489-.023.731-.046a2.151,2.151,0,0,1,1.713.274,1.231,1.231,0,0,1,.367.954A3,3,0,0,1,116.662,78.556Zm-1.45-3.046a.557.557,0,0,0-.3.049.369.369,0,0,0-.031.2,1.784,1.784,0,0,0,3.568,0,.366.366,0,0,0-.032-.2,2.393,2.393,0,0,0-.926-.01c-.266.025-.541.05-.826.05s-.56-.026-.826-.05c-.169-.016-.423-.039-.624-.039Z" transform="translate(-60.503 -59.188)"/>
      <path id="Trazado_878389" data-name="Trazado 878389" d="M125.334,94.724a.513.513,0,0,1-.513-.513V91.792a.513.513,0,0,1,1.027,0v2.419A.513.513,0,0,1,125.334,94.724Z" transform="translate(-69.22 -72.535)"/>
      <g id="Grupo_1189696" data-name="Grupo 1189696" transform="translate(39.414 0.512)">
        <path id="Trazado_878390" data-name="Trazado 878390" d="M161.7,5.139c-.329-.008-.621,0-.88.009a1.027,1.027,0,0,0-.534,1.864,4.021,4.021,0,0,1,1.677,3.453c.068,3.563,1.781,13.473,4.316,12.669,1.96-.622-1.8-3.778,2.448-7.978S165.278,5.231,161.7,5.139Z" transform="translate(-136.466 -4.594)" fill="#eaa250"/>
        <path id="Trazado_878391" data-name="Trazado 878391" d="M54.274,5.139c.329-.008.621,0,.88.009a1.027,1.027,0,0,1,.534,1.864,4.021,4.021,0,0,0-1.677,3.453c-.068,3.563-1.781,13.473-4.316,12.669-1.96-.622,1.8-3.778-2.448-7.978s3.447-9.925,7.027-10.017Z" transform="translate(-46.004 -4.594)" fill="#eaa250"/>
        <path id="Trazado_878392" data-name="Trazado 878392" d="M88.119,8.374a4.021,4.021,0,0,0-1.677-3.453,1,1,0,0,1-.348-1.248,7.931,7.931,0,0,0-4.5-1.161q-2.226.107-4.453,0a7.93,7.93,0,0,0-4.487,1.155,1.006,1.006,0,0,1-.346,1.254,4.021,4.021,0,0,0-1.677,3.453c-.062,3.272-1.512,11.9-3.712,12.66.422,2.214,2.89,3.619,5.761,4.424-2.562-1.842-2.231-5.884,1.365-7.682a7.918,7.918,0,0,0,3.948-5.837,1.4,1.4,0,0,1,2.751,0,7.919,7.919,0,0,0,3.948,5.837c3.6,1.8,3.927,5.84,1.365,7.682,2.873-.806,5.343-2.212,5.762-4.429-2.194-.791-3.638-9.39-3.7-12.656Z" transform="translate(-62.624 -2.503)" fill="#eaa250"/>
      </g>
      <path id="Trazado_878393" data-name="Trazado 878393" d="M164,21.706a1.59,1.59,0,0,1-.939-.324c-1.006-.721-1.89-2.714-2.628-5.923a38.852,38.852,0,0,1-.972-6.971A3.537,3.537,0,0,0,158,5.447a1.54,1.54,0,0,1,.8-2.8c.281-.015.591-.019.921-.01,2.68.069,7.182,2.939,8.421,6.067a4.211,4.211,0,0,1-1.046,4.828,5.591,5.591,0,0,0-1.807,5.715c.163.941.349,2.008-.847,2.387a1.472,1.472,0,0,1-.446.07ZM159.374,3.66c-.183,0-.356,0-.518.013a.5.5,0,0,0-.465.377.489.489,0,0,0,.194.551,4.526,4.526,0,0,1,1.9,3.866c.065,3.4,1.448,10.844,3.171,12.08a.5.5,0,0,0,.477.11c.276-.087.334-.15.146-1.233a6.622,6.622,0,0,1,2.1-6.621,3.209,3.209,0,0,0,.814-3.72c-1.155-2.914-5.36-5.364-7.493-5.419q-.166,0-.322,0Z" transform="translate(-95.064 -2.094)"/>
      <path id="Trazado_878394" data-name="Trazado 878394" d="M47.991,21.706a1.469,1.469,0,0,1-.446-.07c-1.2-.379-1.01-1.446-.847-2.387a5.591,5.591,0,0,0-1.807-5.715,4.211,4.211,0,0,1-1.046-4.828c1.239-3.127,5.741-6,8.421-6.067.33-.009.641-.005.921.01a1.54,1.54,0,0,1,.8,2.8,3.537,3.537,0,0,0-1.455,3.04,38.851,38.851,0,0,1-.972,6.971c-.738,3.209-1.622,5.2-2.628,5.923a1.592,1.592,0,0,1-.94.324ZM52.614,3.661q-.156,0-.322,0c-2.133.055-6.338,2.5-7.493,5.419a3.209,3.209,0,0,0,.814,3.72,6.622,6.622,0,0,1,2.1,6.621c-.188,1.083-.13,1.145.146,1.233a.5.5,0,0,0,.477-.109c.763-.547,1.574-2.486,2.225-5.319A37.713,37.713,0,0,0,51.5,8.469,4.526,4.526,0,0,1,53.4,4.6a.489.489,0,0,0,.194-.551.5.5,0,0,0-.465-.377c-.161-.009-.335-.013-.517-.013Zm-.335-.509h0Z" transform="translate(-4.595 -2.095)"/>
      <path id="Trazado_878395" data-name="Trazado 878395" d="M84.07,23.981a.514.514,0,0,1-.3-.931,3.435,3.435,0,0,0,1.445-3.128,4.658,4.658,0,0,0-2.74-3.678,8.427,8.427,0,0,1-4.223-6.205.883.883,0,0,0-1.74,0,8.426,8.426,0,0,1-4.223,6.205,4.659,4.659,0,0,0-2.74,3.678,3.434,3.434,0,0,0,1.445,3.128.513.513,0,0,1-.438.911c-3.6-1.01-5.718-2.678-6.127-4.823a.514.514,0,0,1,.336-.581c.284-.1,1.291-.752,2.327-5.025a38.352,38.352,0,0,0,1.04-7.159,4.526,4.526,0,0,1,1.9-3.866.493.493,0,0,0,.167-.625.513.513,0,0,1,.207-.648A8.4,8.4,0,0,1,75.18.008c1.461.07,2.943.07,4.4,0A8.411,8.411,0,0,1,84.37,1.241a.513.513,0,0,1,.208.644.492.492,0,0,0,.168.621,4.526,4.526,0,0,1,1.9,3.866c.071,3.733,1.637,11.56,3.361,12.182a.514.514,0,0,1,.33.578c-.406,2.147-2.525,3.817-6.127,4.828a.49.49,0,0,1-.139.02ZM65.528,19.3c.458,1.431,1.94,2.408,3.524,3.062a4.524,4.524,0,0,1-.527-2.524,5.671,5.671,0,0,1,3.3-4.514A7.429,7.429,0,0,0,75.5,9.857a1.909,1.909,0,0,1,3.761,0,7.43,7.43,0,0,0,3.672,5.47,5.671,5.671,0,0,1,3.3,4.514,4.522,4.522,0,0,1-.527,2.524c1.587-.655,3.071-1.635,3.526-3.07-2.387-1.722-3.569-10.222-3.62-12.9a3.538,3.538,0,0,0-1.455-3.04,1.509,1.509,0,0,1-.65-1.417,7.334,7.334,0,0,0-3.88-.9c-1.494.072-3.008.072-4.5,0a7.337,7.337,0,0,0-3.867.9,1.508,1.508,0,0,1-.65,1.424,3.538,3.538,0,0,0-1.455,3.04C69.108,9.084,67.922,17.6,65.528,19.3Z" transform="translate(-21.223 0)"/>
      <path id="Trazado_878396" data-name="Trazado 878396" d="M118.574,107.189a7.159,7.159,0,0,1-2.484-2.284,7.107,7.107,0,0,1-2.58,2.329l-.343,2.186a2.913,2.913,0,1,0,5.757,0Z" transform="translate(-59.932 -83.362)" fill="#fd605b"/>
      <path id="Trazado_878397" data-name="Trazado 878397" d="M138.932,115.64c.048.026.094.054.144.079l.35,2.232a2.891,2.891,0,0,1-.138,1.432A6.82,6.82,0,0,0,142.008,116a3.831,3.831,0,0,1-3.076-.356Z" transform="translate(-80.433 -91.893)" fill="#52565b"/>
      <path id="Trazado_878398" data-name="Trazado 878398" d="M103.94,118.321l.343-2.186.055-.029a3.789,3.789,0,0,1-2.819.282,6.894,6.894,0,0,0,2.516,3.245A2.9,2.9,0,0,1,103.94,118.321Z" transform="translate(-50.704 -92.263)" fill="#52565b"/>
      <path id="Trazado_878399" data-name="Trazado 878399" d="M85.523,112.587a6.894,6.894,0,0,1-2.516-3.245,4.156,4.156,0,0,1-.475-.168,4.571,4.571,0,0,1-.87-.489,13.256,13.256,0,0,1-3.44-1.446c.754,3.038,3.8,5.456,7.708,6.171A2.92,2.92,0,0,1,85.523,112.587Z" transform="translate(-32.192 -85.217)" fill="#039be6"/>
      <path id="Trazado_878400" data-name="Trazado 878400" d="M143.209,108.772a4.571,4.571,0,0,1-.87.489,4.216,4.216,0,0,1-.4.147,6.821,6.821,0,0,1-2.72,3.387,2.911,2.911,0,0,1-.374.715c3.935-.7,7-3.115,7.772-6.16A13.325,13.325,0,0,1,143.209,108.772Z" transform="translate(-80.362 -85.304)" fill="#039be6"/>
      <path id="Trazado_878401" data-name="Trazado 878401" d="M114.061,111.311a3.427,3.427,0,0,1-3.385-3.958l.343-2.186a.513.513,0,0,1,.285-.383,6.584,6.584,0,0,0,2.368-2.141.513.513,0,0,1,.868,0,6.69,6.69,0,0,0,2.282,2.1.513.513,0,0,1,.275.378l.35,2.232a3.427,3.427,0,0,1-3.385,3.958Zm-2.068-5.726-.3,1.928a2.4,2.4,0,1,0,4.742,0l-.311-1.98a7.477,7.477,0,0,1-2.016-1.752A7.409,7.409,0,0,1,111.993,105.585Z" transform="translate(-57.947 -81.375)"/>
      <path id="Trazado_878402" data-name="Trazado 878402" d="M137.3,117.909a.514.514,0,0,1-.483-.687,2.365,2.365,0,0,0,.114-1.179l-.313-1.993a.514.514,0,0,1,.573-.847h0a3.319,3.319,0,0,0,2.675.316.513.513,0,0,1,.632.676,7.358,7.358,0,0,1-2.931,3.639A.51.51,0,0,1,137.3,117.909Zm.434-3.374.212,1.349c.017.112.03.223.036.335a6.472,6.472,0,0,0,1.155-1.526A4.182,4.182,0,0,1,137.734,114.534Z" transform="translate(-78.446 -89.905)"/>
      <path id="Trazado_878403" data-name="Trazado 878403" d="M102.048,118.159a.513.513,0,0,1-.285-.087,7.454,7.454,0,0,1-2.709-3.485.513.513,0,0,1,.623-.68,3.284,3.284,0,0,0,2.447-.249.514.514,0,0,1,.651.751l-.314,2a2.375,2.375,0,0,0,.079,1.08.514.514,0,0,1-.491.666Zm-1.639-3.094a6.578,6.578,0,0,0,1.012,1.384q.01-.1.025-.195l.208-1.325A4.169,4.169,0,0,1,100.409,115.065Z" transform="translate(-48.717 -90.276)"/>
      <path id="Trazado_878404" data-name="Trazado 878404" d="M146.373,49.041a.513.513,0,0,1-.513-.512,1.908,1.908,0,0,1,1.9-1.914h.006a1.908,1.908,0,0,1,1.908,1.9.513.513,0,0,1-.512.515h0a.513.513,0,0,1-.513-.512.881.881,0,0,0-1.763.006.513.513,0,0,1-.512.515h0Z" transform="translate(-85.938 -37.043)"/>
      <path id="Trazado_878405" data-name="Trazado 878405" d="M94.108,49.037a.513.513,0,0,1-.513-.513.881.881,0,0,0-1.763,0,.513.513,0,1,1-1.027,0,1.908,1.908,0,0,1,3.816,0A.513.513,0,0,1,94.108,49.037Z" transform="translate(-42.19 -37.043)"/>
      <path id="Trazado_878406" data-name="Trazado 878406" d="M83.945,111.936a.5.5,0,0,1-.092-.008c-4.129-.755-7.313-3.327-8.114-6.553a.513.513,0,0,1,.772-.558,12.671,12.671,0,0,0,3.3,1.386.515.515,0,0,1,.161.077,4.07,4.07,0,0,0,.772.434,3.621,3.621,0,0,0,.417.147.514.514,0,0,1,.334.305,6.421,6.421,0,0,0,2.324,3.005.514.514,0,0,1,.2.275,2.4,2.4,0,0,0,.336.678.514.514,0,0,1-.419.811Zm-6.762-5.594a8.868,8.868,0,0,0,5.488,4.245,7.622,7.622,0,0,1-2.034-2.815c-.1-.035-.2-.072-.293-.113a5.119,5.119,0,0,1-.891-.49,15.834,15.834,0,0,1-2.269-.826Z" transform="translate(-30.206 -83.229)"/>
      <path id="Trazado_878407" data-name="Trazado 878407" d="M136.855,112.037a.513.513,0,0,1-.417-.813,2.4,2.4,0,0,0,.308-.589.513.513,0,0,1,.215-.264,6.327,6.327,0,0,0,2.51-3.135.513.513,0,0,1,.325-.3,3.715,3.715,0,0,0,.354-.129,4.086,4.086,0,0,0,.773-.434.511.511,0,0,1,.161-.077,12.745,12.745,0,0,0,3.272-1.364.514.514,0,0,1,.769.561c-.817,3.237-4.027,5.8-8.18,6.54A.532.532,0,0,1,136.855,112.037Zm3.482-4.2a7.6,7.6,0,0,1-2,2.8,8.819,8.819,0,0,0,5.341-4.184,15.94,15.94,0,0,1-2.232.808,5.134,5.134,0,0,1-.892.491C140.484,107.777,140.413,107.806,140.337,107.833Z" transform="translate(-78.375 -83.319)"/>
      <path id="Trazado_878408" data-name="Trazado 878408" d="M197.325,97.89l-.651-.418a.13.13,0,0,1-.028-.194,8.812,8.812,0,0,0,1.436-8.631.13.13,0,0,0-.163-.077l-.576.19a.131.131,0,0,1-.168-.1,5.51,5.51,0,0,0-3.919-4.4.13.13,0,0,0-.157.168c2.162,6.632-2.3,11.581-5,13.846q.045.4.079.817c1.8-.017,3.58.409,4.589,1.839a10.034,10.034,0,0,0,4.589-2.846A.13.13,0,0,0,197.325,97.89Z" transform="translate(-119.504 -66.952)" fill="#eaa250"/>
      <path id="Trazado_878409" data-name="Trazado 878409" d="M190.781,99.455a.513.513,0,0,1-.419-.217c-.773-1.1-2.171-1.642-4.165-1.622h0a.514.514,0,0,1-.512-.471q-.034-.406-.078-.8a.513.513,0,0,1,.18-.449c2.689-2.261,6.894-7,4.841-13.294a.643.643,0,0,1,.782-.822,6,6,0,0,1,4.19,4.378l.177-.058a.642.642,0,0,1,.8.383,9.341,9.341,0,0,1-1.252,8.8l.293.188a.643.643,0,0,1,.153.947,10.555,10.555,0,0,1-4.822,3.008A.527.527,0,0,1,190.781,99.455Zm-4.12-2.86a5.616,5.616,0,0,1,4.3,1.739,10.068,10.068,0,0,0,3.723-2.241l-.272-.175a.644.644,0,0,1-.145-.956,8.218,8.218,0,0,0,1.468-7.773l-.218.072a.644.644,0,0,1-.832-.487,5.038,5.038,0,0,0-2.868-3.756,11.384,11.384,0,0,1-.924,8.212,17.747,17.747,0,0,1-4.24,5.27C186.655,96.532,186.658,96.563,186.662,96.595Z" transform="translate(-117.517 -64.965)"/>
      <path id="Trazado_878410" data-name="Trazado 878410" d="M115.411,176.049a4.81,4.81,0,0,1,.33-1.153,4.3,4.3,0,0,0,.4-1.781V161.384a3.793,3.793,0,0,0-2-3.3,4.612,4.612,0,0,0-3.956,0,3.793,3.793,0,0,0-2,3.3v11.731a4.3,4.3,0,0,0,.4,1.781,4.819,4.819,0,0,1,.33,1.153,1.05,1.05,0,0,1,.013.239,9.561,9.561,0,0,0,6.467,0A1.049,1.049,0,0,1,115.411,176.049Z" transform="translate(-55.999 -125.262)" fill="#f4dbce"/>
      <path id="Trazado_878411" data-name="Trazado 878411" d="M176.85,173.184l2.555-6.052c3.141-8.814-.5-10.678-4.245-10.642a26.042,26.042,0,0,1-3.254,15.234,1.462,1.462,0,0,0,.4,1.886,6.336,6.336,0,0,1,1.1,1.076,1.072,1.072,0,0,1-.638,1.688l.038.039h7.664C181.321,172.781,176.85,173.184,176.85,173.184Z" transform="translate(-106.485 -124.353)" fill="#eaa250"/>
      <path id="Trazado_878412" data-name="Trazado 878412" d="M47.375,174.685a6.343,6.343,0,0,1,1.1-1.076,1.462,1.462,0,0,0,.4-1.886A26.04,26.04,0,0,1,45.62,156.49c-3.741-.036-7.386,1.827-4.245,10.642l2.555,6.052s-4.471-.4-3.619,3.228h7.664l.038-.039A1.072,1.072,0,0,1,47.375,174.685Z" transform="translate(-1.964 -124.353)" fill="#eaa250"/>
      <path id="Trazado_878413" data-name="Trazado 878413" d="M88.809,108.282c-.846,2.954-3.867,5.286-7.719,5.969h0a2.909,2.909,0,0,1-4.742-.012c-3.793-.693-6.769-2.989-7.633-5.9-1.758,4.12-5.115,14.651.8,25.075a1.462,1.462,0,0,1-.4,1.886,6.336,6.336,0,0,0-1.1,1.076,1.089,1.089,0,0,0,.94,1.727h5.43a1.115,1.115,0,0,0,1.138-1.273,4.809,4.809,0,0,0-.33-1.153,4.3,4.3,0,0,1-.4-1.781V122.167a3.984,3.984,0,0,1,7.963,0V133.9a4.3,4.3,0,0,1-.4,1.781,4.819,4.819,0,0,0-.33,1.153A1.114,1.114,0,0,0,83.16,138.1h5.43a1.089,1.089,0,0,0,.94-1.727,6.343,6.343,0,0,0-1.1-1.076,1.462,1.462,0,0,1-.4-1.886c5.948-10.476,2.529-21.058.779-25.134Z" transform="translate(-22.61 -86.046)" fill="#eaa250"/>
      <path id="Trazado_878414" data-name="Trazado 878414" d="M178.483,174.941h-7.664a.514.514,0,0,1-.365-.152l-.038-.039a.513.513,0,0,1,.239-.859.63.63,0,0,0,.442-.4.491.491,0,0,0-.084-.48A5.775,5.775,0,0,0,170,172.03a1.977,1.977,0,0,1-.532-2.544,25.431,25.431,0,0,0,3.189-14.937.514.514,0,0,1,.507-.556c2.343-.023,4.026.663,5.006,2.038,1.344,1.886,1.252,5.011-.272,9.289l-.011.027-2.253,5.337a4.119,4.119,0,0,1,2.854,1.14,2.928,2.928,0,0,1,.49,2.721A.513.513,0,0,1,178.483,174.941Zm-6.447-1.027h6.019a1.726,1.726,0,0,0-.337-1.415,3.808,3.808,0,0,0-2.81-.788.514.514,0,0,1-.518-.711l2.549-6.039c1.4-3.936,1.535-6.741.4-8.335a4.415,4.415,0,0,0-3.611-1.6,26.353,26.353,0,0,1-3.361,14.964.945.945,0,0,0,.271,1.228,6.794,6.794,0,0,1,1.188,1.165,1.515,1.515,0,0,1,.244,1.444C172.059,173.859,172.048,173.887,172.037,173.915Z" transform="translate(-104.499 -122.369)"/>
      <path id="Trazado_878415" data-name="Trazado 878415" d="M46.01,174.94H38.346a.513.513,0,0,1-.5-.4,2.928,2.928,0,0,1,.49-2.721,4.118,4.118,0,0,1,2.854-1.14l-2.253-5.337-.011-.027c-1.524-4.278-1.616-7.4-.272-9.289.98-1.375,2.658-2.06,5.006-2.038a.514.514,0,0,1,.507.556,25.431,25.431,0,0,0,3.189,14.937,1.977,1.977,0,0,1-.532,2.545,5.774,5.774,0,0,0-1.009.986.491.491,0,0,0-.084.48.63.63,0,0,0,.442.4.513.513,0,0,1,.239.859l-.038.039A.513.513,0,0,1,46.01,174.94Zm-7.237-1.027h6.019c-.011-.028-.022-.056-.032-.084A1.514,1.514,0,0,1,45,172.385a6.792,6.792,0,0,1,1.188-1.165.946.946,0,0,0,.271-1.228A26.353,26.353,0,0,1,43.1,155.027a4.414,4.414,0,0,0-3.611,1.6c-1.136,1.594-1,4.4.4,8.335L42.439,171a.513.513,0,0,1-.519.711,3.806,3.806,0,0,0-2.809.788,1.724,1.724,0,0,0-.337,1.415Z" transform="translate(0 -122.367)"/>
      <path id="Trazado_878416" data-name="Trazado 878416" d="M110.178,175.377a10.052,10.052,0,0,1-3.407-.594.514.514,0,0,1-.339-.513.534.534,0,0,0-.007-.123,4.254,4.254,0,0,0-.291-1.027,4.8,4.8,0,0,1-.451-1.994V159.4a4.326,4.326,0,0,1,2.267-3.753l.035-.017a5.125,5.125,0,0,1,4.385,0l.035.017a4.326,4.326,0,0,1,2.267,3.753v11.731a4.8,4.8,0,0,1-.451,1.994,4.248,4.248,0,0,0-.291,1.027.545.545,0,0,0-.007.123.514.514,0,0,1-.339.513,10.048,10.048,0,0,1-3.406.594Zm-2.749-1.455a9.082,9.082,0,0,0,5.5,0,5.191,5.191,0,0,1,.36-1.227,3.778,3.778,0,0,0,.359-1.569V159.4a3.3,3.3,0,0,0-1.722-2.846,4.095,4.095,0,0,0-3.491,0,3.3,3.3,0,0,0-1.722,2.846v11.731a3.778,3.778,0,0,0,.359,1.569,5.176,5.176,0,0,1,.36,1.227Z" transform="translate(-54.013 -123.275)"/>
      <path id="Trazado_878417" data-name="Trazado 878417" d="M86.618,136.632h-5.43a1.683,1.683,0,0,1-1.292-.593,1.572,1.572,0,0,1-.352-1.28,5.262,5.262,0,0,1,.369-1.279,3.778,3.778,0,0,0,.359-1.569V120.18a3.471,3.471,0,0,0-6.936,0v11.731a3.778,3.778,0,0,0,.359,1.569,5.262,5.262,0,0,1,.369,1.279,1.572,1.572,0,0,1-.352,1.28,1.683,1.683,0,0,1-1.292.593h-5.43a1.667,1.667,0,0,1-1.514-.927,1.517,1.517,0,0,1,.168-1.628,6.8,6.8,0,0,1,1.188-1.165.946.946,0,0,0,.271-1.228c-6.042-10.641-2.593-21.4-.83-25.53a.513.513,0,0,1,.964.055c.8,2.708,3.644,4.882,7.233,5.538a.514.514,0,0,1,.326.208,2.4,2.4,0,0,0,3.906.01.512.512,0,0,1,.328-.206c3.654-.647,6.525-2.847,7.314-5.6a.513.513,0,0,1,.965-.061c1.777,4.138,5.257,14.916-.8,25.591a.945.945,0,0,0,.271,1.228,6.794,6.794,0,0,1,1.188,1.165,1.516,1.516,0,0,1,.168,1.628,1.666,1.666,0,0,1-1.514.927Zm-9.822-20.8a4.473,4.473,0,0,1,4.5,4.343v11.731a4.8,4.8,0,0,1-.451,1.994,4.25,4.25,0,0,0-.291,1.027.541.541,0,0,0,.124.445.659.659,0,0,0,.507.228h5.43a.646.646,0,0,0,.592-.352.5.5,0,0,0-.057-.547,5.774,5.774,0,0,0-1.009-.986,1.977,1.977,0,0,1-.532-2.544c5.329-9.385,2.984-18.88,1.229-23.5a10.4,10.4,0,0,1-7.436,5.057,3.421,3.421,0,0,1-5.318-.014,10.434,10.434,0,0,1-7.34-5c-1.74,4.609-4.068,14.092,1.247,23.453a1.977,1.977,0,0,1-.532,2.545,5.774,5.774,0,0,0-1.009.986.5.5,0,0,0-.057.547.646.646,0,0,0,.592.352h5.43a.659.659,0,0,0,.507-.228.54.54,0,0,0,.124-.445,4.252,4.252,0,0,0-.291-1.027,4.8,4.8,0,0,1-.451-1.994V120.181a4.471,4.471,0,0,1,4.488-4.344Z" transform="translate(-20.638 -84.059)"/>
    </g>
  </g>
</svg>
