<svg xmlns="http://www.w3.org/2000/svg" width="84.208" height="84.207" viewBox="0 0 84.208 84.207">
  <g id="Grupo_1189735" data-name="Grupo 1189735" transform="translate(6570 8040)">
    <g id="Grupo_1189710" data-name="Grupo 1189710" transform="translate(0.124 -0.479)">
      <g id="Grupo_1189011" data-name="Grupo 1189011" transform="translate(-7442.85 -8318.299)">
        <g id="Grupo_1188789" data-name="Grupo 1188789" transform="translate(583.726 -5835.222)">
          <rect id="Rectángulo_400898" data-name="Rectángulo 400898" width="75.49" height="75.489" rx="37.744" transform="translate(293.36 6118.358)" fill="#ffd907"/>
          <rect id="Rectángulo_400907" data-name="Rectángulo 400907" width="75.49" height="75.489" rx="37.744" transform="translate(293.36 6118.358)" fill="none"/>
          <g id="Grupo_1098742" data-name="Grupo 1098742" transform="translate(289 6114)">
            <g id="Rectángulo_400898-2" data-name="Rectángulo 400898" transform="translate(0)" fill="none" stroke="#fff" stroke-width="1" opacity="0.859">
              <rect width="84.208" height="84.207" rx="42.104" stroke="none"/>
              <rect x="0.5" y="0.5" width="83.208" height="83.207" rx="41.604" fill="none"/>
            </g>
            <g id="Rectángulo_400907-2" data-name="Rectángulo 400907" transform="translate(0)" fill="none" stroke="#0f1f33" stroke-linecap="round" stroke-width="1">
              <rect width="84.208" height="84.207" rx="42.104" stroke="none"/>
              <rect x="0.5" y="0.5" width="83.208" height="83.207" rx="41.604" fill="none"/>
            </g>
          </g>
        </g>
      </g>
    </g>
    <g id="collie-de-frontera" transform="translate(-6582.612 -8022)">
      <g id="Grupo_1189732" data-name="Grupo 1189732" transform="translate(34.335 0.723)">
        <g id="Grupo_1189728" data-name="Grupo 1189728" transform="translate(5.295 19.963)">
          <path id="Trazado_878556" data-name="Trazado 878556" d="M137.233,303.12c-1.14,11.988-6.087,13.566-7.751,15.623H116.59c-1.664-2.057-6.875-5.35-7.75-15.622.032-.1.065-.191.1-.286,0,0,2.263-3.416,3.46-3.925,1.886,1.286,19.692,1.94,21.579.687,1.2.509,3.158,3.239,3.158,3.239h0C137.169,302.931,137.2,303.025,137.233,303.12Z" transform="translate(-107.601 -290.761)" fill="#fff1cf"/>
          <path id="Trazado_878557" data-name="Trazado 878557" d="M138.048,226.515a17.606,17.606,0,0,0-3.042-1.724,6.524,6.524,0,0,1-1.327,3.37,6.9,6.9,0,0,1-5.527,2.576,8.453,8.453,0,0,1-4.2-1.154,8.46,8.46,0,0,1-4.207,1.155,6.9,6.9,0,0,1-5.521-2.574,6.526,6.526,0,0,1-1.328-3.372,17.675,17.675,0,0,0-3.042,1.723c2.489-7.139,8.132-12.074,14.1-12.074S135.559,219.375,138.048,226.515Z" transform="translate(-108.514 -214.44)" fill="#ffeab7"/>
          <path id="Trazado_878558" data-name="Trazado 878558" d="M98.692,358.173h6.3a14.329,14.329,0,0,1-2.625-6.54c-1-4.917-2.9-7.168-5.126-9.083a25.066,25.066,0,0,0-.415,14.17A1.931,1.931,0,0,0,98.692,358.173Z" transform="translate(-95.999 -330.192)" fill="#919191"/>
          <path id="Trazado_878559" data-name="Trazado 878559" d="M329.118,358.173h-6.3a14.329,14.329,0,0,0,2.625-6.54c1-4.917,2.9-7.168,5.126-9.083a25.066,25.066,0,0,1,.415,14.17A1.931,1.931,0,0,1,329.118,358.173Z" transform="translate(-300.941 -330.192)" fill="#919191"/>
        </g>
        <path id="Trazado_878560" data-name="Trazado 878560" d="M418.009,326.436h0Z" transform="translate(-381.65 -295.668)" fill="#919191"/>
        <g id="Grupo_1189731" data-name="Grupo 1189731" transform="translate(0)">
          <path id="Trazado_878561" data-name="Trazado 878561" d="M57.8,20.362c.154-4.643-3.325-10.643-5.346-11.883-4.077-2.5-8.994.332-11.063,2.383a.97.97,0,0,0-.154,1.177C44.709,18.045,53.962,16.905,57.8,20.362Z" transform="translate(-41.108 -7.5)" fill="#858586"/>
          <path id="Trazado_878562" data-name="Trazado 878562" d="M76.13,103.175a4.431,4.431,0,0,1,4.626,1.5,7.328,7.328,0,0,1-1.078,1.224,4.891,4.891,0,0,1,.615.318c-.065.118-.7,3.383-3.462,3.511a8.5,8.5,0,0,0-3.932,1.623.385.385,0,0,1-.6-.382,6.848,6.848,0,0,1,.269-1.023,7.158,7.158,0,0,1,1.648-2.7.386.386,0,0,0-.317-.656,11.275,11.275,0,0,0-1.54.3.386.386,0,0,1-.43-.573,6.64,6.64,0,0,1,.564-.808A6.571,6.571,0,0,1,76.13,103.175Z" transform="translate(-68.906 -93.843)" fill="#858586"/>
          <path id="Trazado_878563" data-name="Trazado 878563" d="M297.779,20.362c-.154-4.643,3.325-10.643,5.346-11.883,4.077-2.5,8.994.332,11.063,2.383a.971.971,0,0,1,.154,1.177C310.873,18.045,301.62,16.905,297.779,20.362Z" transform="translate(-273.014 -7.5)" fill="#919191"/>
          <path id="Trazado_878564" data-name="Trazado 878564" d="M56.031,205.62c3.79-7.344,8.626-8.482,12.259-4.9a10.856,10.856,0,0,1-1.309,2.125,5.226,5.226,0,0,1,1.167.79c-.034.042-.213.48-.558,1.031a5.275,5.275,0,0,1,.648.335c-.038.121,1.193,3.129-1.739,3.119-2.25-.008-4.939,1.63-6.171,2.47a.386.386,0,0,1-.6-.378,7.2,7.2,0,0,1,.314-1.256,7.7,7.7,0,0,1,.362-.881.386.386,0,0,0-.466-.536,13.933,13.933,0,0,0-1.834.734.386.386,0,0,1-.536-.471,8.194,8.194,0,0,1,.6-1.351q.083-.151.177-.306a.386.386,0,0,0-.46-.565c-.509.188-.969.386-1.348.567A.386.386,0,0,1,56.031,205.62Z" transform="translate(-54.551 -180.306)" fill="#858586"/>
          <g id="Grupo_1189729" data-name="Grupo 1189729" transform="translate(6.249 1.929)">
            <path id="Trazado_878565" data-name="Trazado 878565" d="M191.3,40.416a16.447,16.447,0,0,1-6.093,12.59c-5.374.086-9.51-1-13.784-4.787-4.58-4.055-3.485-15.2-.193-20.057h0a21.8,21.8,0,0,1,5.588-.662C186.012,27.5,191.3,31.887,191.3,40.416Z" transform="translate(-162.339 -27.5)" fill="#919191"/>
            <path id="Trazado_878566" data-name="Trazado 878566" d="M128.758,59.2a13.408,13.408,0,0,1-8.388,2.87c-9.072,0-14.481-8.336-14.481-15.46,0-6.612,3.18-10.735,8.892-12.254C111.554,40.254,112.42,49.344,117,53.4,121.274,57.182,124.261,59.156,128.758,59.2Z" transform="translate(-105.89 -33.698)" fill="#858586"/>
          </g>
          <path id="Trazado_878567" data-name="Trazado 878567" d="M442.23,302.3l0,0S442.229,302.305,442.23,302.3Z" transform="translate(-403.532 -273.862)" fill="#919191"/>
          <path id="Trazado_878568" data-name="Trazado 878568" d="M329.922,249.292s0,0,0,0Z" transform="translate(-302.06 -225.967)" fill="#919191"/>
          <path id="Trazado_878569" data-name="Trazado 878569" d="M329,263.46v0S329,263.461,329,263.46Z" transform="translate(-301.227 -238.767)" fill="#919191"/>
          <path id="Trazado_878570" data-name="Trazado 878570" d="M444.019,145.934l0,0S444.018,145.935,444.019,145.934Z" transform="translate(-405.149 -132.577)" fill="#919191"/>
          <path id="Trazado_878571" data-name="Trazado 878571" d="M348.037,119.734l0,0S348.035,119.734,348.037,119.734Z" transform="translate(-318.426 -108.905)" fill="#919191"/>
          <path id="Trazado_878572" data-name="Trazado 878572" d="M352.833,135.713v0S352.831,135.714,352.833,135.713Z" transform="translate(-322.76 -123.343)" fill="#919191"/>
          <path id="Trazado_878573" data-name="Trazado 878573" d="M339.12,205.62c-3.79-7.344-8.626-8.482-12.259-4.9a10.859,10.859,0,0,0,1.309,2.125,5.227,5.227,0,0,0-1.167.79c.034.042.213.48.558,1.031a5.28,5.28,0,0,0-.648.335c.038.121-1.193,3.129,1.739,3.119,2.25-.008,4.939,1.63,6.171,2.47a.386.386,0,0,0,.6-.378,7.194,7.194,0,0,0-.314-1.256,7.691,7.691,0,0,0-.362-.881.386.386,0,0,1,.466-.536,13.935,13.935,0,0,1,1.834.734.386.386,0,0,0,.536-.471,8.193,8.193,0,0,0-.6-1.351q-.083-.151-.177-.306a.386.386,0,0,1,.46-.565c.509.188.969.386,1.348.567A.386.386,0,0,0,339.12,205.62Z" transform="translate(-299.14 -180.306)" fill="#919191"/>
          <g id="Grupo_1189730" data-name="Grupo 1189730" transform="translate(11.559 1.929)">
            <path id="Trazado_878574" data-name="Trazado 878574" d="M190.321,58.341c-9.806.967-7.044-8.077-5.164-11.141l0,0a8.823,8.823,0,0,0,2.225-5.117,9.23,9.23,0,0,0-1.093-5.384,6.636,6.636,0,0,1,.189-6.656,4.168,4.168,0,0,1,7.7.06,6.658,6.658,0,0,1,.17,6.624,9.228,9.228,0,0,0-1.078,5.357,8.813,8.813,0,0,0,2.371,5.275q.547.572,1.092,1.261C203.853,57.694,195.56,62.613,190.321,58.341Z" transform="translate(-181.15 -27.5)" fill="#fff8e6"/>
            <path id="Trazado_878575" data-name="Trazado 878575" d="M170.1,242.825c-5.261,4.279-13.523-.665-6.407-9.725q.547-.689,1.092-1.261.075-.078.148-.159l0,0S161.965,242.019,170.1,242.825Z" transform="translate(-160.928 -211.983)" fill="#fff1cf"/>
          </g>
          <path id="Trazado_878576" data-name="Trazado 878576" d="M224.235,294.871a3.065,3.065,0,1,0,6.129,0c0-1.439-1.372-2.084-3.064-2.084S224.235,293.432,224.235,294.871Z" transform="translate(-206.569 -265.266)" fill="#666667"/>
          <path id="Trazado_878577" data-name="Trazado 878577" d="M352.682,103.175a4.431,4.431,0,0,0-4.626,1.5,7.327,7.327,0,0,0,1.078,1.224,4.889,4.889,0,0,0-.615.318c.065.118.7,3.383,3.462,3.511a8.5,8.5,0,0,1,3.932,1.623.385.385,0,0,0,.6-.382,6.85,6.85,0,0,0-.269-1.023,7.158,7.158,0,0,0-1.648-2.7.386.386,0,0,1,.317-.656,11.275,11.275,0,0,1,1.54.3.386.386,0,0,0,.43-.573,6.64,6.64,0,0,0-.564-.808A6.571,6.571,0,0,0,352.682,103.175Z" transform="translate(-318.446 -93.843)" fill="#919191"/>
        </g>
      </g>
      <g id="Grupo_1189734" data-name="Grupo 1189734" transform="translate(33.612 0)">
        <g id="Grupo_1189733" data-name="Grupo 1189733" transform="translate(14.705 16.263)">
          <path id="Trazado_878578" data-name="Trazado 878578" d="M186.774,171.186a.723.723,0,0,1-.723-.724V169.3a.723.723,0,1,1,1.447,0v1.158A.723.723,0,0,1,186.774,171.186Z" transform="translate(-186.051 -168.581)"/>
          <path id="Trazado_878579" data-name="Trazado 878579" d="M311.671,171.186a.723.723,0,0,1-.724-.724V169.3a.724.724,0,0,1,1.447,0v1.158A.723.723,0,0,1,311.671,171.186Z" transform="translate(-298.9 -168.581)"/>
        </g>
        <path id="Trazado_878580" data-name="Trazado 878580" d="M73.942,6.351a.723.723,0,1,0,1.043,1,9.023,9.023,0,0,0,1.3-1.733,1.7,1.7,0,0,0-.27-2.053c-2.458-2.437-7.67-5.11-11.95-2.486a7.82,7.82,0,0,0-1.929,1.933,21.029,21.029,0,0,0-7.074-1.09,21.03,21.03,0,0,0-7.074,1.09,7.82,7.82,0,0,0-1.929-1.933c-4.281-2.624-9.492.049-11.95,2.486a1.7,1.7,0,0,0-.271,2.053,9.414,9.414,0,0,0,3.28,3.319A14.639,14.639,0,0,0,39.467,10.1a7.894,7.894,0,0,0-2.106,1.819,7.382,7.382,0,0,0-.626.9,1.11,1.11,0,0,0,1.239,1.641c.143-.038.323-.083.531-.127a8.1,8.1,0,0,0-1.192,2.245,7.544,7.544,0,0,0-.3,1.131,1.109,1.109,0,0,0,1.73,1.1,11.048,11.048,0,0,1,1.313-.79c.077.485.176.971.3,1.454A15.222,15.222,0,0,0,35.172,25.7a1.109,1.109,0,0,0,1.463,1.509c.138-.066.281-.131.428-.195a8.876,8.876,0,0,0-.395.965,1.11,1.11,0,0,0,1.54,1.354c.207-.1.564-.268,1.021-.444q-.045.12-.085.239a7.859,7.859,0,0,0-.346,1.382A1.109,1.109,0,0,0,40.519,31.6l.147-.1a24.844,24.844,0,0,0-1.745,8.387.724.724,0,0,0,.7.747h.025a.724.724,0,0,0,.723-.7,23.69,23.69,0,0,1,.859-5.589c1.9,1.825,3.257,3.968,4.058,7.926a17.06,17.06,0,0,0,1.942,5.672h-4.9a1.2,1.2,0,0,1-1.168-.9,25.809,25.809,0,0,1-.679-3.829.723.723,0,0,0-1.44.143,27.244,27.244,0,0,0,.717,4.045,2.649,2.649,0,0,0,2.569,1.99H67.807a2.649,2.649,0,0,0,2.569-1.99,25.55,25.55,0,0,0-.908-15.9l.143.1a1.109,1.109,0,0,0,1.721-1.086,7.853,7.853,0,0,0-.344-1.377q-.042-.123-.087-.245c.457.176.814.342,1.022.444a1.11,1.11,0,0,0,1.539-1.355,8.868,8.868,0,0,0-.394-.964c.146.064.289.129.426.194A1.109,1.109,0,0,0,74.958,25.7a15.222,15.222,0,0,0-5.183-6.222c.121-.483.22-.969.3-1.454a11.069,11.069,0,0,1,1.314.791,1.109,1.109,0,0,0,1.728-1.1,7.528,7.528,0,0,0-.3-1.127,8.111,8.111,0,0,0-1.194-2.251c.208.044.388.089.531.127a1.11,1.11,0,0,0,1.239-1.64,7.351,7.351,0,0,0-.623-.893,7.907,7.907,0,0,0-2.108-1.822c.491-.2.942-.4,1.369-.617A.724.724,0,0,0,71.375,8.2,18.48,18.48,0,0,1,68.4,9.363a.146.146,0,0,0-.042.021.723.723,0,0,0,.1,1.382,5.94,5.94,0,0,1,3.184,2.071l.025.03c-.238-.045-.5-.088-.783-.122a1.11,1.11,0,0,0-.917,1.885,6.463,6.463,0,0,1,1.479,2.424l.033.1a10.992,10.992,0,0,0-1.75-.861.723.723,0,0,0-.976.607,15.379,15.379,0,0,1-.521,2.736.723.723,0,0,0,.365.842A12.316,12.316,0,0,1,73.207,25.5c-.165-.067-.332-.131-.5-.193a1.109,1.109,0,0,0-1.33,1.619c.057.093.11.186.163.284q.129.232.242.471c-.379-.157-.773-.3-1.158-.426A1.11,1.11,0,0,0,69.289,28.8a6.99,6.99,0,0,1,.33.8q.059.17.108.341a13.584,13.584,0,0,0-5.157-2.093,12.069,12.069,0,0,0-1.024-2.31.724.724,0,0,0-1.259.713c1.672,2.954,1.627,5.6-.121,7.074a4.99,4.99,0,0,1-5.422.393,4.143,4.143,0,0,0,2.109-3.4c0-1.732-1.451-2.807-3.788-2.807s-3.788,1.076-3.788,2.807a4.143,4.143,0,0,0,2.1,3.4,5.726,5.726,0,0,1-2.515.607h-.006a4.371,4.371,0,0,1-3.1-1.186,4.06,4.06,0,0,1-1.118-3.348,11.012,11.012,0,0,1,2.588-5.577c.352-.444.705-.851,1.048-1.211a9.562,9.562,0,0,0,2.569-5.7A9.91,9.91,0,0,0,51.664,11.5a5.905,5.905,0,0,1,.169-5.929,4.025,4.025,0,0,1,3.232-2.2A4.054,4.054,0,0,1,58.3,5.625a5.939,5.939,0,0,1,.151,5.9A9.9,9.9,0,0,0,57.288,17.3,9.572,9.572,0,0,0,59.856,23c.178.186.357.383.548.6a.723.723,0,1,0,1.095-.946c-.207-.239-.4-.454-.6-.658a8.126,8.126,0,0,1-2.175-4.851,8.471,8.471,0,0,1,.995-4.937,7.391,7.391,0,0,0-.189-7.346,8.154,8.154,0,0,0-.923-1.245,15.853,15.853,0,0,1,3.522.934A.723.723,0,0,0,63,4.3a7.43,7.43,0,0,1,1.827-1.985,6.564,6.564,0,0,1,5.682-.444A12.127,12.127,0,0,1,75,4.6a.245.245,0,0,1,.036.3A7.568,7.568,0,0,1,73.942,6.351ZM68.975,47.042a1.2,1.2,0,0,1-1.168.9H62.9a17.059,17.059,0,0,0,1.942-5.672c.8-3.962,2.16-6.106,4.064-7.932A24.476,24.476,0,0,1,68.975,47.042ZM52.724,30.323c0-.409.228-1.36,2.341-1.36s2.341.951,2.341,1.36a2.342,2.342,0,1,1-4.682,0ZM46.74,34.172a5.807,5.807,0,0,0,4.118,1.6h.008a7.371,7.371,0,0,0,4.2-1.377,7.387,7.387,0,0,0,4.225,1.382,5.854,5.854,0,0,0,3.81-1.343,5.236,5.236,0,0,0,1.838-3.65,6.849,6.849,0,0,0-.031-1.412,10.508,10.508,0,0,1,2.4.875,21.984,21.984,0,0,1,1.116,2.572c-2.317,2.076-4.052,4.508-5,9.165a13.962,13.962,0,0,1-2.269,5.96H48.972a13.96,13.96,0,0,1-2.269-5.96c-.942-4.654-2.676-7.086-4.991-9.162a21.726,21.726,0,0,1,1.112-2.575,10.508,10.508,0,0,1,2.4-.875q-.019.151-.031.3A5.532,5.532,0,0,0,46.74,34.172ZM50.6,4.806a7.355,7.355,0,0,0-.21,7.384A8.477,8.477,0,0,1,51.4,17.16,8.116,8.116,0,0,1,49.226,22c-.374.392-.756.833-1.138,1.314a14.5,14.5,0,0,0-2.53,4.535A13.584,13.584,0,0,0,40.4,29.946q.05-.173.111-.347a6.926,6.926,0,0,1,.328-.8A1.11,1.11,0,0,0,39.5,27.26c-.384.123-.778.268-1.157.425q.114-.241.246-.478.073-.135.16-.279a1.109,1.109,0,0,0-1.33-1.618c-.167.062-.334.126-.5.193a12.315,12.315,0,0,1,4.606-5.026.723.723,0,0,0,.365-.842,15.371,15.371,0,0,1-.521-2.736.723.723,0,0,0-.976-.607,10.989,10.989,0,0,0-1.75.861q.017-.052.035-.1a6.458,6.458,0,0,1,1.478-2.42,1.11,1.11,0,0,0-.919-1.884c-.28.034-.543.077-.782.122l.028-.034a5.938,5.938,0,0,1,3.181-2.067.724.724,0,0,0,.1-1.382.141.141,0,0,0-.043-.022c-2.439-.755-5.135-1.876-6.633-4.468a.244.244,0,0,1,.037-.3,12.125,12.125,0,0,1,4.493-2.724,6.563,6.563,0,0,1,5.682.444A7.428,7.428,0,0,1,47.133,4.3.724.724,0,0,0,48,4.559a15.827,15.827,0,0,1,3.484-.929A7.992,7.992,0,0,0,50.6,4.806Z" transform="translate(-33.612 0)"/>
      </g>
    </g>
  </g>
</svg>
