<svg xmlns="http://www.w3.org/2000/svg" width="84.208" height="84.207" viewBox="0 0 84.208 84.207">
  <g id="Grupo_1189714" data-name="Grupo 1189714" transform="translate(5607.124 8039.327)">
    <g id="Grupo_1189014" data-name="Grupo 1189014" transform="translate(-6479.85 -8318.104)">
      <g id="Grupo_1188789" data-name="Grupo 1188789" transform="translate(583.726 -5835.222)">
        <rect id="Rectángulo_400898" data-name="Rectángulo 400898" width="75.49" height="75.489" rx="37.744" transform="translate(293.36 6118.358)" fill="#ffd907"/>
        <rect id="Rectángulo_400907" data-name="Rectángulo 400907" width="75.49" height="75.489" rx="37.744" transform="translate(293.36 6118.358)" fill="none"/>
        <g id="Grupo_1098742" data-name="Grupo 1098742" transform="translate(289 6114)">
          <g id="Rectángulo_400898-2" data-name="Rectángulo 400898" transform="translate(0)" fill="none" stroke="#fff" stroke-width="1" opacity="0.859">
            <rect width="84.208" height="84.207" rx="42.104" stroke="none"/>
            <rect x="0.5" y="0.5" width="83.208" height="83.207" rx="41.604" fill="none"/>
          </g>
          <g id="Rectángulo_400907-2" data-name="Rectángulo 400907" transform="translate(0)" fill="none" stroke="#0f1f33" stroke-linecap="round" stroke-width="1">
            <rect width="84.208" height="84.207" rx="42.104" stroke="none"/>
            <rect x="0.5" y="0.5" width="83.208" height="83.207" rx="41.604" fill="none"/>
          </g>
        </g>
      </g>
    </g>
    <g id="Page-1" transform="translate(-5587.11 -8021.686)">
      <g id="_011---Cardio-Health" data-name="011---Cardio-Health" transform="translate(0.001 0)">
        <g id="Icons" transform="translate(0.816 0.815)">
          <path id="Shape" d="M3.262,9.02v2.43a.815.815,0,0,1-.815.815H.123a9.227,9.227,0,0,1-.114-1.835A.808.808,0,0,1,.62,9.672Z" transform="translate(-0.002 -1.665)" fill="#37474f"/>
          <path id="Shape-2" data-name="Shape" d="M22.044,44.032c-4.892,0-5.659,3.262-5.659,3.262H9.862c0-2.446,3.213-3.262,3.213-3.262V34.247a12.476,12.476,0,0,1-3.262-8.154,17.926,17.926,0,0,1,2.153-8.244.8.8,0,0,0-.44-1.076,23.339,23.339,0,0,0-7.371-1.28,5.871,5.871,0,0,1-4-4.892H2.474a.815.815,0,0,0,.815-.815V7.355l2.087-.522A3.282,3.282,0,0,0,7.3,5.471L9.217,2.6A3.249,3.249,0,0,1,11.011,1.28a28.7,28.7,0,0,1,7-1.28c3.262,0,5.708,4.892,5.708,9.785A3.846,3.846,0,0,1,21.6,13.634l.416,2.911a.876.876,0,0,0,.114.318,6.673,6.673,0,0,0-3.343,6.083c0,3.392,2.161,6,5.675,9.312-3.482.2-5.675,3.539-5.675,6.882A4.74,4.74,0,0,0,22.044,44.032Z" transform="translate(-0.029)" fill="#a8f1ed"/>
          <path id="Shape-3" data-name="Shape" d="M21.9,39.14c0-3.343,2.193-6.686,5.675-6.882-3.514-3.311-5.675-5.92-5.675-9.312a6.673,6.673,0,0,1,3.343-6.083.876.876,0,0,1-.114-.318l-.416-2.911a3.846,3.846,0,0,0,2.128-3.849C26.845,4.892,24.4,0,21.137,0a14,14,0,0,0-1.642.113c2.854.723,4.9,5.192,4.9,9.672a3.846,3.846,0,0,1-2.128,3.849l.416,2.911a.876.876,0,0,0,.114.318,6.673,6.673,0,0,0-3.343,6.083c0,3.392,2.161,6,5.675,9.312-3.482.2-5.675,3.539-5.675,6.882a4.74,4.74,0,0,0,3.262,4.892c-4.892,0-5.659,3.262-5.659,3.262h2.446s.766-3.262,5.659-3.262A4.74,4.74,0,0,1,21.9,39.14Z" transform="translate(-3.151 0)" fill="#d3f8f6"/>
          <path id="Shape-4" data-name="Shape" d="M50.181,44.523c0,3.262-3.262,8.154-10.6,8.154,0,.448-1.631,1.631-3.262,1.631H20.06s.766-3.262,5.659-3.262a4.74,4.74,0,0,1-3.262-4.892c0-3.343,2.193-6.686,5.675-6.882,1.5,1.411,3.253,2.96,5.186,4.738a.825.825,0,0,0,1.109,0c1.15-1.06,2.226-2.03,3.229-2.935a23.584,23.584,0,0,1,1.052,4.346,1.611,1.611,0,0,0,1.875,1.37c2.805-.481,7.967-2.259,7.967-8.79a16.868,16.868,0,0,1,1.631,6.523Z" transform="translate(-3.705 -7.014)" fill="#a8f1ed"/>
          <g id="Grupo_1189713" data-name="Grupo 1189713" transform="translate(22.497 30.986)">
            <path id="Shape-5" data-name="Shape" d="M51.677,38a8.978,8.978,0,0,1-1.026,4.375,12.024,12.024,0,0,1,.21,2.148c0,3.262-3.262,8.154-10.6,8.154,0,.448-1.631,1.631-3.262,1.631h2.446c1.631,0,3.262-1.182,3.262-1.631,7.339,0,10.6-4.892,10.6-8.154A16.868,16.868,0,0,0,51.677,38Z" transform="translate(-29.329 -38)" fill="#d3f8f6"/>
            <path id="Shape-6" data-name="Shape" d="M39.809,46.116a1.611,1.611,0,0,0,1.875,1.37c.376-.064.8-.155,1.238-.274a1.575,1.575,0,0,1-.667-1.1A23.584,23.584,0,0,0,41.2,41.77c-.612.552-1.261,1.142-1.928,1.747A19.953,19.953,0,0,1,39.809,46.116Z" transform="translate(-29.749 -38.696)" fill="#d3f8f6"/>
            <path id="Shape-7" data-name="Shape" d="M32.263,44.3a.825.825,0,0,0,1.109,0c.23-.212.444-.408.669-.611-1.666-1.521-3.195-2.883-4.517-4.127a5.356,5.356,0,0,0-1.931.478c1.385,1.283,2.951,2.678,4.671,4.26Z" transform="translate(-27.592 -38.288)" fill="#d3f8f6"/>
          </g>
          <path id="Shape-8" data-name="Shape" d="M45.83,26.637c0,3.987-2.976,6.89-7.632,11.114-1,.905-2.079,1.875-3.229,2.935a.825.825,0,0,1-1.109,0c-1.933-1.778-3.686-3.327-5.186-4.738C25.159,32.639,23,30.029,23,26.637a6.673,6.673,0,0,1,3.343-6.083A5.157,5.157,0,0,1,28.706,20c3.955,0,5.708,3.816,5.708,3.816S36.167,20,40.122,20C43.5,20,45.83,23.041,45.83,26.637Z" transform="translate(-4.246 -3.692)" fill="#ef314c"/>
          <path id="Shape-9" data-name="Shape" d="M42.431,20a5.771,5.771,0,0,0-1.235.137c2.71.63,4.5,3.353,4.5,6.5,0,3.987-2.976,6.89-7.632,11.114-.8.724-1.664,1.5-2.56,2.325.223.2.44.4.669.611a.825.825,0,0,0,1.109,0c1.15-1.06,2.226-2.03,3.229-2.935,4.656-4.224,7.632-7.127,7.632-11.114,0-3.6-2.332-6.637-5.708-6.637Z" transform="translate(-6.555 -3.692)" fill="#bb193b"/>
        </g>
        <g id="Layer_2">
          <path id="Shape-10" data-name="Shape" d="M4.685,17.082a.84.84,0,0,0,.258.042,22.982,22.982,0,0,1,7.069,1.2l-.2.441a17.932,17.932,0,0,0-2.024,8.139,13.24,13.24,0,0,0,3.262,8.474V44.26c-1.084.417-3.211,1.531-3.211,3.85a.815.815,0,0,0,.815.815H33.432a5.3,5.3,0,0,0,3.74-1.637c7.538-.208,10.937-5.315,10.937-8.963A17.571,17.571,0,0,0,46.4,31.436a.815.815,0,0,0-1.549.364c0,5.861-4.566,7.52-7.29,7.986a.809.809,0,0,1-.62-.148.762.762,0,0,1-.308-.521A23.468,23.468,0,0,0,35.7,35.13c3.017-2.746,5.33-4.988,6.549-7.406h2.6a.815.815,0,0,0,0-1.631H42.891a8.421,8.421,0,0,0,.326-2.33c0-4.25-2.8-7.454-6.523-7.454a7.059,7.059,0,0,0-5.708,3.077,7.059,7.059,0,0,0-5.708-3.077,6.147,6.147,0,0,0-1.768.263l-.245-1.689c.035-.022.073-.037.107-.06A4.757,4.757,0,0,0,25.328,10.6c0-5.119-2.621-10.6-6.523-10.6a29.646,29.646,0,0,0-7.237,1.311A4.069,4.069,0,0,0,9.328,2.96L7.411,5.837A2.439,2.439,0,0,1,5.968,6.849L1.239,8.031A1.631,1.631,0,0,0,.006,9.553c-.047,1.385.15,6.022,4.68,7.529ZM37.835,41.4c2.157-.37,6.686-1.693,8.167-6.317a12.687,12.687,0,0,1,.476,3.246c0,2.959-3.11,7.339-9.785,7.339a.815.815,0,0,0-.791.616,3.889,3.889,0,0,1-2.471,1.014H32.163a3.228,3.228,0,0,0,.453-1.631.815.815,0,1,0-1.631,0,1.631,1.631,0,0,1-1.631,1.631H18.524c.614-.744,1.862-1.631,4.308-1.631a.815.815,0,0,0,.2-1.606,3.947,3.947,0,0,1-2.644-4.1c0-2.742,1.706-5.664,4.575-6.029.784.734,1.622,1.491,2.516,2.3.762.689,1.563,1.414,2.4,2.184a1.646,1.646,0,0,0,2.218,0c.792-.729,1.549-1.414,2.273-2.07a20.226,20.226,0,0,1,.644,2.984,2.382,2.382,0,0,0,.956,1.631A2.455,2.455,0,0,0,37.835,41.4ZM33.4,35.016c-.765.692-1.57,1.42-2.418,2.193-.841-.773-1.645-1.5-2.41-2.193-3.135-2.835-5.589-5.056-6.964-7.292h3.669a.815.815,0,0,0,.774-.558L26.8,24.93,28.564,32a.815.815,0,0,0,.744.616h.046a.815.815,0,0,0,.764-.529l1.789-4.77L32.7,28.9a.8.8,0,0,0,.772.45.815.815,0,0,0,.722-.528l1.637-4.364.9,2.707a.815.815,0,0,0,.774.554h2.854c-1.374,2.233-3.828,4.457-6.963,7.292ZM30.245,21.282a.815.815,0,0,0,1.482,0c.015-.033,1.574-3.343,4.967-3.343,2.789,0,4.892,2.5,4.892,5.824a6.754,6.754,0,0,1-.425,2.33H38.1l-1.445-4.335a.815.815,0,0,0-1.538-.029L33.325,26.5l-.79-1.588a.815.815,0,0,0-1.494.082l-1.526,4.071L27.7,21.818a.815.815,0,0,0-1.565-.06L24.69,26.093H20.81a6.754,6.754,0,0,1-.425-2.33c0-3.32,2.1-5.824,4.892-5.824,3.364,0,4.9,3.2,4.967,3.343ZM6.36,8.435a4.067,4.067,0,0,0,2.4-1.694l1.918-2.877a2.437,2.437,0,0,1,1.34-.988,28.112,28.112,0,0,1,6.783-1.246c2.561,0,4.892,4.275,4.892,8.969a3.234,3.234,0,0,1-1.239,2.873,4.468,4.468,0,0,1-4.009.163.822.822,0,0,1-.511-.763V7.339a.815.815,0,0,0-1.631,0v5.535a2.434,2.434,0,0,0,1.542,2.278,6.875,6.875,0,0,0,3.862.361l.253,1.772a7.547,7.547,0,0,0-3.21,6.478,8.421,8.421,0,0,0,.326,2.33H17.939a.815.815,0,1,0,0,1.631H19.72a19.494,19.494,0,0,0,3.839,4.857c-3.036,1.024-4.8,4.291-4.8,7.375a5.974,5.974,0,0,0,1.668,4.362,5.54,5.54,0,0,0-3.81,2.976H11.665a4.238,4.238,0,0,1,2.4-1.656.815.815,0,0,0,.615-.79V35.063a.815.815,0,0,0-.238-.576,11.758,11.758,0,0,1-3.024-7.578,16.289,16.289,0,0,1,1.875-7.454L13.5,19a1.592,1.592,0,0,0,.029-1.267,1.636,1.636,0,0,0-.91-.906,23.682,23.682,0,0,0-7.535-1.339,4.887,4.887,0,0,1-3.107-3.262H3.262A1.631,1.631,0,0,0,4.893,10.6V8.806ZM1.631,9.618l1.631-.4V10.6H1.66a8.438,8.438,0,0,1-.024-.978Z" transform="translate(-0.001 0)"/>
        </g>
      </g>
    </g>
  </g>
</svg>
