<svg xmlns="http://www.w3.org/2000/svg" width="84.208" height="84.207" viewBox="0 0 84.208 84.207">
  <g id="Grupo_1189715" data-name="Grupo 1189715" transform="translate(-768.175 -4337.479)">
    <g id="Grupo_1189023" data-name="Grupo 1189023" transform="translate(-104.551 4058.701)">
      <g id="Grupo_1188789" data-name="Grupo 1188789" transform="translate(583.726 -5835.222)">
        <rect id="Rectángulo_400898" data-name="Rectángulo 400898" width="75.49" height="75.489" rx="37.744" transform="translate(293.36 6118.358)" fill="#ffd907"/>
        <rect id="Rectángulo_400907" data-name="Rectángulo 400907" width="75.49" height="75.489" rx="37.744" transform="translate(293.36 6118.358)" fill="none"/>
        <g id="Grupo_1098742" data-name="Grupo 1098742" transform="translate(289 6114)">
          <g id="Rectángulo_400898-2" data-name="Rectángulo 400898" transform="translate(0)" fill="none" stroke="#fff" stroke-width="1" opacity="0.859">
            <rect width="84.208" height="84.207" rx="42.104" stroke="none"/>
            <rect x="0.5" y="0.5" width="83.208" height="83.207" rx="41.604" fill="none"/>
          </g>
          <g id="Rectángulo_400907-2" data-name="Rectángulo 400907" transform="translate(0)" fill="none" stroke="#0f1f33" stroke-linecap="round" stroke-width="1">
            <rect width="84.208" height="84.207" rx="42.104" stroke="none"/>
            <rect x="0.5" y="0.5" width="83.208" height="83.207" rx="41.604" fill="none"/>
          </g>
        </g>
      </g>
    </g>
    <g id="gato" transform="translate(768.582 4353.027)">
      <path id="Trazado_878467" data-name="Trazado 878467" d="M86.259,139.486a28.752,28.752,0,0,1-8.709,1.224,28.775,28.775,0,0,1-8.691-1.218c-8.11,9.058.174,17.961,2.775,20.374a.548.548,0,0,1-.171.913,2.121,2.121,0,0,0-1.363,1.66,1.023,1.023,0,0,0,1.06,1.129h3.814c1.607,0,2.331-.993,2.525-2.461h.084c.194,1.468.919,2.461,2.525,2.461h3.855a1.023,1.023,0,0,0,1.06-1.129,2.12,2.12,0,0,0-1.363-1.66.548.548,0,0,1-.171-.913c2.6-2.414,10.889-11.32,2.77-20.38Z" transform="translate(-36.257 -110.026)" fill="#f9bd55"/>
      <path id="Trazado_878468" data-name="Trazado 878468" d="M111.061,169.5h-.435a3.021,3.021,0,0,0-3.021,3.021v.048s3.008,6.446,3.239,10.793c.23-4.347,3.239-10.793,3.239-10.793A3.021,3.021,0,0,0,111.061,169.5Z" transform="translate(-69.56 -133.7)" fill="#f4dbce"/>
      <path id="Trazado_878469" data-name="Trazado 878469" d="M122.886,235.128a8.639,8.639,0,0,0,0,.984A8.635,8.635,0,0,0,122.886,235.128Z" transform="translate(-81.602 -185.467)" fill="#f4dbce"/>
      <path id="Trazado_878470" data-name="Trazado 878470" d="M71.48,21.772a6.044,6.044,0,0,0,3.072-1.337c-2.16-.36-2.6-2.46-3.761-5.156,4.756-2.376,3.551-9.68,2.9-12.448a.432.432,0,0,0-.768-.155A7.133,7.133,0,0,1,68.6,5.062a7.619,7.619,0,0,0-4.552,2.8,19.12,19.12,0,0,0-7.21-1.181,19.12,19.12,0,0,0-7.21,1.181,7.621,7.621,0,0,0-4.553-2.8,7.133,7.133,0,0,1-4.315-2.386A.432.432,0,0,0,40,2.831c-.654,2.768-1.86,10.072,2.9,12.448-1.157,2.7-1.6,4.8-3.761,5.156A6.044,6.044,0,0,0,42.2,21.772a3.845,3.845,0,0,1-2.711,2.1s1.084,1.91,4.518,1.91a5.646,5.646,0,0,1-2.349,1.91s3.976,4.965,15.18,4.965,15.18-4.965,15.18-4.965a5.646,5.646,0,0,1-2.349-1.91c3.434,0,4.518-1.91,4.518-1.91a3.845,3.845,0,0,1-2.711-2.1Z" transform="translate(-15.55 -1.973)" fill="#f9bd55"/>
      <path id="Trazado_878471" data-name="Trazado 878471" d="M114.148,101.516a2.444,2.444,0,0,1-2.5,2.341c.222,2.117,1.258,3.719,2.5,3.719s2.282-1.6,2.5-3.719A2.444,2.444,0,0,1,114.148,101.516Z" transform="translate(-72.746 -80.076)" fill="#52565b"/>
      <path id="Trazado_878472" data-name="Trazado 878472" d="M115.6,120.739a1.8,1.8,0,0,0,3.335,0,1.8,1.8,0,0,0-3.335,0Z" transform="translate(-75.869 -94.356)" fill="#fd605b"/>
      <path id="Trazado_878473" data-name="Trazado 878473" d="M155.38,197.925c1.993-1.047,8.466-5.14,1.171-11.012-.757,4.929-4.513,8.876-6.115,10.362a.548.548,0,0,0,.171.913,2.12,2.12,0,0,1,1.363,1.66,1.023,1.023,0,0,1-1.06,1.129h4.234a1.025,1.025,0,0,0,1.057-1.149,2.015,2.015,0,0,0-.866-1.364A.314.314,0,0,1,155.38,197.925Z" transform="translate(-103.205 -147.436)" fill="#f9bd55"/>
      <path id="Trazado_878474" data-name="Trazado 878474" d="M192.617,142.777a2.541,2.541,0,0,0-2.9,2.387,14.979,14.979,0,0,1-2.609,8.285,7.171,7.171,0,0,1,1.684,2.681,21.175,21.175,0,0,0,5.921-10.153A2.545,2.545,0,0,0,192.617,142.777Z" transform="translate(-132.27 -112.601)" fill="#f9bd55"/>
      <path id="Trazado_878475" data-name="Trazado 878475" d="M175.44,3.835a.414.414,0,0,0-.025-.063c-.46.932-2.178,4.056-4.935,4.975-3.253,1.084-1.446,3.434-1.446,3.434l-.9.542s.542,2.53,2.711,2.53l1.844.952c4.586-2.451,3.4-9.631,2.754-12.37Z" transform="translate(-117.302 -2.977)" fill="#f98080"/>
      <path id="Trazado_878476" data-name="Trazado 878476" d="M45.824,8.746c-2.757-.919-4.475-4.044-4.935-4.975a.431.431,0,0,0-.025.063c-.648,2.739-1.832,9.919,2.754,12.37l1.844-.952c2.169,0,2.711-2.53,2.711-2.53l-.9-.542S49.077,9.831,45.824,8.746Z" transform="translate(-16.417 -2.976)" fill="#f98080"/>
      <path id="Trazado_878477" data-name="Trazado 878477" d="M118.559,89.288c0,.88-.926,2.124-1.806,2.124s-1.806-1.244-1.806-2.124.926-.212,1.806-.212S118.559,88.408,118.559,89.288Z" transform="translate(-75.352 -70.072)" fill="#52565b"/>
      <circle id="Elipse_11520" data-name="Elipse 11520" cx="2.337" cy="2.337" r="2.337" transform="translate(38.958 32.387)" fill="#f9e63a"/>
      <path id="Trazado_878478" data-name="Trazado 878478" d="M93.775,141.679a29.687,29.687,0,0,1-7.82-.962c.59,1.628,3.105,2.914,6.3,3.228a2.329,2.329,0,0,1,3.037,0c3.2-.314,5.717-1.6,6.305-3.23A29.671,29.671,0,0,1,93.775,141.679Z" transform="translate(-52.483 -110.995)" fill="#039be6"/>
      <path id="Trazado_878479" data-name="Trazado 878479" d="M54.556,197.925c-1.993-1.047-8.466-5.14-1.171-11.012.757,4.929,4.513,8.876,6.114,10.362a.548.548,0,0,1-.171.913,2.12,2.12,0,0,0-1.363,1.66,1.023,1.023,0,0,0,1.06,1.129H54.792a1.025,1.025,0,0,1-1.057-1.149,2.015,2.015,0,0,1,.866-1.364A.314.314,0,0,0,54.556,197.925Z" transform="translate(-24.123 -147.436)" fill="#f9bd55"/>
      <path id="Trazado_878480" data-name="Trazado 878480" d="M153.173,199.533h-4.234a.528.528,0,1,1,0-1.056.573.573,0,0,0,.438-.193.4.4,0,0,0,.1-.328,1.6,1.6,0,0,0-1.055-1.257,1.1,1.1,0,0,1-.649-.823,1.068,1.068,0,0,1,.332-.96c1.545-1.434,5.219-5.285,5.952-10.056a.528.528,0,0,1,.853-.331c2.562,2.063,3.76,4.153,3.559,6.214-.273,2.8-3.074,4.713-4.538,5.526a2.531,2.531,0,0,1,.82,1.5,1.481,1.481,0,0,1-.339,1.2A1.621,1.621,0,0,1,153.173,199.533Zm-2.713-1.056h2.712a.567.567,0,0,0,.435-.193.425.425,0,0,0,.1-.344,1.483,1.483,0,0,0-.649-1.016.833.833,0,0,1-.357-.739.85.85,0,0,1,.459-.7c1.2-.63,4.014-2.363,4.256-4.844.147-1.506-.691-3.089-2.491-4.712-1.066,4.67-4.575,8.342-6.1,9.76-.01.014,0,.03.026.043a2.636,2.636,0,0,1,1.671,2.063A1.439,1.439,0,0,1,150.461,198.477Zm3.194-2.057Z" transform="translate(-101.234 -145.463)"/>
      <path id="Trazado_878481" data-name="Trazado 878481" d="M57.054,199.533H52.82a1.621,1.621,0,0,1-1.239-.564,1.481,1.481,0,0,1-.339-1.2,2.529,2.529,0,0,1,.82-1.5c-1.464-.814-4.266-2.723-4.538-5.526-.2-2.061,1-4.152,3.559-6.214a.528.528,0,0,1,.853.331c.733,4.771,4.406,8.621,5.952,10.056a1.068,1.068,0,0,1,.332.96,1.1,1.1,0,0,1-.649.823,1.6,1.6,0,0,0-1.054,1.257.4.4,0,0,0,.1.328.572.572,0,0,0,.438.193.528.528,0,1,1,0,1.056Zm-5.989-13.6c-1.8,1.623-2.638,3.205-2.491,4.712.242,2.481,3.057,4.214,4.256,4.844a.85.85,0,0,1,.459.7.833.833,0,0,1-.357.739,1.482,1.482,0,0,0-.649,1.016.426.426,0,0,0,.1.344.566.566,0,0,0,.435.193h2.712a1.442,1.442,0,0,1-.06-.681,2.636,2.636,0,0,1,1.671-2.063c.03-.013.035-.029.035-.033C55.641,194.273,52.132,190.6,51.065,185.93Z" transform="translate(-22.152 -145.463)"/>
      <path id="Trazado_878482" data-name="Trazado 878482" d="M123.488,197.259a2.755,2.755,0,0,1-2.493-1.254c-.963-1.513-.792-4.378.51-8.518a52.232,52.232,0,0,1,2.177-5.654.528.528,0,1,1,.957.447c-1.309,2.806-4.356,10.639-2.753,13.157a1.74,1.74,0,0,0,1.6.765.528.528,0,0,1,0,1.056Z" transform="translate(-79.637 -143.189)"/>
      <path id="Trazado_878483" data-name="Trazado 878483" d="M106.3,197.259a.528.528,0,0,1,0-1.056,1.74,1.74,0,0,0,1.6-.765c1.6-2.518-1.443-10.351-2.753-13.157a.528.528,0,0,1,.957-.447,52.231,52.231,0,0,1,2.177,5.654c1.3,4.139,1.473,7,.51,8.518A2.755,2.755,0,0,1,106.3,197.259Z" transform="translate(-67.589 -143.19)"/>
      <path id="Trazado_878484" data-name="Trazado 878484" d="M186.821,154.688a.528.528,0,0,1-.5-.369,6.713,6.713,0,0,0-1.567-2.48.528.528,0,0,1-.042-.67,14.567,14.567,0,0,0,2.51-8,3.056,3.056,0,0,1,1.1-2.207,3.076,3.076,0,0,1,4.93,3.187,21.56,21.56,0,0,1-6.082,10.408.53.53,0,0,1-.349.131Zm-1.012-3.251a8.212,8.212,0,0,1,1.217,1.814,21.011,21.011,0,0,0,5.207-9.385A2.02,2.02,0,0,0,189,141.776a1.971,1.971,0,0,0-.722,1.443A15.835,15.835,0,0,1,185.809,151.437Z" transform="translate(-130.299 -110.632)"/>
      <path id="Trazado_878485" data-name="Trazado 878485" d="M54.87,31.212c-11.328,0-15.424-4.952-15.592-5.163a.528.528,0,0,1,.26-.835,3.687,3.687,0,0,0,1.405-.942,5.075,5.075,0,0,1-3.88-2.111.528.528,0,0,1,.359-.779,3.242,3.242,0,0,0,1.936-1.175,7.6,7.6,0,0,1-2.533-1.336.528.528,0,0,1,.248-.929c1.445-.241,1.966-1.385,2.835-3.556.11-.274.222-.555.342-.844-1.956-1.172-3.076-3.277-3.332-6.266A21.959,21.959,0,0,1,37.511.736a.96.96,0,0,1,1.7-.351,6.631,6.631,0,0,0,4.011,2.188A8.27,8.27,0,0,1,47.833,5.26,19.687,19.687,0,0,1,54.87,4.183,19.684,19.684,0,0,1,61.908,5.26a8.27,8.27,0,0,1,4.606-2.687A6.629,6.629,0,0,0,70.525.385a.96.96,0,0,1,1.7.351,21.966,21.966,0,0,1,.593,6.538c-.256,2.989-1.376,5.095-3.332,6.266.12.289.232.57.342.844.869,2.171,1.39,3.315,2.835,3.556a.528.528,0,0,1,.248.929,7.6,7.6,0,0,1-2.533,1.336,3.241,3.241,0,0,0,1.936,1.175.528.528,0,0,1,.359.779,5.075,5.075,0,0,1-3.88,2.111,3.687,3.687,0,0,0,1.405.942.528.528,0,0,1,.26.835c-.169.211-4.264,5.163-15.592,5.163ZM40.6,25.883c1.354,1.22,5.61,4.273,14.273,4.273,8.7,0,12.932-3.05,14.276-4.271a7.087,7.087,0,0,1-1.876-1.77.528.528,0,0,1,.43-.834,5.3,5.3,0,0,0,3.581-1.112A4.4,4.4,0,0,1,69.022,20a.528.528,0,0,1,.487-.733,4.078,4.078,0,0,0,1.9-.648c-1.3-.7-1.893-2.18-2.56-3.845-.162-.406-.331-.826-.518-1.262a.528.528,0,0,1,.249-.681c4.278-2.137,3.335-8.716,2.664-11.658a7.856,7.856,0,0,1-4.5,2.428A7.108,7.108,0,0,0,62.5,6.209a.528.528,0,0,1-.621.174A18.733,18.733,0,0,0,54.9,5.24h-.057a18.734,18.734,0,0,0-6.984,1.143.528.528,0,0,1-.621-.174A7.108,7.108,0,0,0,42.989,3.6a7.856,7.856,0,0,1-4.5-2.428c-.671,2.943-1.614,9.521,2.664,11.658a.528.528,0,0,1,.249.681c-.187.437-.355.856-.518,1.262-.666,1.665-1.259,3.147-2.56,3.845a4.078,4.078,0,0,0,1.9.648.528.528,0,0,1,.487.733,4.394,4.394,0,0,1-2.261,2.165,5.3,5.3,0,0,0,3.582,1.112.528.528,0,0,1,.43.834A7.08,7.08,0,0,1,40.6,25.883Z" transform="translate(-13.578 0)"/>
      <path id="Trazado_878486" data-name="Trazado 878486" d="M170.714,14.762a.528.528,0,0,1-.249-.994c1.808-.967,2.839-2.869,3.063-5.654a19.434,19.434,0,0,0-.306-4.845,9.374,9.374,0,0,1-4.545,4.008c-.87.29-1.387.686-1.538,1.177a1.861,1.861,0,0,0,.343,1.434.528.528,0,0,1-.147.775l-.553.332a2.346,2.346,0,0,0,2.089,1.76.528.528,0,0,1,0,1.056c-2.053,0-3.009-1.928-3.227-2.948a.528.528,0,0,1,.245-.564l.455-.273a2.608,2.608,0,0,1-.214-1.88,3.094,3.094,0,0,1,2.214-1.87c2.56-.853,4.189-3.819,4.628-4.708a.528.528,0,0,1,.963.035.708.708,0,0,1,.049.14,22.029,22.029,0,0,1,.6,6.457c-.254,3.166-1.471,5.353-3.617,6.5A.527.527,0,0,1,170.714,14.762Z" transform="translate(-115.331 -1.006)"/>
      <path id="Trazado_878487" data-name="Trazado 878487" d="M81.949,162.124H78.094a2.773,2.773,0,0,1-2.567-1.371,2.772,2.772,0,0,1-2.567,1.371H69.147a1.628,1.628,0,0,1-1.239-.561,1.465,1.465,0,0,1-.343-1.176,2.636,2.636,0,0,1,1.671-2.063c.03-.013.035-.029.034-.033a22.028,22.028,0,0,1-5.548-7.906c-1.793-4.745-.874-9.192,2.73-13.217a.527.527,0,0,1,.552-.151,31.1,31.1,0,0,0,17.083-.006.527.527,0,0,1,.553.151c3.608,4.026,4.528,8.474,2.736,13.221a21.978,21.978,0,0,1-5.54,7.9c-.009.014,0,.03.026.043a2.636,2.636,0,0,1,1.671,2.063,1.465,1.465,0,0,1-.343,1.176A1.627,1.627,0,0,1,81.949,162.124Zm-6.464-3.517h.084a.528.528,0,0,1,.524.459c.183,1.385.8,2,2,2h3.855a.573.573,0,0,0,.438-.193.4.4,0,0,0,.1-.328,1.6,1.6,0,0,0-1.055-1.257,1.1,1.1,0,0,1-.649-.823,1.069,1.069,0,0,1,.332-.96c2.58-2.393,10.349-10.81,2.958-19.388a32.377,32.377,0,0,1-17.058.006c-7.382,8.576.384,16.989,2.963,19.382a1.068,1.068,0,0,1,.332.96,1.1,1.1,0,0,1-.649.823,1.6,1.6,0,0,0-1.055,1.257.4.4,0,0,0,.1.328.573.573,0,0,0,.438.193H72.96c1.2,0,1.818-.618,2-2A.528.528,0,0,1,75.485,158.606Z" transform="translate(-34.244 -108.054)"/>
      <path id="Trazado_878488" data-name="Trazado 878488" d="M112.3,156.571a2.865,2.865,0,1,1,2.865-2.865A2.868,2.868,0,0,1,112.3,156.571Zm0-4.673a1.809,1.809,0,1,0,1.809,1.809A1.811,1.811,0,0,0,112.3,151.9Z" transform="translate(-71.001 -118.983)"/>
      <path id="Trazado_878489" data-name="Trazado 878489" d="M93.325,142.5a.528.528,0,0,1-.344-.127,1.8,1.8,0,0,0-2.35,0,.531.531,0,0,1-.4.125c-3.436-.337-6.085-1.74-6.75-3.574a.528.528,0,0,1,.635-.689,31.731,31.731,0,0,0,15.37,0,.528.528,0,0,1,.636.689c-.663,1.835-3.313,3.239-6.75,3.576Zm-8.11-2.915a9.181,9.181,0,0,0,4.915,1.84,2.857,2.857,0,0,1,3.352,0,9.175,9.175,0,0,0,4.917-1.841,33.736,33.736,0,0,1-13.184,0Z" transform="translate(-50.511 -109.023)"/>
      <path id="Trazado_878490" data-name="Trazado 878490" d="M112.3,165.3a2.868,2.868,0,0,1-2.865-2.865.528.528,0,0,1,.528-.528h4.673a.528.528,0,0,1,.528.528A2.868,2.868,0,0,1,112.3,165.3Zm-1.73-2.337a1.809,1.809,0,0,0,3.46,0Z" transform="translate(-71.001 -127.71)"/>
      <path id="Trazado_878491" data-name="Trazado 878491" d="M120.9,163.6a.528.528,0,0,1-.528-.528v-.637a.528.528,0,1,1,1.056,0v.637A.528.528,0,0,1,120.9,163.6Z" transform="translate(-79.627 -127.71)"/>
      <path id="Trazado_878492" data-name="Trazado 878492" d="M114.782,89.969a2.807,2.807,0,0,1-2.334-2.652.96.96,0,0,1,.335-.8,1.418,1.418,0,0,1,1.269-.063,2.2,2.2,0,0,0,1.46,0,1.419,1.419,0,0,1,1.269.063.959.959,0,0,1,.335.8A2.807,2.807,0,0,1,114.782,89.969Zm-1.273-2.559c.065.648.772,1.5,1.273,1.5s1.208-.854,1.273-1.5c-.093.018-.2.046-.289.067a3.191,3.191,0,0,1-1.968,0C113.712,87.456,113.6,87.428,113.509,87.41Z" transform="translate(-73.38 -68.1)"/>
      <path id="Trazado_878493" data-name="Trazado 878493" d="M124.257,102.422q-.127,0-.26-.009a2.983,2.983,0,0,1-3-2.867.528.528,0,0,1,.527-.53h0a.528.528,0,0,1,.528.523,1.909,1.909,0,0,0,2.019,1.82,1.522,1.522,0,0,0,1.2-.344,2.291,2.291,0,0,0,.576-1.473.537.537,0,0,1,.53-.525.527.527,0,0,1,.526.527,3.346,3.346,0,0,1-.909,2.241,2.462,2.462,0,0,1-1.739.637Z" transform="translate(-80.124 -78.104)"/>
      <path id="Trazado_878494" data-name="Trazado 878494" d="M100.678,102.422a2.46,2.46,0,0,1-1.739-.638,3.346,3.346,0,0,1-.909-2.241.528.528,0,0,1,1.056,0,2.29,2.29,0,0,0,.576,1.471,1.516,1.516,0,0,0,1.2.344,1.91,1.91,0,0,0,2.019-1.817.528.528,0,0,1,.528-.527h0a.528.528,0,0,1,.527.53,2.983,2.983,0,0,1-3,2.867C100.849,102.419,100.763,102.422,100.678,102.422Z" transform="translate(-62.008 -78.104)"/>
      <path id="Trazado_878495" data-name="Trazado 878495" d="M112.176,106.14c-1.524,0-2.77-1.724-3.029-4.192a.528.528,0,0,1,.487-.582,1.908,1.908,0,0,0,2.014-1.82.53.53,0,0,1,.528-.52h0a.526.526,0,0,1,.524.521,1.908,1.908,0,0,0,2.014,1.819.528.528,0,0,1,.487.582C114.945,104.416,113.7,106.14,112.176,106.14Zm-1.906-3.8c.284,1.571,1.075,2.74,1.906,2.74s1.622-1.168,1.906-2.74a2.887,2.887,0,0,1-1.906-1.2A2.886,2.886,0,0,1,110.27,102.344Z" transform="translate(-70.774 -78.111)"/>
      <path id="Trazado_878496" data-name="Trazado 878496" d="M174.925,93.67a.529.529,0,0,1-.125-.015,48.115,48.115,0,0,0-13.01-1.261.528.528,0,0,1-.073-1.054,49.346,49.346,0,0,1,13.331,1.288.528.528,0,0,1-.124,1.041Z" transform="translate(-111.856 -72.014)"/>
      <path id="Trazado_878497" data-name="Trazado 878497" d="M174.834,106.665a.526.526,0,0,1-.243-.06,48.117,48.117,0,0,0-12.329-4.341.528.528,0,0,1,.182-1.04,49.323,49.323,0,0,1,12.634,4.444.528.528,0,0,1-.244,1Z" transform="translate(-112.328 -79.839)"/>
      <path id="Trazado_878498" data-name="Trazado 878498" d="M19.946,93.669a.528.528,0,0,1-.124-1.042,49.336,49.336,0,0,1,13.331-1.288.528.528,0,0,1-.072,1.054,48.188,48.188,0,0,0-13.01,1.261A.53.53,0,0,1,19.946,93.669Z" transform="translate(0 -72.013)"/>
      <path id="Trazado_878499" data-name="Trazado 878499" d="M22.609,106.665a.528.528,0,0,1-.244-1A49.329,49.329,0,0,1,35,101.225a.528.528,0,0,1,.182,1.04,48.2,48.2,0,0,0-12.329,4.341A.523.523,0,0,1,22.609,106.665Z" transform="translate(-2.1 -79.84)"/>
      <path id="Trazado_878500" data-name="Trazado 878500" d="M136.171,73.8a.528.528,0,0,1-.528-.526,2.029,2.029,0,0,1,2.02-2.033,2.026,2.026,0,0,1,2.033,2.02.528.528,0,0,1-.526.53h0a.528.528,0,0,1-.528-.526.97.97,0,0,0-.97-.967h0a.971.971,0,0,0-.967.973.528.528,0,0,1-.526.53Z" transform="translate(-91.676 -56.195)"/>
      <path id="Trazado_878501" data-name="Trazado 878501" d="M95.177,73.8a.528.528,0,0,1-.528-.528.97.97,0,0,0-1.94,0,.528.528,0,0,1-1.056,0,2.026,2.026,0,0,1,4.053,0A.528.528,0,0,1,95.177,73.8Z" transform="translate(-56.977 -56.195)"/>
      <path id="Trazado_878502" data-name="Trazado 878502" d="M41.648,14.757a.526.526,0,0,1-.249-.063c-2.146-1.147-3.363-3.334-3.617-6.5a22.027,22.027,0,0,1,.6-6.457.765.765,0,0,1,.05-.142.527.527,0,0,1,.962-.033c.439.889,2.069,3.855,4.628,4.708a3.1,3.1,0,0,1,2.214,1.87,2.606,2.606,0,0,1-.215,1.88l.455.273a.528.528,0,0,1,.245.564c-.218,1.02-1.174,2.948-3.227,2.948a.528.528,0,0,1,0-1.056,2.36,2.36,0,0,0,2.087-1.76l-.551-.331a.528.528,0,0,1-.147-.775,1.858,1.858,0,0,0,.342-1.438c-.152-.489-.669-.883-1.536-1.172a9.378,9.378,0,0,1-4.546-4.008,19.437,19.437,0,0,0-.306,4.846c.224,2.785,1.254,4.687,3.063,5.654a.528.528,0,0,1-.25.994Z" transform="translate(-14.447 -1.001)"/>
      <path id="Trazado_878503" data-name="Trazado 878503" d="M115.3,120.412a2.581,2.581,0,0,1-2.112-1.36.528.528,0,0,1,0-.57,2.318,2.318,0,0,1,4.224,0,.529.529,0,0,1,0,.571A2.582,2.582,0,0,1,115.3,120.412Zm-1.016-1.646a1.169,1.169,0,0,0,2.031,0,1.168,1.168,0,0,0-2.031,0Z" transform="translate(-73.897 -92.383)"/>
    </g>
  </g>
</svg>
