<svg xmlns="http://www.w3.org/2000/svg" xmlns:xlink="http://www.w3.org/1999/xlink" width="84.208" height="84.207" viewBox="0 0 84.208 84.207">
  <defs>
    <clipPath id="clip-path">
      <path id="path6018" d="M0-682.665H52.665V-630H0Z" transform="translate(0 682.665)"/>
    </clipPath>
  </defs>
  <g id="Grupo_1189716" data-name="Grupo 1189716" transform="translate(-1082.927 -4337.479)">
    <g id="Grupo_1189024" data-name="Grupo 1189024" transform="translate(210.201 4058.701)">
      <g id="Grupo_1188789" data-name="Grupo 1188789" transform="translate(583.726 -5835.222)">
        <rect id="Rectángulo_400898" data-name="Rectángulo 400898" width="75.49" height="75.489" rx="37.744" transform="translate(293.36 6118.358)" fill="#ffd907"/>
        <rect id="Rectángulo_400907" data-name="Rectángulo 400907" width="75.49" height="75.489" rx="37.744" transform="translate(293.36 6118.358)" fill="none"/>
        <g id="Grupo_1098742" data-name="Grupo 1098742" transform="translate(289 6114)">
          <g id="Rectángulo_400898-2" data-name="Rectángulo 400898" transform="translate(0)" fill="none" stroke="#fff" stroke-width="1" opacity="0.859">
            <rect width="84.208" height="84.207" rx="42.104" stroke="none"/>
            <rect x="0.5" y="0.5" width="83.208" height="83.207" rx="41.604" fill="none"/>
          </g>
          <g id="Rectángulo_400907-2" data-name="Rectángulo 400907" transform="translate(0)" fill="none" stroke="#0f1f33" stroke-linecap="round" stroke-width="1">
            <rect width="84.208" height="84.207" rx="42.104" stroke="none"/>
            <rect x="0.5" y="0.5" width="83.208" height="83.207" rx="41.604" fill="none"/>
          </g>
        </g>
      </g>
    </g>
    <g id="g6012" transform="translate(1098.699 5033.915)">
      <g id="g6014" transform="translate(0 -682.665)">
        <g id="g6016" transform="translate(0 0)" clip-path="url(#clip-path)">
          <g id="g6022" transform="translate(5.635 33.409)">
            <path id="path6024" d="M-495.194-221.123h-41.4v-15.851a2.634,2.634,0,0,1,2.634-2.634h36.128a2.634,2.634,0,0,1,2.634,2.634Z" transform="translate(536.589 239.607)" fill="#ffdfcf"/>
          </g>
          <g id="g6026" transform="translate(42.038 33.409)">
            <path id="path6028" d="M-28.218,0h-2.359a2.634,2.634,0,0,1,2.634,2.634V18.485h2.359V2.634A2.634,2.634,0,0,0-28.218,0" transform="translate(30.577)" fill="#ffcebf"/>
          </g>
          <g id="g6030" transform="translate(18.795 37.525)">
            <path id="path6032" d="M-180.334-171.885h-15.075v-7.491a6.878,6.878,0,0,1,6.878-6.878h1.32a6.878,6.878,0,0,1,6.878,6.878Z" transform="translate(195.409 186.254)" fill="#766e6e"/>
          </g>
          <g id="g6034" transform="translate(25.153 37.525)">
            <path id="path6036" d="M-22,0h-1.32c-.175,0-.348.009-.52.021a6.877,6.877,0,0,1,6.358,6.856v7.491h2.359V6.878A6.878,6.878,0,0,0-22,0" transform="translate(23.844)" fill="#686262"/>
          </g>
          <path id="path6038" d="M290.625-390.736h-9.251v10.888h9.251Z" transform="translate(-259.667 413.258)" fill="#ffcebf"/>
          <path id="path6040" d="M370.714-379.849h2.359v-10.888h-2.359Z" transform="translate(-342.115 413.258)" fill="#ffaf9e"/>
          <g id="g6042" transform="translate(36.18 26.002)">
            <path id="path6044" d="M-51.258-25.628A2.142,2.142,0,0,1-53.4-23.486a2.142,2.142,0,0,1-2.142-2.142A2.142,2.142,0,0,1-53.4-27.771a2.142,2.142,0,0,1,2.142,2.142" transform="translate(55.543 27.771)" fill="#fe646f"/>
          </g>
          <g id="g6046" transform="translate(37.143 26.002)">
            <path id="path6048" d="M-14.11,0a2.131,2.131,0,0,0-1.18.355,2.139,2.139,0,0,1,.963,1.788,2.14,2.14,0,0,1-.963,1.788,2.131,2.131,0,0,0,1.18.355,2.142,2.142,0,0,0,2.142-2.142A2.142,2.142,0,0,0-14.11,0" transform="translate(15.289)" fill="#fd4755"/>
          </g>
          <g id="g6050" transform="translate(13.734 4.253)">
            <path id="path6052" d="M-257.931-123.3h-21.562v-3.628a6.677,6.677,0,0,1,.885-3.321,6.682,6.682,0,0,1,2.417-2.441,6.679,6.679,0,0,1,4.742-.777l5.074,1.058,6.1,1.272,2.269,7.583Z" transform="translate(279.493 133.611)" fill="#9e9797"/>
          </g>
          <g id="g6054" transform="translate(26.852 5.453)">
            <path id="path6056" d="M-100.1-105.931a5.093,5.093,0,0,1-1.592.253h-1.661a5.115,5.115,0,0,1-5.114-5.115v-3.993l6.1,1.272Z" transform="translate(108.468 114.786)" fill="#8e8787"/>
          </g>
          <g id="g6058" transform="translate(29.21 0.771)">
            <path id="path6060" d="M-81.053-164.952h-1.661a5.115,5.115,0,0,1-5.115-5.115v-8.674l2.711,2.134a2.466,2.466,0,0,0,1.526.529h3.465a2.466,2.466,0,0,0,1.542-.542l2.647-2.121v8.674a5.115,5.115,0,0,1-5.115,5.115" transform="translate(87.829 178.741)" fill="#9e9797"/>
          </g>
          <g id="g6062" transform="translate(29.21 0.771)">
            <path id="path6064" d="M-4.209-25.53A2.466,2.466,0,0,0-2.684-25H-.325a2.466,2.466,0,0,1-1.526-.529l-2.711-2.134v1.857Z" transform="translate(4.561 27.664)" fill="#8e8787"/>
          </g>
          <g id="g6066" transform="translate(33.976 0.771)">
            <path id="path6068" d="M-57.011-22.609v6.784a5.114,5.114,0,0,1-4.766,5.1c.116.008.232.013.349.013h1.661a5.115,5.115,0,0,0,5.115-5.115V-24.5Z" transform="translate(61.777 24.499)" fill="#8e8787"/>
          </g>
          <g id="g6070" transform="translate(8.897 11.642)">
            <path id="path6072" d="M-417.134-27.949v2.69a5.853,5.853,0,0,1-5.853,5.853h-23.164A5.853,5.853,0,0,1-452-25.259v-2.69a2.336,2.336,0,0,1,2.336-2.336h2.675a2.071,2.071,0,0,1,1.978,1.459,2.071,2.071,0,0,0,1.978,1.459H-426.1a2.071,2.071,0,0,0,1.978-1.459,2.071,2.071,0,0,1,1.978-1.459h2.675a2.336,2.336,0,0,1,2.336,2.336" transform="translate(452.004 30.285)" fill="#ffdfcf"/>
          </g>
          <g id="g6074" transform="translate(8.897 11.642)">
            <path id="path6076" d="M-417.134-27.949v2.69a5.853,5.853,0,0,1-5.853,5.853h-23.164A5.853,5.853,0,0,1-452-25.259v-2.69a2.336,2.336,0,0,1,2.336-2.336h2.675a2.071,2.071,0,0,1,1.978,1.459,2.071,2.071,0,0,0,1.978,1.459H-426.1a2.071,2.071,0,0,0,1.978-1.459,2.071,2.071,0,0,1,1.978-1.459h2.675a2.336,2.336,0,0,1,2.336,2.336" transform="translate(452.004 30.285)" fill="#ffdfcf"/>
          </g>
          <g id="g6078" transform="translate(8.897 11.642)">
            <path id="path6080" d="M-417.134-27.949v2.69a5.853,5.853,0,0,1-5.853,5.853h-23.164A5.853,5.853,0,0,1-452-25.259v-2.69a2.336,2.336,0,0,1,2.336-2.336h2.675a2.071,2.071,0,0,1,1.978,1.459,2.071,2.071,0,0,0,1.978,1.459H-426.1a2.071,2.071,0,0,0,1.978-1.459,2.071,2.071,0,0,1,1.978-1.459h2.675a2.336,2.336,0,0,1,2.336,2.336" transform="translate(452.004 30.285)" fill="#ffdfcf"/>
          </g>
          <g id="g6082" transform="translate(11.55 11.642)">
            <path id="path6084" d="M-23.666-17.458A2.071,2.071,0,0,0-21.687-16h2.359a2.071,2.071,0,0,1-1.978-1.459,2.071,2.071,0,0,0-1.978-1.459h-2.359a2.071,2.071,0,0,1,1.978,1.459" transform="translate(25.644 18.917)" fill="#ffcebf"/>
          </g>
          <g id="g6086" transform="translate(35.556 11.642)">
            <path id="path6088" d="M-70.288,0h-2.359a2.336,2.336,0,0,1,2.336,2.336v2.69a5.853,5.853,0,0,1-5.853,5.853H-73.8a5.853,5.853,0,0,0,5.853-5.853V2.336A2.336,2.336,0,0,0-70.288,0" transform="translate(76.164)" fill="#ffcebf"/>
          </g>
          <g id="g6090" transform="translate(4.863 32.637)">
            <path id="path6092" d="M32.167-125.717a.771.771,0,0,1-.771-.771V-142.34a1.864,1.864,0,0,0-1.862-1.862H-6.595a1.864,1.864,0,0,0-1.862,1.862v7.838a.771.771,0,0,1-.771.771A.771.771,0,0,1-10-134.5v-7.838a3.409,3.409,0,0,1,3.405-3.405H29.534a3.409,3.409,0,0,1,3.405,3.405v15.851A.771.771,0,0,1,32.167-125.717Z" transform="translate(10 145.745)"/>
          </g>
          <g id="g6094" transform="translate(4.863 46.716)">
            <path id="path6096" d="M-9.229-61.165A.771.771,0,0,1-10-61.937v-4.406a.771.771,0,0,1,.771-.771.771.771,0,0,1,.771.771v4.406A.771.771,0,0,1-9.229-61.165Z" transform="translate(10 67.114)"/>
          </g>
          <g id="g6098" transform="translate(18.024 36.753)">
            <path id="path6100" d="M5.847-180.342a.771.771,0,0,1-.771-.771v-7.491a6.113,6.113,0,0,0-6.106-6.106h-1.32a6.113,6.113,0,0,0-6.106,6.106v7.491a.771.771,0,0,1-.771.771.771.771,0,0,1-.771-.771v-7.491a7.658,7.658,0,0,1,7.649-7.649h1.32a7.658,7.658,0,0,1,7.649,7.649v7.491A.771.771,0,0,1,5.847-180.342Z" transform="translate(10 196.254)"/>
          </g>
          <path id="path6102" d="M272.145-400.736H281.4a.771.771,0,0,1,.771.771v10.888a.771.771,0,0,1-.771.771h-9.251a.771.771,0,0,1-.771-.771v-10.888A.771.771,0,0,1,272.145-400.736Zm8.48,1.543h-7.708v9.345h7.708Z" transform="translate(-250.439 422.486)"/>
          <g id="g6104" transform="translate(8.126 10.87)">
            <path id="path6106" d="M-99.232-138.6H-115.44a.771.771,0,0,1-.771-.771.771.771,0,0,1,.771-.771h16.207a5.087,5.087,0,0,0,5.082-5.082v-2.69a1.567,1.567,0,0,0-1.565-1.565H-98.39a1.293,1.293,0,0,0-1.241.916,2.828,2.828,0,0,1-2.715,2h-16.935a2.828,2.828,0,0,1-2.715-2,1.293,1.293,0,0,0-1.241-.916h-2.675a1.567,1.567,0,0,0-1.565,1.565v2.69a5.088,5.088,0,0,0,5.082,5.082h3.329a.771.771,0,0,1,.772.771.771.771,0,0,1-.771.772H-122.4a6.632,6.632,0,0,1-6.625-6.625v-2.69a3.111,3.111,0,0,1,3.108-3.108h2.675a2.829,2.829,0,0,1,2.715,2,1.293,1.293,0,0,0,1.241.916h16.935a1.293,1.293,0,0,0,1.241-.916,2.829,2.829,0,0,1,2.715-2h2.675a3.111,3.111,0,0,1,3.108,3.108v2.69A6.632,6.632,0,0,1-99.232-138.6Z" transform="translate(129.021 151.024)"/>
          </g>
          <g id="g6108" transform="translate(20.936 21.75)">
            <path id="path6110" d="M-9.226-78.175a.772.772,0,0,1-.746-.579.772.772,0,0,1,.553-.94A20.1,20.1,0,0,0-.55-85.289a.771.771,0,0,1,1.089-.062A.771.771,0,0,1,.6-84.262,21.307,21.307,0,0,1-9.033-78.2.773.773,0,0,1-9.226-78.175Z" transform="translate(9.997 85.547)"/>
          </g>
          <g id="g6112" transform="translate(20.936 27.373)">
            <path id="path6114" d="M-9.226-71.435a.771.771,0,0,1-.757-.628.772.772,0,0,1,.614-.9A17.554,17.554,0,0,0-.553-77.981.771.771,0,0,1,.536-78.05a.771.771,0,0,1,.069,1.089,18.821,18.821,0,0,1-9.687,5.513A.776.776,0,0,1-9.226-71.435Z" transform="translate(9.996 78.243)"/>
          </g>
          <g id="g6116" transform="translate(35.409 25.23)">
            <path id="path6118" d="M-62.629-37.771a2.917,2.917,0,0,1,2.914,2.914,2.917,2.917,0,0,1-2.914,2.914,2.917,2.917,0,0,1-2.914-2.914A2.917,2.917,0,0,1-62.629-37.771Zm0,4.285a1.373,1.373,0,0,0,1.371-1.371,1.372,1.372,0,0,0-1.371-1.371A1.373,1.373,0,0,0-64-34.857,1.373,1.373,0,0,0-62.629-33.486Z" transform="translate(65.542 37.771)"/>
          </g>
          <g id="g6120" transform="translate(37.551 21.736)">
            <path id="path6122" d="M-9.229-50.262A.771.771,0,0,1-10-51.034v-3.495a.771.771,0,0,1,.771-.771.771.771,0,0,1,.771.771v3.495A.771.771,0,0,1-9.229-50.262Z" transform="translate(10 55.3)"/>
          </g>
          <g id="g6124" transform="translate(12.963 3.481)">
            <path id="path6126" d="M-9.229-96.848A.771.771,0,0,1-10-97.619v-.709a7.465,7.465,0,0,1,.987-3.7,7.469,7.469,0,0,1,2.7-2.723,7.436,7.436,0,0,1,5.29-.866l7.433,1.55a.771.771,0,0,1,.6.913.771.771,0,0,1-.913.6l-7.433-1.55a5.9,5.9,0,0,0-4.194.687,5.923,5.923,0,0,0-2.138,2.159,5.919,5.919,0,0,0-.782,2.938v.709A.771.771,0,0,1-9.229-96.848Z" transform="translate(10 105.779)"/>
          </g>
          <g id="g6128" transform="translate(19.204 8.736)">
            <path id="path6130" d="M-6.256-3.406a.771.771,0,0,1-.771-.771c0-3.711-2.352-4.3-2.376-4.3A.771.771,0,0,1-9.982-9.4a.771.771,0,0,1,.925-.579c.146.034,3.573.879,3.573,5.805A.771.771,0,0,1-6.256-3.406Z" transform="translate(10.002 10.002)"/>
          </g>
          <g id="g6132" transform="translate(28.439 0)">
            <path id="path6134" d="M-69.633-173.4h-.01a5.908,5.908,0,0,1-5.811-5.886v-8.674a.771.771,0,0,1,.435-.694.771.771,0,0,1,.814.088l2.71,2.134a1.7,1.7,0,0,0,1.048.363h3.465a1.7,1.7,0,0,0,1.059-.372l2.648-2.121a.771.771,0,0,1,.816-.093.771.771,0,0,1,.438.7v7.257a.771.771,0,0,1-.771.771.771.771,0,0,1-.771-.771v-5.65l-1.394,1.117a3.246,3.246,0,0,1-2.024.711h-3.465a3.251,3.251,0,0,1-2-.694l-1.462-1.151v7.085a4.359,4.359,0,0,0,4.288,4.343.771.771,0,0,1,.762.781A.771.771,0,0,1-69.633-173.4Z" transform="translate(75.454 188.733)"/>
          </g>
          <g id="g6136" transform="translate(34.421 6.923)">
            <path id="path6138" d="M-9.229-6.652A.771.771,0,0,1-10-7.424v-1.8A.771.771,0,0,1-9.229-10a.771.771,0,0,1,.771.771v1.8A.771.771,0,0,1-9.229-6.652Z" transform="translate(10 10)"/>
          </g>
          <g id="g6140" transform="translate(33.776 6.923)">
            <path id="path6142" d="M-7.953-8.457H-9.229A.771.771,0,0,1-10-9.229.771.771,0,0,1-9.229-10h1.275a.771.771,0,0,1,.771.771A.771.771,0,0,1-7.953-8.457Z" transform="translate(10 10)"/>
          </g>
          <g id="g6144" transform="translate(31.123 6.899)">
            <path id="path6146" d="M-18.339-9.169a.767.767,0,0,1-.767.767.767.767,0,0,1-.767-.767.767.767,0,0,1,.767-.767.766.766,0,0,1,.767.767" transform="translate(19.872 9.936)"/>
          </g>
          <g id="g6148" transform="translate(37.659 6.899)">
            <path id="path6150" d="M-18.339-9.169a.767.767,0,0,1-.767.767.767.767,0,0,1-.767-.767.766.766,0,0,1,.767-.767.767.767,0,0,1,.767.767" transform="translate(19.872 9.936)"/>
          </g>
        </g>
      </g>
    </g>
  </g>
</svg>
