<svg xmlns="http://www.w3.org/2000/svg" width="84.208" height="84.207" viewBox="0 0 84.208 84.207">
  <g id="Grupo_1189718" data-name="Grupo 1189718" transform="translate(6570.124 7270.522)">
    <g id="Grupo_1189026" data-name="Grupo 1189026" transform="translate(-7442.85 -7549.299)">
      <g id="Grupo_1188789" data-name="Grupo 1188789" transform="translate(583.726 -5835.222)">
        <rect id="Rectángulo_400898" data-name="Rectángulo 400898" width="75.49" height="75.489" rx="37.744" transform="translate(293.36 6118.358)" fill="#ffd907"/>
        <rect id="Rectángulo_400907" data-name="Rectángulo 400907" width="75.49" height="75.489" rx="37.744" transform="translate(293.36 6118.358)" fill="none"/>
        <g id="Grupo_1098742" data-name="Grupo 1098742" transform="translate(289 6114)">
          <g id="Rectángulo_400898-2" data-name="Rectángulo 400898" transform="translate(0)" fill="none" stroke="#fff" stroke-width="1" opacity="0.859">
            <rect width="84.208" height="84.207" rx="42.104" stroke="none"/>
            <rect x="0.5" y="0.5" width="83.208" height="83.207" rx="41.604" fill="none"/>
          </g>
          <g id="Rectángulo_400907-2" data-name="Rectángulo 400907" transform="translate(0)" fill="none" stroke="#0f1f33" stroke-linecap="round" stroke-width="1">
            <rect width="84.208" height="84.207" rx="42.104" stroke="none"/>
            <rect x="0.5" y="0.5" width="83.208" height="83.207" rx="41.604" fill="none"/>
          </g>
        </g>
      </g>
    </g>
    <g id="piel" transform="translate(-6568.337 -7254.112)">
      <g id="Grupo_1189708" data-name="Grupo 1189708" transform="translate(22.004 3.245)">
        <path id="Trazado_878442" data-name="Trazado 878442" d="M51.169,295.717,40.533,309.669H33.008a2.007,2.007,0,0,1,0-4.015h4.014L43.544,291Z" transform="translate(-31.001 -265.038)" fill="#faf7f5"/>
        <path id="Trazado_878443" data-name="Trazado 878443" d="M93.882,129.322l11.951,14.433h0a13.868,13.868,0,0,0,3.813,13.269H105.03a2.007,2.007,0,0,0,0,4.015h13.044s14.248,0,14.248-10.94c0-15.457-14.906-17.869-16.381-19.125A10.327,10.327,0,0,1,112.054,123Z" transform="translate(-87.571 -113.899)" fill="#faf7f5"/>
        <path id="Trazado_878444" data-name="Trazado 878444" d="M73.826,53.633a12.085,12.085,0,0,0,8.929-3.725,9.215,9.215,0,0,0,2.105-8.456,11.236,11.236,0,0,0-22.069,0A9.215,9.215,0,0,0,64.9,49.908,12.082,12.082,0,0,0,73.826,53.633Z" transform="translate(-59.377 -32.334)" fill="#faf7f5"/>
      </g>
      <ellipse id="Elipse_11514" data-name="Elipse 11514" cx="9.532" cy="9.535" rx="9.532" ry="9.535" transform="translate(22.004 23.988)" fill="#ffd0c7"/>
      <path id="Trazado_878445" data-name="Trazado 878445" d="M158.978,125.405c0,1.109-2.007,2.409-2.007,2.409s-2.007-1.3-2.007-2.409.9-1.405,2.007-1.405S158.978,124.3,158.978,125.405Z" transform="translate(-120.518 -111.554)" fill="#eaaacb"/>
      <path id="Trazado_878446" data-name="Trazado 878446" d="M318.86,414.434c.828,1.079.552,2.359-.9,2.359h-9.034a2.007,2.007,0,0,0,0,4.015h11c6.126,0,4.819-5.872,2.7-8.443l-.494-.615Z" transform="translate(-257.221 -370.422)" fill="#faf7f5"/>
      <path id="Trazado_878447" data-name="Trazado 878447" d="M86.568,10l6.077,2.556a11.321,11.321,0,0,0-6.29,4.219Z" transform="translate(-58.794 -8.996)" fill="#fff"/>
      <path id="Trazado_878448" data-name="Trazado 878448" d="M207.181,16.775a11.321,11.321,0,0,0-6.29-4.219L206.968,10Z" transform="translate(-161.835 -8.996)" fill="#fff"/>
      <g id="Grupo_1189709" data-name="Grupo 1189709" transform="translate(21 0)">
        <path id="Trazado_878449" data-name="Trazado 878449" d="M67.239,42.954a11.431,11.431,0,0,0,.521-3.508A19.035,19.035,0,0,0,65.149,29.4a17.6,17.6,0,0,0-2.7-3.4,20.677,20.677,0,0,0-3.087-2.491,1,1,0,0,0-1.11,1.673,16.065,16.065,0,0,1,7.5,14.26,10.784,10.784,0,0,1-.073,1.236,1,1,0,0,0-1.55,1.275l.5.62C65.8,44,66.6,46.5,65.911,47.954c-.447.948-1.524,1.428-3.2,1.428h-11a1,1,0,0,1,0-2.007h9.033a2.266,2.266,0,0,0,2.148-1.192,2.675,2.675,0,0,0-.451-2.782,1,1,0,0,0-1.593,1.222c.276.359.269.632.243.673a.577.577,0,0,1-.347.071H57.176l.491-.752a1,1,0,0,0-1.68-1.1l-1.209,1.85H51.7a3.01,3.01,0,0,0-2.838,4.015H39.479a1.1,1.1,0,0,1-.721-.317.94.94,0,0,1,0-1.373,1.094,1.094,0,0,1,.721-.317h7.209a1,1,0,0,0,0-2.007H44.5a12.932,12.932,0,0,1-3.513-7.193,10.462,10.462,0,0,0,1.033-3.626A6.518,6.518,0,0,1,52.2,33.327a1,1,0,0,0,1.42-1.419,8.527,8.527,0,0,0-11.728-.316,10.545,10.545,0,0,0-3.614-6.157,12.914,12.914,0,0,0,7.845-3.94,10.058,10.058,0,0,0,1.654-2.448,13.38,13.38,0,0,0,1.945,2.037,2.533,2.533,0,0,0,.451.3,1.015,1.015,0,0,0,.47.117,1,1,0,0,0,.472-1.891c-.045-.024-.092-.053-.094-.055a19.994,19.994,0,0,1-2.427-2.9l-.027-.051a11.636,11.636,0,0,0-.1-4.436l0-.022a13.1,13.1,0,0,0-2.127-4.7l-.2-6.463A1,1,0,0,0,44.743.079L38.97,2.507a11.916,11.916,0,0,0-2.511-.266h-.012a11.925,11.925,0,0,0-2.512.266L28.163.079A1,1,0,0,0,26.77.972l-.2,6.464a13.1,13.1,0,0,0-2.127,4.7l0,.022A10.26,10.26,0,0,0,26.783,21.5a11.64,11.64,0,0,0,2.129,1.82A10.539,10.539,0,0,0,26.65,42.858H23.982a3.011,3.011,0,0,0,0,6.021h7.555a1,1,0,0,0,.8-.4l4.434-5.817a10.611,10.611,0,0,0,2.665-2.177q.107.371.232.738a15.051,15.051,0,0,0,2.205,4.137H39.434a3.1,3.1,0,0,0-2.087.9,2.981,2.981,0,0,0-.649.944,2.914,2.914,0,0,0,0,2.339,2.978,2.978,0,0,0,.649.944,3.1,3.1,0,0,0,2.087.9H62.709c3.142,0,4.463-1.4,5.018-2.58a7,7,0,0,0-.487-5.856ZM44.175,2.5l.084,2.666A12.353,12.353,0,0,0,41.782,3.5Zm-15.445,0L31.124,3.5a12.352,12.352,0,0,0-2.477,1.66Zm-.465,17.648A8.22,8.22,0,0,1,26.4,12.576a10.556,10.556,0,0,1,10.05-8.327h.009a10.556,10.556,0,0,1,10.049,8.327,8.219,8.219,0,0,1-1.865,7.566,11.087,11.087,0,0,1-8.182,3.4h-.012a11.068,11.068,0,0,1-8.181-3.4Zm2.773,26.729H24.028a1,1,0,1,1,0-2.007h4a1,1,0,0,0,.917-.6l.213-.479a10.565,10.565,0,0,0,4.14.124Zm.5-4.818a8.531,8.531,0,1,1,8.529-8.531A8.54,8.54,0,0,1,31.536,42.055Z" transform="translate(-21 0)"/>
        <circle id="Elipse_11515" data-name="Elipse 11515" cx="1.004" cy="1.004" r="1.004" transform="translate(32.832 21.2)"/>
        <path id="Trazado_878450" data-name="Trazado 878450" d="M87.267,338.145c-1.7,1.038-2.216,3.5-2.269,3.78a1,1,0,0,0,1.971.379,4.3,4.3,0,0,1,1.343-2.445,1,1,0,0,0-1.045-1.714Z" transform="translate(-78.558 -304.073)"/>
        <path id="Trazado_878451" data-name="Trazado 878451" d="M66.318,289.858a1,1,0,1,0-1.045-1.714c-1.7,1.038-2.216,3.5-2.269,3.78a1,1,0,0,0,1.971.379A4.3,4.3,0,0,1,66.318,289.858Z" transform="translate(-58.771 -259.091)"/>
        <path id="Trazado_878452" data-name="Trazado 878452" d="M141.251,289.145c-1.7,1.038-2.216,3.5-2.269,3.78a1,1,0,0,0,1.971.379,4.3,4.3,0,0,1,1.343-2.445,1,1,0,0,0-1.045-1.714Z" transform="translate(-127.123 -259.991)"/>
        <ellipse id="Elipse_11516" data-name="Elipse 11516" cx="1.003" cy="1.004" rx="1.003" ry="1.004" transform="translate(13.045 36.133)"/>
        <ellipse id="Elipse_11517" data-name="Elipse 11517" cx="1.003" cy="1.004" rx="1.003" ry="1.004" transform="translate(9.708 27.075)"/>
        <path id="Trazado_878453" data-name="Trazado 878453" d="M130.657,122.633a4.3,4.3,0,0,0,2.254-.66,1,1,0,1,0-1.021-1.728,2.346,2.346,0,0,1-1.233.381c-.8,0-1.467-.46-1.467-1v-.28c.778-.58,2.007-1.693,2.007-2.932,0-.724-.293-2.409-3.011-2.409s-3.011,1.685-3.011,2.409c0,1.239,1.229,2.351,2.007,2.932v.28c0,.544-.672,1-1.467,1a2.346,2.346,0,0,1-1.233-.381,1,1,0,1,0-1.021,1.728,4.3,4.3,0,0,0,2.254.66,3.745,3.745,0,0,0,2.471-.9A3.745,3.745,0,0,0,130.657,122.633Zm-3.474-6.223c0-.2.042-.224.091-.252a2.861,2.861,0,0,1,1.823,0c.049.029.091.053.091.25a2.994,2.994,0,0,1-1,1.167A3.041,3.041,0,0,1,127.183,116.41Z" transform="translate(-112.734 -102.559)"/>
        <ellipse id="Elipse_11518" data-name="Elipse 11518" cx="1.003" cy="1.004" rx="1.003" ry="1.004" transform="translate(19.266 8.732)"/>
        <ellipse id="Elipse_11519" data-name="Elipse 11519" cx="1.003" cy="1.004" rx="1.003" ry="1.004" transform="translate(9.633 8.732)"/>
      </g>
    </g>
  </g>
</svg>
