<svg xmlns="http://www.w3.org/2000/svg" width="84.208" height="84.207" viewBox="0 0 84.208 84.207">
  <g id="Grupo_1189723" data-name="Grupo 1189723" transform="translate(5920.163 7270.522)">
    <g id="Grupo_1189028" data-name="Grupo 1189028" transform="translate(-6792.889 -7549.299)">
      <g id="Grupo_1188789" data-name="Grupo 1188789" transform="translate(583.726 -5835.222)">
        <rect id="Rectángulo_400898" data-name="Rectángulo 400898" width="75.49" height="75.489" rx="37.744" transform="translate(293.36 6118.358)" fill="#ffd907"/>
        <rect id="Rectángulo_400907" data-name="Rectángulo 400907" width="75.49" height="75.489" rx="37.744" transform="translate(293.36 6118.358)" fill="none"/>
        <g id="Grupo_1098742" data-name="Grupo 1098742" transform="translate(289 6114)">
          <g id="Rectángulo_400898-2" data-name="Rectángulo 400898" transform="translate(0)" fill="none" stroke="#fff" stroke-width="1" opacity="0.859">
            <rect width="84.208" height="84.207" rx="42.104" stroke="none"/>
            <rect x="0.5" y="0.5" width="83.208" height="83.207" rx="41.604" fill="none"/>
          </g>
          <g id="Rectángulo_400907-2" data-name="Rectángulo 400907" transform="translate(0)" fill="none" stroke="#0f1f33" stroke-linecap="round" stroke-width="1">
            <rect width="84.208" height="84.207" rx="42.104" stroke="none"/>
            <rect x="0.5" y="0.5" width="83.208" height="83.207" rx="41.604" fill="none"/>
          </g>
        </g>
      </g>
    </g>
    <g id="siames" transform="translate(-5949.634 -7251.626)">
      <g id="Grupo_1189721" data-name="Grupo 1189721" transform="translate(54.166 0.68)">
        <path id="Trazado_878515" data-name="Trazado 878515" d="M140.909,343.965h-21.4a41.11,41.11,0,0,1-.6,12.74l23.892.907Z" transform="translate(-113.657 -313.462)" fill="#ffead9"/>
        <path id="Trazado_878516" data-name="Trazado 878516" d="M139.377,358.518c-2.1-6.776-1.09-14.553-1.09-14.553h-2.251a46.607,46.607,0,0,0,.262,11.14,1.359,1.359,0,0,1-1.338,1.6H114.035c-.14.608-.3,1.215-.486,1.813Z" transform="translate(-108.784 -313.462)" fill="#f4dabd"/>
        <path id="Trazado_878517" data-name="Trazado 878517" d="M96.915,14.885c-3-3.075-7.669-7.385-10.258-7.385l2.227,10.577Z" transform="translate(-84.33 -7.5)" fill="#9a695e"/>
        <path id="Trazado_878518" data-name="Trazado 878518" d="M96.915,14.885c-1.519-1.233-4.258-1.323-7.012.588-1.266-3.218-2.546-6.762-3.246-7.973l.052,20.506,13.022-10.09S98.579,16.59,96.915,14.885Z" transform="translate(-84.33 -7.5)" fill="#855b51"/>
        <path id="Trazado_878519" data-name="Trazado 878519" d="M70.721,16.505c-1.266-3.218-3.434-8.021-4.8-9.005-2.8,0-2.234,7.314-1.327,13.206Z" transform="translate(-63.594 -7.5)" fill="#eaa598"/>
        <path id="Trazado_878520" data-name="Trazado 878520" d="M79.867,17.916S75.353,7.5,73.346,7.5c.632,1.093,1.736,4.085,2.876,7.023a1.355,1.355,0,0,1-.389,1.531,18.612,18.612,0,0,0-3.814,4.653c.611,3.973,1.379,7.3,1.379,7.3Z" transform="translate(-71.019 -7.5)" fill="#b78c7a"/>
        <path id="Trazado_878521" data-name="Trazado 878521" d="M294.2,7.5c-4.024,0-13.074,10.416-13.074,10.416l13.022,10.09Z" transform="translate(-261.165 -7.5)" fill="#9a695e"/>
        <path id="Trazado_878522" data-name="Trazado 878522" d="M322.053,84.374c-2.094-3.322-6.981-6.22-10.047-3.891l3.753,3.035Z" transform="translate(-289.25 -73.102)" fill="#855b51"/>
        <path id="Trazado_878523" data-name="Trazado 878523" d="M375.656,20.719c1.155-6.144.933-12.134-.514-13.219-1.26,0-3.506,4.1-5,7.156Z" transform="translate(-342.111 -7.5)" fill="#eaa598"/>
        <path id="Trazado_878524" data-name="Trazado 878524" d="M359.928,7.5c.422,1.094.748,4.005.234,8.289a1.36,1.36,0,0,1-2.271.838,10.938,10.938,0,0,0-2.968-1.971c-.89,1.814-1.517,3.26-1.517,3.26l6.469,10.09S364.61,7.5,359.928,7.5Z" transform="translate(-326.897 -7.5)" fill="#b78c7a"/>
        <path id="Trazado_878525" data-name="Trazado 878525" d="M94.532,99.795c0-8.265-4.9-13.527-7.895-14.994a21.509,21.509,0,0,0-7.972-1.354A21.508,21.508,0,0,0,70.695,84.8c-4.331,1.6-9.708,8.346-9.708,15.9,0,3.953,2.58,7.431,6.087,9.917,2.272,1.406,6.106,2.605,11.593,2.605C86.08,113.224,94.532,107.68,94.532,99.795Z" transform="translate(-60.987 -76.562)" fill="#ffead9"/>
        <path id="Trazado_878526" data-name="Trazado 878526" d="M147.69,98.385c1.544.756,6.988,6.532,6.988,14.087,0,7.886-8.452,13.429-15.866,13.429-5.487,0-8.68-.779-10.686-1.7a21.206,21.206,0,0,0,11.593,3.965c7.414,0,17.679-6,17.679-13.882C157.4,106.731,152.021,99.99,147.69,98.385Z" transform="translate(-122.039 -90.146)" fill="#f4dabd"/>
        <path id="Trazado_878527" data-name="Trazado 878527" d="M115.039,161.832c4.75,0,14.053-2.923,14.053-8.848,0-4.3-6.695-5.3-6.695-5.3-1.589-4.67-3.352-7.739-7.358-7.739s-5.769,3.069-7.358,7.739c0,0-6.695,1-6.695,5.3C100.986,158.909,110.288,161.832,115.039,161.832Z" transform="translate(-97.36 -127.938)" fill="#9a695e"/>
        <path id="Trazado_878528" data-name="Trazado 878528" d="M128.8,219.084c-1.893-1.093-4.131-.762-5,.739a2.96,2.96,0,0,0,.083,2.9c1.784,1.784,5.006,1.639,5.867.147A3.184,3.184,0,0,0,128.8,219.084Z" transform="translate(-117.793 -199.316)" fill="#beeedd"/>
        <path id="Trazado_878529" data-name="Trazado 878529" d="M133.067,225.55a3.4,3.4,0,0,1,.046,2.884c-.861,1.491-3.075,1.827-4.961.759a4.634,4.634,0,0,0,1.776,1.793c1.893,1.093,4.131.762,5-.739S134.96,226.643,133.067,225.55Z" transform="translate(-122.063 -205.782)" fill="#94ccd4"/>
        <path id="Trazado_878530" data-name="Trazado 878530" d="M312.546,219.822s.56,1.82-3.01,3.881c-2.474,1.429-3.846.077-3.846.077-.867-1.5-.034-3.6,1.859-4.7S311.679,218.321,312.546,219.822Z" transform="translate(-283.193 -199.316)" fill="#beeedd"/>
        <path id="Trazado_878531" data-name="Trazado 878531" d="M315.987,233.7s-.53,1.318-3.4,2.975a6.189,6.189,0,0,1-3.457.984c.867,1.5,3.1,1.832,5,.739S316.854,235.2,315.987,233.7Z" transform="translate(-286.634 -213.191)" fill="#94ccd4"/>
        <path id="Trazado_878532" data-name="Trazado 878532" d="M210.791,353.5a5.006,5.006,0,0,1-10.012,0l5.006-1.813Z" transform="translate(-188.106 -320.48)" fill="#855b51"/>
        <path id="Trazado_878533" data-name="Trazado 878533" d="M184.647,321.694H170.3a3.833,3.833,0,0,0,3.178,5.975,5.424,5.424,0,0,0,4-2,5.423,5.423,0,0,0,4,2,3.833,3.833,0,0,0,3.178-5.975Z" transform="translate(-159.794 -293.21)" fill="#9a695e"/>
      </g>
      <g id="Grupo_1189722" data-name="Grupo 1189722" transform="translate(53.486 0)">
        <path id="Trazado_878534" data-name="Trazado 878534" d="M235.02,325.382h-.013a4.437,4.437,0,0,1-1.676-.421.68.68,0,1,1,.552-1.243,2.273,2.273,0,0,0,2.272,0,.68.68,0,1,1,.552,1.243A4.428,4.428,0,0,1,235.02,325.382Z" transform="translate(-216.66 -294.317)"/>
        <path id="Trazado_878535" data-name="Trazado 878535" d="M174.651,321.528a5.886,5.886,0,0,1-4-1.679,5.886,5.886,0,0,1-4,1.679,4.513,4.513,0,0,1-3.741-7.036.68.68,0,1,1,1.127.761,3.153,3.153,0,0,0,2.614,4.915,4.7,4.7,0,0,0,3.316-1.567v-2.507a.68.68,0,1,1,1.36,0V318.6a4.7,4.7,0,0,0,3.316,1.567,3.153,3.153,0,0,0,2.614-4.915.68.68,0,1,1,1.127-.761,4.513,4.513,0,0,1-3.741,7.036Z" transform="translate(-152.295 -285.71)"/>
        <path id="Trazado_878536" data-name="Trazado 878536" d="M200.82,384.124a5.7,5.7,0,0,1-5.476-4.149.68.68,0,0,1,1.309-.367,4.328,4.328,0,0,0,8.31.078.68.68,0,1,1,1.3.392A5.723,5.723,0,0,1,200.82,384.124Z" transform="translate(-182.461 -344.742)"/>
        <path id="Línea_673" data-name="Línea 673" d="M-6.82-4.929a.68.68,0,0,1-.68-.68V-6.82a.68.68,0,0,1,.68-.68.68.68,0,0,1,.68.68v1.212A.68.68,0,0,1-6.82-4.929Z" transform="translate(22.051 25.622)"/>
        <path id="Línea_674" data-name="Línea 674" d="M-6.82-4.929a.68.68,0,0,1-.68-.68V-6.82a.68.68,0,0,1,.68-.68.68.68,0,0,1,.68.68v1.212A.68.68,0,0,1-6.82-4.929Z" transform="translate(28.308 25.622)"/>
        <path id="Línea_675" data-name="Línea 675" d="M-6.82-3.061a.68.68,0,0,1-.68-.68V-6.82a.68.68,0,0,1,.68-.68.68.68,0,0,1,.68.68v3.079A.68.68,0,0,1-6.82-3.061Z" transform="translate(17.821 27.246)"/>
        <path id="Línea_676" data-name="Línea 676" d="M-6.82-3.061a.68.68,0,0,1-.68-.68V-6.82a.68.68,0,0,1,.68-.68.68.68,0,0,1,.68.68v3.079A.68.68,0,0,1-6.82-3.061Z" transform="translate(32.538 27.246)"/>
        <path id="Elipse_11524" data-name="Elipse 11524" d="M3.818,0C5.924,0,7.637,2.081,7.637,4.639S5.924,9.278,3.818,9.278,0,7.2,0,4.639,1.713,0,3.818,0Zm0,7.918c1.356,0,2.459-1.471,2.459-3.279S5.174,1.36,3.818,1.36,1.36,2.831,1.36,4.639,2.463,7.918,3.818,7.918Z" transform="matrix(0.5, -0.866, 0.866, 0.5, 4.187, 24.153)"/>
        <path id="Elipse_11525" data-name="Elipse 11525" d="M4.639,0C7.2,0,9.278,1.713,9.278,3.818S7.2,7.637,4.639,7.637,0,5.924,0,3.818,2.081,0,4.639,0Zm0,6.277c1.808,0,3.279-1.1,3.279-2.459S6.447,1.36,4.639,1.36,1.36,2.463,1.36,3.818,2.831,6.277,4.639,6.277Z" transform="matrix(0.866, -0.5, 0.5, 0.866, 20.677, 22.178)"/>
        <path id="Trazado_878537" data-name="Trazado 878537" d="M106.725,389.987a.68.68,0,0,1-.65-.881,35.031,35.031,0,0,0,1.295-10.591.68.68,0,1,1,1.36-.025,36.393,36.393,0,0,1-1.355,11.018A.68.68,0,0,1,106.725,389.987Z" transform="translate(-101.28 -343.571)"/>
        <path id="Trazado_878538" data-name="Trazado 878538" d="M378.266,392.061a.68.68,0,0,1-.649-.479,36.22,36.22,0,0,1-1.359-10.808.68.68,0,1,1,1.36.019,34.859,34.859,0,0,0,1.3,10.387.68.68,0,0,1-.65.881Z" transform="translate(-346.993 -345.645)"/>
        <path id="Trazado_878539" data-name="Trazado 878539" d="M168.01,149.9a.68.68,0,0,1-.644-.9c1-2.935,2.237-5.847,4.514-7.264a.68.68,0,1,1,.719,1.154c-1.914,1.191-3.027,3.851-3.945,6.547A.68.68,0,0,1,168.01,149.9Z" transform="translate(-157.009 -128.799)"/>
        <path id="Trazado_878540" data-name="Trazado 878540" d="M256.538,141.544a.68.68,0,0,1-.644-.461c-1.569-4.61-3.171-7.278-6.715-7.278a.68.68,0,0,1,0-1.36c4.339,0,6.279,3.138,8,8.2a.68.68,0,0,1-.644.9Z" transform="translate(-230.821 -120.438)"/>
        <path id="Trazado_878541" data-name="Trazado 878541" d="M71.845,108.443a.68.68,0,1,1,0-1.36c6.845,0,17-5.544,17-13.2,0-7.617-5.478-13.859-9.264-15.263a21.033,21.033,0,0,0-7.735-1.312,21.032,21.032,0,0,0-7.735,1.312c-3.786,1.4-9.264,7.646-9.264,15.263,0,5.553,5.394,9.763,10.012,11.68a.68.68,0,0,1-.521,1.256c-5.006-2.078-10.851-6.713-10.851-12.936,0-7.529,5.35-14.758,10.151-16.538a22.314,22.314,0,0,1,8.208-1.4,22.315,22.315,0,0,1,8.208,1.4c4.8,1.779,10.151,9.009,10.151,16.538C90.2,102.329,79.238,108.443,71.845,108.443Z" transform="translate(-53.486 -69.062)"/>
        <path id="Trazado_878542" data-name="Trazado 878542" d="M75.707,8.658a.678.678,0,0,1-.486-.2C70.808,3.945,67.278,1.36,65.534,1.36c-.229,0-.528.075-.816.66a.68.68,0,0,1-1.22-.6A2.211,2.211,0,0,1,65.534,0c2.2,0,5.786,2.524,10.659,7.5a.68.68,0,0,1-.486,1.156Z" transform="translate(-62.527 0)"/>
        <path id="Trazado_878543" data-name="Trazado 878543" d="M58.382,55.665a.68.68,0,0,1-.667-.554c-.748-3.975-1.581-9.491-1.309-13.193a.68.68,0,0,1,1.356.1c-.262,3.556.557,8.946,1.289,12.842a.681.681,0,0,1-.669.806Z" transform="translate(-56.093 -37.545)"/>
        <path id="Trazado_878544" data-name="Trazado 878544" d="M85.584,10.149a.68.68,0,0,1-.617-.393c-3.022-6.492-4.707-8.331-5.176-8.4A.68.68,0,1,1,79.8,0c.582,0,2.127,0,6.4,9.182a.68.68,0,0,1-.616.967Z" transform="translate(-76.792 0)"/>
        <path id="Trazado_878545" data-name="Trazado 878545" d="M318.474,8.784h-.044a.68.68,0,0,1-.635-.722c.3-4.585-.357-6.013-.773-6.457a.693.693,0,0,0-.54-.244c-1.744,0-5.274,2.585-9.687,7.094a.68.68,0,0,1-.972-.951C310.7,2.524,314.282,0,316.482,0a2.058,2.058,0,0,1,1.532.673c1.02,1.088,1.392,3.532,1.138,7.474A.68.68,0,0,1,318.474,8.784Z" transform="translate(-282.771 0)"/>
        <path id="Trazado_878546" data-name="Trazado 878546" d="M426.435,122.6a.68.68,0,0,1-.669-.806c.427-2.27.758-4.389.986-6.3a.68.68,0,1,1,1.35.161c-.231,1.94-.568,4.09-1,6.389A.68.68,0,0,1,426.435,122.6Z" transform="translate(-392.006 -104.482)"/>
        <path id="Trazado_878547" data-name="Trazado 878547" d="M354.711,10.149a.68.68,0,0,1-.616-.967C358.369,0,359.914,0,360.5,0a.68.68,0,0,1,.005,1.36c-.472.071-2.157,1.915-5.173,8.4A.68.68,0,0,1,354.711,10.149Z" transform="translate(-326.785 0)"/>
        <path id="Trazado_878548" data-name="Trazado 878548" d="M331.223,249.609a.68.68,0,0,1-.257-1.31c2.312-.941,6.192-3.055,6.192-6.637A3.586,3.586,0,0,0,335.4,238.7a.68.68,0,1,1,.781-1.113,4.929,4.929,0,0,1,2.341,4.075c0,3.244-2.5,6.049-7.039,7.9A.678.678,0,0,1,331.223,249.609Z" transform="translate(-305.426 -215.936)"/>
        <path id="Trazado_878549" data-name="Trazado 878549" d="M100.781,249.609a.678.678,0,0,1-.256-.05c-4.539-1.848-7.038-4.652-7.038-7.9a4.929,4.929,0,0,1,2.341-4.075.68.68,0,1,1,.781,1.113,3.586,3.586,0,0,0-1.762,2.962c0,3.582,3.879,5.7,6.191,6.637a.68.68,0,0,1-.257,1.31Z" transform="translate(-89.86 -215.936)"/>
      </g>
    </g>
  </g>
</svg>
