<svg xmlns="http://www.w3.org/2000/svg" width="84.208" height="84.207" viewBox="0 0 84.208 84.207">
  <g id="Grupo_1189751" data-name="Grupo 1189751" transform="translate(6248 6220)">
    <g id="Grupo_1189037" data-name="Grupo 1189037" transform="translate(-7120.726 -6498.777)">
      <g id="Grupo_1188789" data-name="Grupo 1188789" transform="translate(583.726 -5835.222)">
        <rect id="Rectángulo_400898" data-name="Rectángulo 400898" width="75.49" height="75.489" rx="37.744" transform="translate(293.36 6118.358)" fill="#ffd907"/>
        <rect id="Rectángulo_400907" data-name="Rectángulo 400907" width="75.49" height="75.489" rx="37.744" transform="translate(293.36 6118.358)" fill="none"/>
        <g id="Grupo_1098742" data-name="Grupo 1098742" transform="translate(289 6114)">
          <g id="Rectángulo_400898-2" data-name="Rectángulo 400898" transform="translate(0)" fill="none" stroke="#fff" stroke-width="1" opacity="0.859">
            <rect width="84.208" height="84.207" rx="42.104" stroke="none"/>
            <rect x="0.5" y="0.5" width="83.208" height="83.207" rx="41.604" fill="none"/>
          </g>
          <g id="Rectángulo_400907-2" data-name="Rectángulo 400907" transform="translate(0)" fill="none" stroke="#0f1f33" stroke-linecap="round" stroke-width="1">
            <rect width="84.208" height="84.207" rx="42.104" stroke="none"/>
            <rect x="0.5" y="0.5" width="83.208" height="83.207" rx="41.604" fill="none"/>
          </g>
        </g>
      </g>
    </g>
    <g id="conejo_2_" data-name="conejo (2)" transform="translate(-6279.297 -6203.996)">
      <path id="Trazado_878645" data-name="Trazado 878645" d="M141.047,22.206A46.737,46.737,0,0,0,144.5,11.589c1.253-6.422-.042-8.63-2.092-9.029s-4.08,1.16-5.332,7.581a49.155,49.155,0,0,0-.858,8.762,9.331,9.331,0,0,1,4.825,3.3Z" transform="translate(-60.961 -1.985)" fill="#a8aeb2"/>
      <path id="Trazado_878646" data-name="Trazado 878646" d="M75.588,22.206a9.331,9.331,0,0,1,4.825-3.3,49.153,49.153,0,0,0-.858-8.762C78.3,3.72,76.273,2.16,74.223,2.56s-3.345,2.608-2.092,9.029A46.73,46.73,0,0,0,75.588,22.206Z" transform="translate(-9.78 -1.985)" fill="#a8aeb2"/>
      <path id="Trazado_878647" data-name="Trazado 878647" d="M92.006,90.394A6.434,6.434,0,0,1,90.839,87.9c-1.014-4.533-4.721-7.894-9.141-7.894s-8.127,3.361-9.141,7.894a6.441,6.441,0,0,1-1.167,2.493A5.143,5.143,0,0,0,74.6,98.576a7.065,7.065,0,0,1,2.519.907,8.647,8.647,0,0,0,9.156,0,7.063,7.063,0,0,1,2.52-.907,5.143,5.143,0,0,0,3.21-8.182Z" transform="translate(-8.751 -63.406)" fill="#a8aeb2"/>
      <path id="Trazado_878648" data-name="Trazado 878648" d="M133.295,238.262c0,1.3-1.048,1.3-2.34,1.3s-2.34-.008-2.34-1.3a2.34,2.34,0,1,1,4.68,0Z" transform="translate(-54.933 -186.961)" fill="#e3e4e5"/>
      <path id="Trazado_878649" data-name="Trazado 878649" d="M102.8,238.262c0,1.3-1.048,1.3-2.34,1.3s-2.34-.008-2.34-1.3a2.34,2.34,0,1,1,4.68,0Z" transform="translate(-30.767 -186.961)" fill="#e3e4e5"/>
      <g id="Grupo_1189750" data-name="Grupo 1189750" transform="translate(62.916 35.222)">
        <path id="Trazado_878650" data-name="Trazado 878650" d="M99.357,170.595a8.647,8.647,0,0,1-9.156,0,6.882,6.882,0,0,0-2.245-.855c-2.969,6.093.765,11.78,2.541,13.975a2.339,2.339,0,0,1,3.369,2.1,1.792,1.792,0,0,1-.039.38,5.97,5.97,0,0,0,1.726,0,1.791,1.791,0,0,1-.039-.38,2.335,2.335,0,0,1,3.369-2.1c1.772-2.19,5.495-7.86,2.557-13.94A6.787,6.787,0,0,0,99.357,170.595Z" transform="translate(-84.749 -169.74)" fill="#a8aeb2"/>
        <path id="Trazado_878651" data-name="Trazado 878651" d="M145.648,207.768h0c1.28-.133,2.188-.232,2.849-.3,1.6-1.354,3.831-4.277-.081-8.186a15.091,15.091,0,0,1-2.367,6.182l0,0a18.974,18.974,0,0,1-1.2,1.659A2.345,2.345,0,0,1,145.648,207.768Z" transform="translate(-130.714 -193.151)" fill="#a8aeb2"/>
        <path id="Trazado_878652" data-name="Trazado 878652" d="M78.837,207.468c.662.069,1.569.169,2.85.3h0a2.35,2.35,0,0,1,.8-.643,18.95,18.95,0,0,1-1.348-1.9l0,0a14.924,14.924,0,0,1-2.217-5.944c-3.912,3.909-1.681,6.832-.081,8.186Z" transform="translate(-76.737 -193.151)" fill="#a8aeb2"/>
        <path id="Trazado_878653" data-name="Trazado 878653" d="M167.97,184.037c-1.6-1.495-4.26.038-5.886,1.282a11.189,11.189,0,0,1-.088,1.386l.009.006a9.269,9.269,0,0,1,1.408,1.756C166.744,189.866,170.2,186.127,167.97,184.037Z" transform="translate(-144.303 -180.581)" fill="#a8aeb2"/>
      </g>
      <path id="Trazado_878654" data-name="Trazado 878654" d="M151.891,240.547l-.162-.755a2.074,2.074,0,0,0-1.546-1.582c-.505-.121-1.114-.008-4.793.372a2.337,2.337,0,0,1,.511,1.461c0,.948-.562,1.206-1.37,1.276l-.009.027h6.8A.626.626,0,0,0,151.891,240.547Z" transform="translate(-67.54 -188.742)" fill="#e3e4e5"/>
      <path id="Trazado_878655" data-name="Trazado 878655" d="M75.18,240.041a2.339,2.339,0,0,1,.511-1.461c-3.679-.38-4.288-.493-4.793-.372a2.074,2.074,0,0,0-1.546,1.582l-.162.755a.625.625,0,0,0,.568.8h6.8l-.009-.027C75.742,241.247,75.18,240.989,75.18,240.041Z" transform="translate(-7.826 -188.74)" fill="#e3e4e5"/>
      <path id="Trazado_878656" data-name="Trazado 878656" d="M116.249,188.016a2.212,2.212,0,0,0-2.212,2.212v4.206l.055.3a21.2,21.2,0,0,1,.983,4.354,2.317,2.317,0,0,1,.338,1.215,1.792,1.792,0,0,1-.039.38,5.969,5.969,0,0,0,1.726,0,1.791,1.791,0,0,1-.039-.38,2.328,2.328,0,0,1,.338-1.212,21.279,21.279,0,0,1,.991-4.38l.051-.277.018-4.187A2.212,2.212,0,0,0,116.249,188.016Z" transform="translate(-43.38 -149.001)" fill="#e3e4e5"/>
      <path id="Trazado_878657" data-name="Trazado 878657" d="M117.937,133.986c0,.777-1.3,1.876-2.531,1.876s-2.531-1.1-2.531-1.876,1.3-.837,2.531-.837S117.937,133.209,117.937,133.986Z" transform="translate(-42.459 -105.52)" fill="#f98080"/>
      <path id="Trazado_878658" data-name="Trazado 878658" d="M120.719,150.012a1.5,1.5,0,0,1-1.14,1.457v.641a.638.638,0,0,0,.636.636h1.008a.638.638,0,0,0,.636-.636v-.641A1.5,1.5,0,0,1,120.719,150.012Z" transform="translate(-47.772 -118.884)" fill="#e3e4e5"/>
      <path id="Trazado_878659" data-name="Trazado 878659" d="M149.14,31.967A46.737,46.737,0,0,0,152.6,21.35a18.972,18.972,0,0,0,.428-5.583,2.135,2.135,0,0,0-1.394-.9c-1.674-.327-3.347,1.026-4.423,6.541a43.911,43.911,0,0,0-.773,8.166,9.683,9.683,0,0,1,2.706,2.4Z" transform="translate(-69.054 -11.746)" fill="#f98080"/>
      <path id="Trazado_878660" data-name="Trazado 878660" d="M75.588,31.967a9.686,9.686,0,0,1,2.705-2.4,43.91,43.91,0,0,0-.773-8.166c-1.076-5.515-2.748-6.867-4.423-6.541a2.136,2.136,0,0,0-1.394.9,18.979,18.979,0,0,0,.428,5.583A46.74,46.74,0,0,0,75.588,31.967Z" transform="translate(-9.781 -11.747)" fill="#f98080"/>
      <path id="Trazado_878661" data-name="Trazado 878661" d="M124.593,147.522a2.024,2.024,0,0,1-2.022-2.022v-.663a.519.519,0,0,1,1.038,0v.663a.984.984,0,0,0,1.968,0,.519.519,0,0,1,1.038,0A2.024,2.024,0,0,1,124.593,147.522Z" transform="translate(-50.143 -114.372)"/>
      <path id="Trazado_878662" data-name="Trazado 878662" d="M110.108,147.522a2.024,2.024,0,0,1-2.022-2.022.519.519,0,0,1,1.038,0,.984.984,0,0,0,1.968,0v-.663a.519.519,0,0,1,1.038,0v.663A2.024,2.024,0,0,1,110.108,147.522Z" transform="translate(-38.664 -114.372)"/>
      <path id="Trazado_878663" data-name="Trazado 878663" d="M79.716,99.331a9.25,9.25,0,0,1-4.85-1.388,6.558,6.558,0,0,0-2.335-.838A5.662,5.662,0,0,1,69,88.1a5.947,5.947,0,0,0,1.073-2.292c1.093-4.887,5.06-8.3,9.647-8.3s8.554,3.413,9.647,8.3A5.953,5.953,0,0,0,90.436,88.1h0A5.662,5.662,0,0,1,86.9,97.1a6.557,6.557,0,0,0-2.335.838,9.251,9.251,0,0,1-4.85,1.388Zm0-20.788c-4.1,0-7.648,3.079-8.634,7.489a6.992,6.992,0,0,1-1.261,2.695,4.624,4.624,0,0,0,2.886,7.356,7.577,7.577,0,0,1,2.7.977,8.129,8.129,0,0,0,8.611,0,7.581,7.581,0,0,1,2.7-.977,4.624,4.624,0,0,0,2.886-7.356h0a6.989,6.989,0,0,1-1.261-2.695c-.986-4.409-4.537-7.489-8.634-7.489Z" transform="translate(-6.769 -61.424)"/>
      <path id="Trazado_878664" data-name="Trazado 878664" d="M139.067,20.741a.519.519,0,0,1-.409-.2A8.767,8.767,0,0,0,134.1,17.42a.519.519,0,0,1-.379-.5,49.584,49.584,0,0,1,.867-8.859c.607-3.112,1.416-5.263,2.472-6.575A3.413,3.413,0,0,1,140.531.067c2.8.546,3.643,3.789,2.5,9.638a47.514,47.514,0,0,1-3.5,10.745.519.519,0,0,1-.412.288l-.054,0Zm-4.3-4.205a9.721,9.721,0,0,1,4.177,2.733,47.57,47.57,0,0,0,3.073-9.762c1.009-5.173.443-8.007-1.682-8.421a2.416,2.416,0,0,0-2.462,1.049c-.935,1.161-1.7,3.221-2.262,6.123A48.583,48.583,0,0,0,134.764,16.536Z" transform="translate(-58.981 -0.002)"/>
      <path id="Trazado_878665" data-name="Trazado 878665" d="M73.643,20.739a.472.472,0,0,1-.054,0,.518.518,0,0,1-.412-.288A47.5,47.5,0,0,1,69.678,9.7c-1.141-5.849-.3-9.091,2.5-9.638s4.8,2.142,5.94,7.991a49.587,49.587,0,0,1,.867,8.859.519.519,0,0,1-.379.5,8.766,8.766,0,0,0-4.555,3.122.518.518,0,0,1-.409.2Zm-.806-19.7a2.387,2.387,0,0,0-.459.046C70.253,1.5,69.687,4.331,70.7,9.5a47.569,47.569,0,0,0,3.073,9.762,9.72,9.72,0,0,1,4.177-2.733A48.633,48.633,0,0,0,77.1,8.255c-.935-4.793-2.369-7.217-4.265-7.217Z" transform="translate(-7.836)"/>
      <path id="Trazado_878666" data-name="Trazado 878666" d="M128.973,238.1c-1.274,0-2.859,0-2.859-1.822a2.859,2.859,0,1,1,5.718,0C131.832,238.1,130.246,238.1,128.973,238.1Zm0-3.649a1.826,1.826,0,0,0-1.821,1.827c0,.667.272.784,1.821.784s1.821-.117,1.821-.784A1.826,1.826,0,0,0,128.973,234.455Z" transform="translate(-52.951 -184.98)"/>
      <path id="Trazado_878667" data-name="Trazado 878667" d="M98.48,238.1c-1.274,0-2.859,0-2.859-1.822a2.859,2.859,0,1,1,5.717,0C101.338,238.1,99.753,238.1,98.48,238.1Zm0-3.649a1.826,1.826,0,0,0-1.821,1.827c0,.667.272.784,1.821.784s1.821-.117,1.821-.784A1.826,1.826,0,0,0,98.48,234.455Z" transform="translate(-28.786 -184.98)"/>
      <path id="Trazado_878668" data-name="Trazado 878668" d="M111.438,218.226a.519.519,0,0,1-.516-.465,21.312,21.312,0,0,0-1.432-5.43.519.519,0,0,1,.952-.413,21.976,21.976,0,0,1,1.512,5.736.519.519,0,0,1-.462.57A.479.479,0,0,1,111.438,218.226Z" transform="translate(-39.743 -167.695)"/>
      <path id="Trazado_878669" data-name="Trazado 878669" d="M128.262,218.225a.476.476,0,0,1-.054,0,.519.519,0,0,1-.462-.57,21.99,21.99,0,0,1,1.512-5.736.519.519,0,0,1,.952.413,21.3,21.3,0,0,0-1.432,5.43A.519.519,0,0,1,128.262,218.225Z" transform="translate(-54.241 -167.695)"/>
      <path id="Trazado_878670" data-name="Trazado 878670" d="M92.706,184.8a6.442,6.442,0,0,1-.939-.068.519.519,0,0,1-.431-.622,1.282,1.282,0,0,0,.027-.271,1.82,1.82,0,0,0-2.621-1.639.519.519,0,0,1-.633-.139c-1.817-2.245-5.708-8.156-2.6-14.528a.519.519,0,0,1,.57-.281,7.408,7.408,0,0,1,2.413.921,8.129,8.129,0,0,0,8.611,0,7.311,7.311,0,0,1,2.243-.884.519.519,0,0,1,.581.281c3.072,6.36-.81,12.253-2.621,14.492a.519.519,0,0,1-.633.139,1.8,1.8,0,0,0-.8-.188,1.826,1.826,0,0,0-1.821,1.827,1.283,1.283,0,0,0,.028.271.519.519,0,0,1-.431.622A6.5,6.5,0,0,1,92.706,184.8Zm-.307-1.046a5.492,5.492,0,0,0,.613,0,2.865,2.865,0,0,1,2.858-2.78,2.818,2.818,0,0,1,.863.134c1.72-2.223,4.8-7.284,2.433-12.705a6.012,6.012,0,0,0-1.521.653,9.167,9.167,0,0,1-9.7,0,6.121,6.121,0,0,0-1.68-.7c-2.4,5.437.688,10.518,2.414,12.749a2.86,2.86,0,0,1,3.72,2.645Zm4.973-15.139h0Z" transform="translate(-19.848 -132.537)"/>
      <path id="Trazado_878671" data-name="Trazado 878671" d="M143.667,206.306a.518.518,0,0,1-.405-.2,1.847,1.847,0,0,0-.623-.5.519.519,0,0,1-.174-.792,18.383,18.383,0,0,0,1.165-1.613l.007-.011a14.717,14.717,0,0,0,2.284-5.958.519.519,0,0,1,.882-.3,6.6,6.6,0,0,1,2.329,4.842,5.875,5.875,0,0,1-2.279,4.107.518.518,0,0,1-.281.12l-.895.1c-.532.057-1.175.125-1.955.206Zm-.04-1.289a2.929,2.929,0,0,1,.251.227c.653-.068,1.2-.127,1.67-.177l.753-.08a4.783,4.783,0,0,0,1.794-3.254,4.948,4.948,0,0,0-1.324-3.294,15.979,15.979,0,0,1-2.266,5.324l0,.008c-.275.427-.567.845-.873,1.247Z" transform="translate(-65.817 -155.947)"/>
      <path id="Trazado_878672" data-name="Trazado 878672" d="M79.705,206.306l-.054,0c-.777-.081-1.417-.149-1.948-.206l-.9-.1a.517.517,0,0,1-.281-.12,5.875,5.875,0,0,1-2.279-4.107,6.6,6.6,0,0,1,2.329-4.843.519.519,0,0,1,.882.3,14.21,14.21,0,0,0,2.143,5.734,18.371,18.371,0,0,0,1.313,1.848.519.519,0,0,1-.174.792,1.838,1.838,0,0,0-.623.5.52.52,0,0,1-.406.2Zm-2.633-1.319.733.078,1.689.179a2.885,2.885,0,0,1,.251-.227c-.365-.48-.71-.981-1.03-1.5a15.873,15.873,0,0,1-2.114-5.084,4.948,4.948,0,0,0-1.324,3.294A4.781,4.781,0,0,0,77.072,204.987Z" transform="translate(-11.84 -155.947)"/>
      <path id="Trazado_878673" data-name="Trazado 878673" d="M162.935,187.316a4.377,4.377,0,0,1-1.7-.348.52.52,0,0,1-.243-.211,8.807,8.807,0,0,0-1.322-1.648.532.532,0,0,1-.166-.445,10.61,10.61,0,0,0,.084-1.322.519.519,0,0,1,.2-.413c2.8-2.141,5.127-2.585,6.556-1.248a2.706,2.706,0,0,1,.34,3.625A4.565,4.565,0,0,1,162.935,187.316Zm-1.152-1.246a3.451,3.451,0,0,0,4.029-1.329,1.715,1.715,0,0,0-.178-2.3c-1.34-1.253-3.819.283-5.016,1.164-.007.306-.027.616-.06.935A9.854,9.854,0,0,1,161.784,186.07Z" transform="translate(-79.406 -143.381)"/>
      <path id="Trazado_878674" data-name="Trazado 878674" d="M149.34,239.88h-6.8a.519.519,0,0,1-.5-.674l.009-.027a.519.519,0,0,1,.45-.362c.761-.066.9-.257.9-.759a1.81,1.81,0,0,0-.4-1.138.519.519,0,0,1,.352-.839c.783-.081,1.427-.15,1.96-.207a9.934,9.934,0,0,1,3.006-.154,2.6,2.6,0,0,1,1.932,1.978l.162.755h0a1.2,1.2,0,0,1-.227,1.014A1.089,1.089,0,0,1,149.34,239.88Zm-5.04-1.038h5.04a.068.068,0,0,0,.041-.027.17.17,0,0,0,.02-.144l-.162-.755a1.562,1.562,0,0,0-1.159-1.187,11.331,11.331,0,0,0-2.655.176l-1.179.125a2.869,2.869,0,0,1,.192,1.027A2.067,2.067,0,0,1,144.3,238.842Z" transform="translate(-65.557 -186.757)"/>
      <path id="Trazado_878675" data-name="Trazado 878675" d="M74.58,239.88h-6.8a1.09,1.09,0,0,1-.848-.412,1.2,1.2,0,0,1-.227-1.014l.162-.755A2.605,2.605,0,0,1,68.8,235.72a9.946,9.946,0,0,1,3.007.154c.533.057,1.177.126,1.96.207a.519.519,0,0,1,.352.839,1.809,1.809,0,0,0-.4,1.138c0,.5.135.693.9.759a.519.519,0,0,1,.45.362l.009.027a.519.519,0,0,1-.495.674Zm-5.2-3.183a1.447,1.447,0,0,0-.34.032,1.562,1.562,0,0,0-1.159,1.187l-.162.755a.169.169,0,0,0,.02.144.068.068,0,0,0,.041.027h5.04a2.07,2.07,0,0,1-.138-.784,2.865,2.865,0,0,1,.192-1.027l-1.178-.125c-1.32-.141-1.951-.208-2.316-.208Z" transform="translate(-5.847 -186.757)"/>
      <path id="Trazado_878676" data-name="Trazado 878676" d="M134.539,117.631a.519.519,0,0,1-.519-.517,1.873,1.873,0,0,1,1.867-1.879h.006a1.875,1.875,0,0,1,1.873,1.867.519.519,0,0,1-.517.52h0a.519.519,0,0,1-.519-.517.836.836,0,0,0-.835-.832h0a.835.835,0,0,0-.832.838.519.519,0,0,1-.517.52Z" transform="translate(-59.216 -91.324)"/>
      <path id="Trazado_878677" data-name="Trazado 878677" d="M100.536,117.628a.519.519,0,0,1-.519-.519.835.835,0,1,0-1.67,0,.519.519,0,1,1-1.038,0,1.873,1.873,0,1,1,3.745,0A.519.519,0,0,1,100.536,117.628Z" transform="translate(-30.125 -91.325)"/>
      <path id="Trazado_878678" data-name="Trazado 878678" d="M157.483,143.527a.517.517,0,0,1-.241-.06l-.435-.229a20.031,20.031,0,0,0-7.264-2.2.519.519,0,1,1,.109-1.032,21.066,21.066,0,0,1,7.639,2.318l.435.229a.519.519,0,0,1-.242.978Z" transform="translate(-71.15 -110.949)"/>
      <path id="Trazado_878679" data-name="Trazado 878679" d="M154.781,152.754a.517.517,0,0,1-.353-.138l-.36-.334a20.029,20.029,0,0,0-6.44-4.02.519.519,0,0,1,.374-.968,21.066,21.066,0,0,1,6.772,4.227l.36.334a.519.519,0,0,1-.353.9Z" transform="translate(-69.738 -116.702)"/>
      <path id="Trazado_878680" data-name="Trazado 878680" d="M59.816,143.527a.519.519,0,0,1-.242-.978l.435-.229A21.069,21.069,0,0,1,67.647,140a.519.519,0,1,1,.109,1.032,20.028,20.028,0,0,0-7.264,2.2l-.435.229A.517.517,0,0,1,59.816,143.527Z" transform="translate(0 -110.948)"/>
      <path id="Trazado_878681" data-name="Trazado 878681" d="M66.034,152.755a.519.519,0,0,1-.353-.9l.36-.334a21.065,21.065,0,0,1,6.772-4.227.519.519,0,0,1,.373.968,20.03,20.03,0,0,0-6.44,4.02l-.36.334a.517.517,0,0,1-.353.138Z" transform="translate(-4.928 -116.703)"/>
      <path id="Trazado_878682" data-name="Trazado 878682" d="M114.258,199.281a6.439,6.439,0,0,1-.939-.068.519.519,0,0,1-.431-.622,1.282,1.282,0,0,0,.027-.271,1.788,1.788,0,0,0-.262-.945.519.519,0,0,1-.073-.216,20.794,20.794,0,0,0-.959-4.241.52.52,0,0,1-.019-.073l-.055-.3a.523.523,0,0,1-.009-.1v-4.206a2.73,2.73,0,1,1,5.461.024l-.018,4.185a.529.529,0,0,1-.009.092l-.051.276a.518.518,0,0,1-.019.073,20.829,20.829,0,0,0-.966,4.267.517.517,0,0,1-.072.215,1.819,1.819,0,0,0-.263.943,1.282,1.282,0,0,0,.028.271.519.519,0,0,1-.431.622,6.466,6.466,0,0,1-.939.068Zm-.307-1.046a5.492,5.492,0,0,0,.613,0,2.858,2.858,0,0,1,.352-1.291,22.046,22.046,0,0,1,.992-4.347l.036-.194.018-4.14a1.693,1.693,0,1,0-3.385-.017V192.4l.04.216a21.982,21.982,0,0,1,.984,4.32A2.853,2.853,0,0,1,113.951,198.235Zm2.511-5.784h0Z" transform="translate(-41.4 -147.019)"/>
      <path id="Trazado_878683" data-name="Trazado 878683" d="M113.424,134.4c-1.454,0-3.05-1.253-3.05-2.4,0-1.356,1.909-1.356,3.05-1.356s3.05,0,3.05,1.356c0,1.142-1.6,2.4-3.05,2.4Zm0-2.713c-1.867,0-2.012.243-2.012.318,0,.427,1.01,1.357,2.012,1.357s2.012-.931,2.012-1.357c0-.074-.145-.318-2.012-.318Z" transform="translate(-40.477 -103.538)"/>
      <path id="Trazado_878684" data-name="Trazado 878684" d="M119.242,151.284h-1.008a1.156,1.156,0,0,1-1.155-1.155v-.641a.519.519,0,0,1,.393-.5.981.981,0,0,0,.746-.953.519.519,0,0,1,1.038,0,.981.981,0,0,0,.746.953.519.519,0,0,1,.393.5v.641A1.156,1.156,0,0,1,119.242,151.284Zm-1.125-1.434v.28a.119.119,0,0,0,.117.117h1.008a.119.119,0,0,0,.117-.117v-.28a2.014,2.014,0,0,1-.621-.466A2.014,2.014,0,0,1,118.118,149.85Z" transform="translate(-45.792 -116.904)"/>
      <path id="Trazado_878685" data-name="Trazado 878685" d="M147.159,30.5a.519.519,0,0,1-.409-.2,9.124,9.124,0,0,0-2.56-2.268.519.519,0,0,1-.255-.444,44.567,44.567,0,0,1,.783-8.268,13.87,13.87,0,0,1,2.086-5.679,2.87,2.87,0,0,1,2.946-1.272,2.647,2.647,0,0,1,1.72,1.115.521.521,0,0,1,.09.238,19.686,19.686,0,0,1-.434,5.741,47.51,47.51,0,0,1-3.5,10.745.519.519,0,0,1-.412.288Zm-2.187-3.206a10.074,10.074,0,0,1,2.062,1.734,47.566,47.566,0,0,0,3.073-9.763,19.2,19.2,0,0,0,.436-5.288,1.614,1.614,0,0,0-.992-.589,1.867,1.867,0,0,0-1.926.888,13.154,13.154,0,0,0-1.888,5.243A43.6,43.6,0,0,0,144.971,27.294Z" transform="translate(-67.073 -9.761)"/>
      <path id="Trazado_878686" data-name="Trazado 878686" d="M73.611,30.5a.473.473,0,0,1-.054,0,.518.518,0,0,1-.412-.288,47.5,47.5,0,0,1-3.5-10.745,19.679,19.679,0,0,1-.434-5.741.519.519,0,0,1,.09-.238,2.645,2.645,0,0,1,1.72-1.115c3.543-.691,4.663,5.061,5.032,6.951a44.534,44.534,0,0,1,.783,8.268.519.519,0,0,1-.255.444,9.125,9.125,0,0,0-2.56,2.268A.52.52,0,0,1,73.611,30.5ZM70.228,13.974a19.187,19.187,0,0,0,.436,5.288,47.561,47.561,0,0,0,3.073,9.763A10.06,10.06,0,0,1,75.8,27.291a43.66,43.66,0,0,0-.764-7.776c-.857-4.395-2.14-6.457-3.815-6.131a1.612,1.612,0,0,0-.992.589Z" transform="translate(-7.804 -9.758)"/>
    </g>
  </g>
</svg>
