<svg xmlns="http://www.w3.org/2000/svg" width="84.208" height="84.207" viewBox="0 0 84.208 84.207">
  <g id="Grupo_1189753" data-name="Grupo 1189753" transform="translate(-768.175 -6110.6)">
    <g id="Grupo_1189042" data-name="Grupo 1189042" transform="translate(-104.551 5831.822)">
      <g id="Grupo_1188789" data-name="Grupo 1188789" transform="translate(583.726 -5835.222)">
        <rect id="Rectángulo_400898" data-name="Rectángulo 400898" width="75.49" height="75.489" rx="37.744" transform="translate(293.36 6118.358)" fill="#ffd907"/>
        <rect id="Rectángulo_400907" data-name="Rectángulo 400907" width="75.49" height="75.489" rx="37.744" transform="translate(293.36 6118.358)" fill="none"/>
        <g id="Grupo_1098742" data-name="Grupo 1098742" transform="translate(289 6114)">
          <g id="Rectángulo_400898-2" data-name="Rectángulo 400898" transform="translate(0)" fill="none" stroke="#fff" stroke-width="1" opacity="0.859">
            <rect width="84.208" height="84.207" rx="42.104" stroke="none"/>
            <rect x="0.5" y="0.5" width="83.208" height="83.207" rx="41.604" fill="none"/>
          </g>
          <g id="Rectángulo_400907-2" data-name="Rectángulo 400907" transform="translate(0)" fill="none" stroke="#0f1f33" stroke-linecap="round" stroke-width="1">
            <rect width="84.208" height="84.207" rx="42.104" stroke="none"/>
            <rect x="0.5" y="0.5" width="83.208" height="83.207" rx="41.604" fill="none"/>
          </g>
        </g>
      </g>
    </g>
    <g id="XMLID_2077_" transform="translate(781.629 6100.82)">
      <g id="XMLID_1829_" transform="translate(1.037 26.818)">
        <g id="XMLID_1757_" transform="translate(38.62 39.736)">
          <path id="XMLID_850_" d="M382.315,420.508v-1.66h1.66a4.253,4.253,0,0,1,4.253,4.253v1.66h-1.66A4.253,4.253,0,0,1,382.315,420.508Z" transform="translate(-382.315 -418.848)" fill="#89df8f"/>
        </g>
        <g id="XMLID_1832_" transform="translate(3.414 0)">
          <g id="XMLID_1703_">
            <path id="XMLID_849_" d="M73.969,38.032,43.335,68.667a1.442,1.442,0,0,0,1.02,2.462H67.441A19.633,19.633,0,0,0,87.075,51.5V43.46a7.677,7.677,0,0,0-13.106-5.428Z" transform="translate(-42.91 -35.783)" fill="#ffcd69"/>
          </g>
        </g>
        <g id="XMLID_1389_" transform="translate(0 18.328)">
          <path id="XMLID_843_" d="M10,237.934a6.56,6.56,0,0,0,9.249-.028l20.825-20.825-4.61-4.61Z" transform="translate(-10 -212.471)" fill="#ff7d97"/>
        </g>
        <g id="XMLID_1332_" transform="translate(1.384 9.875)">
          <path id="Trazado_878687" data-name="Trazado 878687" d="M23.34,156.447a21.174,21.174,0,0,0,25.44-3.437,15.587,15.587,0,0,0,.023-22.026Z" transform="translate(-23.34 -130.984)" fill="#80b6ff"/>
        </g>
        <g id="XMLID_1752_" transform="translate(4.311 11.957)">
          <path id="XMLID_116_" d="M51.557,171.471a21.129,21.129,0,0,0,16.187-6.155l.046-.046a15.545,15.545,0,0,0,4.222-14.22Z" transform="translate(-51.557 -151.05)" fill="#a0c8ff"/>
        </g>
      </g>
      <g id="XMLID_126_" transform="translate(0 25.781)">
        <path id="XMLID_270_" d="M398.289,108.363a1.036,1.036,0,1,0,.733-.3A1.04,1.04,0,0,0,398.289,108.363Z" transform="translate(-356.702 -99.524)"/>
        <path id="XMLID_822_" d="M52.063,61.127H38.016A20.67,20.67,0,0,0,43,57.721,1.037,1.037,0,0,0,41.6,56.2a18.538,18.538,0,0,1-12.612,4.93H26.717a22.171,22.171,0,0,0,1.877-1.673,16.626,16.626,0,0,0,.733-22.736L36.244,29.8A6.64,6.64,0,0,1,47.579,34.5v8.036a18.54,18.54,0,0,1-1.115,6.358,1.037,1.037,0,1,0,1.95.709,20.608,20.608,0,0,0,1.24-7.067V38.14h2.41a1.037,1.037,0,0,0,.733-1.771l-3.254-3.254a8.714,8.714,0,0,0-14.766-4.782L1.687,61.423a1.037,1.037,0,0,0,.22,1.634,22.021,22.021,0,0,0,3.58,1.635L.3,69.876a1.037,1.037,0,0,0,0,1.472,7.616,7.616,0,0,0,10.712-.033l5.7-5.7A22.29,22.29,0,0,0,23.6,63.2H34.838l3.782,3.782v1.23a5.3,5.3,0,0,0,5.29,5.29h1.66a1.037,1.037,0,0,0,1.037-1.037v-1.66a5.3,5.3,0,0,0-5.29-5.29h-1.23L37.772,63.2H52.063a1.037,1.037,0,0,0,0-2.075ZM20.825,52.285A20.175,20.175,0,0,1,7.895,58.15l17.17-17.17A14.519,14.519,0,0,1,20.825,52.285ZM5.791,60.254c.262.009.524.016.786.016a22.247,22.247,0,0,0,15.714-6.518,16.585,16.585,0,0,0,4.634-14.632l.933-.933a14.554,14.554,0,0,1-.731,19.8A20.177,20.177,0,0,1,4.15,61.895Zm3.762,9.594a5.54,5.54,0,0,1-6.974.687l5.176-5.176a22.188,22.188,0,0,0,5.1.6c.2,0,.4,0,.6-.009Zm34.98.959v.622h-.622A3.219,3.219,0,0,1,40.7,68.214v-.622h.622A3.219,3.219,0,0,1,44.533,70.807Z" transform="translate(0 -25.781)"/>
        <path id="XMLID_844_" d="M427.3,282.424a1.037,1.037,0,1,0,.733-.3A1.045,1.045,0,0,0,427.3,282.424Z" transform="translate(-382.702 -255.53)"/>
      </g>
    </g>
  </g>
</svg>
