<svg xmlns="http://www.w3.org/2000/svg" width="84.208" height="84.207" viewBox="0 0 84.208 84.207">
  <g id="Grupo_1189755" data-name="Grupo 1189755" transform="translate(-1083.051 -6110.6)">
    <g id="Grupo_1189043" data-name="Grupo 1189043" transform="translate(210.325 5831.822)">
      <g id="Grupo_1188789" data-name="Grupo 1188789" transform="translate(583.726 -5835.222)">
        <rect id="Rectángulo_400898" data-name="Rectángulo 400898" width="75.49" height="75.489" rx="37.744" transform="translate(293.36 6118.358)" fill="#ffd907"/>
        <rect id="Rectángulo_400907" data-name="Rectángulo 400907" width="75.49" height="75.489" rx="37.744" transform="translate(293.36 6118.358)" fill="none"/>
        <g id="Grupo_1098742" data-name="Grupo 1098742" transform="translate(289 6114)">
          <g id="Rectángulo_400898-2" data-name="Rectángulo 400898" transform="translate(0)" fill="none" stroke="#fff" stroke-width="1" opacity="0.859">
            <rect width="84.208" height="84.207" rx="42.104" stroke="none"/>
            <rect x="0.5" y="0.5" width="83.208" height="83.207" rx="41.604" fill="none"/>
          </g>
          <g id="Rectángulo_400907-2" data-name="Rectángulo 400907" transform="translate(0)" fill="none" stroke="#0f1f33" stroke-linecap="round" stroke-width="1">
            <rect width="84.208" height="84.207" rx="42.104" stroke="none"/>
            <rect x="0.5" y="0.5" width="83.208" height="83.207" rx="41.604" fill="none"/>
          </g>
        </g>
      </g>
    </g>
    <g id="perico" transform="translate(1107.051 6124.875)">
      <path id="Trazado_878688" data-name="Trazado 878688" d="M217.365,201.905a3.717,3.717,0,0,1-5.513-2.615,25.067,25.067,0,0,1,2.108-14.931l.4-.831a4.9,4.9,0,0,1,9.316,2.111v5.387A12.534,12.534,0,0,1,217.365,201.905Zm0,0" transform="translate(-189.316 -161.776)" fill="#f7ef87"/>
      <path id="Trazado_878689" data-name="Trazado 878689" d="M133.607,402.894h-3.1a2.05,2.05,0,1,1,0-4.1h3.1a2.05,2.05,0,0,1,0,4.1Zm0,0" transform="translate(-114.977 -356.946)" fill="#efd176"/>
      <path id="Trazado_878690" data-name="Trazado 878690" d="M25.581,7.5A13.393,13.393,0,0,0,12.187,20.894V45.556a14.848,14.848,0,0,1-2.44,8.155L7.793,56.683a1.916,1.916,0,0,0,1.6,2.969,5.971,5.971,0,0,0,4.99-2.692l.556-.846a24.465,24.465,0,0,0,2.756-5.68h1.782A18.664,18.664,0,0,0,38.091,33.168L38.937,21.9A13.394,13.394,0,0,0,25.581,7.5Zm0,0" transform="translate(-6.69 -6.713)" fill="#79ce6f"/>
      <g id="Grupo_1189754" data-name="Grupo 1189754" transform="translate(0.784 2.1)">
        <path id="Trazado_878691" data-name="Trazado 878691" d="M9.394,70.848a5.972,5.972,0,0,0,4.991-2.692l.556-.846a24.467,24.467,0,0,0,2.757-5.68h1.781a18.592,18.592,0,0,0,9.58-2.645C18.233,56.2,14.9,30.23,19.792,20.008a13.394,13.394,0,0,0-7.605,12.081V56.751a14.847,14.847,0,0,1-2.44,8.154L7.793,67.879A1.916,1.916,0,0,0,9.394,70.848Zm0,0" transform="translate(-7.475 -20.008)" fill="#4dc176"/>
        <path id="Trazado_878692" data-name="Trazado 878692" d="M185.346,237.34a.787.787,0,0,1-.787-.787v-1.207a.787.787,0,0,1,1.574,0v1.207A.787.787,0,0,1,185.346,237.34Zm0,0" transform="translate(-165.976 -212.045)" fill="#4dc176"/>
        <path id="Trazado_878693" data-name="Trazado 878693" d="M252.83,237.34a.787.787,0,0,1-.787-.787v-1.207a.787.787,0,0,1,1.574,0v1.207A.787.787,0,0,1,252.83,237.34Zm0,0" transform="translate(-226.379 -212.045)" fill="#4dc176"/>
        <path id="Trazado_878694" data-name="Trazado 878694" d="M219.088,268.555a.787.787,0,0,1-.787-.787V266.56a.787.787,0,0,1,1.574,0v1.207A.787.787,0,0,1,219.088,268.555Zm0,0" transform="translate(-196.178 -239.984)" fill="#4dc176"/>
      </g>
      <path id="Trazado_878695" data-name="Trazado 878695" d="M65.776,7.5A13.393,13.393,0,0,0,52.383,20.894v.924c5.918,4.164,16.061,5.855,26.6,2.131l.154-2.052A13.393,13.393,0,0,0,65.776,7.5Zm0,0" transform="translate(-46.886 -6.713)" fill="#f7ef87"/>
      <path id="Trazado_878696" data-name="Trazado 878696" d="M59.988,20.008a13.394,13.394,0,0,0-7.605,12.081v.924a21.491,21.491,0,0,0,5.508,2.726C57.5,29.656,58.188,23.767,59.988,20.008Zm0,0" transform="translate(-46.886 -17.908)" fill="#efd176"/>
      <path id="Trazado_878697" data-name="Trazado 878697" d="M17.549,201.905a3.717,3.717,0,0,1-5.513-2.615,25.067,25.067,0,0,1,2.108-14.931l.4-.831a4.9,4.9,0,0,1,9.316,2.111v5.387A12.534,12.534,0,0,1,17.549,201.905Zm0,0" transform="translate(-10.467 -161.776)" fill="#f7ef87"/>
      <path id="Trazado_878698" data-name="Trazado 878698" d="M120.16,100.949a2.738,2.738,0,1,0-2.668,2.125A2.443,2.443,0,0,0,120.16,100.949Zm0,0" transform="translate(-102.775 -88.454)" fill="#eda1ab"/>
      <path id="Trazado_878699" data-name="Trazado 878699" d="M257.977,100.949a2.738,2.738,0,1,0-2.668,2.125A2.443,2.443,0,0,0,257.977,100.949Zm0,0" transform="translate(-226.13 -88.454)" fill="#eda1ab"/>
      <path id="Trazado_878700" data-name="Trazado 878700" d="M193.639,91.83l-.035-.318a1.812,1.812,0,0,0-1.8-1.613h-.61a1.813,1.813,0,0,0-1.74,2.321l.26.89a9.44,9.44,0,0,1,.379,2.65.72.72,0,0,0,1.038.646A4.542,4.542,0,0,0,193.639,91.83Zm0,0" transform="translate(-169.506 -80.465)" fill="#eea849"/>
      <path id="Trazado_878701" data-name="Trazado 878701" d="M87.783,402.894h-3.1a2.05,2.05,0,0,1,0-4.1h3.1a2.05,2.05,0,0,1,0,4.1Zm0,0" transform="translate(-73.962 -356.946)" fill="#f7ef87"/>
      <path id="Trazado_878702" data-name="Trazado 878702" d="M10.424,30.76a2.532,2.532,0,0,0,1.035-.222A.787.787,0,0,0,10.82,29.1a.916.916,0,0,1-1.089-.229.787.787,0,1,0-1.319.858A2.43,2.43,0,0,0,10.424,30.76ZM5.817,34.4a.787.787,0,0,0-.639-1.438.917.917,0,0,1-1.089-.229.787.787,0,1,0-1.319.858,2.432,2.432,0,0,0,2.013,1.031A2.54,2.54,0,0,0,5.817,34.4ZM4.424,31.661a2.538,2.538,0,0,0,1.035-.222A.787.787,0,1,0,4.82,30a.916.916,0,0,1-1.089-.229.787.787,0,1,0-1.319.858A2.431,2.431,0,0,0,4.424,31.661ZM5.8,37.048a.915.915,0,0,1-1.089-.229.787.787,0,0,0-1.32.858,2.432,2.432,0,0,0,2.013,1.031,2.538,2.538,0,0,0,1.035-.222A.787.787,0,0,0,5.8,37.048Zm1.377-4.638a2.432,2.432,0,0,0,2.013,1.031,2.54,2.54,0,0,0,1.035-.222.787.787,0,0,0-.639-1.438A.914.914,0,0,1,8.5,31.553a.787.787,0,0,0-1.32.858ZM8.555,35.1a.915.915,0,0,1-1.089-.229.787.787,0,1,0-1.319.858A2.431,2.431,0,0,0,8.16,36.762a2.536,2.536,0,0,0,1.034-.222A.787.787,0,1,0,8.555,35.1ZM24.881,10.96A2.6,2.6,0,0,0,22.3,8.646h-.61a2.6,2.6,0,0,0-2.5,3.329l.26.89a8.669,8.669,0,0,1,.347,2.429,1.506,1.506,0,0,0,2.172,1.353,5.345,5.345,0,0,0,2.945-5.368Zm-3.509,4.226a10.229,10.229,0,0,0-.41-2.762l-.26-.89a1.026,1.026,0,0,1,.985-1.313h.61a1.025,1.025,0,0,1,1.019.913l.035.318A3.766,3.766,0,0,1,21.372,15.186ZM15.485,9.433v.942a.787.787,0,0,0,1.574,0V9.433a.787.787,0,0,0-1.574,0Zm12.139-.787a.787.787,0,0,0-.787.787v.942a.787.787,0,0,0,1.574,0V9.433A.787.787,0,0,0,27.624,8.646ZM4.564,26.524a.787.787,0,0,0-.231,1.089,2.432,2.432,0,0,0,2.013,1.031,2.539,2.539,0,0,0,1.035-.222.787.787,0,0,0-.639-1.438.916.916,0,0,1-1.089-.229A.787.787,0,0,0,4.564,26.524Zm28.169-7.305.145-1.933s0,0,0,0l.153-2.039a14.057,14.057,0,0,0-2.147-8.629.787.787,0,0,0-1.33.842,12.5,12.5,0,0,1,1.907,7.67l-.115,1.536a33.8,33.8,0,0,1-14.2,1.685A24.352,24.352,0,0,1,6.284,14.689v-.508a12.607,12.607,0,0,1,20.97-9.433A.787.787,0,1,0,28.3,3.57,14.181,14.181,0,0,0,4.71,14.181v5.446a5.646,5.646,0,0,0-1.346,1.786l-.4.832a25.727,25.727,0,0,0-2.174,15.4,4.5,4.5,0,0,0,3.691,3.7,13.952,13.952,0,0,1-1.763,4.71.787.787,0,1,0,1.351.807,15.521,15.521,0,0,0,2.011-5.534,4.492,4.492,0,0,0,1.39-.514,13.351,13.351,0,0,0,6.7-11.561V23.864a5.674,5.674,0,0,0-7.893-5.232v-2.08a26.18,26.18,0,0,0,10.7,3.359,32.386,32.386,0,0,0,3.349.172,36.052,36.052,0,0,0,10.888-1.726l-.6,8.04a18.126,18.126,0,0,1-.475,2.988.836.836,0,0,0-.033.129,17.531,17.531,0,0,1-.855,2.539.755.755,0,0,0-.108.249,17.593,17.593,0,0,1-1.423,2.6.784.784,0,0,0-.069.1,18.141,18.141,0,0,1-1.725,2.181,17.966,17.966,0,0,1-9.593,5.4,2.839,2.839,0,0,0-2.513-1.522h-3.1a2.837,2.837,0,0,0-1.589,5.187A23.686,23.686,0,0,1,7.593,48.97l-.556.846A5.17,5.17,0,0,1,2.7,52.153,1.13,1.13,0,0,1,1.76,50.4l.3-.458A.787.787,0,1,0,.747,49.08l-.3.458A2.7,2.7,0,0,0,2.7,53.727,6.74,6.74,0,0,0,8.352,50.68l.556-.846a25.237,25.237,0,0,0,1.737-3.1l.077,0h3.1a2.834,2.834,0,0,0,.857-.132,2.81,2.81,0,0,0,.852.132h3.1a2.837,2.837,0,0,0,2.529-4.123,19.615,19.615,0,0,0,2.934-1.73,4.458,4.458,0,0,0,4.347-.071,13.352,13.352,0,0,0,6.7-11.561V23.863A5.706,5.706,0,0,0,32.733,19.218Zm-24.24.535a4.115,4.115,0,0,1,4.11,4.11v5.387A11.772,11.772,0,0,1,6.691,39.446a2.923,2.923,0,0,1-1.293.387.834.834,0,0,0-.085,0A2.925,2.925,0,0,1,3.98,39.55a2.893,2.893,0,0,1-1.634-2.166A24.159,24.159,0,0,1,4.387,22.923l.4-.831A4.129,4.129,0,0,1,8.492,19.753Zm5.848,25.3-.014.007a1.259,1.259,0,0,1-.505.106h-3.1a1.27,1.27,0,0,1-.37-.055l-.006,0a1.263,1.263,0,0,1,.376-2.47h3.1a1.263,1.263,0,0,1,.519,2.414Zm4.289.113H16.361a2.818,2.818,0,0,0,.288-1.037,19.279,19.279,0,0,0,3.057-.888,1.263,1.263,0,0,1-1.076,1.925ZM33.57,29.251a11.772,11.772,0,0,1-5.912,10.195,2.9,2.9,0,0,1-2.132.309q.585-.506,1.13-1.059c.075.007.15.011.225.011a2.557,2.557,0,0,0,1.04-.221.786.786,0,0,0,.127-1.366q.24-.3.467-.617a2.513,2.513,0,0,0,1.114.262,2.556,2.556,0,0,0,1.043-.225.787.787,0,1,0-.639-1.438.966.966,0,0,1-.624.058,19.513,19.513,0,0,0,.938-1.739,2.528,2.528,0,0,0,.32.021,2.562,2.562,0,0,0,1.04-.221.787.787,0,0,0-.639-1.438l-.035.014q.2-.538.366-1.087a2.532,2.532,0,0,0,1.539-.171A.787.787,0,1,0,32.3,29.1a.969.969,0,0,1-.5.08,19.308,19.308,0,0,0,.389-2.665l.4-5.315a4.117,4.117,0,0,1,.986,2.665v5.387Zm0,0" transform="translate(0)"/>
    </g>
  </g>
</svg>
