<svg xmlns="http://www.w3.org/2000/svg" width="84.208" height="84.207" viewBox="0 0 84.208 84.207">
  <g id="Grupo_1189768" data-name="Grupo 1189768" transform="translate(6582 5506)">
    <g id="Grupo_1189045" data-name="Grupo 1189045" transform="translate(-7454.726 -5784.777)">
      <g id="Grupo_1188789" data-name="Grupo 1188789" transform="translate(583.726 -5835.222)">
        <rect id="Rectángulo_400898" data-name="Rectángulo 400898" width="75.49" height="75.489" rx="37.744" transform="translate(293.36 6118.358)" fill="#ffd907"/>
        <rect id="Rectángulo_400907" data-name="Rectángulo 400907" width="75.49" height="75.489" rx="37.744" transform="translate(293.36 6118.358)" fill="none"/>
        <g id="Grupo_1098742" data-name="Grupo 1098742" transform="translate(289 6114)">
          <g id="Rectángulo_400898-2" data-name="Rectángulo 400898" transform="translate(0)" fill="none" stroke="#fff" stroke-width="1" opacity="0.859">
            <rect width="84.208" height="84.207" rx="42.104" stroke="none"/>
            <rect x="0.5" y="0.5" width="83.208" height="83.207" rx="41.604" fill="none"/>
          </g>
          <g id="Rectángulo_400907-2" data-name="Rectángulo 400907" transform="translate(0)" fill="none" stroke="#0f1f33" stroke-linecap="round" stroke-width="1">
            <rect width="84.208" height="84.207" rx="42.104" stroke="none"/>
            <rect x="0.5" y="0.5" width="83.208" height="83.207" rx="41.604" fill="none"/>
          </g>
        </g>
      </g>
    </g>
    <g id="Page-1" transform="translate(-6566.963 -5490)">
      <g id="_004---Goose" data-name="004---Goose" transform="translate(0.964)">
        <g id="Icons" transform="translate(0.862 0.861)">
          <path id="Shape" d="M31.851,18.131c.009,1.033.052,2.161.138,3.392,0,0-.861.861-7.748,1.722s-8.05,4.417-6.027,9.47c1.722,4.3,6.027,7.748,3.444,15.5,0,0-.861,2.583-4.3.861a3.771,3.771,0,0,1-2.583.861,3.185,3.185,0,0,1-2.583-1.722s-2.583.861-4.3-.861c0,0-2.583,0-3.444-1.722,0,0-2.583.284-3.444-1.722V35.3C1,26.689-.727,0,21.657,0c6.027,0,12.914,6.887,12.914,6.887S31.791,8.971,31.851,18.131Z" transform="translate(-0.964)" fill="#f5f5f5"/>
          <path id="Shape-2" data-name="Shape" d="M36.8,6.887S29.909,0,23.882,0c-.572,0-1.119.028-1.659.063,5.785.63,11.99,6.825,11.99,6.825s-2.781,2.083-2.721,11.244c.009,1.033.052,2.161.138,3.392,0,0-.861.861-7.748,1.722s-8.05,4.417-6.027,9.47c1.722,4.3,6.027,7.748,3.444,15.5a2.336,2.336,0,0,1-1.016,1.165c2.854,1.051,3.6-1.165,3.6-1.165,2.583-7.748-1.722-11.192-3.444-15.5-2.023-5.054-.861-8.609,6.027-9.47s7.748-1.722,7.748-1.722c-.086-1.231-.129-2.359-.138-3.392C34.015,8.971,36.8,6.887,36.8,6.887Z" transform="translate(-3.189)" fill="#cfd8dc"/>
          <path id="Shape-3" data-name="Shape" d="M55.918,25.313c0,.861-2.583.861-5.166.861s-9.47-1.722-13.775-1.722c-.086-1.231-.129-2.359-.138-3.392.663.413,1.954.809,4.442.809A30.419,30.419,0,0,1,55.918,25.313Z" transform="translate(-5.954 -2.929)" fill="#f57c00"/>
          <path id="Shape-4" data-name="Shape" d="M55.918,23.5a30.419,30.419,0,0,0-14.636-3.444c-2.488,0-3.779-.4-4.442-.809C36.78,10.083,39.56,8,39.56,8a12.163,12.163,0,0,1,5.166,4.3C47.309,15.748,55.918,18.331,55.918,23.5Z" transform="translate(-5.953 -1.113)" fill="#ff9801"/>
          <path id="Shape-5" data-name="Shape" d="M42.456,12.3c2.368,3.158,9.8,5.6,11.02,9.958.9.363,1.808.76,2.755,1.234,0-5.166-8.609-7.748-11.192-11.192A12.163,12.163,0,0,0,39.874,8a3.868,3.868,0,0,0-.783.99A14.808,14.808,0,0,1,42.456,12.3Z" transform="translate(-6.267 -1.113)" fill="#f57c00"/>
          <circle id="Oval" cx="1.722" cy="1.722" r="1.722" transform="translate(22.415 5.166)" fill="#607d8b"/>
        </g>
        <g id="Icons_copy">
          <path id="Shape-6" data-name="Shape" d="M45.65,14.963a18.183,18.183,0,0,1-4.363-3.427A13.562,13.562,0,0,0,35.909,7.01C34.882,6.014,28.433,0,22.518,0c-5.854,0-10.6,1.793-14.1,5.328C.753,13.077.9,26.964.982,34.428c.007.634.013,1.215.013,1.731v8.609a.848.848,0,0,0,.07.339A4.007,4.007,0,0,0,4.83,47.363a5.021,5.021,0,0,0,3.557,1.692,5.143,5.143,0,0,0,4.271.994,3.763,3.763,0,0,0,2.973,1.607,4.976,4.976,0,0,0,2.688-.726,4.211,4.211,0,0,0,3.3.213,3.136,3.136,0,0,0,1.722-1.8c2.066-6.2-.045-9.857-1.907-13.086a23.934,23.934,0,0,1-1.555-3C18.894,30.8,18.784,28.9,19.55,27.6c.817-1.384,2.721-2.273,5.66-2.64,5.155-.644,7.121-1.3,7.873-1.709a59.526,59.526,0,0,1,8.131,1.006,40.6,40.6,0,0,0,5.411.711c3.5,0,6.027,0,6.027-1.722,0-3.728-3.719-6.147-7-8.282ZM39.909,12.57a19.05,19.05,0,0,0,4.8,3.837c2.479,1.613,5.02,3.272,5.895,5.33a30.871,30.871,0,0,0-13.451-2.8,9.948,9.948,0,0,1-3.58-.48c.04-6.216,1.446-8.818,2.075-9.673a12.725,12.725,0,0,1,4.26,3.782ZM24.994,23.252c-3.545.443-5.812,1.579-6.929,3.474-1.067,1.808-1,4.152.209,7.171a25.729,25.729,0,0,0,1.661,3.224c1.763,3.056,3.586,6.215,1.768,11.668a1.425,1.425,0,0,1-.768.771,3.013,3.013,0,0,1-2.339-.4.884.884,0,0,0-.984.152,2.98,2.98,0,0,1-1.982.618,2.343,2.343,0,0,1-1.808-1.246.861.861,0,0,0-1.039-.43,3.676,3.676,0,0,1-3.427-.652.869.869,0,0,0-.613-.255c-.021,0-2.077-.047-2.676-1.246a.861.861,0,0,0-.861-.472c-.078.006-1.833.172-2.492-1.06V36.159c0-.522-.006-1.11-.013-1.754-.071-6.695-.219-20.626,6.943-27.862,3.163-3.2,7.494-4.821,12.874-4.821,4.619,0,9.952,4.477,11.709,6.076C33.173,9.225,31.4,13,31.951,21.881a31.716,31.716,0,0,1-6.957,1.371Zm16.5-.689a67.366,67.366,0,0,0-7.834-1.016c-.025-.43-.046-.861-.059-1.266a13.827,13.827,0,0,0,3.55.381,29.262,29.262,0,0,1,12.477,2.519c-.946.064-2.145.064-3.006.064a41.191,41.191,0,0,1-5.127-.689Z" transform="translate(-0.964)"/>
          <path id="Shape-7" data-name="Shape" d="M48.115,20.332a.861.861,0,0,0,1.217-1.217l-.861-.861a.861.861,0,0,0-1.217,1.217Z" transform="translate(-7.367 -2.505)"/>
          <path id="Shape-8" data-name="Shape" d="M29.583,6a2.583,2.583,0,1,0,1.826.756A2.583,2.583,0,0,0,29.583,6Zm0,3.444a.861.861,0,1,1,.861-.861A.861.861,0,0,1,29.583,9.444Z" transform="translate(-4.584 -0.834)"/>
          <path id="Shape-9" data-name="Shape" d="M18.269,45.248a.866.866,0,0,0-.025,1.212,2.98,2.98,0,0,1,.618,1.984.861.861,0,0,0,1.722,0,4.572,4.572,0,0,0-1.113-3.191A.855.855,0,0,0,18.269,45.248Z" transform="translate(-3.334 -6.259)"/>
          <path id="Shape-10" data-name="Shape" d="M7.113,39.258A4.572,4.572,0,0,0,6,42.449a.861.861,0,0,0,1.722,0,2.988,2.988,0,0,1,.617-1.98.861.861,0,0,0-1.226-1.205Z" transform="translate(-1.663 -5.429)"/>
          <path id="Shape-11" data-name="Shape" d="M12.742,47.014a.88.88,0,0,0-.882.829,1.894,1.894,0,0,1-.609,1.133.861.861,0,1,0,1.217,1.217,3.5,3.5,0,0,0,1.113-2.331A.851.851,0,0,0,12.742,47.014Z" transform="translate(-2.358 -6.538)"/>
        </g>
      </g>
    </g>
  </g>
</svg>
