<svg xmlns="http://www.w3.org/2000/svg" width="84.208" height="84.207" viewBox="0 0 84.208 84.207">
  <g id="Grupo_1189787" data-name="Grupo 1189787" transform="translate(-768.175 -6778.6)">
    <g id="Grupo_1189050" data-name="Grupo 1189050" transform="translate(-104.551 6499.822)">
      <g id="Grupo_1188789" data-name="Grupo 1188789" transform="translate(583.726 -5835.222)">
        <rect id="Rectángulo_400898" data-name="Rectángulo 400898" width="75.49" height="75.489" rx="37.744" transform="translate(293.36 6118.358)" fill="#ffd907"/>
        <rect id="Rectángulo_400907" data-name="Rectángulo 400907" width="75.49" height="75.489" rx="37.744" transform="translate(293.36 6118.358)" fill="none"/>
        <g id="Grupo_1098742" data-name="Grupo 1098742" transform="translate(289 6114)">
          <g id="Rectángulo_400898-2" data-name="Rectángulo 400898" transform="translate(0)" fill="none" stroke="#fff" stroke-width="1" opacity="0.859">
            <rect width="84.208" height="84.207" rx="42.104" stroke="none"/>
            <rect x="0.5" y="0.5" width="83.208" height="83.207" rx="41.604" fill="none"/>
          </g>
          <g id="Rectángulo_400907-2" data-name="Rectángulo 400907" transform="translate(0)" fill="none" stroke="#0f1f33" stroke-linecap="round" stroke-width="1">
            <rect width="84.208" height="84.207" rx="42.104" stroke="none"/>
            <rect x="0.5" y="0.5" width="83.208" height="83.207" rx="41.604" fill="none"/>
          </g>
        </g>
      </g>
    </g>
    <g id="pescado" transform="translate(780.296 6789.372)">
      <g id="Grupo_1189786" data-name="Grupo 1189786" transform="translate(1 13.87)">
        <g id="Grupo_1189776" data-name="Grupo 1189776" transform="translate(0.819 4.295)">
          <path id="Trazado_878741" data-name="Trazado 878741" d="M53.607,30.3a11.792,11.792,0,0,1-3.875,1.436,12.432,12.432,0,0,0,2.855.922,1.529,1.529,0,0,1,.78,2.527,27.577,27.577,0,0,1-7.129,5.693,20.4,20.4,0,0,1-9.86,2.571c-9.585,0-21.024-6.81-26.176-10.242-1.6,1.96-4.274,4.726-6.553,4.726-3.547,0-.266-2.97-.266-6.65s-3.281-6.65.266-6.65c2.279,0,4.948,2.767,6.553,4.726,5.152-3.432,16.59-10.242,26.176-10.242a19.943,19.943,0,0,1,7.865,1.614,26.908,26.908,0,0,1,9.736,7.351,1.456,1.456,0,0,1-.372,2.217Z" transform="translate(-2.002 -19.123)" fill="#d9defb"/>
        </g>
        <g id="Grupo_1189777" data-name="Grupo 1189777" transform="translate(0.821 14.065)">
          <path id="Trazado_878742" data-name="Trazado 878742" d="M53.371,37.367a27.393,27.393,0,0,1-7.131,5.691,20.345,20.345,0,0,1-9.862,2.576c-9.584,0-21.024-6.812-26.176-10.246-1.6,1.963-4.277,4.726-6.55,4.726-2.936,0-1.194-2.036-.507-4.825a4.676,4.676,0,0,0,.507.025c2.093,0,4.53-2.347,6.158-4.244.139.164.27.319.393.474.229-.147.466-.311.72-.474,5.438,3.541,16.3,9.764,25.456,9.764a20.433,20.433,0,0,0,9.862-2.568,26.487,26.487,0,0,0,5.168-3.729c.343.106.744.2,1.178.3a1.531,1.531,0,0,1,.785,2.527Z" transform="translate(-2.004 -31.07)" fill="#c5cced"/>
        </g>
        <g id="Grupo_1189778" data-name="Grupo 1189778" transform="translate(0.819 9.811)">
          <path id="Trazado_878743" data-name="Trazado 878743" d="M10.2,30.594c-1.6-1.96-4.274-4.726-6.553-4.726-3.547,0-.266,2.979-.266,6.65s-3.281,6.65.266,6.65c2.279,0,4.948-2.766,6.553-4.726Z" transform="translate(-2.002 -25.867)" fill="#445a66"/>
        </g>
        <g id="Grupo_1189779" data-name="Grupo 1189779" transform="translate(0.819 9.813)">
          <path id="Trazado_878744" data-name="Trazado 878744" d="M5.181,38.8a3.675,3.675,0,0,1-1.529.368c-3.549,0-.27-2.968-.27-6.648S.1,25.87,3.652,25.87a3.675,3.675,0,0,1,1.529.368c-.916.9,1.145,3.369,1.145,6.28S4.274,37.9,5.181,38.8Z" transform="translate(-2.002 -25.87)" fill="#3b515b"/>
        </g>
        <g id="Grupo_1189781" data-name="Grupo 1189781" transform="translate(26.454 0.819)">
          <path id="Trazado_878745" data-name="Trazado 878745" d="M48.161,19.252a19.7,19.7,0,0,0-5.923-.9,27.144,27.144,0,0,0-6.916.993c-1.392-2.6-2.341-4.469,1.96-4.469,4.611,0,8.645,1.756,10.88,4.38Z" transform="translate(-33.496 -14.872)" fill="#445a66"/>
          <g id="Grupo_1189780" data-name="Grupo 1189780" transform="translate(0 26.85)">
            <path id="Trazado_878746" data-name="Trazado 878746" d="M47.138,48.017C44.859,50.5,40.94,52.14,36.48,52.14c-5.072,0-2.837-1.64-1.188-4.434a27.4,27.4,0,0,0,6.8.958,20,20,0,0,0,5.045-.647Z" transform="translate(-33.35 -47.706)" fill="#445a66"/>
          </g>
        </g>
        <g id="Grupo_1189782" data-name="Grupo 1189782" transform="translate(11.422 20.939)">
          <path id="Trazado_878747" data-name="Trazado 878747" d="M25.574,44.016a10.622,10.622,0,0,1-8.3.931c-3.52-1.029-2.412-3.4-.629-5.471A72.658,72.658,0,0,0,25.574,44.016Z" transform="translate(-14.967 -39.476)" fill="#445a66"/>
        </g>
        <g id="Grupo_1189783" data-name="Grupo 1189783" transform="translate(40.791 5.909)">
          <path id="Trazado_878748" data-name="Trazado 878748" d="M62.276,35.547a27.534,27.534,0,0,1-7.127,5.7,17.622,17.622,0,0,1-2-20.146,26.912,26.912,0,0,1,9.74,7.355,1.463,1.463,0,0,1-.381,2.216A11.886,11.886,0,0,1,58.642,32.1a12.648,12.648,0,0,0,2.855.926,1.525,1.525,0,0,1,.779,2.521Z" transform="translate(-50.883 -21.096)" fill="#d9defb"/>
        </g>
        <g id="Grupo_1189784" data-name="Grupo 1189784" transform="translate(40.789 5.912)">
          <path id="Trazado_878749" data-name="Trazado 878749" d="M58.142,39.319a25.725,25.725,0,0,1-2.993,1.922,17.6,17.6,0,0,1-2-20.141,22.738,22.738,0,0,1,3.516,1.864,17.613,17.613,0,0,0,1.472,16.355Z" transform="translate(-50.88 -21.1)" fill="#c5cced"/>
        </g>
        <path id="Trazado_878750" data-name="Trazado 878750" d="M58.243,29.245a1.635,1.635,0,1,1-1.632-1.632A1.634,1.634,0,0,1,58.243,29.245Z" transform="translate(-10.837 -16.375)" fill="#2297f3"/>
        <g id="Grupo_1189785" data-name="Grupo 1189785">
          <path id="Trazado_878751" data-name="Trazado 878751" d="M54.938,28.475a2.281,2.281,0,0,0-.523-1.881,26.674,26.674,0,0,0-11.841-8.235A15.306,15.306,0,0,0,31.24,13.87c-2.02,0-3.156.393-3.68,1.267-.589.981-.147,2.183.515,3.492-6.885,1.987-13.623,5.9-17.9,8.692C8.327,25.171,5.8,22.865,3.47,22.865a2.532,2.532,0,0,0-2.175.818c-.589.834-.188,1.913.27,3.156,1.1,3,1.083,4.02,0,6.992-.458,1.243-.85,2.314-.27,3.156a2.549,2.549,0,0,0,2.175.81c2.331,0,4.857-2.306,6.705-4.457.81.532,1.717,1.1,2.69,1.7-2.253,3.027-1.341,5.16,1.635,6.027a11.292,11.292,0,0,0,8.545-.81,48.911,48.911,0,0,0,5.062,1.783c-.969,1.453-1.868,2.553-1.3,3.614.491.94,1.864,1.137,3.778,1.137a15.476,15.476,0,0,0,11.072-4.2l.008-.008a25.869,25.869,0,0,0,12.127-7.8,2.345,2.345,0,0,0,.5-2.314A2.3,2.3,0,0,0,52.574,30.9c-.106-.016-.213-.041-.311-.065a14.056,14.056,0,0,0,1.57-.785A2.254,2.254,0,0,0,54.938,28.475ZM9.2,31.958c-2.232,2.674-4.318,4.2-5.732,4.2a2.362,2.362,0,0,1-.826-.1,5.366,5.366,0,0,1,.45-1.668c1.258-3.38,1.209-4.83.008-8.12a5.8,5.8,0,0,1-.474-1.644c0-.008.155-.131.842-.131,1.415,0,3.5,1.529,5.732,4.2ZM28.966,15.972c.049-.074.376-.466,2.273-.466a15.279,15.279,0,0,1,7.785,2.036,20.478,20.478,0,0,0-2.829-.2,27.834,27.834,0,0,0-6.5.85c-.45-.875-.924-1.889-.728-2.224ZM14.959,39.5c-1.915-.561-2.357-1.436-.679-3.623,2.02,1.178,4.293,2.388,6.7,3.484a9.435,9.435,0,0,1-6.019.139Zm15.627,5.659a5.849,5.849,0,0,1-2.306-.262,21.129,21.129,0,0,1,1.488-2.412,24.592,24.592,0,0,0,8.464.736A15.333,15.333,0,0,1,30.586,45.156Zm5.61-3.475c-9.273,0-20.574-6.714-25.358-9.87v-2.96c4.784-3.156,16.085-9.87,25.358-9.87a18.907,18.907,0,0,1,6.714,1.227A18.42,18.42,0,0,0,44.79,39.661a19.387,19.387,0,0,1-8.594,2.02ZM53.327,28.2a.617.617,0,0,1-.311.442,11.115,11.115,0,0,1-3.606,1.341.815.815,0,0,0-.237,1.529,13.3,13.3,0,0,0,3.058,1,.684.684,0,0,1,.507.458.725.725,0,0,1-.155.72,27.078,27.078,0,0,1-6.329,5.193,16.785,16.785,0,0,1-1.832-18.039,26.492,26.492,0,0,1,8.758,6.828.654.654,0,0,1,.147.532Z" transform="translate(-1 -13.87)"/>
          <path id="Trazado_878752" data-name="Trazado 878752" d="M56.428,26.612a2.45,2.45,0,1,0,2.45,2.45A2.456,2.456,0,0,0,56.428,26.612Zm0,3.264a.818.818,0,0,1-.821-.814.818.818,0,1,1,.821.814Z" transform="translate(-10.655 -16.193)"/>
          <path id="Trazado_878753" data-name="Trazado 878753" d="M41.819,29.368a.818.818,0,0,0-1.156-.026c-2.486,2.379-2.615,5.032,0,7.535A.818.818,0,0,0,41.793,35.7c-1.873-1.791-1.873-3.381,0-5.171A.818.818,0,0,0,41.819,29.368Z" transform="translate(-7.88 -16.649)"/>
          <path id="Trazado_878754" data-name="Trazado 878754" d="M36.481,29.368a.818.818,0,0,0-1.156-.026c-2.486,2.379-2.615,5.032,0,7.535A.818.818,0,0,0,36.456,35.7c-1.873-1.791-1.873-3.381,0-5.171A.817.817,0,0,0,36.481,29.368Z" transform="translate(-6.907 -16.649)"/>
          <path id="Trazado_878755" data-name="Trazado 878755" d="M31.142,29.368a.818.818,0,0,0-1.156-.026c-2.486,2.379-2.615,5.032,0,7.535A.818.818,0,1,0,31.117,35.7c-1.873-1.791-1.873-3.381,0-5.171A.817.817,0,0,0,31.142,29.368Z" transform="translate(-5.934 -16.649)"/>
        </g>
      </g>
    </g>
  </g>
</svg>
