<svg xmlns="http://www.w3.org/2000/svg" width="84.208" height="84.207" viewBox="0 0 84.208 84.207">
  <g id="Grupo_1189792" data-name="Grupo 1189792" transform="translate(-1083.051 -6779)">
    <g id="Grupo_1189051" data-name="Grupo 1189051" transform="translate(210.325 6500.223)">
      <g id="Grupo_1188789" data-name="Grupo 1188789" transform="translate(583.726 -5835.222)">
        <rect id="Rectángulo_400898" data-name="Rectángulo 400898" width="75.49" height="75.489" rx="37.744" transform="translate(293.36 6118.358)" fill="#ffd907"/>
        <rect id="Rectángulo_400907" data-name="Rectángulo 400907" width="75.49" height="75.489" rx="37.744" transform="translate(293.36 6118.358)" fill="none"/>
        <g id="Grupo_1098742" data-name="Grupo 1098742" transform="translate(289 6114)">
          <g id="Rectángulo_400898-2" data-name="Rectángulo 400898" transform="translate(0)" fill="none" stroke="#fff" stroke-width="1" opacity="0.859">
            <rect width="84.208" height="84.207" rx="42.104" stroke="none"/>
            <rect x="0.5" y="0.5" width="83.208" height="83.207" rx="41.604" fill="none"/>
          </g>
          <g id="Rectángulo_400907-2" data-name="Rectángulo 400907" transform="translate(0)" fill="none" stroke="#0f1f33" stroke-linecap="round" stroke-width="1">
            <rect width="84.208" height="84.207" rx="42.104" stroke="none"/>
            <rect x="0.5" y="0.5" width="83.208" height="83.207" rx="41.604" fill="none"/>
          </g>
        </g>
      </g>
    </g>
    <g id="pez-de-colores" transform="translate(1099.051 6747.282)">
      <g id="Grupo_1189789" data-name="Grupo 1189789" transform="translate(0.764 53.481)">
        <path id="Trazado_878756" data-name="Trazado 878756" d="M178.5,71.43h-17.64c-1.315-1.753-3.884-2.755-5.843-3.292q-.191-.052-.373-.1a1.528,1.528,0,0,1-.734-2.533,12.829,12.829,0,0,1,1.848-1.6l1.389-.184.2-.817a20.494,20.494,0,0,1,3.8-1.591h1.978l.611-.663q.908-.188,1.909-.332a11.293,11.293,0,0,1,10.746,4.54A11.1,11.1,0,0,1,178.5,71.43Z" transform="translate(-138.615 -60.208)" fill="#e1dfe5"/>
        <path id="Trazado_878757" data-name="Trazado 878757" d="M191.97,98.472H174.33c-1.315-1.753-3.884-2.755-5.843-3.292A21.69,21.69,0,0,1,182,90.317a19.842,19.842,0,0,1,7.865,1.589A11.1,11.1,0,0,1,191.97,98.472Z" transform="translate(-152.089 -87.25)" fill="#c2c0cb"/>
        <path id="Trazado_878758" data-name="Trazado 878758" d="M19.464,151.765c1.442,1.442.944,4.385-1.011,7.194a14.914,14.914,0,0,1-1.7,2.025c-2.243,2.243-5.705,2.688-7.688,2.744A1.523,1.523,0,0,1,7.5,162.164c.056-1.982.5-5.445,2.744-7.688a15.116,15.116,0,0,1,1.8-1.541,1.525,1.525,0,0,0,0-2.47,15.01,15.01,0,0,1-1.8-1.54C8,146.682,7.556,143.219,7.5,141.237a1.524,1.524,0,0,1,1.565-1.566c1.982.056,5.445.5,7.688,2.745a14.916,14.916,0,0,1,1.7,2.025c1.956,2.809,2.454,5.752,1.011,7.195-.022.022-.045.044-.068.064C19.419,151.721,19.441,151.742,19.464,151.765Z" transform="translate(-7.5 -131.577)" fill="#f1e12b"/>
        <path id="Trazado_878759" data-name="Trazado 878759" d="M80.884,193.83c1.442,1.442.944,4.385-1.011,7.195-2.585-2.955-3.987-5.808-3.987-7.259s1.4-4.3,3.987-7.259c1.956,2.809,2.454,5.752,1.011,7.195-.022.022-.045.044-.068.064C80.84,193.786,80.862,193.807,80.884,193.83Z" transform="translate(-68.92 -173.642)" fill="#f3c23b"/>
        <path id="Trazado_878760" data-name="Trazado 878760" d="M317.818,357.792a15.391,15.391,0,0,1-1.453,4.331,8.772,8.772,0,0,1-5.828,4.89,1.529,1.529,0,0,1-1.649-2.269c.151-.255.3-.525.443-.81a8.5,8.5,0,0,0,.786-6.488Z" transform="translate(-277.993 -327.17)" fill="#e1dfe5"/>
        <path id="Trazado_878761" data-name="Trazado 878761" d="M323.642,357.792a15.391,15.391,0,0,1-1.453,4.331,19.489,19.489,0,0,1-7.034,1.811,8.5,8.5,0,0,0,.786-6.488Z" transform="translate(-283.818 -327.17)" fill="#c2c0cb"/>
        <path id="Trazado_878762" data-name="Trazado 878762" d="M174.611,323.9a14.159,14.159,0,0,1-6.159,4.8,7.757,7.757,0,0,1-4.468.215,1.529,1.529,0,0,1-.465-2.767c.1-.062.194-.127.291-.195a8.785,8.785,0,0,0,4.06-5.791Z" transform="translate(-147.001 -293.677)" fill="#e1dfe5"/>
        <path id="Trazado_878763" data-name="Trazado 878763" d="M176.586,320.156l6.74,3.739a14.159,14.159,0,0,1-6.159,4.8,23.182,23.182,0,0,1-4.642-2.746A8.785,8.785,0,0,0,176.586,320.156Z" transform="translate(-155.716 -293.677)" fill="#c2c0cb"/>
        <path id="Trazado_878764" data-name="Trazado 878764" d="M132.09,148.689a20.043,20.043,0,0,1-6.773,1.158c-12.271,0-19.942-10.737-19.942-13.805s7.67-13.805,19.942-13.805a20.019,20.019,0,0,1,6.773,1.158Z" transform="translate(-95.406 -115.918)" fill="#f1e12b"/>
        <path id="Trazado_878765" data-name="Trazado 878765" d="M342.133,148.965a1.526,1.526,0,0,1-.453,1.089,1.565,1.565,0,0,1-2.2-.037l-.49-.49a.763.763,0,0,0-1.266.3c-1.332,4.072-4.883,7.4-9.527,9.069-1.528-2.128-4.473-6.967-4.473-12.647s2.945-10.519,4.473-12.647c4.644,1.666,8.195,5,9.527,9.068a.764.764,0,0,0,1.266.306l.49-.491a1.566,1.566,0,0,1,2.2-.037,1.53,1.53,0,0,1,.453,1.09,2.533,2.533,0,0,1-1,1.631,1.527,1.527,0,0,0,0,2.161C341.449,147.72,342.133,148.063,342.133,148.965Z" transform="translate(-291.515 -126.13)" fill="#f3c23b"/>
        <g id="Grupo_1189788" data-name="Grupo 1189788" transform="translate(36.047 16.374)">
          <path id="Trazado_878766" data-name="Trazado 878766" d="M367.329,223.338c0,1.309-1.34,2.365-2.983,2.36s-2.972-1.07-2.968-2.379,1.34-2.365,2.983-2.36S367.333,222.029,367.329,223.338Z" transform="translate(-361.378 -220.959)" fill="#fff"/>
        </g>
      </g>
      <g id="Grupo_1189791" data-name="Grupo 1189791" transform="translate(0 52.718)">
        <path id="Trazado_878767" data-name="Trazado 878767" d="M151.321,115.284a.761.761,0,0,1-.339-.08,16.647,16.647,0,0,0-3.26-1.17,2.272,2.272,0,0,1-1.437-1.1,2.3,2.3,0,0,1-.19-1.8.764.764,0,0,1,1.458.456.77.77,0,0,0,.066.6.748.748,0,0,0,.481.366,18.165,18.165,0,0,1,3.561,1.281.764.764,0,0,1-.34,1.449Z" transform="translate(-131.121 -104.7)"/>
        <path id="Trazado_878768" data-name="Trazado 878768" d="M244.514,67.22a.762.762,0,0,1-.565-.25,25.92,25.92,0,0,0-8.072-5.381.764.764,0,0,1,.634-1.39,27.4,27.4,0,0,1,8.569,5.743.764.764,0,0,1-.565,1.278Z" transform="translate(-211.448 -59.375)"/>
        <path id="Trazado_878769" data-name="Trazado 878769" d="M198.295,62.98a.764.764,0,0,1-.745-.6,10.5,10.5,0,0,0-11.732-8.028,24.259,24.259,0,0,0-7.514,2.223,35.1,35.1,0,0,1,5.615,3.158.764.764,0,1,1-.883,1.247,35.52,35.52,0,0,0-6.736-3.607.764.764,0,0,1-.117-1.354,24.056,24.056,0,0,1,9.418-3.181,12.036,12.036,0,0,1,13.44,9.209.765.765,0,0,1-.747.93Z" transform="translate(-157.916 -52.718)"/>
        <path id="Trazado_878770" data-name="Trazado 878770" d="M1.941,150.768a.764.764,0,0,1-.69-1.092A8.845,8.845,0,0,1,2.968,147.2a15.9,15.9,0,0,1,1.89-1.619.761.761,0,0,0,0-1.234,15.793,15.793,0,0,1-1.89-1.618C.519,140.28.058,136.536,0,134.523a2.287,2.287,0,0,1,2.35-2.351c2.013.057,5.756.518,8.206,2.969a14.083,14.083,0,0,1,3.182,4.693.764.764,0,0,1-1.422.559,12.729,12.729,0,0,0-2.84-4.172C7.4,134.145,4.093,133.75,2.307,133.7a.76.76,0,0,0-.779.78c.051,1.787.445,5.094,2.521,7.17a14.263,14.263,0,0,0,1.707,1.462,2.289,2.289,0,0,1,0,3.707,14.37,14.37,0,0,0-1.707,1.463,7.324,7.324,0,0,0-1.417,2.051A.764.764,0,0,1,1.941,150.768Z" transform="translate(0 -124.078)"/>
        <path id="Trazado_878771" data-name="Trazado 878771" d="M2.288,306.821A2.287,2.287,0,0,1,0,304.469a14.825,14.825,0,0,1,.165-1.935.786.786,0,0,1,.77-.784.752.752,0,0,1,.77.744,2.089,2.089,0,0,1-.029.27,13.2,13.2,0,0,0-.148,1.748.759.759,0,0,0,.78.779c1.786-.05,5.093-.445,7.169-2.521a12.752,12.752,0,0,0,2.831-4.148.764.764,0,0,1,1.42.563,14.105,14.105,0,0,1-3.171,4.666c-2.45,2.45-6.193,2.911-8.206,2.968Z" transform="translate(0 -273.142)"/>
        <path id="Trazado_878772" data-name="Trazado 878772" d="M303.448,372.26a2.294,2.294,0,0,1-1.963-3.46,10.57,10.57,0,0,0,1.34-3.4.764.764,0,1,1,1.5.281,12.085,12.085,0,0,1-1.526,3.894.748.748,0,0,0,.037.833.759.759,0,0,0,.792.3c4.406-.964,6.021-5.729,6.511-7.734a.764.764,0,0,1,1.484.363c-.558,2.283-2.422,7.716-7.669,8.864A2.382,2.382,0,0,1,303.448,372.26Z" transform="translate(-270.484 -330.851)"/>
        <path id="Trazado_878773" data-name="Trazado 878773" d="M159.088,360.646a8.308,8.308,0,0,1-2.031-.252,2.293,2.293,0,0,1-.695-4.149,11.571,11.571,0,0,0,2.007-1.626.764.764,0,0,1,1.1,1.064,13.1,13.1,0,0,1-2.272,1.844.748.748,0,0,0-.338.763.759.759,0,0,0,.575.622c2.283.574,4.616-.028,6.932-1.788a.764.764,0,1,1,.925,1.216A10.262,10.262,0,0,1,159.088,360.646Z" transform="translate(-139.494 -323.658)"/>
        <path id="Trazado_878774" data-name="Trazado 878774" d="M118.581,143.876c-12.572,0-20.705-10.824-20.705-14.569s8.134-14.569,20.705-14.569c7.953,0,14.954,4.422,17.026,10.752L136.1,125a2.328,2.328,0,0,1,3.277-.04,2.285,2.285,0,0,1,.679,1.632,3.082,3.082,0,0,1-1.222,2.168l0,0a.763.763,0,0,0,0,1.08,2.721,2.721,0,0,0,.264.27,2.487,2.487,0,0,1,.955,1.9,2.279,2.279,0,0,1-.68,1.632,2.327,2.327,0,0,1-3.276-.039l-.49-.49a13.2,13.2,0,0,1-1.663,3.35.764.764,0,0,1-1.261-.863,11.7,11.7,0,0,0,1.472-2.961,1.527,1.527,0,0,1,2.533-.606l.489.489a.806.806,0,0,0,1.12.034.763.763,0,0,0,.227-.546c0-.331-.161-.5-.47-.785a3.688,3.688,0,0,1-.357-.368,2.206,2.206,0,0,1-.616-1.558,2.277,2.277,0,0,1,.671-1.621.765.765,0,0,1,.094-.08c.24-.187.678-.667.678-1.011a.767.767,0,0,0-.228-.548.807.807,0,0,0-1.12.035l-.489.49a1.528,1.528,0,0,1-2.533-.608c-1.869-5.71-8.273-9.7-15.574-9.7-11.75,0-19.178,10.431-19.178,13.041s7.428,13.041,19.178,13.041a18.091,18.091,0,0,0,11.853-4.216.764.764,0,0,1,1.009,1.147A19.635,19.635,0,0,1,118.581,143.876Z" transform="translate(-87.906 -108.42)"/>
        <path id="Trazado_878775" data-name="Trazado 878775" d="M321.426,153.376a.763.763,0,0,1-.622-.32c-1.709-2.394-4.576-7.271-4.576-13.037s2.866-10.64,4.574-13.034a.764.764,0,0,1,1.244.888c-1.6,2.245-4.29,6.808-4.29,12.146s2.689,9.9,4.292,12.149a.764.764,0,0,1-.621,1.208Z" transform="translate(-284.016 -119.133)"/>
        <path id="Trazado_878776" data-name="Trazado 878776" d="M259.061,232.009a3.065,3.065,0,1,1,0-6.13.764.764,0,1,1,0,1.528,1.537,1.537,0,0,0,0,3.074.764.764,0,1,1,0,1.528Z" transform="translate(-229.92 -208.241)"/>
        <path id="Trazado_878777" data-name="Trazado 878777" d="M274.12,149.185a3.065,3.065,0,1,1,0-6.13.764.764,0,0,1,0,1.528,1.537,1.537,0,1,0,0,3.074.764.764,0,0,1,0,1.528Z" transform="translate(-243.445 -133.853)"/>
        <path id="Trazado_878778" data-name="Trazado 878778" d="M274.12,314.832a3.065,3.065,0,1,1,0-6.13.764.764,0,1,1,0,1.528,1.537,1.537,0,1,0,0,3.074.764.764,0,0,1,0,1.528Z" transform="translate(-243.445 -282.627)"/>
        <path id="Trazado_878779" data-name="Trazado 878779" d="M198.826,277.185a3.065,3.065,0,1,1,0-6.13.764.764,0,1,1,0,1.528,1.537,1.537,0,0,0,0,3.074.764.764,0,1,1,0,1.528Z" transform="translate(-175.82 -248.815)"/>
        <path id="Trazado_878780" data-name="Trazado 878780" d="M198.826,186.832a3.065,3.065,0,1,1,0-6.13.764.764,0,1,1,0,1.528,1.537,1.537,0,1,0,0,3.074.764.764,0,1,1,0,1.528Z" transform="translate(-175.82 -167.665)"/>
        <path id="Trazado_878781" data-name="Trazado 878781" d="M146.12,232.009a3.065,3.065,0,1,1,0-6.13.764.764,0,1,1,0,1.528,1.537,1.537,0,0,0,0,3.074.764.764,0,1,1,0,1.528Z" transform="translate(-128.483 -208.241)"/>
        <g id="Grupo_1189790" data-name="Grupo 1189790" transform="translate(39.348 14.754)">
          <path id="Trazado_878782" data-name="Trazado 878782" d="M389.886,200.506h0a.764.764,0,0,1-.762-.766.652.652,0,0,0-1.3,0,.764.764,0,1,1-1.528,0,2.18,2.18,0,0,1,4.361.014A.764.764,0,0,1,389.886,200.506Z" transform="translate(-386.289 -197.557)"/>
        </g>
      </g>
    </g>
  </g>
</svg>
