<svg xmlns="http://www.w3.org/2000/svg" width="84.208" height="84.207" viewBox="0 0 84.208 84.207">
  <g id="Grupo_1189801" data-name="Grupo 1189801" transform="translate(6918 4838)">
    <g id="Grupo_1189799" data-name="Grupo 1189799" transform="translate(0.124 0.4)">
      <g id="Grupo_1189052" data-name="Grupo 1189052" transform="translate(-7790.85 -5117.178)">
        <g id="Grupo_1188789" data-name="Grupo 1188789" transform="translate(583.726 -5835.222)">
          <rect id="Rectángulo_400898" data-name="Rectángulo 400898" width="75.49" height="75.489" rx="37.744" transform="translate(293.36 6118.358)" fill="#ffd907"/>
          <rect id="Rectángulo_400907" data-name="Rectángulo 400907" width="75.49" height="75.489" rx="37.744" transform="translate(293.36 6118.358)" fill="none"/>
          <g id="Grupo_1098742" data-name="Grupo 1098742" transform="translate(289 6114)">
            <g id="Rectángulo_400898-2" data-name="Rectángulo 400898" transform="translate(0)" fill="none" stroke="#fff" stroke-width="1" opacity="0.859">
              <rect width="84.208" height="84.207" rx="42.104" stroke="none"/>
              <rect x="0.5" y="0.5" width="83.208" height="83.207" rx="41.604" fill="none"/>
            </g>
            <g id="Rectángulo_400907-2" data-name="Rectángulo 400907" transform="translate(0)" fill="none" stroke="#0f1f33" stroke-linecap="round" stroke-width="1">
              <rect width="84.208" height="84.207" rx="42.104" stroke="none"/>
              <rect x="0.5" y="0.5" width="83.208" height="83.207" rx="41.604" fill="none"/>
            </g>
          </g>
        </g>
      </g>
    </g>
    <g id="Page-1" transform="translate(-6902.089 -4820.75)">
      <g id="_011---Fish" data-name="011---Fish" transform="translate(0.089 0.75)">
        <path id="Shape" d="M42.368,40.08a47.169,47.169,0,0,1-3.856,3.607C28.6,51.932,19.92,51.209,13.55,48.2a16.456,16.456,0,0,0,2.97-9.382,16.462,16.462,0,0,0-2.97-9.391,18.874,18.874,0,0,1,2.1-.869v-.009a21.2,21.2,0,0,1,2.384-.7,20.354,20.354,0,0,1,13.2,1.446c.207.086.4.181.611.284a26.659,26.659,0,0,1,2.7,1.489A34.4,34.4,0,0,1,38.8,34.175a47.048,47.048,0,0,1,3.572,3.366A1.888,1.888,0,0,1,42.368,40.08Z" transform="translate(-1.963 -4.453)" fill="#02a9f4"/>
        <path id="Shape-2" data-name="Shape" d="M43.589,37.541a47.047,47.047,0,0,0-3.572-3.366,34.4,34.4,0,0,0-4.244-3.107,26.659,26.659,0,0,0-2.7-1.489c-.207-.1-.4-.2-.611-.284a20.83,20.83,0,0,0-10.14-1.9,21.483,21.483,0,0,1,7.557,1.9c.207.086.4.181.611.284a26.658,26.658,0,0,1,2.7,1.489,34.4,34.4,0,0,1,4.244,3.107,47.047,47.047,0,0,1,3.572,3.366,1.888,1.888,0,0,1,0,2.539,47.169,47.169,0,0,1-3.856,3.607c-5.312,4.417-10.267,6.259-14.7,6.556,5.063.333,10.918-1.26,17.286-6.556a47.169,47.169,0,0,0,3.856-3.607,1.888,1.888,0,0,0,0-2.539Z" transform="translate(-3.184 -4.454)" fill="#0377bc"/>
        <path id="Shape-3" data-name="Shape" d="M14.784,39.151a16.456,16.456,0,0,1-2.97,9.382A31.253,31.253,0,0,1,1.494,40.3a1.851,1.851,0,0,1,0-2.315A33.1,33.1,0,0,1,8.862,31.4a26.139,26.139,0,0,1,2.952-1.635,16.462,16.462,0,0,1,2.97,9.391Z" transform="translate(-0.228 -4.79)" fill="#00bcd4"/>
        <path id="Shape-4" data-name="Shape" d="M13.238,29.76c-.674.315-1.309.664-1.929,1.023a16.346,16.346,0,0,1,2.316,8.367,16.331,16.331,0,0,1-2.319,8.362c.619.36,1.26.7,1.932,1.02a16.456,16.456,0,0,0,2.97-9.382,16.462,16.462,0,0,0-2.97-9.391Z" transform="translate(-1.651 -4.79)" fill="#00838f"/>
        <path id="Shape-5" data-name="Shape" d="M56.709,47.494H48.1c-2.479,0-4.39-1.713-5.552-3.159a47.169,47.169,0,0,0,3.856-3.607,1.888,1.888,0,0,0,0-2.539,47.047,47.047,0,0,0-3.572-3.366A7.193,7.193,0,0,1,48.1,32h8.608s0,6.025-4.3,7.747c4.3,1.722,4.3,7.747,4.3,7.747Z" transform="translate(-6.001 -5.101)" fill="#00bcd4"/>
        <path id="Shape-6" data-name="Shape" d="M53.582,39.747c4.3-1.722,4.3-7.747,4.3-7.747H55.3s0,6.025-4.3,7.747c4.3,1.722,4.3,7.747,4.3,7.747h2.582S57.886,41.468,53.582,39.747Z" transform="translate(-7.178 -5.101)" fill="#00838f"/>
        <path id="Shape-7" data-name="Shape" d="M32.734,20.61v7.566l-.164.344c-.207-.1-.4-.2-.611-.284a20.354,20.354,0,0,0-13.2-1.446L18.73,26.7c1.231-2.238,4.562-6.137,13.075-6.955a.861.861,0,0,1,.93.861Z" transform="translate(-2.685 -3.395)" fill="#00bcd4"/>
        <path id="Shape-8" data-name="Shape" d="M33.611,19.75c-.672.065-1.3.154-1.91.258a.861.861,0,0,1,.258.6v6.9q.893.318,1.808.726c.207.086.4.181.611.284l.164-.344V20.61a.861.861,0,0,0-.93-.861Z" transform="translate(-4.491 -3.395)" fill="#00838f"/>
        <path id="Shape-9" data-name="Shape" d="M42.368,22.08a47.169,47.169,0,0,1-3.856,3.607,35.1,35.1,0,0,1-3.959,2.875,26.658,26.658,0,0,0-2.7-1.489l.164-.344V19.162a.861.861,0,0,0-.93-.861c-8.513.818-11.844,4.717-13.075,6.955l.026.086a21.2,21.2,0,0,0-2.384.7,16.033,16.033,0,0,0,.869-5.225,16.462,16.462,0,0,0-2.97-9.391,21.336,21.336,0,0,1,4.476-1.575h.009a20.354,20.354,0,0,1,13.2,1.446c.207.095.4.189.611.284a32.748,32.748,0,0,1,6.946,4.6,47.047,47.047,0,0,1,3.572,3.366,1.888,1.888,0,0,1,0,2.539Z" transform="translate(-1.963 -1.947)" fill="#3f51b5"/>
        <path id="Shape-10" data-name="Shape" d="M29.512,20a.844.844,0,0,0-.672-.258c-7.2.689-10.684,3.583-12.335,5.814a16,16,0,0,1-.516,1.925,21.2,21.2,0,0,1,2.384-.7l-.026-.086C19.482,24.642,22.408,21.179,29.512,20Z" transform="translate(-2.303 -3.395)" fill="#283593"/>
        <path id="Shape-11" data-name="Shape" d="M43.589,19.541a47.048,47.048,0,0,0-3.572-3.366,32.748,32.748,0,0,0-6.946-4.6c-.207-.095-.4-.189-.611-.284a20.83,20.83,0,0,0-10.14-1.9,21.483,21.483,0,0,1,7.557,1.9c.207.095.4.189.611.284a32.748,32.748,0,0,1,6.946,4.6,47.048,47.048,0,0,1,3.572,3.366,1.888,1.888,0,0,1,0,2.539,47.169,47.169,0,0,1-3.856,3.607c-.924.77-1.838,1.456-2.739,2.074q.673.371,1.362.8a35.1,35.1,0,0,0,3.959-2.875,47.169,47.169,0,0,0,3.856-3.607A1.888,1.888,0,0,0,43.589,19.541Z" transform="translate(-3.184 -1.947)" fill="#283593"/>
        <path id="Shape-12" data-name="Shape" d="M14.784,21.151a16.033,16.033,0,0,1-.869,5.225v.009a18.874,18.874,0,0,0-2.1.869,26.139,26.139,0,0,0-2.952,1.635A32.9,32.9,0,0,1,1.494,22.3a1.851,1.851,0,0,1,0-2.315,31.347,31.347,0,0,1,10.32-8.229,16.462,16.462,0,0,1,2.97,9.391Z" transform="translate(-0.228 -2.283)" fill="#02a9f4"/>
        <path id="Shape-13" data-name="Shape" d="M12.877,11.76c-.671.317-1.313.661-1.931,1.021a16.348,16.348,0,0,1,2.318,8.37,16.033,16.033,0,0,1-.869,5.225v.009a18.874,18.874,0,0,0-2.1.869c-.545.254-1.069.529-1.577.813.389.279.789.554,1.205.822a26.139,26.139,0,0,1,2.952-1.635,18.874,18.874,0,0,1,2.1-.869v-.009a16.033,16.033,0,0,0,.871-5.225,16.462,16.462,0,0,0-2.97-9.391Z" transform="translate(-1.29 -2.283)" fill="#0377bc"/>
        <path id="Shape-14" data-name="Shape" d="M32.734,2.61v7.566l-.775.06a20.354,20.354,0,0,0-13.2-1.446h-.009L18.73,8.7C19.961,6.466,23.292,2.567,31.8,1.75a.861.861,0,0,1,.93.861Z" transform="translate(-2.685 -0.889)" fill="#02a9f4"/>
        <path id="Shape-15" data-name="Shape" d="M33.611,1.75c-.672.065-1.3.154-1.91.258a.861.861,0,0,1,.258.6v6.9q.893.318,1.808.726l.775-.06V2.61a.861.861,0,0,0-.93-.861Z" transform="translate(-4.491 -0.889)" fill="#0377bc"/>
        <path id="Shape-16" data-name="Shape" d="M56.709,29.494H48.1c-2.479,0-4.39-1.713-5.552-3.159a47.169,47.169,0,0,0,3.856-3.607,1.888,1.888,0,0,0,0-2.539,47.047,47.047,0,0,0-3.572-3.366A7.193,7.193,0,0,1,48.1,14h8.608s0,6.025-4.3,7.747c4.3,1.722,4.3,7.747,4.3,7.747Z" transform="translate(-6.001 -2.595)" fill="#02a9f4"/>
        <path id="Shape-17" data-name="Shape" d="M53.582,21.747c4.3-1.722,4.3-7.747,4.3-7.747H55.3s0,6.025-4.3,7.747c4.3,1.722,4.3,7.747,4.3,7.747h2.582S57.886,23.468,53.582,21.747Z" transform="translate(-7.178 -2.595)" fill="#0377bc"/>
        <g id="Grupo_1189800" data-name="Grupo 1189800">
          <circle id="Oval" cx="0.861" cy="0.861" r="0.861" transform="translate(7.67 30.342)"/>
          <circle id="Oval-2" data-name="Oval" cx="0.861" cy="0.861" r="0.861" transform="translate(7.67 14.848)"/>
          <path id="Shape-18" data-name="Shape" d="M19.862,33a.856.856,0,0,0-.855.85.866.866,0,0,0,.844.872c.265.007,2.593.189,2.593,4.3a.861.861,0,0,0,1.722,0C24.166,33.069,19.9,33,19.862,33Z" transform="translate(-2.723 -5.241)"/>
          <path id="Shape-19" data-name="Shape" d="M25.245,31.085a.861.861,0,1,0-.77,1.541c.029.019,2.967,1.541,2.967,6.12a.861.861,0,0,0,1.722,0C29.164,33.114,25.406,31.171,25.245,31.085Z" transform="translate(-3.418 -4.961)"/>
          <path id="Shape-20" data-name="Shape" d="M51.658,12.155a.861.861,0,0,0-.861-.861H42.189a7.562,7.562,0,0,0-5.353,2.515A33.783,33.783,0,0,0,31,9.949V2.472A1.733,1.733,0,0,0,30.434,1.2,1.706,1.706,0,0,0,29.123.758c-8.625.828-12.2,4.753-13.617,7.172a22.441,22.441,0,0,0-4.2,1.518A31.987,31.987,0,0,0,.689,17.911a2.719,2.719,0,0,0,0,3.408A34.463,34.463,0,0,0,7.2,27.356,34.125,34.125,0,0,0,.694,33.4a2.722,2.722,0,0,0,0,3.412c2.525,3.069,9.445,10.243,19.148,10.617q.39.015.781.015c5.349,0,10.673-2.111,15.9-6.275A7.833,7.833,0,0,0,42.189,44H50.8a.861.861,0,0,0,.861-.861c0-.239-.043-5.277-3.4-7.747,3.36-2.47,3.4-7.508,3.4-7.747s-.043-5.277-3.4-7.747c3.36-2.47,3.4-7.508,3.4-7.747ZM36.842,29.3q-1.291-1.05-2.587-1.932c.761-.516,1.522-1.081,2.276-1.683a9.859,9.859,0,0,0,2.463,1.967A9.382,9.382,0,0,0,36.842,29.3Zm-.755-5.468a34.85,34.85,0,0,1-3.426,2.522q-.829-.5-1.661-.924v-7.46a1.733,1.733,0,0,0-.566-1.277,1.706,1.706,0,0,0-1.311-.437,27.2,27.2,0,0,0-3.507.566,7.84,7.84,0,0,0-3.7-5.432.861.861,0,0,0-.775,1.537,6.164,6.164,0,0,1,2.812,4.343,19.113,19.113,0,0,0-2.459.947c-.381-5.122-4.225-5.2-4.266-5.2a.856.856,0,0,0-.855.85.866.866,0,0,0,.844.872c.265.007,2.593.189,2.593,4.3,0,.027.013.048.015.074a12.617,12.617,0,0,0-4.318,4.316c-.155.039-.312.075-.465.117a16.922,16.922,0,0,0,.465-3.93,17.286,17.286,0,0,0-2.569-9.012,20.256,20.256,0,0,1,3.357-1.1.439.439,0,0,0,.059-.011,19.574,19.574,0,0,1,12.653,1.389l.6.279a32.079,32.079,0,0,1,6.762,4.476,46.278,46.278,0,0,1,3.5,3.3,1.033,1.033,0,0,1,0,1.35,46.721,46.721,0,0,1-3.787,3.543Zm-6.809-5.863v6.642a21.67,21.67,0,0,0-9.436-1.822c-.646.024-1.276.086-1.894.164,1.684-2.006,4.98-4.375,11.33-4.985Zm0-15.494V9.135A21.39,21.39,0,0,0,17.941,7.463c1.684-2.007,4.982-4.38,11.337-4.991ZM2.018,20.222a.986.986,0,0,1,0-1.22,31.159,31.159,0,0,1,9.346-7.661,15.586,15.586,0,0,1,2.42,8.276,15.191,15.191,0,0,1-.71,4.567,25.585,25.585,0,0,0-4.33,2.144A32.555,32.555,0,0,1,2.018,20.222Zm0,15.5a.992.992,0,0,1,0-1.225,30.823,30.823,0,0,1,9.343-7.661,15.562,15.562,0,0,1,2.424,8.276,15.546,15.546,0,0,1-2.42,8.271,30.841,30.841,0,0,1-9.342-7.662Zm17.89,9.99a19.841,19.841,0,0,1-6.972-1.6,17.244,17.244,0,0,0,2.57-9A17.26,17.26,0,0,0,12.94,26.1a19.869,19.869,0,0,1,6.967-1.6c.238-.009.474-.014.712-.014,6.438,0,12.911,3.343,19.251,9.945a1.018,1.018,0,0,1,0,1.343C33.3,42.626,26.578,45.966,19.908,45.711ZM46.3,34.535H44.772a.861.861,0,1,0,0,1.722H46.3c2.687,1.172,3.389,4.451,3.57,6.025H42.189a6.123,6.123,0,0,1-4.336-2.214c1.091-.947,2.177-1.97,3.257-3.1a2.717,2.717,0,0,0,0-3.727c-.98-1.02-1.963-1.958-2.952-2.83a5.893,5.893,0,0,1,4.03-1.9h7.687C49.7,30.081,49,33.358,46.3,34.535Zm0-15.494H44.772a.861.861,0,0,0,0,1.722H46.3c2.687,1.172,3.389,4.451,3.57,6.025H42.189a6.124,6.124,0,0,1-4.332-2.21c1.081-.937,2.173-1.972,3.261-3.1a2.737,2.737,0,0,0,0-3.728c-.963-1-1.957-1.939-2.96-2.822a5.9,5.9,0,0,1,4.032-1.913h7.687C49.7,14.588,49,17.864,46.3,19.041Z" transform="translate(-0.089 -0.75)"/>
        </g>
      </g>
    </g>
  </g>
</svg>
