<svg xmlns="http://www.w3.org/2000/svg" width="84.208" height="84.207" viewBox="0 0 84.208 84.207">
  <g id="Grupo_1189918" data-name="Grupo 1189918" transform="translate(6582.143 4838.401)">
    <g id="Grupo_1189053" data-name="Grupo 1189053" transform="translate(-7454.869 -5117.178)">
      <g id="Grupo_1188789" data-name="Grupo 1188789" transform="translate(583.726 -5835.222)">
        <rect id="Rectángulo_400898" data-name="Rectángulo 400898" width="75.49" height="75.489" rx="37.744" transform="translate(293.36 6118.358)" fill="#ffd907"/>
        <rect id="Rectángulo_400907" data-name="Rectángulo 400907" width="75.49" height="75.489" rx="37.744" transform="translate(293.36 6118.358)" fill="none"/>
        <g id="Grupo_1098742" data-name="Grupo 1098742" transform="translate(289 6114)">
          <g id="Rectángulo_400898-2" data-name="Rectángulo 400898" transform="translate(0)" fill="none" stroke="#fff" stroke-width="1" opacity="0.859">
            <rect width="84.208" height="84.207" rx="42.104" stroke="none"/>
            <rect x="0.5" y="0.5" width="83.208" height="83.207" rx="41.604" fill="none"/>
          </g>
          <g id="Rectángulo_400907-2" data-name="Rectángulo 400907" transform="translate(0)" fill="none" stroke="#0f1f33" stroke-linecap="round" stroke-width="1">
            <rect width="84.208" height="84.207" rx="42.104" stroke="none"/>
            <rect x="0.5" y="0.5" width="83.208" height="83.207" rx="41.604" fill="none"/>
          </g>
        </g>
      </g>
    </g>
    <g id="muerto" transform="translate(-6563.932 -4834.756)">
      <g id="Grupo_1189797" data-name="Grupo 1189797" transform="translate(0.7 15.374)">
        <g id="Grupo_1189793" data-name="Grupo 1189793" transform="translate(0 20.07)">
          <path id="Trazado_878767" data-name="Trazado 878767" d="M7.5,237.209c4.638,0,4.638,1.867,9.277,1.867s4.638-1.867,9.277-1.867,4.638,1.867,9.277,1.867,4.639-1.867,9.277-1.867,4.639,1.867,9.277,1.867v22.41H7.5Z" transform="translate(-7.5 -237.209)" fill="#b1e4f9"/>
        </g>
        <g id="Grupo_1189794" data-name="Grupo 1189794" transform="translate(2.795 6.365)">
          <path id="Trazado_878768" data-name="Trazado 878768" d="M164.381,93.244c-3.975-1.325-8.159-4.64-12.377-1.68A10.437,10.437,0,0,0,148.65,103.4" transform="translate(-137.696 -90.37)" fill="#cbe2ff"/>
          <path id="Trazado_878769" data-name="Trazado 878769" d="M77.019,128.346A17.995,17.995,0,0,1,50.663,140.83a32.044,32.044,0,0,1-4.521,6.641,2.175,2.175,0,0,1-3.809-1.582,15.6,15.6,0,0,0-.613-6.2,15.6,15.6,0,0,0-3.625-5.071,2.176,2.176,0,0,1,1.824-3.7,32.042,32.042,0,0,1,7.776,2.018,18,18,0,0,1,28.054-7.968,2.044,2.044,0,0,0,1.27,3.382Z" transform="translate(-37.448 -118.226)" fill="#ecf4ff"/>
          <path id="Trazado_878770" data-name="Trazado 878770" d="M74.781,218.094a17.993,17.993,0,0,1-24.119,6.558,32.043,32.043,0,0,1-4.521,6.641,2.175,2.175,0,0,1-3.809-1.582,15.6,15.6,0,0,0-.613-6.2,15.6,15.6,0,0,0-3.625-5.071,2.176,2.176,0,0,1,1.824-3.7,32.041,32.041,0,0,1,7.776,2.018,18.042,18.042,0,0,1,1.545-3.211c4.566,5.115,13.268,10.263,25.542,4.55Z" transform="translate(-37.447 -202.048)" fill="#ddeafb"/>
        </g>
        <path id="Trazado_878771" data-name="Trazado 878771" d="M53.884,323.842c-4.639,0-4.639-1.867-9.277-1.867s-4.639,1.867-9.277,1.867-4.638-1.867-9.277-1.867-4.638,1.867-9.277,1.867-4.638-1.867-9.277-1.867v-8.943c4.638,0,4.638,1.867,9.277,1.867s4.638-1.867,9.277-1.867,4.638,1.867,9.277,1.867,4.639-1.867,9.277-1.867,4.639,1.867,9.277,1.867" transform="translate(-7.499 -285.886)" fill="#95d6a4"/>
        <g id="Grupo_1189796" data-name="Grupo 1189796" transform="translate(29.468)">
          <g id="Grupo_1189795" data-name="Grupo 1189795">
            <path id="Trazado_878772" data-name="Trazado 878772" d="M442.931,75.494l-.115-.142a1.227,1.227,0,0,1,.117-1.671l1.452-1.353a1.227,1.227,0,0,1,1.79.125l.286.353a1.227,1.227,0,0,1-.247,1.777l-1.624,1.142A1.227,1.227,0,0,1,442.931,75.494Z" transform="translate(-431.408 -67.349)" fill="#ffe07d"/>
            <path id="Trazado_878773" data-name="Trazado 878773" d="M389.781,39.452l-.171-.065a1.227,1.227,0,0,1-.734-1.506l.582-1.9a1.227,1.227,0,0,1,1.612-.786l.424.163a1.227,1.227,0,0,1,.674,1.663l-.835,1.8a1.227,1.227,0,0,1-1.553.629Z" transform="translate(-382.701 -33.907)" fill="#ffe07d"/>
            <path id="Trazado_878774" data-name="Trazado 878774" d="M325.286,26.586l-.181.029a1.227,1.227,0,0,1-1.389-.937l-.445-1.934a1.227,1.227,0,0,1,1-1.487l.449-.071a1.227,1.227,0,0,1,1.415,1.1l.177,1.977A1.227,1.227,0,0,1,325.286,26.586Z" transform="translate(-323.24 -22.17)" fill="#ffe07d"/>
          </g>
        </g>
      </g>
      <g id="Grupo_1189798" data-name="Grupo 1189798" transform="translate(0 14.675)">
        <path id="Trazado_878775" data-name="Trazado 878775" d="M344.919,173.752a.7.7,0,0,0-.927.348l-.938,2.069-2.069-.938a.7.7,0,0,0-.578,1.275l2.069.938-.938,2.069a.7.7,0,1,0,1.275.578l.938-2.069,2.069.938a.7.7,0,1,0,.578-1.275l-2.069-.938.938-2.069a.7.7,0,0,0-.348-.927Z" transform="translate(-308.265 -158.849)"/>
        <path id="Trazado_878776" data-name="Trazado 878776" d="M290.96,160.906a.7.7,0,0,0-.927.348,9.192,9.192,0,0,0,4.569,12.154.7.7,0,1,0,.578-1.275,7.79,7.79,0,0,1-3.872-10.3A.7.7,0,0,0,290.96,160.906Z" transform="translate(-262.221 -147.202)"/>
        <path id="Trazado_878777" data-name="Trazado 878777" d="M136.03,403.224a10.04,10.04,0,0,1-4.377-.883,12.694,12.694,0,0,0-9.8,0,11.294,11.294,0,0,1-8.754,0,12.69,12.69,0,0,0-9.8,0,10.04,10.04,0,0,1-4.377.883h-.105a.7.7,0,0,0-.032,1.4h.137a11.357,11.357,0,0,0,4.9-.984,11.292,11.292,0,0,1,8.753,0,12.692,12.692,0,0,0,9.8,0,11.3,11.3,0,0,1,8.755,0,11.357,11.357,0,0,0,4.9.984.7.7,0,1,0,0-1.4Z" transform="translate(-88.945 -365.268)"/>
        <path id="Trazado_878778" data-name="Trazado 878778" d="M7.267,402.922a12.822,12.822,0,0,1-1.667-.581,11.357,11.357,0,0,0-4.9-.984.7.7,0,0,0,0,1.4,10.04,10.04,0,0,1,4.378.883,14.137,14.137,0,0,0,1.841.638.7.7,0,1,0,.348-1.356Z" transform="translate(0 -365.268)"/>
        <path id="Trazado_878779" data-name="Trazado 878779" d="M47.088,105.548a11.265,11.265,0,0,1-2.383-.225,11.545,11.545,0,0,1-1.995-.658,11.177,11.177,0,0,0-4.159-.967,18.706,18.706,0,0,0,3.52-4.858l.119.048a12.873,12.873,0,0,0,2.219.726,12.629,12.629,0,0,0,2.678.257.7.7,0,0,0,0-1.4,11.261,11.261,0,0,1-2.383-.225,11.558,11.558,0,0,1-1.992-.657l-.059-.023a18.771,18.771,0,0,0,1.1-3.717.7.7,0,0,0-.6-.823,1.345,1.345,0,0,1-.837-2.225.7.7,0,0,0-.091-1.014,18.71,18.71,0,0,0-5.295-2.927.7.7,0,0,0-.471,1.318,17.311,17.311,0,0,1,4.39,2.322,2.745,2.745,0,0,0,1.4,3.714,17.324,17.324,0,0,1-5.829,9.526,11.248,11.248,0,0,0-3.514.923,10.042,10.042,0,0,1-4.377.883,10.042,10.042,0,0,1-4.377-.883,11.347,11.347,0,0,0-4.856-.984h-.044a11.354,11.354,0,0,0-4.9.984,10.04,10.04,0,0,1-4.377.883,13.305,13.305,0,0,1-1.334-.062c-.067-.234-.14-.46-.22-.673a15.928,15.928,0,0,0-3.785-5.32,1.476,1.476,0,0,1,1.234-2.512,31.494,31.494,0,0,1,7.606,1.973.7.7,0,0,0,.922-.408A17.3,17.3,0,0,1,33.874,87.473a.7.7,0,0,0,.262-1.375,18.578,18.578,0,0,0-3.839-.325c-.854-.292-1.716-.674-2.625-1.078-3.142-1.395-6.7-2.976-10.268-.474a10.416,10.416,0,0,0-3.67,5.1,11.329,11.329,0,0,0-.035,7.275q-.185.4-.353.806a33.539,33.539,0,0,0-7.283-1.8,2.827,2.827,0,0,0-2.772,1.248A12.811,12.811,0,0,0,.7,96.6.7.7,0,1,0,.7,98a11.787,11.787,0,0,1,2.11.171,2.848,2.848,0,0,0,.837,2.307,14.88,14.88,0,0,1,3.419,4.709,14.07,14.07,0,0,1-1.466-.526,13.049,13.049,0,0,0-2.146-.711A12.57,12.57,0,0,0,.7,103.681a.7.7,0,0,0,0,1.4,11.2,11.2,0,0,1,2.448.239,11.748,11.748,0,0,1,1.929.644,11.355,11.355,0,0,0,4.9.984,11.358,11.358,0,0,0,4.9-.984,10.038,10.038,0,0,1,4.376-.883H19.3a10.029,10.029,0,0,1,4.335.883,11.358,11.358,0,0,0,4.9.984,11.358,11.358,0,0,0,4.9-.984,10.044,10.044,0,0,1,4.378-.883,10.041,10.041,0,0,1,4.377.883,12.839,12.839,0,0,0,2.222.728,12.629,12.629,0,0,0,2.678.257.7.7,0,1,0,0-1.4ZM18.207,85.367c2.917-2.047,5.821-.757,8.9.608l.217.1a18.7,18.7,0,0,0-12.643,8.687A9.65,9.65,0,0,1,18.207,85.367Z" transform="translate(-0.003 -76.535)"/>
        <path id="Trazado_878780" data-name="Trazado 878780" d="M78.824,259.693a39,39,0,0,0-6.567-.761.7.7,0,0,0-.018,1.4,38.308,38.308,0,0,1,6.307.733.7.7,0,1,0,.278-1.372Z" transform="translate(-64.871 -236.136)"/>
        <path id="Trazado_878781" data-name="Trazado 878781" d="M105.16,289.78l-3.7.474a.7.7,0,0,0,.088,1.394.709.709,0,0,0,.09-.006l3.7-.474a.7.7,0,1,0-.178-1.389Z" transform="translate(-91.435 -264.1)"/>
        <path id="Trazado_878782" data-name="Trazado 878782" d="M435.608,69.137a1.933,1.933,0,0,0,2.606.363l1.623-1.142a1.927,1.927,0,0,0,.389-2.79l-.286-.353a1.927,1.927,0,0,0-2.811-.2l-1.452,1.352a1.933,1.933,0,0,0-.183,2.624Zm1.022-1.742,1.452-1.353a.522.522,0,0,1,.358-.141h.038a.522.522,0,0,1,.373.194l.286.353a.527.527,0,0,1-.106.764l-1.624,1.142a.529.529,0,0,1-.713-.1h0l-.115-.142A.529.529,0,0,1,436.63,67.395Z" transform="translate(-394.46 -59.851)"/>
        <path id="Trazado_878783" data-name="Trazado 878783" d="M382.565,33.248l.171.066a1.91,1.91,0,0,0,.685.127,1.934,1.934,0,0,0,1.753-1.115l.835-1.8a1.927,1.927,0,0,0-1.059-2.611l-.425-.163a1.927,1.927,0,0,0-2.532,1.235l-.582,1.9A1.933,1.933,0,0,0,382.565,33.248Zm.185-1.954.582-1.9a.527.527,0,0,1,.693-.338l.425.163a.527.527,0,0,1,.29.714l-.835,1.8a.529.529,0,0,1-.667.27l-.171-.066A.529.529,0,0,1,382.751,31.294Z" transform="translate(-345.739 -26.415)"/>
        <path id="Trazado_878784" data-name="Trazado 878784" d="M316.241,19.04a1.935,1.935,0,0,0,1.879,1.5,1.911,1.911,0,0,0,.3-.024l.181-.029a1.933,1.933,0,0,0,1.617-2.075l-.177-1.977A1.927,1.927,0,0,0,317.82,14.7l-.449.071a1.927,1.927,0,0,0-1.576,2.336Zm1-2.661a.522.522,0,0,1,.354-.226l.449-.071a.542.542,0,0,1,.085-.007.528.528,0,0,1,.523.481l.177,1.977a.529.529,0,0,1-.442.568h0l-.181.029a.53.53,0,0,1-.6-.4l-.445-1.934A.522.522,0,0,1,317.237,16.378Z" transform="translate(-286.278 -14.675)"/>
      </g>
    </g>
  </g>
</svg>
