<svg xmlns="http://www.w3.org/2000/svg" width="84.208" height="84.207" viewBox="0 0 84.208 84.207">
  <g id="Grupo_1189804" data-name="Grupo 1189804" transform="translate(-1083.051 -7456)">
    <g id="Grupo_1189058" data-name="Grupo 1189058" transform="translate(210.325 7177.223)">
      <g id="Grupo_1188789" data-name="Grupo 1188789" transform="translate(583.726 -5835.222)">
        <rect id="Rectángulo_400898" data-name="Rectángulo 400898" width="75.49" height="75.489" rx="37.744" transform="translate(293.36 6118.358)" fill="#ffd907"/>
        <rect id="Rectángulo_400907" data-name="Rectángulo 400907" width="75.49" height="75.489" rx="37.744" transform="translate(293.36 6118.358)" fill="none"/>
        <g id="Grupo_1098742" data-name="Grupo 1098742" transform="translate(289 6114)">
          <g id="Rectángulo_400898-2" data-name="Rectángulo 400898" transform="translate(0)" fill="none" stroke="#fff" stroke-width="1" opacity="0.859">
            <rect width="84.208" height="84.207" rx="42.104" stroke="none"/>
            <rect x="0.5" y="0.5" width="83.208" height="83.207" rx="41.604" fill="none"/>
          </g>
          <g id="Rectángulo_400907-2" data-name="Rectángulo 400907" transform="translate(0)" fill="none" stroke="#0f1f33" stroke-linecap="round" stroke-width="1">
            <rect width="84.208" height="84.207" rx="42.104" stroke="none"/>
            <rect x="0.5" y="0.5" width="83.208" height="83.207" rx="41.604" fill="none"/>
          </g>
        </g>
      </g>
    </g>
    <g id="diente" transform="translate(1096.05 7469.5)">
      <g id="Grupo_1189803" data-name="Grupo 1189803" transform="translate(13.226 35.329)">
        <path id="Trazado_878785" data-name="Trazado 878785" d="M126.4,366.921h-5.527a2.029,2.029,0,0,1,0-4.057H126.4a2.029,2.029,0,0,1,0,4.057Zm0,0" transform="translate(-118.84 -357.365)" fill="#f5c9c2"/>
        <path id="Trazado_878786" data-name="Trazado 878786" d="M354.929,319.411a2.029,2.029,0,0,1-.694-3.936l5.194-1.891a2.029,2.029,0,1,1,1.388,3.813l-5.194,1.891A2.024,2.024,0,0,1,354.929,319.411Zm0,0" transform="translate(-326.852 -313.462)" fill="#f5c9c2"/>
        <path id="Trazado_878787" data-name="Trazado 878787" d="M350.228,370.516a10,10,0,0,1-6.172-2.511,1.42,1.42,0,0,1,1.75-2.237c3.825,2.991,5.77,1.921,8.233.567,1.767-.972,3.77-2.074,6.354-1.342a1.42,1.42,0,1,1-.773,2.733c-1.393-.393-2.508.161-4.213,1.1A10.565,10.565,0,0,1,350.228,370.516Zm0,0" transform="translate(-318.508 -359.047)" fill="#f5c9c2"/>
        <path id="Trazado_878788" data-name="Trazado 878788" d="M203.211,435.1a2.028,2.028,0,0,1-1.422-3.476l2.9-2.849a2.029,2.029,0,1,1,2.843,2.894l-2.9,2.849A2.022,2.022,0,0,1,203.211,435.1Zm0,0" transform="translate(-192.018 -415.428)" fill="#f5c9c2"/>
        <path id="Trazado_878789" data-name="Trazado 878789" d="M328.713,420.208a2.02,2.02,0,0,1-1.276-.453l-3.146-2.549a2.029,2.029,0,0,1,2.555-3.152l3.146,2.549a2.029,2.029,0,0,1-1.279,3.6Zm0,0" transform="translate(-300.758 -402.457)" fill="#f5c9c2"/>
      </g>
      <path id="Trazado_878790" data-name="Trazado 878790" d="M349.87,373.351a7.724,7.724,0,0,1-4.063-1.9,1.42,1.42,0,0,0-1.75,2.237,11.137,11.137,0,0,0,4.922,2.4A10.073,10.073,0,0,0,349.87,373.351Zm0,0" transform="translate(-305.281 -329.397)" fill="#e6bab3"/>
      <path id="Trazado_878791" data-name="Trazado 878791" d="M195.222,269.313a12.186,12.186,0,1,0-23.995,4.231c1.2,6.786,7.031,8.463,13.657,7.3S196.418,276.1,195.222,269.313Zm0,0" transform="translate(-151.997 -229.696)" fill="#cacdcf"/>
      <path id="Trazado_878792" data-name="Trazado 878792" d="M253.315,368.826c-.406-2.3-2.918-3.782-5.611-3.307s-4.547,2.725-4.142,5.026,2.917,3.782,5.611,3.307S253.721,371.127,253.315,368.826Zm0,0" transform="translate(-216.407 -324.318)" fill="#dfe3e5"/>
      <path id="Trazado_878793" data-name="Trazado 878793" d="M25.559,70.063a9.02,9.02,0,1,1-9.02-9.02A9.02,9.02,0,0,1,25.559,70.063Zm0,0" transform="translate(-6.682 -53.806)" fill="#cacdcf"/>
      <path id="Trazado_878794" data-name="Trazado 878794" d="M79.7,100.51a20.9,20.9,0,0,0-4.469,10,9.02,9.02,0,0,0,8.945-13.967A19.752,19.752,0,0,0,79.7,100.51Zm0,0" transform="translate(-66.854 -85.351)" fill="#bebfc0"/>
      <path id="Trazado_878795" data-name="Trazado 878795" d="M23.574,106.772C20.172,97.586,14.1,95.9,9.106,96.023a9.018,9.018,0,0,0,14.469,10.749Zm0,0" transform="translate(-6.672 -84.887)" fill="#f5c9c2"/>
      <path id="Trazado_878796" data-name="Trazado 878796" d="M326.258,17.043a9.02,9.02,0,1,1-9.02-9.02A9.02,9.02,0,0,1,326.258,17.043Zm0,0" transform="translate(-273.917 -6.687)" fill="#cacdcf"/>
      <path id="Trazado_878797" data-name="Trazado 878797" d="M315.542,72.364A19.829,19.829,0,0,0,308.49,69.2a9.02,9.02,0,0,0,13.183,10.064A20.893,20.893,0,0,0,315.542,72.364Zm0,0" transform="translate(-273.912 -61.058)" fill="#bebfc0"/>
      <path id="Trazado_878798" data-name="Trazado 878798" d="M347.074,38.065c.055-9.8,5.18-13.46,9.92-15.05a9.018,9.018,0,0,1-9.92,15.05Zm0,0" transform="translate(-308.448 -20.01)" fill="#f5c9c2"/>
      <path id="Trazado_878799" data-name="Trazado 878799" d="M350.078,89.725q-.746-.531-1.535-.987a19.167,19.167,0,0,0-1.469,7.736,9.064,9.064,0,0,0,2.172.962l.012,0c.1.03.211.058.318.085l.091.023c.094.023.188.043.283.062l.134.027c.087.017.173.031.26.045l.163.025c.081.012.163.022.244.031l.186.019c.077.007.154.013.231.019l.206.01c.073,0,.145.007.218.008s.15,0,.225,0,.136,0,.205,0,.164-.007.247-.012c.062,0,.125-.006.187-.011.095-.007.19-.018.286-.028.051-.006.1-.01.152-.016.147-.019.293-.04.441-.067h0c.141-.025.281-.054.42-.085l.152-.037c.086-.021.172-.042.257-.066.063-.017.126-.036.188-.054s.138-.042.206-.064.141-.047.21-.071l.165-.06c.079-.029.157-.059.235-.09l.1-.042a9.017,9.017,0,0,0,.939-.459A20.9,20.9,0,0,0,350.078,89.725Zm0,0" transform="translate(-308.448 -78.419)" fill="#e6bab3"/>
      <path id="Trazado_878800" data-name="Trazado 878800" d="M79.7,131.892a20.9,20.9,0,0,0-4.469,10,9.019,9.019,0,0,0,8.531-3.269,19.178,19.178,0,0,0-4.027-6.768Zm0,0" transform="translate(-66.854 -116.734)" fill="#e6bab3"/>
      <path id="Trazado_878801" data-name="Trazado 878801" d="M181.461,259.141a12.236,12.236,0,0,0-9.977,11.052,27.714,27.714,0,0,0,4.28.31,46.226,46.226,0,0,0,7.939-.76,40.644,40.644,0,0,0,10.4-3.119q.31-.149.609-.3A12.244,12.244,0,0,0,181.461,259.141Zm0,0" transform="translate(-152.399 -229.695)" fill="#bebfc0"/>
      <path id="Trazado_878802" data-name="Trazado 878802" d="M102.634,78.328c10.441-1.841,18.29,3.807,21.526,11.525,4.427,10.563-5.267,15.6-16.4,17.561s-21.962.546-21.414-10.894C86.749,88.162,92.193,80.169,102.634,78.328Zm0,0" transform="translate(-76.721 -68.856)" fill="#dfe3e5"/>
      <path id="Trazado_878803" data-name="Trazado 878803" d="M249.828,264.008a2.95,2.95,0,0,1-2.371-.613,2.947,2.947,0,0,1-2.019,1.387c-.059.01-.117.019-.176.026l.386,2.19a1.193,1.193,0,0,0,1.382.967l2.391-.422a1.193,1.193,0,0,0,.968-1.382l-.386-2.19C249.944,263.985,249.886,264,249.828,264.008Zm0,0" transform="translate(-217.966 -233.638)" fill="#fff"/>
      <path id="Trazado_878804" data-name="Trazado 878804" d="M130.658,211.22c-.3-1.726-2.308-2.815-4.475-2.434s-3.677,2.091-3.373,3.817,2.308,2.815,4.475,2.433S130.962,212.945,130.658,211.22Zm0,0" transform="translate(-109.107 -185.039)" fill="#e88c98"/>
      <path id="Trazado_878805" data-name="Trazado 878805" d="M320.713,177.691c.3,1.726,2.308,2.815,4.475,2.434s3.677-2.091,3.373-3.817-2.308-2.815-4.475-2.433S320.409,175.965,320.713,177.691Zm0,0" transform="translate(-284.986 -154.012)" fill="#e88c98"/>
      <path id="Trazado_878806" data-name="Trazado 878806" d="M228.387,193.336a8.25,8.25,0,0,0-4.116.726,2.425,2.425,0,0,0-1.2,1.209,1.27,1.27,0,0,0,.852,1.754l2.132.53a2.312,2.312,0,0,0,1.85-.326L229.727,196a1.271,1.271,0,0,0,.2-1.94A2.426,2.426,0,0,0,228.387,193.336Zm0,0" transform="translate(-198.145 -171.352)" fill="#495059"/>
      <path id="Trazado_878807" data-name="Trazado 878807" d="M92.918,120.934a19.168,19.168,0,0,0-6.57,13.762c-.548,11.44,10.284,12.857,21.414,10.894,1.014-.179,2.016-.384,3-.616C85.162,146.356,87.506,130.436,92.918,120.934Zm0,0" transform="translate(-76.721 -107.031)" fill="#cacdcf"/>
      <path id="Trazado_878808" data-name="Trazado 878808" d="M25.576,26.484l2.132.531a3.152,3.152,0,0,0,2.518-.444l1.822-1.228a2.106,2.106,0,0,0,.332-3.214,3.26,3.26,0,0,0-2.071-.976,9.108,9.108,0,0,0-4.532.8,3.258,3.258,0,0,0-1.612,1.625,2.1,2.1,0,0,0,1.412,2.906Zm.111-2.221a1.591,1.591,0,0,1,.787-.793,7.433,7.433,0,0,1,3.1-.677q.3,0,.6.025a1.591,1.591,0,0,1,1.011.476.435.435,0,0,1-.069.665l-1.822,1.228a1.48,1.48,0,0,1-1.182.208l-2.132-.53a.436.436,0,0,1-.292-.6ZM56.693,41.541a2.24,2.24,0,0,0-1.354-1.069c-2.913-.824-5.17.417-6.983,1.414-1.535.844-2.7,1.483-4.214,1.159a10.247,10.247,0,0,0,.093-1.816l3.242-1.18a2.863,2.863,0,0,0-1.958-5.381l-2.741,1-.026-.05a13.594,13.594,0,0,0,5.464-5.127c1.542-2.824,1.539-6.126-.007-9.814q-.3-.724-.659-1.42A9.886,9.886,0,0,0,51.785,15.4a.834.834,0,1,0-1.433-.856,8.212,8.212,0,0,1-3.62,3.249,20.248,20.248,0,0,0-6.177-6.4A12.273,12.273,0,0,1,48.4,3.939a8.124,8.124,0,0,1,2.982,5,8.231,8.231,0,0,1,.089,2.207.834.834,0,0,0,.751.911q.041,0,.081,0a.835.835,0,0,0,.83-.755,9.865,9.865,0,0,0-4.076-8.957l-.01-.007-.073-.054A9.855,9.855,0,0,0,33.617,8.637a22.816,22.816,0,0,0-15.229,2.685,9.856,9.856,0,0,0-16.6-.718c-.017.025-.033.05-.05.075l-.007.01a9.852,9.852,0,0,0,7.2,15.377q-.095.774-.133,1.558c-.191,3.994.936,7.1,3.35,9.224a13.108,13.108,0,0,0,6.2,2.824c-.016.106-.03.213-.043.319H15.255a2.863,2.863,0,0,0,0,5.727H18.84a9.936,9.936,0,0,0,1.082,2.3.835.835,0,1,0,1.4-.907A9.151,9.151,0,0,1,20.053,43.7a11.849,11.849,0,0,1-.062-3.769,28.414,28.414,0,0,0,3.393.193,45.69,45.69,0,0,0,7.8-.746,40.828,40.828,0,0,0,10.078-3A11.889,11.889,0,0,1,42.4,39.762a7.613,7.613,0,0,1-2,7.131,14.376,14.376,0,0,1-7.66,3.427c-3.8.669-6.966.316-9.166-1.024a.834.834,0,0,0-.916,1.393l-.247.243a2.863,2.863,0,1,0,4.013,4.085l2.749-2.7h.047a23.207,23.207,0,0,0,7.39-1.285l2.768,2.243a2.863,2.863,0,1,0,3.605-4.449l-1.193-.967q.3-.315.562-.647a8.553,8.553,0,0,0,2.594.419,11.306,11.306,0,0,0,5.581-1.795c1.7-.936,2.556-1.317,3.583-1.026a2.255,2.255,0,0,0,2.581-3.27ZM25.255,53.827a1.194,1.194,0,1,1-1.673-1.7l.661-.649a12.2,12.2,0,0,0,2.7.69Zm16.678-3.7a1.194,1.194,0,1,1-1.5,1.855L38.359,50.3a13.162,13.162,0,0,0,2.167-1.318ZM41.9,2.3a8.126,8.126,0,0,1,4.715.565A13.784,13.784,0,0,0,39.1,10.54a19.055,19.055,0,0,0-3.853-1.528A8.183,8.183,0,0,1,41.9,2.3ZM8.436,8.2a8.184,8.184,0,0,1,8.551,4.036,19.046,19.046,0,0,0-3.1,2.754A13.782,13.782,0,0,0,4.2,10.339,8.126,8.126,0,0,1,8.436,8.2ZM1.8,17.679a8.125,8.125,0,0,1,1.093-5.714,12.277,12.277,0,0,1,9.923,4.326A20.24,20.24,0,0,0,9.2,24.414,8.16,8.16,0,0,1,1.8,17.679ZM15.255,44.05a1.194,1.194,0,0,1,0-2.388H18.2a13.675,13.675,0,0,0,.209,2.331c0,.019.008.037.011.057ZM41.332,34.5a.841.841,0,0,0-.147.07c-.014.008-.027.018-.04.027A36.746,36.746,0,0,1,30.9,37.737a35.3,35.3,0,0,1-11.365.462l-.05-.013a.881.881,0,0,0-.133-.016,11.9,11.9,0,0,1-6.1-2.573c-2.015-1.774-2.952-4.429-2.786-7.892a18.794,18.794,0,0,1,4.056-10.887v0l.129-.159a18.756,18.756,0,0,1,11.411-6.363A21.522,21.522,0,0,1,29.8,9.96a17.986,17.986,0,0,1,9.16,2.411l.175.105,0,0a18.8,18.8,0,0,1,7.534,8.843c1.34,3.2,1.367,6.012.081,8.369A12.351,12.351,0,0,1,41.332,34.5Zm4.758,1.738a1.194,1.194,0,0,1,.816,2.244l-2.851,1.038c0-.015,0-.03-.008-.046a13.691,13.691,0,0,0-.605-2.272Zm9.2,6.564a.586.586,0,0,1-.723.4c-1.793-.507-3.206.27-4.842,1.17a9.8,9.8,0,0,1-4.777,1.588,6.638,6.638,0,0,1-1.653-.213,8.407,8.407,0,0,0,.458-1.081c2.133.48,3.73-.4,5.409-1.321,1.705-.938,3.47-1.908,5.724-1.271A.586.586,0,0,1,55.289,42.8ZM34.311,28.268a.835.835,0,0,0-1.146.284,2.115,2.115,0,0,1-2.914.719l-.24-1.361a.835.835,0,0,0-1.644.29l.24,1.361a2.115,2.115,0,0,1-2.984.321.835.835,0,1,0-1.049,1.3,3.794,3.794,0,0,0,2.02.825l.264,1.5a2.027,2.027,0,0,0,2.349,1.645l2.391-.422a2.027,2.027,0,0,0,1.645-2.348l-.264-1.5A3.8,3.8,0,0,0,34.6,29.414.835.835,0,0,0,34.311,28.268ZM31.54,32.936a.359.359,0,0,1-.231.147l-2.391.421a.358.358,0,0,1-.415-.29l-.251-1.421a3.791,3.791,0,0,0,1.432-.929,3.794,3.794,0,0,0,1.664.383l.25,1.421A.355.355,0,0,1,31.54,32.936ZM18.885,20.625a2.5,2.5,0,0,0-2.025,2.893.835.835,0,1,0,1.644-.29.828.828,0,0,1,1.63-.288.835.835,0,0,0,1.644-.29A2.5,2.5,0,0,0,18.885,20.625Zm17.448-3.076a2.5,2.5,0,0,0-2.025,2.893.835.835,0,0,0,1.644-.29.828.828,0,1,1,1.63-.288.835.835,0,1,0,1.644-.29A2.5,2.5,0,0,0,36.332,17.549Zm0,0" transform="translate(0 0)"/>
    </g>
  </g>
</svg>
