<svg xmlns="http://www.w3.org/2000/svg" width="84.208" height="84.207" viewBox="0 0 84.208 84.207">
  <g id="Grupo_1189806" data-name="Grupo 1189806" transform="translate(6909.393 4161.401)">
    <g id="Grupo_1189059" data-name="Grupo 1189059" transform="translate(-7782.119 -4440.178)">
      <g id="Grupo_1188789" data-name="Grupo 1188789" transform="translate(583.726 -5835.222)">
        <rect id="Rectángulo_400898" data-name="Rectángulo 400898" width="75.49" height="75.489" rx="37.744" transform="translate(293.36 6118.358)" fill="#ffd907"/>
        <rect id="Rectángulo_400907" data-name="Rectángulo 400907" width="75.49" height="75.489" rx="37.744" transform="translate(293.36 6118.358)" fill="none"/>
        <g id="Grupo_1098742" data-name="Grupo 1098742" transform="translate(289 6114)">
          <g id="Rectángulo_400898-2" data-name="Rectángulo 400898" transform="translate(0)" fill="none" stroke="#fff" stroke-width="1" opacity="0.859">
            <rect width="84.208" height="84.207" rx="42.104" stroke="none"/>
            <rect x="0.5" y="0.5" width="83.208" height="83.207" rx="41.604" fill="none"/>
          </g>
          <g id="Rectángulo_400907-2" data-name="Rectángulo 400907" transform="translate(0)" fill="none" stroke="#0f1f33" stroke-linecap="round" stroke-width="1">
            <rect width="84.208" height="84.207" rx="42.104" stroke="none"/>
            <rect x="0.5" y="0.5" width="83.208" height="83.207" rx="41.604" fill="none"/>
          </g>
        </g>
      </g>
    </g>
    <g id="raton45" transform="translate(-6865.292 -4119.352)">
      <ellipse id="Elipse_11525" data-name="Elipse 11525" cx="9.983" cy="8.135" rx="9.983" ry="8.135" transform="translate(22.928 -16.872) rotate(114.174)" fill="#c0bcc1"/>
      <path id="Trazado_878809" data-name="Trazado 878809" d="M352.468,17.961c1.6-3.56,4.425-6,7.23-6.6a6.7,6.7,0,0,1,.685.258c4.1,1.84,5.592,7.409,3.334,12.439-1.672,3.726-4.934,6.106-8.179,6.344a5.255,5.255,0,0,1-.6-.219C351.282,28.543,350.175,23.07,352.468,17.961Z" transform="translate(-344.878 -31.824)" fill="#aea8af"/>
      <ellipse id="Elipse_11526" data-name="Elipse 11526" cx="9.983" cy="8.135" rx="9.983" ry="8.135" transform="translate(-18.747 1.344) rotate(-114.174)" fill="#c0bcc1"/>
      <path id="Trazado_878810" data-name="Trazado 878810" d="M19.827,17.961c-1.6-3.56-4.425-6-7.23-6.6a6.706,6.706,0,0,0-.685.258c-4.1,1.84-5.592,7.409-3.334,12.439,1.672,3.726,4.934,6.106,8.179,6.344a5.254,5.254,0,0,0,.6-.219C21.013,28.543,22.12,23.07,19.827,17.961Z" transform="translate(-31.413 -31.824)" fill="#aea8af"/>
      <path id="Trazado_878811" data-name="Trazado 878811" d="M90.916,109.434c0-10.863-8.473-21.725-17.652-21.725S55.612,98.572,55.612,109.434c0,5.894,4.836,11.325,12.5,13.027a7.734,7.734,0,0,0,10.3,0C86.08,120.76,90.916,115.328,90.916,109.434Z" transform="translate(-75.264 -101.443)" fill="#c9c6ca"/>
      <g id="Grupo_1189805" data-name="Grupo 1189805" transform="translate(-19.652 -13.321)">
        <path id="Trazado_878812" data-name="Trazado 878812" d="M61.261,114.1c0-8.762,3.812-17.521,8.907-21.7-7.9,2.067-14.556,11.687-14.556,21.312,0,5.819,4.72,11.181,12.218,12.954A15.165,15.165,0,0,1,61.261,114.1Z" transform="translate(-55.612 -92.396)" fill="#c0bcc1"/>
        <path id="Trazado_878813" data-name="Trazado 878813" d="M207.291,467.092h-4.943l-2.471-.829a2.2,2.2,0,0,0,.635,1.6,6.131,6.131,0,0,0,8.615,0,2.2,2.2,0,0,0,.635-1.6Z" transform="translate(-187.168 -433.326)" fill="#c0bcc1"/>
      </g>
      <path id="Trazado_878814" data-name="Trazado 878814" d="M219.436,384.251c1.95,0,3.53,1.265,3.53,2.824,0,1.5-1.484,2.3-2.555,2.882a2,2,0,0,1-1.952,0c-1.071-.586-2.555-1.378-2.555-2.882C215.906,385.515,217.487,384.251,219.436,384.251Z" transform="translate(-221.436 -371.86)" fill="#f5dcb4"/>
      <path id="Trazado_878815" data-name="Trazado 878815" d="M146.245,286.416h0a2.479,2.479,0,0,1-2.471-2.471v-1.412a2.479,2.479,0,0,1,2.471-2.471h0a2.479,2.479,0,0,1,2.471,2.471v1.412A2.479,2.479,0,0,1,146.245,286.416Z" transform="translate(-155.659 -276.849)" fill="#4b3f4e"/>
      <path id="Trazado_878816" data-name="Trazado 878816" d="M168.17,280.06a2.421,2.421,0,0,0-.353.036v3.495a1.412,1.412,0,1,0,2.824,0v-1.059A2.478,2.478,0,0,0,168.17,280.06Z" transform="translate(-177.584 -276.848)" fill="#5d5360"/>
      <circle id="Elipse_11527" data-name="Elipse 11527" cx="1.059" cy="1.059" r="1.059" transform="translate(-10.473 3.919)" fill="#fff"/>
      <path id="Trazado_878817" data-name="Trazado 878817" d="M314.553,286.416h0a2.479,2.479,0,0,1-2.471-2.471v-1.412a2.479,2.479,0,0,1,2.471-2.471h0a2.479,2.479,0,0,1,2.471,2.471v1.412A2.479,2.479,0,0,1,314.553,286.416Z" transform="translate(-309.139 -276.849)" fill="#4b3f4e"/>
      <path id="Trazado_878818" data-name="Trazado 878818" d="M336.478,280.06a2.421,2.421,0,0,0-.353.036v3.495a1.412,1.412,0,1,0,2.824,0v-1.059A2.478,2.478,0,0,0,336.478,280.06Z" transform="translate(-331.064 -276.848)" fill="#5d5360"/>
      <circle id="Elipse_11528" data-name="Elipse 11528" cx="1.059" cy="1.059" r="1.059" transform="translate(4.355 3.919)" fill="#fff"/>
      <path id="Trazado_878819" data-name="Trazado 878819" d="M218.024,387.052a3.444,3.444,0,0,1,.652-2.012,3.053,3.053,0,0,0-2.77,2.755c0,1.5,1.484,2.3,2.555,2.882a2,2,0,0,0,1.952,0l.141-.078C219.484,389.876,218.024,388.9,218.024,387.052Z" transform="translate(-221.436 -372.579)" fill="#ebc9a0"/>
      <path id="Trazado_878820" data-name="Trazado 878820" d="M141.368,274.039a.661.661,0,0,0-.313.88,1.794,1.794,0,0,1,.174.776v1.412a1.811,1.811,0,0,1-3.622,0V275.7a1.813,1.813,0,0,1,1.811-1.811.661.661,0,1,0,0-1.321,3.136,3.136,0,0,0-3.132,3.132v1.412a3.132,3.132,0,0,0,6.264,0V275.7a3.1,3.1,0,0,0-.3-1.343A.66.66,0,0,0,141.368,274.039Z" transform="translate(-148.831 -270.011)"/>
      <path id="Trazado_878821" data-name="Trazado 878821" d="M310.872,277.108V275.7a3.1,3.1,0,0,0-.3-1.343.661.661,0,1,0-1.193.567,1.793,1.793,0,0,1,.174.776v1.412a1.811,1.811,0,0,1-3.622,0V275.7a1.813,1.813,0,0,1,1.811-1.811.661.661,0,0,0,0-1.321,3.136,3.136,0,0,0-3.132,3.132v1.412a3.132,3.132,0,0,0,6.264,0Z" transform="translate(-302.324 -270.012)"/>
      <path id="Trazado_878822" data-name="Trazado 878822" d="M212.614,376.763c-2.311,0-4.191,1.563-4.191,3.485,0,1.877,1.72,2.818,2.858,3.44l.04.022a2.648,2.648,0,0,0,2.586,0l.04-.022c1.138-.622,2.858-1.563,2.858-3.44C216.806,378.326,214.926,376.763,212.614,376.763Zm.7,5.766-.04.022a1.332,1.332,0,0,1-1.318,0l-.04-.022c-1.188-.649-2.171-1.269-2.171-2.28,0-1.193,1.288-2.164,2.87-2.164s2.87.971,2.87,2.164C215.484,381.26,214.5,381.879,213.314,382.529Z" transform="translate(-214.612 -365.032)"/>
      <path id="Trazado_878823" data-name="Trazado 878823" d="M44.591,35.336a32.681,32.681,0,0,0-4.972-.647,11.831,11.831,0,0,0,1.247-5.227,24.251,24.251,0,0,0-2.128-9.741,11.373,11.373,0,0,0,5.648-6.479,11.458,11.458,0,0,0,.081-7.764A8.107,8.107,0,0,0,39.618.451a8.108,8.108,0,0,0-6.937.818,11.459,11.459,0,0,0-4.855,6.059c-.09.252-.171.509-.245.766a12.889,12.889,0,0,0-10.055,0c-.074-.258-.155-.514-.245-.766a11.459,11.459,0,0,0-4.855-6.059A8.108,8.108,0,0,0,5.489.451,8.107,8.107,0,0,0,.638,5.477a11.459,11.459,0,0,0,.081,7.764,11.373,11.373,0,0,0,5.648,6.479,24.25,24.25,0,0,0-2.128,9.741,11.831,11.831,0,0,0,1.247,5.227,32.693,32.693,0,0,0-4.972.647.661.661,0,0,0,.148,1.3.669.669,0,0,0,.149-.017,33.522,33.522,0,0,1,5.4-.651A13.984,13.984,0,0,0,7.795,38q.23.245.473.481a43.842,43.842,0,0,0-5.049,1.838.661.661,0,1,0,.537,1.207,44.635,44.635,0,0,1,5.685-2.009,19.035,19.035,0,0,0,7.654,3.58,8.394,8.394,0,0,0,10.916,0,19.035,19.035,0,0,0,7.654-3.58,44.635,44.635,0,0,1,5.685,2.009.661.661,0,0,0,.537-1.207,43.875,43.875,0,0,0-5.049-1.838q.242-.236.473-.481a13.97,13.97,0,0,0,1.583-2.028,33.53,33.53,0,0,1,5.4.651.661.661,0,0,0,.3-1.288ZM29.07,7.773a10.136,10.136,0,0,1,4.283-5.367,7.423,7.423,0,0,1,3.323-1.061,8.11,8.11,0,0,0-1.556.916.661.661,0,1,0,.788,1.061,4.769,4.769,0,0,1,4.458-.973c.053.019.177.069.288.116a7.171,7.171,0,0,1,2.573,3.467,10.136,10.136,0,0,1-.084,6.866,10.034,10.034,0,0,1-4.968,5.729,25.354,25.354,0,0,0-2.837-4.415,22.044,22.044,0,0,0-3.463-3.473,11.779,11.779,0,0,1,.59-2.435,11.534,11.534,0,0,1,1.519-2.9.661.661,0,0,0-1.069-.776A12.852,12.852,0,0,0,31.22,7.758a13.24,13.24,0,0,0-.543,2A17.435,17.435,0,0,0,28.8,8.649C28.876,8.355,28.967,8.061,29.07,7.773Zm-13.034,0c.1.288.194.582.273.876a17.45,17.45,0,0,0-1.88,1.109,13.287,13.287,0,0,0-.543-2,11.68,11.68,0,0,0-4.03-5.592,8.009,8.009,0,0,0-1.429-.821,7.422,7.422,0,0,1,3.326,1.061A10.137,10.137,0,0,1,16.036,7.773ZM1.963,12.8a10.136,10.136,0,0,1-.084-6.866A7.166,7.166,0,0,1,4.47,2.452c.087-.036.2-.078.27-.1,2.842-1.015,6.387,1.611,7.9,5.854a11.788,11.788,0,0,1,.59,2.435,22.044,22.044,0,0,0-3.463,3.473,25.365,25.365,0,0,0-2.837,4.415A10.034,10.034,0,0,1,1.963,12.8ZM19.02,42.843a3.778,3.778,0,0,0,3.12-.456.743.743,0,0,1,.827,0,3.779,3.779,0,0,0,3.12.456,7.048,7.048,0,0,1-7.067,0ZM36.348,37.1q-.47.5-.993.957c-3.027-.837-5.456-1.28-5.624-1.311a.661.661,0,0,0-.235,1.3c.036.007,1.982.362,4.552,1.032a18.1,18.1,0,0,1-6.244,2.713,3.878,3.878,0,0,0,.4-.5.661.661,0,1,0-1.1-.733,2.5,2.5,0,0,1-2.079,1.118,2.46,2.46,0,0,1-1.34-.4,2.059,2.059,0,0,0-2.263,0,2.46,2.46,0,0,1-1.34.4A2.5,2.5,0,0,1,18,40.556a.661.661,0,1,0-1.1.734,3.862,3.862,0,0,0,.4.5,18.1,18.1,0,0,1-6.244-2.713c2.57-.67,4.516-1.026,4.552-1.033a.661.661,0,0,0-.235-1.3c-.168.03-2.6.474-5.624,1.311q-.522-.457-.993-.957a12.863,12.863,0,0,1-.989-1.189c3.332-.1,6.231.024,6.28.027a.661.661,0,0,0,.061-1.32c-.221-.01-3.535-.157-7.173,0A10.616,10.616,0,0,1,5.56,29.462,23.707,23.707,0,0,1,10.8,14.937c3.333-4.158,7.617-6.542,11.754-6.542s8.42,2.385,11.754,6.542a23.707,23.707,0,0,1,5.239,14.524,10.616,10.616,0,0,1-1.376,5.149c-3.638-.154-6.953-.007-7.173,0a.661.661,0,0,0,.061,1.32c.05,0,2.949-.131,6.281-.027A12.829,12.829,0,0,1,36.348,37.1Z" transform="translate(-24.551 -21.469)"/>
    </g>
  </g>
</svg>
