<svg xmlns="http://www.w3.org/2000/svg" width="84.208" height="84.207" viewBox="0 0 84.208 84.207">
  <g id="Grupo_1189814" data-name="Grupo 1189814" transform="translate(-1082.927 -3563.138)">
    <g id="Grupo_1189270" data-name="Grupo 1189270" transform="translate(210.201 3284.36)">
      <g id="Grupo_1188789" data-name="Grupo 1188789" transform="translate(583.726 -5835.222)">
        <rect id="Rectángulo_400898" data-name="Rectángulo 400898" width="75.49" height="75.489" rx="37.744" transform="translate(293.36 6118.358)" fill="#ffd907"/>
        <rect id="Rectángulo_400907" data-name="Rectángulo 400907" width="75.49" height="75.489" rx="37.744" transform="translate(293.36 6118.358)" fill="none"/>
        <g id="Grupo_1098742" data-name="Grupo 1098742" transform="translate(289 6114)">
          <g id="Rectángulo_400898-2" data-name="Rectángulo 400898" transform="translate(0)" fill="none" stroke="#fff" stroke-width="1" opacity="0.859">
            <rect width="84.208" height="84.207" rx="42.104" stroke="none"/>
            <rect x="0.5" y="0.5" width="83.208" height="83.207" rx="41.604" fill="none"/>
          </g>
          <g id="Rectángulo_400907-2" data-name="Rectángulo 400907" transform="translate(0)" fill="none" stroke="#0f1f33" stroke-linecap="round" stroke-width="1">
            <rect width="84.208" height="84.207" rx="42.104" stroke="none"/>
            <rect x="0.5" y="0.5" width="83.208" height="83.207" rx="41.604" fill="none"/>
          </g>
        </g>
      </g>
    </g>
    <g id="gato" transform="translate(1106.001 3578.342)">
      <path id="Trazado_878899" data-name="Trazado 878899" d="M305.436,271.92a1.523,1.523,0,0,0,.551-2.959,2.363,2.363,0,0,0-1.988.194,3.867,3.867,0,0,0-1.691,2.512,5.933,5.933,0,0,0,.393,3.159c.1.266.2.521.3.767a9.463,9.463,0,0,1,.467,1.31,3.865,3.865,0,0,1-.381,2.656A3.977,3.977,0,0,1,301.9,280.8a11.635,11.635,0,0,0-1.068.927,1.523,1.523,0,0,0,2.161,2.145,9.01,9.01,0,0,1,.8-.689,6.723,6.723,0,0,0,1.993-2.211,6.856,6.856,0,0,0,.645-4.786,11.931,11.931,0,0,0-.609-1.75c-.1-.233-.186-.453-.266-.67a2.983,2.983,0,0,1-.258-1.528A1.149,1.149,0,0,1,305.436,271.92Zm0,0" transform="translate(-268.679 -240.45)" fill="#efeec5"/>
      <path id="Trazado_878900" data-name="Trazado 878900" d="M37.009,232.82c.222,2.354,1.617,4.424,3.118,6.251a27.15,27.15,0,0,1,4.154,5.719c.976,2.153,1.1,4.894-.407,6.713a6.1,6.1,0,0,1-3.589,1.947,16.517,16.517,0,0,1-4.153.108H16.357a16.517,16.517,0,0,1-4.153-.108A6.1,6.1,0,0,1,8.615,251.5c-1.51-1.82-1.383-4.56-.407-6.713a27.15,27.15,0,0,1,4.154-5.719c1.5-1.827,2.9-3.9,3.118-6.251l3.631-8.2H32.784Zm0,0" transform="translate(-6.688 -200.915)" fill="#ccc39e"/>
      <path id="Trazado_878901" data-name="Trazado 878901" d="M62.1,498.747a21.181,21.181,0,0,0,3.115-.032H62.624Zm0,0" transform="translate(-55.547 -446.071)" fill="#ccae52"/>
      <path id="Trazado_878902" data-name="Trazado 878902" d="M233.274,244.79a27.151,27.151,0,0,0-4.154-5.719c-1.5-1.827-2.9-3.9-3.118-6.251l-4.225-8.2h-3l4.12,8.2a12.166,12.166,0,0,0,3.04,6.251,27.139,27.139,0,0,1,4.05,5.719c.952,2.153,1.075,4.894-.4,6.713a5.9,5.9,0,0,1-3.5,1.947c-.262.051-.525.09-.79.118a15.922,15.922,0,0,0,3.98-.118,6.1,6.1,0,0,0,3.59-1.947C234.377,249.684,234.25,246.944,233.274,244.79Zm0,0" transform="translate(-195.681 -200.915)" fill="#aaa179"/>
      <path id="Trazado_878903" data-name="Trazado 878903" d="M156.945,346.464V332.287a3.791,3.791,0,1,0-7.582,0v14.177Zm0,0" transform="translate(-133.597 -293.821)" fill="#c47f6a"/>
      <path id="Trazado_878904" data-name="Trazado 878904" d="M225.443,211.727l-4.255,2.686v27.079h3.71l4.38-17.026C230.534,219.58,228.924,214.229,225.443,211.727Zm0,0" transform="translate(-197.84 -189.378)" fill="#efeec5"/>
      <path id="Trazado_878905" data-name="Trazado 878905" d="M72.962,211.727l4.255,2.686v27.079h-3.71l-4.38-17.026C67.871,219.58,69.481,214.229,72.962,211.727Zm0,0" transform="translate(-61.452 -189.378)" fill="#efeec5"/>
      <path id="Trazado_878906" data-name="Trazado 878906" d="M77.777,459.2a4.782,4.782,0,0,0-4.732,4.093.609.609,0,0,0,.607.689H81.9a.609.609,0,0,0,.607-.689A4.782,4.782,0,0,0,77.777,459.2Zm0,0" transform="translate(-65.33 -410.731)" fill="#ededed"/>
      <path id="Trazado_878907" data-name="Trazado 878907" d="M116,463.3a4.786,4.786,0,0,0-5.518-4.029c1.462.338,2.611,1.971,2.824,4.029.038.365-.171.689-.435.689H115.4A.609.609,0,0,0,116,463.3Zm0,0" transform="translate(-98.823 -410.731)" fill="#c9c9c9"/>
      <path id="Trazado_878908" data-name="Trazado 878908" d="M212.474,459.2a4.782,4.782,0,0,0-4.732,4.093.609.609,0,0,0,.607.689H216.6a.609.609,0,0,0,.607-.689A4.782,4.782,0,0,0,212.474,459.2Zm0,0" transform="translate(-185.808 -410.731)" fill="#ededed"/>
      <path id="Trazado_878909" data-name="Trazado 878909" d="M250.188,463.3a4.787,4.787,0,0,0-5.578-4.018c1.4.36,2.5,1.982,2.708,4.018.037.365-.167.689-.423.689h2.686A.609.609,0,0,0,250.188,463.3Zm0,0" transform="translate(-218.789 -410.731)" fill="#c9c9c9"/>
      <path id="Trazado_878910" data-name="Trazado 878910" d="M233.605,19.87c2.284-2.837,2.754-7.8,2.83-10.545a1.779,1.779,0,0,0-1.965-1.816c-2.729.291-7.642,1.149-10.29,3.649Zm0,0" transform="translate(-200.516 -6.707)" fill="#ffaf5c"/>
      <path id="Trazado_878911" data-name="Trazado 878911" d="M289.808,30.021c2.284-2.837,2.754-7.8,2.83-10.545a1.769,1.769,0,0,0-.1-.628,8.284,8.284,0,0,0-3.443,2.791,11.689,11.689,0,0,0-2.084,5.8Zm0,0" transform="translate(-256.719 -16.859)" fill="#c47f6a"/>
      <path id="Trazado_878912" data-name="Trazado 878912" d="M33.1,19.87c-2.284-2.837-2.755-7.8-2.83-10.545a1.779,1.779,0,0,1,1.965-1.816c2.729.291,7.641,1.149,10.29,3.649Zm0,0" transform="translate(-27.073 -6.707)" fill="#efeec5"/>
      <path id="Trazado_878913" data-name="Trazado 878913" d="M33.1,30.021c-2.284-2.837-2.755-7.8-2.83-10.545a1.769,1.769,0,0,1,.1-.628,8.28,8.28,0,0,1,3.443,2.791,11.686,11.686,0,0,1,2.084,5.8Zm0,0" transform="translate(-27.073 -16.859)" fill="#c47f6a"/>
      <path id="Trazado_878914" data-name="Trazado 878914" d="M64.475,22.563A13.956,13.956,0,0,0,50.219,36.075c0,5.038,6.383,11.311,14.256,11.311s14.257-6.272,14.257-11.311A13.956,13.956,0,0,0,64.475,22.563Zm0,0" transform="translate(-44.919 -20.182)" fill="#efeec5"/>
      <path id="Trazado_878915" data-name="Trazado 878915" d="M108.055,38.277A14.285,14.285,0,0,1,112.967,48.5c0,5.038-6.383,11.311-14.257,11.311A15.463,15.463,0,0,1,91.145,57.8a15.684,15.684,0,0,0,9.936,3.644c7.874,0,14.257-6.272,14.257-11.311A14.2,14.2,0,0,0,108.055,38.277Zm0,0" transform="translate(-81.524 -34.238)" fill="#ccc39e"/>
      <path id="Trazado_878916" data-name="Trazado 878916" d="M204.221,25.461A8.969,8.969,0,0,0,215.3,38.428,13.991,13.991,0,0,0,204.221,25.461Zm0,0" transform="translate(-181.485 -22.774)" fill="#ffaf5c"/>
      <path id="Trazado_878917" data-name="Trazado 878917" d="M258.623,49.9a14.248,14.248,0,0,0-6.4-11.1c-.291-.186-.581-.357-.877-.516A14.285,14.285,0,0,1,256.255,48.5a7,7,0,0,1-.322,2.04A8.91,8.91,0,0,0,258.623,49.9Zm0,0" transform="translate(-224.813 -34.241)" fill="#d67f3e"/>
      <path id="Trazado_878918" data-name="Trazado 878918" d="M167.554,133.48a2.377,2.377,0,0,1-4.742,0c0-.907,1.062-1.07,2.371-1.07S167.554,132.573,167.554,133.48Zm0,0" transform="translate(-145.627 -118.434)" fill="#d67f3e"/>
      <path id="Trazado_878919" data-name="Trazado 878919" d="M37.289,41.718a6.187,6.187,0,0,0,.519-.826,7.637,7.637,0,0,0,.713-5.339,12.477,12.477,0,0,0-.64-1.853l0-.013c-.1-.232-.181-.44-.256-.644a3.51,3.51,0,0,1-.226-.856,2.315,2.315,0,0,0,.178-4.422,3.138,3.138,0,0,0-2.644.254,4.647,4.647,0,0,0-2.076,3.049,6.693,6.693,0,0,0,.428,3.584c.1.273.206.531.313.79l.011.026a9.015,9.015,0,0,1,.42,1.171,2.733,2.733,0,0,1,.039,1.028l-.009-.012a18.832,18.832,0,0,1-1.8-2.536,14.38,14.38,0,0,0,.407-3.585.792.792,0,1,0-1.583.02,12.784,12.784,0,0,1-.4,3.338l-2.539,9.87-.009.035-.753,2.93a5.524,5.524,0,0,0-3.23.567V31.421a.792.792,0,0,0-1.583,0V35a4.574,4.574,0,0,0-6,0V31.421a.792.792,0,1,0-1.583,0V48.293a5.52,5.52,0,0,0-3.23-.567L10.992,44.8c0-.013-.007-.026-.01-.038L8.443,34.891a12.323,12.323,0,0,1,1.638-9.971,16.136,16.136,0,0,0,18.951,0,10.993,10.993,0,0,1,1.663,3.7.792.792,0,0,0,1.536-.383,12.566,12.566,0,0,0-1.955-4.3,15.591,15.591,0,0,0,1.207-1.169,8.324,8.324,0,0,1,1.482,1.378.792.792,0,0,0,1.212-1.019A9.889,9.889,0,0,0,32.5,21.55,12.342,12.342,0,0,0,33.681,19.6a10.054,10.054,0,0,1,1.878.874.792.792,0,0,0,.813-1.359,11.607,11.607,0,0,0-2.112-.99,7.768,7.768,0,0,0,.346-2.236c0-.079,0-.16,0-.241,0-.006,0-.012,0-.018a12.55,12.55,0,0,0-.381-2.692c.946-1.47,2.332-4.578,2.489-10.3v0a2.516,2.516,0,0,0-.141-.913c0-.009-.007-.019-.01-.028A2.57,2.57,0,0,0,33.871.014,22.7,22.7,0,0,0,25.015,2.5a15.978,15.978,0,0,0-5.458-.908A15.978,15.978,0,0,0,14.1,2.5,15.089,15.089,0,0,0,11.888,1.48a.792.792,0,0,0-.551,1.484q.466.173.894.364A14.175,14.175,0,0,0,8.492,6.235a11.221,11.221,0,0,0-1.117-1.92A9.361,9.361,0,0,0,4.5,1.7a.97.97,0,0,1,.579-.115c1.059.113,2.092.273,3.069.476A.792.792,0,1,0,8.468.514C7.44.3,6.355.132,5.244.013A2.571,2.571,0,0,0,2.555,1.7l-.01.028a2.523,2.523,0,0,0-.141.912c.157,5.73,1.545,8.839,2.492,10.308a12.474,12.474,0,0,0-.387,2.947,7.768,7.768,0,0,0,.346,2.236,11.592,11.592,0,0,0-2.112.99.792.792,0,1,0,.813,1.359A10.044,10.044,0,0,1,5.434,19.6,12.339,12.339,0,0,0,6.619,21.55a9.873,9.873,0,0,0-1.682,1.579.792.792,0,1,0,1.212,1.019A8.325,8.325,0,0,1,7.631,22.77a15.438,15.438,0,0,0,1.206,1.169A13.927,13.927,0,0,0,6.868,35.118a18.835,18.835,0,0,1-1.8,2.536c-.284.346-.581.7-.869,1.035A21.3,21.3,0,0,0,.8,43.549c-1.232,2.719-1.029,5.68.518,7.546a6.882,6.882,0,0,0,4.049,2.218,11.625,11.625,0,0,0,1.847.193l.044.054a1.408,1.408,0,0,0,1.065.487h8.251a1.408,1.408,0,0,0,1.065-.487,1.453,1.453,0,0,0,.1-.125H21.38a1.458,1.458,0,0,0,.1.125,1.407,1.407,0,0,0,1.064.487h8.251a1.407,1.407,0,0,0,1.065-.487c.015-.018.03-.035.045-.054a11.644,11.644,0,0,0,1.845-.192A6.885,6.885,0,0,0,37.8,51.1c1.547-1.865,1.75-4.828.518-7.546A13.15,13.15,0,0,0,37.289,41.718ZM23.135,3.587a13.236,13.236,0,0,1,9.852,11.526.019.019,0,0,0,0,0A8.177,8.177,0,0,1,23.135,3.587ZM35.1,3.26a21.949,21.949,0,0,1-1.555,7.62,15.553,15.553,0,0,0-1.789-3.249,9.835,9.835,0,0,1,1.263-2.387A7.839,7.839,0,0,1,35.1,3.26ZM34.038,1.588a.969.969,0,0,1,.578.115,9.361,9.361,0,0,0-2.877,2.611,11.223,11.223,0,0,0-1.118,1.92,14.161,14.161,0,0,0-3.738-2.907,25.265,25.265,0,0,1,7.155-1.74ZM6.092,5.244A9.839,9.839,0,0,1,7.355,7.631,15.543,15.543,0,0,0,5.566,10.88,19.856,19.856,0,0,1,4.011,3.26,7.834,7.834,0,0,1,6.092,5.244Zm5.094,15.2a.792.792,0,0,0-.954-.586,9.9,9.9,0,0,0-2.269.848A10.917,10.917,0,0,1,7,19.2a9.86,9.86,0,0,1,2.987-.061.792.792,0,1,0,.209-1.569,11.466,11.466,0,0,0-3.817.137,6.262,6.262,0,0,1-.285-1.814,11.154,11.154,0,0,1,.414-2.866c0-.016.009-.031.013-.047A13.119,13.119,0,0,1,19.557,3.172a15.847,15.847,0,0,1,1.96.119A9.763,9.763,0,0,0,32.95,16.783a6.865,6.865,0,0,1-.214.924,11.466,11.466,0,0,0-3.817-.137.792.792,0,0,0,.209,1.569,9.873,9.873,0,0,1,2.987.061,10.963,10.963,0,0,1-.967,1.508,9.9,9.9,0,0,0-2.269-.848.792.792,0,1,0-.367,1.54,8.319,8.319,0,0,1,1.565.545,14.871,14.871,0,0,1-10.522,4.466A14.866,14.866,0,0,1,9.035,21.945,8.28,8.28,0,0,1,10.6,21.4.792.792,0,0,0,11.186,20.447Zm23.219,10.92a3.079,3.079,0,0,1,1.31-1.975,1.558,1.558,0,0,1,1.33-.134.731.731,0,0,1-.264,1.42.789.789,0,0,0-.7.386,1.893,1.893,0,0,0-.235.578,3.672,3.672,0,0,0,.292,1.951c.084.228.175.451.276.7l0,.011a11.307,11.307,0,0,1,.567,1.627,6.057,6.057,0,0,1-.577,4.231q-.053.1-.109.2c-.331-.421-.672-.832-1.014-1.237a4.609,4.609,0,0,0,.279-2.85,10.029,10.029,0,0,0-.492-1.4l-.012-.029c-.1-.248-.2-.492-.294-.739A5.2,5.2,0,0,1,34.405,31.367Zm-14.849,4.1a3,3,0,0,1,3,2.983V49.5a5.547,5.547,0,0,0-1.284,2.35H17.842a5.548,5.548,0,0,0-1.284-2.35V38.441A3,3,0,0,1,19.557,35.467ZM2.536,50.084c-1.413-1.7-1.042-4.234-.294-5.882a19.8,19.8,0,0,1,3.16-4.49c.292-.343.593-.7.885-1.054.423-.516.793-1,1.117-1.453l1.508,5.862A7.373,7.373,0,0,0,6.405,42.3a.792.792,0,0,0-.183,1.573,5.907,5.907,0,0,1,3.287,1.517l.709,2.757a5.609,5.609,0,0,0-3.182,3.763,9.7,9.7,0,0,1-1.373-.157A5.311,5.311,0,0,1,2.536,50.084Zm12.241,2.378v-.349a.792.792,0,0,0-1.584,0v.349H11.372v-.349a.792.792,0,1,0-1.583,0v.349H8.536a3.991,3.991,0,0,1,7.823,0Zm14.547,0v-.349a.792.792,0,1,0-1.583,0v.349H25.919v-.349a.792.792,0,1,0-1.583,0v.349H22.755a3.991,3.991,0,0,1,7.823,0Zm7.252-2.378a5.312,5.312,0,0,1-3.129,1.673,9.652,9.652,0,0,1-1.371.156,5.611,5.611,0,0,0-3.182-3.763l.709-2.757a5.91,5.91,0,0,1,3.287-1.517.792.792,0,1,0-.183-1.573,7.368,7.368,0,0,0-2.506.764l1.508-5.862c.324.457.694.937,1.117,1.453.292.355.593.71.884,1.054l0,0a.676.676,0,0,0,.045.053c.664.783,1.307,1.544,1.873,2.334.013.021.028.041.043.06a12.32,12.32,0,0,1,1.2,2.039C37.619,45.851,37.99,48.38,36.577,50.084Zm0,0" transform="translate(0)"/>
      <path id="Trazado_878920" data-name="Trazado 878920" d="M113.967,93.019a.792.792,0,0,0,.792-.792v-.685a.792.792,0,0,0-1.583,0v.685A.792.792,0,0,0,113.967,93.019Zm0,0" transform="translate(-101.23 -81.171)"/>
      <path id="Trazado_878921" data-name="Trazado 878921" d="M243.167,93.019a.792.792,0,0,0,.792-.792v-.685a.792.792,0,0,0-1.583,0v.685A.791.791,0,0,0,243.167,93.019Zm0,0" transform="translate(-216.791 -81.171)"/>
      <path id="Trazado_878922" data-name="Trazado 878922" d="M135.584,133.426c.046,0,.09,0,.136,0a3.3,3.3,0,0,0,2.243-.99,3.3,3.3,0,0,0,2.243.99c.045,0,.09,0,.136,0a3.112,3.112,0,0,0,3.205-3,.792.792,0,1,0-1.583,0,1.532,1.532,0,0,1-1.622,1.418H140.3l-.031,0a1.579,1.579,0,0,1-1.519-1.122v-1.056a3.316,3.316,0,0,0,2.371-2.892,1.656,1.656,0,0,0-1.219-1.62,7.954,7.954,0,0,0-3.888,0,1.656,1.656,0,0,0-1.218,1.62,3.316,3.316,0,0,0,2.371,2.892v1.056a1.579,1.579,0,0,1-1.519,1.122l-.03,0h-.038a1.532,1.532,0,0,1-1.622-1.418.792.792,0,0,0-1.583,0A3.112,3.112,0,0,0,135.584,133.426Zm.8-6.655a.4.4,0,0,1,0-.042c.027-.031.256-.236,1.577-.236,1.348,0,1.559.213,1.575.231a.165.165,0,0,1,0,.047,1.588,1.588,0,0,1-3.159,0Zm0,0" transform="translate(-118.406 -111.726)"/>
    </g>
  </g>
</svg>
