<svg xmlns="http://www.w3.org/2000/svg" width="84.208" height="84.207" viewBox="0 0 84.208 84.207">
  <g id="Grupo_1189838" data-name="Grupo 1189838" transform="translate(-3581.927 8042.862)">
    <g id="Grupo_1189273" data-name="Grupo 1189273" transform="translate(2709.201 -8321.64)">
      <g id="Grupo_1188789" data-name="Grupo 1188789" transform="translate(583.726 -5835.222)">
        <rect id="Rectángulo_400898" data-name="Rectángulo 400898" width="75.49" height="75.489" rx="37.744" transform="translate(293.36 6118.358)" fill="#ffd907"/>
        <rect id="Rectángulo_400907" data-name="Rectángulo 400907" width="75.49" height="75.489" rx="37.744" transform="translate(293.36 6118.358)" fill="none"/>
        <g id="Grupo_1098742" data-name="Grupo 1098742" transform="translate(289 6114)">
          <g id="Rectángulo_400898-2" data-name="Rectángulo 400898" transform="translate(0)" fill="none" stroke="#fff" stroke-width="1" opacity="0.859">
            <rect width="84.208" height="84.207" rx="42.104" stroke="none"/>
            <rect x="0.5" y="0.5" width="83.208" height="83.207" rx="41.604" fill="none"/>
          </g>
          <g id="Rectángulo_400907-2" data-name="Rectángulo 400907" transform="translate(0)" fill="none" stroke="#0f1f33" stroke-linecap="round" stroke-width="1">
            <rect width="84.208" height="84.207" rx="42.104" stroke="none"/>
            <rect x="0.5" y="0.5" width="83.208" height="83.207" rx="41.604" fill="none"/>
          </g>
        </g>
      </g>
    </g>
    <g id="aves" transform="translate(3598.5 -8027.3)">
      <g id="Grupo_1189832" data-name="Grupo 1189832" transform="translate(0.733 0.733)">
        <g id="Grupo_1189827" data-name="Grupo 1189827" transform="translate(0 27.705)">
          <path id="Trazado_878952" data-name="Trazado 878952" d="M405.05,291.093a.972.972,0,0,1,1.283.467,5.571,5.571,0,0,1,.325,4.253,5.935,5.935,0,0,1-3.825,3.366,5.935,5.935,0,0,1-.767-5.037A5.57,5.57,0,0,1,405.05,291.093Z" transform="translate(-363.249 -291.004)" fill="#8ce09f"/>
          <path id="Trazado_878953" data-name="Trazado 878953" d="M295.654,434.914a.972.972,0,0,0,.683,1.183,5.57,5.57,0,0,0,4.244-.418,5.935,5.935,0,0,0,2.651-4.351,5.935,5.935,0,0,0-5.094.12A5.571,5.571,0,0,0,295.654,434.914Z" transform="translate(-267.466 -417.132)" fill="#55d47b"/>
          <path id="Trazado_878954" data-name="Trazado 878954" d="M288.4,364.391v.977a2.931,2.931,0,0,1-2.932,2.932H281.89a.684.684,0,0,0-.44,1.208l1.882,1.58a2.487,2.487,0,0,1,.313,3.513,2.444,2.444,0,0,1-3.411.265l-7.008-5.88a2.933,2.933,0,0,0-1.884-.686h-2.677c-2.493-1.12-3.666-2.57-3.666-4.149,0-.937,1.075-1.857,2.467-2.691h18.005A2.931,2.931,0,0,1,288.4,364.391Z" transform="translate(-239.836 -354.574)" fill="#e4996d"/>
          <path id="Trazado_878955" data-name="Trazado 878955" d="M34.427,364.105a5.851,5.851,0,0,0,1.9,4.194h-25.9A2.931,2.931,0,0,1,7.5,365.368v-.977a2.931,2.931,0,0,1,2.932-2.932h24.7A5.41,5.41,0,0,0,34.427,364.105Z" transform="translate(-7.5 -354.574)" fill="#df8a57"/>
        </g>
        <g id="Grupo_1189831" data-name="Grupo 1189831" transform="translate(1.938)">
          <g id="Grupo_1189828" data-name="Grupo 1189828" transform="translate(1.544 13.564)">
            <path id="Trazado_878956" data-name="Trazado 878956" d="M64.986,164.393c0-.075,0-.15.009-.224.486,8.052,13.818.562,18.822-7.6-10.552,5.4-15.561,5.647-18.031,2.075,3.607-13.937,18.029-16.374,19.821-5.774C87.24,162.527,64.606,176.134,64.986,164.393Z" transform="translate(-62.847 -146.299)" fill="#fb695b"/>
            <path id="Trazado_878957" data-name="Trazado 878957" d="M84.3,251.4a26.805,26.805,0,0,1-5.736,6.4h0c-.022,1.225-12.506,4.269-13.046.452a25.722,25.722,0,0,1,.752-4.781,2.454,2.454,0,0,1,.578.224q.45.243.9.483a3.678,3.678,0,0,0,4.185-.536q.3-.276.6-.555a2.449,2.449,0,0,1,2.617-.461c.252.106.505.211.758.315C77.246,253.488,80.359,253.563,84.3,251.4Z" transform="translate(-63.333 -241.129)" fill="#f9d171"/>
            <path id="Trazado_878958" data-name="Trazado 878958" d="M55.04,312.468c-.2-.1-.4-.166-.6-.25a1.948,1.948,0,0,0-2.082.366q-.239.223-.481.442c-.91.828-2.8,2.18-3.475,1.149-.924-1.421-2.74-1.7-3.075-1.184a15.836,15.836,0,0,1-2.043,5.853.976.976,0,0,0,.944,1.477c5.766-.667,11.077-5.088,14.148-7.783A5.866,5.866,0,0,1,55.04,312.468Z" transform="translate(-43.137 -295.865)" fill="#78cbed"/>
          </g>
          <path id="Trazado_878959" data-name="Trazado 878959" d="M39.793,305.235c.23-5.393-1.785-7.437-5.075-3.157-.878,3.367-3.906,8.892-7.131,14.613a1.947,1.947,0,0,0,1.132,2.829,6.77,6.77,0,0,0,6.074-1.207C38.672,315.191,39.179,308.175,39.793,305.235Z" transform="translate(-27.333 -271.212)" fill="#fb695b"/>
          <path id="Trazado_878960" data-name="Trazado 878960" d="M123.327,23.476c6.277,8.309-2.987,12.329-6.652,15.817-5.455,2.862-9.789,8.251-13.287.908a11.17,11.17,0,0,1-.484-1.834c.672-.229,4.29-3.952,4.351-5,.193.13-1.506-6.5-1.858-6.553a21.738,21.738,0,0,1,3.01-4.277,2.937,2.937,0,0,0,.8-2C109.22,17.1,110.136,7.5,120.018,7.5c2.886,0,7.028.969,6.808,3.7.819,1.433.345,1.483,1.211,3.578C127.73,16.479,123.327,23.476,123.327,23.476Z" transform="translate(-95.519 -7.501)" fill="#fd7a6e"/>
          <path id="Trazado_878961" data-name="Trazado 878961" d="M255.525,45.846c0-6.109-8.8-6.493-8.8.981,0,5.409,6.369,7.091,6.369,7.091a10.3,10.3,0,0,0,4.369-7.311S255.866,45.915,255.525,45.846Z" transform="translate(-225.282 -37.943)" fill="#fff8e6"/>
          <path id="Trazado_878962" data-name="Trazado 878962" d="M114.978,305.753c-4.428,1.879-8.825,2.354-11.607-3.487a11.258,11.258,0,0,1-.486-1.834s2.463-2.482,3.972-2.482a8.13,8.13,0,0,1,8.122,7.8Z" transform="translate(-95.501 -269.567)" fill="#fb695b"/>
          <g id="Grupo_1189829" data-name="Grupo 1189829" transform="translate(7.195 19.091)">
            <path id="Trazado_878963" data-name="Trazado 878963" d="M120.22,204.8q-.772,4.06-1.864,8.2c-.1-.107-8.573-5.67-8.826-5.64a23.908,23.908,0,0,1,1.845-4.279,2.9,2.9,0,0,0,1.081-.031q.318-.069.638-.142a1.953,1.953,0,0,1,1.987.723c.13.174.263.347.4.518a2.922,2.922,0,0,0,3.2,1c.259-.082.517-.167.775-.252A1.951,1.951,0,0,1,120.22,204.8Z" transform="translate(-108.693 -202.862)" fill="#f9ee80"/>
            <path id="Trazado_878964" data-name="Trazado 878964" d="M110.5,243.574q-.056,4.132-.411,8.4c-.126-.09-.25-.18-.376-.272a1.95,1.95,0,0,0-2.077-.135q-.359.193-.719.383a2.922,2.922,0,0,1-3.328-.425c-.161-.147-.322-.293-.48-.442a1.952,1.952,0,0,0-1.953-.415,15.394,15.394,0,0,1,.648-7.273,2.873,2.873,0,0,0,.748-.2q.3-.123.6-.25a1.953,1.953,0,0,1,2.082.366c.157.149.319.3.479.442a2.923,2.923,0,0,0,3.329.425q.361-.189.719-.383A1.945,1.945,0,0,1,110.5,243.574Z" transform="translate(-100.962 -238.894)" fill="#55d47b"/>
          </g>
          <path id="Trazado_878965" data-name="Trazado 878965" d="M314.415,99.77a10.273,10.273,0,0,1-4.318,6.958,7.314,7.314,0,0,1,1.522-6.5A21.018,21.018,0,0,1,314.415,99.77Z" transform="translate(-282.29 -90.753)" fill="#77899b"/>
          <g id="Grupo_1189830" data-name="Grupo 1189830" transform="translate(7.188 15.109)">
            <path id="Trazado_878966" data-name="Trazado 878966" d="M200.768,335.618a43.333,43.333,0,0,1-5.77,4.209c-1.343-.67-1.734-1.823-1.093-3.436.439-1.436,2.22-3.346,2.926-3.048C197.032,333.427,200.768,335.618,200.768,335.618Z" transform="translate(-184.544 -316.582)" fill="#91d4f2"/>
            <path id="Trazado_878967" data-name="Trazado 878967" d="M111.346,357.7a27.508,27.508,0,0,1-9.3,3.82.978.978,0,0,1-.9-1.612,11.77,11.77,0,0,0,2.877-5.972c.335-.519,1.909-1.062,3.6-.7.915.2,1.738,1.638,2.639,1.024A12.19,12.19,0,0,0,111.346,357.7Z" transform="translate(-100.892 -334.452)" fill="#78cbed"/>
            <path id="Trazado_878968" data-name="Trazado 878968" d="M207.369,176.008c-3.944,2.163-6.663,4.593-7.99,4.049-.253-.1-3.729-.5-4.8-1.469-.261-6.974,3.369-14.292,9.611-15.078,2.458.5,4.385,2.41,4.969,5.866C209.506,171.426,208.758,173.743,207.369,176.008Z" transform="translate(-185.411 -163.373)" fill="#fd7a6e"/>
            <path id="Trazado_878969" data-name="Trazado 878969" d="M153.793,162.248c-5.5.983-9.129,8.3-9.611,15.078-1.1,1.835-2.67,2.052-3.878,1.19a11.618,11.618,0,0,0-1.06-.59c-.256-.139-.258-.609-.534-1.152C140.871,166.5,148.542,161.171,153.793,162.248Z" transform="translate(-135.015 -162.111)" fill="#fb695b"/>
            <path id="Trazado_878970" data-name="Trazado 878970" d="M200.763,291.4a26.8,26.8,0,0,1-5.736,6.4h0a5.838,5.838,0,0,1-3.33-.071c-.2-.095-.4-.166-.6-.25a1.948,1.948,0,0,0-2.082.366q-.239.223-.481.442a3.329,3.329,0,0,1-.363.285,3.623,3.623,0,0,1-.2-4.595,3.655,3.655,0,0,0,.428-.334q.3-.276.6-.555a2.449,2.449,0,0,1,2.617-.461c.252.106.505.211.758.315C193.705,293.488,196.819,293.563,200.763,291.4Z" transform="translate(-178.805 -278.766)" fill="#f9ee80"/>
            <path id="Trazado_878971" data-name="Trazado 878971" d="M139.125,317.306a2.541,2.541,0,0,1-2.967.141c-1.355-1.068-2.933-.988-3.268-.469a27.818,27.818,0,0,1,.569-4.818,2.448,2.448,0,0,1,.809.27q.45.243.9.483a3.674,3.674,0,0,0,3.757-.2A19.09,19.09,0,0,0,139.125,317.306Z" transform="translate(-129.763 -297.497)" fill="#f9d171"/>
          </g>
          <path id="Trazado_878972" data-name="Trazado 878972" d="M331.441,54.537c-1.943-2.655-2.1-1.441-3.988-3.441,1.654-2.1,1.978-5.78,1.978-5.78,3.289,2,3.445,6.883,2.876,9.059A.488.488,0,0,1,331.441,54.537Z" transform="translate(-298.125 -41.621)" fill="#f9d171"/>
        </g>
      </g>
      <g id="Grupo_1189837" data-name="Grupo 1189837" transform="translate(0 0)">
        <g id="Grupo_1189833" data-name="Grupo 1189833" transform="translate(0 27.705)">
          <path id="Trazado_878973" data-name="Trazado 878973" d="M395.419,291.858a.733.733,0,0,1-.686-.474,6.113,6.113,0,0,1-.114-4.257,6.341,6.341,0,0,1,3.364-3.464,1.707,1.707,0,0,1,2.253.821,6.345,6.345,0,0,1,.351,4.816,5.7,5.7,0,0,1-1.67,2.381.733.733,0,0,1-.956-1.111,4.247,4.247,0,0,0,1.249-1.772,4.8,4.8,0,0,0-.3-3.689.24.24,0,0,0-.314-.114,4.8,4.8,0,0,0-2.6,2.634,4.67,4.67,0,0,0,.108,3.238.733.733,0,0,1-.686.992Z" transform="translate(-355.755 -283.507)"/>
          <path id="Trazado_878974" data-name="Trazado 878974" d="M291.281,431.391a7.313,7.313,0,0,1-1.9-.259,1.709,1.709,0,0,1-1.2-2.076,6.341,6.341,0,0,1,2.827-3.915,5.542,5.542,0,0,1,1.6-.617.733.733,0,0,1,.311,1.432,4.078,4.078,0,0,0-1.179.454,4.8,4.8,0,0,0-2.142,3.018.239.239,0,0,0,.167.29,4.8,4.8,0,0,0,3.685-.346,4.451,4.451,0,0,0,1.861-2.2.733.733,0,0,1,1.35.572,5.963,5.963,0,0,1-2.478,2.893A5.752,5.752,0,0,1,291.281,431.391Z" transform="translate(-259.97 -410.728)"/>
          <path id="Trazado_878975" data-name="Trazado 878975" d="M5.179,362.265H3.665A3.669,3.669,0,0,1,0,358.6v-.977a3.669,3.669,0,0,1,3.665-3.665H5.339a.733.733,0,0,1,0,1.466H3.665a2.2,2.2,0,0,0-2.2,2.2v.977a2.2,2.2,0,0,0,2.2,2.2H5.179a.733.733,0,0,1,0,1.466Z" transform="translate(0 -347.074)"/>
          <path id="Trazado_878976" data-name="Trazado 878976" d="M164.369,369.4a3.161,3.161,0,0,1-2.037-.737l-7.008-5.88a2.2,2.2,0,0,0-1.413-.515H135.583a.733.733,0,1,1,0-1.466h18.328a3.67,3.67,0,0,1,2.355.857l7.008,5.88a1.719,1.719,0,0,0,2.388-.185,1.668,1.668,0,0,0,.4-1.238,1.8,1.8,0,0,0-.631-1.232l-1.882-1.58a1.417,1.417,0,0,1,.911-2.5h3.583a2.2,2.2,0,0,0,2.2-2.2v-.977a2.2,2.2,0,0,0-2.2-2.2H157.284a.733.733,0,0,1,0-1.466h10.757a3.669,3.669,0,0,1,3.665,3.665v.977a3.669,3.669,0,0,1-3.665,3.665h-3.583l1.914,1.494a3.274,3.274,0,0,1,1.15,2.241,3.123,3.123,0,0,1-.756,2.315A3.174,3.174,0,0,1,164.369,369.4Z" transform="translate(-121.672 -347.074)"/>
          <path id="Línea_673" data-name="Línea 673" d="M-.141-6.034H-6.767A.733.733,0,0,1-7.5-6.767.733.733,0,0,1-6.767-7.5H-.141a.733.733,0,0,1,.733.733A.733.733,0,0,1-.141-6.034Z" transform="translate(32.332 14.385)"/>
        </g>
        <g id="Grupo_1189836" data-name="Grupo 1189836" transform="translate(1.937 0)">
          <g id="Grupo_1189834" data-name="Grupo 1189834" transform="translate(1.546 14.401)">
            <path id="Trazado_878977" data-name="Trazado 878977" d="M58.753,165.123l-.049,0a.733.733,0,0,1-.683-.779c.626-9.549,5.6-15,10.054-16.914a.733.733,0,1,1,.58,1.346c-4.051,1.744-8.588,6.775-9.17,15.663A.733.733,0,0,1,58.753,165.123Z" transform="translate(-55.833 -147.368)"/>
            <path id="Trazado_878978" data-name="Trazado 878978" d="M69.258,267.7a.737.737,0,0,1-.076,0,4.367,4.367,0,0,1-1.59-.482l-.912-.487a1.717,1.717,0,0,0-.4-.157.733.733,0,0,1,.351-1.423,3.187,3.187,0,0,1,.75.29l.9.48a2.906,2.906,0,0,0,1.057.32.733.733,0,0,1-.074,1.462Z" transform="translate(-62.779 -253.62)"/>
            <path id="Trazado_878979" data-name="Trazado 878979" d="M37.342,320.621a1.71,1.71,0,0,1-1.453-2.6,15.148,15.148,0,0,0,1.945-5.583.733.733,0,0,1,.109-.286,1.431,1.431,0,0,1,1.262-.577,3.818,3.818,0,0,1,3.043,1.758.733.733,0,1,1-1.228.8,2.428,2.428,0,0,0-1.8-1.1,16.462,16.462,0,0,1-2.08,5.746.233.233,0,0,0,0,.257.23.23,0,0,0,.229.11,13.708,13.708,0,0,0,1.778-.329.733.733,0,1,1,.358,1.421,15.18,15.18,0,0,1-1.968.363A1.741,1.741,0,0,1,37.342,320.621Z" transform="translate(-35.638 -295.53)"/>
          </g>
          <path id="Trazado_878980" data-name="Trazado 878980" d="M23.817,335.023a7.485,7.485,0,0,1-2.08-.295,2.632,2.632,0,0,1-1.714-1.543,2.686,2.686,0,0,1,.146-2.35c3.232-5.736,6.2-11.156,7.06-14.438a.733.733,0,0,1,1.418.37c-.9,3.452-3.92,8.965-7.2,14.788a1.228,1.228,0,0,0-.067,1.075,1.175,1.175,0,0,0,.764.69,6.066,6.066,0,0,0,5.411-1.074,10.651,10.651,0,0,0,3.171-5.2.733.733,0,1,1,1.394.452,12.035,12.035,0,0,1-3.646,5.894A7.429,7.429,0,0,1,23.817,335.023Z" transform="translate(-19.82 -284.983)"/>
          <path id="Trazado_878981" data-name="Trazado 878981" d="M94.359,32.335a.733.733,0,0,1-.721-.6c-1.14-6.417,2.779-13.361,5.691-16.463a2.2,2.2,0,0,0,.6-1.5C99.944,10.537,100.806,0,111.475,0c2.3,0,5.264.555,6.7,2.113a3.065,3.065,0,0,1,.837,2.374.733.733,0,1,1-1.461-.118,1.592,1.592,0,0,0-.454-1.262c-1.046-1.134-3.579-1.642-5.624-1.642-9.059,0-10.064,8.606-10.075,12.306a3.66,3.66,0,0,1-1,2.5c-2.606,2.776-6.354,9.358-5.316,15.2a.734.734,0,0,1-.722.861Z" transform="translate(-86.242 0)"/>
          <path id="Trazado_878982" data-name="Trazado 878982" d="M244.481,47.154a.73.73,0,0,1-.326-.077c-3.182-1.584-4.935-4.076-4.935-7.018a6.777,6.777,0,0,1,1.627-4.725A4.943,4.943,0,0,1,244.5,33.74a5,5,0,0,1,4.989,5.339.733.733,0,1,1-1.466,0,3.543,3.543,0,0,0-3.523-3.873,3.492,3.492,0,0,0-2.58,1.128,5.356,5.356,0,0,0-1.234,3.726c0,3.02,2.242,4.77,4.122,5.706a.733.733,0,0,1-.327,1.389Z" transform="translate(-217.78 -30.443)"/>
          <path id="Línea_674" data-name="Línea 674" d="M-6.767-4.861A.733.733,0,0,1-7.5-5.594V-6.767A.733.733,0,0,1-6.767-7.5a.733.733,0,0,1,.733.733v1.173A.733.733,0,0,1-6.767-4.861Z" transform="translate(33.94 13.852)"/>
          <path id="Trazado_878983" data-name="Trazado 878983" d="M126.464,198.784a.73.73,0,0,1-.4-.118,3.633,3.633,0,0,1-.9-.832c-.134-.173-.27-.349-.4-.527a1.218,1.218,0,0,0-1.236-.447l-.646.143a3.623,3.623,0,0,1-1.352.039.733.733,0,0,1,.233-1.447,2.164,2.164,0,0,0,.808-.024l.631-.14a2.689,2.689,0,0,1,2.734.994c.131.175.261.344.391.512a2.174,2.174,0,0,0,.541.5.733.733,0,0,1-.4,1.348Z" transform="translate(-111.03 -176.273)"/>
          <path id="Trazado_878984" data-name="Trazado 878984" d="M107.4,238.21a.73.73,0,0,1-.308-.068,3.618,3.618,0,0,1-.907-.6c-.164-.149-.329-.3-.49-.452a1.218,1.218,0,0,0-1.294-.224l-.612.254a3.606,3.606,0,0,1-.937.245.733.733,0,1,1-.174-1.455,2.142,2.142,0,0,0,.557-.146l.6-.247a2.689,2.689,0,0,1,2.865.5c.16.151.318.3.474.438a2.153,2.153,0,0,0,.539.359.733.733,0,0,1-.309,1.4Z" transform="translate(-93.996 -212.308)"/>
          <path id="Trazado_878985" data-name="Trazado 878985" d="M99.239,317.667a.729.729,0,0,1-.324-.076,3.666,3.666,0,0,1-.844-.576c-.164-.149-.327-.3-.488-.449a1.212,1.212,0,0,0-1.215-.256.733.733,0,1,1-.474-1.387,2.678,2.678,0,0,1,2.688.571c.159.149.316.293.475.437a2.2,2.2,0,0,0,.507.346.733.733,0,0,1-.325,1.39Z" transform="translate(-88.012 -284.017)"/>
          <path id="Trazado_878986" data-name="Trazado 878986" d="M303.336,104.934a.733.733,0,0,1-.718-.586,8.043,8.043,0,0,1,1.679-7.117.733.733,0,1,1,1.121.944,6.326,6.326,0,0,0-1.529,4.663,9.77,9.77,0,0,0,2.531-3.756.733.733,0,0,1,1.373.513,10.757,10.757,0,0,1-4.08,5.236A.733.733,0,0,1,303.336,104.934Z" transform="translate(-274.794 -87.494)"/>
          <g id="Grupo_1189835" data-name="Grupo 1189835" transform="translate(7.189 15.102)">
            <path id="Trazado_878987" data-name="Trazado 878987" d="M126.123,201.244H126.1a.733.733,0,0,1-.709-.756c.234-7.2,3.022-13.485,7.648-17.244a.733.733,0,0,1,.924,1.138c-4.3,3.491-6.887,9.378-7.108,16.154A.733.733,0,0,1,126.123,201.244Z" transform="translate(-122.262 -180.291)"/>
            <path id="Trazado_878988" data-name="Trazado 878988" d="M234.025,175.064a.733.733,0,0,1-.572-1.191.839.839,0,0,1,.115-.116c3.792-3.125,7.968-8.231,7.271-12.349a6.248,6.248,0,0,0-3.011-4.781,7.182,7.182,0,0,0-6.309.276.733.733,0,0,1-.617-1.33c2.767-1.283,5.469-1.369,7.609-.243a7.647,7.647,0,0,1,3.773,5.834c.8,4.724-3.483,10.175-7.763,13.707A.732.732,0,0,1,234.025,175.064Z" transform="translate(-217.081 -154.543)"/>
            <path id="Trazado_878989" data-name="Trazado 878989" d="M135.359,288.566a4.384,4.384,0,0,1-2.046-.5l-.911-.487a1.71,1.71,0,0,0-.567-.189.733.733,0,0,1,.214-1.45,3.17,3.17,0,0,1,1.052.35l.9.479a2.952,2.952,0,0,0,3.35-.43q.3-.273.6-.549a3.188,3.188,0,0,1,3.4-.6l.751.312c.99.406,3.885.613,7.755-1.508a.733.733,0,0,1,.7,1.285c-4.064,2.228-7.4,2.243-9.015,1.579l-.763-.317a1.72,1.72,0,0,0-1.836.323q-.3.281-.609.56A4.423,4.423,0,0,1,135.359,288.566Z" transform="translate(-127.513 -271.258)"/>
            <path id="Trazado_878990" data-name="Trazado 878990" d="M105.651,344.564a2.664,2.664,0,0,1,1.042.211l.2.079c.149.058.3.118.442.187a2.9,2.9,0,0,0,1.23.221,7.174,7.174,0,0,0,1.6-.2.733.733,0,0,1,.67,1.26c-3.643,3.2-9.871,7.261-15.435,8.2a1.79,1.79,0,0,1-.3.025,1.712,1.712,0,0,1-1.554-1.012,1.691,1.691,0,0,1,.281-1.834,11.1,11.1,0,0,0,2.7-5.6.733.733,0,0,1,.109-.286,1.886,1.886,0,0,1,1.644-.7,4.475,4.475,0,0,1,2.693,1,1.273,1.273,0,0,0,.81.261,2.464,2.464,0,0,0,1.573-.653c.16-.145.318-.29.474-.436A2.676,2.676,0,0,1,105.651,344.564Zm2.4,2.143a3.86,3.86,0,0,1-1.36-.347c-.109-.053-.222-.1-.335-.141l-.23-.092a1.215,1.215,0,0,0-1.3.228c-.161.15-.324.3-.488.448a3.928,3.928,0,0,1-2.557,1.033,2.74,2.74,0,0,1-1.717-.575,3.032,3.032,0,0,0-1.786-.682,1.315,1.315,0,0,0-.353.042,12.619,12.619,0,0,1-3,6.051.227.227,0,0,0-.043.261.242.242,0,0,0,.218.149C99.577,352.328,104.515,349.436,108.05,346.707Z" transform="translate(-93.387 -325.995)"/>
          </g>
          <path id="Trazado_878991" data-name="Trazado 878991" d="M325.067,48.7a1.209,1.209,0,0,1-.985-.5,4.8,4.8,0,0,0-1.947-1.846,6.429,6.429,0,0,1-1.983-1.526.733.733,0,0,1-.043-.956c1.5-1.908,1.821-5.356,1.824-5.391a.733.733,0,0,1,1.111-.562c3.772,2.3,3.787,7.642,3.2,9.871A1.221,1.221,0,0,1,325.067,48.7Zm-3.426-4.457a4.582,4.582,0,0,0,1.171.81,5.6,5.6,0,0,1,2.129,1.851c.322-1.9.075-5.126-1.736-6.994A12.8,12.8,0,0,1,321.64,44.246Z" transform="translate(-290.623 -34.121)"/>
        </g>
      </g>
    </g>
  </g>
</svg>
