<svg xmlns="http://www.w3.org/2000/svg" width="87.435" height="87.434" viewBox="0 0 87.435 87.434">
  <g id="Grupo_1189864" data-name="Grupo 1189864" transform="translate(-1229 -3839.299)">
    <g id="Grupo_1189680" data-name="Grupo 1189680" transform="translate(357.888 3562.135)">
      <g id="Grupo_1188789" data-name="Grupo 1188789" transform="translate(582.113 -5836.835)">
        <rect id="Rectángulo_400898" data-name="Rectángulo 400898" width="72.382" height="72.381" rx="36.191" transform="translate(296.527 6121.525)" fill="#ffd907"/>
        <rect id="Rectángulo_400907" data-name="Rectángulo 400907" width="78.382" height="78.381" rx="39.191" transform="translate(293.527 6118.525)" fill="none"/>
        <g id="Grupo_1098742" data-name="Grupo 1098742" transform="translate(289 6114)">
          <g id="Rectángulo_400898-2" data-name="Rectángulo 400898" transform="translate(0)" fill="none" stroke="#fff" stroke-width="2" opacity="0.859">
            <rect width="87.435" height="87.434" rx="43.717" stroke="none"/>
            <rect x="1" y="1" width="85.435" height="85.434" rx="42.717" fill="none"/>
          </g>
          <g id="Rectángulo_400907-2" data-name="Rectángulo 400907" transform="translate(0)" fill="none" stroke="#0f1f33" stroke-linecap="round" stroke-width="2">
            <rect width="87.435" height="87.434" rx="43.717" stroke="none"/>
            <rect x="1" y="1" width="85.435" height="85.434" rx="42.717" fill="none"/>
          </g>
        </g>
      </g>
    </g>
    <g id="c" transform="translate(1235.512 3846.916)">
      <g id="Grupo_1189863" data-name="Grupo 1189863" transform="translate(14.058 12.711)">
        <path id="Trazado_879204" data-name="Trazado 879204" d="M202.8,217.952h21.654l-.675-1.519a38.307,38.307,0,0,0-6.374-9.892l-2.231-2.51,2.076-2.907a9.612,9.612,0,0,0,1.3-8.626l-1.053-3.16-3.555,4.571-.049,0a18.145,18.145,0,0,1-8.769-3.794h0a1.912,1.912,0,0,0-2.767-1.71l-3.42,1.71,4.64,8.507-7.734-4.64-.385,1.924a3.093,3.093,0,0,0,1.214,3.108l3.968,2.886a9.993,9.993,0,0,1,3.817,5.658h0a9.993,9.993,0,0,1-.123,5.3Z" transform="translate(-177.867 -171.233)" fill="#f4c762"/>
        <circle id="Elipse_11560" data-name="Elipse 11560" cx="2.32" cy="2.32" r="2.32" transform="translate(21.842 35.119)" fill="#75bbad"/>
        <path id="Trazado_879205" data-name="Trazado 879205" d="M267.093,190.112h0a1.912,1.912,0,0,0-2.767-1.71l-.327.163.13.649A1.756,1.756,0,0,0,267.093,190.112Z" transform="translate(-239.838 -171.233)" fill="#cc993e"/>
        <path id="Trazado_879206" data-name="Trazado 879206" d="M52.614,16,24,36.107,26.32,39.2,54.772,18.878Z" transform="translate(-23.039 -15.682)" fill="#41a08e"/>
        <path id="Trazado_879207" data-name="Trazado 879207" d="M298.142,354.51,295.911,352l-11.139,2.228v0a9.99,9.99,0,0,1,.418,1.29h0a9.989,9.989,0,0,1,.277,1.8l0,.008Z" transform="translate(-258.602 -319.201)" fill="#379b88"/>
        <path id="Trazado_879208" data-name="Trazado 879208" d="M0,0H.773V3.867H0Z" transform="matrix(0.6, -0.8, 0.8, 0.6, 28.57, 23.828)" fill="#cc993e"/>
        <path id="Trazado_879209" data-name="Trazado 879209" d="M244.442,380.989l1.617,1.617.547-.547-1.617-1.617A2.332,2.332,0,0,0,244.442,380.989Z" transform="translate(-222.171 -344.894)" fill="#379b88"/>
        <path id="Trazado_879210" data-name="Trazado 879210" d="M31.734,328a7.734,7.734,0,1,0,7.734,7.734A7.734,7.734,0,0,0,31.734,328Zm-5.156,7.734a5.157,5.157,0,0,1,7.84-4.4l-7.087,7.087A5.132,5.132,0,0,1,26.578,335.734Zm5.156,5.156a5.132,5.132,0,0,1-2.684-.753l7.087-7.087a5.157,5.157,0,0,1-4.4,7.84Z" transform="translate(-23.039 -297.521)" fill="#f2c34e"/>
        <path id="Trazado_879211" data-name="Trazado 879211" d="M40.357,28.1l-6.545-4.578a3.093,3.093,0,0,0-1.774-.559H28.374L18.32,16,16,23.734,22.96,27.6l.961,2.318a1.547,1.547,0,0,0,.543.676l5.823,4.067a1.394,1.394,0,0,0,1.959-.369h0a1.394,1.394,0,0,0-.355-1.911L33.2,33.3a1.394,1.394,0,0,0,1.6-2.283l.848.594a1.393,1.393,0,0,0,1.614-2.272l1.5,1.05a1.4,1.4,0,1,0,1.6-2.286Z" transform="translate(-15.812 -15.682)" fill="#dfdfdf"/>
        <path id="Trazado_879212" data-name="Trazado 879212" d="M0,0H6.917V.773H0Z" transform="translate(34.8 5.393) rotate(-26.565)" fill="#dfdfdf"/>
        <path id="Trazado_879213" data-name="Trazado 879213" d="M0,0H.773V7.337H0Z" transform="matrix(0.316, -0.949, 0.949, 0.316, 35.633, 9.177)" fill="#dfdfdf"/>
        <path id="Trazado_879214" data-name="Trazado 879214" d="M294.4,114.608a2.192,2.192,0,0,1-1.126-3.561,4.151,4.151,0,0,1-4.236-5.107,3.429,3.429,0,0,1-4.979-2.47l.763-.127a2.655,2.655,0,0,0,4.092,1.773l.726-.484a.387.387,0,0,1,.56.495l-.144.288a3.354,3.354,0,0,0,4.29,4.6.387.387,0,0,1,.422.63l-.839.839a1.419,1.419,0,0,0,.659,2.38Z" transform="translate(-257.954 -94.581)" fill="#fcd17a"/>
        <path id="Trazado_879215" data-name="Trazado 879215" d="M126.831,227.65a5.306,5.306,0,0,0-5.793-4.539l-2.292.229a.387.387,0,0,1-.312-.658,2.575,2.575,0,0,0-.806-4.188l-1.393-.6a.387.387,0,0,1,0-.711l1.269-.544a1.919,1.919,0,0,0,.231-3.409l.4-.663a2.692,2.692,0,0,1-.325,4.783l-.439.188.563.241a3.349,3.349,0,0,1,1.611,4.7l1.418-.142a6.078,6.078,0,0,1,6.636,5.2Z" transform="translate(-106.145 -193.25)" fill="#fcd17a"/>
        <path id="Trazado_879216" data-name="Trazado 879216" d="M0,0H.773V4.165H0Z" transform="translate(19.152 0.469) rotate(-21.791)" fill="#dfdfdf"/>
        <path id="Trazado_879217" data-name="Trazado 879217" d="M0,0H.773V6.04H0Z" transform="matrix(0.64, -0.768, 0.768, 0.64, 12.311, 1.392)" fill="#dfdfdf"/>
        <path id="Trazado_879218" data-name="Trazado 879218" d="M0,0H.773V2.916H0Z" transform="translate(18.562 12.117) rotate(-55.022)" fill="#cecece"/>
        <path id="Trazado_879219" data-name="Trazado 879219" d="M0,0H.773V2.38H0Z" transform="translate(13.755 15.55) rotate(-54.975)" fill="#cecece"/>
        <path id="Trazado_879220" data-name="Trazado 879220" d="M0,0H.773V2.945H0Z" transform="translate(16.337 13.956) rotate(-55.022)" fill="#cecece"/>
        <path id="Trazado_879221" data-name="Trazado 879221" d="M0,0H2.668V.773H0Z" transform="matrix(0.614, -0.789, 0.789, 0.614, 33.904, 24.842)" fill="#eab84b"/>
        <g id="Grupo_1189862" data-name="Grupo 1189862" transform="translate(0 0)">
          <path id="Trazado_879222" data-name="Trazado 879222" d="M220.526,212.667a38.641,38.641,0,0,0-6.439-9.992l-2.026-2.279,1.9-2.656a10,10,0,0,0,1.349-8.973l-1.053-3.16a.387.387,0,0,0-.672-.115l-3.418,4.394a17.772,17.772,0,0,1-8.272-3.577,2.3,2.3,0,0,0-3.319-1.863l-3.42,1.71a.384.384,0,0,0-.1.074h0l-1.547,1.547.547.547,1.181-1.181,3.712,6.8-6.09-3.654,1.2-1.2-.547-.547-1.547,1.547,0,0a.384.384,0,0,0-.108.2l-.385,1.924a3.49,3.49,0,0,0,1.366,3.5L196.8,198.6a9.624,9.624,0,0,1,3.332,4.371,2.706,2.706,0,1,0,.622,3.455,9.606,9.606,0,0,1-.4,2.7l-1.531,5.1.741.222,1.531-5.1a10.381,10.381,0,0,0,.432-3.294l12.131-2.7a37.868,37.868,0,0,1,6.161,9.621l.675,1.519.707-.314ZM198.92,185.138a1.525,1.525,0,0,1,2.2,1.2,1.369,1.369,0,0,1-2.188-.808l-.072-.36Zm-.5,21.858a1.932,1.932,0,0,1-1.612-3l1.339,1.339.547-.547-1.339-1.338A1.933,1.933,0,1,1,198.421,207Zm2.241-4.787a10.4,10.4,0,0,0-3.4-4.235l-3.968-2.886a2.715,2.715,0,0,1-1.062-2.72l.277-1.386,7.263,4.358a.387.387,0,0,0,.538-.517l-4.448-8.155,2.282-1.141.031.153a2.112,2.112,0,0,0,1.48,1.63,2.187,2.187,0,0,0,.635.1,2.091,2.091,0,0,0,1.238-.408,18.545,18.545,0,0,0,8.1,3.584l-1.454,1.87.61.475,4.97-6.39.825,2.475a9.225,9.225,0,0,1-1.245,8.279l-1.988,2.783Zm.813,3.067a10.371,10.371,0,0,0-.251-1.426c-.077-.309-.169-.612-.274-.911l10.477-2.1,1.647,1.852Z" transform="translate(-174.259 -167.624)" fill="#365650"/>
          <path id="Trazado_879223" data-name="Trazado 879223" d="M0,0H.773V3.867H0Z" transform="matrix(0.6, -0.8, 0.8, 0.6, 28.57, 23.828)" fill="#365650"/>
          <path id="Trazado_879224" data-name="Trazado 879224" d="M28.12,324a8.12,8.12,0,1,0,8.12,8.12A8.129,8.129,0,0,0,28.12,324Zm0,15.467a7.347,7.347,0,1,1,7.347-7.347A7.355,7.355,0,0,1,28.12,339.467Z" transform="translate(-19.426 -293.908)" fill="#365650"/>
          <path id="Trazado_879225" data-name="Trazado 879225" d="M55.277,351.76a.386.386,0,0,0-.182-.284,5.544,5.544,0,0,0-7.618,7.618.387.387,0,0,0,.284.182l.046,0a.387.387,0,0,0,.273-.113l7.087-7.087A.387.387,0,0,0,55.277,351.76ZM47.9,358.253a4.771,4.771,0,0,1,6.354-6.354Z" transform="translate(-43.515 -317.997)" fill="#365650"/>
          <path id="Trazado_879226" data-name="Trazado 879226" d="M79.753,376.237a.387.387,0,0,0-.319.111l-7.087,7.087a.387.387,0,0,0,.072.6,5.544,5.544,0,0,0,7.618-7.618A.387.387,0,0,0,79.753,376.237ZM75.3,384.074a4.767,4.767,0,0,1-2.044-.459l6.354-6.354a4.771,4.771,0,0,1-4.31,6.813Z" transform="translate(-66.61 -341.093)" fill="#365650"/>
          <path id="Trazado_879227" data-name="Trazado 879227" d="M21.809,27.1a1.93,1.93,0,0,0,.349.552L14.8,32.82a.387.387,0,0,0-.087.548l2.32,3.093a.387.387,0,0,0,.534.083l8.525-6.09,2.222,1.552a1.765,1.765,0,0,0,1.017.322,1.8,1.8,0,0,0,.334-.031,1.771,1.771,0,0,0,1.447-1.735l.112.079a1.765,1.765,0,0,0,1.017.322,1.8,1.8,0,0,0,.334-.031,1.768,1.768,0,0,0,1.446-1.79,1.755,1.755,0,0,0,.668.132,1.808,1.808,0,0,0,.334-.031,1.771,1.771,0,0,0,1.447-1.734l.316.221a1.767,1.767,0,0,0,1.017.319,1.78,1.78,0,0,0,1.027-3.239L36.383,23.1l13.662-9.758-.45-.629L35.711,22.632,33.17,20.854l10.685-7.509-.445-.633L32.5,20.383l-.216-.151a3.463,3.463,0,0,0-2-.629H26.74l-9.954-6.891-.44.636L26.4,20.307a.386.386,0,0,0,.22.069h3.665a2.694,2.694,0,0,1,1.552.489l6.545,4.578a1.008,1.008,0,0,1,.238,1.419,1.013,1.013,0,0,1-1.394.234L33.073,24.19l-.443.634h0l2.652,1.856a1.013,1.013,0,0,1,.245,1.372,1.007,1.007,0,0,1-1.416.266L30.85,26.036l-.444.634,2.413,1.689a1.013,1.013,0,0,1,.26,1.383,1.007,1.007,0,0,1-1.415.266l-3.412-2.389-.444.634,2.106,1.474a1.013,1.013,0,0,1,.255,1.38,1.007,1.007,0,0,1-1.416.266l-5.823-4.067a1.157,1.157,0,0,1-.407-.507l-.961-2.318a.387.387,0,0,0-.169-.19l-6.96-3.867-.376.676L20.9,24.9l.909,2.193Zm.979,1.054,2.628,1.836L17.421,35.7l-1.854-2.472Z" transform="translate(-14.058 -12.711)" fill="#365650"/>
          <path id="Trazado_879228" data-name="Trazado 879228" d="M0,0H6.917V.773H0Z" transform="translate(34.799 5.391) rotate(-26.565)" fill="#365650"/>
          <path id="Trazado_879229" data-name="Trazado 879229" d="M0,0H.773V7.337H0Z" transform="matrix(0.316, -0.949, 0.949, 0.316, 35.633, 9.177)" fill="#365650"/>
          <path id="Trazado_879230" data-name="Trazado 879230" d="M294.763,110.639a.387.387,0,0,0-.422-.63,3.354,3.354,0,0,1-4.29-4.6l.144-.288a.387.387,0,0,0-.56-.495l-.726.484a2.655,2.655,0,0,1-4.092-1.773l-.763.127a3.429,3.429,0,0,0,4.979,2.47,4.151,4.151,0,0,0,4.236,5.107,2.192,2.192,0,0,0,1.126,3.561l.188-.75a1.419,1.419,0,0,1-.659-2.38Z" transform="translate(-257.954 -94.581)" fill="#365650"/>
          <path id="Trazado_879231" data-name="Trazado 879231" d="M120.96,222.341l-1.418.142a3.349,3.349,0,0,0-1.611-4.7l-.563-.241.439-.188a2.692,2.692,0,0,0,.325-4.783l-.4.663a1.919,1.919,0,0,1-.231,3.409l-1.269.544a.387.387,0,0,0,0,.711l1.393.6a2.575,2.575,0,0,1,.806,4.188.387.387,0,0,0,.312.658l2.292-.229a5.306,5.306,0,0,1,5.793,4.539l.766-.109A6.078,6.078,0,0,0,120.96,222.341Z" transform="translate(-106.145 -193.25)" fill="#365650"/>
          <path id="Trazado_879232" data-name="Trazado 879232" d="M0,0H.773V4.165H0Z" transform="translate(19.152 0.469) rotate(-21.791)" fill="#365650"/>
          <path id="Trazado_879233" data-name="Trazado 879233" d="M0,0H.773V6.04H0Z" transform="matrix(0.64, -0.768, 0.768, 0.64, 12.311, 1.392)" fill="#365650"/>
        </g>
      </g>
    </g>
  </g>
</svg>
