<svg xmlns="http://www.w3.org/2000/svg" width="84.209" height="84.207" viewBox="0 0 84.209 84.207">
  <g id="Grupo_1189895" data-name="Grupo 1189895" transform="translate(-16517.928 7039.809)">
    <g id="Grupo_1189689" data-name="Grupo 1189689" transform="translate(15645.202 -7318.586)">
      <g id="Grupo_1188789" data-name="Grupo 1188789" transform="translate(583.726 -5835.222)">
        <rect id="Rectángulo_400898" data-name="Rectángulo 400898" width="75.49" height="75.489" rx="37.744" transform="translate(293.36 6118.358)" fill="#ffd907"/>
        <rect id="Rectángulo_400907" data-name="Rectángulo 400907" width="75.49" height="75.489" rx="37.744" transform="translate(293.36 6118.358)" fill="none"/>
        <g id="Grupo_1098742" data-name="Grupo 1098742" transform="translate(289 6114)">
          <g id="Rectángulo_400898-2" data-name="Rectángulo 400898" transform="translate(0)" fill="none" stroke="#fff" stroke-width="1" opacity="0.859">
            <rect width="84.208" height="84.207" rx="42.104" stroke="none"/>
            <rect x="0.5" y="0.5" width="83.208" height="83.207" rx="41.604" fill="none"/>
          </g>
          <g id="Rectángulo_400907-2" data-name="Rectángulo 400907" transform="translate(0)" fill="none" stroke="#0f1f33" stroke-linecap="round" stroke-width="1">
            <rect width="84.208" height="84.207" rx="42.104" stroke="none"/>
            <rect x="0.5" y="0.5" width="83.208" height="83.207" rx="41.604" fill="none"/>
          </g>
        </g>
      </g>
    </g>
    <g id="_x31_08_Aquarium" transform="translate(16512.318 -7073.002)">
      <g id="Grupo_1189894" data-name="Grupo 1189894" transform="translate(21.776 53.512)">
        <path id="Trazado_879322" data-name="Trazado 879322" d="M76.794,402.949v4.127a.776.776,0,0,1-.776.776H27.144a.776.776,0,0,1-.776-.776v-4.127a.776.776,0,0,1,.776-.776H76.018A.776.776,0,0,1,76.794,402.949Z" transform="translate(-25.864 -363.891)" fill="#cdaddc"/>
        <path id="Trazado_879323" data-name="Trazado 879323" d="M76.8,402.96v4.125a.777.777,0,0,1-.777.776h-.646v-3.3a.777.777,0,0,0-.776-.777H26.369v-.827a.777.777,0,0,1,.777-.777H76.019A.777.777,0,0,1,76.8,402.96Z" transform="translate(-25.865 -363.899)" fill="#c993dd"/>
        <path id="Trazado_879324" data-name="Trazado 879324" d="M46.829,58.506V95.882H44.083V58.506a.4.4,0,0,1,.4-.4h1.943a.4.4,0,0,1,.4.4Z" transform="translate(-41.634 -57.6)" fill="#fcdbce"/>
        <path id="Trazado_879325" data-name="Trazado 879325" d="M445.654,58.506V95.882h-2.746V58.506a.4.4,0,0,1,.4-.4h1.943a.4.4,0,0,1,.4.4Z" transform="translate(-396.668 -57.6)" fill="#fcdbce"/>
        <path id="Trazado_879326" data-name="Trazado 879326" d="M445.663,58.5V95.883h-1.135V60.892a1.609,1.609,0,0,0-1.609-1.609V58.5a.4.4,0,0,1,.4-.4h1.94A.4.4,0,0,1,445.663,58.5Z" transform="translate(-396.679 -57.599)" fill="#f6c2bb"/>
        <path id="Trazado_879327" data-name="Trazado 879327" d="M46.839,58.5V95.883H45.7V60.892A1.609,1.609,0,0,0,44.1,59.283V58.5a.4.4,0,0,1,.4-.4h1.94A.4.4,0,0,1,46.839,58.5Z" transform="translate(-41.645 -57.599)" fill="#f6c2bb"/>
        <path id="Trazado_879328" data-name="Trazado 879328" d="M69.093,93.629h41.044v33.878H69.093Z" transform="translate(-63.898 -89.224)" fill="#fefeff"/>
        <path id="Trazado_879329" data-name="Trazado 879329" d="M110.127,93.65v33.876H108.1V96.613a1.389,1.389,0,0,0-1.389-1.389H69.08V93.65Z" transform="translate(-63.886 -89.243)" fill="#d2dcf3"/>
        <path id="Trazado_879330" data-name="Trazado 879330" d="M69.093,131.048h41.044v29.769H69.093Z" transform="translate(-63.898 -122.535)" fill="#61e4e7"/>
        <path id="Trazado_879331" data-name="Trazado 879331" d="M110.127,131.034v29.772H107.8V135.03a2.3,2.3,0,0,0-2.3-2.3H69.08v-1.694h41.047Z" transform="translate(-63.886 -122.522)" fill="#5fcaf3"/>
        <path id="Trazado_879332" data-name="Trazado 879332" d="M120.672,211.331s-2.792,4.118-6.241,4.118c-2.554,0-4.747-2.258-5.714-3.43a1.077,1.077,0,0,1,0-1.376c.966-1.172,3.16-3.43,5.714-3.43,3.449,0,6.241,4.118,6.241,4.118Z" transform="translate(-98.951 -190.337)" fill="#f6afba"/>
        <path id="Trazado_879333" data-name="Trazado 879333" d="M120.678,211.341s-.166.247-.469.62c-.938-1.15-3.172-3.5-5.774-3.5-2.551,0-4.745,2.259-5.713,3.434a.3.3,0,0,0-.045.066,1.061,1.061,0,0,1,.045-1.306c.968-1.17,3.162-3.429,5.713-3.429C117.885,207.226,120.678,211.341,120.678,211.341Z" transform="translate(-98.955 -190.348)" fill="#e891a1"/>
        <path id="Trazado_879334" data-name="Trazado 879334" d="M113.077,209.094a9.93,9.93,0,0,0-4.358,3.223,1.077,1.077,0,0,0,0,1.376,9.929,9.929,0,0,0,4.358,3.223A13.14,13.14,0,0,0,113.077,209.094Z" transform="translate(-98.951 -192.011)" fill="#fefeff"/>
        <path id="Trazado_879335" data-name="Trazado 879335" d="M113.411,210.376a10.066,10.066,0,0,0-4.271,3.2,1.087,1.087,0,0,0-.2.4c-.081-.1-.156-.182-.227-.267a1.074,1.074,0,0,1,0-1.377,9.915,9.915,0,0,1,4.357-3.222A9.938,9.938,0,0,1,113.411,210.376Z" transform="translate(-98.944 -192.026)" fill="#d2dcf3"/>
        <path id="Trazado_879336" data-name="Trazado 879336" d="M221,212.337,220.633,214a9.083,9.083,0,0,0,.021,3.956l.341,1.49-3.018-3.555Z" transform="translate(-196.434 -194.898)" fill="#fefeff"/>
        <path id="Trazado_879337" data-name="Trazado 879337" d="M259.609,308.089s2.231,3.29,4.987,3.29c2.041,0,3.794-1.8,4.566-2.741a.861.861,0,0,0,0-1.1c-.772-.936-2.525-2.741-4.566-2.741C261.84,304.8,259.609,308.089,259.609,308.089Z" transform="translate(-233.495 -277.207)" fill="#f6afba"/>
        <path id="Trazado_879338" data-name="Trazado 879338" d="M269.179,308.657c-.131.161-.293.348-.479.545a.847.847,0,0,0-.192-.656c-.772-.938-2.526-2.743-4.564-2.743-1.805,0-3.384,1.407-4.261,2.385l-.055-.081s2.229-3.288,4.987-3.288c2.037,0,3.792,1.8,4.564,2.738A.866.866,0,0,1,269.179,308.657Z" transform="translate(-233.512 -277.227)" fill="#e891a1"/>
        <path id="Trazado_879339" data-name="Trazado 879339" d="M311.04,306.3a7.935,7.935,0,0,1,3.483,2.576.861.861,0,0,1,0,1.1,7.935,7.935,0,0,1-3.483,2.576A10.5,10.5,0,0,1,311.04,306.3Z" transform="translate(-278.856 -278.545)" fill="#fefeff"/>
        <path id="Trazado_879340" data-name="Trazado 879340" d="M315.439,309.966c-.1.116-.212.252-.338.393a.828.828,0,0,0-.2-.469,8.175,8.175,0,0,0-3.242-2.5,8.463,8.463,0,0,1,.292-1.1,7.959,7.959,0,0,1,3.484,2.577A.866.866,0,0,1,315.439,309.966Z" transform="translate(-279.833 -278.535)" fill="#d2dcf3"/>
        <path id="Trazado_879341" data-name="Trazado 879341" d="M238.948,308.893l.289,1.33a7.258,7.258,0,0,1-.017,3.161l-.272,1.191,2.412-2.841Z" transform="translate(-215.103 -280.853)" fill="#fefeff"/>
        <path id="Trazado_879342" data-name="Trazado 879342" d="M98.011,191.1a.936.936,0,1,1-.936-.936A.938.938,0,0,1,98.011,191.1Z" transform="translate(-87.974 -175.157)" fill="#fefeff"/>
        <path id="Trazado_879343" data-name="Trazado 879343" d="M129.557,164.027a.936.936,0,1,1-.936-.936A.938.938,0,0,1,129.557,164.027Z" transform="translate(-116.056 -151.059)" fill="#fefeff"/>
        <path id="Trazado_879344" data-name="Trazado 879344" d="M96.093,146.976a.936.936,0,1,1-.936-.936A.938.938,0,0,1,96.093,146.976Z" transform="translate(-86.267 -135.881)" fill="#fefeff"/>
        <g id="Grupo_1189893" data-name="Grupo 1189893" transform="translate(0 0)">
          <path id="Trazado_879345" data-name="Trazado 879345" d="M71.93,91.29h-.665V54.418a.907.907,0,0,0-.906-.906H68.417a.907.907,0,0,0-.906.906v3H27.476v-3a.907.907,0,0,0-.906-.906H24.627a.907.907,0,0,0-.906.906V91.29h-.665a1.282,1.282,0,0,0-1.28,1.281V96.7a1.282,1.282,0,0,0,1.28,1.28H71.93a1.282,1.282,0,0,0,1.28-1.28V92.571a1.282,1.282,0,0,0-1.28-1.281ZM68.52,54.521h1.737V91.29H68.52ZM65.547,91.29a3.883,3.883,0,0,0-.365-3.643c-1.039-1.66-1.029-3.6.032-5.919a7.9,7.9,0,0,0-.02-6.907,3.044,3.044,0,0,1-.006-3.317.5.5,0,1,0-.867-.516,4.043,4.043,0,0,0-.023,4.295,6.833,6.833,0,0,1,0,6.028c-1.212,2.654-1.2,4.9.032,6.873a2.962,2.962,0,0,1,.118,3.106h-2.98a4.494,4.494,0,0,0-.377-4.323c-1.239-1.979-1.229-4.281.032-7.04a9.2,9.2,0,0,0-.02-8.039A3.659,3.659,0,0,1,61.1,67.9a.5.5,0,0,0-.867-.516,4.672,4.672,0,0,0-.023,4.965,8.119,8.119,0,0,1,0,7.16c-1.412,3.09-1.4,5.7.032,7.994a3.573,3.573,0,0,1,.119,3.787H27.476V62.53H67.511V91.29Zm1.964-32.869v3.1H27.476v-3.1Zm-42.782-3.9h1.737V91.29H24.73ZM72.2,96.7a.272.272,0,0,1-.272.272H23.056a.272.272,0,0,1-.272-.272V92.571a.272.272,0,0,1,.272-.272H71.93a.273.273,0,0,1,.272.272V96.7Z" transform="translate(-21.776 -53.512)" fill="#2e2e6d"/>
          <path id="Trazado_879346" data-name="Trazado 879346" d="M119.053,211.122a.5.5,0,0,0,.876-.439l-.341-1.49a8.629,8.629,0,0,1-.02-3.736l.362-1.664a.5.5,0,0,0-.878-.434l-2.516,2.964c-.972-1.206-3.329-3.7-6.179-3.7-2.833,0-5.694,2.837-6.261,3.844a1.589,1.589,0,0,0,.158,1.787l.027.031c1.51,1.823,3.689,3.582,6.076,3.582,2.85,0,5.206-2.5,6.179-3.7Zm-.548-2.2-1.405-1.655c0-.015,0-.03,0-.045l1.423-1.676A9.67,9.67,0,0,0,118.505,208.918Zm-9.852,1.574a10.155,10.155,0,0,1-3.619-2.884.571.571,0,0,1,0-.734,10,10,0,0,1,3.644-2.894A12.683,12.683,0,0,1,108.653,210.492Zm1.706.362a4.016,4.016,0,0,1-.746-.077,13.682,13.682,0,0,0,.024-7.078,4,4,0,0,1,.722-.073c2.579,0,4.832,2.6,5.568,3.553a.5.5,0,0,0,0,.122C115.19,208.25,112.938,210.854,110.358,210.854Z" transform="translate(-94.877 -186.246)" fill="#2e2e6d"/>
          <path id="Trazado_879347" data-name="Trazado 879347" d="M126.481,233.719h-.294a.5.5,0,0,0,0,1.009h.294a.5.5,0,0,0,0-1.009Z" transform="translate(-114.274 -213.933)" fill="#2e2e6d"/>
          <path id="Trazado_879348" data-name="Trazado 879348" d="M242.114,300.2c-2.242,0-4.106,1.9-4.94,2.9l-1.931-2.275a.5.5,0,0,0-.878.434l.29,1.33a6.8,6.8,0,0,1-.016,2.942l-.272,1.19a.5.5,0,0,0,.876.439l1.931-2.275c.833,1.008,2.7,2.9,4.94,2.9,1.944,0,3.718-1.425,4.955-2.924a1.37,1.37,0,0,0,0-1.741C245.836,301.634,244.06,300.2,242.114,300.2Zm4.177,4.023a8.071,8.071,0,0,1-2.744,2.228,10.04,10.04,0,0,1-.023-4.924,8.031,8.031,0,0,1,2.767,2.239A.355.355,0,0,1,246.291,304.227ZM235.756,305a7.855,7.855,0,0,0-.009-2.02l.862,1.015Zm2.015-.984c0-.014,0-.027,0-.041.6-.774,2.351-2.766,4.344-2.766a3.042,3.042,0,0,1,.448.037,11.044,11.044,0,0,0,.024,5.494,3.06,3.06,0,0,1-.472.041C240.128,306.785,238.376,304.793,237.77,304.019Z" transform="translate(-211.013 -273.118)" fill="#2e2e6d"/>
          <path id="Trazado_879349" data-name="Trazado 879349" d="M322.655,325.854h-.235a.5.5,0,1,0,0,1.009h.235a.5.5,0,0,0,0-1.009Z" transform="translate(-288.961 -295.951)" fill="#2e2e6d"/>
          <path id="Trazado_879350" data-name="Trazado 879350" d="M94.425,187.007a1.44,1.44,0,1,0-1.44,1.44A1.442,1.442,0,0,0,94.425,187.007Zm-1.872,0a.432.432,0,1,1,.432.432A.432.432,0,0,1,92.553,187.007Z" transform="translate(-83.884 -171.068)" fill="#2e2e6d"/>
          <path id="Trazado_879351" data-name="Trazado 879351" d="M124.531,161.381a1.44,1.44,0,1,0-1.44-1.44A1.442,1.442,0,0,0,124.531,161.381Zm0-1.872a.432.432,0,1,1-.432.432A.432.432,0,0,1,124.531,159.509Z" transform="translate(-111.967 -146.972)" fill="#2e2e6d"/>
          <path id="Trazado_879352" data-name="Trazado 879352" d="M91.069,144.329a1.44,1.44,0,1,0-1.44-1.44A1.442,1.442,0,0,0,91.069,144.329Zm0-1.872a.432.432,0,1,1-.432.432A.432.432,0,0,1,91.069,142.457Z" transform="translate(-82.179 -131.793)" fill="#2e2e6d"/>
        </g>
      </g>
    </g>
  </g>
</svg>
