<svg xmlns="http://www.w3.org/2000/svg" width="87.435" height="87.434" viewBox="0 0 87.435 87.434">
  <g id="Grupo_1189852" data-name="Grupo 1189852" transform="translate(-335.499 -3189.354)">
    <g id="Grupo_1189673" data-name="Grupo 1189673" transform="translate(-535.613 2912.189)">
      <g id="Grupo_1188789" data-name="Grupo 1188789" transform="translate(582.113 -5836.835)">
        <rect id="Rectángulo_400898" data-name="Rectángulo 400898" width="72.382" height="72.381" rx="36.191" transform="translate(296.527 6121.525)" fill="#ffd907"/>
        <rect id="Rectángulo_400907" data-name="Rectángulo 400907" width="78.382" height="78.381" rx="39.191" transform="translate(293.527 6118.525)" fill="none"/>
        <g id="Grupo_1098742" data-name="Grupo 1098742" transform="translate(289 6114)">
          <g id="Rectángulo_400898-2" data-name="Rectángulo 400898" transform="translate(0)" fill="none" stroke="#fff" stroke-width="2" opacity="0.859">
            <rect width="87.435" height="87.434" rx="43.717" stroke="none"/>
            <rect x="1" y="1" width="85.435" height="85.434" rx="42.717" fill="none"/>
          </g>
          <g id="Rectángulo_400907-2" data-name="Rectángulo 400907" transform="translate(0)" fill="none" stroke="#0f1f33" stroke-linecap="round" stroke-width="2">
            <rect width="87.435" height="87.434" rx="43.717" stroke="none"/>
            <rect x="1" y="1" width="85.435" height="85.434" rx="42.717" fill="none"/>
          </g>
        </g>
      </g>
    </g>
    <g id="_02-puppy" data-name="02-puppy" transform="translate(353 3208.483)">
      <path id="Trazado_879075" data-name="Trazado 879075" d="M9.952,46.371c0,3.162.79,2.853.79,4.743,0,2.371-.79,1.581-.79,4.743v.79C6,56.647,6,53.485,6,53.485L9.952,44Z" transform="translate(-0.21 -9.221)" fill="#f2bb88"/>
      <path id="Trazado_879076" data-name="Trazado 879076" d="M52.79,44l3.952,9.485s0,3.162-3.952,3.162v-.79c0-3.162-.79-2.371-.79-4.743,0-1.889.79-1.581.79-4.743Z" transform="translate(-9.85 -9.221)" fill="#f2bb88"/>
      <path id="Trazado_879077" data-name="Trazado 879077" d="M13.114,18.389a3.134,3.134,0,0,1-2.474-1.265L6.38,11.647A1.827,1.827,0,0,1,6.388,9.41C8.253,7.039,13.2,1.79,19.438,1.79,21.864.928,22.528,1,26.552,1s4.687-.071,7.114.79c6.237,0,11.185,5.248,13.05,7.62a1.827,1.827,0,0,1,.008,2.237l-4.26,5.478a3.134,3.134,0,0,1-2.474,1.265A10.336,10.336,0,0,1,38.5,22.484c.664,1.02,4.656,7.3,4.648,10.924V37.36c0,3.162-.79,2.853-.79,4.743,0,2.371.79,1.581.79,4.743v1.581a1.581,1.581,0,0,1-1.581,1.581h-7.9a1.586,1.586,0,0,1-1.581-1.581V46.054s-3.952,0-5.533-.79c-1.581.79-5.533.79-5.533.79v2.371a1.586,1.586,0,0,1-1.581,1.581h-7.9a1.581,1.581,0,0,1-1.581-1.581V46.845c0-3.162.79-2.371.79-4.743,0-1.889-.79-1.581-.79-4.743V33.407c-.008-3.62,3.984-9.9,4.648-10.924a10.336,10.336,0,0,1-1.486-4.094Z" transform="translate(-0.21 -0.21)" fill="#ffe4c2"/>
      <path id="Trazado_879078" data-name="Trazado 879078" d="M15.754,17.211A31.012,31.012,0,0,0,18.647,11.5V2.052c-5.861.416-10.474,5.309-12.26,7.579a1.827,1.827,0,0,0-.008,2.237l4.26,5.478a3.134,3.134,0,0,0,2.474,1.265A3.187,3.187,0,0,0,15.754,17.211Z" transform="translate(-0.21 -0.43)" fill="#ffebd1"/>
      <path id="Trazado_879079" data-name="Trazado 879079" d="M41.79,11.485A31.013,31.013,0,0,0,44.683,17.2a3.187,3.187,0,0,0,2.64,1.4A3.134,3.134,0,0,0,49.8,17.334l4.26-5.478A1.827,1.827,0,0,0,54.05,9.62C52.185,7.248,47.237,2,41,2v.79Z" transform="translate(-7.544 -0.419)" fill="#ffebd1"/>
      <path id="Trazado_879080" data-name="Trazado 879080" d="M32.9,52.7l-.869-.291a4.747,4.747,0,0,0-3,0l-.874.291A4.181,4.181,0,0,1,25,51.553v5.1s3.952,0,5.533-.79c1.581.79,5.533.79,5.533.79v-5.1A4.181,4.181,0,0,1,32.9,52.7Z" transform="translate(-4.191 -10.804)" fill="#f2d1a5"/>
      <path id="Trazado_879081" data-name="Trazado 879081" d="M6.388,9.631a1.827,1.827,0,0,0-.008,2.237l.371.474c2-2.406,6.4-6.738,11.9-7.128V2.052C12.786,2.468,8.173,7.361,6.388,9.631Z" transform="translate(-0.21 -0.43)" fill="#fff6e8"/>
      <path id="Trazado_879082" data-name="Trazado 879082" d="M53.687,12.333l.371-.474a1.827,1.827,0,0,0-.008-2.237C52.185,7.248,47.237,2,41,2v.79l.217,2.382C46.985,5.287,51.622,9.841,53.687,12.333Z" transform="translate(-7.544 -0.419)" fill="#fff6e8"/>
      <path id="Trazado_879083" data-name="Trazado 879083" d="M44.893,19.715A31.013,31.013,0,0,1,42,14c0,5.109,2,9.327,4.632,10.128a10.472,10.472,0,0,0,.9-3.014A3.187,3.187,0,0,1,44.893,19.715Z" transform="translate(-7.754 -2.934)" fill="#f7d2a3"/>
      <path id="Trazado_879084" data-name="Trazado 879084" d="M20.533,14a31.013,31.013,0,0,1-2.893,5.715,3.187,3.187,0,0,1-2.64,1.4,10.472,10.472,0,0,0,.9,3.014C18.529,23.327,20.533,19.109,20.533,14Z" transform="translate(-2.096 -2.934)" fill="#f7d2a3"/>
      <path id="Trazado_879085" data-name="Trazado 879085" d="M28.657,35.942c6.75,0,12.239-2.969,12.611-6.712-.3-.494-.537-.862-.659-1.05a7.719,7.719,0,0,1-6.418,3.81H23.124a7.719,7.719,0,0,1-6.418-3.81c-.122.187-.358.553-.659,1.05C16.418,32.973,21.907,35.942,28.657,35.942Z" transform="translate(-2.315 -5.906)" fill="#f7d2a3"/>
      <path id="Trazado_879086" data-name="Trazado 879086" d="M13.553,54.4V52.82c0-3.162.669-2.371.669-4.743,0-1.889-.669-1.581-.669-4.743V39.383c0-2.171,1.208-5.3,2.3-7.667a4.653,4.653,0,0,1-.866-2.2C13.65,31.7,10.994,36.428,11,39.383v3.952c0,3.162.79,2.853.79,4.743,0,2.371-.79,1.581-.79,4.743V54.4a1.581,1.581,0,0,0,1.581,1.581h2.31A1.474,1.474,0,0,1,13.553,54.4Z" transform="translate(-1.257 -6.185)" fill="#fff2de"/>
      <path id="Trazado_879087" data-name="Trazado 879087" d="M49.16,39.382v3.952c0,3.162-.669,2.853-.669,4.743,0,2.371.669,1.581.669,4.743V54.4a1.474,1.474,0,0,1-1.337,1.581h2.31A1.581,1.581,0,0,0,51.713,54.4V52.82c0-3.162-.79-2.371-.79-4.743,0-1.889.79-1.581.79-4.743V39.382c.006-2.955-2.65-7.681-3.989-9.874a4.653,4.653,0,0,1-.866,2.207C47.952,34.086,49.164,37.212,49.16,39.382Z" transform="translate(-8.772 -6.184)" fill="#fff2de"/>
      <path id="Trazado_879088" data-name="Trazado 879088" d="M22.79,4.952a2.759,2.759,0,0,1,1.581-.79H35.437a2.759,2.759,0,0,1,1.581.79h.216L37.018,2.58V1.79C34.592.928,33.928,1,29.9,1s-4.687-.071-7.114.79c-.267,0-.528.022-.79.041V4.952Z" transform="translate(-3.563 -0.21)" fill="#ffebd1"/>
      <path id="Trazado_879089" data-name="Trazado 879089" d="M7.581,53.485l2.429-5.829a12.8,12.8,0,0,1-.058-1.284V44L6,53.485s0,3.162,3.952,3.162V56.43A3.212,3.212,0,0,1,7.581,53.485Z" transform="translate(-0.21 -9.221)" fill="#f7d2a3"/>
      <path id="Trazado_879090" data-name="Trazado 879090" d="M52.985,44v2.371a12.8,12.8,0,0,1-.058,1.284l2.429,5.829a3.212,3.212,0,0,1-2.371,2.944v.217c3.952,0,3.952-3.162,3.952-3.162Z" transform="translate(-10.044 -9.221)" fill="#f7d2a3"/>
      <ellipse id="Elipse_11547" data-name="Elipse 11547" cx="0.652" cy="0.907" rx="0.652" ry="0.907" transform="matrix(0.707, -0.707, 0.707, 0.707, 41.251, 9.158)" fill="#f6fafd"/>
      <ellipse id="Elipse_11548" data-name="Elipse 11548" cx="0.326" cy="0.454" rx="0.326" ry="0.454" transform="matrix(0.707, -0.707, 0.707, 0.707, 30.536, 2.529)" fill="#f6fafd"/>
      <ellipse id="Elipse_11549" data-name="Elipse 11549" cx="1.298" cy="1.807" rx="1.298" ry="1.807" transform="matrix(0.707, -0.707, 0.707, 0.707, 37.789, 6.597)" fill="#f6fafd"/>
      <path id="Trazado_879091" data-name="Trazado 879091" d="M30.79,21h1.581A.79.79,0,0,1,33,22.265l-.79,1.051a.785.785,0,0,1-1.265,0l-.79-1.051A.79.79,0,0,1,30.79,21Z" transform="translate(-5.239 -4.401)" fill="#66482d"/>
      <path id="Trazado_879092" data-name="Trazado 879092" d="M47.684,44.264a.791.791,0,0,0-.061-.3l-3.891-9.339V33.2c.007-3.5-3.347-9.107-4.518-10.954a11.216,11.216,0,0,0,1.23-3.344,3.952,3.952,0,0,0,2.434-1.5l4.26-5.477a2.614,2.614,0,0,0-.01-3.212C45.674,6.866,40.43.869,33.593.79c-2.279-.8-3.185-.8-6.4-.79h-1.7c-3.218-.008-4.124-.006-6.4.79C12.254.869,7.009,6.866,5.561,8.706a2.616,2.616,0,0,0-.016,3.217L9.8,17.395A3.952,3.952,0,0,0,12.24,18.9a11.213,11.213,0,0,0,1.23,3.344C12.307,24.082,8.945,29.692,8.952,33.2v1.423L5.061,43.96a.79.79,0,0,0-.061.3A4.042,4.042,0,0,0,8.952,48.17v.046a2.371,2.371,0,0,0,2.371,2.371h7.9A2.371,2.371,0,0,0,21.6,48.216v-1.6a17.04,17.04,0,0,0,4.743-.7,17.04,17.04,0,0,0,4.743.7v1.6a2.371,2.371,0,0,0,2.371,2.371h7.9a2.371,2.371,0,0,0,2.371-2.371V48.17A4.042,4.042,0,0,0,47.684,44.264Zm-38.236-.7a6.848,6.848,0,0,0-.5,3.012A2.477,2.477,0,0,1,6.589,44.4l2.431-5.833a7.006,7.006,0,0,0,.452,1.912,3.407,3.407,0,0,1,.271,1.413A3.626,3.626,0,0,1,9.448,43.565Zm32.7-6.415a6.719,6.719,0,0,1-.421,2.781,4.9,4.9,0,0,0-.369,1.962,5.085,5.085,0,0,0,.411,2.267,5.506,5.506,0,0,1,.379,2.476v1.581a.79.79,0,0,1-.79.79h-7.9a.79.79,0,0,1-.79-.79V41.1h-.04a3.742,3.742,0,0,0,.831-2.371H31.875c0,1.484-1.182,2.371-3.162,2.371v1.581a5.971,5.971,0,0,0,2.371-.445v2.8a13.912,13.912,0,0,1-4.389-.691.79.79,0,0,0-.707,0,13.912,13.912,0,0,1-4.389.691v-2.8a5.971,5.971,0,0,0,2.371.445V41.1c-1.976,0-3.162-.887-3.162-2.371H19.228a3.742,3.742,0,0,0,.831,2.371h-.04v7.114a.79.79,0,0,1-.79.79h-7.9a.79.79,0,0,1-.79-.79V46.635a5.506,5.506,0,0,1,.379-2.476,5.085,5.085,0,0,0,.411-2.267,4.9,4.9,0,0,0-.369-1.962,6.719,6.719,0,0,1-.421-2.781V33.2c-.006-2.778,2.646-7.451,3.906-9.514a8.3,8.3,0,0,0,6.369,3.191V25.294a6.95,6.95,0,0,1-5.75-3.442,9.485,9.485,0,0,1-1.217-2.99,4.018,4.018,0,0,0,2.351-1.63,31.544,31.544,0,0,0,2.982-5.879L17.7,10.773a29.9,29.9,0,0,1-2.8,5.55,2.4,2.4,0,0,1-1.969,1.066h-.018a2.362,2.362,0,0,1-1.856-.96L6.793,10.951A1.035,1.035,0,0,1,6.8,9.686C8.15,7.972,13.037,2.371,19.228,2.371a.79.79,0,0,0,.264-.046c2.116-.751,2.714-.751,6-.745h1.7c3.287-.006,3.882-.006,6,.745a.79.79,0,0,0,.264.046c6.191,0,11.078,5.6,12.434,7.324a1.033,1.033,0,0,1,0,1.257l-4.264,5.482a2.357,2.357,0,0,1-1.852.955,2.49,2.49,0,0,1-1.986-1.062,29.879,29.879,0,0,1-2.8-5.55l-1.472.579a31.529,31.529,0,0,0,2.982,5.88,4.01,4.01,0,0,0,2.349,1.631,9.5,9.5,0,0,1-1.216,2.984,6.951,6.951,0,0,1-5.751,3.443v1.581a8.307,8.307,0,0,0,6.369-3.193c1.263,2.069,3.913,6.738,3.906,9.516Zm1.581,9.426a6.845,6.845,0,0,0-.495-3.011,3.626,3.626,0,0,1-.3-1.673,3.407,3.407,0,0,1,.27-1.413,7.006,7.006,0,0,0,.452-1.912L46.094,44.4a2.476,2.476,0,0,1-2.363,2.174Z" transform="translate(0 0)"/>
      <path id="Trazado_879093" data-name="Trazado 879093" d="M39.107,20.162a2.073,2.073,0,0,0,1.382-.658l.012-.012a2.06,2.06,0,0,0,.662-1.4,1.074,1.074,0,0,0-.306-.759,1.092,1.092,0,0,0-.783-.33,2.027,2.027,0,0,0-1.413.67,2.06,2.06,0,0,0-.66,1.4,1.074,1.074,0,0,0,.306.759,1.092,1.092,0,0,0,.781.328Z" transform="translate(-6.916 -3.563)"/>
      <path id="Trazado_879094" data-name="Trazado 879094" d="M23.089,17a1.074,1.074,0,0,0-.759.306,1.092,1.092,0,0,0-.328.781,2.06,2.06,0,0,0,.658,1.4l.012.012a2.073,2.073,0,0,0,1.383.662h.02a1.074,1.074,0,0,0,.759-.306,1.092,1.092,0,0,0,.328-.783,2.074,2.074,0,0,0-.67-1.413,2.012,2.012,0,0,0-1.4-.66Z" transform="translate(-3.563 -3.563)"/>
      <path id="Trazado_879095" data-name="Trazado 879095" d="M32.533,24.743a.777.777,0,0,1-.783-.751,1.567,1.567,0,0,0,.466-.41l.79-1.055A1.581,1.581,0,0,0,31.743,20H30.162A1.581,1.581,0,0,0,28.9,22.529l.79,1.047a1.581,1.581,0,0,0,.47.414.79.79,0,0,1-1.576-.038H27a2.371,2.371,0,0,0,3.952,1.766A2.371,2.371,0,0,0,34.9,23.952H33.323a.782.782,0,0,1-.79.79Zm-.79-3.162-.79,1.051-.79-1.051Z" transform="translate(-4.61 -4.192)"/>
    </g>
  </g>
</svg>
