<svg xmlns="http://www.w3.org/2000/svg" width="87.435" height="87.434" viewBox="0 0 87.435 87.434">
  <g id="Grupo_1189857" data-name="Grupo 1189857" transform="translate(-284 -3839.299)">
    <g id="Grupo_1189678" data-name="Grupo 1189678" transform="translate(-587.112 3562.135)">
      <g id="Grupo_1188789" data-name="Grupo 1188789" transform="translate(582.113 -5836.835)">
        <rect id="Rectángulo_400898" data-name="Rectángulo 400898" width="72.382" height="72.381" rx="36.191" transform="translate(296.527 6121.525)" fill="#ffd907"/>
        <rect id="Rectángulo_400907" data-name="Rectángulo 400907" width="78.382" height="78.381" rx="39.191" transform="translate(293.527 6118.525)" fill="none"/>
        <g id="Grupo_1098742" data-name="Grupo 1098742" transform="translate(289 6114)">
          <g id="Rectángulo_400898-2" data-name="Rectángulo 400898" transform="translate(0)" fill="none" stroke="#fff" stroke-width="2" opacity="0.859">
            <rect width="87.435" height="87.434" rx="43.717" stroke="none"/>
            <rect x="1" y="1" width="85.435" height="85.434" rx="42.717" fill="none"/>
          </g>
          <g id="Rectángulo_400907-2" data-name="Rectángulo 400907" transform="translate(0)" fill="none" stroke="#0f1f33" stroke-linecap="round" stroke-width="2">
            <rect width="87.435" height="87.434" rx="43.717" stroke="none"/>
            <rect x="1" y="1" width="85.435" height="85.434" rx="42.717" fill="none"/>
          </g>
        </g>
      </g>
    </g>
    <g id="Layer_11" data-name="Layer 11" transform="translate(304 3859)">
      <g id="Grupo_1189856" data-name="Grupo 1189856" transform="translate(5.034 5.034)">
        <path id="Trazado_879153" data-name="Trazado 879153" d="M29.014,21a2.014,2.014,0,0,1,2.014,2.014V41.137H27V23.014A2.014,2.014,0,0,1,29.014,21Z" transform="translate(-4.85 -4.891)" fill="#fae3d9"/>
        <path id="Trazado_879154" data-name="Trazado 879154" d="M27.114,47.164H5V27.027A4.027,4.027,0,0,1,9.027,23H20.434a4.027,4.027,0,0,1,3.719,2.485l6.67,16.082a4.027,4.027,0,0,1-3.709,5.6Z" transform="translate(-5 -4.877)" fill="#fae3d9"/>
        <rect id="Rectángulo_403458" data-name="Rectángulo 403458" width="18" height="20" rx="4" transform="translate(-0.034 -0.034)" fill="#fae3d9"/>
      </g>
      <path id="Trazado_879155" data-name="Trazado 879155" d="M14.846,20.7,16.7,18.913A1.119,1.119,0,0,0,15.871,17h-3.7a1.119,1.119,0,0,0-.826,1.913l1.851,1.781a1.2,1.2,0,0,0,1.651,0Z" transform="translate(0.075 0.116)" fill="#d69787"/>
      <path id="Trazado_879156" data-name="Trazado 879156" d="M3.014,5H9.055A8.055,8.055,0,0,1,1,13.055H1V7.014A2.014,2.014,0,0,1,3.014,5Z" transform="translate(0.007 0.034)" fill="#d69787"/>
      <path id="Trazado_879157" data-name="Trazado 879157" d="M23.027,9.027s-.04,1.329-.131,1.007a7.809,7.809,0,0,1-1.289.577A2,2,0,0,1,19,8.683V5A4.027,4.027,0,0,1,23.027,9.027Z" transform="translate(0.13 0.034)" fill="#efcdc2"/>
      <ellipse id="Elipse_11550" data-name="Elipse 11550" cx="2.5" cy="2" rx="2.5" ry="2" transform="translate(27 7)" fill="#e6e6e6"/>
      <ellipse id="Elipse_11551" data-name="Elipse 11551" cx="2.5" cy="2" rx="2.5" ry="2" transform="translate(42 7)" fill="#e6e6e6"/>
      <path id="Trazado_879158" data-name="Trazado 879158" d="M3.014,7.672V5A2.014,2.014,0,0,0,1,7.014v6.041A8.055,8.055,0,0,0,8.531,7.837a8.077,8.077,0,0,1-2.9,1.76A2,2,0,0,1,3.014,7.672Z" transform="translate(0.007 0.034)" fill="#cc7d6d"/>
      <path id="Trazado_879159" data-name="Trazado 879159" d="M11.041,44.055v1.007a2.02,2.02,0,0,1-2.014,2.014H7.014A2.02,2.02,0,0,1,5,45.062V36H6.007a2.014,2.014,0,0,1,2.014,2.014v4.027a2.02,2.02,0,0,0,2.014,2.014Z" transform="translate(0.034 0.246)" fill="#efcdc2"/>
      <path id="Trazado_879160" data-name="Trazado 879160" d="M23.041,44.055v1.007a2.02,2.02,0,0,1-2.014,2.014H19.014A2.02,2.02,0,0,1,17,45.062V36h1.007a2.014,2.014,0,0,1,2.014,2.014v4.027a2.02,2.02,0,0,0,2.014,2.014Z" transform="translate(0.116 0.246)" fill="#efcdc2"/>
      <path id="Trazado_879161" data-name="Trazado 879161" d="M29.007,26.027A1.007,1.007,0,0,1,28,25.021V23.007a1.007,1.007,0,0,1,2.014,0v2.014A1.007,1.007,0,0,1,29.007,26.027Z" transform="translate(0.191 0.15)" fill="#fcece6"/>
      <path id="Trazado_879162" data-name="Trazado 879162" d="M0,0A8.055,8.055,0,0,1,8.055,8.055H2.014A2.014,2.014,0,0,1,0,6.041Z" transform="translate(27.185 1.007) rotate(90)" fill="#d69787"/>
      <circle id="Elipse_11552" data-name="Elipse 11552" cx="1" cy="1" r="1" transform="translate(24 2)" fill="#d8a49a"/>
      <path id="Trazado_879163" data-name="Trazado 879163" d="M19.1,25.027H9.027A4.027,4.027,0,0,1,5,21v2.014a4.027,4.027,0,0,0,4.027,4.027H19.1a4.027,4.027,0,0,0,4.027-4.027V21A4.027,4.027,0,0,1,19.1,25.027Z" transform="translate(0.034 0.144)" fill="#efcdc2"/>
      <path id="Trazado_879164" data-name="Trazado 879164" d="M29.7,20.178a3.021,3.021,0,0,0-3.524,2.979v4.655l-1.06-2.556a5,5,0,0,0-1.288-1.818.981.981,0,0,0-.185-.109,4.981,4.981,0,0,0,.52-2.185V8.536a9.062,9.062,0,0,0,4.027-7.529A1.007,1.007,0,0,0,27.185,0H21.144a3.021,3.021,0,0,0-3.021,3.021V4.027H3.021A3.021,3.021,0,0,0,0,7.048a1.007,1.007,0,0,0,2.014,0A1.007,1.007,0,0,1,3.021,6.041H7.983a7.066,7.066,0,0,1-5.97,5.97v-.935a1.007,1.007,0,1,0-2.014,0v2.014A1.007,1.007,0,0,0,1.007,14.1a9,9,0,0,0,3.021-.529v7.576a5.04,5.04,0,0,0,5.034,5.034H19.13a5,5,0,0,0,3.323-1.283c.012.012.017.029.03.041a3.006,3.006,0,0,1,.773,1.091l3,7.226a1.007,1.007,0,0,0,1.939-.386V23.157a1.007,1.007,0,0,1,1.183-.993,1.092,1.092,0,0,1,.831,1.1V43.294a3.1,3.1,0,0,1-.9,2.114,2.978,2.978,0,0,1-2.161.906h-.971a1.007,1.007,0,1,0,0,2.014h.971A4.974,4.974,0,0,0,30.756,46.8a5.955,5.955,0,0,0,1.463-3.511V23.265A3.1,3.1,0,0,0,29.7,20.178ZM20.137,3.021a1.007,1.007,0,0,1,1.007-1.007h4.963a7.066,7.066,0,0,1-5.97,5.97ZM19.13,24.164H9.062a3.021,3.021,0,0,1-3.021-3.021v-8.58a9.07,9.07,0,0,0,3.968-6.522h8.114V9.062a1.007,1.007,0,0,0,1.007,1.007A9,9,0,0,0,22.15,9.54v11.6A3.021,3.021,0,0,1,19.13,24.164Z" transform="translate(0 0)"/>
      <path id="Trazado_879165" data-name="Trazado 879165" d="M15.878,16h-3.7a2.162,2.162,0,0,0-2.023,1.348,2.094,2.094,0,0,0,.5,2.3L12.5,21.431a2.215,2.215,0,0,0,3.047,0L17.4,19.65a2.094,2.094,0,0,0,.5-2.3A2.162,2.162,0,0,0,15.878,16Zm.128,2.2L14.154,19.98a.2.2,0,0,1-.254,0L12.049,18.2c-.034-.033-.045-.053-.027-.1a.148.148,0,0,1,.155-.085h3.7a.148.148,0,0,1,.155.088c.018.044.008.064-.027.1Z" transform="translate(0.068 0.109)"/>
      <path id="Trazado_879166" data-name="Trazado 879166" d="M23.13,32.034a1.007,1.007,0,0,0-1.007,1.007V45.123a1.007,1.007,0,0,1-1.007,1.007H19.1A1.007,1.007,0,0,1,18.1,45.123V33.041a1.007,1.007,0,1,0-2.014,0V45.123a2.986,2.986,0,0,0,.185,1.007h-4.4a2.986,2.986,0,0,0,.185-1.007V33.041a1.007,1.007,0,1,0-2.014,0V45.123A1.007,1.007,0,0,1,9.034,46.13H7.021a1.007,1.007,0,0,1-1.007-1.007V28.007a1.007,1.007,0,0,0-2.014,0V45.123a3.021,3.021,0,0,0,3.021,3.021h14.1a3.021,3.021,0,0,0,3.021-3.021V33.041A1.007,1.007,0,0,0,23.13,32.034Z" transform="translate(0.027 0.185)"/>
      <path id="Trazado_879167" data-name="Trazado 879167" d="M44.626,6a3.524,3.524,0,0,0-3.307,2.014H32.831A3.524,3.524,0,0,0,29.524,6,3.305,3.305,0,0,0,26,9.021a3.305,3.305,0,0,0,3.524,3.021,3.524,3.524,0,0,0,3.307-2.014h8.488a3.524,3.524,0,0,0,3.307,2.014A3.305,3.305,0,0,0,48.15,9.021,3.305,3.305,0,0,0,44.626,6Zm-15.1,4.027c-.805,0-1.51-.47-1.51-1.007s.7-1.007,1.51-1.007,1.51.47,1.51,1.007S30.329,10.027,29.524,10.027Zm15.1,0c-.805,0-1.51-.47-1.51-1.007s.7-1.007,1.51-1.007,1.51.47,1.51,1.007S45.432,10.027,44.626,10.027Z" transform="translate(0.178 0.041)"/>
    </g>
  </g>
</svg>
