<svg xmlns="http://www.w3.org/2000/svg" width="87.435" height="87.434" viewBox="0 0 87.435 87.434">
  <g id="Grupo_1189859" data-name="Grupo 1189859" transform="translate(-599 -3839.299)">
    <g id="Grupo_1189677" data-name="Grupo 1189677" transform="translate(-272.112 3562.135)">
      <g id="Grupo_1188789" data-name="Grupo 1188789" transform="translate(582.113 -5836.835)">
        <rect id="Rectángulo_400898" data-name="Rectángulo 400898" width="72.382" height="72.381" rx="36.191" transform="translate(296.527 6121.525)" fill="#ffd907"/>
        <rect id="Rectángulo_400907" data-name="Rectángulo 400907" width="78.382" height="78.381" rx="39.191" transform="translate(293.527 6118.525)" fill="none"/>
        <g id="Grupo_1098742" data-name="Grupo 1098742" transform="translate(289 6114)">
          <g id="Rectángulo_400898-2" data-name="Rectángulo 400898" transform="translate(0)" fill="none" stroke="#fff" stroke-width="2" opacity="0.859">
            <rect width="87.435" height="87.434" rx="43.717" stroke="none"/>
            <rect x="1" y="1" width="85.435" height="85.434" rx="42.717" fill="none"/>
          </g>
          <g id="Rectángulo_400907-2" data-name="Rectángulo 400907" transform="translate(0)" fill="none" stroke="#0f1f33" stroke-linecap="round" stroke-width="2">
            <rect width="87.435" height="87.434" rx="43.717" stroke="none"/>
            <rect x="1" y="1" width="85.435" height="85.434" rx="42.717" fill="none"/>
          </g>
        </g>
      </g>
    </g>
    <g id="filled_outline" data-name="filled outline" transform="translate(593.95 3802.15)">
      <circle id="Elipse_11553" data-name="Elipse 11553" cx="2.855" cy="2.855" r="2.855" transform="translate(47.402 59.431)" fill="#27c5a7"/>
      <path id="Trazado_879168" data-name="Trazado 879168" d="M318.661,392.189h-3.623a3.038,3.038,0,0,1-1.563-5.643L317.71,384l2.855,4.383Z" transform="translate(-260.791 -288.984)" fill="#015078"/>
      <path id="Trazado_879169" data-name="Trazado 879169" d="M24,316.383l3.343-.668a6.366,6.366,0,0,0,2.571-1.149l2.651-1.989.885-.576,1.019,3.431-2.109,1.582a6.365,6.365,0,0,1-8.32-.591Z" transform="translate(-7.049 -225.549)" fill="#d18d28"/>
      <path id="Trazado_879170" data-name="Trazado 879170" d="M101.481,150.558a9.143,9.143,0,0,1,2.355-2.611,15.148,15.148,0,0,0,3.9-4.324l.549-.914a5.472,5.472,0,0,0,.779-2.816V135.7l2.855-2.855,3.331.833,2.379-.833,1.9,2.855-3.569,2.855.714,4.758.229.535a5.472,5.472,0,0,1,.131,3.977l0,.008,3.681,1.791a1.9,1.9,0,0,1,.973,1.11l1.65,4.95-2.855.952-1.9-3.806-3.806-.952-5.71,2.855-1.9,2.855,1.409,2.819a1.9,1.9,0,0,1-.119,1.907l-1.29,1.935-.952,6.661h-2.855v-8.564l-1.507-1.507a5.947,5.947,0,0,1-1.661-3.228l-.021-.124A10.206,10.206,0,0,1,101.481,150.558Z" transform="translate(-74.032 -67.704)" fill="#ea9d2d"/>
      <path id="Trazado_879171" data-name="Trazado 879171" d="M178.14,152.27a1.862,1.862,0,0,1-1.464.747l-.582.01-.044-4.464,1.112-1.112,1.21,2.981A1.875,1.875,0,0,1,178.14,152.27Z" transform="translate(-141.013 -80.572)" fill="#ea9d2d"/>
      <path id="Trazado_879172" data-name="Trazado 879172" d="M296,125.8l2.855-.952,2.855,9.516,5.71,3.806-2.855,2.855-6.661-4.758-.952-6.661-.952-.952Z" transform="translate(-246.695 -60.656)" fill="#fdc9a6"/>
      <path id="Trazado_879173" data-name="Trazado 879173" d="M382.036,253.022l-1.221-8.756a24.98,24.98,0,0,0-1.447-5.171l0-.008a3.569,3.569,0,0,0-3.313-2.243h-5.2L368,239.7l2.855,1.9v6.661Z" transform="translate(-310.13 -159.333)" fill="#02a437"/>
      <path id="Trazado_879174" data-name="Trazado 879174" d="M350.376,336.623l2.143,5.142h6.344l-.952-1.528,2.156.866a5.947,5.947,0,0,0,3.393.31,3.759,3.759,0,0,0,1.914-1.027q.059-.059.115-.12a3.752,3.752,0,0,0,.912-3.065l-.163-1.146-10.6-4.644a4,4,0,0,0-5.264,5.211Z" transform="translate(-294.331 -242.366)" fill="#026ca2"/>
      <path id="Trazado_879175" data-name="Trazado 879175" d="M427.806,242.555v-3.806a1.9,1.9,0,1,0-3.806,0v3.806Z" transform="translate(-359.469 -159.333)" fill="#029532"/>
      <path id="Trazado_879176" data-name="Trazado 879176" d="M339.419,284.845V289.6h-9.278A2.141,2.141,0,0,0,328,291.744v1.665h12.371a2.855,2.855,0,0,0,2.855-2.855v-5.71Z" transform="translate(-274.888 -201.624)" fill="#fdc9a6"/>
      <path id="Trazado_879177" data-name="Trazado 879177" d="M392,168.332h3.806l1.9,2.855v.558a3.249,3.249,0,0,1-.952,2.3v2.44h-3.806v-2.44a3.249,3.249,0,0,1-.952-2.3Z" transform="translate(-331.275 -98.97)" fill="#fdc9a6"/>
      <path id="Trazado_879178" data-name="Trazado 879178" d="M386.95,137.07l-.586-1.757a1.872,1.872,0,0,1,2.814-2.149l1.578,1.051h1.062a2.488,2.488,0,0,1,2.069,3.867l-1.228,1.842-1.9-2.855Z" transform="translate(-326.225 -67.708)" fill="#55300b"/>
      <circle id="Elipse_11554" data-name="Elipse 11554" cx="0.833" cy="0.833" r="0.833" transform="translate(38.481 67.163)" fill="#c38325"/>
      <path id="Trazado_879179" data-name="Trazado 879179" d="M178.14,152.27a1.862,1.862,0,0,1-1.464.747l-.582.01-.044-4.464,1.112-1.112,1.21,2.981A1.875,1.875,0,0,1,178.14,152.27Z" transform="translate(-141.013 -80.572)" fill="#c38325"/>
      <g id="Grupo_1189858" data-name="Grupo 1189858" transform="translate(17.031 56)">
        <path id="Trazado_879180" data-name="Trazado 879180" d="M27.242,383.938a6.519,6.519,0,0,1-1.89-.28.952.952,0,1,1,.552-1.821,4.636,4.636,0,0,0,3.709-.453l.682-.406a.952.952,0,1,1,.974,1.635l-.681.406A6.543,6.543,0,0,1,27.242,383.938Z" transform="translate(-24.676 -342.204)" fill="#6ee7f5"/>
        <path id="Trazado_879181" data-name="Trazado 879181" d="M142.718,114.861a.952.952,0,0,1-.952-.952,6.17,6.17,0,0,1,1.586-4.134l.848-.943a.952.952,0,1,1,1.415,1.273l-.848.943a4.27,4.27,0,0,0-1.1,2.861A.952.952,0,0,1,142.718,114.861Z" transform="translate(-127.838 -102.27)" fill="#6ee7f5"/>
        <path id="Trazado_879182" data-name="Trazado 879182" d="M329.374,59.688a.951.951,0,0,1-.794-.426l-.076-.115A2.768,2.768,0,0,0,326.19,57.9a.952.952,0,1,1,0-1.9,4.666,4.666,0,0,1,3.9,2.1l.076.115a.952.952,0,0,1-.793,1.477Z" transform="translate(-289.486 -56)" fill="#6ee7f5"/>
      </g>
      <path id="Trazado_879183" data-name="Trazado 879183" d="M361.269,420.845l-1.269,1.9v1.9h7.613v-3.806Z" transform="translate(-303.082 -321.446)" fill="#cbcbcb"/>
      <path id="Trazado_879184" data-name="Trazado 879184" d="M387.806,372.757l.952,1.529h-1.168l-3.413-4.782a.952.952,0,0,1,1.549-1.106l3.525,4.939Z" transform="translate(-324.226 -274.887)" fill="#015078"/>
      <path id="Trazado_879185" data-name="Trazado 879185" d="M285.71,95.863c0,.017,0,.033,0,.05l-.026.01a17.3,17.3,0,0,1-5.491.892h-.029a2.86,2.86,0,0,1,0-1.9h.029a15.438,15.438,0,0,0,4.891-.8l.024-.007A2.834,2.834,0,0,1,285.71,95.863Z" transform="translate(-232.598 -33.577)" fill="#2ad3b3"/>
      <path id="Trazado_879186" data-name="Trazado 879186" d="M370.855,236.845V241.6L368,239.7Z" transform="translate(-310.13 -159.333)" fill="#029532"/>
      <path id="Trazado_879187" data-name="Trazado 879187" d="M25.88,152.881l.056-.042a6.9,6.9,0,0,0,1.205,1.623l1.228,1.228v8.17a.952.952,0,0,0,.952.952h2.855a.952.952,0,0,0,.942-.817l.921-6.447,1.171-1.756a2.861,2.861,0,0,0,.178-2.86l-1.162-2.325,1.457-2.185,5.169-2.584,3.04.76,1.708,3.415a.952.952,0,0,0,1.152.477l2.855-.952a.952.952,0,0,0,.6-1.2l-1.65-4.951a2.871,2.871,0,0,0-1.459-1.664l-2.968-1.444a6.4,6.4,0,0,0-.383-3.851L43.568,136l-.614-4.1,3.14-2.512a.952.952,0,0,0,.2-1.271l-1.9-2.855a.952.952,0,0,0-1.106-.37l-2.11.739-3.054-.764a.952.952,0,0,0-.9.25l-2.855,2.855a.952.952,0,0,0-.278.673v4.193a4.521,4.521,0,0,1-.644,2.325l-.549.915a14.126,14.126,0,0,1-3.655,4.052,10.049,10.049,0,0,0-2.6,2.883,11.156,11.156,0,0,0-1.41,3.759.949.949,0,0,0-.278.143l-2.652,1.989a5.444,5.444,0,0,1-2.186.977l-3.342.668a.952.952,0,0,0-.486,1.607l.038.038a7.269,7.269,0,0,0,5.174,2.143,7.361,7.361,0,0,0,4.39-1.463Zm10.1-23.2.5,1.2a.917.917,0,0,1-.5,1.2ZM28.265,144a8.157,8.157,0,0,1,2.11-2.339,16.022,16.022,0,0,0,4.145-4.6l.549-.914a6.426,6.426,0,0,0,.8-2.108,2.8,2.8,0,0,0,2.019-1.117,2.834,2.834,0,0,0,.35-2.774l-.985-2.376.925-.925,2.808.7a.951.951,0,0,0,.545-.025l1.682-.589,1.01,1.515-2.888,2.31a.952.952,0,0,0-.347.884l.714,4.758a.949.949,0,0,0,.066.234l.229.535a4.508,4.508,0,0,1,.108,3.285s0,.01,0,.012a.952.952,0,0,0,.482,1.17l3.682,1.791a.956.956,0,0,1,.487.555l1.349,4.047-1.169.39L45.4,145.355a.952.952,0,0,0-.62-.5l-3.806-.952a.952.952,0,0,0-.656.072l-5.71,2.855a.951.951,0,0,0-.366.323l-1.9,2.855a.952.952,0,0,0-.059.954l1.409,2.819a.953.953,0,0,1-.059.953l-1.29,1.936a.952.952,0,0,0-.15.393l-.835,5.844H30.273V155.3a.952.952,0,0,0-.279-.673l-1.507-1.507a4.97,4.97,0,0,1-1.4-2.712l-.021-.123A9.262,9.262,0,0,1,28.265,144Zm-7.785,7.755a7.359,7.359,0,0,0,2.955-1.321l1.619-1.214a11.12,11.12,0,0,0,.14,1.376l.021.123c.014.083.029.167.046.249l-.523.393a5.426,5.426,0,0,1-5.424.629Z" transform="translate(0 -60.655)"/>
      <path id="Trazado_879188" data-name="Trazado 879188" d="M297.18,103.155c0-.008,0-.017,0-.025a26,26,0,0,0-1.5-5.375,4.507,4.507,0,0,0-1.93-2.236,2.84,2.84,0,0,0-1.754-.6V93.791a4.169,4.169,0,0,0,.952-2.663v-.269l1.069-1.6a3.439,3.439,0,0,0-2.861-5.346h-.774l-1.338-.892a2.824,2.824,0,0,0-4.245,3.242l.537,1.611v3.258a4.169,4.169,0,0,0,.952,2.663v.931l-4.9-3.264-2.551-8.5a3.806,3.806,0,1,0-4.924.979v2.415a.952.952,0,0,0,.279.673l.727.727.907,6.347a.951.951,0,0,0,.389.64l6.661,4.758.01.006.015.012,2.431,1.62v4.249h-4.52a3.1,3.1,0,0,0-3.093,3.093v1.665a.952.952,0,0,0,.952.952h1.673a4.922,4.922,0,0,0,.382,1.885l.113.272-3.086,1.851a3.99,3.99,0,0,0,2.053,7.411h10.284a.952.952,0,0,0,.952-.952v-3.547a6.882,6.882,0,0,0,3.834.321,4.7,4.7,0,0,0,2.4-1.286c.049-.049.1-.1.144-.151a4.681,4.681,0,0,0,1.152-3.842Zm-2.338,4.129v-5.969c.183.7.336,1.4.455,2.116l.982,7.038-2.152-.967A3.785,3.785,0,0,0,294.842,107.285ZM292.667,97.1a.949.949,0,0,1,.272.665v2.855h-1.9V97.769a.953.953,0,0,1,.755-.931A2.605,2.605,0,0,1,292.667,97.1ZM287.9,92.752a2.282,2.282,0,0,1-.673-1.624V88.667h2.346l1.461,2.191v.269a2.282,2.282,0,0,1-.673,1.624.952.952,0,0,0-.279.673v1.489h-1.9V93.425a.952.952,0,0,0-.279-.673Zm-1.085-8.037a.923.923,0,0,1,1.161-.115l1.578,1.052a.952.952,0,0,0,.528.16h1.062a1.536,1.536,0,0,1,1.278,2.387l-.437.655-1.111-1.666a.952.952,0,0,0-.792-.424h-3.121l-.369-1.106A.916.916,0,0,1,286.817,84.716ZM275.81,78.736a1.894,1.894,0,0,1,1.228.451,15.411,15.411,0,0,1-2.85.463A1.9,1.9,0,0,1,275.81,78.736Zm-1.664,2.826a17.314,17.314,0,0,0,3.535-.574,1.878,1.878,0,0,1-.25.646l-.018.005-2.3.768A1.9,1.9,0,0,1,274.146,81.562Zm9.174,15.916-5.674-4.053-.894-6.258a.952.952,0,0,0-.269-.538l-.673-.673V84.18l1.274-.424,2.573,8.576a.952.952,0,0,0,.384.518l4.744,3.163Zm1.6,1.1,1.755-1.755H289.3a2.841,2.841,0,0,0-.164.952v7.613h-1.9v-4.758a.952.952,0,0,0-.424-.792Zm-5.3,10.615v-.714a1.191,1.191,0,0,1,1.19-1.189h9.278a.952.952,0,0,0,.952-.952v-3.806h1.9v4.758a1.905,1.905,0,0,1-1.9,1.9Zm2.063,9.94a.952.952,0,0,0-.16.528v.952H279.8a2.086,2.086,0,0,1-1.074-3.875l2.846-1.708,1.093,2.624Zm7.453,1.479h-5.71v-.663l.826-1.24h4.883Zm6.877-5c-.028.03-.057.06-.086.09a2.8,2.8,0,0,1-1.43.767,4.982,4.982,0,0,1-2.85-.261l-2.092-.84-2.5-3.5a.952.952,0,1,0-1.549,1.105l2.733,3.83h-3.862l-1.9-4.556a3.027,3.027,0,0,1-.235-1.153h8.794a3.784,3.784,0,0,0,1.393-.265l4.162,1.87.089.627a2.784,2.784,0,0,1-.671,2.288Z" transform="translate(-225.553 -18.354)"/>
      <circle id="Elipse_11555" data-name="Elipse 11555" cx="0.833" cy="0.833" r="0.833" transform="translate(38.481 67.163)"/>
      <path id="Trazado_879189" data-name="Trazado 879189" d="M30.589,383.02l.681-.406a.952.952,0,1,0-.974-1.635l-.682.406a4.636,4.636,0,0,1-3.709.453.952.952,0,1,0-.552,1.821,6.542,6.542,0,0,0,5.234-.639Z" transform="translate(-7.647 -286.204)"/>
      <path id="Trazado_879190" data-name="Trazado 879190" d="M144.2,108.835l-.848.943a6.17,6.17,0,0,0-1.586,4.134.952.952,0,0,0,1.9,0,4.27,4.27,0,0,1,1.1-2.861l.848-.943a.952.952,0,1,0-1.415-1.273Z" transform="translate(-110.807 -46.273)"/>
      <path id="Trazado_879191" data-name="Trazado 879191" d="M326.19,56a.952.952,0,0,0,0,1.9,2.768,2.768,0,0,1,2.314,1.243l.076.115a.952.952,0,1,0,1.587-1.051l-.076-.115A4.666,4.666,0,0,0,326.19,56Z" transform="translate(-272.455 0)"/>
    </g>
  </g>
</svg>
