<svg xmlns="http://www.w3.org/2000/svg" width="87.435" height="87.434" viewBox="0 0 87.435 87.434">
  <g id="Grupo_1189861" data-name="Grupo 1189861" transform="translate(-914 -3839.299)">
    <g id="Grupo_1189679" data-name="Grupo 1189679" transform="translate(42.888 3562.135)">
      <g id="Grupo_1188789" data-name="Grupo 1188789" transform="translate(582.113 -5836.835)">
        <rect id="Rectángulo_400898" data-name="Rectángulo 400898" width="72.382" height="72.381" rx="36.191" transform="translate(296.527 6121.525)" fill="#ffd907"/>
        <rect id="Rectángulo_400907" data-name="Rectángulo 400907" width="78.382" height="78.381" rx="39.191" transform="translate(293.527 6118.525)" fill="none"/>
        <g id="Grupo_1098742" data-name="Grupo 1098742" transform="translate(289 6114)">
          <g id="Rectángulo_400898-2" data-name="Rectángulo 400898" transform="translate(0)" fill="none" stroke="#fff" stroke-width="2" opacity="0.859">
            <rect width="87.435" height="87.434" rx="43.717" stroke="none"/>
            <rect x="1" y="1" width="85.435" height="85.434" rx="42.717" fill="none"/>
          </g>
          <g id="Rectángulo_400907-2" data-name="Rectángulo 400907" transform="translate(0)" fill="none" stroke="#0f1f33" stroke-linecap="round" stroke-width="2">
            <rect width="87.435" height="87.434" rx="43.717" stroke="none"/>
            <rect x="1" y="1" width="85.435" height="85.434" rx="42.717" fill="none"/>
          </g>
        </g>
      </g>
    </g>
    <g id="filled_outline" data-name="filled outline" transform="translate(904.314 3838.906)">
      <path id="Trazado_879192" data-name="Trazado 879192" d="M84.637,71.943,40,72.038V37.321L62.318,24,84.637,37.226Z" transform="translate(-7.173 -7.174)" fill="#0292c9"/>
      <path id="Trazado_879193" data-name="Trazado 879193" d="M155.536,166.831l.6-2.089a31.649,31.649,0,0,0-3.981-26.65,23.619,23.619,0,0,0-5.924-6.118,12.959,12.959,0,0,0-4.991-2.162,5.4,5.4,0,0,0-2.765.172l-1.963.654a3.72,3.72,0,0,0-2.277,2.147l-1.013,2.531-4.938,2.469a1.653,1.653,0,0,0-.636,2.4l2.268,3.4,4.882-.444v23.684Z" transform="translate(-85.512 -101.957)" fill="#fbb540"/>
      <path id="Trazado_879194" data-name="Trazado 879194" d="M259.435,138.235a3.306,3.306,0,1,1-6.613,0v-1.728a7.277,7.277,0,0,0-1.036-3.742l-.842-1.4a9.495,9.495,0,0,0-1.253-1.649c.058,0,.115,0,.173,0a5.378,5.378,0,0,1,1.058.1,12.955,12.955,0,0,1,4.992,2.163q.524.375,1.027.777a7.266,7.266,0,0,1,2.5,5.481Z" transform="translate(-195.197 -101.961)" fill="#fbb540"/>
      <path id="Trazado_879195" data-name="Trazado 879195" d="M129.054,203.6l-.8.531-.615-.922a1.654,1.654,0,0,1,.636-2.4l1.626-.813.005,0,.187.56A2.65,2.65,0,0,1,129.054,203.6Z" transform="translate(-85.512 -164.988)" fill="#fbb540"/>
      <path id="Trazado_879196" data-name="Trazado 879196" d="M274.853,280.991l-5.067,5.067-5.067-5.067a2.455,2.455,0,1,1,3.472-3.472l1.6,1.6,1.6-1.6a2.455,2.455,0,0,1,3.472,3.472Z" transform="translate(-208.028 -233.853)" fill="#e82f3e"/>
      <g id="Grupo_1189860" data-name="Grupo 1189860" transform="translate(41.854 27.749)">
        <circle id="Elipse_11556" data-name="Elipse 11556" cx="1.137" cy="1.137" r="1.137" transform="translate(8.538 4.99)" fill="#d18d28"/>
        <path id="Trazado_879197" data-name="Trazado 879197" d="M199.247,248.5l3.677-.334a.963.963,0,0,0,.774-.528.776.776,0,1,1,1.357.751,2.343,2.343,0,0,1-1.733,1.108l-4,.459Z" transform="translate(-191.82 -235.065)" fill="#d18d28"/>
        <path id="Trazado_879198" data-name="Trazado 879198" d="M259.435,138.235a3.306,3.306,0,1,1-6.613,0v-1.728a7.277,7.277,0,0,0-1.036-3.742l-.842-1.4a9.495,9.495,0,0,0-1.253-1.649c.058,0,.115,0,.173,0a5.378,5.378,0,0,1,1.058.1,12.955,12.955,0,0,1,4.992,2.163l.476.341a7.016,7.016,0,0,1,.551.436,7.266,7.266,0,0,1,2.5,5.481Z" transform="translate(-237.051 -129.71)" fill="#d18d28"/>
        <path id="Trazado_879199" data-name="Trazado 879199" d="M129.054,203.6l-.8.531-.615-.922a1.654,1.654,0,0,1,.636-2.4l1.626-.813.005,0,.187.56A2.65,2.65,0,0,1,129.054,203.6Z" transform="translate(-127.366 -192.737)" fill="#d18d28"/>
      </g>
      <path id="Trazado_879200" data-name="Trazado 879200" d="M130.609,279.706l.223.064a7.671,7.671,0,0,1,5.564,7.376v.1H115.73l-.5-1.728a20.665,20.665,0,0,1,2.317-17.172l.663-1.042.191-.382A5.29,5.29,0,0,1,123.132,264h.038v3.306l2.88,1.44a4.753,4.753,0,0,1,2.535,3.319l.371,1.854.084.084a2.48,2.48,0,0,1,.183,3.3l-.267.333Z" transform="translate(-73.811 -222.375)" fill="#fbfdff"/>
      <path id="Trazado_879201" data-name="Trazado 879201" d="M180.393,391.718a5.41,5.41,0,0,1-3.851-1.595l-.3-.3a.827.827,0,1,1,1.169-1.169l.3.3a3.792,3.792,0,0,0,5.643-.312l.266-.333a.827.827,0,1,1,1.291,1.033l-.267.333A5.419,5.419,0,0,1,180.393,391.718Z" transform="translate(-129.121 -333.561)" fill="#cbcbcb"/>
      <circle id="Elipse_11557" data-name="Elipse 11557" cx="1.137" cy="1.137" r="1.137" transform="translate(49.875 49.581)" fill="#cbcbcb"/>
      <path id="Trazado_879202" data-name="Trazado 879202" d="M265.943,268.8a3.26,3.26,0,0,0-2.32.961l-1.011,1.011-1.011-1.011a3.282,3.282,0,1,0-4.641,4.641l5.067,5.067a.827.827,0,0,0,1.169,0l5.068-5.067a3.282,3.282,0,0,0-2.321-5.6Zm1.151,4.433-4.483,4.483-4.483-4.483a1.628,1.628,0,1,1,2.3-2.3l1.6,1.6a.827.827,0,0,0,1.169,0l1.6-1.6a1.628,1.628,0,1,1,2.3,2.3Z" transform="translate(-200.854 -226.679)"/>
      <path id="Trazado_879203" data-name="Trazado 879203" d="M77.885,29.341,55.567,16.115a.827.827,0,0,0-.845,0L32.4,29.438a.827.827,0,0,0-.4.71V64.865a.827.827,0,0,0,.827.827h0l44.637-.1a.827.827,0,0,0,.825-.827V30.052a.827.827,0,0,0-.4-.711ZM48.532,42.52v2.411a.827.827,0,0,0,.457.739l2.881,1.44a3.9,3.9,0,0,1,2.094,2.742l.371,1.854a.827.827,0,0,0,.226.422l.084.084a1.651,1.651,0,0,1,.122,2.2l-.266.333-.266.333a3.792,3.792,0,0,1-5.643.312l-.3-.3a.827.827,0,1,0-1.169,1.169l.3.3a5.445,5.445,0,0,0,7.7,0l1.029,1.287a.827.827,0,0,0,.419.278l.222.064a6.878,6.878,0,0,1,4.913,5.754H42.53L42.21,62.9a19.81,19.81,0,0,1,2.224-16.485l.663-1.042a.831.831,0,0,0,.042-.074l.191-.382A4.435,4.435,0,0,1,48.532,42.52Zm8.747,14.088L56.2,55.257a3.3,3.3,0,0,0-.291-4.116l-.323-1.613a5.544,5.544,0,0,0-2.976-3.9L50.185,44.42V41.929l3.381-.307a.827.827,0,0,0,.664-.454l.827-1.653a.827.827,0,1,0-1.479-.739l-.621,1.241-8.144.74-.922-1.383L44,39.3a3.484,3.484,0,0,0,1.407-3.87L48.075,34.1a.827.827,0,0,0,.4-.432l1.013-2.531a2.888,2.888,0,0,1,1.771-1.67l1.963-.654a4.566,4.566,0,0,1,.929-.2,8.687,8.687,0,0,1,.888,1.22l.842,1.4a6.448,6.448,0,0,1,.919,3.318v1.728a4.133,4.133,0,1,0,8.266,0,8.056,8.056,0,0,0-.063-1q.5.641.95,1.32a30.966,30.966,0,0,1,4.965,13.5,30.645,30.645,0,0,1-1.089,12.458L69.4,63.96l-6.032.013a8.538,8.538,0,0,0-6.093-7.365ZM42.819,37.765a.827.827,0,0,1,.318-1.2l.744-.372a1.827,1.827,0,0,1-.8,1.731L42.976,38Zm18.415-6.319a6.461,6.461,0,0,1,2.177,4.829,2.466,2.466,0,0,1-1.371,2.218,2.492,2.492,0,0,1-2.218,0,2.466,2.466,0,0,1-1.371-2.218V34.547A8.1,8.1,0,0,0,57.3,30.38l-.842-1.4c-.024-.04-.05-.078-.075-.118a12.045,12.045,0,0,1,3.854,1.83Q60.746,31.054,61.234,31.446Zm15.4,32.5-5.506.012.281-.935A32.289,32.289,0,0,0,72.558,49.9a32.627,32.627,0,0,0-5.231-14.22A24.345,24.345,0,0,0,62.3,30.181q-.3-.262-.626-.5a.832.832,0,0,0-.079-.049c-.132-.1-.264-.2-.4-.291a13.7,13.7,0,0,0-5.31-2.3,6.231,6.231,0,0,0-3.188.2l-1.963.654a4.538,4.538,0,0,0-2.784,2.624l-.9,2.24L42.4,35.088a2.48,2.48,0,0,0-.954,3.594l.614.921,1.653,2.48a.827.827,0,0,0,.763.365l.736-.067a6.142,6.142,0,0,0-1.359,1.8l-.172.344-.64,1.006a21.46,21.46,0,0,0-2.41,17.859l.195.633-7.171.015V30.617L55.147,17.788l21.49,12.735Z" transform="translate(0 0)"/>
      <circle id="Elipse_11558" data-name="Elipse 11558" cx="1.137" cy="1.137" r="1.137" transform="translate(49.875 49.581)"/>
      <circle id="Elipse_11559" data-name="Elipse 11559" cx="1.137" cy="1.137" r="1.137" transform="translate(50.392 32.739)"/>
    </g>
  </g>
</svg>
