<svg xmlns="http://www.w3.org/2000/svg" width="84.208" height="84.207" viewBox="0 0 84.208 84.207">
  <g id="Grupo_1189842" data-name="Grupo 1189842" transform="translate(-768 -11201)">
    <g id="Grupo_1189577" data-name="Grupo 1189577" transform="translate(-104.726 10922.223)">
      <g id="Grupo_1188789" data-name="Grupo 1188789" transform="translate(583.726 -5835.222)">
        <rect id="Rectángulo_400898" data-name="Rectángulo 400898" width="75.49" height="75.489" rx="37.744" transform="translate(293.36 6118.358)" fill="#ffd907"/>
        <rect id="Rectángulo_400907" data-name="Rectángulo 400907" width="75.49" height="75.489" rx="37.744" transform="translate(293.36 6118.358)" fill="none"/>
        <g id="Grupo_1098742" data-name="Grupo 1098742" transform="translate(289 6114)">
          <g id="Rectángulo_400898-2" data-name="Rectángulo 400898" transform="translate(0)" fill="none" stroke="#fff" stroke-width="1" opacity="0.859">
            <rect width="84.208" height="84.207" rx="42.104" stroke="none"/>
            <rect x="0.5" y="0.5" width="83.208" height="83.207" rx="41.604" fill="none"/>
          </g>
          <g id="Rectángulo_400907-2" data-name="Rectángulo 400907" transform="translate(0)" fill="none" stroke="#0f1f33" stroke-linecap="round" stroke-width="1">
            <rect width="84.208" height="84.207" rx="42.104" stroke="none"/>
            <rect x="0.5" y="0.5" width="83.208" height="83.207" rx="41.604" fill="none"/>
          </g>
        </g>
      </g>
    </g>
    <g id="filled_outline" data-name="filled outline" transform="translate(724.986 11200)">
      <path id="Trazado_878998" data-name="Trazado 878998" d="M392,376.13V368h5.42v9.936a3.613,3.613,0,0,1-3.613,3.613H392Z" transform="translate(-290.953 -312.256)" fill="#f6bb92"/>
      <path id="Trazado_878999" data-name="Trazado 878999" d="M231.127,168.259l.762-1.807.676-1.6a4.7,4.7,0,0,0-1.01-5.15,4.7,4.7,0,0,1-1.378-3.326V152H210.351v4.374a4.7,4.7,0,0,1-1.378,3.326,4.7,4.7,0,0,0-1.01,5.149l.716,1.7Z" transform="translate(-127.37 -120.644)" fill="#834b10"/>
      <path id="Trazado_879000" data-name="Trazado 879000" d="M255.485,279.175a5.42,5.42,0,0,0-4.529-5.346l-.891-.148L245.4,272.9l-3.465,3.487-3.5-3.514-6.435.8v23.485h18.066v-7.226a5.111,5.111,0,0,0,.718-6.323h4.7Z" transform="translate(-149.019 -227.872)" fill="#85bc94"/>
      <path id="Trazado_879001" data-name="Trazado 879001" d="M251.872,39.356H232v-5.42a9.936,9.936,0,1,1,19.872,0Z" transform="translate(-149.019 -7.097)" fill="#834b10"/>
      <path id="Trazado_879002" data-name="Trazado 879002" d="M249.162,93.42h-.9V88H235.613v5.42h-.9a2.71,2.71,0,1,0,0,5.42h.9v.9a6.323,6.323,0,1,0,12.646,0v-.9h.9a2.71,2.71,0,0,0,0-5.42Z" transform="translate(-149.019 -63.87)" fill="#f6bb92"/>
      <path id="Trazado_879003" data-name="Trazado 879003" d="M153.211,279.066v17.326H133a17.438,17.438,0,0,1,2.34-2.9l.067-.067a17.9,17.9,0,0,0,3.806-5.616c.355-.826.708-1.653.965-2.253l.387-.9h-2.6a3.616,3.616,0,0,1-3.5-2.737l-.445-1.779-.116-.465a1.807,1.807,0,0,1,1.752-2.245h3.106a7.718,7.718,0,0,1,3.352-4.18l.4-.236a7.046,7.046,0,0,1,6.772-.261l.04.02A7.043,7.043,0,0,1,153.211,279.066Z" transform="translate(-61.197 -227.098)" fill="#bd9070"/>
      <path id="Trazado_879004" data-name="Trazado 879004" d="M269.42,321.807v2.563a2.71,2.71,0,0,1-5.42,0V320h3.613Z" transform="translate(-177.406 -269.675)" fill="#9e785d"/>
      <path id="Trazado_879005" data-name="Trazado 879005" d="M165.069,361.538l-1.807,1.807a.9.9,0,0,1-.639.264H160.43l.387-.9h-2.6a3.6,3.6,0,0,1-2.388-.9h6.42l1.541-1.542a.9.9,0,1,1,1.278,1.278Z" transform="translate(-81.449 -305.155)" fill="#9e785d"/>
      <path id="Trazado_879006" data-name="Trazado 879006" d="M143.6,320v1.092a1.618,1.618,0,0,1-1.618,1.618h-1.318l-.116-.465A1.807,1.807,0,0,1,142.3,320Z" transform="translate(-67.843 -269.675)" fill="#9e785d"/>
      <path id="Trazado_879007" data-name="Trazado 879007" d="M185.724,414.8a.9.9,0,0,1-.722-1.445,16.669,16.669,0,0,0,2.483-4.739.9.9,0,1,1,1.714.571,18.473,18.473,0,0,1-2.751,5.251A.9.9,0,0,1,185.724,414.8Z" transform="translate(-107.167 -347.737)" fill="#9e785d"/>
      <g id="Grupo_1189841" data-name="Grupo 1189841" transform="translate(85.691 23.226)">
        <path id="Trazado_879008" data-name="Trazado 879008" d="M256,86.323a6.159,6.159,0,0,0,3.771-3.555l.745-1.864L256,80Z" transform="translate(-256 -80)" fill="#834b10"/>
        <path id="Trazado_879009" data-name="Trazado 879009" d="M296,80.9l.106.159a11.814,11.814,0,0,0,9.83,5.261V80Z" transform="translate(-291.484 -80)" fill="#834b10"/>
        <circle id="Elipse_11531" data-name="Elipse 11531" cx="1.129" cy="1.129" r="1.129" transform="translate(2.71 7)" fill="#834b10"/>
        <circle id="Elipse_11532" data-name="Elipse 11532" cx="1.129" cy="1.129" r="1.129" transform="translate(9.484 7)" fill="#834b10"/>
        <path id="Trazado_879010" data-name="Trazado 879010" d="M298.71,149.418H296.9a.9.9,0,0,1-.808-1.307L297.9,144.5a.9.9,0,1,1,1.616.808l-1.153,2.306h.345a.9.9,0,1,1,0,1.807Z" transform="translate(-291.484 -136.772)" fill="#834b10"/>
      </g>
      <path id="Trazado_879011" data-name="Trazado 879011" d="M360.9,280.13a.9.9,0,0,1-.9-.9V272.9a.9.9,0,1,1,1.807,0v6.323A.9.9,0,0,1,360.9,280.13Z" transform="translate(-262.566 -227.095)" fill="#c3c3c3"/>
      <circle id="Elipse_11533" data-name="Elipse 11533" cx="2.71" cy="2.71" r="2.71" transform="translate(95.627 52.131)" fill="#e4e4e2"/>
      <circle id="Elipse_11534" data-name="Elipse 11534" cx="0.903" cy="0.903" r="0.903" transform="translate(97.434 53.938)" fill="#c3c3c3"/>
      <path id="Trazado_879012" data-name="Trazado 879012" d="M272.259,431.226H258.71a2.71,2.71,0,1,1,0-5.42h.9A1.807,1.807,0,0,1,261.42,424h.155a1.807,1.807,0,0,1,1.277.529l1.277,1.277h8.13Z" transform="translate(-170.309 -361.933)" fill="#f6bb92"/>
      <path id="Trazado_879013" data-name="Trazado 879013" d="M132.323,421.622a2.254,2.254,0,0,0,1.443,3.1l3.477.982a2.71,2.71,0,1,0,1.474-5.215l-.869-.246a1.807,1.807,0,0,0-1.247-2.23l-.149-.042a1.806,1.806,0,0,0-1.373.162,5.483,5.483,0,0,0-2.32,2.528Z" transform="translate(-60.419 -356.521)" fill="#f6bb92"/>
      <path id="Trazado_879014" data-name="Trazado 879014" d="M74.286,230.806a2.268,2.268,0,0,1,1.6.664l1.143,1.143,1.142-1.142a2.268,2.268,0,0,1,3.8,1.054,2.772,2.772,0,0,1-1.152,2.979l-3.794,2.529L73.238,235.5a2.772,2.772,0,0,1-1.152-2.979A2.268,2.268,0,0,1,74.286,230.806Z" transform="translate(-7.087 -190.552)" fill="#dc4d41"/>
      <path id="Trazado_879015" data-name="Trazado 879015" d="M256,136h.9v5.42H256Z" transform="translate(-170.309 -106.451)" fill="#eeb58e"/>
      <path id="Trazado_879016" data-name="Trazado 879016" d="M376,136h.9v5.42H376Z" transform="translate(-276.76 -106.451)" fill="#eeb58e"/>
      <path id="Trazado_879017" data-name="Trazado 879017" d="M288.992,243.712l3.5,3.514,3.465-3.487a.9.9,0,0,1-.755-.891V240h-5.42v2.816a.9.9,0,0,1-.791.9Z" transform="translate(-199.576 -198.708)" fill="#f6bb92"/>
      <path id="Trazado_879018" data-name="Trazado 879018" d="M270.323,191.226A6.323,6.323,0,0,1,264,184.9V184h12.646v.9A6.323,6.323,0,0,1,270.323,191.226Z" transform="translate(-177.406 -149.031)" fill="#85bc94"/>
      <circle id="Elipse_11535" data-name="Elipse 11535" cx="0.903" cy="0.903" r="0.903" transform="translate(81.175 50.325)" fill="#9e785d"/>
      <circle id="Elipse_11536" data-name="Elipse 11536" cx="1.129" cy="1.129" r="1.129" transform="translate(88.401 30.227)"/>
      <circle id="Elipse_11537" data-name="Elipse 11537" cx="1.129" cy="1.129" r="1.129" transform="translate(95.176 30.227)"/>
      <circle id="Elipse_11538" data-name="Elipse 11538" cx="0.903" cy="0.903" r="0.903" transform="translate(97.434 53.938)"/>
      <path id="Trazado_879019" data-name="Trazado 879019" d="M158.513,46.531l.834-1.975a5.588,5.588,0,0,0-1.2-6.139,3.8,3.8,0,0,1-1.113-2.687l.046-8.891a10.839,10.839,0,1,0-21.679,0V35.73a3.828,3.828,0,0,1-1.113,2.687,5.605,5.605,0,0,0-1.2,6.139l.415.987a8.611,8.611,0,0,0-3.238,3.879h-2.481a2.692,2.692,0,0,0-2.135,1.041,2.735,2.735,0,0,0-.179.257,2.685,2.685,0,0,0-.4,1.455,2.741,2.741,0,0,0,.082.614l.116.465.445,1.779a4.509,4.509,0,0,0,4.381,3.421h1.229l-.813,1.9c-.069.162-.143.325-.218.486a2.732,2.732,0,0,0-.539-.218l-.149-.042a2.692,2.692,0,0,0-2.06.243,6.428,6.428,0,0,0-2.7,2.945l-.435.963a3.156,3.156,0,0,0,.465,3.336q-.261.366-.5.74a.9.9,0,0,0,.76,1.392h31.05a4.521,4.521,0,0,0,4.516-4.516V51.3a6.319,6.319,0,0,0-2.176-4.772Zm.369,4.772v3.539h-3.325c-.1-.13-.2-.257-.308-.379a3.622,3.622,0,0,0-2.69-3.12V46.423l1.658.276h0l.89.149A4.513,4.513,0,0,1,158.882,51.3Zm-5.215,10.192-.011.015c-.014.018-.028.037-.041.056l-.009.015c-.013.02-.025.04-.037.061l-.005.011c-.011.023-.023.045-.033.069l0,.007c-.01.025-.019.05-.027.076l0,.008c-.007.025-.014.051-.019.077,0,.007,0,.015,0,.022s-.008.044-.01.066,0,.06,0,.09v.9h-5.949L146.5,61.959a2.721,2.721,0,0,0-.265-.231V51.967a7.956,7.956,0,0,0-.463-2.677.9.9,0,0,0,1.186-.231l2.39-3.186a1.824,1.824,0,0,0,.2.047l1.2.2v5.221a3.613,3.613,0,1,0,3.894,5.524,4.2,4.2,0,0,1-.919,4.562q-.032.032-.06.066ZM139.009,30.452h0v3.613a1.807,1.807,0,1,1,0-3.613Zm16.261,1.807a1.809,1.809,0,0,1-1.807,1.807V30.452a1.809,1.809,0,0,1,1.807,1.807Zm-3.613,1.807h-5.765l1.153-2.306a.9.9,0,1,0-1.616-.808l-1.557,3.114h-3.055V29.686a7.059,7.059,0,0,0,2.8-3.358l.145-.363a12.6,12.6,0,0,0,7.891,4.357Zm-7.231,1.807h7.231a5.42,5.42,0,0,1-10.839,0Zm1.811,7.226a7.217,7.217,0,0,0,1.807-.229v1.27a1.822,1.822,0,0,0,.046.4l-1.853,2.471-1.859-2.479a1.8,1.8,0,0,0,.053-.426V42.87A7.217,7.217,0,0,0,146.237,43.1Zm-1.807,11.6a1.807,1.807,0,1,1-3.613,0V51.228h2.336l1.277,1.277Zm9.033.147a1.807,1.807,0,1,1-1.807-1.807A1.807,1.807,0,0,1,153.463,54.841Zm4.219-10.986-.712,1.686a6.3,6.3,0,0,0-1.564-.475l-.891-.149h0l-4.665-.778V42.126a7.229,7.229,0,0,0,3.613-6.254,3.59,3.59,0,0,0,1.76-.459v.317a5.6,5.6,0,0,0,1.644,3.966,3.787,3.787,0,0,1,.815,4.159ZM146.237,17.807a9.034,9.034,0,0,1,9.033,9.031v2.295a3.59,3.59,0,0,0-1.807-.486c-.282,0-.562-.011-.834-.032a10.838,10.838,0,0,1-8.244-4.826l-.106-.159a.9.9,0,0,0-1.59.166l-.745,1.864a5.243,5.243,0,0,1-3.1,2.992,3.587,3.587,0,0,0-1.639.482V26.839a9.043,9.043,0,0,1,9.033-9.033ZM135.562,39.695A5.571,5.571,0,0,0,137.2,35.73v-.343a3.59,3.59,0,0,0,1.807.486,7.229,7.229,0,0,0,3.613,6.254v1.982l-2.02.252c-.171-.053-.345-.1-.525-.146a7.94,7.94,0,0,0-4.994.446l-.339-.8a3.8,3.8,0,0,1,.817-4.161Zm-7.787,11.533h.4v.188a.716.716,0,0,1-.715.715h-.584a.13.13,0,0,1,0-.016.911.911,0,0,1,.009-.113c0-.011,0-.023.005-.034a.892.892,0,0,1,.032-.127l.005-.013a.92.92,0,0,1,.048-.11l.017-.031a.912.912,0,0,1,.074-.113.9.9,0,0,1,.711-.346Zm6.719,7.226a.9.9,0,0,0,.639-.265l1.807-1.807a.9.9,0,0,0-1.277-1.277l-1.542,1.542h-4.032a2.705,2.705,0,0,1-2.629-2.053l-.164-.657h.161a2.524,2.524,0,0,0,2.521-2.521v-.188h.9a.9.9,0,0,0,.857-.618,6.815,6.815,0,0,1,2.958-3.69l.4-.237a6.137,6.137,0,0,1,4.568-.711q.294.07.569.164a6.111,6.111,0,0,1,.758.315l.048.025a6.074,6.074,0,0,1,1.149.747l.029.023a6.12,6.12,0,0,1,1.7,2.266.9.9,0,0,0-.391-.09h-3.613a.9.9,0,0,0-.9.9v4.37a3.606,3.606,0,0,0,5.42,3.126v3.343a2.711,2.711,0,0,0-2.557,1.807h-.153a3.61,3.61,0,0,0-3.127,5.42H134a3.616,3.616,0,0,0-.068-3.743,18.6,18.6,0,0,0,1.415-3.2.9.9,0,1,0-1.714-.572,16.776,16.776,0,0,1-1.068,2.5,3.609,3.609,0,0,0-.706-.283l-.148-.042a2.682,2.682,0,0,0-.149-.725c.216-.416.417-.84.6-1.265l1.118-2.608Zm-8.447,7.018.435-.963a4.61,4.61,0,0,1,1.938-2.111.9.9,0,0,1,.686-.081l.149.042a.9.9,0,0,1,.624,1.115.9.9,0,0,0,.623,1.115l.869.246a1.807,1.807,0,1,1-.982,3.477l-3.478-.982a1.35,1.35,0,0,1-.865-1.856Zm32.836.209a2.713,2.713,0,0,1-2.71,2.71H141.72a1.807,1.807,0,0,1,0-3.613h.9a.9.9,0,0,0,.9-.9.9.9,0,0,1,.9-.9h.155a.921.921,0,0,1,.639.265l1.277,1.277a.9.9,0,0,0,.639.265h7.226a.9.9,0,0,0,.9-.9v-1.45a6.019,6.019,0,0,0,1.219-5.777h2.394Z" transform="translate(-53.319 0)"/>
      <path id="Trazado_879020" data-name="Trazado 879020" d="M75.766,225.209a3.171,3.171,0,0,0-5.318-1.473l-.5.5-.5-.5a3.171,3.171,0,0,0-5.318,1.473,3.683,3.683,0,0,0,1.527,3.95l3.794,2.529a.9.9,0,0,0,1,0l3.794-2.529a3.683,3.683,0,0,0,1.527-3.95Zm-2.529,2.447-3.293,2.2-3.293-2.2a1.873,1.873,0,0,1-.776-2.009,1.365,1.365,0,0,1,2.288-.634l1.142,1.142a.9.9,0,0,0,1.277,0l1.142-1.142a1.364,1.364,0,0,1,2.288.634,1.873,1.873,0,0,1-.777,2.009Z" transform="translate(0 -183.457)"/>
      <circle id="Elipse_11539" data-name="Elipse 11539" cx="0.903" cy="0.903" r="0.903" transform="translate(81.175 50.325)"/>
    </g>
  </g>
</svg>
