<svg xmlns="http://www.w3.org/2000/svg" width="84.208" height="84.207" viewBox="0 0 84.208 84.207">
  <g id="Grupo_1189886" data-name="Grupo 1189886" transform="translate(-768.176 -4577.191)">
    <g id="Grupo_1189685" data-name="Grupo 1189685" transform="translate(-104.55 4298.414)">
      <g id="Grupo_1188789" data-name="Grupo 1188789" transform="translate(583.726 -5835.222)">
        <rect id="Rectángulo_400898" data-name="Rectángulo 400898" width="75.49" height="75.489" rx="37.744" transform="translate(293.36 6118.358)" fill="#ffd907"/>
        <rect id="Rectángulo_400907" data-name="Rectángulo 400907" width="75.49" height="75.489" rx="37.744" transform="translate(293.36 6118.358)" fill="none"/>
        <g id="Grupo_1098742" data-name="Grupo 1098742" transform="translate(289 6114)">
          <g id="Rectángulo_400898-2" data-name="Rectángulo 400898" transform="translate(0)" fill="none" stroke="#fff" stroke-width="1" opacity="0.859">
            <rect width="84.208" height="84.207" rx="42.104" stroke="none"/>
            <rect x="0.5" y="0.5" width="83.208" height="83.207" rx="41.604" fill="none"/>
          </g>
          <g id="Rectángulo_400907-2" data-name="Rectángulo 400907" transform="translate(0)" fill="none" stroke="#0f1f33" stroke-linecap="round" stroke-width="1">
            <rect width="84.208" height="84.207" rx="42.104" stroke="none"/>
            <rect x="0.5" y="0.5" width="83.208" height="83.207" rx="41.604" fill="none"/>
          </g>
        </g>
      </g>
    </g>
    <g id="caninos" transform="translate(779.997 4593.333)">
      <g id="Grupo_1189865" data-name="Grupo 1189865" transform="translate(30.843 36.284)">
        <path id="Trazado_879234" data-name="Trazado 879234" d="M285.778,329.829a5.171,5.171,0,0,1-4.608,2.2v8.6c0,3.125,3,5.658,6.708,5.658.072,0,.143,0,.215,0a6.459,6.459,0,0,0,6.066-3.574,7.034,7.034,0,0,0,.651-2.343,8.072,8.072,0,0,0-1.48-5.521C291.739,332.677,288.205,330.86,285.778,329.829Z" transform="translate(-281.17 -329.829)" fill="#c6805d" fill-rule="evenodd"/>
      </g>
      <g id="Grupo_1189866" data-name="Grupo 1189866" transform="translate(13.507 15.789)">
        <path id="Trazado_879235" data-name="Trazado 879235" d="M134.793,143.859a12.121,12.121,0,0,0-7.9,12.921c.4,3.524-.393,6.6-1.711,8.067a6.077,6.077,0,0,1-2.059,1.573,9.506,9.506,0,0,0,3.7,7.6,8.072,8.072,0,0,1,1.48-5.521c1.592-2.175,5.125-3.991,7.552-5.023a2.417,2.417,0,0,1-.3-1.153c0-1.851,2.2-3.353,4.9-3.353s4.9,1.5,4.9,3.353a2.412,2.412,0,0,1-.3,1.153c2.427,1.031,5.96,2.848,7.553,5.023a8.073,8.073,0,0,1,1.48,5.521,9.506,9.506,0,0,0,3.7-7.6,6.117,6.117,0,0,1-2.063-1.573c-1.318-1.467-2.112-4.543-1.707-8.067a12.125,12.125,0,0,0-7.9-12.921,18.661,18.661,0,0,0-11.332,0Z" transform="translate(-123.121 -142.978)" fill="#f4aa73" fill-rule="evenodd"/>
      </g>
      <g id="Grupo_1189867" data-name="Grupo 1189867" transform="translate(17.165 36.284)">
        <path id="Trazado_879236" data-name="Trazado 879236" d="M165.538,329.829c-2.427,1.031-5.96,2.848-7.552,5.023a8.073,8.073,0,0,0-1.48,5.521,7.035,7.035,0,0,0,.651,2.343,6.464,6.464,0,0,0,6.066,3.574c.072,0,.143,0,.215,0,3.7,0,6.705-2.533,6.705-5.658v-8.6A5.169,5.169,0,0,1,165.538,329.829Z" transform="translate(-156.464 -329.829)" fill="#c6805d" fill-rule="evenodd"/>
      </g>
      <g id="Grupo_1189868" data-name="Grupo 1189868" transform="translate(6.351 13.497)">
        <path id="Trazado_879237" data-name="Trazado 879237" d="M76.708,125.259c-12.949-11.479-24.24,11.117-16.049,21.319a3.564,3.564,0,0,0,4.378,1.243,6.078,6.078,0,0,0,2.059-1.573c1.318-1.467,2.112-4.543,1.711-8.067a12.122,12.122,0,0,1,7.9-12.921Z" transform="translate(-57.881 -122.086)" fill="#c6805d" fill-rule="evenodd"/>
      </g>
      <g id="Grupo_1189869" data-name="Grupo 1189869" transform="translate(36.511 13.497)">
        <path id="Trazado_879238" data-name="Trazado 879238" d="M332.84,125.259a12.125,12.125,0,0,1,7.9,12.921c-.405,3.524.389,6.6,1.707,8.067a6.115,6.115,0,0,0,2.063,1.573,3.565,3.565,0,0,0,4.378-1.243C357.08,136.376,345.786,113.78,332.84,125.259Z" transform="translate(-332.84 -122.086)" fill="#c6805d" fill-rule="evenodd"/>
      </g>
      <g id="Grupo_1189870" data-name="Grupo 1189870" transform="translate(23.923 47.09)">
        <path id="Trazado_879239" data-name="Trazado 879239" d="M225,428.343c0,3.125-3,5.658-6.705,5.658-.072,0-.143,0-.215,0,3.219,3.58,10.622,3.58,13.843,0-.072,0-.143,0-.215,0C228,434,225,431.468,225,428.343Z" transform="translate(-218.081 -428.343)" fill="#9e5427" fill-rule="evenodd"/>
      </g>
      <g id="Grupo_1189871" data-name="Grupo 1189871" transform="translate(33.707 36.284)">
        <path id="Trazado_879240" data-name="Trazado 879240" d="M309.02,329.829a3.872,3.872,0,0,1-1.745,1.573c2.2,1.063,4.717,2.574,5.992,4.315a8.061,8.061,0,0,1,1.48,5.524,7.108,7.108,0,0,1-.648,2.34,6.04,6.04,0,0,1-2.546,2.7,6.416,6.416,0,0,0,5.848-3.568,7.034,7.034,0,0,0,.651-2.343,8.072,8.072,0,0,0-1.48-5.521C314.98,332.677,311.447,330.86,309.02,329.829Z" transform="translate(-307.275 -329.829)" fill="#ba6e4d" fill-rule="evenodd"/>
      </g>
      <g id="Grupo_1189872" data-name="Grupo 1189872" transform="translate(9.036 13.912)">
        <path id="Trazado_879241" data-name="Trazado 879241" d="M87.349,139.882c.405,3.524-.389,6.6-1.707,8.067a6.115,6.115,0,0,1-2.063,1.573,3.708,3.708,0,0,1-1.221.308c.031.037.062.078.093.115a3.564,3.564,0,0,0,4.378,1.243,6.079,6.079,0,0,0,2.059-1.573c1.318-1.467,2.112-4.543,1.711-8.067a12.122,12.122,0,0,1,7.9-12.921,12.866,12.866,0,0,0-4.614-2.758,16.454,16.454,0,0,1,1.365,1.091A12.125,12.125,0,0,0,87.349,139.882Z" transform="translate(-82.358 -125.87)" fill="#ba6e4d" fill-rule="evenodd"/>
      </g>
      <g id="Grupo_1189873" data-name="Grupo 1189873" transform="translate(42.615 13.496)">
        <path id="Trazado_879242" data-name="Trazado 879242" d="M388.487,122.153c7.889,2.53,12.332,16.632,6.337,24.1a4.414,4.414,0,0,1-1.439,1.2,4.863,4.863,0,0,0,.67.361,3.565,3.565,0,0,0,4.378-1.243C405.293,138.025,398.485,120.788,388.487,122.153Z" transform="translate(-388.487 -122.077)" fill="#ba6e4d" fill-rule="evenodd"/>
      </g>
      <g id="Grupo_1189874" data-name="Grupo 1189874" transform="translate(27.884 15.789)">
        <path id="Trazado_879243" data-name="Trazado 879243" d="M258.324,144.036a12.127,12.127,0,0,1,7.9,12.921,24.639,24.639,0,0,0,.757,9.36,10.379,10.379,0,0,1,2.321,2.181c.137.187.262.38.383.576a8.119,8.119,0,0,1,1.1,4.945,9.506,9.506,0,0,0,3.7-7.6,4.872,4.872,0,0,1-.67-.361,7,7,0,0,1-1.393-1.212c-1.318-1.467-2.112-4.543-1.707-8.067a12.125,12.125,0,0,0-7.9-12.921,18.671,18.671,0,0,0-8.628-.645A18.468,18.468,0,0,1,258.324,144.036Z" transform="translate(-254.186 -142.981)" fill="#e29a6c" fill-rule="evenodd"/>
      </g>
      <g id="Grupo_1189875" data-name="Grupo 1189875" transform="translate(25.939 31.778)">
        <path id="Trazado_879244" data-name="Trazado 879244" d="M241.363,288.753c-2.708,0-4.9,1.5-4.9,3.353a2.416,2.416,0,0,0,.3,1.153,5.918,5.918,0,0,0,9.213,0,2.414,2.414,0,0,0,.3-1.153C246.267,290.255,244.074,288.753,241.363,288.753Z" transform="translate(-236.459 -288.753)" fill="#736572" fill-rule="evenodd"/>
      </g>
      <g id="Grupo_1189876" data-name="Grupo 1189876" transform="translate(28.715 31.779)">
        <path id="Trazado_879245" data-name="Trazado 879245" d="M263.174,288.791c1.642.539,2.776,1.689,2.776,3.022a2.414,2.414,0,0,1-.3,1.15,4.876,4.876,0,0,1-3.882,2.166,6.755,6.755,0,0,0,2.128.333,6.543,6.543,0,0,0,2.863-.629,3.872,3.872,0,0,0,1.745-1.573,2.414,2.414,0,0,0,.3-1.153c0-1.851-2.193-3.353-4.9-3.353A6.861,6.861,0,0,0,263.174,288.791Z" transform="translate(-261.769 -288.754)" fill="#615260" fill-rule="evenodd"/>
      </g>
      <g id="Grupo_1189877" data-name="Grupo 1189877" transform="translate(18.689 38.135)">
        <path id="Trazado_879246" data-name="Trazado 879246" d="M182.514,355.659v-8.6a6.756,6.756,0,0,1-2.128-.333l-.056-.019v7.316c0,3.125-3,5.658-6.708,5.658l-.212,0a7.85,7.85,0,0,1-3.05-.639,6.732,6.732,0,0,0,5.234,2.278l.215,0C179.513,361.317,182.514,358.784,182.514,355.659Z" transform="translate(-170.359 -346.704)" fill="#ba6e4d" fill-rule="evenodd"/>
      </g>
      <g id="Grupo_1189878" data-name="Grupo 1189878" transform="translate(0.822 8.836)">
        <path id="Trazado_879247" data-name="Trazado 879247" d="M15.681,92.027l4.636-4.6.019-.019a4.842,4.842,0,0,0,0-6.671,4.307,4.307,0,0,0-5.767-.09,4.311,4.311,0,0,0-5.77.09,4.842,4.842,0,0,0,0,6.671l.019.019,4.636,4.6a1.114,1.114,0,0,0,.09.081,1.591,1.591,0,0,0,.988.452h.075a1.59,1.59,0,0,0,.985-.452.76.76,0,0,0,.09-.081Z" transform="translate(-7.467 -79.588)" fill="#ff7e92" fill-rule="evenodd"/>
      </g>
      <g id="Grupo_1189879" data-name="Grupo 1189879" transform="translate(18.744 3.923)">
        <path id="Trazado_879248" data-name="Trazado 879248" d="M188.162,53.432c2.863.184,6.434.682,9.2-2.723a28.468,28.468,0,0,1,3.521-4.213l6.107-5.534L201.167,34.8l-5.783,4.942c-2.137,1.676-3.088,1.795-5.761,2.246l-7.708,1.3a8.73,8.73,0,0,0-4.181,1.87L171.8,49.8a2.1,2.1,0,1,0,2.281,3.536l8.406-3.409a2.475,2.475,0,0,0-.168.795,2.426,2.426,0,0,0,2.3,2.477Z" transform="translate(-170.863 -34.799)" fill="#ffe5c1" fill-rule="evenodd"/>
      </g>
      <g id="Grupo_1189880" data-name="Grupo 1189880" transform="translate(30.2 7.896)">
        <path id="Trazado_879249" data-name="Trazado 879249" d="M283.725,85.813a9.119,9.119,0,0,0,3.938-.723,7.449,7.449,0,0,0,2.689-2.134c.76-.935,1.212-1.614,1.723-2.278.249-.324.514-.645.835-.991.271-.29.583-.6.963-.944l6.107-5.534-2.072-2.19-5.683,5.15a18.8,18.8,0,0,0-2.848,3.35c-.2.265-.421.552-.676.863A7.233,7.233,0,0,1,284.6,83a15.283,15.283,0,0,1-4.549.146c-.187-.012-.371-.028-.551-.037l-3.543-.227a2.671,2.671,0,0,1-.632-.122c-.009.072-.016.143-.019.218a2.426,2.426,0,0,0,2.3,2.477l3.539.227C281.962,85.729,282.831,85.807,283.725,85.813Z" transform="translate(-275.305 -71.019)" fill="#fed1a3" fill-rule="evenodd"/>
      </g>
      <g id="Grupo_1189881" data-name="Grupo 1189881" transform="translate(29.282 15.66)">
        <path id="Trazado_879250" data-name="Trazado 879250" d="M273.725,141.953l-3.929-.15a2.849,2.849,0,0,0-2.692,3.764l.916-.371a2.1,2.1,0,0,1,.181-.355,2.368,2.368,0,0,1,.508-.592,2.456,2.456,0,0,1,.785-.436,2.338,2.338,0,0,1,.838-.125l4.091.134c1-.153,1.449-1.87-.7-1.87Z" transform="translate(-266.932 -141.8)" fill="#fed1a3" fill-rule="evenodd"/>
      </g>
      <g id="Grupo_1189882" data-name="Grupo 1189882" transform="translate(16.367 0.943)">
        <path id="Trazado_879251" data-name="Trazado 879251" d="M154.189,15.2l2.82-2.8.013-.009a2.946,2.946,0,0,0,0-4.06,2.623,2.623,0,0,0-3.511-.056A2.619,2.619,0,0,0,150,8.33a2.946,2.946,0,0,0,0,4.06l.009.009,2.823,2.8c.016.016.034.031.053.047a.939.939,0,0,0,.6.274.119.119,0,0,0,.047,0,.938.938,0,0,0,.6-.274C154.154,15.228,154.17,15.212,154.189,15.2Z" transform="translate(-149.19 -7.627)" fill="#ff7e92" fill-rule="evenodd"/>
      </g>
      <g id="Grupo_1189883" data-name="Grupo 1189883" transform="translate(6.095 8.836)">
        <path id="Trazado_879252" data-name="Trazado 879252" d="M64.418,84.816A4.832,4.832,0,0,0,63.14,80.74a3.9,3.9,0,0,0-3.8-1.028,3.825,3.825,0,0,1,.645.536,4.84,4.84,0,0,1,0,6.674l-.016.016-4.421,4.381.714.707a1.114,1.114,0,0,0,.09.081,1.591,1.591,0,0,0,.988.452h.075a1.59,1.59,0,0,0,.985-.452.76.76,0,0,0,.09-.081l4.636-4.6.019-.019A4.755,4.755,0,0,0,64.418,84.816Z" transform="translate(-55.544 -79.586)" fill="#ff5f7a" fill-rule="evenodd"/>
      </g>
      <g id="Grupo_1189884" data-name="Grupo 1189884" transform="translate(19.063 0.943)">
        <path id="Trazado_879253" data-name="Trazado 879253" d="M178.9,12.395a2.946,2.946,0,0,0,0-4.06c-.044-.044-.087-.087-.131-.125a2.4,2.4,0,0,0-2.281-.477,2.914,2.914,0,0,1,.333.477,2.952,2.952,0,0,1-.443,3.465l-.009.009-2.6,2.58.947.938c.016.016.034.031.053.047a.939.939,0,0,0,.6.274.119.119,0,0,0,.047,0,.938.938,0,0,0,.6-.274c.022-.016.037-.031.056-.047l2.82-2.8Z" transform="translate(-173.768 -7.633)" fill="#ff5f7a" fill-rule="evenodd"/>
      </g>
      <g id="Grupo_1189885" data-name="Grupo 1189885" transform="translate(0.003 0.119)">
        <path id="Trazado_879254" data-name="Trazado 879254" d="M340.025,387.152a.824.824,0,1,0,.823.826v-.006A.82.82,0,0,0,340.025,387.152Z" transform="translate(-301.996 -344.7)"/>
        <path id="Trazado_879255" data-name="Trazado 879255" d="M319.571,416.673a.825.825,0,1,0,.366,1.107l0-.006A.82.82,0,0,0,319.571,416.673Z" transform="translate(-283.457 -370.906)"/>
        <path id="Trazado_879256" data-name="Trazado 879256" d="M360.818,416.582a.824.824,0,1,0,.823.826V417.4A.82.82,0,0,0,360.818,416.582Z" transform="translate(-320.509 -370.901)"/>
        <path id="Trazado_879257" data-name="Trazado 879257" d="M209.812,387.978v-.006a.826.826,0,1,0,0,.006Z" transform="translate(-185.334 -344.7)"/>
        <path id="Trazado_879258" data-name="Trazado 879258" d="M229.783,418.23a.823.823,0,0,0,.823-.823V417.4a.823.823,0,1,0-.823.829Z" transform="translate(-203.846 -370.901)"/>
        <path id="Trazado_879259" data-name="Trazado 879259" d="M188.2,416.582a.824.824,0,1,0,.823.826V417.4A.82.82,0,0,0,188.2,416.582Z" transform="translate(-166.821 -370.901)"/>
        <path id="Trazado_879260" data-name="Trazado 879260" d="M54.786,46.22a.823.823,0,0,0-1.536.591c2.083,5.41,1.561,11.233-1.332,14.834A3.032,3.032,0,0,1,49.7,62.9H49.63a4.1,4.1,0,0,1-2.9-1.616c-1.039-1.158-1.906-3.9-1.5-7.423a12.845,12.845,0,0,0-1.317-7.523,8.729,8.729,0,0,0,1.973-1.811c.5-.609.867-1.116,1.194-1.564a14.653,14.653,0,0,1,2-2.333,13.207,13.207,0,0,1,2.315,2.611.823.823,0,0,0,1.358-.929,14.974,14.974,0,0,0-2.448-2.8l5.122-4.643a.823.823,0,1,0-1.1-1.219l-6.1,5.534a16.036,16.036,0,0,0-2.465,2.806c-.331.452-.673.92-1.142,1.5-2.322,2.855-5.181,2.654-7.946,2.46l-.567-.039-3.539-.227a1.569,1.569,0,1,1,.1-3.136l4.091.134a.823.823,0,1,0,.054-1.645L32.707,40.9a3.235,3.235,0,0,0-2.94,1.687l-8.113,3.29-.04.017c-.813.381-1.51.264-1.864-.313a1.38,1.38,0,0,1,.44-1.831L26.123,39.1a7.86,7.86,0,0,1,3.81-1.706l7.95-1.34c2.509-.423,3.654-.616,5.891-2.37l.027-.022,5.786-4.945a.823.823,0,1,0-1.069-1.251L42.745,32.4c-1.9,1.486-2.716,1.624-5.135,2.031l-7.95,1.34A9.5,9.5,0,0,0,25.108,37.8l-1.25.979a10.072,10.072,0,0,0-7.432-1.8q-.3.053-.6.126a5.6,5.6,0,0,0-1.547-3.516,5.027,5.027,0,0,0-6.36-.516,5.032,5.032,0,0,0-6.362.517,5.675,5.675,0,0,0,.005,7.818l4.66,4.619a3.2,3.2,0,0,0,.581.448A20.139,20.139,0,0,0,5.59,55.012a.823.823,0,0,0,.818.754l.07,0a.824.824,0,0,0,.751-.889,18.525,18.525,0,0,1,1.241-8.147,2.305,2.305,0,0,0,.685-.33,2.824,2.824,0,0,0,.473-.38l4.627-4.586.029-.029a5.539,5.539,0,0,0,1.4-2.545,7.219,7.219,0,0,1,1.03-.259,8.265,8.265,0,0,1,5.773,1.261l-3.307,2.591a3.042,3.042,0,0,0-1.113,3.358,12.97,12.97,0,0,0-1.6,8.045c.4,3.523-.467,6.268-1.506,7.424a4.025,4.025,0,0,1-2.963,1.615,3.03,3.03,0,0,1-2.221-1.251A11.094,11.094,0,0,1,8,58.459a.822.822,0,0,0-1.547.559,12.7,12.7,0,0,0,2.036,3.656,4.621,4.621,0,0,0,3.459,1.865l.111,0a4.162,4.162,0,0,0,.679-.057,10.259,10.259,0,0,0,3.691,6.934,7.8,7.8,0,0,0,.756,2.419,7.2,7.2,0,0,0,6.376,3.889,10.35,10.35,0,0,0,7.286,2.7,10.35,10.35,0,0,0,7.286-2.7,7.2,7.2,0,0,0,6.376-3.889,7.806,7.806,0,0,0,.756-2.419,10.259,10.259,0,0,0,3.691-6.934,4.156,4.156,0,0,0,.678.057l.112,0A4.629,4.629,0,0,0,53.2,62.675a14.1,14.1,0,0,0,2.916-7.922,20.06,20.06,0,0,0-1.332-8.533ZM14.2,37.672a3.936,3.936,0,0,1-1.027,2.509c-.021.025-.044.05-.068.075l-2.3,2.277,0,0L8.457,44.863c-.156.117-.315.29-.524.294a.862.862,0,0,1-.545-.294L2.754,40.269l-.009-.008a4.015,4.015,0,0,1,0-5.529,3.518,3.518,0,0,1,4.678-.008.825.825,0,0,0,1,0,3.513,3.513,0,0,1,4.674.009,3.981,3.981,0,0,1,1.1,2.94ZM18.65,73.093a7.1,7.1,0,0,1,.7-7.129c1.072-1.464,3.461-3.083,6.605-4.488a6.143,6.143,0,0,0,4.066,1.961v7.824c0,2.666-2.639,4.836-5.882,4.836a5.764,5.764,0,0,1-5.488-3ZM34.732,60.057v0a4.417,4.417,0,0,1-3.888,1.777A4.462,4.462,0,0,1,26.98,60.1c-.012-.025-.025-.049-.039-.072a1.613,1.613,0,0,1-.179-.727c0-1.371,1.869-2.53,4.081-2.53s4.081,1.159,4.081,2.53A1.623,1.623,0,0,1,34.732,60.057ZM25.993,77.543a7.451,7.451,0,0,0,4.85-3.338A7.454,7.454,0,0,0,35.7,77.543a10.141,10.141,0,0,1-9.7,0Zm17.046-4.45a5.764,5.764,0,0,1-5.488,3c-3.245,0-5.885-2.169-5.885-4.836V63.438a6.142,6.142,0,0,0,4.067-1.962c3.145,1.4,5.535,3.024,6.607,4.488A7.1,7.1,0,0,1,43.04,73.093Zm2.239-4.017a8.83,8.83,0,0,0-1.611-4.084c-1.611-2.2-4.942-3.973-7.182-4.982a3.089,3.089,0,0,0,.084-.708,3.716,3.716,0,0,0-1.8-3.048,7.013,7.013,0,0,0-3.929-1.127c-3.158,0-5.727,1.873-5.727,4.175a3.082,3.082,0,0,0,.084.709c-2.24,1.009-5.568,2.78-7.179,4.981a8.828,8.828,0,0,0-1.61,4.084A8.449,8.449,0,0,1,14.343,63.9a7.384,7.384,0,0,0,1.836-1.521c1.569-1.745,2.32-5.164,1.916-8.711a11.246,11.246,0,0,1,1.05-6.394,2.8,2.8,0,0,0,1.595.484,3.693,3.693,0,0,0,1.552-.367l7.11-2.883a3.244,3.244,0,0,0,3.049,2.812l3.539.227.557.038a13.433,13.433,0,0,0,5.9-.5A11.242,11.242,0,0,1,43.6,53.669c-.407,3.544.343,6.963,1.912,8.711A7.39,7.39,0,0,0,47.347,63.9a8.449,8.449,0,0,1-2.068,5.174Z" transform="translate(-0.003 -24.291)"/>
        <path id="Trazado_879261" data-name="Trazado 879261" d="M312.837,239.516h0a3.912,3.912,0,0,0-2.907,1.3.823.823,0,0,0,1.225,1.1,2.234,2.234,0,0,1,1.682-.753h0a2.228,2.228,0,0,1,1.678.752.823.823,0,0,0,1.226-1.1A3.905,3.905,0,0,0,312.837,239.516Z" transform="translate(-275.746 -213.257)"/>
        <path id="Trazado_879262" data-name="Trazado 879262" d="M199.294,239.516h0a3.9,3.9,0,0,0-2.9,1.3.823.823,0,1,0,1.226,1.1,2.228,2.228,0,0,1,1.678-.752h0a2.234,2.234,0,0,1,1.682.753.823.823,0,0,0,1.225-1.1A3.912,3.912,0,0,0,199.294,239.516Z" transform="translate(-174.662 -213.257)"/>
        <path id="Trazado_879263" data-name="Trazado 879263" d="M142.767,6.287,145.6,9.1a1.688,1.688,0,0,0,2.515,0L150.9,6.33q.029-.025.056-.053a3.777,3.777,0,0,0,0-5.2,3.347,3.347,0,0,0-4.1-.464,3.338,3.338,0,0,0-4.1.463,3.778,3.778,0,0,0,0,5.2Zm1.174-4.071a1.82,1.82,0,0,1,2.416.027.823.823,0,0,0,1,0,1.828,1.828,0,0,1,2.421-.026,2.118,2.118,0,0,1,.03,2.884l-.031.029-2.8,2.777a.172.172,0,0,1-.223.015l-2.815-2.79,0,0a2.119,2.119,0,0,1,.006-2.912Z" transform="translate(-126.175 -0.119)"/>
      </g>
    </g>
  </g>
</svg>
