<svg xmlns="http://www.w3.org/2000/svg" width="84.208" height="84.207" viewBox="0 0 84.208 84.207">
  <g id="Grupo_1189847" data-name="Grupo 1189847" transform="translate(-9903.177 380.979)">
    <g id="Grupo_1189579" data-name="Grupo 1189579" transform="translate(9030.45 -659.756)">
      <g id="Grupo_1188789" data-name="Grupo 1188789" transform="translate(583.726 -5835.222)">
        <rect id="Rectángulo_400898" data-name="Rectángulo 400898" width="75.49" height="75.489" rx="37.744" transform="translate(293.36 6118.358)" fill="#ffd907"/>
        <rect id="Rectángulo_400907" data-name="Rectángulo 400907" width="75.49" height="75.489" rx="37.744" transform="translate(293.36 6118.358)" fill="none"/>
        <g id="Grupo_1098742" data-name="Grupo 1098742" transform="translate(289 6114)">
          <g id="Rectángulo_400898-2" data-name="Rectángulo 400898" transform="translate(0)" fill="none" stroke="#fff" stroke-width="1" opacity="0.859">
            <rect width="84.208" height="84.207" rx="42.104" stroke="none"/>
            <rect x="0.5" y="0.5" width="83.208" height="83.207" rx="41.604" fill="none"/>
          </g>
          <g id="Rectángulo_400907-2" data-name="Rectángulo 400907" transform="translate(0)" fill="none" stroke="#0f1f33" stroke-linecap="round" stroke-width="1">
            <rect width="84.208" height="84.207" rx="42.104" stroke="none"/>
            <rect x="0.5" y="0.5" width="83.208" height="83.207" rx="41.604" fill="none"/>
          </g>
        </g>
      </g>
    </g>
    <g id="Filled_outline" data-name="Filled outline" transform="translate(9902.402 -381.107)">
      <path id="Trazado_879038" data-name="Trazado 879038" d="M440,384h4.773v6.365a3.182,3.182,0,0,1-3.182,3.182H440Z" transform="translate(-381.835 -331.404)" fill="#fdbf92"/>
      <path id="Trazado_879039" data-name="Trazado 879039" d="M269.135,215.566l-2.837-.406-2.58-.645a.8.8,0,0,1-.6-.772V208h-6.365v5.743a.8.8,0,0,1-.6.772l-2.58.645-2.837.406A3.182,3.182,0,0,0,248,218.715V225.5h4.773v9.547h14.32V225.5h4.773v-6.787a3.182,3.182,0,0,0-2.732-3.149Z" transform="translate(-208.928 -172.906)" fill="#fdc8a2"/>
      <rect id="Rectángulo_403448" data-name="Rectángulo 403448" width="4.89" height="9.779" transform="translate(39.051 52.558)" fill="#fdbf92"/>
      <path id="Trazado_879040" data-name="Trazado 879040" d="M271.867,283.555a3.182,3.182,0,0,0-2.732-3.149L266.3,280l-6.365,5.569L253.569,280l-2.837.406A3.182,3.182,0,0,0,248,283.555v6.787h3.424a6.343,6.343,0,0,0,1.35,5.569v4.773h14.32v-4.773a6.342,6.342,0,0,0,1.349-5.569h3.425Z" transform="translate(-208.928 -237.746)" fill="#60d0df"/>
      <path id="Trazado_879041" data-name="Trazado 879041" d="M342.365,208v3.233a7.17,7.17,0,0,1-6.365,0V208Z" transform="translate(-288.177 -172.906)" fill="#fdbf92"/>
      <path id="Trazado_879042" data-name="Trazado 879042" d="M418.387,56H416v3.182h.8a1.591,1.591,0,0,1,1.591,1.591v8.751A4.773,4.773,0,0,0,423.16,74.3V60.773A4.773,4.773,0,0,0,418.387,56Z" transform="translate(-360.221 -36.022)" fill="#663723"/>
      <path id="Trazado_879043" data-name="Trazado 879043" d="M303.16,59.094h0a7.16,7.16,0,0,1-7.16-7.16V46.365A6.365,6.365,0,0,1,302.365,40h1.591a6.365,6.365,0,0,1,6.365,6.365v5.569A7.16,7.16,0,0,1,303.16,59.094Z" transform="translate(-252.155 -21.613)" fill="#fdc8a2"/>
      <path id="Trazado_879044" data-name="Trazado 879044" d="M440,112h.8a2.387,2.387,0,0,1,2.387,2.387h0a2.387,2.387,0,0,1-2.387,2.387H440Z" transform="translate(-381.835 -86.453)" fill="#fdb683"/>
      <path id="Trazado_879045" data-name="Trazado 879045" d="M287.956,16A7.956,7.956,0,0,0,280,23.956h0v5.569h0a23.49,23.49,0,0,0,9.288-7.169l1.85-2.378.27.674a9.358,9.358,0,0,0,4.5,4.895H297.5V23.956A7.956,7.956,0,0,0,289.547,16Z" transform="translate(-237.746 0)" fill="#7a432a"/>
      <path id="Trazado_879046" data-name="Trazado 879046" d="M179.182,364.773l-3.182.8V360l3.182.8Z" transform="translate(-144.089 -309.791)" fill="#348ed8"/>
      <path id="Trazado_879047" data-name="Trazado 879047" d="M208,368h6.365l21.48,6.365v2.387a3.182,3.182,0,0,1-3.182,3.182H229.48l-15.911-7.16-5.569.8Z" transform="translate(-172.906 -316.995)" fill="#fdc8a2"/>
      <path id="Trazado_879048" data-name="Trazado 879048" d="M35.934,348.243a3.182,3.182,0,0,0-.636-1.909L33.547,344H24v14.32H35.138v-1.591l.8-3.182Z" transform="translate(-7.204 -295.382)" fill="#ffb431"/>
      <path id="Trazado_879049" data-name="Trazado 879049" d="M36.729,203.978l-.591-1.477a3.978,3.978,0,0,0-3.693-2.5H27.978A3.978,3.978,0,0,0,24,203.978v7.16H38.32a3.182,3.182,0,0,0,3.182-3.182v-3.978Z" transform="translate(-7.204 -165.702)" fill="#ffb431"/>
      <rect id="Rectángulo_403449" data-name="Rectángulo 403449" width="2.794" height="3.493" rx="1.397" transform="translate(32.066 37.19)" fill="#7a432a"/>
      <rect id="Rectángulo_403450" data-name="Rectángulo 403450" width="9.779" height="2.794" transform="translate(16.699 45.572)" fill="#d65246"/>
      <path id="Trazado_879050" data-name="Trazado 879050" d="M59.934,390.365H54.365L51.182,384,48,387.182l3.978,7.16H62.32v-1.591A2.387,2.387,0,0,0,59.934,390.365Z" transform="translate(-28.818 -331.404)" fill="#ffb431"/>
      <path id="Trazado_879051" data-name="Trazado 879051" d="M385.193,130.387A1.193,1.193,0,1,0,384,129.193,1.193,1.193,0,0,0,385.193,130.387Z" transform="translate(-331.404 -100.862)"/>
      <path id="Trazado_879052" data-name="Trazado 879052" d="M346.387,178.387A2.389,2.389,0,0,0,348.773,176h-1.591a.8.8,0,0,1-1.591,0H344A2.389,2.389,0,0,0,346.387,178.387Z" transform="translate(-295.382 -144.089)"/>
      <path id="Trazado_879053" data-name="Trazado 879053" d="M98.387,233.193a1.193,1.193,0,1,0-1.193,1.193A1.193,1.193,0,0,0,98.387,233.193Z" transform="translate(-72.044 -194.52)"/>
      <path id="Trazado_879054" data-name="Trazado 879054" d="M31.116,216.662H29.525v-5.3a4.007,4.007,0,0,0-.8-2.387l-1.591-2.122v-2.122h3.978a3.982,3.982,0,0,0,3.978-3.978v-3.978a.8.8,0,0,0-.8-.8H30.063L29.672,195a4.75,4.75,0,0,0-4.432-3H20.773a4.734,4.734,0,0,0-2.865.955l.956,1.273a3.154,3.154,0,0,1,1.909-.636H25.24a3.167,3.167,0,0,1,2.955,2l.591,1.477a.8.8,0,0,0,.739.5h2.387v.8a.8.8,0,0,0,.8.8h.8v1.591a2.389,2.389,0,0,1-2.387,2.387H29.525a2.39,2.39,0,0,1-2.387-2.387H25.547a3.957,3.957,0,0,0,.8,2.387H21.936a3.162,3.162,0,0,0,.428-1.591v-3.978H20.773v3.978a1.591,1.591,0,0,1-3.182,0v-4.773a3.16,3.16,0,0,1,.264-1.273l-1.458-.636a4.742,4.742,0,0,0-.4,1.909v25.458h1.591v-14.32h8.354l1.512,2.015a2.4,2.4,0,0,1,.477,1.432v5.133l-.076.171H26.038l-2.962-5.925-1.423.712,3.182,6.365a.8.8,0,0,0,.712.44h5.569a1.593,1.593,0,0,1,1.591,1.591v.8H23.628l-3.751-6.751-1.391.773,3.978,7.16a.8.8,0,0,0,.7.409H33.5a.8.8,0,0,0,.8-.8v-1.591A3.186,3.186,0,0,0,31.116,216.662ZM17.591,206.32v-1.591h7.956v1.591Z" transform="translate(0 -158.497)"/>
      <path id="Trazado_879055" data-name="Trazado 879055" d="M195.585,37.906a5.557,5.557,0,0,0,4.237,1.961.8.8,0,0,0,.8-.8V25.547a5.535,5.535,0,0,0-2.157-4.4l-.975,1.257a3.954,3.954,0,0,1,1.541,3.145V38.2a3.985,3.985,0,0,1-3.182-3.9V31.911a3.181,3.181,0,0,0,1.591-5.936V24.751A8.761,8.761,0,0,0,188.685,16h-1.591a8.7,8.7,0,0,0-6.126,2.5l1.114,1.136a7.119,7.119,0,0,1,5.012-2.047h1.591a7.168,7.168,0,0,1,7.16,7.16v.8h-.6a8.554,8.554,0,0,1-3.957-4.394l-.27-.675a.8.8,0,0,0-1.367-.193L187.8,22.663a22.73,22.73,0,0,1-4.844,4.614,1.194,1.194,0,0,0-.238.168,22.725,22.725,0,0,1-2.784,1.633V24.751a7.139,7.139,0,0,1,1.089-3.8l-1.348-.845a8.73,8.73,0,0,0-1.333,4.644V30.32a.8.8,0,0,0,1.109.731c.162-.07.322-.143.482-.216v5.054a7.939,7.939,0,0,0,2.788,6.041l-1.35.337-2.8.4A4,4,0,0,0,175.16,46.6v2.014h1.591V46.6a2.4,2.4,0,0,1,2.049-2.362l2.476-.354,5.818,5.091v3.789l-8.525-2.526a.793.793,0,0,0-.226-.033h-6.267l-3.087-.772a.8.8,0,0,0-.988.772v5.569a.8.8,0,0,0,.988.772L171.182,56v.572a.8.8,0,0,0,.908.788l.121-.017a8.283,8.283,0,0,0,2.213,3.943,8.479,8.479,0,0,0,.736.652v1a.8.8,0,0,0,.8.8h20.685a3.982,3.982,0,0,0,3.978-3.978V46.6a4,4,0,0,0-3.415-3.937l-2.8-.4-1.349-.338A7.969,7.969,0,0,0,195.585,37.906Zm-7.7,4.348a6.329,6.329,0,0,1-2.395-.469c0-.05.008-.1.008-.152V38.707a8,8,0,0,0,4.773,0v2.925c0,.051,0,.1.008.152A6.329,6.329,0,0,1,187.889,42.254Zm3.978-4.248a7.948,7.948,0,0,0,2.387-2.105,6.355,6.355,0,0,1-2.387,4.952Zm3.978-7.686V27.138a1.591,1.591,0,0,1,0,3.182Zm-13.039-1.03A1.191,1.191,0,0,0,184.659,28a24.3,24.3,0,0,0,4.4-4.361l1.012-1.3a10.141,10.141,0,0,0,4.187,4.481v4.3a6.365,6.365,0,1,1-12.729,0V30.043Q182.177,29.686,182.806,29.29ZM181.525,35.9a7.947,7.947,0,0,0,2.387,2.105v2.846a6.355,6.355,0,0,1-2.387-4.951Zm1.668,7.551,1.1-.276a1.59,1.59,0,0,0,.231-.078,7.888,7.888,0,0,0,2.566.707v3.06Zm-13.6,11.308V51.228l1.591.4v2.736Zm4.2,2.359,1.366-.2v2.815A6.678,6.678,0,0,1,173.794,57.118Zm7.73,4.918V58.961a.8.8,0,0,0-.187-.512c-.04-.047-.077-.1-.115-.144l3.961,1.782A6.8,6.8,0,0,1,181.525,62.036Zm-2.7-4.808a7.253,7.253,0,0,0,1.1,2.014V62.13a6.7,6.7,0,0,1-3.182-1.012V56.7l.68-.1Zm6.4,4.915a8.354,8.354,0,0,0,1.479-1.369l.385.173v1.2Zm3.455-.48,1.067.48h-1.067Zm10.342-1.907a2.39,2.39,0,0,1-2.387,2.387h-3.012l-15.756-7.091a.793.793,0,0,0-.439-.062l-4.661.666V51.8h5.454l20.8,6.163Zm-1.691-5.569h1.691V56.3l-1.727-.512A7.043,7.043,0,0,0,197.336,54.187Zm-2.834-10.3,2.476.354a2.4,2.4,0,0,1,2.049,2.362V52.6h-2.035a6.612,6.612,0,0,0-.555-1.2l-1.37.81a5.057,5.057,0,0,1,.558,1.375,5.337,5.337,0,0,1,.124,1.753l-7.065-2.093v-4.26Zm-3.022-.713,1.1.276-3.9,3.413v-3.06a7.888,7.888,0,0,0,2.565-.707,1.6,1.6,0,0,0,.231.078Z" transform="translate(-136.884 0)"/>
      <rect id="Rectángulo_403451" data-name="Rectángulo 403451" width="2.096" height="2.096" transform="translate(46.735 49.065)"/>
    </g>
  </g>
</svg>
