<svg xmlns="http://www.w3.org/2000/svg" width="84.208" height="84.207" viewBox="0 0 84.208 84.207">
  <g id="Grupo_1189887" data-name="Grupo 1189887" transform="translate(-1082.928 -4577.191)">
    <g id="Grupo_1189686" data-name="Grupo 1189686" transform="translate(210.202 4298.414)">
      <g id="Grupo_1188789" data-name="Grupo 1188789" transform="translate(583.726 -5835.222)">
        <rect id="Rectángulo_400898" data-name="Rectángulo 400898" width="75.49" height="75.489" rx="37.744" transform="translate(293.36 6118.358)" fill="#ffd907"/>
        <rect id="Rectángulo_400907" data-name="Rectángulo 400907" width="75.49" height="75.489" rx="37.744" transform="translate(293.36 6118.358)" fill="none"/>
        <g id="Grupo_1098742" data-name="Grupo 1098742" transform="translate(289 6114)">
          <g id="Rectángulo_400898-2" data-name="Rectángulo 400898" transform="translate(0)" fill="none" stroke="#fff" stroke-width="1" opacity="0.859">
            <rect width="84.208" height="84.207" rx="42.104" stroke="none"/>
            <rect x="0.5" y="0.5" width="83.208" height="83.207" rx="41.604" fill="none"/>
          </g>
          <g id="Rectángulo_400907-2" data-name="Rectángulo 400907" transform="translate(0)" fill="none" stroke="#0f1f33" stroke-linecap="round" stroke-width="1">
            <rect width="84.208" height="84.207" rx="42.104" stroke="none"/>
            <rect x="0.5" y="0.5" width="83.208" height="83.207" rx="41.604" fill="none"/>
          </g>
        </g>
      </g>
    </g>
    <g id="feloni" transform="translate(1108 4594.375)">
      <path id="Trazado_879264" data-name="Trazado 879264" d="M304.948,271.621a1.376,1.376,0,0,0,.5-2.672,2.134,2.134,0,0,0-1.8.175,3.493,3.493,0,0,0-1.528,2.269,5.359,5.359,0,0,0,.355,2.853c.089.24.183.47.274.693a8.547,8.547,0,0,1,.422,1.183,3.491,3.491,0,0,1-.344,2.4,3.592,3.592,0,0,1-1.076,1.122,10.512,10.512,0,0,0-.965.838,1.375,1.375,0,0,0,1.952,1.938,8.137,8.137,0,0,1,.724-.622,6.073,6.073,0,0,0,1.8-2,6.193,6.193,0,0,0,.583-4.323,10.78,10.78,0,0,0-.55-1.58c-.086-.21-.168-.409-.24-.605a2.694,2.694,0,0,1-.233-1.38A1.036,1.036,0,0,1,304.948,271.621Zm0,0" transform="translate(-271.746 -243.195)" fill="#efeec5"/>
      <path id="Trazado_879265" data-name="Trazado 879265" d="M34.153,232.028a10.88,10.88,0,0,0,2.817,5.646,24.524,24.524,0,0,1,3.752,5.166c.882,1.945,1,4.42-.367,6.064a5.508,5.508,0,0,1-3.242,1.758,14.92,14.92,0,0,1-3.751.1H15.5a14.92,14.92,0,0,1-3.751-.1A5.508,5.508,0,0,1,8.5,248.9c-1.364-1.644-1.249-4.119-.367-6.064a24.524,24.524,0,0,1,3.752-5.166,10.883,10.883,0,0,0,2.817-5.646l3.28-7.4h12.35Zm0,0" transform="translate(-6.764 -203.208)" fill="#ccc39e"/>
      <path id="Trazado_879266" data-name="Trazado 879266" d="M62.1,498.744a19.13,19.13,0,0,0,2.814-.029H62.573Zm0,0" transform="translate(-56.181 -451.163)" fill="#ccae52"/>
      <path id="Trazado_879267" data-name="Trazado 879267" d="M231.872,242.84a24.526,24.526,0,0,0-3.753-5.166,10.88,10.88,0,0,1-2.816-5.646l-3.817-7.4h-2.713l3.721,7.4a10.99,10.99,0,0,0,2.746,5.646,24.515,24.515,0,0,1,3.659,5.166c.86,1.945.971,4.42-.358,6.064a5.333,5.333,0,0,1-3.161,1.758c-.237.046-.475.081-.714.107a14.383,14.383,0,0,0,3.6-.107A5.509,5.509,0,0,0,231.5,248.9C232.868,247.26,232.753,244.785,231.872,242.84Zm0,0" transform="translate(-197.914 -203.208)" fill="#aaa179"/>
      <path id="Trazado_879268" data-name="Trazado 879268" d="M156.212,344.727V331.921a3.424,3.424,0,1,0-6.849,0v12.806Zm0,0" transform="translate(-135.122 -297.175)" fill="#c47f6a"/>
      <path id="Trazado_879269" data-name="Trazado 879269" d="M225.031,211.727l-3.844,2.426v24.46h3.351l3.957-15.379C229.63,218.821,228.176,213.987,225.031,211.727Zm0,0" transform="translate(-200.098 -191.539)" fill="#efeec5"/>
      <path id="Trazado_879270" data-name="Trazado 879270" d="M72.55,211.727l3.844,2.426v24.46H73.043l-3.957-15.379C67.951,218.821,69.406,213.987,72.55,211.727Zm0,0" transform="translate(-62.153 -191.539)" fill="#efeec5"/>
      <path id="Trazado_879271" data-name="Trazado 879271" d="M77.319,459.2a4.32,4.32,0,0,0-4.274,3.7.55.55,0,0,0,.548.622h7.453a.55.55,0,0,0,.548-.622A4.32,4.32,0,0,0,77.319,459.2Zm0,0" transform="translate(-66.076 -415.419)" fill="#ededed"/>
      <path id="Trazado_879272" data-name="Trazado 879272" d="M115.469,462.9a4.323,4.323,0,0,0-4.984-3.639c1.321.305,2.359,1.781,2.551,3.639.034.329-.155.622-.393.622h2.278A.55.55,0,0,0,115.469,462.9Zm0,0" transform="translate(-99.951 -415.419)" fill="#c9c9c9"/>
      <path id="Trazado_879273" data-name="Trazado 879273" d="M212.015,459.2a4.32,4.32,0,0,0-4.275,3.7.55.55,0,0,0,.548.622h7.453a.55.55,0,0,0,.548-.622A4.32,4.32,0,0,0,212.015,459.2Zm0,0" transform="translate(-187.928 -415.419)" fill="#ededed"/>
      <path id="Trazado_879274" data-name="Trazado 879274" d="M249.648,462.9a4.324,4.324,0,0,0-5.039-3.63c1.268.325,2.262,1.79,2.446,3.63.033.329-.15.622-.382.622H249.1A.55.55,0,0,0,249.648,462.9Zm0,0" transform="translate(-221.287 -415.419)" fill="#c9c9c9"/>
      <path id="Trazado_879275" data-name="Trazado 879275" d="M232.693,18.673c2.063-2.563,2.488-7.047,2.556-9.525a1.607,1.607,0,0,0-1.775-1.641c-2.465.263-6.9,1.038-9.3,3.3Zm0,0" transform="translate(-202.805 -6.784)" fill="#ffaf5c"/>
      <path id="Trazado_879276" data-name="Trazado 879276" d="M289.538,28.941c2.063-2.563,2.488-7.047,2.556-9.525a1.6,1.6,0,0,0-.086-.568,7.483,7.483,0,0,0-3.11,2.521,10.559,10.559,0,0,0-1.882,5.24Zm0,0" transform="translate(-259.649 -17.051)" fill="#c47f6a"/>
      <path id="Trazado_879277" data-name="Trazado 879277" d="M32.824,18.673c-2.063-2.563-2.488-7.047-2.556-9.525a1.607,1.607,0,0,1,1.775-1.641c2.465.263,6.9,1.038,9.3,3.3Zm0,0" transform="translate(-27.382 -6.784)" fill="#efeec5"/>
      <path id="Trazado_879278" data-name="Trazado 879278" d="M32.824,28.941c-2.063-2.563-2.488-7.047-2.556-9.525a1.6,1.6,0,0,1,.086-.568,7.479,7.479,0,0,1,3.11,2.521,10.556,10.556,0,0,1,1.882,5.24Zm0,0" transform="translate(-27.382 -17.051)" fill="#c47f6a"/>
      <path id="Trazado_879279" data-name="Trazado 879279" d="M63.1,22.563A12.606,12.606,0,0,0,50.219,34.768c0,4.551,5.765,10.217,12.878,10.217s12.878-5.666,12.878-10.217A12.607,12.607,0,0,0,63.1,22.563Zm0,0" transform="translate(-45.431 -20.412)" fill="#efeec5"/>
      <path id="Trazado_879280" data-name="Trazado 879280" d="M106.419,38.277a12.9,12.9,0,0,1,4.437,9.235c0,4.551-5.766,10.217-12.878,10.217a13.967,13.967,0,0,1-6.834-1.819A14.167,14.167,0,0,0,100.12,59.2C107.232,59.2,113,53.535,113,48.984A12.824,12.824,0,0,0,106.419,38.277Zm0,0" transform="translate(-82.455 -34.629)" fill="#ccc39e"/>
      <path id="Trazado_879281" data-name="Trazado 879281" d="M204.093,25.461a8.1,8.1,0,0,0,10,11.713A12.638,12.638,0,0,0,204.093,25.461Zm0,0" transform="translate(-183.556 -23.034)" fill="#ffaf5c"/>
      <path id="Trazado_879282" data-name="Trazado 879282" d="M257.919,48.772a12.87,12.87,0,0,0-5.783-10.025c-.263-.168-.525-.323-.793-.466a12.9,12.9,0,0,1,4.436,9.234,6.324,6.324,0,0,1-.291,1.843A8.049,8.049,0,0,0,257.919,48.772Zm0,0" transform="translate(-227.379 -34.632)" fill="#d67f3e"/>
      <path id="Trazado_879283" data-name="Trazado 879283" d="M167.1,133.376a2.147,2.147,0,0,1-4.283,0c0-.819.959-.966,2.142-.966S167.1,132.557,167.1,133.376Zm0,0" transform="translate(-147.289 -119.786)" fill="#d67f3e"/>
      <path id="Trazado_879284" data-name="Trazado 879284" d="M33.682,37.684a5.589,5.589,0,0,0,.469-.746,6.9,6.9,0,0,0,.644-4.822,11.271,11.271,0,0,0-.578-1.674l0-.012c-.086-.209-.163-.4-.231-.582a3.171,3.171,0,0,1-.2-.774,2.091,2.091,0,0,0,.161-3.994,2.835,2.835,0,0,0-2.388.229,4.2,4.2,0,0,0-1.875,2.754A6.046,6.046,0,0,0,30.06,31.3c.091.246.186.479.283.713l.01.023a8.144,8.144,0,0,1,.379,1.058,2.469,2.469,0,0,1,.035.928l-.009-.01a17.011,17.011,0,0,1-1.63-2.291,12.989,12.989,0,0,0,.367-3.238.715.715,0,1,0-1.43.018,11.548,11.548,0,0,1-.36,3.015l-2.294,8.916-.008.032-.68,2.646a4.99,4.99,0,0,0-2.918.512V28.382a.715.715,0,1,0-1.43,0v3.236a4.132,4.132,0,0,0-5.418,0V28.382a.715.715,0,1,0-1.43,0V43.623a4.986,4.986,0,0,0-2.918-.513l-.68-2.644c0-.012-.006-.023-.009-.035L7.626,31.516a11.131,11.131,0,0,1,1.48-9.007,14.576,14.576,0,0,0,17.118,0,9.93,9.93,0,0,1,1.5,3.341.715.715,0,1,0,1.388-.346,11.351,11.351,0,0,0-1.765-3.881,14.083,14.083,0,0,0,1.09-1.056,7.519,7.519,0,0,1,1.339,1.244.715.715,0,0,0,1.095-.921,8.933,8.933,0,0,0-1.52-1.426,11.149,11.149,0,0,0,1.07-1.758,9.082,9.082,0,0,1,1.7.79.715.715,0,1,0,.735-1.228,10.484,10.484,0,0,0-1.908-.894,7.017,7.017,0,0,0,.312-2.02c0-.072,0-.144,0-.218,0-.006,0-.011,0-.016a11.336,11.336,0,0,0-.344-2.431c.855-1.328,2.107-4.135,2.248-9.3v0a2.273,2.273,0,0,0-.127-.825l-.009-.025A2.322,2.322,0,0,0,30.6.012a20.507,20.507,0,0,0-8,2.243,14.433,14.433,0,0,0-4.93-.821,14.433,14.433,0,0,0-4.93.821,13.63,13.63,0,0,0-2-.919.715.715,0,0,0-.5,1.341q.421.156.808.329A12.8,12.8,0,0,0,7.671,5.632,10.136,10.136,0,0,0,6.661,3.9a8.456,8.456,0,0,0-2.6-2.358.876.876,0,0,1,.523-.1c.957.1,1.89.247,2.772.43a.715.715,0,1,0,.292-1.4C6.72.271,5.74.119,4.736.012A2.322,2.322,0,0,0,2.308,1.534L2.3,1.559a2.279,2.279,0,0,0-.127.824c.142,5.176,1.4,7.985,2.251,9.311a11.268,11.268,0,0,0-.349,2.662,7.017,7.017,0,0,0,.312,2.02,10.471,10.471,0,0,0-1.907.894A.715.715,0,1,0,3.212,18.5a9.072,9.072,0,0,1,1.7-.789,11.146,11.146,0,0,0,1.07,1.758,8.918,8.918,0,0,0-1.52,1.426.715.715,0,1,0,1.095.92,7.52,7.52,0,0,1,1.339-1.244,13.945,13.945,0,0,0,1.089,1.056A12.58,12.58,0,0,0,6.2,31.722a17.013,17.013,0,0,1-1.63,2.29c-.257.312-.525.629-.785.935a19.241,19.241,0,0,0-3.067,4.39,6.54,6.54,0,0,0,.468,6.816,6.216,6.216,0,0,0,3.657,2,10.5,10.5,0,0,0,1.668.174l.04.049a1.272,1.272,0,0,0,.962.44H14.97a1.272,1.272,0,0,0,.962-.44,1.312,1.312,0,0,0,.087-.112h3.294a1.316,1.316,0,0,0,.087.112,1.271,1.271,0,0,0,.961.44h7.453a1.271,1.271,0,0,0,.962-.44l.04-.049a10.518,10.518,0,0,0,1.667-.174,6.219,6.219,0,0,0,3.659-2,6.541,6.541,0,0,0,.468-6.816A11.878,11.878,0,0,0,33.682,37.684ZM20.9,3.24a11.956,11.956,0,0,1,8.9,10.412.017.017,0,0,0,0,0A7.386,7.386,0,0,1,20.9,3.24Zm10.81-.3a19.826,19.826,0,0,1-1.4,6.883,14.049,14.049,0,0,0-1.616-2.935,8.884,8.884,0,0,1,1.141-2.156A7.08,7.08,0,0,1,31.707,2.944Zm-.961-1.51a.875.875,0,0,1,.522.1A8.456,8.456,0,0,0,28.67,3.9a10.137,10.137,0,0,0-1.01,1.735,12.791,12.791,0,0,0-3.377-2.626,22.822,22.822,0,0,1,6.463-1.571ZM5.5,4.737A8.887,8.887,0,0,1,6.644,6.893,14.039,14.039,0,0,0,5.028,9.828a17.936,17.936,0,0,1-1.4-6.883A7.076,7.076,0,0,1,5.5,4.737Zm4.6,13.732a.715.715,0,0,0-.862-.53,8.942,8.942,0,0,0-2.049.766,9.861,9.861,0,0,1-.873-1.362,8.906,8.906,0,0,1,2.7-.055.715.715,0,1,0,.189-1.418,10.357,10.357,0,0,0-3.448.124A5.656,5.656,0,0,1,5.5,14.355a10.075,10.075,0,0,1,.374-2.589c0-.014.008-.028.012-.042A11.85,11.85,0,0,1,17.665,2.865a14.314,14.314,0,0,1,1.771.107A8.819,8.819,0,0,0,29.763,15.16a6.2,6.2,0,0,1-.193.834,10.357,10.357,0,0,0-3.448-.124.715.715,0,0,0,.189,1.418,8.918,8.918,0,0,1,2.7.055,9.9,9.9,0,0,1-.873,1.362,8.942,8.942,0,0,0-2.049-.766.715.715,0,1,0-.331,1.391,7.514,7.514,0,0,1,1.414.492,13.432,13.432,0,0,1-9.5,4.034,13.428,13.428,0,0,1-9.5-4.034,7.479,7.479,0,0,1,1.414-.492A.715.715,0,0,0,10.1,18.469Zm20.973,9.864a2.782,2.782,0,0,1,1.183-1.784,1.407,1.407,0,0,1,1.2-.121.66.66,0,0,1-.238,1.282.712.712,0,0,0-.637.349,1.71,1.71,0,0,0-.212.522,3.317,3.317,0,0,0,.264,1.762c.076.206.158.407.249.628l0,.01a10.214,10.214,0,0,1,.513,1.469,5.471,5.471,0,0,1-.521,3.822q-.047.091-.1.178c-.3-.38-.607-.751-.916-1.117a4.164,4.164,0,0,0,.252-2.574,9.058,9.058,0,0,0-.445-1.262l-.01-.026c-.093-.224-.183-.444-.265-.667A4.7,4.7,0,0,1,31.078,28.333Zm-13.413,3.7a2.712,2.712,0,0,1,2.709,2.694v9.982a5.011,5.011,0,0,0-1.16,2.123h-3.1a5.011,5.011,0,0,0-1.16-2.123v-9.99A2.712,2.712,0,0,1,17.665,32.037ZM2.291,45.24c-1.276-1.539-.941-3.824-.266-5.313a17.883,17.883,0,0,1,2.854-4.055c.263-.31.535-.631.8-.952.382-.466.716-.9,1.009-1.312l1.362,5.3a6.659,6.659,0,0,0-2.264-.691.715.715,0,0,0-.165,1.421A5.336,5.336,0,0,1,8.59,41l.641,2.49a5.066,5.066,0,0,0-2.874,3.4,8.757,8.757,0,0,1-1.24-.142A4.8,4.8,0,0,1,2.291,45.24Zm11.057,2.148v-.315a.715.715,0,0,0-1.431,0v.315H10.272v-.315a.715.715,0,1,0-1.43,0v.315H7.711a3.6,3.6,0,0,1,7.066,0Zm13.14,0v-.315a.715.715,0,1,0-1.43,0v.315H23.413v-.315a.715.715,0,1,0-1.43,0v.315H20.554a3.6,3.6,0,0,1,7.066,0Zm6.551-2.148a4.8,4.8,0,0,1-2.827,1.511,8.719,8.719,0,0,1-1.238.141,5.069,5.069,0,0,0-2.874-3.4L26.741,41a5.339,5.339,0,0,1,2.969-1.371.715.715,0,1,0-.165-1.421,6.655,6.655,0,0,0-2.263.691l1.362-5.3c.293.413.626.847,1.009,1.313.263.32.535.641.8.952l0,0a.61.61,0,0,0,.041.048c.6.707,1.18,1.395,1.692,2.109.012.019.025.037.039.054a11.128,11.128,0,0,1,1.081,1.842C33.981,41.417,34.316,43.7,33.039,45.24Zm0,0" transform="translate(0)"/>
      <path id="Trazado_879285" data-name="Trazado 879285" d="M113.891,92.8a.715.715,0,0,0,.715-.715v-.619a.715.715,0,0,0-1.43,0v.619A.715.715,0,0,0,113.891,92.8Zm0,0" transform="translate(-102.385 -82.098)"/>
      <path id="Trazado_879286" data-name="Trazado 879286" d="M243.09,92.8a.715.715,0,0,0,.715-.715v-.619a.715.715,0,0,0-1.43,0v.619A.715.715,0,0,0,243.09,92.8Zm0,0" transform="translate(-219.265 -82.098)"/>
      <path id="Trazado_879287" data-name="Trazado 879287" d="M135.274,132.6c.041,0,.081,0,.123,0a2.985,2.985,0,0,0,2.026-.894,2.984,2.984,0,0,0,2.026.894c.041,0,.081,0,.123,0a2.811,2.811,0,0,0,2.9-2.711.715.715,0,1,0-1.43,0,1.384,1.384,0,0,1-1.465,1.281h-.061a1.426,1.426,0,0,1-1.373-1.013V129.2a3,3,0,0,0,2.142-2.612,1.5,1.5,0,0,0-1.1-1.463,7.185,7.185,0,0,0-3.512,0,1.5,1.5,0,0,0-1.1,1.463,3,3,0,0,0,2.142,2.612v.954a1.426,1.426,0,0,1-1.373,1.013h-.061a1.384,1.384,0,0,1-1.465-1.281.715.715,0,1,0-1.43,0A2.811,2.811,0,0,0,135.274,132.6Zm.722-6.011a.36.36,0,0,1,0-.038c.025-.028.232-.213,1.424-.213,1.218,0,1.408.193,1.422.208a.148.148,0,0,1,0,.042,1.434,1.434,0,0,1-2.853,0Zm0,0" transform="translate(-119.757 -113.001)"/>
    </g>
  </g>
</svg>
