<svg xmlns="http://www.w3.org/2000/svg" width="84.208" height="84.207" viewBox="0 0 84.208 84.207">
  <g id="Grupo_1189700" data-name="Grupo 1189700" transform="translate(-1082.927 -3568.479)">
    <g id="Grupo_1189019" data-name="Grupo 1189019" transform="translate(210.201 3289.701)">
      <g id="Grupo_1188789" data-name="Grupo 1188789" transform="translate(583.726 -5835.222)">
        <rect id="Rectángulo_400898" data-name="Rectángulo 400898" width="75.49" height="75.489" rx="37.744" transform="translate(293.36 6118.358)" fill="#ffd907"/>
        <rect id="Rectángulo_400907" data-name="Rectángulo 400907" width="75.49" height="75.489" rx="37.744" transform="translate(293.36 6118.358)" fill="none"/>
        <g id="Grupo_1098742" data-name="Grupo 1098742" transform="translate(289 6114)">
          <g id="Rectángulo_400898-2" data-name="Rectángulo 400898" transform="translate(0)" fill="none" stroke="#fff" stroke-width="1" opacity="0.859">
            <rect width="84.208" height="84.207" rx="42.104" stroke="none"/>
            <rect x="0.5" y="0.5" width="83.208" height="83.207" rx="41.604" fill="none"/>
          </g>
          <g id="Rectángulo_400907-2" data-name="Rectángulo 400907" transform="translate(0)" fill="none" stroke="#0f1f33" stroke-linecap="round" stroke-width="1">
            <rect width="84.208" height="84.207" rx="42.104" stroke="none"/>
            <rect x="0.5" y="0.5" width="83.208" height="83.207" rx="41.604" fill="none"/>
          </g>
        </g>
      </g>
    </g>
    <g id="sistema" transform="translate(1072.428 3582.894)">
      <g id="Grupo_1189698" data-name="Grupo 1189698" transform="translate(28.886 0.748)">
        <path id="Trazado_878418" data-name="Trazado 878418" d="M50.091,97.124a9.58,9.58,0,0,0-14.37,7.445c-.357,4.22,2.545,8.327,6.083,9.944l1.643-.693-4.036-2.832.855-1.261a3.846,3.846,0,0,1-.541-2.554q0-.027.009-.054a3.982,3.982,0,0,1,6.063-2.691,4.011,4.011,0,0,0,3.975.32A4.351,4.351,0,0,0,50.091,97.124Z" transform="translate(-35.691 -87.022)" fill="#ffaa5a"/>
        <path id="Trazado_878419" data-name="Trazado 878419" d="M50.734,97.593a4.319,4.319,0,0,0-.643-.469,9.58,9.58,0,0,0-14.37,7.444c-.357,4.22,2.545,8.327,6.083,9.944l1.088-.459.589-1.288c-.137-.1-.275-.2-.414-.31l-.266-.121c-2.489-1.138-4.979-4.174-4.693-7.563a7.264,7.264,0,0,1,6.269-6.5,7.182,7.182,0,0,1,3.356.379A2.522,2.522,0,0,0,50.734,97.593Z" transform="translate(-35.691 -87.021)" fill="#ff8b57"/>
        <path id="Trazado_878420" data-name="Trazado 878420" d="M393.816,298.5h-1.6a146.771,146.771,0,0,0,1.6-18.365l-5.589,4.791v17.567h7.985a.8.8,0,0,0,.8-.8A3.194,3.194,0,0,0,393.816,298.5Z" transform="translate(-353.099 -252.966)" fill="#ffc263"/>
        <path id="Trazado_878421" data-name="Trazado 878421" d="M122.129,345.836l-6.388,10.38h.8a3.194,3.194,0,0,1,3.194,3.194.8.8,0,0,1-.8.8h-5.589l-5.589-3.194,8.783-12.776Z" transform="translate(-100.575 -310.686)" fill="#ffc263"/>
        <path id="Trazado_878422" data-name="Trazado 878422" d="M106.5,205.3l-2,1.318a12.776,12.776,0,0,1-7.087,2.146H91.7a7.985,7.985,0,0,0-7.985,7.985v16.768a1.6,1.6,0,0,0,1.6,1.6H91.7a.785.785,0,0,0,.8-.747,3.194,3.194,0,0,0-3.194-3.246h-.8l4.4-7.145a4.791,4.791,0,0,1,5.6-2.034l7.575,2.525v9.05a1.6,1.6,0,0,0,1.6,1.6h6.388a.785.785,0,0,0,.8-.747,3.194,3.194,0,0,0-3.194-3.246h-1.6l1.691-7.329a11.516,11.516,0,0,0,7.891-10.751v-6.673Z" transform="translate(-78.93 -185.591)" fill="#ffaa5a"/>
        <path id="Trazado_878423" data-name="Trazado 878423" d="M106.5,205.3l-2,1.318a12.776,12.776,0,0,1-7.087,2.146H91.7a7.985,7.985,0,0,0-7.985,7.985v16.768a1.6,1.6,0,0,0,1.6,1.6h.8V216.749A5.6,5.6,0,0,1,91.7,211.16h5.714a15.229,15.229,0,0,0,6.791-1.6,3.584,3.584,0,0,1,3.27.1,11.879,11.879,0,0,0,5.785,1.508h.8v-5.245Z" transform="translate(-78.93 -185.591)" fill="#ff8b57"/>
        <path id="Trazado_878424" data-name="Trazado 878424" d="M332.132,212.587v.214a4.791,4.791,0,1,0,9.582,0V208.01Z" transform="translate(-302.593 -188.031)" fill="#ffd18d"/>
        <path id="Trazado_878425" data-name="Trazado 878425" d="M332.131,212.587a11.869,11.869,0,0,0,4.791,1.012h.8v-5.245l-4.232-.344h-1.357v4.577Z" transform="translate(-302.592 -188.031)" fill="#fbbd80"/>
        <path id="Trazado_878426" data-name="Trazado 878426" d="M302.655,17.871a4.459,4.459,0,0,1-.237-1.509V7.97a.461.461,0,0,0-.81-.3l-4.036,4.7h-.028a9.383,9.383,0,0,0-7.819,0H289.7l-4.036-4.7a.461.461,0,0,0-.81.3v8.4a4.429,4.429,0,0,1-.236,1.5,9.548,9.548,0,0,0-.54,3.9,9.688,9.688,0,0,0,6.9,8.533l5.186.047a9.579,9.579,0,0,0,6.5-12.475Z" transform="translate(-259.305 -7.508)" fill="#ffc263"/>
        <path id="Trazado_878427" data-name="Trazado 878427" d="M293.368,30.3a9.688,9.688,0,0,1-6.9-8.533,9.55,9.55,0,0,1,.54-3.9,4.43,4.43,0,0,0,.236-1.5V9.516L285.66,7.67a.461.461,0,0,0-.81.3v8.4a4.43,4.43,0,0,1-.236,1.5,9.548,9.548,0,0,0-.54,3.9,9.688,9.688,0,0,0,6.9,8.533l5.186.047c.023-.006.044-.015.067-.021Z" transform="translate(-259.304 -7.508)" fill="#ffaa5a"/>
        <path id="Trazado_878428" data-name="Trazado 878428" d="M302.143,155.921a2.4,2.4,0,0,0-1.694.7l-.593.593a2.4,2.4,0,0,1-1.694.7h-6a2.4,2.4,0,0,1-1.694-.7l-.593-.593a2.4,2.4,0,0,0-1.694-.7h-.13l-2.3.559a9.717,9.717,0,0,0,6.751,7.442h5.323a9.7,9.7,0,0,0,6.84-8h-2.52Z" transform="translate(-260.832 -141.132)" fill="#ffe09c"/>
        <path id="Trazado_878429" data-name="Trazado 878429" d="M294.1,163.923a9.707,9.707,0,0,1-6.845-8h-2.39a9.7,9.7,0,0,0,6.84,8l2.661.024v-.022Z" transform="translate(-260.035 -141.133)" fill="#ffd18d"/>
        <path id="Trazado_878430" data-name="Trazado 878430" d="M359.346,210.851a.975.975,0,0,0-1.551,0A3.588,3.588,0,0,1,356.173,212v1.412a2.4,2.4,0,0,0,4.791,0V212A3.587,3.587,0,0,1,359.346,210.851Z" transform="translate(-324.239 -190.243)" fill="#ff7e92"/>
        <circle id="Elipse_11511" data-name="Elipse 11511" cx="1.597" cy="1.597" r="1.597" transform="translate(32.733 15.188)" fill="#615260"/>
        <path id="Trazado_878431" data-name="Trazado 878431" d="M310.487,352.993h-.8a1.6,1.6,0,0,1-1.6-1.6V336.225h.8a1.6,1.6,0,0,1,1.6,1.6Z" transform="translate(-280.949 -303.47)" fill="#ff8b57"/>
      </g>
      <g id="Grupo_1189699" data-name="Grupo 1189699" transform="translate(28.133 -0.001)">
        <path id="Trazado_878432" data-name="Trazado 878432" d="M69.6,45.531h-.733A145.379,145.379,0,0,0,70.35,28.247c0-.016,0-.033,0-.049V21.8a10.315,10.315,0,0,0,2.588-10.946A3.68,3.68,0,0,1,72.747,9.6V1.209A1.208,1.208,0,0,0,70.622.422l-3.68,4.287a10.272,10.272,0,0,0-7.452,0L55.809.422a1.208,1.208,0,0,0-2.125.787v8.4a3.651,3.651,0,0,1-.192,1.248,10.25,10.25,0,0,0,1.48,9.678l-.931.621a11.991,11.991,0,0,1-6.672,2.02H41.656a8.73,8.73,0,0,0-7.212,3.815,8.787,8.787,0,0,1-4.8-8.326,8.9,8.9,0,0,1,8.389-8.356,8.806,8.806,0,0,1,4.88,1.19A3.476,3.476,0,0,1,44.64,14.66a3.6,3.6,0,0,1-2.007,3.146,3.27,3.27,0,0,1-3.237-.281,4.735,4.735,0,0,0-6.486,6.611.747.747,0,1,0,1.247-.824,3.275,3.275,0,0,1-.461-2.5,3.236,3.236,0,0,1,4.894-2.03,4.749,4.749,0,0,0,4.712.359,5.136,5.136,0,0,0,2.833-4.434,4.95,4.95,0,0,0-2.47-4.5,10.3,10.3,0,0,0-5.706-1.393,10.409,10.409,0,0,0-9.811,9.773,10.272,10.272,0,0,0,5.561,9.7,8.682,8.682,0,0,0-.785,3.616V48.674a2.347,2.347,0,0,0,2.344,2.344h7.186a.747.747,0,0,0,.747-.747v-.8a3.947,3.947,0,0,0-3.423-3.907l3.8-6.168a4.055,4.055,0,0,1,4.571-1.764l.3.086-5.026,8.168a.747.747,0,0,0,.636,1.139h.8A2.449,2.449,0,0,1,47.3,49.472v.051H45.649a.747.747,0,0,0,0,1.495h2.4a.747.747,0,0,0,.747-.747v-.8a3.947,3.947,0,0,0-3.423-3.907l4.562-7.414,5.351,1.554v8.969a2.347,2.347,0,0,0,2.344,2.344h7.187a.747.747,0,0,0,.747-.747v-.8a3.946,3.946,0,0,0-3.941-3.941h-.658l1.4-6.072q.462-.163.9-.36v4.784a.747.747,0,0,0,1.495,0V38.3a11.953,11.953,0,0,0,3.82-3.857c-.451,6.062-1.3,11.643-1.314,11.719a.747.747,0,0,0,.739.861h1.6a2.449,2.449,0,0,1,2.447,2.447v.051H68.007a.747.747,0,0,0,0,1.495H72.8a.747.747,0,0,0,.747-.747v-.8A3.946,3.946,0,0,0,69.6,45.531ZM54.4,14.953a8.78,8.78,0,0,1,.5-3.593,5.111,5.111,0,0,0,.28-1.754V1.983l2.915,3.395a10.511,10.511,0,0,0-.9.582.747.747,0,0,0,.874,1.213,8.938,8.938,0,0,1,1.484-.867q.032-.012.063-.028a8.781,8.781,0,0,1,7.211,0c.02.01.041.019.062.028a8.93,8.93,0,0,1,1.485.867.747.747,0,1,0,.874-1.213,10.526,10.526,0,0,0-.9-.582l2.915-3.395V9.6a5.138,5.138,0,0,0,.281,1.761,8.828,8.828,0,0,1-3.442,10.344,3.335,3.335,0,0,1-1.292.257,2.839,2.839,0,0,1-2.769-2.233,2.344,2.344,0,1,0-1.625,0,2.843,2.843,0,0,1-4.247,1.822l-.055-.036a8.85,8.85,0,0,1-3.7-6.565Zm8.814,8.916a.747.747,0,0,0,.747-.747V22.4a4.342,4.342,0,0,0,.9.6v.92a1.648,1.648,0,1,1-3.3,0V23a4.342,4.342,0,0,0,.9-.6v.723a.747.747,0,0,0,.747.747Zm-.85-6.337a.85.85,0,1,1,.85.85A.851.851,0,0,1,62.366,17.533Zm6.489,10.718a10.443,10.443,0,0,1-6.083,9.432l.373-1.617a.747.747,0,0,0-1.457-.336l-2.4,10.38a.747.747,0,0,0,.728.915h1.6a2.449,2.449,0,0,1,2.447,2.447v.051H57.626a.851.851,0,0,1-.85-.85V33.5a.747.747,0,1,0-1.495,0v4.646L48.562,36.2A5.553,5.553,0,0,0,42.3,38.614l-4.476,7.273a.747.747,0,0,0,.636,1.139h.8a2.449,2.449,0,0,1,2.447,2.447v.051H35.268a.851.851,0,0,1-.85-.85V31.905a7.246,7.246,0,0,1,7.238-7.238H47.37a13.481,13.481,0,0,0,7.5-2.271l1.095-.73a10.433,10.433,0,0,0,4.118,2.505,3.142,3.142,0,0,0,6.263.013,10.254,10.254,0,0,0,2.51-1.194s0,5.147,0,5.26Z" transform="translate(-28.133 0.001)"/>
        <path id="Trazado_878433" data-name="Trazado 878433" d="M341.406,122.668a.747.747,0,0,0,.747-.747v-.8a.747.747,0,0,0-1.495,0v.8A.747.747,0,0,0,341.406,122.668Z" transform="translate(-309.517 -108.38)"/>
        <path id="Trazado_878434" data-name="Trazado 878434" d="M405.514,122.668a.747.747,0,0,0,.747-.747v-.8a.747.747,0,0,0-1.495,0v.8A.747.747,0,0,0,405.514,122.668Z" transform="translate(-367.237 -108.38)"/>
      </g>
    </g>
  </g>
</svg>
