<svg xmlns="http://www.w3.org/2000/svg" width="84.208" height="84.207" viewBox="0 0 84.208 84.207">
  <g id="Grupo_1189850" data-name="Grupo 1189850" transform="translate(-10217.929 380.979)">
    <g id="Grupo_1189580" data-name="Grupo 1189580" transform="translate(9345.202 -659.756)">
      <g id="Grupo_1188789" data-name="Grupo 1188789" transform="translate(583.726 -5835.222)">
        <rect id="Rectángulo_400898" data-name="Rectángulo 400898" width="75.49" height="75.489" rx="37.744" transform="translate(293.36 6118.358)" fill="#ffd907"/>
        <rect id="Rectángulo_400907" data-name="Rectángulo 400907" width="75.49" height="75.489" rx="37.744" transform="translate(293.36 6118.358)" fill="none"/>
        <g id="Grupo_1098742" data-name="Grupo 1098742" transform="translate(289 6114)">
          <g id="Rectángulo_400898-2" data-name="Rectángulo 400898" transform="translate(0)" fill="none" stroke="#fff" stroke-width="1" opacity="0.859">
            <rect width="84.208" height="84.207" rx="42.104" stroke="none"/>
            <rect x="0.5" y="0.5" width="83.208" height="83.207" rx="41.604" fill="none"/>
          </g>
          <g id="Rectángulo_400907-2" data-name="Rectángulo 400907" transform="translate(0)" fill="none" stroke="#0f1f33" stroke-linecap="round" stroke-width="1">
            <rect width="84.208" height="84.207" rx="42.104" stroke="none"/>
            <rect x="0.5" y="0.5" width="83.208" height="83.207" rx="41.604" fill="none"/>
          </g>
        </g>
      </g>
    </g>
    <g id="yyy" transform="translate(10236.933 -362.311)">
      <path id="Trazado_879056" data-name="Trazado 879056" d="M335.51,408.066h-6.833a10.954,10.954,0,0,0-4.7,7.605,1.007,1.007,0,0,0,1,1.117h14.223a1.007,1.007,0,0,0,1-1.117A10.954,10.954,0,0,0,335.51,408.066Z" transform="translate(-293.732 -371.156)" fill="#c0694e"/>
      <path id="Trazado_879057" data-name="Trazado 879057" d="M327.152,415.675a1.007,1.007,0,0,0,1,1.117h-3.166a1.007,1.007,0,0,1-1-1.117,10.954,10.954,0,0,1,4.694-7.605h3.166a10.954,10.954,0,0,0-4.694,7.605Z" transform="translate(-293.735 -371.159)" fill="#ae583e"/>
      <path id="Trazado_879058" data-name="Trazado 879058" d="M38.182,350.568a2.692,2.692,0,0,1-2.692,2.692H11.227a2.691,2.691,0,0,1-2.692-2.692A12.31,12.31,0,0,1,15.2,339.628a12.047,12.047,0,0,1,1.357-.6,12.3,12.3,0,0,1,4.276-.761h5.047a12.3,12.3,0,0,1,4.275.761,12.119,12.119,0,0,1,1.357.6A12.309,12.309,0,0,1,38.182,350.568Z" transform="translate(-6.822 -307.672)" fill="#fff5f4"/>
      <path id="Trazado_879059" data-name="Trazado 879059" d="M11.7,350.568a2.691,2.691,0,0,0,2.692,2.692H11.227a2.691,2.691,0,0,1-2.692-2.692,12.3,12.3,0,0,1,12.3-12.3H24A12.3,12.3,0,0,0,11.7,350.568Z" transform="translate(-6.822 -307.672)" fill="#ebe0da"/>
      <path id="Trazado_879060" data-name="Trazado 879060" d="M138.518,292.9v-4.591h6.132V292.9l-2.77,9.04a.309.309,0,0,1-.591,0Z" transform="translate(-125.048 -262.227)" fill="#ffdecf"/>
      <circle id="Elipse_11540" data-name="Elipse 11540" cx="3.465" cy="3.465" r="3.465" transform="translate(4.395 15.708)" fill="#ffcdbe"/>
      <circle id="Elipse_11541" data-name="Elipse 11541" cx="3.465" cy="3.465" r="3.465" transform="translate(21.746 15.708)" fill="#ffcdbe"/>
      <path id="Trazado_879061" data-name="Trazado 879061" d="M82.425,97.5a8.949,8.949,0,0,0,8.949-8.949V75.406A1.869,1.869,0,0,0,89.5,73.537H75.345a1.869,1.869,0,0,0-1.869,1.869V88.552A8.949,8.949,0,0,0,82.425,97.5Z" transform="translate(-65.889 -66.885)" fill="#ffeee5"/>
      <path id="Trazado_879062" data-name="Trazado 879062" d="M339.925,269.116h-4.131a5.5,5.5,0,0,1-5.479-5.479V260a6.937,6.937,0,0,1,6.916-6.916h1.255A6.937,6.937,0,0,1,345.4,260v3.64A5.5,5.5,0,0,1,339.925,269.116Z" transform="translate(-299.498 -230.189)" fill="#d29380"/>
      <circle id="Elipse_11542" data-name="Elipse 11542" cx="2.111" cy="2.111" r="2.111" transform="translate(6.948 38.14)" fill="#766d78"/>
      <path id="Trazado_879063" data-name="Trazado 879063" d="M84.006,97.362a8.958,8.958,0,0,1-10.531-8.809V75.407a1.869,1.869,0,0,1,1.869-1.869H78.51a1.869,1.869,0,0,0-1.869,1.869V88.553A8.952,8.952,0,0,0,84.006,97.362Z" transform="translate(-65.889 -66.886)" fill="#ffdecf"/>
      <path id="Trazado_879064" data-name="Trazado 879064" d="M53.184,10.752A6.489,6.489,0,0,1,58.713,7.5H71.722a1.74,1.74,0,0,1,1.453,2.483l-.6,1.39q-.092.245-.188.479a.319.319,0,0,0,.293.442,1.288,1.288,0,0,1,1.075,1.838l-.442,1.028c-3.07,8.209-11.382,3.606-14.052,6.467a.637.637,0,0,1-1.1-.492V19.312a.636.636,0,0,0-.686-.635,5.754,5.754,0,0,0-3.893,1.435.86.86,0,0,1-1.481-.664V14.683a7.643,7.643,0,0,1,1.077-3.931Z" transform="translate(-46.453 -6.822)" fill="#766d78"/>
      <path id="Trazado_879065" data-name="Trazado 879065" d="M72.7,22.259c-3.443,6.328-10.931,2.426-13.441,5.114a.636.636,0,0,1-1.1-.491V25.058a.636.636,0,0,0-.687-.635,5.75,5.75,0,0,0-3.893,1.435.861.861,0,0,1-1.481-.665V20.43A7.641,7.641,0,0,1,53.182,16.5a6.776,6.776,0,0,1,2.945-2.681,7.678,7.678,0,0,0-.857,3.537v4.764a.861.861,0,0,0,1.481.665,5.75,5.75,0,0,1,3.893-1.435.636.636,0,0,1,.687.635v1.824a.636.636,0,0,0,1.1.491c1.888-2.022,6.594-.315,10.275-2.039Z" transform="translate(-46.452 -12.568)" fill="#655e67"/>
      <path id="Trazado_879066" data-name="Trazado 879066" d="M338.961,269.115H335.8a5.5,5.5,0,0,1-5.479-5.479V260a6.937,6.937,0,0,1,6.917-6.917h1.255a6.816,6.816,0,0,1,.956.067,6.94,6.94,0,0,0-5.962,6.85v3.64A5.5,5.5,0,0,0,338.961,269.115Z" transform="translate(-299.499 -230.189)" fill="#c97e67"/>
      <g id="Grupo_1189848" data-name="Grupo 1189848" transform="translate(30.531 21.482)">
        <path id="Trazado_879067" data-name="Trazado 879067" d="M332.024,237.844a.4.4,0,0,0-.393-.348h-4.017a.4.4,0,0,0-.393.348c-.117.986-.388,3.836,2.01,5.514a.8.8,0,0,0,.9,0C332.52,241.679,332.14,238.831,332.024,237.844Z" transform="translate(-327.147 -237.496)" fill="#ae583e"/>
        <path id="Trazado_879068" data-name="Trazado 879068" d="M450.216,237.844a.4.4,0,0,0-.393-.348h-4.017a.4.4,0,0,0-.393.348c-.117.986-.388,3.836,2.01,5.514a.8.8,0,0,0,.9,0C450.712,241.679,450.332,238.831,450.216,237.844Z" transform="translate(-434.648 -237.496)" fill="#ae583e"/>
        <path id="Trazado_879069" data-name="Trazado 879069" d="M397.524,329.9h-2.183a.626.626,0,0,0-.627.634,2.479,2.479,0,0,0,1.44,2.257.664.664,0,0,0,.622,0,2.37,2.37,0,0,0,1.375-2.277A.628.628,0,0,0,397.524,329.9Z" transform="translate(-388.602 -321.543)" fill="#ae583e"/>
      </g>
      <g id="Grupo_1189849" data-name="Grupo 1189849" transform="translate(1.034 0)">
        <path id="Trazado_879070" data-name="Trazado 879070" d="M148.979,259.171a.678.678,0,0,0-.678.678,1.155,1.155,0,1,1-2.309,0,.678.678,0,0,0-.678-.678c-1.392,0-.58,3.19,1.833,3.19S150.364,259.171,148.979,259.171Z" transform="translate(-131.644 -235.729)"/>
        <circle id="Elipse_11543" data-name="Elipse 11543" cx="1.089" cy="1.089" r="1.089" transform="translate(18.405 21.087) rotate(-67.486)"/>
        <path id="Trazado_879071" data-name="Trazado 879071" d="M197.246,185.1a5.214,5.214,0,0,1,3.082.231.678.678,0,0,0,.935-.213c.722-1.149-1.939-1.837-4.295-1.346a.678.678,0,0,0,.277,1.328Z" transform="translate(-178.755 -166.999)"/>
        <circle id="Elipse_11544" data-name="Elipse 11544" cx="1.089" cy="1.089" r="1.089" transform="matrix(0.987, -0.16, 0.16, 0.987, 9.93, 19.594)"/>
        <path id="Trazado_879072" data-name="Trazado 879072" d="M98.718,184.568a.678.678,0,0,0-.526-.8c-.263-.055-2.617-.51-4.081.41a.678.678,0,1,0,.722,1.149,5.15,5.15,0,0,1,3.083-.231A.678.678,0,0,0,98.718,184.568Z" transform="translate(-85.404 -166.997)"/>
        <path id="Trazado_879073" data-name="Trazado 879073" d="M47.148,44.442A11.07,11.07,0,0,0,44.3,38.227a6.2,6.2,0,0,0,2.286-4.779c0-3.805.162-4.962-.707-6.83a6.945,6.945,0,0,0,.9-4.82l-.006-.047a1.074,1.074,0,0,0-1.067-.947H41.688a1.074,1.074,0,0,0-1.067.947c-.025.214-.043.423-.055.628a7.55,7.55,0,0,0-1.576-.166,11.937,11.937,0,0,0-2.842.169c-.018-.232-.041-.423-.066-.631a1.074,1.074,0,0,0-1.067-.947H31a1.074,1.074,0,0,0-1.067.947,6.8,6.8,0,0,0,.944,4.808c-.9,1.9-.734,3.089-.734,6.889a6.2,6.2,0,0,0,2.288,4.78,12.077,12.077,0,0,0-.886,1.109,12.978,12.978,0,0,0-10.351-9.244,9.7,9.7,0,0,0,4.843-6.859,4.142,4.142,0,0,0,.129-8.092V11.088a10.092,10.092,0,0,0,1.329-2.5c.459-1.067.6-1.3.6-1.828a1.959,1.959,0,0,0-1.366-1.9,6.923,6.923,0,0,0,.823-2.443A2.359,2.359,0,0,0,25.269,0H12.259c-3.9,0-7.284,3.337-7.284,7.975a.678.678,0,1,0,1.357,0c0-3.891,2.782-6.618,5.927-6.618H25.269a1.066,1.066,0,0,1,.83,1.537c-.773,1.8-.866,1.964-.866,2.26a1,1,0,0,0,1,1,.579.579,0,0,1,.51.612A6.566,6.566,0,0,1,26.227,8.1c-2.9,7.755-10.721,3.06-13.834,6.16V12.49a1.314,1.314,0,0,0-1.421-1.311,6.4,6.4,0,0,0-4.333,1.648c-.137.147-.307.008-.307-.2V10.689a.678.678,0,0,0-1.357,0v1.937a1.553,1.553,0,0,0,1.933,1.566v.948a4.143,4.143,0,0,0,.129,8.093,9.7,9.7,0,0,0,4.844,6.859A12.975,12.975,0,0,0,1.034,42.9,3.374,3.374,0,0,0,4.4,46.266H5.477a.678.678,0,1,0,0-1.357H4.4A2.015,2.015,0,0,1,2.391,42.9,11.6,11.6,0,0,1,8.38,32.719v4.827a2.789,2.789,0,1,0,1.357,0V32.081a11.608,11.608,0,0,1,3.223-.758l2.9,9.451v4.136H8.2a.678.678,0,1,0,0,1.357H28.667a3.347,3.347,0,0,0,1.5-.354,1.685,1.685,0,0,0,1.083.4h9.638a.678.678,0,0,0,0-1.357H31.332c.83-1.072.785-2.216.605-3.668a10.458,10.458,0,0,1,1.648-2.316c1.616.8,2.5.634,6.843.634a6.126,6.126,0,0,0,2.713-.634A9.782,9.782,0,0,1,45.8,44.589a.328.328,0,0,1-.326.365H43.6a.678.678,0,1,0,0,1.357h1.871A1.686,1.686,0,0,0,47.148,44.442ZM26.163,16.556a2.788,2.788,0,0,1,0,5.238C26.163,21.607,26.163,22.314,26.163,16.556Zm-19.255,0c0,5.777,0,5.047,0,5.238A2.789,2.789,0,0,1,6.908,16.555Zm3.582,23.7a1.432,1.432,0,1,1-1.432-1.432A1.434,1.434,0,0,1,10.49,40.251ZM8.312,22.558c-.065-.6-.048-.129-.048-9.311a6.489,6.489,0,0,1,2.771-.712v1.779a1.316,1.316,0,0,0,2.27.955c1.8-1.926,7.551.352,11.5-2.772,0,9.947.018,9.456-.048,10.063a8.271,8.271,0,0,1-16.446,0Zm5.976,8.47a9.694,9.694,0,0,0,4.493,0l-2.246,7.33Zm15.76,13.33a2.117,2.117,0,0,1-1.382.552H17.214V40.776l2.9-9.454a11.606,11.606,0,0,1,3.224.758v4.431a2.681,2.681,0,0,0-2,2.589v3.411a.678.678,0,0,0,1.357,0V39.1a1.319,1.319,0,0,1,2.638,0v3.411a.678.678,0,1,0,1.357,0V39.1a2.681,2.681,0,0,0-2-2.588V32.719a11.591,11.591,0,0,1,5.869,8.5c.1,1.219.381,2.293-.512,3.138Zm11.893-22.2h3.512c.208,1.861-.1,3.547-1.641,4.629a.121.121,0,0,1-.12,0C42.336,25.838,41.748,24.282,41.942,22.16Zm-10.691,0h3.512c.207,1.851-.084,3.536-1.641,4.629a.121.121,0,0,1-.12,0C31.646,25.838,31.057,24.282,31.252,22.16Zm9.176,16.088H36.3a4.823,4.823,0,0,1-4.8-4.8c0-3.757-.11-4.455.39-5.8q.163.132.338.255a1.465,1.465,0,0,0,1.677,0,5.361,5.361,0,0,0,2.249-4.124,6.181,6.181,0,0,1,1.583-.206,9.721,9.721,0,0,1,2.854.21,5.453,5.453,0,0,0,2.327,4.12,1.46,1.46,0,0,0,.838.263,1.661,1.661,0,0,0,1.1-.463c.472,1.306.37,1.94.37,5.747a4.822,4.822,0,0,1-4.8,4.8Z" transform="translate(-1.034 0)"/>
        <circle id="Elipse_11545" data-name="Elipse 11545" cx="0.778" cy="0.778" r="0.778" transform="translate(32.542 28.577)"/>
        <circle id="Elipse_11546" data-name="Elipse 11546" cx="0.778" cy="0.778" r="0.778" transform="translate(40.56 28.577)"/>
        <path id="Trazado_879074" data-name="Trazado 879074" d="M382.881,327.271a.678.678,0,0,0-.678.678.648.648,0,0,1-1.3.024c0-.008,0-.016,0-.024v-1.391a3.038,3.038,0,0,0,1.717-2.882,1.3,1.3,0,0,0-1.305-1.276h-2.183a1.3,1.3,0,0,0-1.306,1.323,3.13,3.13,0,0,0,1.718,2.8v1.426c0,.008,0,.016,0,.024a.648.648,0,0,1-1.3-.024.678.678,0,0,0-1.357,0,3.585,3.585,0,0,0,6.661,0A.678.678,0,0,0,382.881,327.271Zm-1.612-3.514a1.679,1.679,0,0,1-.96,1.582.69.69,0,0,0-.08-.005H380.2a1.8,1.8,0,0,1-1.015-1.578Z" transform="translate(-342.901 -293.238)"/>
      </g>
    </g>
  </g>
</svg>
