<svg xmlns="http://www.w3.org/2000/svg" width="84.208" height="84.207" viewBox="0 0 84.208 84.207">
  <g id="Grupo_1189890" data-name="Grupo 1189890" transform="translate(-15865.929 7039.809)">
    <g id="Grupo_1189687" data-name="Grupo 1189687" transform="translate(14993.202 -7318.586)">
      <g id="Grupo_1188789" data-name="Grupo 1188789" transform="translate(583.726 -5835.222)">
        <rect id="Rectángulo_400898" data-name="Rectángulo 400898" width="75.49" height="75.489" rx="37.744" transform="translate(293.36 6118.358)" fill="#ffd907"/>
        <rect id="Rectángulo_400907" data-name="Rectángulo 400907" width="75.49" height="75.489" rx="37.744" transform="translate(293.36 6118.358)" fill="none"/>
        <g id="Grupo_1098742" data-name="Grupo 1098742" transform="translate(289 6114)">
          <g id="Rectángulo_400898-2" data-name="Rectángulo 400898" transform="translate(0)" fill="none" stroke="#fff" stroke-width="1" opacity="0.859">
            <rect width="84.208" height="84.207" rx="42.104" stroke="none"/>
            <rect x="0.5" y="0.5" width="83.208" height="83.207" rx="41.604" fill="none"/>
          </g>
          <g id="Rectángulo_400907-2" data-name="Rectángulo 400907" transform="translate(0)" fill="none" stroke="#0f1f33" stroke-linecap="round" stroke-width="1">
            <rect width="84.208" height="84.207" rx="42.104" stroke="none"/>
            <rect x="0.5" y="0.5" width="83.208" height="83.207" rx="41.604" fill="none"/>
          </g>
        </g>
      </g>
    </g>
    <g id="avesss" transform="translate(15872.125 -7034.973)">
      <g id="Grupo_1189888" data-name="Grupo 1189888" transform="translate(11.882 20.99)">
        <ellipse id="Elipse_11561" data-name="Elipse 11561" cx="3.092" cy="1.968" rx="3.092" ry="1.968" transform="translate(32.204 7.903) rotate(-7.644)" fill="#edbf7e"/>
        <path id="Trazado_879288" data-name="Trazado 879288" d="M89.51,47H85.2v3h2.952c2.389,0,2.9,1.078,2.9,1.078v-2.53A1.56,1.56,0,0,0,89.51,47Z" transform="translate(-51.269 -41.563)" fill="#ffd896"/>
        <path id="Trazado_879289" data-name="Trazado 879289" d="M58.659,36.1a6.765,6.765,0,0,0-9.042,3L44.838,48.61c-2.343,4.685-6.138,4.779-6.138,4.779,5.107,6.419,14.524,6.934,18.085,1.5.047-.094.094-.141.141-.234L61.7,45.1a6.659,6.659,0,0,0-.75-7.168,6.729,6.729,0,0,0-2.3-1.827Z" transform="translate(-26.555 -35.396)" fill="#ffcc6a"/>
        <path id="Trazado_879290" data-name="Trazado 879290" d="M47.93,53.757a5.1,5.1,0,0,0-4.685,1.312,17.857,17.857,0,0,0-1.874,2.343A8.472,8.472,0,0,1,38.7,59.567c1.078,1.64,3.748,2.764,6.84,2.764,4.076,0,7.356-1.968,7.356-4.4C52.849,56.006,50.834,54.366,47.93,53.757Z" transform="translate(-26.555 -45.088)" fill="#90cb8a"/>
        <path id="Trazado_879291" data-name="Trazado 879291" d="M77.575,40.7C74.483,40.7,72,42.621,72,45.01A4.338,4.338,0,0,0,75.139,48.9L72.89,53.865a2.865,2.865,0,0,0,1.452,3.795l.141.047c.047-.094.094-.141.141-.234L79.4,47.915a6.659,6.659,0,0,0-.75-7.168C78.278,40.747,77.95,40.7,77.575,40.7Z" transform="translate(-44.253 -38.215)" fill="#90cb8a"/>
        <path id="Trazado_879292" data-name="Trazado 879292" d="M56.641,105.5H16.911c-3.139,0-3.28,1.312-4.029,3.561a1.74,1.74,0,0,0,1.078,2.249,2.352,2.352,0,0,0,.562.094H58.983a1.74,1.74,0,0,0,1.733-1.78,2.352,2.352,0,0,0-.094-.562C59.92,106.812,59.78,105.5,56.641,105.5Z" transform="translate(-12.777 -72.655)" fill="#ffcc6a"/>
      </g>
      <g id="Grupo_1189889" data-name="Grupo 1189889" transform="translate(11.092 8.292)">
        <path id="Trazado_879293" data-name="Trazado 879293" d="M56.729,53.038V32.049a19.531,19.531,0,0,0-18.272-19.49,2.923,2.923,0,1,0-5.2-2.671,2.977,2.977,0,0,0,0,2.671,19.49,19.49,0,0,0-18.225,19.49V53.085c-2.624.281-3,1.687-3.795,4.029a2.591,2.591,0,0,0,.328,2.343,2.618,2.618,0,0,0,2.108,1.078h2.249a.843.843,0,0,0,0-1.687H13.673a.978.978,0,0,1-.75-.375c-.328-.469-.141-.89.094-1.5.609-1.827.8-2.389,3.045-2.389h39.73c2.483,0,2.436.656,3.233,3a1.026,1.026,0,0,1-.141.89.978.978,0,0,1-.75.375H25.713a.843.843,0,0,0,0,1.687H58.134a2.556,2.556,0,0,0,2.108-1.078,2.921,2.921,0,0,0,.141-2.952c-.562-1.687-1.078-3.186-3.654-3.467ZM46.656,22.726a7.485,7.485,0,0,0-6.887-2.483,26.378,26.378,0,0,0-1.78-5.95A11.181,11.181,0,0,1,46.656,22.726Zm-3.608,8.2a3.574,3.574,0,0,1-2.624-3.092c0-1.921,2.3-3.748,5.388-3.467a6.116,6.116,0,0,1,1.078,3.373,5.96,5.96,0,0,1-.609,2.624l-4.5,9a2.082,2.082,0,0,1-.515-2.389L43.517,32a.812.812,0,0,0-.469-1.078ZM38.176,20.711a7.5,7.5,0,0,0-3.982,3.608l-1.359,2.717V25.771c0-2.624,1.78-11.01,3.045-11.666C36.958,14.855,37.942,19.446,38.176,20.711ZM35.88,9.889a1.289,1.289,0,1,1,.047,2.577H35.88a1.271,1.271,0,0,1-1.265-1.312A1.231,1.231,0,0,1,35.88,9.889Zm-2.061,4.4c-1.827,3.514-2.624,10.823-2.624,11.479v3a5.838,5.838,0,0,0-3.186,1.546,10.184,10.184,0,0,0-1.452,1.733H24.823V25.162A11.136,11.136,0,0,1,33.819,14.293Zm-9,19.677v-.234H25.1C25.057,33.829,24.917,33.876,24.823,33.97Zm.656,3.842c-.234.094-.422.141-.656.234v-.609A2.987,2.987,0,0,1,25.479,37.812Zm-2.3,15.18H16.671V47.979H23.23v5.013Zm0-6.653H16.671v-12.6H23.23v12.6Zm0-14.243H16.671v-.047a17.988,17.988,0,0,1,11.01-16.538,12.72,12.72,0,0,0-4.451,9.651V32.1Zm8.012,20.9H24.823V47.979h6.372Zm0-7.777a4.211,4.211,0,0,0-.562,1.124h-5.81V41.091a14.491,14.491,0,0,0,6.372,3.514Zm7.73,7.777H32.835V47.979h6.044v5.013Zm-6.091-6.653v-.515a3.469,3.469,0,0,1,2.249-.8,3.013,3.013,0,0,1,2.671,1.312Zm6.091-1.171a2.51,2.51,0,0,0-.7-.7l.7-.281Zm.422-3.045c-.047,0-.047.047-.094.047a9.043,9.043,0,0,1-4.263,1.265,12.485,12.485,0,0,1-9.417-3.889,8.091,8.091,0,0,0,1.921-.937,12.233,12.233,0,0,0,6.231.141.818.818,0,1,0-.375-1.593c-2.624.609-6,.281-8.058-1.452a8.7,8.7,0,0,0,2.061-1.874,17.549,17.549,0,0,1,1.827-2.249A4.45,4.45,0,0,1,33.163,30.5c2.53.515,4.263,1.921,4.263,3.373a2.812,2.812,0,0,1-1.359,2.155A.806.806,0,0,0,37,37.343a4.286,4.286,0,0,0,2.015-3.467c0-2.2-2.108-4.123-5.294-4.919l1.921-3.842a5.929,5.929,0,0,1,7.918-2.671,3.494,3.494,0,0,1,.562.328c-3.045.375-5.388,2.53-5.388,5.06a4.932,4.932,0,0,0,2.858,4.31l-1.874,4.217a3.72,3.72,0,0,0,1.124,4.451,8.141,8.141,0,0,1-1.5,1.312Zm7.59,10.869H40.565V47.979h6.372Zm0-6.653H40.565V43.247A8.381,8.381,0,0,0,42.767,41a.98.98,0,0,1,.187-.281A.046.046,0,0,1,43,40.67l3.42-6.887h.515Zm.562-14.8a8.782,8.782,0,0,0,.609-1.312,5.818,5.818,0,0,1,1.5.094c-.187.656-1.265,1.171-2.108,1.218ZM48.53,27.27h1.593a.74.74,0,0,1,.75.75V29a6.925,6.925,0,0,0-2.389-.328,6.555,6.555,0,0,0,.047-1.406Zm6.559,25.721H48.53V47.979h6.559Zm0-6.653H48.53v-12.6h6.559Zm0-14.243H50.31a2.752,2.752,0,0,0,.75-.984.82.82,0,0,0,.8.281.858.858,0,0,0,.656-.843V28.02a2.4,2.4,0,0,0-2.389-2.389H48.53v-.469a12.5,12.5,0,0,0-4.5-9.651A17.862,17.862,0,0,1,55.089,32.049Z" transform="translate(-11.092 -8.292)"/>
        <path id="Trazado_879294" data-name="Trazado 879294" d="M30.623,116.3h-3.28a.843.843,0,0,0,0,1.687h3.28a.843.843,0,0,0,0-1.687Z" transform="translate(-19.281 -65.697)"/>
        <path id="Trazado_879295" data-name="Trazado 879295" d="M76.733,46.868a.577.577,0,0,1-.469-.234.829.829,0,0,0-1.218,1.124,2.371,2.371,0,0,0,1.733.75,2.155,2.155,0,0,0,1.687-.8.828.828,0,1,0-1.171-1.171A.568.568,0,0,1,76.733,46.868Z" transform="translate(-44.964 -28.499)"/>
      </g>
    </g>
  </g>
</svg>
