<svg xmlns="http://www.w3.org/2000/svg" width="84.208" height="84.207" viewBox="0 0 84.208 84.207">
  <g id="Grupo_1189707" data-name="Grupo 1189707" transform="translate(6884.875 8039.522)">
    <g id="Grupo_1189010" data-name="Grupo 1189010" transform="translate(-7757.602 -8318.299)">
      <g id="Grupo_1188789" data-name="Grupo 1188789" transform="translate(583.726 -5835.222)">
        <rect id="Rectángulo_400898" data-name="Rectángulo 400898" width="75.49" height="75.489" rx="37.744" transform="translate(293.36 6118.358)" fill="#ffd907"/>
        <rect id="Rectángulo_400907" data-name="Rectángulo 400907" width="75.49" height="75.489" rx="37.744" transform="translate(293.36 6118.358)" fill="none"/>
        <g id="Grupo_1098742" data-name="Grupo 1098742" transform="translate(289 6114)">
          <g id="Rectángulo_400898-2" data-name="Rectángulo 400898" transform="translate(0)" fill="none" stroke="#fff" stroke-width="1" opacity="0.859">
            <rect width="84.208" height="84.207" rx="42.104" stroke="none"/>
            <rect x="0.5" y="0.5" width="83.208" height="83.207" rx="41.604" fill="none"/>
          </g>
          <g id="Rectángulo_400907-2" data-name="Rectángulo 400907" transform="translate(0)" fill="none" stroke="#0f1f33" stroke-linecap="round" stroke-width="1">
            <rect width="84.208" height="84.207" rx="42.104" stroke="none"/>
            <rect x="0.5" y="0.5" width="83.208" height="83.207" rx="41.604" fill="none"/>
          </g>
        </g>
      </g>
    </g>
    <g id="diogestivo" transform="translate(-6906.999 -8025.518)">
      <path id="Trazado_878435" data-name="Trazado 878435" d="M52.505,49.731a3.125,3.125,0,0,1,5-.507,20.576,20.576,0,0,0,32.066-2.105c5.092-7.4,5.231-16.253,1.923-24.537a11.383,11.383,0,0,0-17.816-4.506l-.016.013a2.225,2.225,0,0,1-3.076-.2,15.784,15.784,0,0,1-3.526-6.511L66.07,7.7a.264.264,0,0,0-.255-.2H62.231a.264.264,0,0,0-.255.332L63.2,12.408a19.846,19.846,0,0,0,5.89,9.612,2.213,2.213,0,0,1,.664,2.2,11.955,11.955,0,0,0,.4,7.278A12.082,12.082,0,0,1,68.53,43.262a8.179,8.179,0,0,1-4.537,2.969,6.453,6.453,0,0,1-5.082-.953,7.1,7.1,0,0,0-8.747,11.067l5.629,5.629a.264.264,0,0,0,.187.077h4.9a.264.264,0,0,0,.187-.45l-8.028-8.028A3.174,3.174,0,0,1,52.505,49.731Z" transform="translate(-6.677 -6.677)" fill="#f9b1b1"/>
      <path id="Trazado_878436" data-name="Trazado 878436" d="M298.8,124.97l0,0,.021-.018Z" transform="translate(-229.874 -111.234)" fill="#0681af"/>
      <path id="Trazado_878437" data-name="Trazado 878437" d="M287.9,122.2a26.937,26.937,0,0,0-2.014-9.37,8.354,8.354,0,0,0-13.072-3.3l-.014.012-.027.022a8.5,8.5,0,0,0-2.867,4.5l-.009.037a8.888,8.888,0,0,0,.3,5.436,16.369,16.369,0,0,1,.771,2.675l8.178,4.379Z" transform="translate(-203.885 -95.802)" fill="#f37c7c"/>
      <path id="Trazado_878438" data-name="Trazado 878438" d="M253.667,239.859c-1.8,0-1.8-.658-3.6-.658s-1.8.658-3.6.658-1.8-.658-3.6-.658a4.558,4.558,0,0,0-1.309.164,14.767,14.767,0,0,1-1.106,9.147,15.145,15.145,0,0,1-1.717,2.858,10.929,10.929,0,0,1-1,1.132,3.885,3.885,0,0,0,2.688,6.654h.116a17.651,17.651,0,0,0,7.955-1.89,17.016,17.016,0,0,0,6.374-5.6,20.324,20.324,0,0,0,3.584-10.407q.059-.953.036-1.919a4.656,4.656,0,0,0-1.232-.143C255.466,239.2,255.466,239.859,253.667,239.859Z" transform="translate(-174.483 -212.945)" fill="#fdb441"/>
      <path id="Trazado_878439" data-name="Trazado 878439" d="M362.08,111.583a26.106,26.106,0,0,1,1.978,11.289,21.143,21.143,0,0,1-.334,2.668l4.76-2.392a26.938,26.938,0,0,0-2.014-9.37,8.266,8.266,0,0,0-6.343-5.1A8.263,8.263,0,0,1,362.08,111.583Z" transform="translate(-284.469 -96.749)" fill="#ee6161"/>
      <path id="Trazado_878440" data-name="Trazado 878440" d="M261.6,239.344a4.656,4.656,0,0,0-1.233-.143c-1.677,0-1.791.572-3.255.65a20.286,20.286,0,0,1-3.521,9.625,17.017,17.017,0,0,1-6.374,5.6,17.626,17.626,0,0,1-7.152,1.872,3.8,3.8,0,0,0,3.47,2.212h.116a17.651,17.651,0,0,0,7.955-1.89,17.016,17.016,0,0,0,6.374-5.6,20.324,20.324,0,0,0,3.584-10.407Q261.622,240.31,261.6,239.344Z" transform="translate(-177.586 -212.945)" fill="#fea713"/>
      <circle id="Elipse_11512" data-name="Elipse 11512" cx="1.515" cy="1.515" r="1.515" transform="translate(70.286 31.129)" fill="#fece85"/>
      <circle id="Elipse_11513" data-name="Elipse 11513" cx="1.515" cy="1.515" r="1.515" transform="translate(71.801 37.188)" fill="#fece85"/>
      <path id="Trazado_878441" data-name="Trazado 878441" d="M333.522,349.657a1.516,1.516,0,0,0,2-1.935A16.94,16.94,0,0,1,333.522,349.657Z" transform="translate(-260.785 -309.555)" fill="#fec165"/>
      <path id="Trazado_878442" data-name="Trazado 878442" d="M128.594,368.715a.82.82,0,0,1-.551-.212,5.08,5.08,0,0,1-1.665-3.77.823.823,0,0,1,1.646,0,3.431,3.431,0,0,0,1.121,2.548.823.823,0,0,1-.552,1.434Z" transform="translate(-76.378 -323.965)"/>
      <path id="Trazado_878443" data-name="Trazado 878443" d="M54.2,56.2H49.3a1.08,1.08,0,0,1-.769-.318L42.9,50.251a7.943,7.943,0,0,1-1.26-9.575,7.917,7.917,0,0,1,11.041-2.762,5.656,5.656,0,0,0,4.432.842,7.39,7.39,0,0,0,4.082-2.67,11.291,11.291,0,0,0,1.279-2.131,11.174,11.174,0,0,0,.234-8.838,12.72,12.72,0,0,1-.43-7.779,1.385,1.385,0,0,0-.418-1.382,20.62,20.62,0,0,1-4.355-5.536.823.823,0,0,1,1.449-.783,18.978,18.978,0,0,0,4.008,5.095,3.026,3.026,0,0,1,.91,3.021,11.082,11.082,0,0,0,.375,6.778,12.786,12.786,0,0,1-.278,10.114,12.941,12.941,0,0,1-1.466,2.441,9.042,9.042,0,0,1-4.993,3.268,7.305,7.305,0,0,1-5.732-1.064,6.271,6.271,0,0,0-8.712,2.21,6.294,6.294,0,0,0,1,7.587l5.466,5.466h3.314l-7.073-7.073a3.988,3.988,0,0,1-.655-4.844,3.9,3.9,0,0,1,2.97-1.909,3.939,3.939,0,0,1,3.34,1.263,19.812,19.812,0,0,0,16.052,6.379,19.445,19.445,0,0,0,14.73-8.393c4.622-6.718,5.274-15.157,1.837-23.765a10.56,10.56,0,0,0-16.528-4.176,3.048,3.048,0,0,1-4.227-.273,16.5,16.5,0,0,1-3.71-6.849l-.875-3.265H56.283L57.32,5.519q.095.353.2.7a.823.823,0,0,1-1.573.487q-.117-.378-.22-.761L54.5,1.369A1.087,1.087,0,0,1,55.554,0h3.584a1.089,1.089,0,0,1,1.05.805l.986,3.68a14.863,14.863,0,0,0,3.342,6.172,1.4,1.4,0,0,0,1.94.12A12.206,12.206,0,0,1,85.577,15.6c3.648,9.135,2.934,18.123-2.01,25.308a21.083,21.083,0,0,1-15.97,9.1q-.777.055-1.549.055A21.44,21.44,0,0,1,50.218,43.1a2.307,2.307,0,0,0-1.956-.741,2.263,2.263,0,0,0-1.726,1.109,2.342,2.342,0,0,0,.4,2.842l8.028,8.028A1.087,1.087,0,0,1,54.2,56.2Z"/>
      <path id="Trazado_878444" data-name="Trazado 878444" d="M292.2,119.1a.818.818,0,0,1-.535-1.442l.023-.019h0a.82.82,0,0,1,.563-.188h0a.823.823,0,0,1,.774.936h0a.824.824,0,0,1-.055.186h-.013a.82.82,0,0,1-.218.28A.843.843,0,0,1,292.2,119.1Z" transform="translate(-223.26 -104.558)"/>
      <path id="Trazado_878445" data-name="Trazado 878445" d="M264.287,116.369a.823.823,0,0,1-.807-.665,15.6,15.6,0,0,0-.732-2.541,9.707,9.707,0,0,1-.329-5.937,9.3,9.3,0,0,1,3.152-4.972,9.113,9.113,0,0,1,5.877-2.14,9.258,9.258,0,0,1,3.44.655.823.823,0,0,1-.609,1.53,7.619,7.619,0,0,0-2.831-.538,7.45,7.45,0,0,0-4.791,1.732,7.686,7.686,0,0,0-2.634,4.106,8.1,8.1,0,0,0,.263,4.978,17.255,17.255,0,0,1,.809,2.81.824.824,0,0,1-.809.982Z" transform="translate(-197.206 -89.125)"/>
      <path id="Trazado_878446" data-name="Trazado 878446" d="M401.3,139.16a.823.823,0,0,1-.823-.8,26.16,26.16,0,0,0-1.956-9.084,7.447,7.447,0,0,0-1.327-2.165.823.823,0,0,1,1.236-1.088,9.089,9.089,0,0,1,1.62,2.642,27.8,27.8,0,0,1,2.073,9.656.823.823,0,0,1-.8.842Z" transform="translate(-317.286 -111.938)"/>
      <path id="Trazado_878447" data-name="Trazado 878447" d="M233.739,253.3a4.708,4.708,0,0,1-3.291-8.063,10.13,10.13,0,0,0,.923-1.046,14.32,14.32,0,0,0,1.624-2.7,13.868,13.868,0,0,0,1.046-8.644.823.823,0,0,1,.581-.95,5.441,5.441,0,0,1,1.536-.2,5.294,5.294,0,0,1,2.082.379,4.257,4.257,0,0,0,3.032,0,5.9,5.9,0,0,1,4.163,0,4.257,4.257,0,0,0,3.032,0,5.294,5.294,0,0,1,2.082-.379,5.506,5.506,0,0,1,1.444.17.823.823,0,0,1,.612.777c.015.665,0,1.335-.038,1.989a21.136,21.136,0,0,1-3.727,10.823,17.83,17.83,0,0,1-6.68,5.864,18.248,18.248,0,0,1-4.29,1.534.823.823,0,1,1-.358-1.607,16.6,16.6,0,0,0,3.9-1.4,16.2,16.2,0,0,0,6.069-5.329,19.511,19.511,0,0,0,3.44-9.991c.024-.387.037-.779.04-1.173-.121-.01-.258-.015-.415-.015a3.69,3.69,0,0,0-1.516.279,5.9,5.9,0,0,1-4.163,0,4.257,4.257,0,0,0-3.032,0,5.9,5.9,0,0,1-4.163,0,3.689,3.689,0,0,0-1.516-.279c-.134,0-.253,0-.361.011a15.7,15.7,0,0,1-1.307,8.822,15.968,15.968,0,0,1-1.811,3.014,11.782,11.782,0,0,1-1.073,1.217,3.062,3.062,0,0,0,2.115,5.245l.027.823Z" transform="translate(-167.767 -206.268)"/>
      <path id="Elipse_11514" data-name="Elipse 11514" d="M-5.162-7.5A2.341,2.341,0,0,1-2.824-5.162,2.341,2.341,0,0,1-5.162-2.824,2.341,2.341,0,0,1-7.5-5.162,2.341,2.341,0,0,1-5.162-7.5Zm0,3.029a.692.692,0,0,0,.691-.691.692.692,0,0,0-.691-.691.692.692,0,0,0-.691.691A.692.692,0,0,0-5.162-4.471Z" transform="translate(76.963 37.806)"/>
      <path id="Elipse_11515" data-name="Elipse 11515" d="M-5.162-7.5A2.341,2.341,0,0,1-2.824-5.162,2.341,2.341,0,0,1-5.162-2.824,2.341,2.341,0,0,1-7.5-5.162,2.341,2.341,0,0,1-5.162-7.5Zm0,3.029a.692.692,0,0,0,.691-.691.692.692,0,0,0-.691-.691.692.692,0,0,0-.691.691A.692.692,0,0,0-5.162-4.471Z" transform="translate(78.478 43.865)"/>
      <g id="Grupo_1189702" data-name="Grupo 1189702" transform="translate(79.278 32.12)">
        <g id="Grupo_1189701" data-name="Grupo 1189701">
          <path id="Línea_673" data-name="Línea 673"/>
        </g>
      </g>
      <g id="Grupo_1189704" data-name="Grupo 1189704" transform="translate(77.168 34.85)">
        <g id="Grupo_1189703" data-name="Grupo 1189703">
          <path id="Línea_674" data-name="Línea 674"/>
        </g>
      </g>
      <g id="Grupo_1189706" data-name="Grupo 1189706" transform="translate(68.08 39.525)">
        <g id="Grupo_1189705" data-name="Grupo 1189705">
          <path id="Línea_675" data-name="Línea 675"/>
        </g>
      </g>
    </g>
  </g>
</svg>
