<svg xmlns="http://www.w3.org/2000/svg" width="84.208" height="84.207" viewBox="0 0 84.208 84.207">
  <g id="Grupo_1189824" data-name="Grupo 1189824" transform="translate(-2904.927 8042.862)">
    <g id="Grupo_1189271" data-name="Grupo 1189271" transform="translate(2032.201 -8321.64)">
      <g id="Grupo_1188789" data-name="Grupo 1188789" transform="translate(583.726 -5835.222)">
        <rect id="Rectángulo_400898" data-name="Rectángulo 400898" width="75.49" height="75.489" rx="37.744" transform="translate(293.36 6118.358)" fill="#ffd907"/>
        <rect id="Rectángulo_400907" data-name="Rectángulo 400907" width="75.49" height="75.489" rx="37.744" transform="translate(293.36 6118.358)" fill="none"/>
        <g id="Grupo_1098742" data-name="Grupo 1098742" transform="translate(289 6114)">
          <g id="Rectángulo_400898-2" data-name="Rectángulo 400898" transform="translate(0)" fill="none" stroke="#fff" stroke-width="1" opacity="0.859">
            <rect width="84.208" height="84.207" rx="42.104" stroke="none"/>
            <rect x="0.5" y="0.5" width="83.208" height="83.207" rx="41.604" fill="none"/>
          </g>
          <g id="Rectángulo_400907-2" data-name="Rectángulo 400907" transform="translate(0)" fill="none" stroke="#0f1f33" stroke-linecap="round" stroke-width="1">
            <rect width="84.208" height="84.207" rx="42.104" stroke="none"/>
            <rect x="0.5" y="0.5" width="83.208" height="83.207" rx="41.604" fill="none"/>
          </g>
        </g>
      </g>
    </g>
    <g id="conejo" transform="translate(2884.359 -8028.063)">
      <g id="Grupo_1189820" data-name="Grupo 1189820" transform="translate(40.936 0.766)">
        <path id="Trazado_878923" data-name="Trazado 878923" d="M129.151,50.449l3.134,5.237,3.361,2.282.42-.412-2.487-7.263-1.669-3.631-1.362-.556-1.839.179-.61,1.805-.044.173Z" transform="translate(-119.837 -42.162)" fill="#ff9ba1"/>
        <path id="Trazado_878924" data-name="Trazado 878924" d="M130.617,70.109a30.293,30.293,0,0,1-7.305-9.752v-.332l-.19.562L122.511,63V64.01a24.687,24.687,0,0,0,5.953,7.947.591.591,0,0,0,.683,0l1.748-1.714A.558.558,0,0,1,130.617,70.109Z" transform="translate(-114.86 -54.657)" fill="#ff7f87"/>
        <path id="Trazado_878925" data-name="Trazado 878925" d="M314.329,47.563l-.761-1.3-1.845-.153-1.686,1.737-2.35,5.007-1.14,4.813,2.188,1.8h.335a24.685,24.685,0,0,0,5.953-7.947l.328-.912Z" transform="translate(-280.09 -42.162)" fill="#ff9ba1"/>
        <path id="Trazado_878926" data-name="Trazado 878926" d="M313.827,48.037c.135-.223.274-.428.417-.618l-.677-1.158-1.845-.153-1.686,1.737-2.35,5.007-1.14,4.813,2.188,1.8h.335c.132-.113.261-.228.388-.343C310.545,55.762,312.393,50.407,313.827,48.037Z" transform="translate(-280.09 -42.162)" fill="#ff7f87"/>
        <path id="Trazado_878927" data-name="Trazado 878927" d="M354.58,10.528h-1.423l-2.834,3.065-.7,1.226.432.435h0c.08-.078.16-.152.241-.221a1.339,1.339,0,0,1,2.164.729,18.463,18.463,0,0,0,6.086,10.35,1.645,1.645,0,0,0,2.675-1.125C361.627,20.6,361.444,12.234,354.58,10.528Z" transform="translate(-318.766 -10.219)" fill="#e39b74"/>
        <g id="Grupo_1189815" data-name="Grupo 1189815" transform="translate(24.037)">
          <path id="Trazado_878928" data-name="Trazado 878928" d="M290.124,12.536c1.117-2.188,2.593-4.022,4.523-4.727a11.146,11.146,0,0,0-2.7-.309c-5.8,0-8.24,9.414-9.081,13.958l.336.9,1.733.741.759-.2c.751-2.374,2.379-7.286,3.608-9.315A5.282,5.282,0,0,1,290.124,12.536Z" transform="translate(-282.871 -7.5)" fill="#dd8858"/>
        </g>
        <path id="Trazado_878929" data-name="Trazado 878929" d="M94.592,10.528h-1.5l-4.16,3a41.193,41.193,0,0,1-1.111,4.087,24.553,24.553,0,0,0-.383,4.326,22.866,22.866,0,0,0,.465,2.523,19.227,19.227,0,0,0,4.354-8.7,1.339,1.339,0,0,1,2.164-.729A5.079,5.079,0,0,1,95.48,16.3c1.228,2.03,2.857,6.941,3.608,9.315h.727l1.733-.874.368-.563C101.166,20.121,99.14,12.188,94.592,10.528Z" transform="translate(-83.371 -10.219)" fill="#e39b74"/>
        <g id="Grupo_1189816" data-name="Grupo 1189816">
          <path id="Trazado_878930" data-name="Trazado 878930" d="M58.861,7.809A5.084,5.084,0,0,0,57.105,7.5c-9.51,0-9.789,9.863-9.34,14.769a1.645,1.645,0,0,0,2.675,1.125,16.241,16.241,0,0,0,1.733-1.651C51.839,17.241,52.262,9.449,58.861,7.809Z" transform="translate(-47.641 -7.5)" fill="#dd8858"/>
        </g>
        <path id="Trazado_878931" data-name="Trazado 878931" d="M185.947,143.567h-2.064l-4.241,3.512-2.248,4.55s-1.781,6.138-2.283,7.383l6.253,2.835h4.41l8.022-3.729,1.768-1.164C194.445,150.235,190.688,144.983,185.947,143.567Z" transform="translate(-162.084 -129.663)" fill="#eaae8e"/>
        <path id="Trazado_878932" data-name="Trazado 878932" d="M138.263,154.591c.965-.727,1.962-1.485,1.962-1.485h1.754c1.22-6.47,4.9-11.491,9.523-12.87a8.956,8.956,0,0,0-2.571-.379c-5.916,0-10.874,5.872-12.186,13.766l.686.591Z" transform="translate(-127.64 -126.331)" fill="#e39b74"/>
        <path id="Trazado_878933" data-name="Trazado 878933" d="M181.319,399.791a27.079,27.079,0,0,0-6.032-8.815l-1-.391-1.391.391s-3,1.953-3.1,1.953-5.212-.1-5.212-.1l-2.35-1.017-3.909,5.065-1.124,3.471.562,1.405s.323.212.714.474h3.678l1.169-.747h8l1.11.747h7.313A1.721,1.721,0,0,0,181.319,399.791Z" transform="translate(-146.009 -351.439)" fill="#e39b74"/>
        <g id="Grupo_1189817" data-name="Grupo 1189817" transform="translate(7.116 39.537)">
          <path id="Trazado_878934" data-name="Trazado 878934" d="M122.019,403.23a28.894,28.894,0,0,1,4.949-7.733l-2.5-1.082h-1a27.078,27.078,0,0,0-6.032,8.815A1.721,1.721,0,0,0,119,405.664h4.581A1.721,1.721,0,0,1,122.019,403.23Z" transform="translate(-117.282 -394.415)" fill="#dd8858"/>
        </g>
        <path id="Trazado_878935" data-name="Trazado 878935" d="M157.008,266.562a9.965,9.965,0,0,0-4.808,1.193l-.678.549h-5.186l-.8-.549a9.786,9.786,0,0,0-3.9-1.153l-1.687.374-2.376,2.478s-.86,3.755-.839,3.832a29.918,29.918,0,0,0,2.451,4.113,38.749,38.749,0,0,0,4.622,2.044,20.709,20.709,0,0,1,3.1,1.226,11.022,11.022,0,0,0,2.013,1.252l1.913.217h0a9.784,9.784,0,0,0,3.814-1.529,6.6,6.6,0,0,1,3.234-1.145c4.341-.335,7.434-3.268,7.434-6.436C165.322,269.457,161.6,266.562,157.008,266.562Z" transform="translate(-127.635 -240.089)" fill="#fee6c1"/>
        <g id="Grupo_1189818" data-name="Grupo 1189818" transform="translate(4.783 26.473)">
          <path id="Trazado_878936" data-name="Trazado 878936" d="M108.991,280.212a5.677,5.677,0,0,0-2.868-1.373c-3.875-.626-6.528-3.743-6.292-7a6.39,6.39,0,0,1,3.844-5.235c-.3-.025-.6-.039-.91-.039-4.591,0-8.314,2.895-8.314,6.465,0,3.22,3.145,6.095,7.426,6.434a6.626,6.626,0,0,1,3.24,1.146,10.238,10.238,0,0,0,5.786,1.7,11.159,11.159,0,0,0,1.97-.174A8.53,8.53,0,0,1,108.991,280.212Z" transform="translate(-94.451 -266.562)" fill="#fcd79b"/>
        </g>
        <g id="Grupo_1189819" data-name="Grupo 1189819" transform="translate(19.278 32.78)">
          <path id="Trazado_878937" data-name="Trazado 878937" d="M238.311,328.284a3.691,3.691,0,0,1-2.013,2.646l.151,1.91a.792.792,0,0,0,.789.729h2.145a.791.791,0,0,0,.789-.729l.151-1.91A3.691,3.691,0,0,1,238.311,328.284Z" transform="translate(-236.298 -328.284)" fill="#fef0db"/>
        </g>
        <path id="Trazado_878938" data-name="Trazado 878938" d="M246.926,270.451l1.451,2.82h1.018a3.988,3.988,0,0,0,1.854-2.941c0-1.278-1.417-1.371-3.2-1.376Z" transform="translate(-226.562 -242.237)" fill="#ff9ba1"/>
        <path id="Trazado_878939" data-name="Trazado 878939" d="M225.853,270.327c0-.932.754-1.234,1.854-1.331-.463-.041-.986-.046-1.541-.046-1.875,0-3.4.053-3.4,1.377a3.833,3.833,0,0,0,3.4,3.418,2.884,2.884,0,0,0,1.541-.477A3.988,3.988,0,0,1,225.853,270.327Z" transform="translate(-204.875 -242.233)" fill="#ff636e"/>
        <path id="Trazado_878940" data-name="Trazado 878940" d="M249.721,461.618h-.507l-2.274,2.707-.485,1.1.415.577h5.7A12.094,12.094,0,0,0,249.721,461.618Z" transform="translate(-226.139 -415.214)" fill="#fef0db"/>
        <path id="Trazado_878941" data-name="Trazado 878941" d="M213.116,453.106a3.506,3.506,0,0,0-2.29-.969c-1.927,0-3.706,1.99-5.142,5.351h4.581A12.093,12.093,0,0,1,213.116,453.106Z" transform="translate(-189.534 -406.701)" fill="#fee6c1"/>
      </g>
      <g id="Grupo_1189823" data-name="Grupo 1189823" transform="translate(40.172 0)">
        <path id="Trazado_878942" data-name="Trazado 878942" d="M42.308,303.662a.766.766,0,0,1-.505-1.343c5.217-4.572,12.341-3.353,12.642-3.3a.766.766,0,0,1-.271,1.509c-.067-.012-6.709-1.134-11.361,2.943A.764.764,0,0,1,42.308,303.662Z" transform="translate(-41.401 -268.296)"/>
        <path id="Trazado_878943" data-name="Trazado 878943" d="M83.8,334.392a.766.766,0,0,1-.64-1.188,13.255,13.255,0,0,1,7.933-5.195.766.766,0,0,1,.287,1.506c-.045.009-4.564.918-6.939,4.531A.766.766,0,0,1,83.8,334.392Z" transform="translate(-78.653 -294.479)"/>
        <path id="Trazado_878944" data-name="Trazado 878944" d="M350.783,303.662a.763.763,0,0,1-.5-.19c-4.668-4.091-11.294-2.955-11.36-2.943a.766.766,0,1,1-.271-1.509c.3-.054,7.425-1.273,12.642,3.3a.766.766,0,0,1-.505,1.343Z" transform="translate(-307.58 -268.296)"/>
        <path id="Trazado_878945" data-name="Trazado 878945" d="M349.4,334.391a.766.766,0,0,1-.641-.345,11.827,11.827,0,0,0-6.938-4.531.766.766,0,0,1,.286-1.506,13.255,13.255,0,0,1,7.933,5.195.767.767,0,0,1-.64,1.188Z" transform="translate(-310.439 -294.479)"/>
        <path id="Trazado_878946" data-name="Trazado 878946" d="M252.287,325.136a4.007,4.007,0,0,1-3.777-3.452.766.766,0,0,1,1.508-.272c.018.095.434,2.191,2.268,2.191a2.654,2.654,0,0,0,2.463-1.917.766.766,0,0,1,1.477.411A4.152,4.152,0,0,1,252.287,325.136Z" transform="translate(-227.211 -288.003)"/>
        <path id="Trazado_878947" data-name="Trazado 878947" d="M191.57,316.647a4.152,4.152,0,0,1-3.94-3.039.766.766,0,0,1,1.477-.41,2.653,2.653,0,0,0,2.463,1.916c1.687,0,2.175-1.775,2.256-2.132v-.888a.766.766,0,0,1,1.533,0v.966a.767.767,0,0,1-.012.134A4.007,4.007,0,0,1,191.57,316.647Z" transform="translate(-172.538 -279.515)"/>
        <path id="Trazado_878948" data-name="Trazado 878948" d="M219.433,261.45c1.756,0,4.162,0,4.162,2.143,0,1.646-1.787,4.185-4.162,4.185s-4.162-2.539-4.162-4.185C215.271,261.45,217.676,261.45,219.433,261.45Zm0,4.795a3.11,3.11,0,0,0,2.629-2.652c0-.468-.614-.61-2.629-.61s-2.629.143-2.629.61A3.11,3.11,0,0,0,219.433,266.245Z" transform="translate(-197.378 -234.733)"/>
        <path id="Trazado_878949" data-name="Trazado 878949" d="M96.584,259.062a10.719,10.719,0,0,1,5.179,1.288.766.766,0,0,1,.355.918.568.568,0,0,0-.025.18,2.629,2.629,0,1,0,5.258,0,.571.571,0,0,0-.025-.181.766.766,0,0,1,.355-.918,10.72,10.72,0,0,1,5.179-1.288,10.352,10.352,0,0,1,6.349,2.055,6.552,6.552,0,0,1,2.731,5.177c0,3.686-3.576,6.848-8.141,7.2a5.845,5.845,0,0,0-2.859,1.012,11.437,11.437,0,0,1-12.438,0,5.877,5.877,0,0,0-2.866-1.013c-4.56-.361-8.132-3.523-8.132-7.2C87.5,262.306,91.577,259.062,96.584,259.062Zm3.976,2.394a9.318,9.318,0,0,0-3.976-.861c-4.162,0-7.547,2.557-7.547,5.7,0,2.881,2.952,5.371,6.72,5.67a7.412,7.412,0,0,1,3.614,1.279,9.909,9.909,0,0,0,10.7,0,7.379,7.379,0,0,1,3.61-1.278c3.772-.291,6.726-2.782,6.726-5.672a5.056,5.056,0,0,0-2.139-3.967,8.816,8.816,0,0,0-5.408-1.732,9.318,9.318,0,0,0-3.976.861c0,1.646-1.79,4.178-4.162,4.178S100.565,263.1,100.56,261.456Z" transform="translate(-82.667 -232.589)"/>
        <path id="Trazado_878950" data-name="Trazado 878950" d="M96.584,259.062a10.719,10.719,0,0,1,5.179,1.288.766.766,0,0,1,.355.918.568.568,0,0,0-.025.18,2.629,2.629,0,1,0,5.258,0,.571.571,0,0,0-.025-.181.766.766,0,0,1,.355-.918,10.72,10.72,0,0,1,5.179-1.288,10.352,10.352,0,0,1,6.349,2.055,6.552,6.552,0,0,1,2.731,5.177c0,3.686-3.576,6.848-8.141,7.2a5.845,5.845,0,0,0-2.859,1.012,11.437,11.437,0,0,1-12.438,0,5.877,5.877,0,0,0-2.866-1.013c-4.56-.361-8.132-3.523-8.132-7.2C87.5,262.306,91.577,259.062,96.584,259.062Zm3.976,2.394a9.318,9.318,0,0,0-3.976-.861c-4.162,0-7.547,2.557-7.547,5.7,0,2.881,2.952,5.371,6.72,5.67a7.412,7.412,0,0,1,3.614,1.279,9.909,9.909,0,0,0,10.7,0,7.379,7.379,0,0,1,3.61-1.278c3.772-.291,6.726-2.782,6.726-5.672a5.056,5.056,0,0,0-2.139-3.967,8.816,8.816,0,0,0-5.408-1.732,9.318,9.318,0,0,0-3.976.861c0,1.646-1.79,4.178-4.162,4.178S100.565,263.1,100.56,261.456Z" transform="translate(-82.667 -232.589)"/>
        <g id="Grupo_1189821" data-name="Grupo 1189821" transform="translate(19.275 32.78)">
          <path id="Trazado_878951" data-name="Trazado 878951" d="M231.578,320.784a.766.766,0,0,1,.754.628,2.946,2.946,0,0,0,1.527,2.065.766.766,0,0,1,.5.779l-.151,1.91a1.566,1.566,0,0,1-1.553,1.435H230.5a1.566,1.566,0,0,1-1.553-1.435l-.151-1.91a.766.766,0,0,1,.5-.779,2.951,2.951,0,0,0,1.526-2.062A.766.766,0,0,1,231.578,320.784Zm1.2,3.871a3.777,3.777,0,0,1-1.2-1.162,3.775,3.775,0,0,1-1.208,1.165l.11,1.387,2.17.023Z" transform="translate(-228.798 -320.784)"/>
        </g>
        <path id="Trazado_878952" data-name="Trazado 878952" d="M209.234,451.521H198.95a.766.766,0,0,1-.7-1.067c1.625-3.8,3.647-5.816,5.846-5.816s4.221,2.011,5.846,5.816a.766.766,0,0,1-.7,1.067Zm-9.087-1.533h7.891c-1.23-2.473-2.611-3.818-3.945-3.818S201.376,447.515,200.147,449.988Z" transform="translate(-182.037 -399.201)"/>
        <path id="Trazado_878953" data-name="Trazado 878953" d="M132.716,386.914a.766.766,0,0,1,.518.2,27.645,27.645,0,0,1,6.212,9.063,2.487,2.487,0,0,1-2.262,3.517H112.275a2.487,2.487,0,0,1-2.262-3.517,27.644,27.644,0,0,1,6.212-9.063.766.766,0,0,1,.7-.18,7.347,7.347,0,0,1,2.456,1.094,9.909,9.909,0,0,0,10.7,0,7.349,7.349,0,0,1,2.459-1.1A.768.768,0,0,1,132.716,386.914Zm4.468,11.249a.955.955,0,0,0,.866-1.351,26.651,26.651,0,0,0-5.545-8.278,5.823,5.823,0,0,0-1.558.76,11.437,11.437,0,0,1-12.438,0,5.807,5.807,0,0,0-1.556-.758,26.648,26.648,0,0,0-5.545,8.278.955.955,0,0,0,.866,1.351Z" transform="translate(-102.675 -347.377)"/>
        <path id="Trazado_878954" data-name="Trazado 878954" d="M285.218,0a9.294,9.294,0,0,1,7.2,2.857c3.221,3.53,3.2,9.5,2.906,12.748a2.406,2.406,0,0,1-2.411,2.193,2.364,2.364,0,0,1-1.514-.546A19.358,19.358,0,0,1,285.049,6.48a.576.576,0,0,0-.566-.446.539.539,0,0,0-.356.132,4.349,4.349,0,0,0-.9,1.077c-1.207,2-2.873,7.063-3.533,9.15a.766.766,0,0,1-1.175.393,9.535,9.535,0,0,0-2.618-1.332.766.766,0,0,1-.52-.869C276.392,9.138,279.01,0,285.218,0Zm7.692,16.266a.882.882,0,0,0,.884-.8c.274-2.994.313-8.479-2.512-11.575a7.828,7.828,0,0,0-6.065-2.358c-5.024,0-7.348,8.414-8.2,12.692a10.954,10.954,0,0,1,1.528.749,52.028,52.028,0,0,1,3.376-8.524A5.875,5.875,0,0,1,283.137,5a2.1,2.1,0,0,1,3.407,1.144,17.842,17.842,0,0,0,5.825,9.927A.848.848,0,0,0,292.911,16.266Z" transform="translate(-251.337 0)"/>
        <path id="Trazado_878955" data-name="Trazado 878955" d="M305.935,58.384a.765.765,0,0,1-.571-.255,12.2,12.2,0,0,0-1.987-1.792.766.766,0,0,1-.286-.855c.84-2.657,2.436-7.421,3.683-9.481a5.868,5.868,0,0,1,1.219-1.453,2.1,2.1,0,0,1,3.406,1.144,20.956,20.956,0,0,0,1.192,3.674.766.766,0,0,1-.013.637,25.476,25.476,0,0,1-6.145,8.2A.764.764,0,0,1,305.935,58.384Zm-1.217-2.958a13.672,13.672,0,0,1,1.263,1.124,24.152,24.152,0,0,0,5.065-6.9,22.644,22.644,0,0,1-1.142-3.615.576.576,0,0,0-.566-.446.539.539,0,0,0-.356.132,4.344,4.344,0,0,0-.9,1.076A55.241,55.241,0,0,0,304.718,55.427Z" transform="translate(-276.193 -39.552)"/>
        <path id="Trazado_878956" data-name="Trazado 878956" d="M121.728,58.383a.764.764,0,0,1-.5-.185,25.474,25.474,0,0,1-6.145-8.2.766.766,0,0,1-.013-.637,20.946,20.946,0,0,0,1.192-3.674,2.1,2.1,0,0,1,3.406-1.144A5.874,5.874,0,0,1,120.889,46c1.247,2.06,2.842,6.824,3.683,9.481a.766.766,0,0,1-.286.855,12.21,12.21,0,0,0-1.987,1.792A.765.765,0,0,1,121.728,58.383Zm-5.111-8.737a24.151,24.151,0,0,0,5.065,6.9,13.683,13.683,0,0,1,1.263-1.124,55.25,55.25,0,0,0-3.368-8.632,4.349,4.349,0,0,0-.9-1.077.539.539,0,0,0-.356-.132.576.576,0,0,0-.566.446A22.637,22.637,0,0,1,116.617,49.646Z" transform="translate(-107.362 -39.55)"/>
        <path id="Trazado_878957" data-name="Trazado 878957" d="M42.7,17.8a2.417,2.417,0,0,1-2.4-2.192C40,12.359,39.982,6.387,43.2,2.857A9.294,9.294,0,0,1,50.4,0c2.575,0,4.785,1.589,6.568,4.724a.766.766,0,1,1-1.332.758c-1.491-2.62-3.253-3.949-5.236-3.949A7.828,7.828,0,0,0,44.335,3.89c-2.825,3.1-2.786,8.58-2.512,11.575a.866.866,0,0,0,.538.73.858.858,0,0,0,.888-.128,17.842,17.842,0,0,0,5.825-9.927A2.105,2.105,0,0,1,52.481,5,5.868,5.868,0,0,1,53.7,6.45a52.022,52.022,0,0,1,3.376,8.524,10.948,10.948,0,0,1,1.528-.749,38.525,38.525,0,0,0-1.54-5.6A.766.766,0,0,1,58.5,8.094a41.071,41.071,0,0,1,1.731,6.491.766.766,0,0,1-.52.869A9.529,9.529,0,0,0,57.1,16.786a.766.766,0,0,1-1.176-.393c-.66-2.086-2.325-7.154-3.533-9.15a4.343,4.343,0,0,0-.9-1.077.556.556,0,0,0-.543-.1.566.566,0,0,0-.379.416,19.357,19.357,0,0,1-6.348,10.772A2.394,2.394,0,0,1,42.7,17.8Z" transform="translate(-40.172 0)"/>
        <path id="Trazado_878958" data-name="Trazado 878958" d="M142.2,151.876c-2.372,0-4.157-2.532-4.162-4.178a9.317,9.317,0,0,0-3.976-.861,9.462,9.462,0,0,0-3.743.755.766.766,0,0,1-1.061-.829c1.41-8.483,6.732-14.407,12.942-14.407,4.012,0,7.765,2.5,10.3,6.852a.766.766,0,1,1-1.325.77c-2.249-3.87-5.519-6.089-8.971-6.089-5.136,0-9.609,4.8-11.178,11.831a11.261,11.261,0,0,1,3.04-.416,10.719,10.719,0,0,1,5.179,1.288.766.766,0,0,1,.355.918.571.571,0,0,0-.025.181,2.629,2.629,0,1,0,5.258,0,.568.568,0,0,0-.025-.18.766.766,0,0,1,.355-.918,10.72,10.72,0,0,1,5.179-1.288,11.261,11.261,0,0,1,3.039.415,21.969,21.969,0,0,0-.762-2.62.766.766,0,0,1,1.442-.52,23.924,23.924,0,0,1,1.085,4.183.766.766,0,0,1-1.061.829,9.462,9.462,0,0,0-3.743-.755,9.318,9.318,0,0,0-3.976.861C146.355,149.345,144.569,151.876,142.2,151.876Z" transform="translate(-120.143 -118.832)"/>
        <g id="Grupo_1189822" data-name="Grupo 1189822" transform="translate(16.441 24.076)">
          <path id="Línea_673" data-name="Línea 673" d="M-6.734-3.8A.766.766,0,0,1-7.5-4.562V-6.734A.766.766,0,0,1-6.734-7.5a.766.766,0,0,1,.766.766v2.171A.766.766,0,0,1-6.734-3.8Z" transform="translate(7.5 7.5)"/>
          <path id="Línea_674" data-name="Línea 674" d="M-6.734-3.8A.766.766,0,0,1-7.5-4.562V-6.734A.766.766,0,0,1-6.734-7.5a.766.766,0,0,1,.766.766v2.171A.766.766,0,0,1-6.734-3.8Z" transform="translate(17.163 7.5)"/>
        </g>
      </g>
    </g>
  </g>
</svg>
