<svg xmlns="http://www.w3.org/2000/svg" xmlns:xlink="http://www.w3.org/1999/xlink" width="84.208" height="84.207" viewBox="0 0 84.208 84.207">
  <defs>
    <clipPath id="clip-path">
      <path id="path4653" d="M0-682.665H42.949v42.949H0Z" transform="translate(0 682.665)"/>
    </clipPath>
  </defs>
  <g id="Grupo_1189851" data-name="Grupo 1189851" transform="translate(-10538.929 380.979)">
    <g id="Grupo_1189581" data-name="Grupo 1189581" transform="translate(9666.202 -659.756)">
      <g id="Grupo_1188789" data-name="Grupo 1188789" transform="translate(583.726 -5835.222)">
        <rect id="Rectángulo_400898" data-name="Rectángulo 400898" width="75.49" height="75.489" rx="37.744" transform="translate(293.36 6118.358)" fill="#ffd907"/>
        <rect id="Rectángulo_400907" data-name="Rectángulo 400907" width="75.49" height="75.489" rx="37.744" transform="translate(293.36 6118.358)" fill="none"/>
        <g id="Grupo_1098742" data-name="Grupo 1098742" transform="translate(289 6114)">
          <g id="Rectángulo_400898-2" data-name="Rectángulo 400898" transform="translate(0)" fill="none" stroke="#fff" stroke-width="1" opacity="0.859">
            <rect width="84.208" height="84.207" rx="42.104" stroke="none"/>
            <rect x="0.5" y="0.5" width="83.208" height="83.207" rx="41.604" fill="none"/>
          </g>
          <g id="Rectángulo_400907-2" data-name="Rectángulo 400907" transform="translate(0)" fill="none" stroke="#0f1f33" stroke-linecap="round" stroke-width="1">
            <rect width="84.208" height="84.207" rx="42.104" stroke="none"/>
            <rect x="0.5" y="0.5" width="83.208" height="83.207" rx="41.604" fill="none"/>
          </g>
        </g>
      </g>
    </g>
    <g id="g4647" transform="translate(10559.827 322.315)">
      <g id="g4649" transform="translate(0 -682.665)">
        <g id="g4651" clip-path="url(#clip-path)">
          <g id="g4657" transform="translate(5.536 0.839)">
            <path id="path4659" d="M-260.509-129.942H-276.7a1.3,1.3,0,0,1-1.3-1.3v-6.124a1.3,1.3,0,0,1,1.3-1.3h16.19a1.3,1.3,0,0,1,1.3,1.3v6.124a1.3,1.3,0,0,1-1.3,1.3" transform="translate(277.999 138.666)" fill="#f9f9f9"/>
          </g>
          <g id="g4661" transform="translate(0.839 9.563)">
            <path id="path4663" d="M-309.862,0V.658a2.361,2.361,0,0,0,1.756,2.282l1.481.393A5.574,5.574,0,0,1-302.48,8.72V27.85a4.7,4.7,0,0,1-4.7,4.7h-18.79a4.7,4.7,0,0,1-4.7-4.7V8.72a5.574,5.574,0,0,1,4.145-5.388l1.481-.393A2.361,2.361,0,0,0-323.284.658V0Z" transform="translate(330.666)" fill="#b0e7f8"/>
          </g>
          <path id="path4665" d="M28.1-373.362H13.333v16.777H28.1Z" transform="translate(-12.494 392.821)" fill="#fff"/>
          <g id="g4667" transform="translate(4.698 0)">
            <path id="path4669" d="M-273-141.6h-16.19a2.141,2.141,0,0,1-2.139-2.139v-6.124A2.141,2.141,0,0,1-289.193-152H-273a2.141,2.141,0,0,1,2.139,2.139v6.124A2.141,2.141,0,0,1-273-141.6Zm-16.19-8.724a.462.462,0,0,0-.461.461v6.124a.462.462,0,0,0,.461.461H-273a.462.462,0,0,0,.461-.461v-6.124a.462.462,0,0,0-.461-.461Z" transform="translate(291.333 152)"/>
          </g>
          <g id="g4671" transform="translate(0 8.724)">
            <path id="path4673" d="M-115.735,20.892h-9.4a5.543,5.543,0,0,1-5.536-5.536V-3.774a6.419,6.419,0,0,1,4.769-6.2l1.481-.393a1.524,1.524,0,0,0,1.132-1.472v-.658a.839.839,0,0,1,.839-.839.839.839,0,0,1,.839.839v.658a3.2,3.2,0,0,1-2.38,3.093l-1.481.393a4.74,4.74,0,0,0-3.521,4.577V15.355a3.863,3.863,0,0,0,3.859,3.859h9.4a.839.839,0,0,1,.839.839A.839.839,0,0,1-115.735,20.892Z" transform="translate(130.666 13.333)"/>
          </g>
          <g id="g4675" transform="translate(14.093 40.852)">
            <path id="path4677" d="M-183.311-11.239h-9.4a.839.839,0,0,1-.839-.839.839.839,0,0,1,.839-.839h9.4a3.827,3.827,0,0,0,1.6-.344.839.839,0,0,1,1.111.416.839.839,0,0,1-.416,1.111A5.494,5.494,0,0,1-183.311-11.239Z" transform="translate(193.545 13.337)"/>
          </g>
          <g id="g4679" transform="translate(28.185 26.793)">
            <path id="path4681" d="M-12.494-7.773a.839.839,0,0,1-.839-.839v-3.883a.839.839,0,0,1,.839-.839.839.839,0,0,1,.839.839v3.883A.839.839,0,0,1-12.494-7.773Z" transform="translate(13.333 13.333)"/>
          </g>
          <g id="g4683" transform="translate(20.804 8.724)">
            <path id="path4685" d="M-5.113,1.486A.839.839,0,0,1-5.951.648V-3.774A4.74,4.74,0,0,0-9.473-8.351l-1.481-.393a3.2,3.2,0,0,1-2.38-3.093v-.658a.839.839,0,0,1,.839-.839.839.839,0,0,1,.839.839v.658a1.524,1.524,0,0,0,1.132,1.472l1.481.393a6.419,6.419,0,0,1,4.769,6.2V.648A.839.839,0,0,1-5.113,1.486Z" transform="translate(13.333 13.333)"/>
          </g>
          <g id="g4687" transform="translate(9.06 3.355)">
            <path id="path4689" d="M-12.494-9.642a.839.839,0,0,1-.839-.839v-2.013a.839.839,0,0,1,.839-.839.839.839,0,0,1,.839.839v2.013A.839.839,0,0,1-12.494-9.642Z" transform="translate(13.333 13.333)"/>
          </g>
          <g id="g4691" transform="translate(12.415 3.355)">
            <path id="path4693" d="M-12.494-9.642a.839.839,0,0,1-.839-.839v-2.013a.839.839,0,0,1,.839-.839.839.839,0,0,1,.839.839v2.013A.839.839,0,0,1-12.494-9.642Z" transform="translate(13.333 13.333)"/>
          </g>
          <g id="g4695" transform="translate(15.77 3.355)">
            <path id="path4697" d="M-12.494-9.642a.839.839,0,0,1-.839-.839v-2.013a.839.839,0,0,1,.839-.839.839.839,0,0,1,.839.839v2.013A.839.839,0,0,1-12.494-9.642Z" transform="translate(13.333 13.333)"/>
          </g>
          <g id="g4699" transform="translate(19.126 3.355)">
            <path id="path4701" d="M-12.494-9.642a.839.839,0,0,1-.839-.839v-2.013a.839.839,0,0,1,.839-.839.839.839,0,0,1,.839.839v2.013A.839.839,0,0,1-12.494-9.642Z" transform="translate(13.333 13.333)"/>
          </g>
          <g id="g4703" transform="translate(0 18.621)">
            <path id="path4705" d="M-232.4-68.212h-14.764a.839.839,0,0,1-.839-.839V-85.828a.839.839,0,0,1,.839-.839H-232.4a.839.839,0,0,1,.839.839v4.614a.839.839,0,0,1-.839.839.839.839,0,0,1-.839-.839v-3.775h-13.086v15.1h13.086v-3.775a.839.839,0,0,1,.839-.839.839.839,0,0,1,.839.839v4.614A.839.839,0,0,1-232.4-68.212Z" transform="translate(247.999 86.666)"/>
          </g>
          <g id="g4707" transform="translate(23.798 31.135)">
            <path id="path4709" d="M-197.5-55.634l-2.119-2.119a5.516,5.516,0,0,0-7.8,0l-2.119,2.119h0a4.165,4.165,0,0,0,0,5.89l.13.13a4.165,4.165,0,0,0,5.89,0h0a4.165,4.165,0,0,0,5.89,0l.13-.13a4.165,4.165,0,0,0,0-5.89" transform="translate(210.761 59.369)" fill="#ffcb7c"/>
          </g>
          <g id="g4711" transform="translate(32.146 22.107)">
            <path id="path4713" d="M-70.739-50.124a2.719,2.719,0,0,1-2.868,2.494,2.719,2.719,0,0,1-1.823-3.335,2.719,2.719,0,0,1,2.868-2.494,2.719,2.719,0,0,1,1.823,3.335" transform="translate(75.488 53.489)" fill="#ffcb7c"/>
          </g>
          <g id="g4715" transform="translate(25.122 22.107)">
            <path id="path4717" d="M-.863-50.124A2.719,2.719,0,0,0,2-47.63a2.719,2.719,0,0,0,1.823-3.335A2.719,2.719,0,0,0,.96-53.459,2.719,2.719,0,0,0-.863-50.124" transform="translate(0.921 53.489)" fill="#ffcb7c"/>
          </g>
          <g id="g4719" transform="translate(19.965 27.084)">
            <path id="path4721" d="M-.766-44.44a2.411,2.411,0,0,0,2.543,2.211,2.411,2.411,0,0,0,1.617-2.957A2.411,2.411,0,0,0,.851-47.4,2.411,2.411,0,0,0-.766-44.44" transform="translate(0.817 47.424)" fill="#ffcb7c"/>
          </g>
          <g id="g4723" transform="translate(37.848 27.084)">
            <path id="path4725" d="M-62.718-44.44a2.411,2.411,0,0,1-2.543,2.211,2.411,2.411,0,0,1-1.617-2.957A2.411,2.411,0,0,1-64.334-47.4a2.411,2.411,0,0,1,1.617,2.957" transform="translate(66.928 47.424)" fill="#ffcb7c"/>
          </g>
          <g id="g4727" transform="translate(22.961 30.297)">
            <path id="path4729" d="M-215.981-72.7a6.314,6.314,0,0,1,4.494,1.861l2.119,2.119a5.009,5.009,0,0,1,0,7.076l-.13.13a4.971,4.971,0,0,1-3.538,1.465,4.966,4.966,0,0,1-2.945-.957,4.966,4.966,0,0,1-2.945.957,4.971,4.971,0,0,1-3.538-1.465l-.13-.13a5.009,5.009,0,0,1,0-7.076l2.119-2.119A6.314,6.314,0,0,1-215.981-72.7Zm2.945,10.975a3.3,3.3,0,0,0,2.352-.974l.13-.13a3.33,3.33,0,0,0,0-4.7l-2.119-2.119a4.647,4.647,0,0,0-3.307-1.37,4.647,4.647,0,0,0-3.307,1.37l-2.119,2.119a3.33,3.33,0,0,0,0,4.7l.13.13a3.3,3.3,0,0,0,2.352.974,3.3,3.3,0,0,0,2.352-.974.839.839,0,0,1,1.186,0A3.3,3.3,0,0,0-213.036-61.727Z" transform="translate(224.057 72.702)"/>
          </g>
          <g id="g4731" transform="translate(31.307 21.268)">
            <path id="path4733" d="M-85.76-59.255a2.792,2.792,0,0,1-.491-.044,2.984,2.984,0,0,1-2.094-1.574,4.177,4.177,0,0,1-.407-2.734,3.637,3.637,0,0,1,3.35-3.215,2.792,2.792,0,0,1,.491.044,3.551,3.551,0,0,1,2.5,4.308A3.637,3.637,0,0,1-85.76-59.255Zm.358-5.89a2.042,2.042,0,0,0-1.7,1.834,2.5,2.5,0,0,0,.228,1.634,1.342,1.342,0,0,0,.918.728,1.1,1.1,0,0,0,.2.017,2.042,2.042,0,0,0,1.7-1.834c.2-1.132-.322-2.213-1.146-2.361A1.105,1.105,0,0,0-85.4-65.145Z" transform="translate(88.824 66.823)"/>
          </g>
          <g id="g4735" transform="translate(24.283 21.268)">
            <path id="path4737" d="M-10.823-59.255h0a3.638,3.638,0,0,1-3.35-3.215,3.551,3.551,0,0,1,2.5-4.308,2.792,2.792,0,0,1,.491-.044,3.637,3.637,0,0,1,3.35,3.215,4.177,4.177,0,0,1-.407,2.734A2.984,2.984,0,0,1-10.332-59.3,2.79,2.79,0,0,1-10.823-59.255Zm-.358-5.89a1.1,1.1,0,0,0-.2.017c-.824.148-1.349,1.229-1.146,2.361a2.042,2.042,0,0,0,1.7,1.834,1.1,1.1,0,0,0,.2-.017,1.342,1.342,0,0,0,.918-.728,2.5,2.5,0,0,0,.228-1.633A2.042,2.042,0,0,0-11.181-65.145Z" transform="translate(14.244 66.823)"/>
          </g>
          <g id="g4739" transform="translate(19.126 26.245)">
            <path id="path4741" d="M-11.023-53.857h0a3.319,3.319,0,0,1-3.064-2.929,3.8,3.8,0,0,1,.371-2.487,2.775,2.775,0,0,1,1.923-1.444,2.559,2.559,0,0,1,.452-.04,3.319,3.319,0,0,1,3.064,2.929,3.242,3.242,0,0,1-2.294,3.93A2.558,2.558,0,0,1-11.023-53.857Zm-.318-5.222a.885.885,0,0,0-.156.014,1.122,1.122,0,0,0-.747.6,2.149,2.149,0,0,0-.192,1.386c.155.868.776,1.547,1.413,1.547a.894.894,0,0,0,.156-.014c.68-.122,1.11-1.03.939-1.983C-10.084-58.4-10.7-59.079-11.341-59.079Z" transform="translate(14.152 60.757)"/>
          </g>
          <g id="g4743" transform="translate(37.01 26.245)">
            <path id="path4745" d="M-77.441-53.857a2.559,2.559,0,0,1-.452-.04,3.242,3.242,0,0,1-2.294-3.93,3.319,3.319,0,0,1,3.064-2.929,2.559,2.559,0,0,1,.452.04,2.775,2.775,0,0,1,1.923,1.444,3.8,3.8,0,0,1,.371,2.487A3.319,3.319,0,0,1-77.441-53.857Zm.317-5.222c-.637,0-1.257.68-1.413,1.547-.171.953.259,1.861.939,1.983a.885.885,0,0,0,.156.014c.637,0,1.257-.68,1.413-1.547a2.149,2.149,0,0,0-.192-1.386,1.122,1.122,0,0,0-.747-.6A.885.885,0,0,0-77.123-59.079Z" transform="translate(80.251 60.757)"/>
          </g>
          <g id="g4747" transform="translate(4.362 27.009)">
            <path id="path4749" d="M-6.455-11.656h-6.04a.839.839,0,0,1-.839-.839.839.839,0,0,1,.839-.839h6.04a.839.839,0,0,1,.839.839A.839.839,0,0,1-6.455-11.656Z" transform="translate(13.333 13.333)"/>
          </g>
          <g id="g4751" transform="translate(7.382 23.989)">
            <path id="path4753" d="M-12.494-5.616a.839.839,0,0,1-.839-.839v-6.04a.839.839,0,0,1,.839-.839.839.839,0,0,1,.839.839v6.04A.839.839,0,0,1-12.494-5.616Z" transform="translate(13.333 13.333)"/>
          </g>
          <g id="g4755" transform="translate(15.603 27.848)">
            <path id="path4757"/>
          </g>
        </g>
      </g>
    </g>
  </g>
</svg>
