<svg xmlns="http://www.w3.org/2000/svg" width="84.208" height="84.207" viewBox="0 0 84.208 84.207">
  <g id="Grupo_1189826" data-name="Grupo 1189826" transform="translate(-3249 8042.862)">
    <g id="Grupo_1189272" data-name="Grupo 1189272" transform="translate(2376.274 -8321.64)">
      <g id="Grupo_1188789" data-name="Grupo 1188789" transform="translate(583.726 -5835.222)">
        <rect id="Rectángulo_400898" data-name="Rectángulo 400898" width="75.49" height="75.489" rx="37.744" transform="translate(293.36 6118.358)" fill="#ffd907"/>
        <rect id="Rectángulo_400907" data-name="Rectángulo 400907" width="75.49" height="75.489" rx="37.744" transform="translate(293.36 6118.358)" fill="none"/>
        <g id="Grupo_1098742" data-name="Grupo 1098742" transform="translate(289 6114)">
          <g id="Rectángulo_400898-2" data-name="Rectángulo 400898" transform="translate(0)" fill="none" stroke="#fff" stroke-width="1" opacity="0.859">
            <rect width="84.208" height="84.207" rx="42.104" stroke="none"/>
            <rect x="0.5" y="0.5" width="83.208" height="83.207" rx="41.604" fill="none"/>
          </g>
          <g id="Rectángulo_400907-2" data-name="Rectángulo 400907" transform="translate(0)" fill="none" stroke="#0f1f33" stroke-linecap="round" stroke-width="1">
            <rect width="84.208" height="84.207" rx="42.104" stroke="none"/>
            <rect x="0.5" y="0.5" width="83.208" height="83.207" rx="41.604" fill="none"/>
          </g>
        </g>
      </g>
    </g>
    <g id="raton" transform="translate(3260 -8104.398)">
      <g id="Grupo_1189825" data-name="Grupo 1189825" transform="translate(24.45 107.659)">
        <path id="Trazado_878942" data-name="Trazado 878942" d="M227.65,290.783l-3,3.749c1.614.2,8.7,1.8,8.7,4.862,0,2.839-7.231,9.274-33.461,5.23,28.926,6.251,37.26-1.716,37.26-5.638C237.149,292.928,227.65,290.783,227.65,290.783Z" transform="translate(-199.889 -290.783)" fill="#ffaab4"/>
        <path id="Trazado_878943" data-name="Trazado 878943" d="M299.656,329.361l-2.9.679a1.8,1.8,0,0,0-1.3,1.133l-.353,1a.516.516,0,0,0,.513.672h6.638a.894.894,0,0,0,.906-.765l.28-2.692Z" transform="translate(-283.436 -324.642)" fill="#ffaab4"/>
      </g>
      <path id="Trazado_878944" data-name="Trazado 878944" d="M51.6,119.485c-9.581-3.634-21.777.908-21.777.908s-12.19-5.044-20.113,8.964a1.13,1.13,0,0,0,.225,1.387,8.023,8.023,0,0,0,3.683,1.856,8.057,8.057,0,0,0,8.878,2.264c7.5,10.223,19.8,10.3,24.331,8.711a12.047,12.047,0,0,0,5.14.887c5.969-.1,9.436-3.7,9.437-9.713C61.4,129.141,58.945,122.272,51.6,119.485Z" transform="translate(-8.392 -31.542)" fill="#edebed"/>
      <path id="Trazado_878945" data-name="Trazado 878945" d="M139.6,252.229A6.45,6.45,0,0,1,135.731,246a8.067,8.067,0,0,1,.375-2.326,1.37,1.37,0,0,0-2.456-1.163,5.792,5.792,0,0,0-.584,1.324c-.5,1.609-5.28,8.958-13.4.667a4.1,4.1,0,0,0-3.781-1.12l-.612.131C122.766,253.738,135.062,253.818,139.6,252.229Z" transform="translate(-101.17 -140.195)" fill="#dbd9dc"/>
      <path id="Trazado_878946" data-name="Trazado 878946" d="M114.65,90.955c-1.706-3.044-7.037-2.523-9.256,3.55a3.19,3.19,0,0,0,.84,3.493,3.112,3.112,0,0,0,3.309.545C112.1,97.425,116.617,94.465,114.65,90.955Z" transform="translate(-92.325 -6.144)" fill="#ffaab4"/>
      <path id="Trazado_878947" data-name="Trazado 878947" d="M173.495,269.662a16,16,0,0,0,2.169,7.047.976.976,0,0,1-.677,1.428l-.228.044a1.961,1.961,0,0,0-1.591,1.926.341.341,0,0,0,.341.341h4.142a.978.978,0,0,0,.947-.724,69.6,69.6,0,0,0,1.638-8.652Z" transform="translate(-151.986 -164.586)" fill="#edebed"/>
      <circle id="Elipse_11530" data-name="Elipse 11530" cx="1.47" cy="1.47" r="1.47" transform="translate(9.743 94.291)" fill="#e6646e"/>
      <path id="Trazado_878948" data-name="Trazado 878948" d="M173.508,334.667h4.142a.978.978,0,0,0,.947-.724c.142-.525.307-1.21.478-1.98l-3.3-.525a.977.977,0,0,1-.792.919l-.228.044a1.961,1.961,0,0,0-1.591,1.926A.341.341,0,0,0,173.508,334.667Z" transform="translate(-151.985 -218.806)" fill="#ffaab4"/>
      <path id="Trazado_878949" data-name="Trazado 878949" d="M285.02,228.842a.917.917,0,0,0,1.264-.291,3.931,3.931,0,0,1,.69-.846.917.917,0,0,0-1.224-1.367,5.755,5.755,0,0,0-1.022,1.24A.917.917,0,0,0,285.02,228.842Z" transform="translate(-249.778 -126.356)"/>
      <path id="Trazado_878950" data-name="Trazado 878950" d="M74.535,173.5a2.388,2.388,0,1,0,2.388,2.388A2.391,2.391,0,0,0,74.535,173.5Zm0,2.942a.553.553,0,1,1,.553-.553A.554.554,0,0,1,74.535,176.439Z" transform="translate(-63.322 -80.184)"/>
      <path id="Trazado_878951" data-name="Trazado 878951" d="M53.407,106.973a13.494,13.494,0,0,0,.517-3.826,18.986,18.986,0,0,0-2.26-9.134,15.194,15.194,0,0,0-8.135-6.988c-5.141-1.95-10.779-1.6-14.6-.956a41.93,41.93,0,0,0-5.164,1.206,4.385,4.385,0,0,0-.65-3,4.715,4.715,0,0,0-4.754-2.085c-1.2.181-3.882,1.059-5.545,5.215A21.273,21.273,0,0,0,7.8,89.529,17.5,17.5,0,0,0,.064,98.14a.918.918,0,0,0,.1.867,8.264,8.264,0,0,0,4.884,2.914c.009.011.016.021.026.031a8.247,8.247,0,0,0,6.206,2.742,9.16,9.16,0,0,0,1.267-.089,9.347,9.347,0,0,0,1.28-.272.916.916,0,0,0,.07.116,20.507,20.507,0,0,0,8.279,6.684c.246.529.487.994.694,1.371a.049.049,0,0,1,0,.05.061.061,0,0,1-.048.036l-.228.044a2.882,2.882,0,0,0-2.335,2.827v.341a.917.917,0,0,0,.917.917h4.483a1.9,1.9,0,0,0,1.83-1.4c.161-.594.343-1.346.527-2.188a13.519,13.519,0,0,0,4.3.654,16.461,16.461,0,0,0,2.693-.223L35,113.6l-.638,1.914a.917.917,0,0,0,.87,1.207h7.947a1.9,1.9,0,0,0,1.886-1.688l.152-1.371a10.8,10.8,0,0,0,4.144-1.36,22.4,22.4,0,0,1,4.451,1.257c2.018.825,3.176,1.792,3.176,2.654a2.969,2.969,0,0,1-1.239,1.9c-2.454,2.1-6.907,2.966-9.343,3.292-5.741.768-13.083.475-21.822-.873a.917.917,0,0,0-.334,1.8,91.875,91.875,0,0,0,19.067,2.335q2.521,0,4.785-.22c6.469-.629,9.974-2.495,11.776-3.949a6.437,6.437,0,0,0,2.743-4.7C62.628,110.274,55.986,107.746,53.407,106.973Zm-27.742,7.912H22.273a1.043,1.043,0,0,1,.673-.449l.228-.044a1.908,1.908,0,0,0,1.217-.808l1.593.237c-.09.377-.178.721-.26,1.022A.058.058,0,0,1,25.665,114.884Zm2.732-3.563c.3-1.568.585-3.267.764-4.789a.917.917,0,1,0-1.822-.214c-.215,1.829-.582,3.921-.954,5.707l-1.841-.274c-.02-.043-.038-.087-.062-.13a15.189,15.189,0,0,1-2.056-6.606.917.917,0,0,0-1.835,0,12.3,12.3,0,0,0,.6,3.562,18.984,18.984,0,0,1-5.606-4.944,6.417,6.417,0,0,0,2.829-2.688.917.917,0,1,0-1.648-.807c-.627,1.281-2.464,2.37-4.465,2.649a6.766,6.766,0,0,1-4.077-.661,13.981,13.981,0,0,0,1.5-.192.917.917,0,1,0-.328-1.805c-4.308.783-6.62-1.014-7.412-1.819,2.421-5.458,7.729-7.9,10.15-8.764l-.013.052a.917.917,0,0,0,1.782.436c1.219-4.978,3.714-5.873,4.731-6.027a2.868,2.868,0,0,1,2.906,1.215,2.4,2.4,0,0,1,.292,2.2c-.823,2.125-4.712,3.7-6.141,4.13a.917.917,0,1,0,.525,1.758,19.877,19.877,0,0,0,3.086-1.27,10.887,10.887,0,0,0,3.315-2.45c1.323-.488,11.693-4.1,20.264-.851,8.549,3.242,9.212,11.846,9.212,14.406a9.025,9.025,0,0,1-2.222,6.436,8.632,8.632,0,0,1-6.313,2.36c-2.977.049-5.184-.628-6.556-2.012a5.593,5.593,0,0,1-1.521-4.157.918.918,0,0,0-.894-.94H34.56a.917.917,0,0,0-.917.894,7.426,7.426,0,0,0,2.052,5.5c.09.091.183.177.278.263A13.313,13.313,0,0,1,28.4,111.321Zm14.786,3.563H36.509l.235-.706a1.038,1.038,0,0,1,.742-.684l1.409-.344a13.785,13.785,0,0,0,4.362.63h.1l-.117,1.049A.063.063,0,0,1,43.183,114.884Zm15.55,4.19a15.851,15.851,0,0,1-6.326,2.857,13.731,13.731,0,0,0,4.542-2.425,4.612,4.612,0,0,0,1.879-3.3c0-3.129-4.817-4.729-7.592-5.39a8.834,8.834,0,0,0,1.494-2.13c2.1.621,8.063,2.765,8.063,7.112A4.76,4.76,0,0,1,58.733,119.075Z" transform="translate(0 0)"/>
    </g>
  </g>
</svg>
