<svg xmlns="http://www.w3.org/2000/svg" xmlns:xlink="http://www.w3.org/1999/xlink" width="84.208" height="84.207" viewBox="0 0 84.208 84.207">
  <defs>
    <clipPath id="clip-path">
      <path id="path1764" d="M0-682.665H49.934v49.934H0Z" transform="translate(0 682.665)"/>
    </clipPath>
  </defs>
  <g id="Grupo_1189712" data-name="Grupo 1189712" transform="translate(5922 8039)">
    <g id="Grupo_1189013" data-name="Grupo 1189013" transform="translate(-6794.726 -8317.777)">
      <g id="Grupo_1188789" data-name="Grupo 1188789" transform="translate(583.726 -5835.222)">
        <rect id="Rectángulo_400898" data-name="Rectángulo 400898" width="75.49" height="75.489" rx="37.744" transform="translate(293.36 6118.358)" fill="#ffd907"/>
        <rect id="Rectángulo_400907" data-name="Rectángulo 400907" width="75.49" height="75.489" rx="37.744" transform="translate(293.36 6118.358)" fill="none"/>
        <g id="Grupo_1098742" data-name="Grupo 1098742" transform="translate(289 6114)">
          <g id="Rectángulo_400898-2" data-name="Rectángulo 400898" transform="translate(0)" fill="none" stroke="#fff" stroke-width="1" opacity="0.859">
            <rect width="84.208" height="84.207" rx="42.104" stroke="none"/>
            <rect x="0.5" y="0.5" width="83.208" height="83.207" rx="41.604" fill="none"/>
          </g>
          <g id="Rectángulo_400907-2" data-name="Rectángulo 400907" transform="translate(0)" fill="none" stroke="#0f1f33" stroke-linecap="round" stroke-width="1">
            <rect width="84.208" height="84.207" rx="42.104" stroke="none"/>
            <rect x="0.5" y="0.5" width="83.208" height="83.207" rx="41.604" fill="none"/>
          </g>
        </g>
      </g>
    </g>
    <g id="g1758" transform="translate(-5905 -7339.335)">
      <g id="g1760" transform="translate(0 -682.665)">
        <g id="g1762" clip-path="url(#clip-path)">
          <g id="g1768" transform="translate(16.189 27.6)">
            <path id="path1770" d="M-222.445-91.449v2.926a8.777,8.777,0,0,1-8.777,8.777A8.777,8.777,0,0,1-240-88.524v-2.926l8.777-7.217Z" transform="translate(239.999 98.666)" fill="#f88fa4"/>
          </g>
          <g id="g1772" transform="translate(16.189 34.817)">
            <path id="path1774" d="M-111.222-111.222h0A8.777,8.777,0,0,1-120-120v2.926a8.777,8.777,0,0,0,8.777,8.777,8.777,8.777,0,0,0,8.777-8.777V-120a8.777,8.777,0,0,1-8.777,8.777" transform="translate(120 120)" fill="#ef5475"/>
          </g>
          <g id="g1776" transform="translate(0.78 20.578)">
            <path id="path1778" d="M-328.724-23.165a9.832,9.832,0,0,0,9.679,9.875,9.753,9.753,0,0,0,9.827-9.752h0v-.488a1.463,1.463,0,0,1,1.463-1.463,1.463,1.463,0,0,1,1.463,1.463v.488a12.678,12.678,0,0,1-12.678,12.678,12.68,12.68,0,0,1-11.508-7.353,12.68,12.68,0,0,1-11.508,7.353,12.678,12.678,0,0,1-12.678-12.678v-.488a1.463,1.463,0,0,1,1.463-1.463,1.463,1.463,0,0,1,1.463,1.463v.488a9.753,9.753,0,0,0,9.827,9.752,9.832,9.832,0,0,0,9.679-9.875Z" transform="translate(354.666 24.993)" fill="#eeddc0"/>
          </g>
          <g id="g1780" transform="translate(14.057 3.413)">
            <path id="path1782" d="M-261.5-116.746l-6.683,8.783a3.826,3.826,0,0,1-6.089,0l-6.683-8.783a5.739,5.739,0,0,1,4.567-9.213h10.321a5.739,5.739,0,0,1,4.567,9.213" transform="translate(282.132 125.96)" fill="#767676"/>
          </g>
          <g id="g1784" transform="translate(14.058 7.037)">
            <path id="path1786" d="M-151.194-157.74a1.262,1.262,0,0,1-1.023.507,1.262,1.262,0,0,1-1.023-.507l-9.472-12.448a5.657,5.657,0,0,0,.768,5.589l6.683,8.783a3.826,3.826,0,0,0,6.089,0l6.683-8.783a5.657,5.657,0,0,0,.768-5.589Z" transform="translate(163.126 170.189)" fill="#616161"/>
          </g>
          <g id="g1788" transform="translate(13.321 2.682)">
            <path id="path1790" d="M-19.744-135.96v1.463a4.9,4.9,0,0,0-3.817,1.76l-1.12-.941A6.343,6.343,0,0,1-19.744-135.96Zm0,0H-9.423a6.4,6.4,0,0,1,3.781,1.206l-.857,1.185a4.951,4.951,0,0,0-2.924-.929H-19.744Zm15.029,2.024a6.475,6.475,0,0,1,.441,8.364l-3.519,4.625-1.164-.886,3.519-4.625a5.022,5.022,0,0,0-.345-6.479Zm-20.666,1.271,1.276.716a4.947,4.947,0,0,0,.377,5.491l4.368,5.741-1.164.886-4.368-5.741A6.391,6.391,0,0,1-25.381-132.665Zm15.76,11.7,1.164.886-2.5,3.285a4.522,4.522,0,0,1-3.627,1.8,4.522,4.522,0,0,1-3.627-1.8l-1.65-2.169,1.164-.886,1.65,2.169a3.071,3.071,0,0,0,2.462,1.221,3.071,3.071,0,0,0,2.463-1.221Z" transform="translate(26.229 135.96)"/>
          </g>
          <g id="g1792" transform="translate(0.049 19.847)">
            <path id="path1794" d="M-328.24-18.9a13.466,13.466,0,0,1-11.508-6.524A13.466,13.466,0,0,1-351.256-18.9a13.425,13.425,0,0,1-13.41-13.41V-32.8a2.2,2.2,0,0,1,2.194-2.194,2.2,2.2,0,0,1,2.194,2.194v.488a8.959,8.959,0,0,0,2.666,6.4,8.96,8.96,0,0,0,6.424,2.618,9.107,9.107,0,0,0,8.953-9.143h1.463a10.574,10.574,0,0,1-10.4,10.606h-.08a10.411,10.411,0,0,1-7.385-3.043,10.412,10.412,0,0,1-3.1-7.441V-32.8a.732.732,0,0,0-.731-.731.732.732,0,0,0-.731.731v.488a11.961,11.961,0,0,0,11.947,11.947,11.993,11.993,0,0,0,10.845-6.929l.664-1.432.664,1.432a11.993,11.993,0,0,0,10.845,6.929,11.961,11.961,0,0,0,11.947-11.947V-32.8a.732.732,0,0,0-.731-.731.732.732,0,0,0-.731.731v.488a10.412,10.412,0,0,1-3.1,7.441,10.413,10.413,0,0,1-7.465,3.043,10.574,10.574,0,0,1-10.4-10.606h1.463a9.107,9.107,0,0,0,8.953,9.143h.069a8.958,8.958,0,0,0,6.355-2.618,8.959,8.959,0,0,0,2.666-6.4V-32.8a2.2,2.2,0,0,1,2.194-2.194A2.2,2.2,0,0,1-314.83-32.8v.488A13.425,13.425,0,0,1-328.24-18.9Z" transform="translate(364.666 34.993)"/>
          </g>
          <g id="g1796" transform="translate(7.217 10.777)">
            <path id="path1798" d="M1.463-8.537H0V-10H1.463Z" transform="translate(0 10)"/>
          </g>
          <g id="g1800" transform="translate(4.291 13.702)">
            <path id="path1802" d="M1.463-8.537H0V-10H1.463Z" transform="translate(0 10)"/>
          </g>
          <g id="g1804" transform="translate(9.167 14.678)">
            <path id="path1806" d="M1.463-8.537H0V-10H1.463Z" transform="translate(0 10)"/>
          </g>
          <g id="g1808" transform="translate(41.254 10.777)">
            <path id="path1810" d="M-18.537-8.537H-20V-10h1.463Z" transform="translate(20 10)"/>
          </g>
          <g id="g1812" transform="translate(44.18 13.702)">
            <path id="path1814" d="M-18.537-8.537H-20V-10h1.463Z" transform="translate(20 10)"/>
          </g>
          <g id="g1816" transform="translate(39.303 14.678)">
            <path id="path1818" d="M-18.537-8.537H-20V-10h1.463Z" transform="translate(20 10)"/>
          </g>
          <g id="g1820" transform="translate(15.458 34.817)">
            <path id="path1822" d="M-240.491,12.435h-.117l.018-1.463h.1a8.055,8.055,0,0,0,8.046-8.046V0h1.463V2.926A9.52,9.52,0,0,1-240.491,12.435Zm-1.3-.088A9.539,9.539,0,0,1-250,2.926V0h1.463V2.926a8.071,8.071,0,0,0,6.943,7.971Z" transform="translate(249.999 0)"/>
          </g>
          <g id="g1824" transform="translate(30.038 5.998)">
            <path id="path1826" d="M1.463-8.537H0V-10H1.463Z" transform="translate(0 10)" fill="#fff"/>
          </g>
          <g id="g1828" transform="translate(31.989 8.924)">
            <path id="path1830" d="M1.463-8.537H0V-10H1.463Z" transform="translate(0 10)" fill="#fff"/>
          </g>
          <g id="g1832" transform="translate(24.235 33.062)">
            <path id="path1834" d="M-8.537,10.728H-10V4.389h1.463Zm0-7.436H-10v-1.1h1.463Zm0-2.194H-10V0h1.463Z" transform="translate(10 0)" fill="#fff"/>
          </g>
        </g>
      </g>
    </g>
  </g>
</svg>
