<svg xmlns="http://www.w3.org/2000/svg" width="84.208" height="84.207" viewBox="0 0 84.208 84.207">
  <g id="Grupo_1189840" data-name="Grupo 1189840" transform="translate(-3914.927 8043)">
    <g id="Grupo_1189274" data-name="Grupo 1189274" transform="translate(3042.201 -8321.777)">
      <g id="Grupo_1188789" data-name="Grupo 1188789" transform="translate(583.726 -5835.222)">
        <rect id="Rectángulo_400898" data-name="Rectángulo 400898" width="75.49" height="75.489" rx="37.744" transform="translate(293.36 6118.358)" fill="#ffd907"/>
        <rect id="Rectángulo_400907" data-name="Rectángulo 400907" width="75.49" height="75.489" rx="37.744" transform="translate(293.36 6118.358)" fill="none"/>
        <g id="Grupo_1098742" data-name="Grupo 1098742" transform="translate(289 6114)">
          <g id="Rectángulo_400898-2" data-name="Rectángulo 400898" transform="translate(0)" fill="none" stroke="#fff" stroke-width="1" opacity="0.859">
            <rect width="84.208" height="84.207" rx="42.104" stroke="none"/>
            <rect x="0.5" y="0.5" width="83.208" height="83.207" rx="41.604" fill="none"/>
          </g>
          <g id="Rectángulo_400907-2" data-name="Rectángulo 400907" transform="translate(0)" fill="none" stroke="#0f1f33" stroke-linecap="round" stroke-width="1">
            <rect width="84.208" height="84.207" rx="42.104" stroke="none"/>
            <rect x="0.5" y="0.5" width="83.208" height="83.207" rx="41.604" fill="none"/>
          </g>
        </g>
      </g>
    </g>
    <g id="pez" transform="translate(3930.499 -8027)">
      <path id="Trazado_878973" data-name="Trazado 878973" d="M151.479,84.319l-22.439,6.547c-.043-.138-.1-.363-.181-.665-.4-1.589-1.088-5.165.225-7.186,1.486-2.3,2.332-2.617,6.918-2.66.752-.009,1.607-.009,2.583-.009a7.942,7.942,0,0,0,4.319-.89c1.451-.881,1.649-2.15,3.748-2.539h.008a7.426,7.426,0,0,1,1.425-.121C153.267,76.8,151.479,84.319,151.479,84.319Zm0,0" transform="translate(-114.881 -69.023)" fill="#d44315"/>
      <path id="Trazado_878974" data-name="Trazado 878974" d="M137.486,304.938s-.017.009-.061.026c-.613.294-5.787,2.895-2.531,7.082,3.17,4.076,10.718-1.581,11.928-2.54Zm0,0" transform="translate(-119.831 -274.073)" fill="#ff5722"/>
      <path id="Trazado_878975" data-name="Trazado 878975" d="M313.229,351.23c-2.28,7.557-6.452,9.164-8.619,8.283a2.384,2.384,0,0,1-.8-.535c-1.727-1.779,4.37-7.523,4.37-7.523l2.548-.112Zm0,0" transform="translate(-272.329 -315.681)" fill="#d44315"/>
      <path id="Trazado_878976" data-name="Trazado 878976" d="M321.324,158.514c3.455,3.584-5.182,8.058-17.274,8.058-.337,0-.665-.009-.993-.026,11.306-.345,19.105-4.595,15.8-8.032,0,0,.863,0,.863-2.694,0-2.591-8.015-10.166-17.87-10.719.432-.026.881-.034,1.339-.034,10.365,0,19,8.067,19,10.753S321.324,158.514,321.324,158.514Zm0,0" transform="translate(-270.846 -130.384)" fill="#f17c00"/>
      <path id="Trazado_878977" data-name="Trazado 878977" d="M149.018,85.4,128.859,91.28c-.4-1.589-1.088-5.165.225-7.186,1.486-2.3,2.332-2.617,6.918-2.66.752-.009,1.607-.009,2.583-.009a7.942,7.942,0,0,0,4.319-.89c1.451-.881,1.649-2.15,3.748-2.539h.008C150.547,78.946,149.018,85.4,149.018,85.4Zm0,0" transform="translate(-114.881 -70.102)" fill="#ff5722"/>
      <path id="Trazado_878978" data-name="Trazado 878978" d="M310.725,352.34c-1.581,5.139-4.034,7.488-6.115,8.171a2.384,2.384,0,0,1-.8-.535c-1.727-1.779,4.37-7.523,4.37-7.523Zm0,0" transform="translate(-272.329 -316.678)" fill="#ff5722"/>
      <path id="Trazado_878979" data-name="Trazado 878979" d="M55.716,158.82c3.308,3.438-4.491,7.687-15.8,8.032-11.383-.414-16.376-8.032-19.736-8.032a2.859,2.859,0,0,0-1.278.268c-2.056.959-2.082,4.206-6.5,4.206a2.247,2.247,0,0,1-.872-.173c-3.515-1.468-3.014-11.971-.078-13.862a1.677,1.677,0,0,1,.95-.3c3.092,0,3.964,3.2,5.485,4.379a1.932,1.932,0,0,0,2.289.1c3.3-1.719,8.974-7.523,18.526-8.033,9.855.553,17.87,8.128,17.87,10.719C56.58,158.82,55.716,158.82,55.716,158.82Zm0,0" transform="translate(-7.708 -130.689)" fill="#ff9401"/>
      <g id="Grupo_1189839" data-name="Grupo 1189839" transform="translate(1.369 0.864)">
        <path id="Trazado_878980" data-name="Trazado 878980" d="M381.186,11.126A2.591,2.591,0,1,1,378.6,8.535,2.591,2.591,0,0,1,381.186,11.126Zm0,0" transform="translate(-338.865 -8.535)" fill="#00b8d0"/>
        <path id="Trazado_878981" data-name="Trazado 878981" d="M456.259,69.993a1.727,1.727,0,1,1-1.727-1.727A1.727,1.727,0,0,1,456.259,69.993Zm0,0" transform="translate(-407.892 -62.22)" fill="#00b8d0"/>
        <path id="Trazado_878982" data-name="Trazado 878982" d="M14.252,454.857a2.591,2.591,0,1,1-2.591-2.591A2.591,2.591,0,0,1,14.252,454.857Zm0,0" transform="translate(-9.07 -407.354)" fill="#00b8d0"/>
        <path id="Trazado_878983" data-name="Trazado 878983" d="M97.857,436.927A1.728,1.728,0,1,1,96.13,435.2,1.728,1.728,0,0,1,97.857,436.927Zm0,0" transform="translate(-85.765 -392.015)" fill="#00b8d0"/>
      </g>
      <path id="Trazado_878984" data-name="Trazado 878984" d="M399.414,197.039a27.564,27.564,0,0,1-3.36.976c-.734-1.08-5.908-10.192,1.969-16.851a24.681,24.681,0,0,1,2.375,1.624C399.259,184.075,394.275,190.38,399.414,197.039Zm0,0" transform="translate(-353.409 -162.828)" fill="#cbd4d8"/>
      <path id="Trazado_878985" data-name="Trazado 878985" d="M238.228,163.417c-2.349,1.468-2.375,4.2-2.28,5.329a23.354,23.354,0,0,1-5.347-.924h-.008c-.372-.682-2.539-5.027-2.539-12.342,0,0,.561-4.4-.13-6.382a.962.962,0,0,0-.06-.173c.052-.017.1-.035.147-.052a24.425,24.425,0,0,1,5.182-1.33c.423,1.183,1.529,3.714,3.5,4.387a2.9,2.9,0,0,1,2.073,1.866,4.53,4.53,0,0,0-3.8-.1C230.247,155.316,229.824,165.016,238.228,163.417Zm0,0" transform="translate(-204.35 -132.609)" fill="#cbd4d8"/>
      <path id="Trazado_878986" data-name="Trazado 878986" d="M98.678,225.114h-.009a2.8,2.8,0,0,0-.95-.181,2.924,2.924,0,0,0-2.375,1.132c.976-3.446.578-5.571.268-6.486a1.944,1.944,0,0,0,2.107-.026c.311-.164.648-.363,1-.587C99.084,220.252,99.662,223.542,98.678,225.114Zm0,0" transform="translate(-85.243 -196.802)" fill="#cbd4d8"/>
      <path id="Trazado_878987" data-name="Trazado 878987" d="M211.948,107.582c-.017,0-.173.11-.192.11a24.056,24.056,0,0,0-5.137,1.272c-.121-2.479-2.289-4.811-2.392-4.984.752-.009,1.607-.009,2.583-.009a7.942,7.942,0,0,0,4.319-.89A12.725,12.725,0,0,1,211.948,107.582Zm0,0" transform="translate(-183.105 -92.649)" fill="#cbd4d8"/>
      <path id="Trazado_878988" data-name="Trazado 878988" d="M447.724,232.126A1.727,1.727,0,1,1,446,230.4,1.728,1.728,0,0,1,447.724,232.126Zm0,0" transform="translate(-398.852 -207.079)" fill="#fff"/>
      <path id="Trazado_878989" data-name="Trazado 878989" d="M446.689,231.954a.864.864,0,0,1-1.649.354,1.748,1.748,0,0,1,1.14-1.14A.863.863,0,0,1,446.689,231.954Zm0,0" transform="translate(-399.544 -207.77)" fill="#fff"/>
      <path id="Trazado_878990" data-name="Trazado 878990" d="M9.541,81.875C8.573,80.534,7.25,78.7,4.7,78.7,1.945,78.7.505,83,.505,87.253A12.733,12.733,0,0,0,1.376,92.2,3.7,3.7,0,0,0,4.7,94.766a6.1,6.1,0,0,0,5.479-2.923c.135-.179.259-.337.378-.486a.851.851,0,0,0,.268-.311,2.027,2.027,0,0,1,1.646-.761c.852,0,2.1.814,3.55,1.814a6.255,6.255,0,0,0-2.781,3.537,4.822,4.822,0,0,0,1.14,4.158,4.513,4.513,0,0,0,3.14,1.75,5.963,5.963,0,0,0,.7.04c3.507,0,7.611-2.885,8.992-3.937a25.108,25.108,0,0,0,3.908.612.807.807,0,0,0,.558.064c.012,0,.021-.012.033-.015q.731.042,1.5.042c.15,0,.3-.007.446-.008-1.442,1.479-3.282,3.678-3.345,5.337a2,2,0,0,0,.554,1.513,3.557,3.557,0,0,0,2.591,1.013,4.867,4.867,0,0,0,1.161-.144c1.4-.34,4.814-1.86,6.953-8.479.394-.076.786-.154,1.164-.24a.809.809,0,0,0,.234-.058,28.482,28.482,0,0,0,3.148-.922.862.862,0,0,0,.365-.13c2.772-1.049,4.728-2.418,5.383-3.963a2.9,2.9,0,0,0-.2-2.736,5.485,5.485,0,0,0,.55-2.8c0-2.647-6.246-8.926-14.588-10.964.214-1.263.509-4.2-.93-6.029A4.185,4.185,0,0,0,33.2,68.2a5.273,5.273,0,0,0-4.542,1.848,5.255,5.255,0,0,1-1.1.946,7.376,7.376,0,0,1-3.864.758c-.979,0-1.838,0-2.591.009-4.614.045-5.873.332-7.633,3.049-1.468,2.259-.809,5.984-.346,7.832-.38.247-.736.465-1.055.631C11.077,83.8,10.68,83.453,9.541,81.875ZM4.7,93.039c-.709,0-1.3-.518-1.742-1.532a11.013,11.013,0,0,1-.724-4.254c0-3.907,1.3-6.823,2.467-6.823,1.666,0,2.528,1.194,3.441,2.458a12.62,12.62,0,0,0,.915,1.159.877.877,0,0,0,.19.7c.012.014,1.149,1.423.065,5.407-.179.214-.346.432-.509.649A4.368,4.368,0,0,1,4.7,93.039Zm6.679-4.329a8.986,8.986,0,0,0-.077-3.482,3.3,3.3,0,0,0,1.569-.416l.03-.017a5.767,5.767,0,0,1,.019,3.8,3.25,3.25,0,0,0-.447-.039A4.016,4.016,0,0,0,11.378,88.71Zm4.327-5.72A39.763,39.763,0,0,1,22.9,78.8a.833.833,0,0,0,.173-.035A15.52,15.52,0,0,1,22.855,84a.819.819,0,0,0-.017.164A30.875,30.875,0,0,0,24.652,95.06a33.986,33.986,0,0,1-7.232-4.094,25.915,25.915,0,0,0-2.85-1.8c.73-1.63.289-3.858-.115-5.227a.853.853,0,0,0,.461-.4q.384-.26.789-.542Zm12.346-5.756a.825.825,0,0,0,.01.094A6.97,6.97,0,0,0,31.6,81.247a7.788,7.788,0,0,0-1.268.325A6.106,6.106,0,0,0,26.512,86.4,5.342,5.342,0,0,0,31.6,93.126a5.712,5.712,0,0,0-1.088,3.355,22.963,22.963,0,0,1-3.663-.691,27.276,27.276,0,0,1-2.281-11.54c.132-.7.714-4.1.114-6.132A24,24,0,0,1,28.051,77.234Zm-10.327,22.6a2.807,2.807,0,0,1-1.978-1.1,3.161,3.161,0,0,1-.823-2.7c.337-1.423,1.929-2.459,2.655-2.866a30.752,30.752,0,0,0,7.508,3.875C23.282,98.269,20.111,100.117,17.723,99.831ZM32.241,96.6a3.861,3.861,0,0,1,2.218-3.671.778.778,0,0,0,.128-.1,16.869,16.869,0,0,0,2.387-.75.864.864,0,1,0-.637-1.606c-3.082,1.219-5.553,1.26-6.957.111a3.973,3.973,0,0,1-1.168-3.869,4.445,4.445,0,0,1,2.677-3.5,3.712,3.712,0,0,1,3.165.066,4.5,4.5,0,0,1,1.749,2.81.864.864,0,0,0,1.705-.279,6.688,6.688,0,0,0-1.727-3.361c0-.018.01-.034.01-.053,0-.453-.309-1.612-3.174-2.591a5.079,5.079,0,0,1-2.839-2.812,23.64,23.64,0,0,1,2.558-.146,22.532,22.532,0,0,1,10.768,2.9c-5.628,5.3-4.079,12.151-1.841,16.153a43.358,43.358,0,0,1-8.063.726C32.874,96.62,32.558,96.61,32.241,96.6ZM45.867,81.5c-1.5,1.8-5.268,7.327-1.228,13.569-.5.157-1.042.3-1.6.442-1.244-2.073-4.79-9.235,1.623-14.837C45.083,80.943,45.485,81.216,45.867,81.5ZM34.2,104.384a2.226,2.226,0,0,1-2.109-.4c-.025-.026-.072-.074-.064-.243.047-1.246,2.447-3.918,4.208-5.5,1.166-.075,2.3-.189,3.394-.346-1.918,5.225-4.6,6.281-5.428,6.483ZM50.475,86.733a3.885,3.885,0,0,1-.288,1.874.864.864,0,0,0-.333,1.414,1.315,1.315,0,0,1,.414,1.574c-.421.99-1.824,2.01-3.953,2.872-3.881-5.583-.355-10.463.906-11.912C49.274,84.3,50.475,85.957,50.475,86.733ZM29.906,71.247a3.624,3.624,0,0,1,3.3-1.315,2.516,2.516,0,0,1,2.123.873c.929,1.18.8,3.387.6,4.616a21.747,21.747,0,0,0-3.585-.306,25.9,25.9,0,0,0-2.626.14,12.439,12.439,0,0,0-.643-3.214A9.284,9.284,0,0,0,29.906,71.247ZM23.7,73.484a10.831,10.831,0,0,0,3.841-.559,10.94,10.94,0,0,1,.452,2.558,25.38,25.38,0,0,0-4.4,1.181,12.253,12.253,0,0,0-1.03-3.178H23.7Zm-8.772,2.271c1.209-1.86,1.7-2.193,5.7-2.255a10.8,10.8,0,0,1,1.309,3.822,42.246,42.246,0,0,0-7.216,4.248l-.054.037C14.213,79.5,14.071,77.069,14.929,75.755Zm0,0" transform="translate(0 -61.295)"/>
      <path id="Trazado_878991" data-name="Trazado 878991" d="M454.532,239.345a.864.864,0,1,0-.864.888A.876.876,0,0,0,454.532,239.345Zm0,0" transform="translate(-406.524 -214.322)"/>
      <path id="Trazado_878992" data-name="Trazado 878992" d="M370.924,0a3.455,3.455,0,1,0,2.443,1.012A3.455,3.455,0,0,0,370.924,0Zm0,5.182a1.727,1.727,0,1,1,1.221-.506A1.727,1.727,0,0,1,370.924,5.182Zm0,0" transform="translate(-329.825 0)"/>
      <path id="Trazado_878993" data-name="Trazado 878993" d="M449.452,62.325a2.591,2.591,0,1,0-2.591,2.591A2.591,2.591,0,0,0,449.452,62.325Zm-3.455,0a.864.864,0,1,1,.864.864A.864.864,0,0,1,446,62.325Zm0,0" transform="translate(-398.852 -53.688)"/>
      <path id="Trazado_878994" data-name="Trazado 878994" d="M419.4,110.978a.517.517,0,0,0-.165.052.488.488,0,0,0-.147.077.908.908,0,0,0-.13.1.864.864,0,0,0,0,1.226.884.884,0,0,0,.13.1.488.488,0,0,0,.147.077.517.517,0,0,0,.165.052,1.037,1.037,0,0,0,.163.017.864.864,0,0,0,.613-1.477A.893.893,0,0,0,419.4,110.978Zm0,0" transform="translate(-375.877 -99.732)"/>
      <path id="Trazado_878995" data-name="Trazado 878995" d="M3.994,450.644a3.455,3.455,0,1,0-3.455-3.455A3.455,3.455,0,0,0,3.994,450.644Zm0-5.182a1.727,1.727,0,1,1-1.727,1.727A1.727,1.727,0,0,1,3.994,445.462Zm0,0" transform="translate(-0.034 -398.822)"/>
      <path id="Trazado_878996" data-name="Trazado 878996" d="M85.871,429.259a2.591,2.591,0,1,0,2.591-2.591A2.591,2.591,0,0,0,85.871,429.259Zm2.591-.864a.864.864,0,1,1-.863.864A.864.864,0,0,1,88.462,428.4Zm0,0" transform="translate(-76.729 -383.483)"/>
      <path id="Trazado_878997" data-name="Trazado 878997" d="M103.81,394.185a.868.868,0,1,0-.009,0Zm0,0" transform="translate(-92.068 -352.728)"/>
    </g>
  </g>
</svg>
