<svg xmlns="http://www.w3.org/2000/svg" width="84.208" height="84.207" viewBox="0 0 84.208 84.207">
  <g id="Grupo_1189720" data-name="Grupo 1189720" transform="translate(6245.143 7270.522)">
    <g id="Grupo_1189027" data-name="Grupo 1189027" transform="translate(-7117.869 -7549.299)">
      <g id="Grupo_1188789" data-name="Grupo 1188789" transform="translate(583.726 -5835.222)">
        <rect id="Rectángulo_400898" data-name="Rectángulo 400898" width="75.49" height="75.489" rx="37.744" transform="translate(293.36 6118.358)" fill="#ffd907"/>
        <rect id="Rectángulo_400907" data-name="Rectángulo 400907" width="75.49" height="75.489" rx="37.744" transform="translate(293.36 6118.358)" fill="none"/>
        <g id="Grupo_1098742" data-name="Grupo 1098742" transform="translate(289 6114)">
          <g id="Rectángulo_400898-2" data-name="Rectángulo 400898" transform="translate(0)" fill="none" stroke="#fff" stroke-width="1" opacity="0.859">
            <rect width="84.208" height="84.207" rx="42.104" stroke="none"/>
            <rect x="0.5" y="0.5" width="83.208" height="83.207" rx="41.604" fill="none"/>
          </g>
          <g id="Rectángulo_400907-2" data-name="Rectángulo 400907" transform="translate(0)" fill="none" stroke="#0f1f33" stroke-linecap="round" stroke-width="1">
            <rect width="84.208" height="84.207" rx="42.104" stroke="none"/>
            <rect x="0.5" y="0.5" width="83.208" height="83.207" rx="41.604" fill="none"/>
          </g>
        </g>
      </g>
    </g>
    <g id="pata" transform="translate(-6226.575 -7252.533)">
      <path id="Trazado_878504" data-name="Trazado 878504" d="M54.513,51.722c3.681,3.681,2.928,9.678-.984,13.592A11.552,11.552,0,0,1,48.4,68.338a10.336,10.336,0,0,1-2.7,6v8.912h-23.4V74.342a10.337,10.337,0,0,1-2.711-6.074,11.585,11.585,0,0,1-4.942-2.955c-4.085-4.086-4.517-10.056-.983-13.59a8.281,8.281,0,0,1,5.918-2.393h.04c.553-5.163,4.254-8.986,8.807-8.986A8.2,8.2,0,0,1,33.994,42.6a8.2,8.2,0,0,1,5.572-2.253c4.558,0,8.26,3.827,8.808,9,.071-.007.144-.011.219-.011A8.284,8.284,0,0,1,54.513,51.722Z" transform="translate(-10.22 -36.288)" fill="#c1b0b5"/>
      <g id="Grupo_1189719" data-name="Grupo 1189719" transform="translate(7.173 10.185)">
        <path id="Trazado_878505" data-name="Trazado 878505" d="M366.727,203.692c1.087,1.088.646,3.293-.985,4.925s-3.837,2.074-4.925.985-.647-3.293.984-4.925S365.639,202.6,366.727,203.692Z" transform="translate(-333.941 -194.11)" fill="#ffda8f"/>
        <path id="Trazado_878506" data-name="Trazado 878506" d="M179.925,232.152a4.18,4.18,0,1,1-3.965,7.233,2.62,2.62,0,0,0-3.2,0,4.18,4.18,0,1,1-3.965-7.233,5.572,5.572,0,1,1,11.135,0Z" transform="translate(-157.757 -215.2)" fill="#ffda8f"/>
        <ellipse id="Elipse_11521" data-name="Elipse 11521" cx="2.786" cy="4.179" rx="2.786" ry="4.179" transform="translate(19.387)" fill="#ffda8f"/>
        <ellipse id="Elipse_11522" data-name="Elipse 11522" cx="2.786" cy="4.179" rx="2.786" ry="4.179" transform="translate(8.243)" fill="#ffda8f"/>
        <path id="Trazado_878507" data-name="Trazado 878507" d="M82.762,204.677c1.633,1.632,2.073,3.836.985,4.925s-3.293.647-4.925-.985-2.074-3.836-.985-4.925,3.293-.647,4.925.985Z" transform="translate(-77.241 -194.11)" fill="#ffda8f"/>
      </g>
      <path id="Trazado_878508" data-name="Trazado 878508" d="M159.715,106.559c2.083,0,3.715-2.244,3.715-5.108s-1.632-5.108-3.715-5.108S156,98.588,156,101.452,157.632,106.559,159.715,106.559Zm0-8.358c.878,0,1.857,1.335,1.857,3.25s-.979,3.25-1.857,3.25-1.857-1.335-1.857-3.25S158.836,98.2,159.715,98.2Z" transform="translate(-141.513 -87.088)"/>
      <path id="Trazado_878509" data-name="Trazado 878509" d="M279.715,96.344c-2.083,0-3.715,2.244-3.715,5.108s1.632,5.108,3.715,5.108,3.715-2.244,3.715-5.108S281.8,96.344,279.715,96.344Zm0,8.358c-.878,0-1.857-1.335-1.857-3.25s.979-3.25,1.857-3.25,1.857,1.335,1.857,3.25S280.593,104.7,279.715,104.7Z" transform="translate(-250.369 -87.088)"/>
      <path id="Trazado_878510" data-name="Trazado 878510" d="M68.022,193.88c-1.671,1.671-.741,4.513.985,6.238,1.834,1.835,4.65,2.574,6.239.985,1.472-1.474,1.039-4.214-.985-6.238C72.521,193.124,69.683,192.218,68.022,193.88Zm5.91,5.91c-.851.851-2.688-.061-3.612-.986-.971-.97-1.81-2.787-.985-3.612.841-.842,2.68.054,3.611.985h0C74.3,197.532,74.553,199.168,73.932,199.79Z" transform="translate(-60.909 -174.769)"/>
      <path id="Trazado_878511" data-name="Trazado 878511" d="M358.275,193.928c-1.473-1.473-4.214-1.04-6.239.985s-2.457,4.765-.985,6.238c1.661,1.662,4.505.749,6.239-.985C359.314,198.141,359.747,195.4,358.275,193.928Zm-2.3,4.925h0c-.922.922-2.765,1.832-3.611.985-.621-.621-.37-2.257.984-3.612,1.286-1.286,2.953-1.644,3.612-.986C357.582,195.862,357.33,197.5,355.976,198.852Z" transform="translate(-317.658 -174.817)"/>
      <path id="Trazado_878512" data-name="Trazado 878512" d="M426.751,269.625Z" transform="translate(-387.12 -244.276)"/>
      <path id="Trazado_878513" data-name="Trazado 878513" d="M174.574,227.024a5.118,5.118,0,0,0-2.8-4.556,6.5,6.5,0,0,0-12.981,0,5.109,5.109,0,0,0,2.312,9.664,5.063,5.063,0,0,0,3.15-1.087,1.684,1.684,0,0,1,2.058,0,5.062,5.062,0,0,0,3.15,1.086A5.114,5.114,0,0,0,174.574,227.024Zm-11.461,2.559a3.251,3.251,0,0,1-5.255-2.559,3.255,3.255,0,0,1,2.17-3.067.929.929,0,0,0,.62-.915,4.644,4.644,0,1,1,9.279,0,.929.929,0,0,0,.62.915,3.251,3.251,0,0,1-1.08,6.318,3.221,3.221,0,0,1-2-.691A3.559,3.559,0,0,0,163.112,229.583Z" transform="translate(-141.513 -195.943)"/>
      <path id="Trazado_878514" data-name="Trazado 878514" d="M47.276,13.349a.929.929,0,0,0-1.313-1.313l-1.936,1.936a9.234,9.234,0,0,0-5.063-1.843A10.775,10.775,0,0,0,32.735,3.8l.576-2.3a.929.929,0,1,0-1.8-.451l-.558,2.229a8.88,8.88,0,0,0-1.606-.146,9.068,9.068,0,0,0-5.572,1.964A9.068,9.068,0,0,0,18.2,3.127a8.864,8.864,0,0,0-1.606.147l-.558-2.229a.929.929,0,0,0-1.8.451l.577,2.3a10.776,10.776,0,0,0-6.23,8.342A9.2,9.2,0,0,0,3.6,14.052L1.585,12.036A.929.929,0,0,0,.272,13.349L2.263,15.34c-3.336,3.946-2.746,10.094,1.5,14.341a12.609,12.609,0,0,0,4.748,3,11.351,11.351,0,0,0,2.634,5.726v8.553a.929.929,0,0,0,.929.929h7.522a.929.929,0,1,0,0-1.857H13V38.054a.929.929,0,0,0-.246-.629A9.458,9.458,0,0,1,10.287,31.9a.929.929,0,0,0-.666-.809,10.678,10.678,0,0,1-4.545-2.72C1.359,24.65.928,19.257,4.094,16.09a7.361,7.361,0,0,1,5.26-2.121.927.927,0,0,0,.964-.829c.507-4.726,3.822-8.156,7.883-8.156a7.312,7.312,0,0,1,4.942,2.007.929.929,0,0,0,1.26,0,7.311,7.311,0,0,1,4.942-2.007c4.066,0,7.383,3.434,7.885,8.165a.928.928,0,0,0,1.009.827c.052,0,.1-.007.134-.007a7.26,7.26,0,0,1,7.355,8.025,10.231,10.231,0,0,1-3.077,6.375,10.651,10.651,0,0,1-4.718,2.784.929.929,0,0,0-.682.808,9.457,9.457,0,0,1-2.46,5.458.929.929,0,0,0-.245.629v7.984H27.953a.929.929,0,1,0,0,1.857h7.522a.929.929,0,0,0,.929-.929V38.4a11.354,11.354,0,0,0,2.618-5.636,12.615,12.615,0,0,0,4.944-3.083,12.087,12.087,0,0,0,3.615-7.546,9.261,9.261,0,0,0-2.2-6.894Z" transform="translate(0 0)"/>
      <circle id="Elipse_11523" data-name="Elipse 11523" cx="0.929" cy="0.929" r="0.929" transform="translate(22.845 46.032)"/>
    </g>
  </g>
</svg>
