<svg xmlns="http://www.w3.org/2000/svg" width="84.208" height="84.207" viewBox="0 0 84.208 84.207">
  <g id="Grupo_1189727" data-name="Grupo 1189727" transform="translate(5595.182 7270.522)">
    <g id="Grupo_1189029" data-name="Grupo 1189029" transform="translate(-6467.908 -7549.299)">
      <g id="Grupo_1188789" data-name="Grupo 1188789" transform="translate(583.726 -5835.222)">
        <rect id="Rectángulo_400898" data-name="Rectángulo 400898" width="75.49" height="75.489" rx="37.744" transform="translate(293.36 6118.358)" fill="#ffd907"/>
        <rect id="Rectángulo_400907" data-name="Rectángulo 400907" width="75.49" height="75.489" rx="37.744" transform="translate(293.36 6118.358)" fill="none"/>
        <g id="Grupo_1098742" data-name="Grupo 1098742" transform="translate(289 6114)">
          <g id="Rectángulo_400898-2" data-name="Rectángulo 400898" transform="translate(0)" fill="none" stroke="#fff" stroke-width="1" opacity="0.859">
            <rect width="84.208" height="84.207" rx="42.104" stroke="none"/>
            <rect x="0.5" y="0.5" width="83.208" height="83.207" rx="41.604" fill="none"/>
          </g>
          <g id="Rectángulo_400907-2" data-name="Rectángulo 400907" transform="translate(0)" fill="none" stroke="#0f1f33" stroke-linecap="round" stroke-width="1">
            <rect width="84.208" height="84.207" rx="42.104" stroke="none"/>
            <rect x="0.5" y="0.5" width="83.208" height="83.207" rx="41.604" fill="none"/>
          </g>
        </g>
      </g>
    </g>
    <g id="gato_1_" data-name="gato (1)" transform="translate(-5575.062 -7251.582)">
      <path id="Trazado_878534" data-name="Trazado 878534" d="M51.514,238.51a2.6,2.6,0,0,1-.822,1.776,6.437,6.437,0,0,1-1.182.952,13.337,13.337,0,0,1-2.146,1.09,25.3,25.3,0,0,1-2.918.973l-.348.093c0,.088,0,.176-.006.264a6.7,6.7,0,0,1-6.693,6.436H22.6a6.693,6.693,0,0,1-6.7-6.7c-.822-.214-1.588-.447-2.293-.7q-.509-.178-.973-.369c-2.611-1.07-4.151-2.389-4.151-3.817,0-1.318,1.312-2.543,3.565-3.565,3.851-1.746,10.453-2.9,17.951-2.9a68.587,68.587,0,0,1,6.919.341,50.847,50.847,0,0,1,6.073.97,25.951,25.951,0,0,1,5.11,1.657C50.26,236.023,51.514,237.222,51.514,238.51Z" transform="translate(-7.746 -210.965)" fill="#bcaaa4"/>
      <path id="Trazado_878535" data-name="Trazado 878535" d="M86.233,240.286a6.437,6.437,0,0,1-1.182.952,13.337,13.337,0,0,1-2.146,1.09,25.3,25.3,0,0,1-2.918.973l-.348.093c0,.088,0,.176-.006.264a6.661,6.661,0,0,1-1.326,3.746H76.731a6.9,6.9,0,0,1-2.648-.527,13.294,13.294,0,0,1-3.7.527H57.905a10.412,10.412,0,0,1-6.154-1.991,6.69,6.69,0,0,1-.31-2.019c-.822-.214-1.588-.447-2.293-.7a10.431,10.431,0,0,1-1.741-5.791,10.568,10.568,0,0,1,.181-1.96c3.851-1.747,10.453-2.9,17.951-2.9a68.587,68.587,0,0,1,6.919.341,50.847,50.847,0,0,1,6.073.97,25.951,25.951,0,0,1,5.11,1.657,13.177,13.177,0,0,1-1.152,4.58h1.53A3.87,3.87,0,0,1,86.233,240.286Z" transform="translate(-43.287 -210.965)" fill="#a1887f"/>
      <path id="Trazado_878536" data-name="Trazado 878536" d="M102.245,200.323H99.382a2.59,2.59,0,0,1-1.424-.425,11.514,11.514,0,0,0,2.205-6.791,11.161,11.161,0,0,1-2.348.809,11.833,11.833,0,0,1-2.6.286c-4.969,0-9.1-3.046-9.98-7.067H76.131a8.762,8.762,0,1,0,0,17.525H88.609a11.539,11.539,0,0,0,3.829-.65,5.18,5.18,0,0,0,2.518.65h7.287a2.169,2.169,0,0,0,0-4.338Z" transform="translate(-61.513 -169.958)" fill="#b0bec5"/>
      <path id="Trazado_878537" data-name="Trazado 878537" d="M131.644,250.53H129.71a8.256,8.256,0,0,0-8.058-6.507H120a1.735,1.735,0,0,0-1.735,1.735h3.383a6.507,6.507,0,0,1,6.507,6.507h3.508a2.208,2.208,0,0,1,2.217,2.211,2.169,2.169,0,0,1-2.168,2.126h3.244a3.875,3.875,0,0,0,.66-2.242A3.951,3.951,0,0,0,131.644,250.53Z" transform="translate(-107.988 -221.9)" fill="#90a4ae"/>
      <path id="Trazado_878538" data-name="Trazado 878538" d="M29.869,49.4v2.169A6.073,6.073,0,0,1,23.8,57.644H15.337a1.865,1.865,0,1,0,0,3.73h2.59a8.8,8.8,0,0,0-2.5,3.036h-.641a5.306,5.306,0,1,1,0-10.613h8.487a2.6,2.6,0,0,0,2.6-2.6V49.4a2,2,0,1,1,3.991,0Z" transform="translate(-8.657 -42.375)" fill="#b0bec5"/>
      <path id="Trazado_878539" data-name="Trazado 878539" d="M14.425,10.522H12.387V8.483H9.524v2.039H7.485v2.863H9.524v2.039h2.863V13.385h2.039Z" transform="translate(-6.834 -6.834)" fill="#f4564e"/>
      <path id="Trazado_878540" data-name="Trazado 878540" d="M269.271,193.105a11.6,11.6,0,0,1-.166,1.961,13.363,13.363,0,0,1-4.779.87,12.769,12.769,0,0,1-8.3-2.95,9.92,9.92,0,0,1-3.446-5.852h1.77c.875,4.021,5.01,7.067,9.98,7.067a11.833,11.833,0,0,0,2.6-.286A11.155,11.155,0,0,0,269.271,193.105Z" transform="translate(-230.622 -169.956)" fill="#90a4ae"/>
      <path id="Trazado_878541" data-name="Trazado 878541" d="M288.407,44.65V39.423l-4.6,2.776s-1.6-.18-2.689-.18-2.689.18-2.689.18l-4.6-2.776V44.65a8.02,8.02,0,0,0-2.863,6.024c0,4.78,4.545,8.655,10.15,8.655s10.15-3.875,10.15-8.655A8.019,8.019,0,0,0,288.407,44.65Z" transform="translate(-247.415 -35.085)" fill="#b0bec5"/>
      <g id="Grupo_1189724" data-name="Grupo 1189724" transform="translate(28.152 14.488)">
        <path id="Trazado_878542" data-name="Trazado 878542" d="M326.817,160.358h-1.388a1.562,1.562,0,0,1-1.562-1.562h0a2.6,2.6,0,0,1,2.6-2.6h2.95v1.562A2.6,2.6,0,0,1,326.817,160.358Z" transform="translate(-323.867 -156.194)" fill="#616161"/>
        <path id="Trazado_878543" data-name="Trazado 878543" d="M391.734,160.358h-1.388a2.6,2.6,0,0,1-2.6-2.6v-1.562h2.95a2.6,2.6,0,0,1,2.6,2.6h0A1.562,1.562,0,0,1,391.734,160.358Z" transform="translate(-382.191 -156.194)" fill="#616161"/>
      </g>
      <path id="Trazado_878544" data-name="Trazado 878544" d="M334.736,157.713a1.559,1.559,0,0,1-1.325.738h-1.388a2.6,2.6,0,0,1-2.579-2.256H329.4a2.6,2.6,0,0,1-2.579,2.256H325.43a1.559,1.559,0,0,1-1.325-.738,2.592,2.592,0,0,0-.237,1.085h0a1.562,1.562,0,0,0,1.562,1.562h1.388a2.6,2.6,0,0,0,2.6-2.6,2.6,2.6,0,0,0,2.6,2.6h1.388a1.562,1.562,0,0,0,1.562-1.562h0A2.593,2.593,0,0,0,334.736,157.713Z" transform="translate(-295.716 -141.706)" fill="#424242"/>
      <g id="Grupo_1189725" data-name="Grupo 1189725" transform="translate(4.927 16.397)">
        <path id="Trazado_878545" data-name="Trazado 878545" d="M104.191,283.525a2.168,2.168,0,0,1-1.948,1.215H94.956a5.2,5.2,0,0,1-5.205-5.205v1.909a5.181,5.181,0,0,0,1.019,3.094,11.525,11.525,0,0,1-2.162.2H76.13a8.76,8.76,0,0,1-8.71-7.811,8.936,8.936,0,0,0-.052.957,8.762,8.762,0,0,0,8.762,8.762H88.608a11.533,11.533,0,0,0,3.829-.65,5.178,5.178,0,0,0,2.519.65h7.287a2.169,2.169,0,0,0,1.948-3.123Z" transform="translate(-66.439 -268.343)" fill="#90a4ae"/>
        <path id="Trazado_878546" data-name="Trazado 878546" d="M61.022,208.094a8.8,8.8,0,0,0-2.5,3.036h-.641a5.293,5.293,0,0,1-1.2-.138c.075-.18.155-.357.241-.533a10.505,10.505,0,0,1,1.575-2.366Z" transform="translate(-56.679 -205.491)" fill="#90a4ae"/>
        <path id="Trazado_878547" data-name="Trazado 878547" d="M333.411,180.408h-1.388a2.6,2.6,0,0,1-2.579-2.256H329.4a2.6,2.6,0,0,1-2.579,2.256H325.43a1.559,1.559,0,0,1-1.325-.738,2.592,2.592,0,0,0-.237,1.085h0a1.562,1.562,0,0,0,1.562,1.562h1.388a2.6,2.6,0,0,0,2.6-2.6,2.6,2.6,0,0,0,2.6,2.6h1.388a1.562,1.562,0,0,0,1.562-1.562h0a2.592,2.592,0,0,0-.237-1.085A1.559,1.559,0,0,1,333.411,180.408Z" transform="translate(-300.643 -178.152)" fill="#90a4ae"/>
      </g>
      <path id="Trazado_878548" data-name="Trazado 878548" d="M44.1,311.284h0a6.7,6.7,0,0,1-6.7,6.7H22.6a6.7,6.7,0,0,1-6.7-6.7h0c-4.544-1.185-7.418-2.933-7.418-4.882v10.671c0,3.57,9.633,6.463,21.515,6.463s21.515-2.894,21.515-6.463V306.4C51.514,308.352,48.64,310.1,44.1,311.284Z" transform="translate(-7.746 -278.857)" fill="#57d3d3"/>
      <path id="Trazado_878549" data-name="Trazado 878549" d="M40.876,46.143a8.992,8.992,0,0,0,4.54-7.579,8.591,8.591,0,0,0-2.863-6.313V26.159l-5.4,3.259c-.485-.05-1.659-.161-2.541-.161s-2.056.111-2.541.161l-5.4-3.259v6.092a8.591,8.591,0,0,0-2.863,6.313,8.089,8.089,0,0,0,.055.938H15.53A9.362,9.362,0,0,0,9.97,41.323H7.591a1.215,1.215,0,0,1,0-2.429H16.05a6.731,6.731,0,0,0,6.724-6.724V30a2.646,2.646,0,1,0-5.292,0v1.793a1.954,1.954,0,0,1-1.952,1.952H7.042A5.957,5.957,0,0,0,6.7,45.65l-.008.021C2.966,46.961,1,48.634,1,50.519V61.19c0,2.068,2.339,3.864,6.765,5.193a55.823,55.823,0,0,0,15.4,1.921,55.822,55.822,0,0,0,15.4-1.921c4.426-1.33,6.765-3.125,6.765-5.193V50.519C45.33,48.86,43.8,47.359,40.876,46.143ZM27.758,33.028l.221-.194V28.465l3.8,2.295.22-.025c.016,0,1.574-.176,2.617-.176s2.6.174,2.617.176l.22.025,3.8-2.294v4.369l.221.194a7.358,7.358,0,0,1,2.642,5.536c0,4.414-4.261,8-9.5,8s-9.5-3.591-9.5-8A7.358,7.358,0,0,1,27.758,33.028ZM24.132,40.8c1.166,4.053,5.424,7.067,10.484,7.067a12.239,12.239,0,0,0,4.248-.751,10.787,10.787,0,0,1-1.628,4.809,1.941,1.941,0,0,1-.408-1.192v-2h-1.3v2a3.257,3.257,0,0,0,3.253,3.253h.835q-.635.235-1.348.453l-.054.016-.31.092-.189.054-.2.057-.363.1-.052.014-.486.127h0v.5a6.029,6.029,0,0,1-.223,1.624H34.355A4.56,4.56,0,0,1,29.8,52.471v-3.73H28.5v3.73a5.841,5.841,0,0,0,1.88,4.294,10.921,10.921,0,0,1-2.372.261h-.995a2.817,2.817,0,0,0-2.374-4.338H21.7a7.167,7.167,0,0,0-7.128-6.507H11.192v1.3h3.383a5.863,5.863,0,0,1,5.856,5.856v.651h4.208a1.518,1.518,0,1,1,0,3.036H15.53a8.112,8.112,0,1,1,0-16.223ZM9.8,56.374a9.365,9.365,0,0,0,5.733,1.953H28.008a12.18,12.18,0,0,0,3.776-.6,5.82,5.82,0,0,0,2.572.6h1.5a6.053,6.053,0,0,1-5.292,3.123h-14.8A6.058,6.058,0,0,1,9.8,56.374ZM2.386,39.7a4.661,4.661,0,0,1,4.656-4.656H15.53a3.257,3.257,0,0,0,3.253-3.253V30a1.345,1.345,0,1,1,2.689,0V32.17a5.428,5.428,0,0,1-5.422,5.422H7.591a2.516,2.516,0,1,0,0,5.032h.937a9.5,9.5,0,0,0-1.238,1.735H7.042A4.661,4.661,0,0,1,2.386,39.7Zm3.885,7.511a9.406,9.406,0,0,0,1.6,7.168A14.742,14.742,0,0,1,3.566,52.39l-.029-.021c-.047-.036-.092-.071-.136-.107l-.119-.1,0,0A2.984,2.984,0,0,1,2.4,51.031l-.005-.014c-.018-.049-.033-.1-.046-.145,0-.017-.01-.035-.014-.052s-.007-.036-.011-.054-.01-.053-.013-.08,0-.029-.005-.044c0-.041-.007-.083-.007-.124C2.3,49.412,3.762,48.21,6.271,47.215ZM23.164,67C10.868,67,2.3,63.939,2.3,61.19V53.029a11.125,11.125,0,0,0,3.254,1.909c.143.059.291.116.441.174l.048.018.265.1.2.074.094.033q.323.114.665.223l.02.007q.357.114.733.223l.032.009.376.107a7.334,7.334,0,0,0,2.418,4.954c.131.118.265.233.4.341l.031.023a7.312,7.312,0,0,0,4.481,1.528h14.8a7.312,7.312,0,0,0,4.481-1.529l.031-.023c.139-.108.273-.223.4-.341A7.335,7.335,0,0,0,37.9,55.905l.376-.107.033-.01q.375-.109.732-.223l.022-.007q.341-.109.665-.223l.093-.033.208-.075.259-.1.053-.02c.15-.057.3-.115.44-.174a14.006,14.006,0,0,0,2.251-1.145,7.746,7.746,0,0,0,1-.757V61.19C44.029,63.939,35.46,67,23.164,67ZM44.022,50.648c0,.007,0,.014,0,.02q-.007.063-.02.125l0,.02c-.01.043-.021.086-.034.129l0,.011a1.789,1.789,0,0,1-.117.277l0,0c-.024.046-.051.092-.079.138l0,.007q-.043.069-.093.138l0,.005a5.088,5.088,0,0,1-1.426,1.23,2.814,2.814,0,0,0-.588-.064H38.78a1.948,1.948,0,0,1-.452-.053,12.075,12.075,0,0,0,1.83-5.381c2.472.992,3.871,2.163,3.871,3.265A1.289,1.289,0,0,1,44.022,50.648Z" transform="translate(-0.911 -22.974)"/>
      <path id="Trazado_878550" data-name="Trazado 878550" d="M2.039,9.24H6.2V7.2H8.242V3.037H6.2V1H2.039V3.037H0V7.2H2.039ZM1.3,5.9V4.338H3.34V2.3H4.9V4.338H6.94V5.9H4.9V7.938H3.34V5.9Z"/>
      <rect id="Rectángulo_403424" data-name="Rectángulo 403424" width="5.119" height="1.301" transform="translate(9.847 3.037)"/>
      <rect id="Rectángulo_403425" data-name="Rectángulo 403425" width="2.169" height="1.301" transform="translate(9.847 5.9)"/>
      <path id="Trazado_878551" data-name="Trazado 878551" d="M318.594,154.176h1.388a3.25,3.25,0,0,0,2.6-1.3,3.25,3.25,0,0,0,2.6,1.3h1.388a2.215,2.215,0,0,0,2.212-2.212,3.257,3.257,0,0,0-3.253-3.253h-5.9a3.257,3.257,0,0,0-3.253,3.253A2.215,2.215,0,0,0,318.594,154.176Zm4.641-4.164h2.3a1.954,1.954,0,0,1,1.952,1.952.912.912,0,0,1-.911.911h-1.388a1.954,1.954,0,0,1-1.952-1.952v-.911Zm-3.6,0h2.3v.911a1.954,1.954,0,0,1-1.952,1.952h-1.388a.912.912,0,0,1-.911-.911A1.954,1.954,0,0,1,319.635,150.011Z" transform="translate(-288.88 -134.872)"/>
      <rect id="Rectángulo_403426" data-name="Rectángulo 403426" width="1.301" height="1.301" transform="translate(30.625 11.279)"/>
      <rect id="Rectángulo_403427" data-name="Rectángulo 403427" width="1.301" height="1.301" transform="translate(35.657 11.279)"/>
      <g id="Grupo_1189726" data-name="Grupo 1189726" transform="translate(3.075 19.13)">
        <path id="Trazado_878552" data-name="Trazado 878552" d="M183.519,463.783c-.909,0-1.825-.018-2.724-.053l.051-1.3c.882.035,1.781.052,2.673.052a65.107,65.107,0,0,0,6.764-.343l.136,1.294A66.393,66.393,0,0,1,183.519,463.783Zm-4.124-.123c-.939-.056-1.873-.133-2.776-.228l.136-1.294c.884.093,1.8.168,2.718.223Z" transform="translate(-164.342 -440.185)" fill="#fff"/>
        <rect id="Rectángulo_403428" data-name="Rectángulo 403428" width="1.301" height="4.548" transform="translate(37.44 14.401)" fill="#fff"/>
        <path id="Trazado_878553" data-name="Trazado 878553" d="M41.148,375.845a10.074,10.074,0,0,1-1.266-1.144l.951-.888a8.759,8.759,0,0,0,1.1,1Zm-2.195-2.3a9.87,9.87,0,0,1-1.425-3.1c-.773-.258-1.495-.536-2.151-.829l.53-1.189a23.217,23.217,0,0,0,2.366.892l.356.114.081.365a8.576,8.576,0,0,0,1.314,3.014Z" transform="translate(-35.377 -354.617)" fill="#fff"/>
        <path id="Trazado_878554" data-name="Trazado 878554" d="M96.635,294.748a6.769,6.769,0,0,1-2.4-.436l.459-1.218a5.471,5.471,0,0,0,1.939.352Zm-3.76-1.134a6.8,6.8,0,0,1-3.05-5.676h1.3A5.5,5.5,0,0,0,93.6,292.53Z" transform="translate(-85.092 -281.128)" fill="#fff"/>
        <path id="Trazado_878555" data-name="Trazado 878555" d="M175.372,210.891h-4.338v-1.3h4.338Zm-5.726,0h-1.475v-1.3h1.475Z" transform="translate(-156.628 -209.59)" fill="#fff"/>
      </g>
    </g>
  </g>
</svg>
