<svg xmlns="http://www.w3.org/2000/svg" width="84.208" height="84.207" viewBox="0 0 84.208 84.207">
  <g id="Grupo_1189745" data-name="Grupo 1189745" transform="translate(-768.051 -5447)">
    <g id="Grupo_1189033" data-name="Grupo 1189033" transform="translate(-104.675 5168.223)">
      <g id="Grupo_1188789" data-name="Grupo 1188789" transform="translate(583.726 -5835.222)">
        <rect id="Rectángulo_400898" data-name="Rectángulo 400898" width="75.49" height="75.489" rx="37.744" transform="translate(293.36 6118.358)" fill="#ffd907"/>
        <rect id="Rectángulo_400907" data-name="Rectángulo 400907" width="75.49" height="75.489" rx="37.744" transform="translate(293.36 6118.358)" fill="none"/>
        <g id="Grupo_1098742" data-name="Grupo 1098742" transform="translate(289 6114)">
          <g id="Rectángulo_400898-2" data-name="Rectángulo 400898" transform="translate(0)" fill="none" stroke="#fff" stroke-width="1" opacity="0.859">
            <rect width="84.208" height="84.207" rx="42.104" stroke="none"/>
            <rect x="0.5" y="0.5" width="83.208" height="83.207" rx="41.604" fill="none"/>
          </g>
          <g id="Rectángulo_400907-2" data-name="Rectángulo 400907" transform="translate(0)" fill="none" stroke="#0f1f33" stroke-linecap="round" stroke-width="1">
            <rect width="84.208" height="84.207" rx="42.104" stroke="none"/>
            <rect x="0.5" y="0.5" width="83.208" height="83.207" rx="41.604" fill="none"/>
          </g>
        </g>
      </g>
    </g>
    <g id="conejo" transform="translate(749.827 5464.684)">
      <g id="Grupo_1189741" data-name="Grupo 1189741" transform="translate(40.877 0.707)">
        <path id="Trazado_878581" data-name="Trazado 878581" d="M129.066,50.115l2.893,4.835,3.1,2.107.388-.38-2.3-6.7-1.541-3.352-1.258-.514-1.7.165-.563,1.666-.04.16Z" transform="translate(-120.469 -42.465)" fill="#ff9ba1"/>
        <path id="Trazado_878582" data-name="Trazado 878582" d="M129.993,69.333a27.963,27.963,0,0,1-6.743-9v-.307l-.175.519-.563,2.232V63.7a22.788,22.788,0,0,0,5.5,7.336.546.546,0,0,0,.631,0l1.613-1.583A.515.515,0,0,1,129.993,69.333Z" transform="translate(-115.449 -55.07)" fill="#ff7f87"/>
        <path id="Trazado_878583" data-name="Trazado 878583" d="M313.731,47.451l-.7-1.2-1.7-.141-1.556,1.6L307.6,52.332l-1.052,4.443,2.019,1.659h.309a22.786,22.786,0,0,0,5.5-7.335l.3-.842Z" transform="translate(-282.126 -42.465)" fill="#ff9ba1"/>
        <path id="Trazado_878584" data-name="Trazado 878584" d="M313.267,47.888c.124-.206.253-.395.384-.571l-.625-1.069-1.7-.141-1.556,1.6L307.6,52.332l-1.052,4.443,2.019,1.659h.309c.122-.1.241-.21.359-.317C310.237,55.019,311.943,50.076,313.267,47.888Z" transform="translate(-282.125 -42.465)" fill="#ff7f87"/>
        <path id="Trazado_878585" data-name="Trazado 878585" d="M354.2,10.528h-1.314l-2.616,2.829-.644,1.132.4.4h0c.074-.072.148-.141.223-.2a1.236,1.236,0,0,1,2,.673,17.043,17.043,0,0,0,5.618,9.553,1.518,1.518,0,0,0,2.47-1.038C360.7,19.821,360.535,12.1,354.2,10.528Z" transform="translate(-321.14 -10.242)" fill="#e39b74"/>
        <g id="Grupo_1189736" data-name="Grupo 1189736" transform="translate(22.188)">
          <path id="Trazado_878586" data-name="Trazado 878586" d="M289.566,12.149c1.031-2.02,2.393-3.713,4.175-4.363a10.288,10.288,0,0,0-2.488-.286c-5.352,0-7.606,8.69-8.382,12.884l.31.827,1.6.684.7-.183a54,54,0,0,1,3.33-8.6A4.875,4.875,0,0,1,289.566,12.149Z" transform="translate(-282.871 -7.5)" fill="#dd8858"/>
        </g>
        <path id="Trazado_878587" data-name="Trazado 878587" d="M94.041,10.528H92.659l-3.84,2.766a38.025,38.025,0,0,1-1.026,3.773,22.664,22.664,0,0,0-.354,3.993,21.108,21.108,0,0,0,.429,2.329,17.748,17.748,0,0,0,4.019-8.03,1.236,1.236,0,0,1,2-.673,4.688,4.688,0,0,1,.977,1.168,53.993,53.993,0,0,1,3.33,8.6h.672l1.6-.807.34-.52C100.11,19.383,98.24,12.06,94.041,10.528Z" transform="translate(-83.684 -10.242)" fill="#e39b74"/>
        <g id="Grupo_1189737" data-name="Grupo 1189737" transform="translate(0)">
          <path id="Trazado_878588" data-name="Trazado 878588" d="M58,7.786A4.693,4.693,0,0,0,56.377,7.5c-8.779,0-9.036,9.1-8.621,13.633a1.518,1.518,0,0,0,2.47,1.038,14.992,14.992,0,0,0,1.6-1.524C51.516,16.492,51.907,9.3,58,7.786Z" transform="translate(-47.641 -7.5)" fill="#dd8858"/>
        </g>
        <path id="Trazado_878589" data-name="Trazado 878589" d="M185.113,143.567h-1.906l-3.914,3.242-2.075,4.2s-1.644,5.666-2.108,6.815l5.772,2.617h4.071l7.4-3.443,1.632-1.074C192.958,149.722,189.489,144.874,185.113,143.567Z" transform="translate(-163.086 -130.732)" fill="#eaae8e"/>
        <path id="Trazado_878590" data-name="Trazado 878590" d="M138.146,153.457c.891-.671,1.811-1.371,1.811-1.371h1.619c1.126-5.972,4.527-10.607,8.79-11.88a8.268,8.268,0,0,0-2.373-.35c-5.461,0-10.037,5.42-11.249,12.707l.633.546Z" transform="translate(-128.34 -127.371)" fill="#e39b74"/>
        <path id="Trazado_878591" data-name="Trazado 878591" d="M179.464,399.083a25,25,0,0,0-5.568-8.137l-.921-.361-1.284.361s-2.767,1.8-2.861,1.8-4.811-.094-4.811-.094l-2.169-.939-3.608,4.675-1.038,3.2.519,1.3s.3.2.659.438h3.395l1.079-.69h7.389l1.024.69h6.75A1.589,1.589,0,0,0,179.464,399.083Z" transform="translate(-146.87 -354.45)" fill="#e39b74"/>
        <g id="Grupo_1189738" data-name="Grupo 1189738" transform="translate(6.569 36.496)">
          <path id="Trazado_878592" data-name="Trazado 878592" d="M121.655,402.552a26.671,26.671,0,0,1,4.568-7.138l-2.308-1h-.921a25,25,0,0,0-5.568,8.137,1.589,1.589,0,0,0,1.444,2.247H123.1A1.588,1.588,0,0,1,121.655,402.552Z" transform="translate(-117.282 -394.415)" fill="#dd8858"/>
        </g>
        <path id="Trazado_878593" data-name="Trazado 878593" d="M155.449,266.562a9.2,9.2,0,0,0-4.438,1.1l-.626.507H145.6l-.735-.507a9.033,9.033,0,0,0-3.6-1.065l-1.557.345-2.193,2.287s-.794,3.466-.774,3.537a27.618,27.618,0,0,0,2.262,3.8,35.771,35.771,0,0,0,4.266,1.887,19.117,19.117,0,0,1,2.862,1.132,10.171,10.171,0,0,0,1.858,1.155l1.766.2h0a9.031,9.031,0,0,0,3.521-1.411,6.088,6.088,0,0,1,2.986-1.057c4.008-.309,6.862-3.016,6.862-5.941C163.123,269.234,159.688,266.562,155.449,266.562Z" transform="translate(-128.336 -242.126)" fill="#fee6c1"/>
        <g id="Grupo_1189739" data-name="Grupo 1189739" transform="translate(4.415 24.436)">
          <path id="Trazado_878594" data-name="Trazado 878594" d="M107.872,279.162a5.241,5.241,0,0,0-2.647-1.268c-3.577-.578-6.026-3.455-5.808-6.463a5.9,5.9,0,0,1,3.548-4.832c-.276-.023-.556-.036-.84-.036-4.238,0-7.674,2.672-7.674,5.968,0,2.972,2.9,5.626,6.854,5.939a6.116,6.116,0,0,1,2.991,1.058,9.45,9.45,0,0,0,5.341,1.573,10.3,10.3,0,0,0,1.818-.161A7.875,7.875,0,0,1,107.872,279.162Z" transform="translate(-94.451 -266.562)" fill="#fcd79b"/>
        </g>
        <g id="Grupo_1189740" data-name="Grupo 1189740" transform="translate(17.795 30.258)">
          <path id="Trazado_878595" data-name="Trazado 878595" d="M238.156,328.284a3.407,3.407,0,0,1-1.858,2.442l.14,1.763a.731.731,0,0,0,.728.673h1.98a.731.731,0,0,0,.728-.673l.14-1.763A3.407,3.407,0,0,1,238.156,328.284Z" transform="translate(-236.298 -328.284)" fill="#fef0db"/>
        </g>
        <path id="Trazado_878596" data-name="Trazado 878596" d="M246.926,270.336l1.339,2.6h.94a3.681,3.681,0,0,0,1.712-2.715c0-1.18-1.308-1.266-2.955-1.27Z" transform="translate(-228.128 -244.292)" fill="#ff9ba1"/>
        <path id="Trazado_878597" data-name="Trazado 878597" d="M225.616,270.221c0-.86.7-1.139,1.712-1.229-.427-.038-.91-.042-1.423-.042-1.731,0-3.134.048-3.134,1.271a3.539,3.539,0,0,0,3.134,3.155,2.662,2.662,0,0,0,1.423-.44A3.681,3.681,0,0,1,225.616,270.221Z" transform="translate(-206.252 -244.289)" fill="#ff636e"/>
        <path id="Trazado_878598" data-name="Trazado 878598" d="M249.47,461.618H249l-2.1,2.5-.448,1.014.383.532H252.1A11.164,11.164,0,0,0,249.47,461.618Z" transform="translate(-227.702 -418.783)" fill="#fef0db"/>
        <path id="Trazado_878599" data-name="Trazado 878599" d="M212.544,453.031a3.236,3.236,0,0,0-2.114-.894c-1.779,0-3.421,1.837-4.746,4.939h4.229A11.162,11.162,0,0,1,212.544,453.031Z" transform="translate(-190.777 -410.196)" fill="#fee6c1"/>
      </g>
      <g id="Grupo_1189744" data-name="Grupo 1189744" transform="translate(40.172 0)">
        <path id="Trazado_878600" data-name="Trazado 878600" d="M42.249,303.29a.707.707,0,0,1-.467-1.24c4.816-4.22,11.392-3.1,11.669-3.045a.707.707,0,0,1-.25,1.393c-.061-.011-6.193-1.046-10.487,2.717A.705.705,0,0,1,42.249,303.29Z" transform="translate(-41.412 -270.645)"/>
        <path id="Trazado_878601" data-name="Trazado 878601" d="M83.74,333.9a.708.708,0,0,1-.59-1.1,12.235,12.235,0,0,1,7.323-4.8.707.707,0,0,1,.265,1.39,10.98,10.98,0,0,0-6.406,4.183A.707.707,0,0,1,83.74,333.9Z" transform="translate(-78.99 -297.057)"/>
        <path id="Trazado_878602" data-name="Trazado 878602" d="M349.8,303.29a.7.7,0,0,1-.466-.175c-4.309-3.776-10.425-2.728-10.486-2.717a.707.707,0,1,1-.251-1.392c.278-.05,6.854-1.175,11.669,3.045a.707.707,0,0,1-.467,1.24Z" transform="translate(-309.921 -270.645)"/>
        <path id="Trazado_878603" data-name="Trazado 878603" d="M348.771,333.9a.707.707,0,0,1-.592-.319,10.918,10.918,0,0,0-6.4-4.182.707.707,0,0,1,.264-1.39,12.235,12.235,0,0,1,7.323,4.8.708.708,0,0,1-.59,1.1Z" transform="translate(-312.805 -297.057)"/>
        <path id="Trazado_878604" data-name="Trazado 878604" d="M252,324.8a3.7,3.7,0,0,1-3.486-3.187.707.707,0,0,1,1.392-.251c.016.087.4,2.023,2.094,2.023a2.449,2.449,0,0,0,2.273-1.769.707.707,0,0,1,1.363.379A3.833,3.833,0,0,1,252,324.8Z" transform="translate(-228.848 -290.525)"/>
        <path id="Trazado_878605" data-name="Trazado 878605" d="M191.265,316.238a3.833,3.833,0,0,1-3.636-2.8.707.707,0,0,1,1.363-.379,2.449,2.449,0,0,0,2.273,1.769c1.558,0,2.007-1.638,2.082-1.968v-.82a.707.707,0,0,1,1.415,0v.892a.709.709,0,0,1-.011.124A3.7,3.7,0,0,1,191.265,316.238Z" transform="translate(-173.697 -281.962)"/>
        <path id="Trazado_878606" data-name="Trazado 878606" d="M219.113,261.45c1.621,0,3.842,0,3.842,1.978a3.842,3.842,0,1,1-7.684,0C215.271,261.45,217.491,261.45,219.113,261.45Zm0,4.426a2.87,2.87,0,0,0,2.427-2.448c0-.432-.567-.563-2.427-.563s-2.427.132-2.427.563A2.87,2.87,0,0,0,219.113,265.876Z" transform="translate(-198.755 -236.789)"/>
        <path id="Trazado_878607" data-name="Trazado 878607" d="M95.885,259.062a9.9,9.9,0,0,1,4.78,1.189.707.707,0,0,1,.327.848.525.525,0,0,0-.023.167,2.427,2.427,0,1,0,4.854,0,.527.527,0,0,0-.023-.167.707.707,0,0,1,.328-.847,9.9,9.9,0,0,1,4.78-1.189,9.556,9.556,0,0,1,5.861,1.9,6.048,6.048,0,0,1,2.521,4.779c0,3.4-3.3,6.322-7.515,6.646a5.4,5.4,0,0,0-2.639.934,10.558,10.558,0,0,1-11.481,0,5.425,5.425,0,0,0-2.646-.935c-4.209-.334-7.506-3.252-7.506-6.644C87.5,262.057,91.264,259.062,95.885,259.062Zm3.67,2.21a8.6,8.6,0,0,0-3.67-.795c-3.841,0-6.967,2.36-6.967,5.261,0,2.659,2.725,4.958,6.2,5.234a6.842,6.842,0,0,1,3.336,1.18,9.147,9.147,0,0,0,9.877,0,6.812,6.812,0,0,1,3.332-1.179c3.482-.268,6.209-2.568,6.209-5.236a4.667,4.667,0,0,0-1.974-3.662,8.138,8.138,0,0,0-4.992-1.6,8.6,8.6,0,0,0-3.67.795,3.842,3.842,0,1,1-7.684,0Z" transform="translate(-83.039 -234.626)"/>
        <path id="Trazado_878608" data-name="Trazado 878608" d="M95.885,259.062a9.9,9.9,0,0,1,4.78,1.189.707.707,0,0,1,.327.848.525.525,0,0,0-.023.167,2.427,2.427,0,1,0,4.854,0,.527.527,0,0,0-.023-.167.707.707,0,0,1,.328-.847,9.9,9.9,0,0,1,4.78-1.189,9.556,9.556,0,0,1,5.861,1.9,6.048,6.048,0,0,1,2.521,4.779c0,3.4-3.3,6.322-7.515,6.646a5.4,5.4,0,0,0-2.639.934,10.558,10.558,0,0,1-11.481,0,5.425,5.425,0,0,0-2.646-.935c-4.209-.334-7.506-3.252-7.506-6.644C87.5,262.057,91.264,259.062,95.885,259.062Zm3.67,2.21a8.6,8.6,0,0,0-3.67-.795c-3.841,0-6.967,2.36-6.967,5.261,0,2.659,2.725,4.958,6.2,5.234a6.842,6.842,0,0,1,3.336,1.18,9.147,9.147,0,0,0,9.877,0,6.812,6.812,0,0,1,3.332-1.179c3.482-.268,6.209-2.568,6.209-5.236a4.667,4.667,0,0,0-1.974-3.662,8.138,8.138,0,0,0-4.992-1.6,8.6,8.6,0,0,0-3.67.795,3.842,3.842,0,1,1-7.684,0Z" transform="translate(-83.039 -234.626)"/>
        <g id="Grupo_1189742" data-name="Grupo 1189742" transform="translate(17.792 30.258)">
          <path id="Trazado_878609" data-name="Trazado 878609" d="M231.364,320.784a.707.707,0,0,1,.7.58,2.72,2.72,0,0,0,1.409,1.906.708.708,0,0,1,.458.719l-.14,1.763a1.445,1.445,0,0,1-1.434,1.324h-1.98a1.446,1.446,0,0,1-1.434-1.324l-.14-1.763a.708.708,0,0,1,.458-.719,2.724,2.724,0,0,0,1.409-1.9A.708.708,0,0,1,231.364,320.784Zm1.109,3.573a3.487,3.487,0,0,1-1.109-1.072,3.484,3.484,0,0,1-1.115,1.076l.1,1.28,2,.021Z" transform="translate(-228.798 -320.784)"/>
        </g>
        <path id="Trazado_878610" data-name="Trazado 878610" d="M208.384,450.991h-9.492a.707.707,0,0,1-.651-.985c1.5-3.512,3.366-5.369,5.4-5.369s3.9,1.857,5.4,5.369a.707.707,0,0,1-.651.985ZM200,449.576h7.284c-1.135-2.282-2.41-3.524-3.642-3.524S201.131,447.294,200,449.576Z" transform="translate(-183.279 -402.696)"/>
        <path id="Trazado_878611" data-name="Trazado 878611" d="M130.952,386.914a.708.708,0,0,1,.478.186,25.52,25.52,0,0,1,5.734,8.366,2.3,2.3,0,0,1-2.088,3.247H112.083a2.3,2.3,0,0,1-2.088-3.247,25.518,25.518,0,0,1,5.734-8.366.707.707,0,0,1,.644-.166,6.782,6.782,0,0,1,2.267,1.01,9.147,9.147,0,0,0,9.877,0,6.783,6.783,0,0,1,2.27-1.012A.706.706,0,0,1,130.952,386.914Zm4.124,10.384a.881.881,0,0,0,.8-1.247,24.6,24.6,0,0,0-5.119-7.641,5.374,5.374,0,0,0-1.438.7,10.558,10.558,0,0,1-11.481,0,5.36,5.36,0,0,0-1.436-.7,24.6,24.6,0,0,0-5.118,7.641.881.881,0,0,0,.8,1.247Z" transform="translate(-103.222 -350.418)"/>
        <path id="Trazado_878612" data-name="Trazado 878612" d="M284.461,0A8.579,8.579,0,0,1,291.1,2.637c2.973,3.258,2.957,8.771,2.682,11.767a2.221,2.221,0,0,1-2.225,2.025,2.182,2.182,0,0,1-1.4-.5A17.868,17.868,0,0,1,284.3,5.982a.532.532,0,0,0-.522-.412.5.5,0,0,0-.329.122,4.013,4.013,0,0,0-.828.994,54.53,54.53,0,0,0-3.261,8.446.707.707,0,0,1-1.085.363,8.8,8.8,0,0,0-2.417-1.229.707.707,0,0,1-.48-.8C276.314,8.435,278.731,0,284.461,0Zm7.1,15.014a.814.814,0,0,0,.816-.739c.253-2.764.289-7.827-2.318-10.684a7.226,7.226,0,0,0-5.6-2.176c-4.638,0-6.783,7.766-7.573,11.715a10.112,10.112,0,0,1,1.411.691,48.024,48.024,0,0,1,3.116-7.868,5.422,5.422,0,0,1,1.125-1.341,1.941,1.941,0,0,1,3.144,1.056,16.47,16.47,0,0,0,5.377,9.163A.783.783,0,0,0,291.561,15.014Z" transform="translate(-253.186 0)"/>
        <path id="Trazado_878613" data-name="Trazado 878613" d="M305.714,57.282a.706.706,0,0,1-.527-.235,11.262,11.262,0,0,0-1.834-1.654.707.707,0,0,1-.264-.789,53.56,53.56,0,0,1,3.4-8.752,5.415,5.415,0,0,1,1.125-1.342,1.941,1.941,0,0,1,3.144,1.056,19.346,19.346,0,0,0,1.1,3.391.707.707,0,0,1-.012.588,23.516,23.516,0,0,1-5.672,7.565A.7.7,0,0,1,305.714,57.282Zm-1.124-2.73a12.616,12.616,0,0,1,1.166,1.038,22.294,22.294,0,0,0,4.675-6.372,20.9,20.9,0,0,1-1.054-3.337.532.532,0,0,0-.522-.412.5.5,0,0,0-.329.122,4.008,4.008,0,0,0-.828.994A50.99,50.99,0,0,0,304.59,54.552Z" transform="translate(-278.259 -39.898)"/>
        <path id="Trazado_878614" data-name="Trazado 878614" d="M121.211,57.28a.7.7,0,0,1-.46-.17,23.515,23.515,0,0,1-5.672-7.566.707.707,0,0,1-.012-.588,19.335,19.335,0,0,0,1.1-3.391,1.941,1.941,0,0,1,3.144-1.056,5.422,5.422,0,0,1,1.125,1.341,53.568,53.568,0,0,1,3.4,8.752.707.707,0,0,1-.264.789,11.27,11.27,0,0,0-1.835,1.654A.706.706,0,0,1,121.211,57.28Zm-4.718-8.065a22.294,22.294,0,0,0,4.676,6.372,12.631,12.631,0,0,1,1.166-1.038,51,51,0,0,0-3.108-7.968,4.014,4.014,0,0,0-.828-.994.5.5,0,0,0-.329-.122.532.532,0,0,0-.522.412A20.9,20.9,0,0,1,116.494,49.216Z" transform="translate(-107.95 -39.896)"/>
        <path id="Trazado_878615" data-name="Trazado 878615" d="M42.507,16.428A2.231,2.231,0,0,1,40.288,14.4c-.275-3-.291-8.509,2.682-11.767A8.579,8.579,0,0,1,49.613,0c2.377,0,4.417,1.467,6.063,4.361a.707.707,0,1,1-1.23.7c-1.376-2.419-3-3.645-4.833-3.645a7.226,7.226,0,0,0-5.6,2.176c-2.607,2.857-2.572,7.92-2.318,10.684a.8.8,0,0,0,.5.674.792.792,0,0,0,.82-.118A16.47,16.47,0,0,0,48.39,5.668a1.943,1.943,0,0,1,3.144-1.056,5.417,5.417,0,0,1,1.125,1.342,48.02,48.02,0,0,1,3.116,7.868,10.105,10.105,0,0,1,1.411-.691,35.562,35.562,0,0,0-1.421-5.171.707.707,0,1,1,1.328-.488,37.912,37.912,0,0,1,1.6,5.992.707.707,0,0,1-.48.8,8.8,8.8,0,0,0-2.416,1.229.707.707,0,0,1-1.085-.363,54.525,54.525,0,0,0-3.261-8.446,4.009,4.009,0,0,0-.828-.994.513.513,0,0,0-.5-.094.522.522,0,0,0-.35.384,17.868,17.868,0,0,1-5.859,9.944A2.21,2.21,0,0,1,42.507,16.428Z" transform="translate(-40.172 0)"/>
        <path id="Trazado_878616" data-name="Trazado 878616" d="M141.2,150.375a4.249,4.249,0,0,1-3.842-3.857,8.6,8.6,0,0,0-3.67-.795,8.735,8.735,0,0,0-3.455.7.707.707,0,0,1-.98-.765c1.3-7.83,6.214-13.3,11.947-13.3,3.7,0,7.168,2.305,9.5,6.325a.707.707,0,0,1-1.223.711c-2.076-3.572-5.094-5.621-8.281-5.621-4.741,0-8.869,4.432-10.319,10.921a10.4,10.4,0,0,1,2.807-.384,9.9,9.9,0,0,1,4.78,1.189.707.707,0,0,1,.327.847.527.527,0,0,0-.023.167,2.427,2.427,0,1,0,4.854,0,.525.525,0,0,0-.023-.167.707.707,0,0,1,.327-.848,9.9,9.9,0,0,1,4.78-1.189,10.4,10.4,0,0,1,2.805.383,20.28,20.28,0,0,0-.7-2.418.707.707,0,0,1,1.331-.48,22.087,22.087,0,0,1,1,3.862.707.707,0,0,1-.98.765,8.734,8.734,0,0,0-3.455-.7,8.6,8.6,0,0,0-3.67.795A4.249,4.249,0,0,1,141.2,150.375Z" transform="translate(-120.843 -119.872)"/>
        <g id="Grupo_1189743" data-name="Grupo 1189743" transform="translate(15.176 22.224)">
          <path id="Línea_673" data-name="Línea 673" d="M-6.793-4.081A.707.707,0,0,1-7.5-4.788v-2A.707.707,0,0,1-6.793-7.5a.707.707,0,0,1,.707.707v2A.707.707,0,0,1-6.793-4.081Z" transform="translate(7.5 7.5)"/>
          <path id="Línea_674" data-name="Línea 674" d="M-6.793-4.081A.707.707,0,0,1-7.5-4.788v-2A.707.707,0,0,1-6.793-7.5a.707.707,0,0,1,.707.707v2A.707.707,0,0,1-6.793-4.081Z" transform="translate(16.42 7.5)"/>
        </g>
      </g>
    </g>
  </g>
</svg>
