<svg xmlns="http://www.w3.org/2000/svg" width="84.208" height="84.207" viewBox="0 0 84.208 84.207">
  <g id="Grupo_1189748" data-name="Grupo 1189748" transform="translate(6909.124 6219.62)">
    <g id="Grupo_1189035" data-name="Grupo 1189035" transform="translate(-7781.85 -6498.396)">
      <g id="Grupo_1188789" data-name="Grupo 1188789" transform="translate(583.726 -5835.222)">
        <rect id="Rectángulo_400898" data-name="Rectángulo 400898" width="75.49" height="75.489" rx="37.744" transform="translate(293.36 6118.358)" fill="#ffd907"/>
        <rect id="Rectángulo_400907" data-name="Rectángulo 400907" width="75.49" height="75.489" rx="37.744" transform="translate(293.36 6118.358)" fill="none"/>
        <g id="Grupo_1098742" data-name="Grupo 1098742" transform="translate(289 6114)">
          <g id="Rectángulo_400898-2" data-name="Rectángulo 400898" transform="translate(0)" fill="none" stroke="#fff" stroke-width="1" opacity="0.859">
            <rect width="84.208" height="84.207" rx="42.104" stroke="none"/>
            <rect x="0.5" y="0.5" width="83.208" height="83.207" rx="41.604" fill="none"/>
          </g>
          <g id="Rectángulo_400907-2" data-name="Rectángulo 400907" transform="translate(0)" fill="none" stroke="#0f1f33" stroke-linecap="round" stroke-width="1">
            <rect width="84.208" height="84.207" rx="42.104" stroke="none"/>
            <rect x="0.5" y="0.5" width="83.208" height="83.207" rx="41.604" fill="none"/>
          </g>
        </g>
      </g>
    </g>
    <g id="enfermo" transform="translate(-6921.92 -6208.532)">
      <path id="Trazado_878600" data-name="Trazado 878600" d="M77.746,9.613a5.688,5.688,0,0,0-4.464-2.164,7.607,7.607,0,0,0-3.506.919l-.022.012c-.172.089-.344.184-.513.284l-.038.023-.016.009c-.176.105-.34.209-.5.317l-.039.027-.013.009c-.187.126-.357.246-.52.368A19.934,19.934,0,0,0,62.355,16.6a34.392,34.392,0,0,0-2.562,7.134,15.632,15.632,0,0,0-9.443-.56c-.116-.46-.239-.911-.365-1.348-.1-.356-.212-.712-.324-1.057-.175-.541-.361-1.076-.555-1.589a28.8,28.8,0,0,0-1.658-3.638q-.138-.253-.282-.5a19.019,19.019,0,0,0-4.9-5.712c-.162-.123-.331-.245-.517-.372l-.013-.009L41.7,8.914c-.161-.109-.325-.214-.5-.32l-.016-.01-.039-.024c-.168-.1-.34-.2-.509-.287l-.017-.009a7.62,7.62,0,0,0-3.506-.948h0a5.687,5.687,0,0,0-4.479,2.131,8.172,8.172,0,0,0-1.48,6.761c.793,3.949,3.33,5.7,5.784,7.4a17.241,17.241,0,0,1,4.553,4.056c.145.2.285.411.418.626a17.986,17.986,0,0,0-4.739,12.147,18.881,18.881,0,0,0,.291,3.36c-.8,1.006-1.654,2.977.326,5.778a3.721,3.721,0,0,0,.387,2.5,5.03,5.03,0,0,0,3.476,2.253c.8,1.461,3.679,5.118,12.637,5.4a1.028,1.028,0,0,0,.129.009h.021l.052,0,.052,0h.021a1,1,0,0,0,.131-.008c8.959-.221,11.867-3.856,12.674-5.311a5.031,5.031,0,0,0,3.493-2.228,3.722,3.722,0,0,0,.405-2.5,5.335,5.335,0,0,0,1.2-3.913,4.166,4.166,0,0,0-1.483-2.539,18.877,18.877,0,0,0,.2-2.684A18.181,18.181,0,0,0,67.618,29.7c.053-.114.107-.225.16-.331l.034-.067q.1-.19.191-.36l.015-.027.012-.022a11.316,11.316,0,0,1,.724-1.128,17.236,17.236,0,0,1,4.583-4.022c2.466-1.678,5.016-3.413,5.838-7.356a8.173,8.173,0,0,0-1.43-6.771Z" transform="translate(0 0)" fill="#6e0d28"/>
      <path id="Trazado_878601" data-name="Trazado 878601" d="M295.473,44.4s-.182-17.458,9.31-24.554c6.093-4.555,10.571.53,9.445,5.936-1.777,8.528-12.314,5.364-13.106,20.483C297.052,49.565,295.473,44.4,295.473,44.4Z" transform="translate(-236.058 -9.603)" fill="#fedb35"/>
      <path id="Trazado_878602" data-name="Trazado 878602" d="M302.646,36.2c-3.279-3.037-3.238-7.945-1.1-11.593a14.776,14.776,0,0,1,5.468-5.439,8.465,8.465,0,0,1,1.6-.614,8.3,8.3,0,0,0-3.828,1.714c-9.492,7.1-9.31,24.554-9.31,24.554s1.579,5.169,5.648,1.865c.239-4.552,1.361-7.445,2.861-9.5A7.613,7.613,0,0,1,302.646,36.2Z" transform="translate(-236.058 -10.026)" fill="#fab700"/>
      <path id="Trazado_878603" data-name="Trazado 878603" d="M328.916,65.864c-6.386,5.548-6.74,19.08-4.866,19.442s-.643-8.127,7.619-12.671C336.848,69.786,334.659,60.874,328.916,65.864Z" transform="translate(-260.678 -50.922)" fill="#f99d5f"/>
      <path id="Trazado_878604" data-name="Trazado 878604" d="M59.292,43.27s.31-17.457-9.131-24.622c-6.06-4.6-10.575.453-9.488,5.867,1.715,8.541,12.274,5.454,12.957,20.578,4.045,3.334,5.662-1.823,5.662-1.823Z" transform="translate(-8.515 -8.508)" fill="#fedb35"/>
      <path id="Trazado_878605" data-name="Trazado 878605" d="M100.6,35.062c3.3-3.013,3.3-7.921,1.184-11.584A14.778,14.778,0,0,0,96.356,18a8.466,8.466,0,0,0-1.591-.626,8.3,8.3,0,0,1,3.815,1.742c9.44,7.165,9.131,24.622,9.131,24.622s-1.617,5.158-5.662,1.823c-.206-4.554-1.307-7.455-2.792-9.521a7.6,7.6,0,0,0,1.344-.976Z" transform="translate(-56.934 -8.974)" fill="#fab700"/>
      <path id="Trazado_878606" data-name="Trazado 878606" d="M87.231,64.787c6.345,5.594,6.6,19.128,4.724,19.477s.7-8.122-7.526-12.726C79.27,68.651,81.524,59.756,87.231,64.787Z" transform="translate(-45.132 -49.94)" fill="#f99d5f"/>
      <path id="Trazado_878607" data-name="Trazado 878607" d="M130.119,176.663c-.034,9.321-7.217,16.851-16.044,16.819s-15.955-7.615-15.921-16.936,7.56-16.754,16.043-16.723S130.153,167.341,130.119,176.663Z" transform="translate(-59.96 -136.106)" fill="#fedb35"/>
      <path id="Trazado_878608" data-name="Trazado 878608" d="M130.12,194.855A17.028,17.028,0,0,0,122,180.265c9.382,5.928,5.954,18.762,5.954,18.762l-.062.074c-.159-.039-2.988,10.379-13.807,10.34s-13.792-10.515-13.792-10.515-3.334-12.859,6.091-18.718a17.029,17.029,0,0,0-8.227,14.531c-.034,9.321,7.094,16.9,15.921,16.936a15.868,15.868,0,0,0,14.068-8.766h0A17.533,17.533,0,0,0,130.12,194.855Z" transform="translate(-59.96 -154.298)" fill="#fab700"/>
      <path id="Trazado_878609" data-name="Trazado 878609" d="M123.89,340.076l-28.805-.105s-4.8,1.734-1.242,6.265c0,0-1.274,3.223,3.457,4.07,0,0,1.589,4.98,12.058,5.282v.005l.073,0,.073,0v-.005c10.471-.226,12.1-5.194,12.1-5.194,4.737-.813,3.486-4.044,3.486-4.044C128.678,341.845,123.89,340.076,123.89,340.076Z" transform="translate(-54.938 -296.88)" fill="#fbd395"/>
      <path id="Trazado_878610" data-name="Trazado 878610" d="M124.151,341.147c1.814.844.985,4.806-1.642,4.642,2.07,1.3.658,5.074-2.873,4.047,0,0,.132,5.091-9.36,5.124a.976.976,0,0,0-.24-.026c-10.959.425-10.769-5.172-10.769-5.172-3.538,1-4.923-2.784-2.843-4.067-2.628.144-3.428-3.824-1.608-4.654-.956.451-4.016,2.279-.976,6.151,0,0-1.274,3.223,3.457,4.07,0,0,1.589,4.98,12.058,5.282v.005l.073,0,.073,0v-.005c.857-.018,1.649-.071,2.391-.148h.011c.1-.011.207-.02.308-.032l0,0c8.044-.933,9.389-5.008,9.389-5.008,4.737-.813,3.486-4.044,3.486-4.044,3.069-3.849.022-5.7-.931-6.158Z" transform="translate(-54.935 -297.834)" fill="#f99d5f"/>
      <path id="Trazado_878611" data-name="Trazado 878611" d="M227.959,125.179a2.981,2.981,0,0,0,.295-3.641c-.044-.062-.092-.123-.145-.183-.019-.022-.04-.044-.061-.066-.036-.038-.075-.078-.118-.118-.024-.023-.051-.045-.077-.067l-.008-.007c-.042-.035-.085-.069-.131-.1s-.07-.049-.107-.073-.1-.06-.148-.088-.081-.043-.125-.064-.111-.049-.169-.072-.091-.035-.136-.049c-.077-.025-.147-.041-.2-.054l-.011,0c-.041-.01-.082-.02-.126-.028-.082-.015-.168-.026-.277-.036s-.195-.013-.289-.014q-.093,0-.192.005c-1.708.1-4.627,2.417-5.94,3.534.085.082,3.127,4.48,5.285,4.479s2.4-1.221,2.477-1.678a2.265,2.265,0,0,0-.154-1.3q.091-.086.175-.174c.063-.066.123-.134.18-.2Z" transform="translate(-168.698 -101.025)" fill="#6e0d28"/>
      <path id="Trazado_878612" data-name="Trazado 878612" d="M225.878,136.406c-1.479.086-4.693-2.561-4.653-2.593,0,0,4.093-3.651,5.867-3.754a1.515,1.515,0,0,1,1.422.588,2.017,2.017,0,0,1-.382,2.542,4.448,4.448,0,0,1-.879.7l.068.042a1.309,1.309,0,0,1,.524,1.264c-.056.319-.3.889-1.3,1.123A3.934,3.934,0,0,1,225.878,136.406Z" transform="translate(-169.795 -109.54)" fill="#fedb35"/>
      <path id="Trazado_878613" data-name="Trazado 878613" d="M241.466,130.682a1.438,1.438,0,0,0-1.145-.588c.027.022,1.276.553.395,1.921a5.226,5.226,0,0,1-2.055,1.592c0,.02,1.437.366,1.052,1.471-.249.715-1.6,1.062-3.976-.022a6.571,6.571,0,0,0,3.092,1.385,3.934,3.934,0,0,0,.667-.092c1-.234,1.242-.8,1.3-1.123a1.309,1.309,0,0,0-.524-1.264l-.068-.042a4.442,4.442,0,0,0,.879-.7A2.017,2.017,0,0,0,241.466,130.682Z" transform="translate(-182.747 -109.574)" fill="#fab700"/>
      <path id="Trazado_878614" data-name="Trazado 878614" d="M173.735,238.186a3.475,3.475,0,0,0,2.484-2.6c-.014-.773-.69-.766-.952-.46-.607,1.038-2.955,2-4.835,1.767-.628-.077-1.052.633-.251,1.228A5.191,5.191,0,0,0,173.735,238.186Z" transform="translate(-123.848 -203.134)" fill="#6e0d28"/>
      <path id="Trazado_878615" data-name="Trazado 878615" d="M279.257,238.529a3.475,3.475,0,0,1-2.526-2.564c0-.773.677-.777.944-.475.624,1.028,2.987,1.948,4.863,1.688.627-.087,1.062.616.271,1.224A5.19,5.19,0,0,1,279.257,238.529Z" transform="translate(-219.331 -203.469)" fill="#6e0d28"/>
      <path id="Trazado_878616" data-name="Trazado 878616" d="M195.056,361.406c-.877,1.617-5.481,2.962-7.039-.192-.124.009-.248.016-.373.018s-.236,0-.353,0c-1.42,3.218-6.078,2.074-7.024.5,0,0-.452-.178-.2.683a2.811,2.811,0,0,0,2.464,1.957c.049.011-8.149,7.728,5.246,7.728s5.084-7.942,5.132-7.955a2.811,2.811,0,0,0,2.376-2.062C195.5,361.209,195.056,361.406,195.056,361.406Z" transform="translate(-132.995 -315.839)" fill="#6e0d28"/>
      <path id="Trazado_878617" data-name="Trazado 878617" d="M226.714,329.439c0,.718-1.909,2.533-3.456,2.527s-3.44-1.835-3.438-2.552,1.641-1.293,3.452-1.287S226.717,328.721,226.714,329.439Z" transform="translate(-168.541 -286.31)" fill="#ea528b"/>
      <path id="Trazado_878618" data-name="Trazado 878618" d="M144.26,350.435c-.022-.477-1.152-.777-2.5-.747-1.349.055-2.44.444-2.417.921s1.152.777,2.5.747C143.222,351.279,144.292,350.861,144.26,350.435Z" transform="translate(-96.722 -305.551)" fill="#ea528b"/>
      <path id="Trazado_878619" data-name="Trazado 878619" d="M317.965,349.368c-.022-.477-1.152-.777-2.5-.747-1.348.055-2.44.444-2.417.921s1.152.777,2.5.747C316.927,350.212,318,349.793,317.965,349.368Z" transform="translate(-251.746 -304.598)" fill="#ea528b"/>
      <path id="Trazado_878620" data-name="Trazado 878620" d="M235.531,334.349c-.015-.306-.74-.5-1.6-.48-.867.036-1.568.285-1.554.592s.74.5,1.6.48C234.864,334.892,235.551,334.623,235.531,334.349Z" transform="translate(-179.744 -291.433)" fill="#fff"/>
      <path id="Trazado_878621" data-name="Trazado 878621" d="M219.694,193.248c0,.39-.828.7-1.847.7s-1.843-.323-1.842-.714.828-.7,1.847-.7S219.7,192.858,219.694,193.248Z" transform="translate(-165.137 -165.3)" fill="#fab700"/>
      <path id="Trazado_878622" data-name="Trazado 878622" d="M198.7,185.608c0,.255-.54.459-1.2.457s-1.2-.211-1.2-.465.54-.459,1.2-.457S198.7,185.354,198.7,185.608Z" transform="translate(-147.548 -158.703)" fill="#fab700"/>
      <g id="Grupo_1189747" data-name="Grupo 1189747" transform="translate(37.824 26.322)">
        <path id="Trazado_878623" data-name="Trazado 878623" d="M325.562,184.616a25.374,25.374,0,0,1,4.195,3.883l.7-.644A11.354,11.354,0,0,0,325.562,184.616Z" transform="translate(-300.735 -184.554)" fill="#6e0d28"/>
        <path id="Trazado_878624" data-name="Trazado 878624" d="M127.992,184.044a25.371,25.371,0,0,0-4.223,3.852l-.693-.649A11.357,11.357,0,0,1,127.992,184.044Z" transform="translate(-120.024 -184.044)" fill="#6e0d28"/>
        <path id="Trazado_878625" data-name="Trazado 878625" d="M361.516,336.354s2.839-.667,4.333,1.224l.37-.987a2.917,2.917,0,0,0-1.772-.867A4.388,4.388,0,0,0,361.516,336.354Z" transform="translate(-332.822 -319.375)" fill="#6e0d28"/>
        <path id="Trazado_878626" data-name="Trazado 878626" d="M99.4,335.4s-2.834-.687-4.341,1.192L94.7,335.6a2.916,2.916,0,0,1,1.778-.854,4.388,4.388,0,0,1,2.926.651Z" transform="translate(-94.698 -318.506)" fill="#6e0d28"/>
        <path id="Trazado_878627" data-name="Trazado 878627" d="M287.788,282.1l.651-.651a.719.719,0,0,0-1.017-1.017l-.651.651-.651-.651a.719.719,0,1,0-1.017,1.017l.651.651-.651.651a.719.719,0,1,0,1.017,1.017l.651-.651.651.651a.719.719,0,0,0,1.017-1.017Z" transform="translate(-264.44 -269.88)" fill="#6e0d28"/>
        <path id="Trazado_878628" data-name="Trazado 878628" d="M193.688,282.1l.651-.651a.719.719,0,0,0-1.017-1.017l-.651.651-.651-.651A.719.719,0,1,0,191,281.451l.651.651-.651.651a.719.719,0,1,0,1.017,1.017l.651-.651.651.651a.719.719,0,0,0,1.017-1.017Z" transform="translate(-180.459 -269.88)" fill="#6e0d28"/>
        <path id="Trazado_878629" data-name="Trazado 878629" d="M185.675,416.351a2.251,2.251,0,0,0-1.49-1.394,2.5,2.5,0,0,0-1.666-1.387l-.779-2.93a.861.861,0,0,0-.158-.315c-.063-.079-1.589-1.943-5.258-1.943s-4.887,1.825-5.014,2.033a.863.863,0,0,0-.1.225l-.779,2.93a2.5,2.5,0,0,0-1.666,1.387,2.251,2.251,0,0,0-1.49,1.394,1.986,1.986,0,0,0,.487,2.155.86.86,0,0,0,.576.233h16.27a.86.86,0,0,0,.576-.233A1.986,1.986,0,0,0,185.675,416.351Z" transform="translate(-159.358 -384.257)" fill="#6e0d28"/>
      </g>
      <path id="Trazado_878630" data-name="Trazado 878630" d="M178.27,421.5a1.707,1.707,0,0,0-1.705,1.351,1.312,1.312,0,0,0-1.055,2.168h16.243a1.312,1.312,0,0,0-1.055-2.168,1.707,1.707,0,0,0-1.705-1.351l-.931-3.5s-1.288-1.618-4.584-1.618S179.2,418,179.2,418Z" transform="translate(-128.69 -365.075)" fill="#3aaa35"/>
      <path id="Trazado_878631" data-name="Trazado 878631" d="M232.671,379.451a3.028,3.028,0,0,1-1.965-.663s.034,2.169-.528,2.167-.512-2.181-.512-2.181a3.069,3.069,0,0,1-2.08.788c.077.812-.208,2.462,2.562,2.472s2.536-1.717,2.632-2.585Z" transform="translate(-175.472 -331.51)" fill="#fff"/>
    </g>
  </g>
</svg>
