<svg xmlns="http://www.w3.org/2000/svg" width="84.208" height="84.207" viewBox="0 0 84.208 84.207">
  <g id="Grupo_1189749" data-name="Grupo 1189749" transform="translate(6582.124 6219.62)">
    <g id="Grupo_1189036" data-name="Grupo 1189036" transform="translate(-7454.85 -6498.396)">
      <g id="Grupo_1188789" data-name="Grupo 1188789" transform="translate(583.726 -5835.222)">
        <rect id="Rectángulo_400898" data-name="Rectángulo 400898" width="75.49" height="75.489" rx="37.744" transform="translate(293.36 6118.358)" fill="#ffd907"/>
        <rect id="Rectángulo_400907" data-name="Rectángulo 400907" width="75.49" height="75.489" rx="37.744" transform="translate(293.36 6118.358)" fill="none"/>
        <g id="Grupo_1098742" data-name="Grupo 1098742" transform="translate(289 6114)">
          <g id="Rectángulo_400898-2" data-name="Rectángulo 400898" transform="translate(0)" fill="none" stroke="#fff" stroke-width="1" opacity="0.859">
            <rect width="84.208" height="84.207" rx="42.104" stroke="none"/>
            <rect x="0.5" y="0.5" width="83.208" height="83.207" rx="41.604" fill="none"/>
          </g>
          <g id="Rectángulo_400907-2" data-name="Rectángulo 400907" transform="translate(0)" fill="none" stroke="#0f1f33" stroke-linecap="round" stroke-width="1">
            <rect width="84.208" height="84.207" rx="42.104" stroke="none"/>
            <rect x="0.5" y="0.5" width="83.208" height="83.207" rx="41.604" fill="none"/>
          </g>
        </g>
      </g>
    </g>
    <g id="conejo_1_" data-name="conejo (1)" transform="translate(-6565.091 -6206.219)">
      <path id="Trazado_878632" data-name="Trazado 878632" d="M97.422,236.25c-.33,5.584-5.6,6.992-11.207,7.353a16.357,16.357,0,0,1-3.754,1.417c-3.074.729-6.116.006-6.554-1.829-.363-1.53,1.273-3.268,3.79-4.2a8.25,8.25,0,0,1-3.117-3.876c-2.225,4.019-8.064,7.754-12.374,9.18-3.151,1.042-5.259,1.627-6.382.04-2.039-2.885,1.508-5.5,4.508-7.5a14.194,14.194,0,0,1-.325-13.771c.553.015,1.261-7.282,12.392-7.321C84.516,214.975,98.237,222.366,97.422,236.25Z" transform="translate(-51.335 -193.134)" fill="#ece2e2"/>
      <path id="Trazado_878633" data-name="Trazado 878633" d="M442.879,364.5a4.943,4.943,0,0,1-7.009,4.484,6.615,6.615,0,0,0,1.248-3.661,18.651,18.651,0,0,0-.484-5.586A4.941,4.941,0,0,1,442.879,364.5Z" transform="translate(-391.031 -322.205)" fill="#cec4c4"/>
      <path id="Trazado_878634" data-name="Trazado 878634" d="M123.524,9.245c-4.253,1.728-8.833,5.586-10.772,9.6a10.1,10.1,0,0,0-7.292-.23C109.032,11.6,119.941,5.813,123.524,9.245Z" transform="translate(-94.611 -7.019)" fill="#cec4c4"/>
      <path id="Trazado_878635" data-name="Trazado 878635" d="M259.936,290.7c-.213,3.6-2.479,5.562-5.953,6.545a26.653,26.653,0,0,1-5.255.809c-4.733,2.536-9.715,2.065-10.307-.413-.363-1.53,1.273-3.268,3.79-4.2-1.4-.933-3.57-2.841-3.673-4.384-.609-9.137,8.219-14.29,16.148-12.219A17.483,17.483,0,0,1,259.936,290.7Z" transform="translate(-213.849 -247.588)" fill="#fff6f6"/>
      <path id="Trazado_878636" data-name="Trazado 878636" d="M105.551,215.988c-2.323,6.087-7.468,10.912-13.971,10.646a12.889,12.889,0,0,1,1.251-3.3c.553.015,1.261-7.282,12.392-7.321.109-.008.218-.016.328-.023Z" transform="translate(-82.159 -193.406)" fill="#cec4c4"/>
      <path id="Trazado_878637" data-name="Trazado 878637" d="M30.2,25.221c1.4,7.168-3.783,11.716-10.682,11.716C13.715,36.937,8,36.313,8,30.5c0-4.792,5.011-10.183,10.026-11.922a10.267,10.267,0,0,1,7.292.229C28.863,11.48,40.566,5.423,43.77,9.518c3.158,4.036-5.415,14.067-13.566,15.7Z" transform="translate(-7.177 -6.989)" fill="#ece2e2"/>
      <path id="Trazado_878638" data-name="Trazado 878638" d="M377.064,304.5c-.213,3.6-2.479,5.562-5.953,6.545.647-3.613,3-4.273,2.776-5.888-.329-2.358-7.87-3.672-3.706-8.979a15.91,15.91,0,0,0,2.273-3.068,6.443,6.443,0,0,1,.408-1.349A17.435,17.435,0,0,1,377.064,304.5Z" transform="translate(-330.976 -261.382)" fill="#ece2e2"/>
      <path id="Trazado_878639" data-name="Trazado 878639" d="M75.461,407.185a26.718,26.718,0,0,1-11.327,7.594c-3.151,1.042-5.259,1.627-6.382.04a3,3,0,0,1-.611-1.729,13.531,13.531,0,0,0,1.578-.125,23.959,23.959,0,0,0,4.251-1.048c.406-.2.283-.134,5.048-3.574,1.709-1.231,3.038-2.085,6.873-2.611.278-.037.431.014.487.428A8.726,8.726,0,0,1,75.461,407.185Z" transform="translate(-51.262 -363.621)" fill="#cec4c4"/>
      <path id="Trazado_878640" data-name="Trazado 878640" d="M51.256,125.2c-.042.654-.716,1.044-1.174,1.514-1.253,1.287-.693,2.83-5.258,4.751a3.283,3.283,0,0,1,.3-2.6c.573-.864,1.652-1.233,2.472-1.816A12.634,12.634,0,0,1,51.256,125.2Z" transform="translate(-40.094 -111.956)" fill="#fff"/>
      <circle id="Elipse_11524" data-name="Elipse 11524" cx="1.44" cy="1.44" r="1.44" transform="translate(7.613 18.529)"/>
      <path id="Trazado_878641" data-name="Trazado 878641" d="M209.84,34.211c.737-.7,1.342-.96,5.667-3.247.841-.445,1.907-.881,2.682-.329.845.6.652,1.974-.023,2.761a18.543,18.543,0,0,1-2.463,1.887c-1.419,1.18-2.15,3.011-3.5,4.272-1.76,1.646-4.295,2.094-6.675,2.47-.332.052.094-2.111.154-2.251a5.458,5.458,0,0,1,1.413-1.667c1.108-1.158,1.577-2.784,2.743-3.9Z" transform="translate(-184.274 -26.889)" fill="#ffa4b8"/>
      <path id="Trazado_878642" data-name="Trazado 878642" d="M288.841,289.612a.824.824,0,0,1-.246-1.608,9.052,9.052,0,0,1,2.716-.415.823.823,0,1,1,0,1.646A10.836,10.836,0,0,0,288.841,289.612Z" transform="translate(-258.391 -257.641)"/>
      <path id="Trazado_878643" data-name="Trazado 878643" d="M51.063,38.3A5.66,5.66,0,0,0,46.4,36.566a.246.246,0,0,1-.262-.179,19.845,19.845,0,0,0-9.1-11.09,25.034,25.034,0,0,0-13.009-3.568,13.16,13.16,0,0,0-.07-2.872C32.2,16.689,40.884,6.678,37.241,2.022,35.787.163,32.749-.1,29.059,1.286,24.628-1.87,14.049,3.932,10.269,10.93,5.255,12.81,0,18.273,0,23.515s4.122,6.855,9.385,7.177A15.159,15.159,0,0,0,9.9,43.443c-3.2,2.2-6.357,5.021-4.086,8.231,1.6,2.261,4.668,1.14,7.313.266a25.441,25.441,0,0,0,6.917-3.563,21.043,21.043,0,0,0,5.1-4.71,8.988,8.988,0,0,0,1.628,2C21.861,48.314,23.069,53,28.756,53A14.562,14.562,0,0,0,35.1,51.279c3.444-.234,7.643-.908,10-3.517A5.769,5.769,0,0,0,51.063,38.3ZM1.646,23.515c0-5.4,7.051-11.673,12.345-11.673,2.843,0,3.652.891,4.276.793,1.017-.159.54-1.773,4.433-5.4a.823.823,0,1,0-1.121-1.2,19.736,19.736,0,0,0-3.829,4.754,11.314,11.314,0,0,0-5.163-.48c3.4-4.854,10.4-9.051,14.457-8.13a23.232,23.232,0,0,0-2.8,1.7.823.823,0,0,0,.947,1.346C31.92.486,38.853.915,35.632,7.514c-2.2,4.5-8.024,8.958-12.767,9.91a.824.824,0,0,0-.624.563c-.143.46.194.724.194,2.723,0,5.524-5.076,8.414-10.09,8.414-6.605,0-10.7-.938-10.7-5.609ZM51.022,42.458a4.13,4.13,0,0,1-4.929,3.868,11.046,11.046,0,0,0,.816-5.737.823.823,0,1,0-1.642.114c.356,5.121-1.164,8.344-10.428,8.943a29.737,29.737,0,0,1-3.9,1.438c-2.717.644-5.272,0-5.564-1.218-.232-.98,1.021-2.294,2.9-3.091a7.408,7.408,0,0,0,2.178.9.824.824,0,0,0,.246-1.608,7.381,7.381,0,0,1-4.666-4.333.826.826,0,0,0-.049-.123,7.446,7.446,0,0,1,.346-5.994.823.823,0,1,0-1.464-.753,9.1,9.1,0,0,0-.526,7.037c-1.172,1.97-2.72,3.3-5.257,5.14a23.8,23.8,0,0,1-6.469,3.334c-3.256,1.077-4.733,1.363-5.452.346a2.03,2.03,0,0,1-.428-1.607c.4-2.152,4.471-4.435,4.867-4.86.989-1.062-1.724-2.076-1.724-7.725a12.891,12.891,0,0,1,1.291-5.771c.4.007.792.01,1.178.01,5.062,0,10.024-2.553,11.378-7.382,7.722-.374,18.1,4.478,20.845,13.479A1.892,1.892,0,0,0,46.595,38.2a4.094,4.094,0,0,1,4.427,4.257Z" transform="translate(0 0)"/>
      <path id="Trazado_878644" data-name="Trazado 878644" d="M260.823,309.233a.823.823,0,1,1,.807-.663A.824.824,0,0,1,260.823,309.233Z" transform="translate(-233.253 -275.582)"/>
    </g>
  </g>
</svg>
