<svg xmlns="http://www.w3.org/2000/svg" width="84.208" height="84.207" viewBox="0 0 84.208 84.207">
  <g id="Grupo_1189752" data-name="Grupo 1189752" transform="translate(5914 6219.62)">
    <g id="Grupo_1189038" data-name="Grupo 1189038" transform="translate(-6786.726 -6498.396)">
      <g id="Grupo_1188789" data-name="Grupo 1188789" transform="translate(583.726 -5835.222)">
        <rect id="Rectángulo_400898" data-name="Rectángulo 400898" width="75.49" height="75.489" rx="37.744" transform="translate(293.36 6118.358)" fill="#ffd907"/>
        <rect id="Rectángulo_400907" data-name="Rectángulo 400907" width="75.49" height="75.489" rx="37.744" transform="translate(293.36 6118.358)" fill="none"/>
        <g id="Grupo_1098742" data-name="Grupo 1098742" transform="translate(289 6114)">
          <g id="Rectángulo_400898-2" data-name="Rectángulo 400898" transform="translate(0)" fill="none" stroke="#fff" stroke-width="1" opacity="0.859">
            <rect width="84.208" height="84.207" rx="42.104" stroke="none"/>
            <rect x="0.5" y="0.5" width="83.208" height="83.207" rx="41.604" fill="none"/>
          </g>
          <g id="Rectángulo_400907-2" data-name="Rectángulo 400907" transform="translate(0)" fill="none" stroke="#0f1f33" stroke-linecap="round" stroke-width="1">
            <rect width="84.208" height="84.207" rx="42.104" stroke="none"/>
            <rect x="0.5" y="0.5" width="83.208" height="83.207" rx="41.604" fill="none"/>
          </g>
        </g>
      </g>
    </g>
    <g id="Page-1" transform="translate(-5894.999 -6200.85)">
      <g id="_031---Small-Animal-Vet" data-name="031---Small-Animal-Vet" transform="translate(-0.001 -0.001)">
        <g id="Icons" transform="translate(0.814 0.812)">
          <path id="Shape" d="M31.728,31.394a8.968,8.968,0,0,0-2.141,14.118,7.491,7.491,0,0,1-2.011.269H23.912a8.142,8.142,0,0,1-11.627,0H8.621A7.609,7.609,0,0,1,1,38.266c-.033-3.021.969-5.4,3.3-6.758a1.593,1.593,0,0,0,.8-1.295A19.5,19.5,0,0,1,7.692,21C.568,15.02.829,4.924,1.106,1.741a.829.829,0,0,1,1.091-.7c8.345,2.785,10.821,11.106,11.537,15.242a14.682,14.682,0,0,1,4.364-.628,14.682,14.682,0,0,1,4.364.627C23.178,12.146,25.654,3.824,34,1.04a.829.829,0,0,1,1.091.7c.277,3.183.537,13.271-6.579,19.256A19.456,19.456,0,0,1,31.1,30.212a1.561,1.561,0,0,0,.628,1.181Z" transform="translate(-0.999 -0.996)" fill="#ffe0b2"/>
          <path id="Shape-2" data-name="Shape" d="M36.489,30.212A19.456,19.456,0,0,0,33.9,21c7.116-5.984,6.855-16.072,6.579-19.256a.829.829,0,0,0-1.091-.7c-.483.163-.941.344-1.384.541a.84.84,0,0,1,.033.163c.259,2.973.5,11.969-5.266,18.023a2.443,2.443,0,0,0-.494,2.723,20.955,20.955,0,0,1,1.77,7.723,1.561,1.561,0,0,0,.627,1.181,8.968,8.968,0,0,0-2.141,14.118,7.491,7.491,0,0,1-2.011.269h2.443a7.491,7.491,0,0,0,2.011-.269,8.968,8.968,0,0,1,2.141-14.118,1.561,1.561,0,0,1-.627-1.181Z" transform="translate(-6.388 -0.996)" fill="#dfc49c"/>
          <path id="Shape-3" data-name="Shape" d="M20.5,58.341A8.013,8.013,0,0,0,27.535,56H25.092A8.131,8.131,0,0,1,20.5,58.341Z" transform="translate(-4.623 -11.216)" fill="#dfc49c"/>
          <path id="Shape-4" data-name="Shape" d="M15.885,36.344c0,1.8-1.091,3.257-2.443,3.257S11,38.143,11,36.344a4.079,4.079,0,0,1,.334-1.637A6.182,6.182,0,0,0,14.6,33.47,3.547,3.547,0,0,1,15.885,36.344Z" transform="translate(-2.857 -7.03)" fill="#37474f"/>
          <path id="Shape-5" data-name="Shape" d="M31.885,36.344c0,1.8-1.091,3.257-2.443,3.257S27,38.143,27,36.344a3.547,3.547,0,0,1,1.286-2.874,6.182,6.182,0,0,0,3.265,1.238A4.079,4.079,0,0,1,31.885,36.344Z" transform="translate(-5.83 -7.03)" fill="#37474f"/>
          <path id="Shape-6" data-name="Shape" d="M50.912,45.956a8.956,8.956,0,1,1-13.239-7.873h.008a8.96,8.96,0,0,1,13.231,7.873Z" transform="translate(-6.945 -7.686)" fill="#f5f5f5"/>
          <path id="Shape-7" data-name="Shape" d="M43.718,37a9,9,0,0,0-1.238.09A8.946,8.946,0,0,1,42.5,54.819,8.952,8.952,0,1,0,43.718,37Z" transform="translate(-8.707 -7.686)" fill="#cfd8dc"/>
          <path id="Shape-8" data-name="Shape" d="M46.77,45.071H44.328V42.628a1.628,1.628,0,0,0-3.257,0v2.443H38.628a1.628,1.628,0,0,0,0,3.257h2.443V50.77a1.628,1.628,0,1,0,3.257,0V48.328H46.77a1.628,1.628,0,1,0,0-3.257Z" transform="translate(-7.688 -8.429)" fill="#f44335"/>
        </g>
        <g id="Layer_2">
          <path id="Shape-9" data-name="Shape" d="M24.956,51.742l-1.886-.629V48.377a4.1,4.1,0,0,0,2.2-.986.808.808,0,0,0,0-1.14.819.819,0,0,0-1.146-.024,2.818,2.818,0,0,1-1.872.588,2.826,2.826,0,0,1-1.873-.584.814.814,0,0,0-1.14,1.159,4.1,4.1,0,0,0,2.2.986v2.736l-1.886.629a.815.815,0,1,0,.515,1.547l2.185-.73,2.185.729a.815.815,0,1,0,.515-1.547Z" transform="translate(-4.344 -9.361)"/>
          <path id="Shape-10" data-name="Shape" d="M16.58,34.211a.8.8,0,0,0-.119-.969.814.814,0,0,0-1.146-.006A3.505,3.505,0,0,1,15,33.5l-.006,0a5.374,5.374,0,0,1-3.176,1.124.814.814,0,0,0-.814.814.791.791,0,0,0,.147.44A5.023,5.023,0,0,0,11,37.072c0,2.28,1.431,4.071,3.257,4.071s3.257-1.791,3.257-4.071A4.683,4.683,0,0,0,16.58,34.211Zm-2.324,5.3c-.883,0-1.628-1.119-1.628-2.443a3.338,3.338,0,0,1,.133-.888,6.938,6.938,0,0,0,2.558-.943,3.079,3.079,0,0,1,.566,1.831C15.885,38.4,15.139,39.514,14.257,39.514Z" transform="translate(-2.857 -6.945)"/>
          <path id="Shape-11" data-name="Shape" d="M33.513,37.071a5.023,5.023,0,0,0-.147-1.188.791.791,0,0,0,.147-.44.814.814,0,0,0-.814-.814,5.374,5.374,0,0,1-3.17-1.121l-.011-.008c-.192-.147-.306-.252-.317-.262a.814.814,0,0,0-1.15,0,.8.8,0,0,0-.12.972A4.683,4.683,0,0,0,27,37.071c0,2.28,1.431,4.071,3.257,4.071s3.257-1.791,3.257-4.071Zm-3.257,2.443c-.883,0-1.628-1.119-1.628-2.443a3.079,3.079,0,0,1,.57-1.831,6.939,6.939,0,0,0,2.558.943,3.338,3.338,0,0,1,.129.888C31.885,38.395,31.139,39.513,30.257,39.513Z" transform="translate(-5.83 -6.945)"/>
          <path id="Shape-12" data-name="Shape" d="M11.885,48H7.814a.814.814,0,0,0,0,1.628h4.071a.814.814,0,0,0,0-1.628Z" transform="translate(-2.114 -9.732)"/>
          <path id="Shape-13" data-name="Shape" d="M12,51.041l-2.443.814a.815.815,0,0,0,.515,1.547l2.443-.814A.815.815,0,1,0,12,51.041Z" transform="translate(-2.485 -10.289)"/>
          <path id="Shape-14" data-name="Shape" d="M13.108,18.979c-2.49-8.29-6.61-11.661-6.785-11.8A.814.814,0,1,0,5.3,8.448c.039.032,3.916,3.237,6.244,11a.814.814,0,0,0,.78.581.833.833,0,0,0,.234-.034.814.814,0,0,0,.546-1.014Z" transform="translate(-1.742 -2.114)"/>
          <path id="Shape-15" data-name="Shape" d="M31.581,19.995a.8.8,0,0,0,.234.034.814.814,0,0,0,.78-.581c2.323-7.743,6.188-10.952,6.243-11a.814.814,0,0,0-1.019-1.27c-.174.14-4.3,3.511-6.785,11.8a.814.814,0,0,0,.546,1.014Z" transform="translate(-6.573 -2.116)"/>
          <path id="Shape-16" data-name="Shape" d="M36.824,30.311a9.705,9.705,0,0,0-4.04.885.769.769,0,0,1-.057-.208,20.785,20.785,0,0,0-2.368-9C37.237,15.724,37,5.711,36.71,2.486a1.61,1.61,0,0,0-.723-1.216,1.641,1.641,0,0,0-1.43-.185c-8.142,2.71-10.947,10.488-11.9,15a16.328,16.328,0,0,0-7.486,0c-.956-4.516-3.762-12.3-11.9-15a1.641,1.641,0,0,0-1.43.185,1.61,1.61,0,0,0-.726,1.216C.826,5.711.586,15.73,7.469,21.991A20.762,20.762,0,0,0,5.1,30.977a.783.783,0,0,1-.4.641C2.208,33.079.963,35.587,1,39.088a8.446,8.446,0,0,0,8.436,8.321h3.332a8.956,8.956,0,0,0,12.294,0h3.332a8.364,8.364,0,0,0,1.769-.2,9.765,9.765,0,1,0,6.662-16.894Zm-12.1,15.47a.814.814,0,0,0-.581.244,7.328,7.328,0,0,1-10.466,0,.814.814,0,0,0-.581-.244H9.436a6.812,6.812,0,0,1-6.807-6.71c-.031-2.872.943-4.906,2.885-6.041a2.4,2.4,0,0,0,1.209-1.961,19.432,19.432,0,0,1,2.02-8.022,17.842,17.842,0,0,0,1.843,1.211.814.814,0,0,0,.808-1.413C2.166,17.569,2.431,6.038,2.752,2.628c10.6,3.531,11.27,16.75,11.275,16.883a.815.815,0,0,0,1.628-.065c0-.03-.035-.694-.194-1.751a14.663,14.663,0,0,1,6.9,0,17.367,17.367,0,0,0-.194,1.751.815.815,0,0,0,1.628.065c.006-.133.673-13.353,11.3-16.883.3,3.41.57,14.941-8.661,20.215a.814.814,0,1,0,.808,1.413,17.843,17.843,0,0,0,1.849-1.216,19.428,19.428,0,0,1,2.014,8.03,2.393,2.393,0,0,0,.244.926,9.739,9.739,0,0,0-2.466,13.753c-.163.012-.326.033-.489.033Zm12.1,2.443a8.142,8.142,0,1,1,8.142-8.142A8.142,8.142,0,0,1,36.824,48.223Z" transform="translate(-0.999 -0.999)"/>
          <path id="Shape-17" data-name="Shape" d="M45.956,45.071V43.443a2.443,2.443,0,0,0-4.885,0v1.628H39.443a2.443,2.443,0,0,0,0,4.885h1.628v1.628a2.443,2.443,0,1,0,4.885,0V49.956h1.628a2.443,2.443,0,0,0,0-4.885ZM48.4,47.514a.814.814,0,0,1-.814.814H45.142a.814.814,0,0,0-.814.814v2.443a.814.814,0,1,1-1.628,0V49.142a.814.814,0,0,0-.814-.814H39.443a.814.814,0,1,1,0-1.628h2.443a.814.814,0,0,0,.814-.814V43.443a.814.814,0,1,1,1.628,0v2.443a.814.814,0,0,0,.814.814h2.443A.814.814,0,0,1,48.4,47.514Z" transform="translate(-7.688 -8.431)"/>
        </g>
      </g>
    </g>
  </g>
</svg>
