<svg xmlns="http://www.w3.org/2000/svg" width="84.208" height="84.207" viewBox="0 0 84.208 84.207">
  <g id="Grupo_1189767" data-name="Grupo 1189767" transform="translate(6909.124 5506.401)">
    <g id="Grupo_1189044" data-name="Grupo 1189044" transform="translate(-7781.85 -5785.178)">
      <g id="Grupo_1188789" data-name="Grupo 1188789" transform="translate(583.726 -5835.222)">
        <rect id="Rectángulo_400898" data-name="Rectángulo 400898" width="75.49" height="75.489" rx="37.744" transform="translate(293.36 6118.358)" fill="#ffd907"/>
        <rect id="Rectángulo_400907" data-name="Rectángulo 400907" width="75.49" height="75.489" rx="37.744" transform="translate(293.36 6118.358)" fill="none"/>
        <g id="Grupo_1098742" data-name="Grupo 1098742" transform="translate(289 6114)">
          <g id="Rectángulo_400898-2" data-name="Rectángulo 400898" transform="translate(0)" fill="none" stroke="#fff" stroke-width="1" opacity="0.859">
            <rect width="84.208" height="84.207" rx="42.104" stroke="none"/>
            <rect x="0.5" y="0.5" width="83.208" height="83.207" rx="41.604" fill="none"/>
          </g>
          <g id="Rectángulo_400907-2" data-name="Rectángulo 400907" transform="translate(0)" fill="none" stroke="#0f1f33" stroke-linecap="round" stroke-width="1">
            <rect width="84.208" height="84.207" rx="42.104" stroke="none"/>
            <rect x="0.5" y="0.5" width="83.208" height="83.207" rx="41.604" fill="none"/>
          </g>
        </g>
      </g>
    </g>
    <g id="guacamayo" transform="translate(-6891.381 -5488.931)">
      <g id="Grupo_1189761" data-name="Grupo 1189761" transform="translate(0.722 0.722)">
        <g id="Grupo_1189756" data-name="Grupo 1189756" transform="translate(0 27.278)">
          <path id="Trazado_878703" data-name="Trazado 878703" d="M405,291.091a.957.957,0,0,1,1.264.46,5.485,5.485,0,0,1,.32,4.187,5.843,5.843,0,0,1-3.766,3.314,5.843,5.843,0,0,1-.755-4.959A5.485,5.485,0,0,1,405,291.091Z" transform="translate(-363.843 -291.004)" fill="#8ce09f"/>
          <path id="Trazado_878704" data-name="Trazado 878704" d="M295.653,434.85a.957.957,0,0,0,.672,1.165,5.484,5.484,0,0,0,4.179-.412,5.843,5.843,0,0,0,2.61-4.284,5.843,5.843,0,0,0-5.015.118A5.485,5.485,0,0,0,295.653,434.85Z" transform="translate(-267.9 -417.343)" fill="#55d47b"/>
          <path id="Trazado_878705" data-name="Trazado 878705" d="M288.044,364.345v.962a2.886,2.886,0,0,1-2.886,2.886H281.63a.673.673,0,0,0-.433,1.189l1.853,1.556a2.449,2.449,0,0,1,.308,3.459,2.406,2.406,0,0,1-3.359.261l-6.9-5.789a2.888,2.888,0,0,0-1.855-.675h-2.635c-2.454-1.1-3.609-2.53-3.609-4.085,0-.923,1.058-1.828,2.429-2.65h17.728A2.886,2.886,0,0,1,288.044,364.345Z" transform="translate(-240.224 -354.68)" fill="#e4996d"/>
          <path id="Trazado_878706" data-name="Trazado 878706" d="M34.012,364.065a5.761,5.761,0,0,0,1.872,4.13h-25.5A2.886,2.886,0,0,1,7.5,365.308v-.962a2.886,2.886,0,0,1,2.886-2.886H34.705A5.327,5.327,0,0,0,34.012,364.065Z" transform="translate(-7.5 -354.68)" fill="#df8a57"/>
        </g>
        <g id="Grupo_1189760" data-name="Grupo 1189760" transform="translate(1.908)">
          <g id="Grupo_1189757" data-name="Grupo 1189757" transform="translate(1.521 13.355)">
            <path id="Trazado_878707" data-name="Trazado 878707" d="M64.986,164.115c0-.074,0-.147.009-.22.478,7.928,13.6.553,18.532-7.483-10.39,5.314-15.321,5.56-17.753,2.043,3.551-13.722,17.751-16.122,19.516-5.685C86.9,162.277,64.612,175.674,64.986,164.115Z" transform="translate(-62.88 -146.299)" fill="#fb695b"/>
            <path id="Trazado_878708" data-name="Trazado 878708" d="M84.014,251.4a26.392,26.392,0,0,1-5.648,6.3h0c-.022,1.206-12.313,4.2-12.845.445a25.325,25.325,0,0,1,.741-4.707,2.415,2.415,0,0,1,.569.22q.443.24.89.475a3.621,3.621,0,0,0,4.121-.527q.3-.271.595-.547a2.411,2.411,0,0,1,2.577-.454c.248.1.5.208.747.31C77.065,253.456,80.13,253.529,84.014,251.4Z" transform="translate(-63.366 -241.288)" fill="#f9d171"/>
            <path id="Trazado_878709" data-name="Trazado 878709" d="M54.857,312.461c-.193-.094-.4-.164-.594-.246a1.918,1.918,0,0,0-2.05.361q-.235.219-.473.435c-.9.815-2.761,2.146-3.421,1.132-.91-1.4-2.7-1.676-3.028-1.166a15.591,15.591,0,0,1-2.012,5.763.961.961,0,0,0,.929,1.454c5.677-.656,10.906-5.01,13.93-7.663A5.776,5.776,0,0,1,54.857,312.461Z" transform="translate(-43.137 -296.115)" fill="#78cbed"/>
          </g>
          <path id="Trazado_878710" data-name="Trazado 878710" d="M39.6,305.151c.226-5.31-1.757-7.322-5-3.109-.864,3.316-3.846,8.755-7.021,14.388a1.917,1.917,0,0,0,1.115,2.786,6.666,6.666,0,0,0,5.98-1.189C38.5,314.954,39,308.045,39.6,305.151Z" transform="translate(-27.333 -271.652)" fill="#fb695b"/>
          <path id="Trazado_878711" data-name="Trazado 878711" d="M123.012,23.229c6.18,8.181-2.941,12.139-6.549,15.573-5.371,2.818-9.638,8.124-13.082.894a11,11,0,0,1-.477-1.806c.662-.226,4.224-3.891,4.284-4.922.191.128-1.482-6.4-1.83-6.452a21.4,21.4,0,0,1,2.963-4.211,2.891,2.891,0,0,0,.791-1.969c.011-3.384.912-12.835,10.642-12.835,2.841,0,6.92.954,6.7,3.639.806,1.411.34,1.461,1.192,3.522C127.347,16.34,123.012,23.229,123.012,23.229Z" transform="translate(-95.633 -7.501)" fill="#fd7a6e"/>
          <path id="Trazado_878712" data-name="Trazado 878712" d="M255.389,45.775c0-6.015-8.668-6.393-8.668.966,0,5.326,6.27,6.981,6.27,6.981a10.145,10.145,0,0,0,4.3-7.2S255.725,45.843,255.389,45.775Z" transform="translate(-225.612 -37.994)" fill="#fff8e6"/>
          <path id="Trazado_878713" data-name="Trazado 878713" d="M114.791,305.633c-4.36,1.85-8.689,2.318-11.429-3.433a11.085,11.085,0,0,1-.479-1.806s2.425-2.444,3.911-2.444a8,8,0,0,1,8,7.683Z" transform="translate(-95.615 -270.004)" fill="#fb695b"/>
          <g id="Grupo_1189758" data-name="Grupo 1189758" transform="translate(7.084 18.797)">
            <path id="Trazado_878714" data-name="Trazado 878714" d="M120.055,204.771q-.761,4-1.835,8.074c-.1-.1-8.441-5.582-8.69-5.553a23.539,23.539,0,0,1,1.817-4.213,2.857,2.857,0,0,0,1.064-.031q.313-.068.628-.14a1.923,1.923,0,0,1,1.956.712c.128.171.259.342.39.51a2.877,2.877,0,0,0,3.155.981c.255-.081.509-.165.763-.248A1.921,1.921,0,0,1,120.055,204.771Z" transform="translate(-108.706 -202.862)" fill="#f9ee80"/>
            <path id="Trazado_878715" data-name="Trazado 878715" d="M110.349,243.562q-.055,4.069-.405,8.271c-.124-.089-.246-.177-.37-.267a1.92,1.92,0,0,0-2.045-.133q-.354.19-.708.377a2.877,2.877,0,0,1-3.277-.419c-.159-.144-.317-.289-.472-.435a1.922,1.922,0,0,0-1.923-.409,15.157,15.157,0,0,1,.638-7.161,2.828,2.828,0,0,0,.736-.192q.3-.121.595-.246a1.923,1.923,0,0,1,2.05.361c.155.146.314.292.471.435a2.878,2.878,0,0,0,3.278.419q.355-.186.708-.377A1.915,1.915,0,0,1,110.349,243.562Z" transform="translate(-100.962 -238.954)" fill="#55d47b"/>
          </g>
          <path id="Trazado_878716" data-name="Trazado 878716" d="M314.346,99.77a10.115,10.115,0,0,1-4.252,6.851,7.2,7.2,0,0,1,1.5-6.4A20.694,20.694,0,0,1,314.346,99.77Z" transform="translate(-282.715 -90.892)" fill="#77899b"/>
          <g id="Grupo_1189759" data-name="Grupo 1189759" transform="translate(7.078 14.876)">
            <path id="Trazado_878717" data-name="Trazado 878717" d="M200.658,335.583a42.671,42.671,0,0,1-5.681,4.144c-1.322-.66-1.708-1.795-1.076-3.383.432-1.414,2.186-3.294,2.881-3C196.979,333.426,200.658,335.583,200.658,335.583Z" transform="translate(-184.684 -316.84)" fill="#91d4f2"/>
            <path id="Trazado_878718" data-name="Trazado 878718" d="M111.185,357.627a27.083,27.083,0,0,1-9.161,3.761.963.963,0,0,1-.886-1.588,11.588,11.588,0,0,0,2.833-5.88c.33-.511,1.879-1.045,3.54-.685.9.2,1.712,1.613,2.6,1.008A12,12,0,0,0,111.185,357.627Z" transform="translate(-100.892 -334.74)" fill="#78cbed"/>
            <path id="Trazado_878719" data-name="Trazado 878719" d="M207.172,175.815c-3.883,2.129-6.561,4.522-7.867,3.986-.249-.1-3.672-.49-4.727-1.446-.257-6.867,3.317-14.072,9.463-14.845,2.42.5,4.317,2.373,4.893,5.776A9.811,9.811,0,0,1,207.172,175.815Z" transform="translate(-185.552 -163.375)" fill="#fd7a6e"/>
            <path id="Trazado_878720" data-name="Trazado 878720" d="M153.561,162.246c-5.415.968-8.989,8.173-9.463,14.845-1.083,1.807-2.629,2.02-3.818,1.172a11.444,11.444,0,0,0-1.043-.581c-.252-.137-.254-.6-.526-1.134C140.837,166.429,148.39,161.185,153.561,162.246Z" transform="translate(-135.072 -162.111)" fill="#fb695b"/>
            <path id="Trazado_878721" data-name="Trazado 878721" d="M200.554,291.4a26.392,26.392,0,0,1-5.648,6.3h0a5.747,5.747,0,0,1-3.279-.07c-.192-.093-.4-.164-.594-.246a1.918,1.918,0,0,0-2.05.361q-.235.219-.473.435a3.277,3.277,0,0,1-.357.281,3.567,3.567,0,0,1-.192-4.524,3.6,3.6,0,0,0,.421-.329q.3-.271.595-.547a2.411,2.411,0,0,1,2.577-.454c.248.1.5.208.747.31C193.606,293.456,196.671,293.529,200.554,291.4Z" transform="translate(-178.935 -278.96)" fill="#f9ee80"/>
            <path id="Trazado_878722" data-name="Trazado 878722" d="M139.029,317.227a2.5,2.5,0,0,1-2.921.139c-1.335-1.052-2.887-.973-3.217-.462a27.39,27.39,0,0,1,.56-4.743,2.409,2.409,0,0,1,.8.266q.443.24.89.475a3.617,3.617,0,0,0,3.7-.2A18.8,18.8,0,0,0,139.029,317.227Z" transform="translate(-129.811 -297.723)" fill="#f9d171"/>
          </g>
          <path id="Trazado_878723" data-name="Trazado 878723" d="M331.379,54.395c-1.913-2.614-2.07-1.419-3.926-3.388,1.628-2.069,1.948-5.69,1.948-5.69,3.239,1.972,3.392,6.777,2.831,8.92A.481.481,0,0,1,331.379,54.395Z" transform="translate(-298.577 -41.678)" fill="#f9d171"/>
        </g>
      </g>
      <g id="Grupo_1189766" data-name="Grupo 1189766" transform="translate(0 0)">
        <g id="Grupo_1189762" data-name="Grupo 1189762" transform="translate(0 27.278)">
          <path id="Trazado_878724" data-name="Trazado 878724" d="M395.4,291.729a.722.722,0,0,1-.675-.467,6.018,6.018,0,0,1-.113-4.192,6.243,6.243,0,0,1,3.313-3.41,1.681,1.681,0,0,1,2.218.808,6.248,6.248,0,0,1,.345,4.741,5.608,5.608,0,0,1-1.644,2.345.722.722,0,1,1-.942-1.094,4.182,4.182,0,0,0,1.229-1.745,4.731,4.731,0,0,0-.3-3.633.237.237,0,0,0-.309-.112,4.726,4.726,0,0,0-2.56,2.593,4.6,4.6,0,0,0,.107,3.188.722.722,0,0,1-.675.977Z" transform="translate(-356.349 -283.507)"/>
          <path id="Trazado_878725" data-name="Trazado 878725" d="M291.233,431.285a7.2,7.2,0,0,1-1.871-.255,1.683,1.683,0,0,1-1.181-2.045,6.244,6.244,0,0,1,2.783-3.855,5.455,5.455,0,0,1,1.577-.607.722.722,0,0,1,.306,1.41,4.015,4.015,0,0,0-1.161.447,4.726,4.726,0,0,0-2.109,2.972.235.235,0,0,0,.165.285,4.729,4.729,0,0,0,3.628-.341,4.383,4.383,0,0,0,1.832-2.162.722.722,0,0,1,1.329.563,5.871,5.871,0,0,1-2.44,2.849A5.664,5.664,0,0,1,291.233,431.285Z" transform="translate(-260.404 -410.941)"/>
          <path id="Trazado_878726" data-name="Trazado 878726" d="M5.1,362.137H3.608A3.612,3.612,0,0,1,0,358.529v-.962a3.612,3.612,0,0,1,3.608-3.608H5.256a.722.722,0,1,1,0,1.443H3.608a2.167,2.167,0,0,0-2.165,2.165v.962a2.167,2.167,0,0,0,2.165,2.165H5.1a.722.722,0,1,1,0,1.443Z" transform="translate(0 -347.18)"/>
          <path id="Trazado_878727" data-name="Trazado 878727" d="M163.914,369.159a3.112,3.112,0,0,1-2.006-.725l-6.9-5.79a2.168,2.168,0,0,0-1.391-.507H135.572a.722.722,0,1,1,0-1.443h18.045a3.614,3.614,0,0,1,2.319.844l6.9,5.789a1.693,1.693,0,0,0,2.351-.182,1.643,1.643,0,0,0,.393-1.219,1.772,1.772,0,0,0-.621-1.213l-1.853-1.556a1.395,1.395,0,0,1,.9-2.464h3.527a2.167,2.167,0,0,0,2.165-2.165v-.962a2.167,2.167,0,0,0-2.165-2.165H156.938a.722.722,0,0,1,0-1.443H167.53a3.612,3.612,0,0,1,3.608,3.608v.962a3.612,3.612,0,0,1-3.608,3.608H164l1.884,1.471a3.223,3.223,0,0,1,1.132,2.206,3.075,3.075,0,0,1-.744,2.279A3.125,3.125,0,0,1,163.914,369.159Z" transform="translate(-121.875 -347.18)"/>
          <path id="Línea_673" data-name="Línea 673" d="M-.254-6.057H-6.778A.722.722,0,0,1-7.5-6.778.722.722,0,0,1-6.778-7.5H-.254a.722.722,0,0,1,.722.722A.722.722,0,0,1-.254-6.057Z" transform="translate(31.95 14.279)"/>
        </g>
        <g id="Grupo_1189765" data-name="Grupo 1189765" transform="translate(1.907 0)">
          <g id="Grupo_1189763" data-name="Grupo 1189763" transform="translate(1.522 14.179)">
            <path id="Trazado_878728" data-name="Trazado 878728" d="M58.742,164.849l-.048,0a.722.722,0,0,1-.673-.767c.617-9.4,5.518-14.767,9.9-16.653a.722.722,0,0,1,.571,1.326c-3.989,1.717-8.455,6.67-9.029,15.422A.722.722,0,0,1,58.742,164.849Z" transform="translate(-55.866 -147.368)"/>
            <path id="Trazado_878729" data-name="Trazado 878729" d="M69.2,267.663a.74.74,0,0,1-.075,0,4.3,4.3,0,0,1-1.565-.474l-.9-.479a1.69,1.69,0,0,0-.4-.154.722.722,0,0,1,.345-1.4,3.137,3.137,0,0,1,.739.286l.885.472a2.861,2.861,0,0,0,1.041.316.722.722,0,0,1-.073,1.439Z" transform="translate(-62.824 -253.798)"/>
            <path id="Trazado_878730" data-name="Trazado 878730" d="M37.316,320.482a1.684,1.684,0,0,1-1.43-2.557,14.915,14.915,0,0,0,1.915-5.5.722.722,0,0,1,.107-.281,1.409,1.409,0,0,1,1.242-.568,3.759,3.759,0,0,1,3,1.731.722.722,0,1,1-1.209.787,2.391,2.391,0,0,0-1.771-1.079,16.208,16.208,0,0,1-2.048,5.658.23.23,0,0,0,0,.253.227.227,0,0,0,.225.108,13.491,13.491,0,0,0,1.751-.324.722.722,0,0,1,.353,1.4,14.938,14.938,0,0,1-1.938.358A1.708,1.708,0,0,1,37.316,320.482Z" transform="translate(-35.638 -295.778)"/>
          </g>
          <path id="Trazado_878731" data-name="Trazado 878731" d="M23.755,334.727a7.369,7.369,0,0,1-2.048-.29,2.591,2.591,0,0,1-1.687-1.52,2.645,2.645,0,0,1,.144-2.313c3.183-5.647,6.109-10.984,6.951-14.216a.722.722,0,0,1,1.4.364c-.886,3.4-3.859,8.827-7.091,14.56a1.209,1.209,0,0,0-.066,1.058,1.156,1.156,0,0,0,.752.68,5.972,5.972,0,0,0,5.328-1.057,10.487,10.487,0,0,0,3.122-5.125.722.722,0,1,1,1.373.446,11.849,11.849,0,0,1-3.59,5.8A7.314,7.314,0,0,1,23.755,334.727Z" transform="translate(-19.82 -285.459)"/>
          <path id="Trazado_878732" data-name="Trazado 878732" d="M94.345,31.836a.722.722,0,0,1-.71-.6c-1.122-6.318,2.736-13.155,5.6-16.209a2.165,2.165,0,0,0,.6-1.477C99.844,10.375,100.692,0,111.2,0c2.262,0,5.183.547,6.6,2.081a3.017,3.017,0,0,1,.824,2.338.722.722,0,1,1-1.439-.116,1.568,1.568,0,0,0-.447-1.243c-1.03-1.117-3.523-1.616-5.538-1.616-8.919,0-9.909,8.473-9.92,12.116a3.6,3.6,0,0,1-.987,2.461c-2.566,2.733-6.256,9.214-5.234,14.968a.722.722,0,0,1-.711.848Z" transform="translate(-86.353 0)"/>
          <path id="Trazado_878733" data-name="Trazado 878733" d="M244.4,46.947a.719.719,0,0,1-.321-.076c-3.133-1.559-4.859-4.013-4.859-6.91a6.673,6.673,0,0,1,1.6-4.652,4.867,4.867,0,0,1,3.6-1.57A4.921,4.921,0,0,1,249.331,39a.722.722,0,0,1-1.443,0,3.488,3.488,0,0,0-3.469-3.813,3.438,3.438,0,0,0-2.541,1.11,5.273,5.273,0,0,0-1.215,3.669c0,2.974,2.207,4.7,4.059,5.618a.722.722,0,0,1-.322,1.368Z" transform="translate(-218.11 -30.493)"/>
          <path id="Línea_674" data-name="Línea 674" d="M-6.778-4.9A.722.722,0,0,1-7.5-5.624V-6.778A.722.722,0,0,1-6.778-7.5a.722.722,0,0,1,.722.722v1.155A.722.722,0,0,1-6.778-4.9Z" transform="translate(33.532 13.754)"/>
          <path id="Trazado_878734" data-name="Trazado 878734" d="M126.378,198.732a.718.718,0,0,1-.392-.116,3.577,3.577,0,0,1-.889-.819c-.132-.17-.266-.344-.4-.519a1.2,1.2,0,0,0-1.217-.44l-.636.141a3.566,3.566,0,0,1-1.331.038.722.722,0,0,1,.229-1.425,2.13,2.13,0,0,0,.8-.023l.621-.138a2.647,2.647,0,0,1,2.692.979c.129.172.257.339.385.5a2.141,2.141,0,0,0,.532.491.722.722,0,0,1-.393,1.327Z" transform="translate(-111.183 -176.567)"/>
          <path id="Trazado_878735" data-name="Trazado 878735" d="M107.315,238.165a.719.719,0,0,1-.3-.067,3.562,3.562,0,0,1-.893-.594c-.162-.147-.324-.3-.482-.445a1.2,1.2,0,0,0-1.274-.221l-.6.25a3.55,3.55,0,0,1-.923.241.722.722,0,1,1-.172-1.433,2.109,2.109,0,0,0,.548-.144l.587-.243a2.648,2.648,0,0,1,2.821.5c.157.148.313.291.467.431a2.119,2.119,0,0,0,.531.354.722.722,0,0,1-.3,1.376Z" transform="translate(-94.119 -212.662)"/>
          <path id="Trazado_878736" data-name="Trazado 878736" d="M99.18,317.622a.719.719,0,0,1-.319-.075,3.61,3.61,0,0,1-.831-.567c-.161-.147-.322-.294-.481-.442a1.194,1.194,0,0,0-1.2-.252.722.722,0,0,1-.467-1.366,2.637,2.637,0,0,1,2.647.562c.157.147.312.289.468.43a2.17,2.17,0,0,0,.5.341.722.722,0,0,1-.32,1.369Z" transform="translate(-88.126 -284.491)"/>
          <path id="Trazado_878737" data-name="Trazado 878737" d="M303.322,104.811a.722.722,0,0,1-.707-.577,7.919,7.919,0,0,1,1.653-7.007.722.722,0,1,1,1.1.93,6.229,6.229,0,0,0-1.506,4.591,9.62,9.62,0,0,0,2.492-3.7.722.722,0,1,1,1.352.5,10.591,10.591,0,0,1-4.017,5.155A.722.722,0,0,1,303.322,104.811Z" transform="translate(-275.22 -87.64)"/>
          <g id="Grupo_1189764" data-name="Grupo 1189764" transform="translate(7.078 14.87)">
            <path id="Trazado_878738" data-name="Trazado 878738" d="M126.112,200.964h-.024a.722.722,0,0,1-.7-.745c.23-7.089,2.975-13.277,7.531-16.978a.722.722,0,0,1,.91,1.12c-4.231,3.437-6.781,9.234-7,15.9A.722.722,0,0,1,126.112,200.964Z" transform="translate(-122.311 -180.334)"/>
            <path id="Trazado_878739" data-name="Trazado 878739" d="M233.971,174.747a.722.722,0,0,1-.563-1.173.826.826,0,0,1,.113-.114c3.733-3.076,7.845-8.1,7.159-12.159a6.152,6.152,0,0,0-2.964-4.708,7.072,7.072,0,0,0-6.212.272.722.722,0,1,1-.607-1.309c2.724-1.263,5.385-1.348,7.491-.239a7.529,7.529,0,0,1,3.715,5.744c.787,4.651-3.429,10.018-7.643,13.5A.721.721,0,0,1,233.971,174.747Z" transform="translate(-217.288 -154.543)"/>
            <path id="Trazado_878740" data-name="Trazado 878740" d="M135.3,288.494a4.317,4.317,0,0,1-2.014-.5l-.9-.479a1.683,1.683,0,0,0-.559-.186.722.722,0,0,1,.21-1.428,3.122,3.122,0,0,1,1.035.345l.884.472a2.906,2.906,0,0,0,3.3-.423q.3-.268.588-.54a3.139,3.139,0,0,1,3.349-.591l.739.307c.975.4,3.825.6,7.635-1.485a.722.722,0,0,1,.694,1.266c-4,2.194-7.282,2.209-8.876,1.555l-.751-.312a1.693,1.693,0,0,0-1.808.318q-.3.277-.6.551A4.354,4.354,0,0,1,135.3,288.494Z" transform="translate(-127.57 -271.453)"/>
            <path id="Trazado_878741" data-name="Trazado 878741" d="M105.462,344.564a2.622,2.622,0,0,1,1.026.208l.194.077c.147.058.293.116.435.185a2.857,2.857,0,0,0,1.211.217,7.059,7.059,0,0,0,1.572-.2.722.722,0,0,1,.659,1.24c-3.587,3.147-9.719,7.149-15.2,8.074a1.763,1.763,0,0,1-.294.025,1.685,1.685,0,0,1-1.53-1,1.664,1.664,0,0,1,.277-1.806,10.93,10.93,0,0,0,2.66-5.511.722.722,0,0,1,.107-.282A1.857,1.857,0,0,1,98.2,345.1a4.406,4.406,0,0,1,2.651.981,1.253,1.253,0,0,0,.8.257,2.426,2.426,0,0,0,1.549-.643c.158-.143.313-.285.467-.429A2.635,2.635,0,0,1,105.462,344.564Zm2.362,2.11a3.8,3.8,0,0,1-1.339-.342c-.107-.052-.219-.1-.33-.139l-.227-.091a1.2,1.2,0,0,0-1.281.225c-.158.147-.319.3-.48.441a3.867,3.867,0,0,1-2.518,1.017,2.7,2.7,0,0,1-1.69-.566,2.985,2.985,0,0,0-1.758-.671,1.293,1.293,0,0,0-.348.041,12.425,12.425,0,0,1-2.957,5.958.224.224,0,0,0-.043.257.238.238,0,0,0,.215.146C99.482,352.208,104.343,349.361,107.824,346.674Z" transform="translate(-93.387 -326.281)"/>
          </g>
          <path id="Trazado_878742" data-name="Trazado 878742" d="M324.988,48.535a1.19,1.19,0,0,1-.969-.493,4.725,4.725,0,0,0-1.917-1.817,6.329,6.329,0,0,1-1.952-1.5.722.722,0,0,1-.042-.941c1.478-1.878,1.793-5.273,1.8-5.308A.722.722,0,0,1,323,37.921c3.714,2.261,3.729,7.524,3.154,9.719A1.2,1.2,0,0,1,324.988,48.535Zm-3.374-4.388a4.511,4.511,0,0,0,1.153.8,5.518,5.518,0,0,1,2.1,1.823c.317-1.87.074-5.047-1.709-6.887A12.6,12.6,0,0,1,321.614,44.147Z" transform="translate(-291.075 -34.177)"/>
        </g>
      </g>
    </g>
  </g>
</svg>
