<svg xmlns="http://www.w3.org/2000/svg" width="84.208" height="84.207" viewBox="0 0 84.208 84.207">
  <g id="Grupo_1189808" data-name="Grupo 1189808" transform="translate(-554.124 -1836.896)">
    <g id="Grupo_1189260" data-name="Grupo 1189260" transform="translate(-318.602 1558.119)">
      <g id="Grupo_1188789" data-name="Grupo 1188789" transform="translate(583.726 -5835.222)">
        <rect id="Rectángulo_400898" data-name="Rectángulo 400898" width="75.49" height="75.489" rx="37.744" transform="translate(293.36 6118.358)" fill="#ffd907"/>
        <rect id="Rectángulo_400907" data-name="Rectángulo 400907" width="75.49" height="75.489" rx="37.744" transform="translate(293.36 6118.358)" fill="none"/>
        <g id="Grupo_1098742" data-name="Grupo 1098742" transform="translate(289 6114)">
          <g id="Rectángulo_400898-2" data-name="Rectángulo 400898" transform="translate(0)" fill="none" stroke="#fff" stroke-width="1" opacity="0.859">
            <rect width="84.208" height="84.207" rx="42.104" stroke="none"/>
            <rect x="0.5" y="0.5" width="83.208" height="83.207" rx="41.604" fill="none"/>
          </g>
          <g id="Rectángulo_400907-2" data-name="Rectángulo 400907" transform="translate(0)" fill="none" stroke="#0f1f33" stroke-linecap="round" stroke-width="1">
            <rect width="84.208" height="84.207" rx="42.104" stroke="none"/>
            <rect x="0.5" y="0.5" width="83.208" height="83.207" rx="41.604" fill="none"/>
          </g>
        </g>
      </g>
    </g>
    <g id="carne" transform="translate(571.617 1853.809)">
      <path id="Trazado_878832" data-name="Trazado 878832" d="M56.758,32.379A24.379,24.379,0,1,1,32.379,8,24.379,24.379,0,0,1,56.758,32.379Zm0,0" transform="translate(-7.187 -7.187)" fill="#ccc"/>
      <path id="Trazado_878833" data-name="Trazado 878833" d="M82.257,61.128A21.128,21.128,0,1,1,61.128,40,21.128,21.128,0,0,1,82.257,61.128Zm0,0" transform="translate(-35.937 -35.937)" fill="#f2f2f2"/>
      <path id="Trazado_878834" data-name="Trazado 878834" d="M81.752,17.752a3.251,3.251,0,0,0,0-6.5,3.251,3.251,0,0,0-6.5,0,3.251,3.251,0,0,0,0,6.5Zm0,0" transform="translate(-64.686 -7.187)" fill="#466320"/>
      <path id="Trazado_878835" data-name="Trazado 878835" d="M17.752,49.752a3.251,3.251,0,1,0,0-6.5,3.251,3.251,0,0,0-6.5,0,3.251,3.251,0,1,0,0,6.5Zm0,0" transform="translate(-7.187 -35.937)" fill="#69952f"/>
      <path id="Trazado_878836" data-name="Trazado 878836" d="M81.752,81.752a3.251,3.251,0,0,0,0-6.5,3.251,3.251,0,0,0-6.5,0,3.251,3.251,0,0,0,0,6.5Zm0,0" transform="translate(-64.686 -64.686)" fill="#8cc63f"/>
      <path id="Trazado_878837" data-name="Trazado 878837" d="M83.251,281.625A1.625,1.625,0,1,1,81.625,280,1.625,1.625,0,0,1,83.251,281.625Zm0,0" transform="translate(-71.874 -251.558)" fill="#998675"/>
      <path id="Trazado_878838" data-name="Trazado 878838" d="M81.625,283.615c0-.773-.364-1.4-.813-1.4s-.813.627-.813,1.4.364,1.4.813,1.4S81.625,284.388,81.625,283.615Zm0,0" transform="translate(-71.874 -253.548)" fill="#c7b299"/>
      <path id="Trazado_878839" data-name="Trazado 878839" d="M76.876,202.438A2.438,2.438,0,1,1,74.438,200,2.438,2.438,0,0,1,76.876,202.438Zm0,0" transform="translate(-64.686 -179.684)" fill="#998675"/>
      <path id="Trazado_878840" data-name="Trazado 878840" d="M75.251,203.761c0-1.264-.728-2.288-1.625-2.288S72,202.5,72,203.761s.728,2.288,1.625,2.288S75.251,205.025,75.251,203.761Zm0,0" transform="translate(-64.686 -181.007)" fill="#c7b299"/>
      <path id="Trazado_878841" data-name="Trazado 878841" d="M141.941,272.939a3.251,3.251,0,0,1-3.251,3.251h-1.219a1.219,1.219,0,0,0-1.219,1.219,2.844,2.844,0,0,1-5.688,0,2.031,2.031,0,0,0-2.032-2.032h-6.907a1.625,1.625,0,0,1,0-3.251h3.243a1.633,1.633,0,0,0,1.633-1.633v-.041a1.577,1.577,0,0,0-1.576-1.576h-.063a2.423,2.423,0,0,1-2.423-2.438A2.452,2.452,0,0,1,124.891,264h17.05Zm0,0" transform="translate(-107.811 -237.183)" fill="#f33"/>
      <path id="Trazado_878842" data-name="Trazado 878842" d="M130.564,277.408a2.836,2.836,0,0,0,1.625,2.56,2.836,2.836,0,0,0,1.625-2.56,1.219,1.219,0,0,1,1.219-1.219h1.219a3.251,3.251,0,0,0,3.251-3.251V264H124.89a2.452,2.452,0,0,0-2.453,2.438,2.423,2.423,0,0,0,2.423,2.438h.063a1.577,1.577,0,0,1,1.576,1.576v.041a1.632,1.632,0,0,1-1.632,1.633h-3.243a1.625,1.625,0,0,0,0,3.251h6.907A2.031,2.031,0,0,1,130.564,277.408Zm0,0" transform="translate(-107.811 -237.183)" fill="#f66"/>
      <path id="Trazado_878843" data-name="Trazado 878843" d="M221.815,165.128h-6.5A7.313,7.313,0,0,1,208,157.815v-6.5A7.313,7.313,0,0,1,215.314,144h6.5a7.313,7.313,0,0,1,7.314,7.314v6.5A7.313,7.313,0,0,1,221.815,165.128Zm0,0" transform="translate(-186.872 -129.373)" fill="#603813"/>
      <path id="Trazado_878844" data-name="Trazado 878844" d="M226.69,157.815v-6.5A7.313,7.313,0,0,0,219.377,144h-4.063A7.313,7.313,0,0,0,208,151.314v6.5a7.313,7.313,0,0,0,7.314,7.314h4.063A7.313,7.313,0,0,0,226.69,157.815Zm0,0" transform="translate(-186.872 -129.373)" fill="#754c24"/>
      <path id="Trazado_878845" data-name="Trazado 878845" d="M25.191,100.758A25.2,25.2,0,0,1,2.906,63.81l1.437.759a23.569,23.569,0,1,0,35.773-7.241l1.03-1.257a25.192,25.192,0,0,1-15.955,44.687Zm0,0" transform="translate(0 -50.375)"/>
      <path id="Trazado_878846" data-name="Trazado 878846" d="M165.877,2.965l-.541-1.532A25.146,25.146,0,0,1,173.733,0a25.427,25.427,0,0,1,4.2.349l-.27,1.6A23.784,23.784,0,0,0,165.877,2.965Zm0,0" transform="translate(-148.541)"/>
      <path id="Trazado_878847" data-name="Trazado 878847" d="M53.941,128.127A21.945,21.945,0,0,1,35.375,94.488l1.374.868A20.317,20.317,0,1,0,67.808,91.34l1.109-1.187a21.941,21.941,0,0,1-14.977,37.975Zm0,0" transform="translate(-28.749 -80.995)"/>
      <path id="Trazado_878848" data-name="Trazado 878848" d="M190.285,34.506l-.437-1.565a21.973,21.973,0,0,1,5.063-.789l.062,1.624A20.443,20.443,0,0,0,190.285,34.506Zm0,0" transform="translate(-170.563 -28.886)"/>
      <path id="Trazado_878849" data-name="Trazado 878849" d="M7.314,43.377H4.063a4.063,4.063,0,0,1-.744-8.058,4.064,4.064,0,0,1,7.99,0,4.064,4.064,0,0,1,1.289.476L11.781,37.2a2.438,2.438,0,0,0-1.217-.325.812.812,0,0,1-.813-.813,2.438,2.438,0,0,0-4.876,0,.812.812,0,0,1-.813.813,2.438,2.438,0,1,0,0,4.876H7.314Zm0,0" transform="translate(0 -28.749)"/>
      <path id="Trazado_878850" data-name="Trazado 878850" d="M92.519,11.377V9.752a2.438,2.438,0,0,0,0-4.876.812.812,0,0,1-.813-.813,2.438,2.438,0,1,0-4.876,0,.812.812,0,0,1-.813.813A2.438,2.438,0,0,0,84.8,5.2l-.816-1.406a4.064,4.064,0,0,1,1.289-.476,4.064,4.064,0,0,1,7.99,0,4.063,4.063,0,0,1-.744,8.058Zm0,0" transform="translate(-75.453)"/>
      <path id="Trazado_878851" data-name="Trazado 878851" d="M74.564,75.377h-6.5a4.063,4.063,0,0,1-.744-8.058,4.064,4.064,0,0,1,7.99,0,4.063,4.063,0,0,1-.744,8.058Zm-3.251-9.752a2.441,2.441,0,0,0-2.438,2.438.812.812,0,0,1-.813.813,2.438,2.438,0,1,0,0,4.876h6.5a2.438,2.438,0,0,0,0-4.876.812.812,0,0,1-.813-.813A2.441,2.441,0,0,0,71.314,65.625Zm0,0" transform="translate(-57.499 -57.499)"/>
      <path id="Trazado_878852" data-name="Trazado 878852" d="M83.251,281.625A1.625,1.625,0,1,1,81.625,280,1.625,1.625,0,0,1,83.251,281.625Zm0,0" transform="translate(-71.874 -251.558)" fill="#8cc63f"/>
      <path id="Trazado_878853" data-name="Trazado 878853" d="M67.251,198.5a3.251,3.251,0,1,1,3.251-3.251A3.254,3.254,0,0,1,67.251,198.5Zm0-4.876a1.625,1.625,0,1,0,1.625,1.625A1.627,1.627,0,0,0,67.251,193.625Zm0,0" transform="translate(-57.499 -172.497)"/>
      <path id="Trazado_878854" data-name="Trazado 878854" d="M74.438,276.876a2.438,2.438,0,1,1,2.438-2.438A2.441,2.441,0,0,1,74.438,276.876Zm0-3.251a.813.813,0,1,0,.813.813A.813.813,0,0,0,74.438,273.625Zm0,0" transform="translate(-64.686 -244.371)"/>
      <path id="Trazado_878855" data-name="Trazado 878855" d="M214.627,158.754h-6.5A8.135,8.135,0,0,1,200,150.627v-6.5A8.135,8.135,0,0,1,208.126,136h6.5a8.135,8.135,0,0,1,8.126,8.126v6.5A8.135,8.135,0,0,1,214.627,158.754Zm-6.5-21.128a6.508,6.508,0,0,0-6.5,6.5v6.5a6.508,6.508,0,0,0,6.5,6.5h6.5a6.508,6.508,0,0,0,6.5-6.5v-6.5a6.508,6.508,0,0,0-6.5-6.5Zm0,0" transform="translate(-179.684 -122.185)"/>
      <path id="Trazado_878856" data-name="Trazado 878856" d="M226.34,178.6l16.252-16.253,1.15,1.149-16.252,16.252Zm0,0" transform="translate(-203.349 -145.853)"/>
      <path id="Trazado_878857" data-name="Trazado 878857" d="M258.34,209.784l15.44-15.44,1.149,1.149-15.44,15.439Zm0,0" transform="translate(-232.098 -174.603)"/>
      <path id="Trazado_878858" data-name="Trazado 878858" d="M314.34,260.092l9.752-9.752,1.149,1.149-9.752,9.752Zm0,0" transform="translate(-282.41 -224.911)"/>
      <path id="Trazado_878859" data-name="Trazado 878859" d="M202.34,153.784l15.44-15.44,1.149,1.15-15.439,15.439Zm0,0" transform="translate(-181.787 -124.291)"/>
      <path id="Trazado_878860" data-name="Trazado 878860" d="M202.344,148.092l9.752-9.752,1.149,1.149-9.752,9.752Zm0,0" transform="translate(-181.79 -124.288)"/>
      <path id="Trazado_878861" data-name="Trazado 878861" d="M126.221,273.878a3.661,3.661,0,0,1-3.657-3.657A1.22,1.22,0,0,0,121.345,269h-6.907a2.438,2.438,0,1,1,0-4.876h3.243a.822.822,0,0,0,.821-.821.775.775,0,0,0-.764-.8,3.25,3.25,0,0,1-2.357-.955,3.217,3.217,0,0,1-.942-2.3A3.273,3.273,0,0,1,117.7,256h4.048v1.625H117.7a1.644,1.644,0,0,0-1.64,1.63,1.611,1.611,0,0,0,1.611,1.621,2.406,2.406,0,0,1,2.453,2.389,2.459,2.459,0,0,1-2.446,2.487h-3.243a.813.813,0,0,0,0,1.625h6.907a2.847,2.847,0,0,1,2.844,2.844,2.032,2.032,0,1,0,4.063,0,2.033,2.033,0,0,1,2.032-2.032H131.5a2.441,2.441,0,0,0,2.438-2.438h1.625a4.068,4.068,0,0,1-4.063,4.063h-1.219a.408.408,0,0,0-.406.406A3.661,3.661,0,0,1,126.221,273.878Zm0,0" transform="translate(-100.623 -229.996)"/>
      <path id="Trazado_878862" data-name="Trazado 878862" d="M305.387,27.619l-1.149-1.149,1.051-1.051a1.15,1.15,0,0,0,0-1.625l-.476-.476a2.774,2.774,0,0,1,0-3.923l1.051-1.051,1.149,1.149-1.051,1.051a1.15,1.15,0,0,0,0,1.625l.476.476a2.774,2.774,0,0,1,0,3.923Zm0,0" transform="translate(-273.12 -16.48)"/>
      <path id="Trazado_878863" data-name="Trazado 878863" d="M257.387,43.619l-1.149-1.149,1.051-1.051a1.15,1.15,0,0,0,0-1.625l-.476-.476a2.774,2.774,0,0,1,0-3.923l1.051-1.051,1.149,1.149-1.051,1.051a1.15,1.15,0,0,0,0,1.625l.476.476a2.774,2.774,0,0,1,0,3.923Zm0,0" transform="translate(-229.996 -30.855)"/>
      <path id="Trazado_878864" data-name="Trazado 878864" d="M353.387,11.619l-1.149-1.149,1.051-1.051a1.15,1.15,0,0,0,0-1.625l-.476-.476a2.774,2.774,0,0,1,0-3.923l1.051-1.051,1.149,1.149-1.051,1.051a1.15,1.15,0,0,0,0,1.625l.476.476a2.774,2.774,0,0,1,0,3.923Zm0,0" transform="translate(-316.244 -2.106)"/>
    </g>
  </g>
</svg>
