<svg xmlns="http://www.w3.org/2000/svg" width="84.208" height="84.207" viewBox="0 0 84.208 84.207">
  <g id="Grupo_1189775" data-name="Grupo 1189775" transform="translate(6255.124 5506.401)">
    <g id="Grupo_1189046" data-name="Grupo 1189046" transform="translate(-7127.85 -5785.178)">
      <g id="Grupo_1188789" data-name="Grupo 1188789" transform="translate(583.726 -5835.222)">
        <rect id="Rectángulo_400898" data-name="Rectángulo 400898" width="75.49" height="75.489" rx="37.744" transform="translate(293.36 6118.358)" fill="#ffd907"/>
        <rect id="Rectángulo_400907" data-name="Rectángulo 400907" width="75.49" height="75.489" rx="37.744" transform="translate(293.36 6118.358)" fill="none"/>
        <g id="Grupo_1098742" data-name="Grupo 1098742" transform="translate(289 6114)">
          <g id="Rectángulo_400898-2" data-name="Rectángulo 400898" transform="translate(0)" fill="none" stroke="#fff" stroke-width="1" opacity="0.859">
            <rect width="84.208" height="84.207" rx="42.104" stroke="none"/>
            <rect x="0.5" y="0.5" width="83.208" height="83.207" rx="41.604" fill="none"/>
          </g>
          <g id="Rectángulo_400907-2" data-name="Rectángulo 400907" transform="translate(0)" fill="none" stroke="#0f1f33" stroke-linecap="round" stroke-width="1">
            <rect width="84.208" height="84.207" rx="42.104" stroke="none"/>
            <rect x="0.5" y="0.5" width="83.208" height="83.207" rx="41.604" fill="none"/>
          </g>
        </g>
      </g>
    </g>
    <g id="pajaro_1_" data-name="pajaro (1)" transform="translate(-6237.738 -5547.952)">
      <g id="Grupo_1189773" data-name="Grupo 1189773" transform="translate(0.803 61.319)">
        <path id="Trazado_878724" data-name="Trazado 878724" d="M79.852,142.389,54.946,117.824l-6.921,6.555.714,5a20.107,20.107,0,0,0,25.754,16.4l2.685-.816,2.944-1.649Z" transform="translate(-43.666 -112.463)" fill="#fef6ad"/>
        <path id="Trazado_878725" data-name="Trazado 878725" d="M11.463,112.263s-2.657-.242-3.562-1.225l-.293-.319a.483.483,0,0,1,.023-.678l.593-.562a3.961,3.961,0,0,1,1.971-1.013l1.221-.236,5.051-.5v4.589Z" transform="translate(-7.48 -103.452)" fill="#fccd7f"/>
        <g id="Grupo_1189772" data-name="Grupo 1189772" transform="translate(3.936 0)">
          <g id="XMLID_943_" transform="translate(0.422 7.949)">
            <g id="Grupo_1189769" data-name="Grupo 1189769">
              <path id="Trazado_878726" data-name="Trazado 878726" d="M53.549,151.245l-.714-5-.171-.652a13.85,13.85,0,0,1-.452-3.691l-4.188,3.966.714,5a20.119,20.119,0,0,0,20.749,17.254A20.111,20.111,0,0,1,53.549,151.245Z" transform="translate(-48.024 -141.9)" fill="#fef48b"/>
              <path id="Trazado_878727" data-name="Trazado 878727" d="M116.13,164.7l-1.74-1.551-6.146-9.286a30.836,30.836,0,0,0-10.551-9.827l-3.494-1.3-6.143,2.247-.252,2.4.08.37.023.072a25.307,25.307,0,0,0,24.143,17.72h3.574l.653-.366A.475.475,0,0,0,116.13,164.7Z" transform="translate(-83.528 -142.642)" fill="#57be92"/>
              <path id="Trazado_878728" data-name="Trazado 878728" d="M87.907,171.428a25.378,25.378,0,0,0,.9,2.418l-.464-3.253-.171-.652c-.066-.251-.123-.5-.174-.758l-.189,1.8.08.37Z" transform="translate(-83.528 -166.249)" fill="#22b27f"/>
              <path id="Trazado_878729" data-name="Trazado 878729" d="M52.4,157.2l-.023-.072-.08-.37-.158-2.81-2.91-.709-1.209,2.748.714,5a20.268,20.268,0,0,0,.727,3.213h0l1.521-.078a4.939,4.939,0,0,0,2.8-1.049l.9-.71A25.308,25.308,0,0,1,52.4,157.2Z" transform="translate(-48.022 -152.017)" fill="#fef48b"/>
              <path id="Trazado_878730" data-name="Trazado 878730" d="M53.853,163.017q-.185-.812-.306-1.653l-.251-1.756a25.4,25.4,0,0,1-.9-2.41l-.023-.072-.08-.37-.158-2.81-1.564-.381-.926.877-.419-1.205-1.209,2.748.714,5a20.268,20.268,0,0,0,.727,3.213h0l1.521-.078a4.94,4.94,0,0,0,2.8-1.049Z" transform="translate(-48.022 -152.018)" fill="#fef056"/>
            </g>
          </g>
          <path id="Trazado_878731" data-name="Trazado 878731" d="M229.591,318.141l19.876,8.854a1.819,1.819,0,0,0,2.519-1.282l.219-1.024a1.819,1.819,0,0,0-1.282-2.129l-15.151-4.3-13.552-4.413Z" transform="translate(-203.07 -287.409)" fill="#57be92"/>
          <path id="Trazado_878732" data-name="Trazado 878732" d="M53.015,83.294l-6.506,1.494s-2.16,2.025-2.161,2.028h0a5.928,5.928,0,0,1-.032,3.474l-.053.164a.69.69,0,0,0-.025.3l.4,2.8,2.13.471A13.837,13.837,0,0,0,58.8,90.983l.088-1.536c.008-.139.012-.276.012-.414a7.237,7.237,0,0,0-1.178-3.955Z" transform="translate(-44.217 -81.646)" fill="#b3dafe"/>
          <path id="Trazado_878733" data-name="Trazado 878733" d="M49.717,92.564a4.961,4.961,0,0,1,.611-.786l-3.077.158-2.9,2.453v0a5.927,5.927,0,0,1-.033,3.472l-.053.164a.69.69,0,0,0-.025.3l.4,2.8,2.13.471a13.827,13.827,0,0,0,2.147.3q.3.018.594.023l-.231-1.069a13.7,13.7,0,0,1,.186-7.645A3.6,3.6,0,0,1,49.717,92.564Z" transform="translate(-44.217 -89.218)" fill="#8ac9fe"/>
          <g id="XMLID_945_">
            <g id="Grupo_1189770" data-name="Grupo 1189770">
              <path id="Trazado_878734" data-name="Trazado 878734" d="M57.606,71.395l-.285-.031q-.677-.024-1.354-.024A38.593,38.593,0,0,0,45.812,72.7l-1.585.432c-.04-.133-.084-.264-.132-.395a4.979,4.979,0,0,1,2.014-3.215,8.377,8.377,0,0,1,9.009-.469,7.218,7.218,0,0,1,2.488,2.339Z" transform="translate(-44.095 -67.962)" fill="#f37c7c"/>
            </g>
          </g>
          <g id="XMLID_946_" transform="translate(8.793 18.294)">
            <g id="Grupo_1189771" data-name="Grupo 1189771">
              <path id="Trazado_878735" data-name="Trazado 878735" d="M144.589,242.557l-.21.045s-6.037.84-9.083.915l-6.726.166a25.208,25.208,0,0,1-2.686-3l5.967-.52a42.16,42.16,0,0,0,9.779-2.038h0q.306.431.6.872Z" transform="translate(-125.885 -238.122)" fill="#22b27f"/>
              <path id="Trazado_878736" data-name="Trazado 878736" d="M166.884,279.372l2.137,3.231a25.674,25.674,0,0,1-8.052,1.073l-6.262-.166a25.26,25.26,0,0,1-3.841-3.012l6.726-.166c3.047-.075,9.083-.915,9.083-.915Z" transform="translate(-148.179 -274.937)" fill="#09a76d"/>
            </g>
          </g>
        </g>
        <path id="Trazado_878737" data-name="Trazado 878737" d="M50.92,69.9a15.293,15.293,0,0,1,3.094-1.37,8.377,8.377,0,0,0-7.905.993A4.979,4.979,0,0,0,44.1,72.74c.048.13.092.261.132.395l1.585-.432q1.756-.479,3.547-.789a3.367,3.367,0,0,1,.237-.6A4.969,4.969,0,0,1,50.92,69.9Z" transform="translate(-40.159 -67.963)" fill="#ee6161"/>
      </g>
      <path id="Trazado_878738" data-name="Trazado 878738" d="M204.3,313.465l-1.2-1.071a5.571,5.571,0,0,1-.937-1.082l-1.252-1.89a25.674,25.674,0,0,1-8.052,1.073l-6.262-.166a25.256,25.256,0,0,0,13.625,3.981h3.03l.61-.034a.076.076,0,0,0,.021,0l.85-.3a.064.064,0,0,0,.02-.108Z" transform="translate(-166.536 -222.144)" fill="#02905d"/>
      <g id="Grupo_1189774" data-name="Grupo 1189774" transform="translate(-0.001 60.519)">
        <path id="Trazado_878739" data-name="Trazado 878739" d="M52.813,95.693l-14.08-4a1.28,1.28,0,0,0-.432-.976l-1.661-1.481-6.089-9.2a31.78,31.78,0,0,0-10.39-9.834l.059-1.039a8,8,0,0,0-4.06-7.455,9.215,9.215,0,0,0-9.876.513A5.742,5.742,0,0,0,4.068,65.4l-.7.136A4.758,4.758,0,0,0,.993,66.76L.4,67.322a1.3,1.3,0,0,0-.062,1.81l.293.319a4.749,4.749,0,0,0,3.4,1.537L5.078,78.35A20.7,20.7,0,0,0,8.55,87.26a.806.806,0,1,0,1.327-.916A19.037,19.037,0,0,1,7.713,82.2l.454-.023a5.71,5.71,0,0,0,3.254-1.221l.181-.142A26.171,26.171,0,0,0,31.058,92.843l1.494.665L31.4,93.86a19.25,19.25,0,0,1-19.5-5.059.806.806,0,1,0-1.159,1.122,21.017,21.017,0,0,0,7.009,4.788l-2.1,3.341h-1.91a.806.806,0,1,0,0,1.613h2.356a.806.806,0,0,0,.683-.378l.5-.794.589.831a.806.806,0,0,0,.658.34h.467l-.592.95H16.486a.806.806,0,0,0,0,1.613h2.356a.807.807,0,0,0,.684-.38l.5-.794.591.834a.806.806,0,0,0,.658.34h1.771a.806.806,0,1,0,0-1.613H21.686l-.741-1.046,2.136-3.426a20.8,20.8,0,0,0,2.668.173,21.011,21.011,0,0,0,6.115-.913l2.684-.816a.8.8,0,0,0,.206-.1l8.44,3.759a.806.806,0,1,0,.656-1.473l-8.537-3.8h2.016l15.043,4.272a1.015,1.015,0,0,1,.714,1.185l-.219,1.024a1.012,1.012,0,0,1-1.4.713l-4.441-1.978a.806.806,0,1,0-.656,1.473l4.441,1.978a2.625,2.625,0,0,0,3.635-1.849l.219-1.024a2.631,2.631,0,0,0-1.85-3.073ZM19.992,98.052H18.937L18.2,97.014l1.085-1.729a20.773,20.773,0,0,0,2.08.562Zm7.965-18.863a41.433,41.433,0,0,1-8.527,1.659l-5.526.481a24.4,24.4,0,0,1-3.387-6.5,14.725,14.725,0,0,0,8.891-3.192A30.186,30.186,0,0,1,27.957,79.189ZM5.564,70.345l.043-.136a6.77,6.77,0,0,0,.222-3.143l.84-.229a37.741,37.741,0,0,1,11.115-1.313,6.417,6.417,0,0,1,.826,3.552l-.068,1.189A13.09,13.09,0,0,1,7.466,72.917l-1.585-.35Zm1.658-6.808a7.6,7.6,0,0,1,8.142-.423,6.532,6.532,0,0,1,1.092.778A39.324,39.324,0,0,0,6.244,65.28l-.482.132A4.142,4.142,0,0,1,7.222,63.537Zm-5.4,4.821-.078-.084.362-.343a3.15,3.15,0,0,1,1.57-.807l.506-.1a5.161,5.161,0,0,1-.013,2.35,3.143,3.143,0,0,1-2.348-1.017Zm8.606,11.33a4.106,4.106,0,0,1-2.34.878l-.888.046a19.735,19.735,0,0,1-.522-2.49l-.55-3.85.994.219a14.465,14.465,0,0,0,1.676.267,26.278,26.278,0,0,0,1.983,4.652Zm7.877,6.24,4.663-.115c.162,0,.324-.01.485-.016l.183-.007a.806.806,0,0,0-.057-1.612l-.186.007c-.155.006-.31.012-.465.015l-6.394.157q-.746-.729-1.424-1.516l4.462-.389a43.058,43.058,0,0,0,9.388-1.888c.083.121.167.241.248.363l1.679,2.536c-1.226.2-2.474.357-3.725.478a.806.806,0,0,0,.076,1.609q.039,0,.078,0c1.53-.148,3.057-.353,4.545-.609L33.089,86.8a24.843,24.843,0,0,1-6.745.75l-6.037-.16q-.568-.371-1.119-.775Q18.735,86.279,18.3,85.928ZM33.684,91.36a24.347,24.347,0,0,1-10.337-2.281l2.954.078q.352.01.7.009a26.4,26.4,0,0,0,7.024-.951l1.324,2a.806.806,0,0,0,.136.157l1.108.988Z" transform="translate(0.001 -60.519)"/>
        <path id="Trazado_878740" data-name="Trazado 878740" d="M83.452,120.255a.806.806,0,0,0,.806-.806v-.634a.806.806,0,1,0-1.613,0v.634A.806.806,0,0,0,83.452,120.255Z" transform="translate(-73.761 -111.828)"/>
      </g>
    </g>
  </g>
</svg>
