<svg xmlns="http://www.w3.org/2000/svg" xmlns:xlink="http://www.w3.org/1999/xlink" width="84.208" height="84.207" viewBox="0 0 84.208 84.207">
  <defs>
    <clipPath id="clip-path">
      <path id="path291" d="M0-682.665H58.394v58.394H0Z" transform="translate(0 682.665)"/>
    </clipPath>
  </defs>
  <g id="Grupo_1189802" data-name="Grupo 1189802" transform="translate(-768.175 -7455.6)">
    <g id="Grupo_1189057" data-name="Grupo 1189057" transform="translate(-104.551 7176.822)">
      <g id="Grupo_1188789" data-name="Grupo 1188789" transform="translate(583.726 -5835.222)">
        <rect id="Rectángulo_400898" data-name="Rectángulo 400898" width="75.49" height="75.489" rx="37.744" transform="translate(293.36 6118.358)" fill="#ffd907"/>
        <rect id="Rectángulo_400907" data-name="Rectángulo 400907" width="75.49" height="75.489" rx="37.744" transform="translate(293.36 6118.358)" fill="none"/>
        <g id="Grupo_1098742" data-name="Grupo 1098742" transform="translate(289 6114)">
          <g id="Rectángulo_400898-2" data-name="Rectángulo 400898" transform="translate(0)" fill="none" stroke="#fff" stroke-width="1" opacity="0.859">
            <rect width="84.208" height="84.207" rx="42.104" stroke="none"/>
            <rect x="0.5" y="0.5" width="83.208" height="83.207" rx="41.604" fill="none"/>
          </g>
          <g id="Rectángulo_400907-2" data-name="Rectángulo 400907" transform="translate(0)" fill="none" stroke="#0f1f33" stroke-linecap="round" stroke-width="1">
            <rect width="84.208" height="84.207" rx="42.104" stroke="none"/>
            <rect x="0.5" y="0.5" width="83.208" height="83.207" rx="41.604" fill="none"/>
          </g>
        </g>
      </g>
    </g>
    <g id="g285" transform="translate(782.083 8152.171)">
      <g id="g287" transform="translate(0 -682.665)">
        <g id="g289" clip-path="url(#clip-path)">
          <g id="g295" transform="translate(9.808 7.299)">
            <path id="path297" d="M-236.474-37.812l14.609,13.543v9.282h-23.561a13.168,13.168,0,0,1-13.168-13.168h0a13.168,13.168,0,0,1,22.12-9.657" transform="translate(258.594 41.349)" fill="#7caabf"/>
          </g>
          <g id="g299" transform="translate(8.668 14.342)">
            <path id="path301" d="M-370.666-205.389h-20.363A14.324,14.324,0,0,1-405.338-219.7a14.426,14.426,0,0,1,1.037-5.438,1.14,1.14,0,0,1,1.485-.63,1.141,1.141,0,0,1,.63,1.485,12.157,12.157,0,0,0-.871,4.582,12.041,12.041,0,0,0,12.027,12.027h20.363a1.141,1.141,0,0,1,1.141,1.14A1.141,1.141,0,0,1-370.666-205.389Z" transform="translate(405.338 225.848)"/>
          </g>
          <g id="g303" transform="translate(16.742 6.159)">
            <path id="path305" d="M2.784-18.928a1.136,1.136,0,0,1-.775-.3L1.073-20.1A11.893,11.893,0,0,0-11.754-22.37a1.141,1.141,0,0,1-1.493-.61,1.141,1.141,0,0,1,.61-1.493,14.149,14.149,0,0,1,15.262,2.7l.935.867a1.141,1.141,0,0,1,.061,1.612A1.138,1.138,0,0,1,2.784-18.928Z" transform="translate(13.337 25.613)"/>
          </g>
          <g id="g307" transform="translate(36.179 19.326)">
            <path id="path309" d="M0-76.7H0A7.161,7.161,0,0,0,7.161-69.54H21.075L12.988-80.862A7.161,7.161,0,0,0,0-76.7" transform="translate(0 83.875)" fill="#7caabf"/>
          </g>
          <g id="g311" transform="translate(35.038 18.185)">
            <path id="path313" d="M8.882-80.592H-5.032a8.311,8.311,0,0,1-8.3-8.3,8.266,8.266,0,0,1,8.375-8.315,8.146,8.146,0,0,1,6.681,3.49L9.81-82.4A1.141,1.141,0,0,1,9.9-81.21,1.141,1.141,0,0,1,8.882-80.592ZM-4.958-94.927a6.007,6.007,0,0,0-6.094,6.034,6.027,6.027,0,0,0,6.02,6.02h11.7l-6.8-9.519A5.815,5.815,0,0,0-4.958-94.927Z" transform="translate(13.333 97.208)"/>
          </g>
          <g id="g315" transform="translate(19.327 15.185)">
            <path id="path317" d="M-1.887,6.283A1.141,1.141,0,0,1-3.027,5.143,4.42,4.42,0,0,0-7.442.728H-9.508A1.141,1.141,0,0,1-10.648-.413,1.141,1.141,0,0,1-9.508-1.553h.789A5.333,5.333,0,0,0-6.808-5.667a5.391,5.391,0,0,0-5.385-5.385,1.141,1.141,0,0,1-1.141-1.141,1.141,1.141,0,0,1,1.141-1.141A7.675,7.675,0,0,1-4.527-5.667a7.687,7.687,0,0,1-1.327,4.3A6.708,6.708,0,0,1-.746,5.143,1.141,1.141,0,0,1-1.887,6.283Z" transform="translate(13.333 13.333)"/>
          </g>
          <g id="g319" transform="translate(32.58 8.455)">
            <path id="path321" d="M-44.062-103.938l6.663,1.062-1.062-6.663a4.892,4.892,0,0,0-4.831-4.121h0a4.892,4.892,0,0,0-4.892,4.892h0a4.892,4.892,0,0,0,4.122,4.831" transform="translate(48.184 113.66)" fill="#9fbecf"/>
          </g>
          <g id="g323" transform="translate(31.44 7.314)">
            <path id="path325" d="M-49.592-113.928a1.14,1.14,0,0,1-.18-.014L-56.435-115a6.006,6.006,0,0,1-5.082-5.957,6.039,6.039,0,0,1,6.032-6.032,6.006,6.006,0,0,1,5.957,5.082l1.062,6.663a1.14,1.14,0,0,1-.32.986A1.141,1.141,0,0,1-49.592-113.928Zm-5.893-10.784a3.755,3.755,0,0,0-3.751,3.751,3.735,3.735,0,0,0,3.161,3.7l5.11.815-.815-5.11A3.735,3.735,0,0,0-55.485-124.712Z" transform="translate(61.517 126.993)"/>
          </g>
          <g id="g327" transform="translate(43.511 8.454)">
            <path id="path329" d="M-11.356-44.062-12.419-37.4l6.663-1.062a4.892,4.892,0,0,0,4.121-4.831h0a4.892,4.892,0,0,0-4.892-4.892h0a4.892,4.892,0,0,0-4.831,4.122" transform="translate(12.419 48.184)" fill="#9fbecf"/>
          </g>
          <g id="g331" transform="translate(42.37 7.314)">
            <path id="path333" d="M-18.719-61.517a6.039,6.039,0,0,1,6.032,6.032,6.006,6.006,0,0,1-5.082,5.957l-6.663,1.062a1.14,1.14,0,0,1-.986-.32,1.14,1.14,0,0,1-.32-.986l1.062-6.663A6.006,6.006,0,0,1-18.719-61.517Zm-4.519,10.551,5.11-.815a3.735,3.735,0,0,0,3.16-3.7,3.755,3.755,0,0,0-3.751-3.751,3.735,3.735,0,0,0-3.7,3.161Z" transform="translate(25.752 61.517)"/>
          </g>
          <g id="g335" transform="translate(50.559 32.52)">
            <path id="path337" d="M-12.193-7.724a1.141,1.141,0,0,1-1.141-1.141v-3.328a1.141,1.141,0,0,1,1.141-1.141,1.141,1.141,0,0,1,1.141,1.141v3.328A1.141,1.141,0,0,1-12.193-7.724Z" transform="translate(13.333 13.333)"/>
          </g>
          <g id="g339" transform="translate(45.881 32.52)">
            <path id="path341" d="M-49.577-7.855a1.137,1.137,0,0,1-.806-.334,1.141,1.141,0,0,1,0-1.613l3.2-3.2a1.141,1.141,0,0,1,1.613,0,1.141,1.141,0,0,1,0,1.613l-3.2,3.2A1.137,1.137,0,0,1-49.577-7.855Z" transform="translate(50.717 13.333)"/>
          </g>
          <g id="g343" transform="translate(52.561 26.774)">
            <path id="path345" d="M-8.642-11.052h-3.551a1.141,1.141,0,0,1-1.141-1.141,1.141,1.141,0,0,1,1.141-1.141h3.551A1.141,1.141,0,0,1-7.5-12.193,1.141,1.141,0,0,1-8.642-11.052Z" transform="translate(13.333 13.333)"/>
          </g>
          <g id="g347" transform="translate(51.2 22.447)">
            <path id="path349" d="M-12.193-43.335A1.137,1.137,0,0,1-13-43.669a1.14,1.14,0,0,1,0-1.613l3.02-3.02a1.14,1.14,0,0,1,1.613,0,1.14,1.14,0,0,1,0,1.613l-3.02,3.02A1.137,1.137,0,0,1-12.193-43.335Z" transform="translate(13.333 48.636)"/>
          </g>
          <g id="g351" transform="translate(44.155 26.124)">
            <path id="path353"/>
          </g>
          <g id="g355" transform="translate(0 17.401)">
            <path id="path357" d="M-87.583,21.5h-6.04a1.14,1.14,0,0,1-1.141-1.141,1.14,1.14,0,0,1,1.141-1.14h6.04a4.363,4.363,0,0,0,4.358-4.358A4.363,4.363,0,0,0-87.583,10.5h-14.925A12.13,12.13,0,0,1-114.665-1.425a12.057,12.057,0,0,1,9.576-11.887,1.14,1.14,0,0,1,1.348.885,1.14,1.14,0,0,1-.885,1.348,9.771,9.771,0,0,0-7.759,9.634,9.843,9.843,0,0,0,9.876,9.665h14.925a6.646,6.646,0,0,1,6.639,6.639A6.646,6.646,0,0,1-87.583,21.5Z" transform="translate(114.666 13.336)"/>
          </g>
          <g id="g359" transform="translate(13.615 11.2)">
            <path id="path361"/>
          </g>
        </g>
      </g>
    </g>
  </g>
</svg>
