<svg xmlns="http://www.w3.org/2000/svg" width="84.208" height="84.207" viewBox="0 0 84.208 84.207">
  <g id="Grupo_1189813" data-name="Grupo 1189813" transform="translate(-757.896 -1836.896)">
    <g id="Grupo_1189261" data-name="Grupo 1189261" transform="translate(-114.83 1558.119)">
      <g id="Grupo_1188789" data-name="Grupo 1188789" transform="translate(583.726 -5835.222)">
        <rect id="Rectángulo_400898" data-name="Rectángulo 400898" width="75.49" height="75.489" rx="37.744" transform="translate(293.36 6118.358)" fill="#ffd907"/>
        <rect id="Rectángulo_400907" data-name="Rectángulo 400907" width="75.49" height="75.489" rx="37.744" transform="translate(293.36 6118.358)" fill="none"/>
        <g id="Grupo_1098742" data-name="Grupo 1098742" transform="translate(289 6114)">
          <g id="Rectángulo_400898-2" data-name="Rectángulo 400898" transform="translate(0)" fill="none" stroke="#fff" stroke-width="1" opacity="0.859">
            <rect width="84.208" height="84.207" rx="42.104" stroke="none"/>
            <rect x="0.5" y="0.5" width="83.208" height="83.207" rx="41.604" fill="none"/>
          </g>
          <g id="Rectángulo_400907-2" data-name="Rectángulo 400907" transform="translate(0)" fill="none" stroke="#0f1f33" stroke-linecap="round" stroke-width="1">
            <rect width="84.208" height="84.207" rx="42.104" stroke="none"/>
            <rect x="0.5" y="0.5" width="83.208" height="83.207" rx="41.604" fill="none"/>
          </g>
        </g>
      </g>
    </g>
    <g id="sin-comida-chatarra" transform="translate(771.948 1846.83)">
      <g id="_x3C_Group_x3E__20_" transform="translate(0.851 4.368)">
        <path id="Trazado_878865" data-name="Trazado 878865" d="M258.766,162.009,258,151.6l11.876-1.816,11.836,1.816.338,21.562-6.741,5.65Z" transform="translate(-229.569 -134.038)" fill="#7f78bd"/>
        <path id="Trazado_878866" data-name="Trazado 878866" d="M269.6,180.679l-17.83-17.83a2.27,2.27,0,0,1-.661-1.467l-.27-4.459-1.375-1.135L248,156.922l.769,9.272,18.242,18.167Z" transform="translate(-220.704 -139.358)" fill="#6a61b2"/>
        <path id="Trazado_878867" data-name="Trazado 878867" d="M254.41,90.8v-.959c0-.139.011-1.365.757-1.365h22.117a1.358,1.358,0,0,1,1.35,1.365v.392L277.5,90.8Z" transform="translate(-226.389 -79.684)" fill="#f2d1a5"/>
        <path id="Trazado_878868" data-name="Trazado 878868" d="M248.665,89.663V88.474h-.224a1.365,1.365,0,0,0-1.365,1.365v2.094l12.27,1.135,12.786-1.135v-1.7h-22.9A.567.567,0,0,1,248.665,89.663Z" transform="translate(-219.888 -79.684)" fill="#f2bb88"/>
        <path id="Trazado_878869" data-name="Trazado 878869" d="M54.634,393.969l-29.5.227a7.269,7.269,0,0,1-5.337-2.5c-1.484-1.792-1.572-2.656-1.576-3.268v-.093a1.011,1.011,0,0,1,.966-1.01H59.2Z" transform="translate(-17.001 -344.615)" fill="#ffe07d"/>
        <path id="Trazado_878870" data-name="Trazado 878870" d="M51.468,387.319h-6.6l1.98,1.98a1.143,1.143,0,0,1-.148,1.737l-.043.031a10.794,10.794,0,0,1-6.286,1.995h-24.1a5.575,5.575,0,0,1-4.883-2.391,8.643,8.643,0,0,1-1.357-3.35H9.184a1.011,1.011,0,0,0-.966,1.01v.093a7.04,7.04,0,0,0,1.576,4.4,7.27,7.27,0,0,0,5.337,2.5H49.077l1.378-1.011Z" transform="translate(-8.137 -344.615)" fill="#ffd064"/>
        <path id="Trazado_878871" data-name="Trazado 878871" d="M259.981,123.472h1.087a1.151,1.151,0,0,0,1.214-1.161L262.4,122v-1.884a1.253,1.253,0,0,0-1.328-1.161H234.85a1.365,1.365,0,0,0-1.44,1.161v2.2a1.253,1.253,0,0,0,1.328,1.161h25.243Z" transform="translate(-207.773 -106.705)" fill="#f2d1a5"/>
        <path id="Trazado_878872" data-name="Trazado 878872" d="M255.711,122H229.746a1.366,1.366,0,0,1-1.366-1.366v-1.679h-.9a1.366,1.366,0,0,0-1.366,1.366V122.9a1.366,1.366,0,0,0,1.366,1.366H254.56a1.366,1.366,0,0,0,1.366-1.366V122Z" transform="translate(-201.302 -106.704)" fill="#f2bb88"/>
        <path id="Trazado_878873" data-name="Trazado 878873" d="M38.57,368.974c-.12.083-1.329.76-1.468.793a3.832,3.832,0,0,1-4.153-1.846.113.113,0,0,0-.194-.013,4.106,4.106,0,0,1-2.6,1.769,4.015,4.015,0,0,1-3.947-1.9.113.113,0,0,0-.177-.016,4.119,4.119,0,0,1-1.219.9,3.985,3.985,0,0,1-3.441.069,2.377,2.377,0,0,1-1.6-2.087c-.035-.473-.152-.9.2-1.175a1.582,1.582,0,0,1,.978-.341L31.635,364l10.22,1.135Z" transform="translate(-18.331 -323.938)" fill="#daf1a1"/>
        <path id="Trazado_878874" data-name="Trazado 878874" d="M35.8,379.1a3.5,3.5,0,0,1-4.536-.761.92.92,0,0,0-1.345-.084,3.768,3.768,0,0,1-1.972,1.028,3.879,3.879,0,0,1-3.472-1.293.931.931,0,0,0-1.235-.1,4.112,4.112,0,0,1-4.078.453,3.777,3.777,0,0,1-1.519-1.333,1.37,1.37,0,0,0-.54,1.175,3.375,3.375,0,0,0,1.945,2.428,3.985,3.985,0,0,0,3.441-.069,4.115,4.115,0,0,0,1.22-.9.112.112,0,0,1,.177.016,4.016,4.016,0,0,0,3.948,1.9,4.106,4.106,0,0,0,2.6-1.769.112.112,0,0,1,.193.013,3.777,3.777,0,0,0,4.317,1.665A4.785,4.785,0,0,0,36.61,380.4Z" transform="translate(-16.01 -335.472)" fill="#c9eb74"/>
        <path id="Trazado_878875" data-name="Trazado 878875" d="M187.346,337.375a5.419,5.419,0,0,0-10.8-.648c-.025.212.416.429.416.648,0,2.992,4.3,4.394,4.964,4.4.246,0,3.887-.151,4.8-1.872A5.394,5.394,0,0,0,187.346,337.375Z" transform="translate(-157.363 -295.535)" fill="#df646e"/>
        <path id="Trazado_878876" data-name="Trazado 878876" d="M183.906,345.4a5.418,5.418,0,0,1-4.794-7.943,5.418,5.418,0,1,0,7.319,7.319A5.393,5.393,0,0,1,183.906,345.4Z" transform="translate(-157.071 -300.411)" fill="#dc4955"/>
        <path id="Trazado_878877" data-name="Trazado 878877" d="M50.437,329.794H18.775c-.227,0-1.286-.14-1.286-1.054-.005-.278-.051-2.189,1.286-2.189l13.664-1.135,14.755,1.135h1.133Z" transform="translate(-16.354 -289.737)" fill="#f2d1a5"/>
        <path id="Trazado_878878" data-name="Trazado 878878" d="M242.542,366.76l-7.161,2.853a1.86,1.86,0,0,1-2-.414l-3.592-4.068L235.673,364l5.239,1.135Z" transform="translate(-204.56 -323.938)" fill="#ffd064"/>
        <path id="Trazado_878879" data-name="Trazado 878879" d="M229.885,365.131l-1.9-1.135-1.5,1.135.482.482a.567.567,0,0,1-.191.928l-4.007,1.6a1.86,1.86,0,0,1-2-.414l-2.638-2.593L216.489,364l-1.7,1.135,5.295,5.2a1.86,1.86,0,0,0,2,.414l7.161-2.853,2.434-.97Z" transform="translate(-191.263 -323.938)" fill="#ffc250"/>
        <path id="Trazado_878880" data-name="Trazado 878880" d="M41.743,326.549l-1.778-1.135-1.626,1.135,1.14,1.14a.567.567,0,0,1-.4.969H12.191a2.323,2.323,0,0,1-2.416-2.1,2.192,2.192,0,1,0,.147,4.371h36.2Z" transform="translate(-7.5 -289.735)" fill="#f2bb88"/>
        <g id="Grupo_1189809" data-name="Grupo 1189809" transform="translate(0.081 28.804)">
          <path id="Trazado_878881" data-name="Trazado 878881" d="M55.9,267.93l-9.021-3.1H30.969a6.028,6.028,0,0,0-2.913.642c-.865.476-2.412,6.236-1.853,6.236h1.946l30.071,0,5.617.015a1.939,1.939,0,0,0,1.292-2.331,6.52,6.52,0,0,0-1.7-2.424c-1.15-1.137-2.445-.986-3.423-1.2C59.313,265.616,55.9,267.93,55.9,267.93Z" transform="translate(-24.057 -264.832)" fill="#ffe07d"/>
          <path id="Trazado_878882" data-name="Trazado 878882" d="M49.936,270.264v-.008h0a7.369,7.369,0,0,0-.232-.805v0a6.84,6.84,0,0,0-1.647-2.608,6.952,6.952,0,0,0-3.431-1.843h-.007a6.887,6.887,0,0,0-1.415-.163H30.966l3.638,3.638a.567.567,0,0,1-.4.969H12.282a.661.661,0,0,1-.661-.661v-.443a6.875,6.875,0,0,1,.627-2.875,6.907,6.907,0,0,0-4.032,6.279v.093a1.011,1.011,0,0,0,1.011,1.011l39.9.013a1.036,1.036,0,0,0,.982-1.024v-.093A6.885,6.885,0,0,0,49.936,270.264Z" transform="translate(-8.217 -264.831)" fill="#ffd064"/>
        </g>
        <path id="Trazado_878883" data-name="Trazado 878883" d="M41.527,62.511a16.378,16.378,0,0,0,10.156,2.8c5.983-.232,15.778-2.23,20.867-7.869a27.832,27.832,0,0,0,5.059-29.228l-.033-.081a1.36,1.36,0,0,1-1.006.452c-1.291,20.171-3.334,19.847-6.052,23.613a1.138,1.138,0,0,1-1.728.144l-30.4-30.4a1.138,1.138,0,0,1,.145-1.729c.377-.271.779-.506,1.155-.779A21.225,21.225,0,0,1,52.059,15.3a24.625,24.625,0,0,1,13.328,3.67l4.274-.019.611-.995a27.8,27.8,0,0,0-36.919.157c-5.68,5.09-8.029,14.071-8.029,22.3,0,1.446.033,1.321,1.091.6a6.936,6.936,0,0,1,2.593-1.071c-.013-.271-.028-.658-.028-1.122a22.813,22.813,0,0,1,4.306-13.373,1.138,1.138,0,0,1,1.729-.145l30.4,30.4a1.138,1.138,0,0,1-.145,1.729A22.813,22.813,0,0,1,51.9,61.74H42.36Z" transform="translate(-23.302 -11.018)" fill="#df646e"/>
        <g id="Grupo_1189810" data-name="Grupo 1189810" transform="translate(0.798 2.834)">
          <path id="Trazado_878884" data-name="Trazado 878884" d="M165.771,35.992c-10.139.247-13.921,5.569-13.921,5.569a24,24,0,0,1,12.219-3.526,23.1,23.1,0,0,1,12.805,3.908h7.48a25.232,25.232,0,0,0-1.916-1.858h-3.7A22.849,22.849,0,0,0,165.771,35.992Z" transform="translate(-136.267 -35.986)" fill="#dc4955"/>
          <path id="Trazado_878885" data-name="Trazado 878885" d="M138.8,425.971a27.694,27.694,0,0,1-11.783-2.614h-6.23a27.8,27.8,0,0,0,36.5-4.428A27.7,27.7,0,0,1,138.8,425.971Z" transform="translate(-108.728 -375.471)" fill="#dc4955"/>
          <path id="Trazado_878886" data-name="Trazado 878886" d="M17.135,95.839A28.346,28.346,0,0,1,16.8,91.56a27.7,27.7,0,0,1,7.042-18.49,27.731,27.731,0,0,0-9.312,20.76,28.123,28.123,0,0,0,.325,4.262,6.938,6.938,0,0,1,1.991-2.069Z" transform="translate(-14.534 -68.862)" fill="#dc4955"/>
          <path id="Trazado_878887" data-name="Trazado 878887" d="M430.452,164.288q-.378-1.224-.862-2.4l-.033-.081a1.36,1.36,0,0,1-1.006.452v0h-1.127l-.117,2.267-.41,7.956a23.971,23.971,0,0,1-4.532,13.541,14.847,14.847,0,0,0,2.494-2.613,21.213,21.213,0,0,0,4.268-13.194l.3-5.457a.247.247,0,0,1,.247-.233A1.36,1.36,0,0,0,430.452,164.288Z" transform="translate(-376.083 -147.53)" fill="#dc4955"/>
        </g>
      </g>
      <g id="Grupo_1189811" data-name="Grupo 1189811" transform="translate(0 3.517)">
        <path id="Trazado_878888" data-name="Trazado 878888" d="M36.985,97.953a27.046,27.046,0,0,1-20.254-2.118H29.457a21.035,21.035,0,0,0,13.865-4.461,1.989,1.989,0,0,0,.25-3.021l-30.4-30.4a1.989,1.989,0,0,0-3.021.25A23.6,23.6,0,0,0,5.68,72.069c0,.15,0,.3.006.459a7.763,7.763,0,0,0-3.095,1.746c-.059-.734-.09-1.47-.09-2.2a27.017,27.017,0,0,1,11.379-22A.851.851,0,1,0,12.9,48.68,28.682,28.682,0,0,0,1.09,76.162,7.706,7.706,0,0,0,.081,79.979v.093a1.855,1.855,0,0,0,.59,1.356,2.885,2.885,0,0,0,.2,3.919,3.139,3.139,0,0,0,.527.417,2.179,2.179,0,0,0-.226.525A1.863,1.863,0,0,0,.081,87.983v.1a7.857,7.857,0,0,0,1.771,4.941,8.073,8.073,0,0,0,5.98,2.813h5.611A28.716,28.716,0,0,0,37.46,99.587a.851.851,0,0,0-.475-1.635ZM2.793,86.914a.5.5,0,0,1,.144-.376.728.728,0,0,1,.525-.227H19.132a6.237,6.237,0,0,0,.826,2.9,2.643,2.643,0,0,1-.768.259,3.148,3.148,0,0,1-3.083-1.509.852.852,0,0,0-1.461.026,3.31,3.31,0,0,1-2.113,1.522,3.208,3.208,0,0,1-3.164-1.633.851.851,0,0,0-1.363-.109,3.267,3.267,0,0,1-1.045.8,3.113,3.113,0,0,1-2.692.073,2.586,2.586,0,0,1-1.475-1.727Zm.669-2.306c-.734,0-1.735-.339-1.759-1.338a1.462,1.462,0,0,1,1.529-1.336l31.512,0,2.676,2.676Zm17.373,1.7h3.192l3.765,3.7a4.585,4.585,0,0,1-6.957-3.7Zm5.621,0H39.122l.63.63-8.4,3.345a1.008,1.008,0,0,1-1.09-.231ZM7.845,73.922h7.1a.851.851,0,1,0,0-1.7h-7.1c-.155,0-.308.006-.461.015,0-.055,0-.112,0-.166a21.909,21.909,0,0,1,4.145-12.876.29.29,0,0,1,.214-.122.273.273,0,0,1,.222.082L25.031,72.22H18.915a.851.851,0,1,0,0,1.7h7.819l6.308,6.308s-30.945,0-31.1,0a.16.16,0,0,1-.16-.16v-.093a6.066,6.066,0,0,1,6.061-6.057ZM3.164,91.936A6.053,6.053,0,0,1,1.83,88.787a4.667,4.667,0,0,0,1.68,1.379A4.806,4.806,0,0,0,7.7,90.1a4.882,4.882,0,0,0,.838-.515A4.857,4.857,0,0,0,12.1,91.244a4.279,4.279,0,0,0,.712-.06A4.685,4.685,0,0,0,15.4,89.764a4.66,4.66,0,0,0,4.074,1.382,4.364,4.364,0,0,0,1.536-.576,6.283,6.283,0,0,0,8.025.661l.039.038a2.74,2.74,0,0,0,1.919.789,2.679,2.679,0,0,0,.995-.191l9.075-3.616,1.305,1.305a.274.274,0,0,1,.082.222.29.29,0,0,1-.122.214,19.3,19.3,0,0,1-12.886,4.14H7.852a6.446,6.446,0,0,1-4.688-2.2Z" transform="translate(0 -43.416)"/>
        <path id="Trazado_878889" data-name="Trazado 878889" d="M171.3,21.576a2.2,2.2,0,0,0,.246-1.01V17.983a2.219,2.219,0,0,0-2.217-2.217h-.162V14.523a2.218,2.218,0,0,0-2.216-2.216h-1.632a28.667,28.667,0,0,0-33.7-5.651.851.851,0,0,0,.777,1.515,26.657,26.657,0,0,1,12.277-2.952,27.08,27.08,0,0,1,18.211,7.088h-5.153a23.772,23.772,0,0,0-26.929.558,1.989,1.989,0,0,0-.25,3.021l30.4,30.4a1.98,1.98,0,0,0,1.4.581c.053,0,.106,0,.16-.006a1.994,1.994,0,0,0,1.459-.822,23.6,23.6,0,0,0,4.52-13.856l.521-9.4.919-.015a26.428,26.428,0,0,1,1.686,9.4,27.025,27.025,0,0,1-15.807,24.547.851.851,0,1,0,.7,1.55A28.68,28.68,0,0,0,171.3,21.576Zm-3.836-7.053v1.243H144.114V14.523a.514.514,0,0,1,.514-.514h22.326A.514.514,0,0,1,167.468,14.523Zm-35.791-.063a.29.29,0,0,1,.122-.214,22.061,22.061,0,0,1,22.489-1.939h-9.66a2.218,2.218,0,0,0-2.216,2.216v1.243h-.162a2.219,2.219,0,0,0-2.217,2.217v2.583a2.219,2.219,0,0,0,2.217,2.217h.313l.159,2.862L131.758,14.682A.274.274,0,0,1,131.677,14.46ZM157.2,40.125l-6.1-6.1h.036A6.091,6.091,0,0,1,157.2,40.08v.045Zm11.013-19.044H163.6a.851.851,0,1,0,0,1.7h3.715l-.517,9.329c0,.008,0,.015,0,.023s0,.016,0,.024a21.909,21.909,0,0,1-4.2,12.887.29.29,0,0,1-.214.122.272.272,0,0,1-.221-.081l-3.706-3.706a1.833,1.833,0,0,0,.447-1.207v-.1a7.793,7.793,0,0,0-7.764-7.755H149.4l-4.871-4.871-.259-4.667h15.36a.851.851,0,0,0,0-1.7H142.25a.515.515,0,0,1-.515-.515V17.983a.515.515,0,0,1,.515-.515h27.083a.515.515,0,0,1,.515.515v2.583a.515.515,0,0,1-.515.515h-1.118Z" transform="translate(-115.224 -3.517)"/>
      </g>
    </g>
  </g>
</svg>
