<svg xmlns="http://www.w3.org/2000/svg" width="84.208" height="84.207" viewBox="0 0 84.208 84.207">
  <g id="Grupo_1189807" data-name="Grupo 1189807" transform="translate(6590.124 4161)">
    <g id="Grupo_1189060" data-name="Grupo 1189060" transform="translate(-7462.85 -4439.777)">
      <g id="Grupo_1188789" data-name="Grupo 1188789" transform="translate(583.726 -5835.222)">
        <rect id="Rectángulo_400898" data-name="Rectángulo 400898" width="75.49" height="75.489" rx="37.744" transform="translate(293.36 6118.358)" fill="#ffd907"/>
        <rect id="Rectángulo_400907" data-name="Rectángulo 400907" width="75.49" height="75.489" rx="37.744" transform="translate(293.36 6118.358)" fill="none"/>
        <g id="Grupo_1098742" data-name="Grupo 1098742" transform="translate(289 6114)">
          <g id="Rectángulo_400898-2" data-name="Rectángulo 400898" transform="translate(0)" fill="none" stroke="#fff" stroke-width="1" opacity="0.859">
            <rect width="84.208" height="84.207" rx="42.104" stroke="none"/>
            <rect x="0.5" y="0.5" width="83.208" height="83.207" rx="41.604" fill="none"/>
          </g>
          <g id="Rectángulo_400907-2" data-name="Rectángulo 400907" transform="translate(0)" fill="none" stroke="#0f1f33" stroke-linecap="round" stroke-width="1">
            <rect width="84.208" height="84.207" rx="42.104" stroke="none"/>
            <rect x="0.5" y="0.5" width="83.208" height="83.207" rx="41.604" fill="none"/>
          </g>
        </g>
      </g>
    </g>
    <g id="raton_1_" data-name="raton (1)" transform="translate(-6571.124 -4150.499)">
      <path id="Trazado_878824" data-name="Trazado 878824" d="M89.606,262.573a33.882,33.882,0,0,0-4.792-5.342s1.16-3.29-.091-5.392c-1.305-2.193-3.958-2.831-5.708-1.3a4.106,4.106,0,0,0-1.392,2.952A55.88,55.88,0,0,0,67,249.443a27.25,27.25,0,0,0-6.6-.943,10.109,10.109,0,0,0-1.284.081C53.087,249.352,50,255.51,50,260.5a8.1,8.1,0,0,0,8.091,8.136H86.563c1.7,0,4.3-.745,4.3-2.8A5.741,5.741,0,0,0,89.606,262.573Z" transform="translate(-45.48 -218.304)" fill="#c5d3de"/>
      <path id="Trazado_878824_-_Contorno" data-name="Trazado 878824 - Contorno" d="M81.865,268.228H57.636a8.214,8.214,0,0,1-1.647-.166,8.057,8.057,0,0,1-2.913-1.231,8.168,8.168,0,0,1-3.412-5.136,8.333,8.333,0,0,1-.164-1.649,13.119,13.119,0,0,1,.145-1.92,14.215,14.215,0,0,1,.433-1.952,14.059,14.059,0,0,1,.72-1.908,12.94,12.94,0,0,1,1.006-1.787,10.607,10.607,0,0,1,2.862-2.9,9.169,9.169,0,0,1,3.986-1.493A10.2,10.2,0,0,1,59.942,248a27.145,27.145,0,0,1,6.612.945c1.291.33,2.654.748,4.05,1.243,1.117.4,2.257.841,3.39,1.323,1.686.718,2.856,1.307,3.133,1.449a4.249,4.249,0,0,1,.384-1.552,4.05,4.05,0,0,1,1.02-1.362,3.369,3.369,0,0,1,2.243-.848,3.825,3.825,0,0,1,1.96.561,4.393,4.393,0,0,1,.861.678,4.808,4.808,0,0,1,.712.924,4.33,4.33,0,0,1,.548,1.747,7.636,7.636,0,0,1-.027,1.765,10.36,10.36,0,0,1-.415,1.887,22.779,22.779,0,0,1,2.528,2.54c.873.991,1.734,2.06,2.247,2.791a8.358,8.358,0,0,1,.907,1.59,4.384,4.384,0,0,1,.359,1.7,2.168,2.168,0,0,1-.442,1.333,3.143,3.143,0,0,1-1.095.88,5.632,5.632,0,0,1-1.41.485,6.883,6.883,0,0,1-1.4.15H81.865Zm-.029-.091h4.272a6.79,6.79,0,0,0,1.38-.148,5.542,5.542,0,0,0,1.387-.477,3.054,3.054,0,0,0,1.064-.854,2.08,2.08,0,0,0,.424-1.278,4.3,4.3,0,0,0-.353-1.664,8.271,8.271,0,0,0-.9-1.573c-.512-.729-1.371-1.8-2.241-2.784a22.387,22.387,0,0,0-2.542-2.549l-.025-.02.011-.03a10.107,10.107,0,0,0,.422-1.9,7.543,7.543,0,0,0,.027-1.744,4.241,4.241,0,0,0-.536-1.71,4.718,4.718,0,0,0-.7-.907,4.3,4.3,0,0,0-.844-.664,3.735,3.735,0,0,0-1.914-.548,3.28,3.28,0,0,0-2.184.826,3.961,3.961,0,0,0-1,1.331,4.167,4.167,0,0,0-.379,1.588l0,.071-.063-.033c-.012-.006-1.264-.658-3.19-1.478-1.131-.481-2.27-.926-3.384-1.321-1.393-.494-2.753-.911-4.041-1.24a27.057,27.057,0,0,0-6.589-.942,10.11,10.11,0,0,0-1.278.08,9.079,9.079,0,0,0-3.947,1.479,10.517,10.517,0,0,0-2.838,2.88,12.851,12.851,0,0,0-1,1.775,13.971,13.971,0,0,0-.716,1.9,14.124,14.124,0,0,0-.431,1.94,13.029,13.029,0,0,0-.144,1.907,8.242,8.242,0,0,0,.162,1.631,8.078,8.078,0,0,0,3.374,5.079,7.966,7.966,0,0,0,2.881,1.217,8.121,8.121,0,0,0,1.629.164Z" transform="translate(-45.025 -217.849)"/>
      <path id="Línea_673" data-name="Línea 673" transform="translate(39.417 44.141)"/>
      <path id="Trazado_878825" data-name="Trazado 878825" d="M73.224,261.255H62.115a.9.9,0,1,1,0-1.808H77.467c1.108,0,3.4-.464,3.4-1.9a4.817,4.817,0,0,0-1.093-2.743,33.44,33.44,0,0,0-4.613-5.153.906.906,0,0,1-.293-1.009c.282-.807.828-3.213-.015-4.63a3.355,3.355,0,0,0-2.3-1.666,2.454,2.454,0,0,0-2.033.581,3.194,3.194,0,0,0-1.083,2.307.9.9,0,0,1-1.322.765,55.5,55.5,0,0,0-10.361-3.951A.9.9,0,0,1,58.2,240.3a56.277,56.277,0,0,1,9.645,3.555,4.927,4.927,0,0,1,1.481-2.288,4.233,4.233,0,0,1,3.507-1A5.154,5.154,0,0,1,76.4,243.09c1.111,1.867.649,4.4.348,5.546a37.647,37.647,0,0,1,4.5,5.13,6.638,6.638,0,0,1,1.422,3.782c0,2.433-2.618,3.706-5.2,3.706H73.224Zm-24.229,0a9.028,9.028,0,0,1-9-9.041c0-5.6,3.471-11.994,9.9-12.818a.9.9,0,0,1,.23,1.793c-5.406.692-8.324,6.2-8.324,11.024A7.218,7.218,0,0,0,49,259.447h4.884a.9.9,0,0,1,0,1.808Zm8.952,0a.9.9,0,1,1,0-1.808h.1a.9.9,0,0,1,0,1.808Z" transform="translate(-36.384 -210.017)"/>
      <path id="Trazado_878826" data-name="Trazado 878826" d="M139.9,327.539H130.4a.9.9,0,0,1,0-1.808H139.9a1.81,1.81,0,0,0-1.808-1.808h-1.806a.9.9,0,0,1-.8-1.323,5.83,5.83,0,0,0-5.063-8.53.9.9,0,0,1,.032-1.808,7.638,7.638,0,0,1,7.173,9.853h.464a3.62,3.62,0,0,1,3.616,3.616A1.81,1.81,0,0,1,139.9,327.539Z" transform="translate(-117.792 -276.301)"/>
      <path id="Trazado_878827" data-name="Trazado 878827" d="M337.648,426.674H332.9a.9.9,0,0,1,0-1.808h4.744a1.785,1.785,0,0,0-1.808-1.808H332.9a.9.9,0,0,1,0-1.808h2.936a3.644,3.644,0,0,1,3.664,3.616A1.857,1.857,0,0,1,337.648,426.674Z" transform="translate(-301.985 -375.436)"/>
      <path id="Línea_674" data-name="Línea 674" transform="translate(17.719 30.385)"/>
      <path id="Trazado_878828" data-name="Trazado 878828" d="M9.945,387.9H9.92a.9.9,0,0,1-.879-.929,3.38,3.38,0,0,0-1.6-2.653,6.1,6.1,0,0,0-2.19-.344C3.16,383.85,0,383.669,0,380.393A3.753,3.753,0,0,1,1.154,377.5a4.879,4.879,0,0,1,3.456-1.082.9.9,0,0,1-.147,1.8,3.159,3.159,0,0,0-2.09.616,2.006,2.006,0,0,0-.564,1.557c0,1.332.929,1.622,3.547,1.773a6.441,6.441,0,0,1,3.09.644,5.178,5.178,0,0,1,2.4,4.207A.9.9,0,0,1,9.945,387.9Z" transform="translate(0 -334.647)"/>
      <path id="Trazado_878829" data-name="Trazado 878829" d="M347.3,297.438a.9.9,0,0,1-.69-.319,4.534,4.534,0,0,1-1.07-2.56.9.9,0,0,1,1.808,0,2.809,2.809,0,0,0,.64,1.39.9.9,0,0,1-.689,1.489Z" transform="translate(-314.304 -259.376)"/>
      <path id="Trazado_878830" data-name="Trazado 878830" d="M273.306,152.167l-1.972,3.041-4.022-.454-2.05-3.5,1.972-3.041Z" transform="translate(-241.281 -127.087)" fill="#9de3d1"/>
      <path id="Trazado_878830_-_Contorno" data-name="Trazado 878830 - Contorno" d="M262.238,147.016a.9.9,0,0,1-.1-.006l-4.022-.454a.9.9,0,0,1-.678-.441l-2.05-3.5a.9.9,0,0,1,.021-.949l1.972-3.041a.9.9,0,0,1,1.251-.266l6.072,3.95a.9.9,0,0,1,.266,1.25L263,146.6A.9.9,0,0,1,262.238,147.016Zm-3.471-2.206,3.017.341,1.176-1.814-4.556-2.964-1.176,1.813Z" transform="translate(-232.185 -117.991)"/>
      <path id="Línea_675" data-name="Línea 675" d="M-5.992-6.173a.9.9,0,0,1-.492-.146L-9.59-8.339A.9.9,0,0,1-9.855-9.59.9.9,0,0,1-8.6-9.855L-5.5-7.835a.9.9,0,0,1,.265,1.251A.9.9,0,0,1-5.992-6.173Z" transform="translate(45.227 18.5)"/>
      <path id="Línea_676" data-name="Línea 676" d="M-7.58-7.205a.9.9,0,0,1-.492-.146L-9.59-8.339A.9.9,0,0,1-9.855-9.59.9.9,0,0,1-8.6-9.855l1.518.987a.9.9,0,0,1,.265,1.251A.9.9,0,0,1-7.58-7.205Z" transform="translate(47.809 24.548)"/>
      <path id="Línea_677" data-name="Línea 677" d="M-7.58-7.205a.9.9,0,0,1-.492-.146L-9.59-8.339A.9.9,0,0,1-9.855-9.59.9.9,0,0,1-8.6-9.855l1.518.987a.9.9,0,0,1,.265,1.251A.9.9,0,0,1-7.58-7.205Z" transform="translate(40.219 19.611)"/>
      <path id="Trazado_878831" data-name="Trazado 878831" d="M293.142,55.293l-6.072-3.95,6.688-9.628,6.072,3.95Z" transform="translate(-261.117 -30.213)" fill="#faf7f5"/>
      <path id="Trazado_878831_-_Contorno" data-name="Trazado 878831 - Contorno" d="M284.045,47.1a.9.9,0,0,1-.492-.146L277.481,43a.9.9,0,0,1-.25-1.274l6.688-9.628a.9.9,0,0,1,1.235-.242l6.072,3.95a.9.9,0,0,1,.25,1.274l-6.688,9.628A.9.9,0,0,1,284.045,47.1Zm-4.8-5.1L283.8,44.96l5.656-8.143L284.9,33.854Z" transform="translate(-252.021 -21.116)"/>
      <path id="Línea_678" data-name="Línea 678" d="M-9.1,4.533a.9.9,0,0,1-.5-.154.9.9,0,0,1-.245-1.255L-1.275-9.6A.9.9,0,0,1-.02-9.847.9.9,0,0,1,.225-8.592L-8.347,4.134A.9.9,0,0,1-9.1,4.533Z" transform="translate(38.173 19.532)"/>
      <path id="Línea_679" data-name="Línea 679" d="M-9.1-4.182a.9.9,0,0,1-.491-.146.9.9,0,0,1-.267-1.25l2.6-4.01a.9.9,0,0,1,1.25-.267.9.9,0,0,1,.267,1.25l-2.6,4.01A.9.9,0,0,1-9.1-4.182Z" transform="translate(32.528 36.764)"/>
      <path id="Línea_680" data-name="Línea 680" d="M-8.376-5.482a.9.9,0,0,1-.873-.671l-.723-2.712a.9.9,0,0,1,.641-1.106.9.9,0,0,1,1.106.641L-7.5-6.619a.9.9,0,0,1-.641,1.106A.905.905,0,0,1-8.376-5.482Z" transform="translate(28.716 30.209)"/>
      <path id="Línea_681" data-name="Línea 681" d="M-6.477-6.747a.9.9,0,0,1-.436-.113L-9.534-8.306a.9.9,0,0,1-.355-1.228.9.9,0,0,1,1.228-.355l2.622,1.446a.9.9,0,0,1,.355,1.228A.9.9,0,0,1-6.477-6.747Z" transform="translate(23.608 34.096)"/>
    </g>
  </g>
</svg>
