<svg xmlns="http://www.w3.org/2000/svg" width="84.208" height="84.207" viewBox="0 0 84.208 84.207">
  <g id="Grupo_1189812" data-name="Grupo 1189812" transform="translate(-968.292 -1836.896)">
    <g id="Grupo_1189262" data-name="Grupo 1189262" transform="translate(95.566 1558.119)">
      <g id="Grupo_1188789" data-name="Grupo 1188789" transform="translate(583.726 -5835.222)">
        <rect id="Rectángulo_400898" data-name="Rectángulo 400898" width="75.49" height="75.489" rx="37.744" transform="translate(293.36 6118.358)" fill="#ffd907"/>
        <rect id="Rectángulo_400907" data-name="Rectángulo 400907" width="75.49" height="75.489" rx="37.744" transform="translate(293.36 6118.358)" fill="none"/>
        <g id="Grupo_1098742" data-name="Grupo 1098742" transform="translate(289 6114)">
          <g id="Rectángulo_400898-2" data-name="Rectángulo 400898" transform="translate(0)" fill="none" stroke="#fff" stroke-width="1" opacity="0.859">
            <rect width="84.208" height="84.207" rx="42.104" stroke="none"/>
            <rect x="0.5" y="0.5" width="83.208" height="83.207" rx="41.604" fill="none"/>
          </g>
          <g id="Rectángulo_400907-2" data-name="Rectángulo 400907" transform="translate(0)" fill="none" stroke="#0f1f33" stroke-linecap="round" stroke-width="1">
            <rect width="84.208" height="84.207" rx="42.104" stroke="none"/>
            <rect x="0.5" y="0.5" width="83.208" height="83.207" rx="41.604" fill="none"/>
          </g>
        </g>
      </g>
    </g>
    <g id="agua" transform="translate(979.562 1769.615)">
      <g id="Icons" transform="translate(1.998 86.264)">
        <path id="Trazado_878890" data-name="Trazado 878890" d="M98.967,103.818c0,1.821-1.174,3.523-3.214,4.976-4.13-2.976-11.842-4.976-20.669-4.976s-16.539,2-20.669,4.976c-2.04-1.453-3.214-3.155-3.214-4.976,0-5.493,10.7-9.951,23.883-9.951S98.967,98.325,98.967,103.818Z" transform="translate(-46.305 -93.867)" fill="#f44335"/>
        <path id="Trazado_878891" data-name="Trazado 878891" d="M244.693,93.867c-.5,0-1,.009-1.493.021,12.49.322,22.391,4.646,22.391,9.93a5.5,5.5,0,0,1-1.931,3.913,16.175,16.175,0,0,1,1.7,1.063c2.04-1.453,3.214-3.155,3.214-4.976C268.576,98.325,257.878,93.867,244.693,93.867Z" transform="translate(-215.915 -93.867)" fill="#c81e1e"/>
        <ellipse id="Elipse_11529" data-name="Elipse 11529" cx="20.669" cy="4.976" rx="20.669" ry="4.976" transform="translate(8.109 9.951)" fill="#02a9f4"/>
        <path id="Trazado_878892" data-name="Trazado 878892" d="M244.693,179.2c-.5,0-1,.008-1.493.021,8.2.212,15.281,2.148,19.176,4.955-3.895,2.806-10.978,4.743-19.176,4.955.5.013,1,.021,1.493.021,8.827,0,16.539-2,20.669-4.976C261.232,181.2,253.52,179.2,244.693,179.2Z" transform="translate(-215.915 -169.249)" fill="#0377bc"/>
        <path id="Trazado_878893" data-name="Trazado 878893" d="M65.989,208.268c-3.165,3.881-14.489,6.757-27.983,6.757s-24.819-2.876-27.983-6.757a3.781,3.781,0,0,1-.717-3.085L14.122,179.2c0,1.821,1.174,3.523,3.214,4.976,4.13,2.976,11.842,4.976,20.669,4.976s16.539-2,20.669-4.976c2.04-1.453,3.214-3.155,3.214-4.976l4.787,25.864a.089.089,0,0,1,.01.05l.02.07A3.781,3.781,0,0,1,65.989,208.268Z" transform="translate(-9.227 -169.249)" fill="#f44335"/>
        <path id="Trazado_878894" data-name="Trazado 878894" d="M273.392,205.183,268.576,179.2a5.707,5.707,0,0,1-2.214,4.17l4.045,21.814a3.781,3.781,0,0,1-.716,3.085c-3.046,3.737-13.663,6.533-26.491,6.737.5.008,1,.02,1.493.02,13.494,0,24.819-2.876,27.983-6.757A3.782,3.782,0,0,0,273.392,205.183Z" transform="translate(-215.915 -169.249)" fill="#c81e1e"/>
        <path id="Trazado_878895" data-name="Trazado 878895" d="M121.159,298.1a3.981,3.981,0,1,0-3.981-3.981H93.3a3.981,3.981,0,1,0-3.981,3.981,3.981,3.981,0,1,0,3.981,3.98h23.883a3.981,3.981,0,1,0,3.981-3.98Z" transform="translate(-76.459 -267.246)" fill="#f5f5f5"/>
        <path id="Trazado_878896" data-name="Trazado 878896" d="M369.918,298.1a3.981,3.981,0,1,0-1.493-7.663,3.981,3.981,0,0,1-1.493,7.663,3.981,3.981,0,0,1,1.493,7.662,3.981,3.981,0,1,0,1.493-7.662Z" transform="translate(-325.218 -267.246)" fill="#cfd8dc"/>
      </g>
      <g id="Icons_copy" transform="translate(1.043 85.26)">
        <path id="Trazado_878897" data-name="Trazado 878897" d="M60.545,122.024c-.126-.7-1.5-8.165-2.635-14.28C55.423,94.373,55.481,94.729,55.172,94c-2.139-5.061-10.25-7.309-15.685-8.126a57.014,57.014,0,0,0-20.951.808c-4.1,1-9.255,2.952-11.565,6.482A13.564,13.564,0,0,0,5.458,98.3c-1.465,8.318-4.129,22.424-4.337,23.627C-1.5,136.8,63.206,136.65,60.545,122.024ZM51.49,99.963c-9.7-6.308-31.587-6.346-41.339,0-6.5-5.332,2.244-10.15,10.593-11.786,18.941-3.719,40.007,4.2,30.747,11.786Zm-1.806,1.228c-9.163,5.288-28.5,5.336-37.729,0C21.115,95.924,40.4,95.851,49.683,101.191Zm8.388,23.465c-5.73,7.577-44.136,9.534-53.937.6-1.663-1.518-1.074-2.656-.819-4.2.72-4.359,4-21.127,3.92-21.23,7.51,9.758,39.629,9.8,47.17,0C58.961,124.433,59.083,123.319,58.072,124.656Z" transform="translate(-1.043 -85.26)"/>
        <path id="Trazado_878898" data-name="Trazado 878898" d="M113.622,281.6a4.983,4.983,0,0,0-4.876,3.981H86.654a4.976,4.976,0,1,0-7.862,4.976,4.976,4.976,0,1,0,7.862,4.976h22.092a4.976,4.976,0,1,0,7.862-4.976,4.976,4.976,0,0,0-2.986-8.956Zm0,7.961a1,1,0,1,0,0,1.99,2.985,2.985,0,0,1,2.985,2.985c0,3.951-5.971,3.947-5.971,0a1,1,0,0,0-1-1H85.758a1,1,0,0,0-1,1,2.985,2.985,0,0,1-2.985,2.985c-3.951,0-3.947-5.971,0-5.971a1,1,0,1,0,0-1.99c-3.951,0-3.947-5.971,0-5.971a2.985,2.985,0,0,1,2.985,2.985,1,1,0,0,0,1,1h23.883a1,1,0,0,0,1-1c0-3.951,5.971-3.947,5.971,0A2.985,2.985,0,0,1,113.622,289.56Z" transform="translate(-67.967 -258.702)"/>
      </g>
    </g>
  </g>
</svg>
