<svg xmlns="http://www.w3.org/2000/svg" width="87.435" height="87.434" viewBox="0 0 87.435 87.434">
  <g id="Grupo_1189853" data-name="Grupo 1189853" transform="translate(-756.499 -3189.354)">
    <g id="Grupo_1189672" data-name="Grupo 1189672" transform="translate(-114.613 2912.189)">
      <g id="Grupo_1188789" data-name="Grupo 1188789" transform="translate(582.113 -5836.835)">
        <rect id="Rectángulo_400898" data-name="Rectángulo 400898" width="72.382" height="72.381" rx="36.191" transform="translate(296.527 6121.525)" fill="#ffd907"/>
        <rect id="Rectángulo_400907" data-name="Rectángulo 400907" width="78.382" height="78.381" rx="39.191" transform="translate(293.527 6118.525)" fill="none"/>
        <g id="Grupo_1098742" data-name="Grupo 1098742" transform="translate(289 6114)">
          <g id="Rectángulo_400898-2" data-name="Rectángulo 400898" transform="translate(0)" fill="none" stroke="#fff" stroke-width="2" opacity="0.859">
            <rect width="87.435" height="87.434" rx="43.717" stroke="none"/>
            <rect x="1" y="1" width="85.435" height="85.434" rx="42.717" fill="none"/>
          </g>
          <g id="Rectángulo_400907-2" data-name="Rectángulo 400907" transform="translate(0)" fill="none" stroke="#0f1f33" stroke-linecap="round" stroke-width="2">
            <rect width="87.435" height="87.434" rx="43.717" stroke="none"/>
            <rect x="1" y="1" width="85.435" height="85.434" rx="42.717" fill="none"/>
          </g>
        </g>
      </g>
    </g>
    <g id="juvenil" transform="translate(777.502 3206.55)">
      <path id="Trazado_879096" data-name="Trazado 879096" d="M335.285,258.258a1.1,1.1,0,0,0-2.126-.051,16.233,16.233,0,0,1-1.375,3.3,12.6,12.6,0,0,1-5.948,5.5l2.942,6.778a14.327,14.327,0,0,0,6.507-15.522Zm0,0" transform="translate(-291.146 -230.359)" fill="#ffaf5c"/>
      <path id="Trazado_879097" data-name="Trazado 879097" d="M298,319.97a5.94,5.94,0,0,0-7.475-.821L286.1,337.757h4.47a31.537,31.537,0,0,0,4.871-3.4,13.507,13.507,0,0,0,4.408-6.762A8.2,8.2,0,0,0,298,319.97Zm0,0" transform="translate(-255.587 -284.735)" fill="#d67f3e"/>
      <path id="Trazado_879098" data-name="Trazado 879098" d="M290.524,319.15,286.1,337.757h4.47q.259-.153.516-.307l4.577-13.764a10.1,10.1,0,0,0,.35-5.03A5.654,5.654,0,0,0,290.524,319.15Zm0,0" transform="translate(-255.587 -284.736)" fill="#b25d24"/>
      <path id="Trazado_879099" data-name="Trazado 879099" d="M10.163,319.97a5.939,5.939,0,0,1,7.475-.821l4.423,18.608h-4.47a31.538,31.538,0,0,1-4.871-3.4A13.5,13.5,0,0,1,8.313,327.6,8.2,8.2,0,0,1,10.163,319.97Zm0,0" transform="translate(-6.766 -284.735)" fill="#d67f3e"/>
      <path id="Trazado_879100" data-name="Trazado 879100" d="M142.383,216.129h14.989v30.307H142.383Zm0,0" transform="translate(-126.973 -193.414)" fill="#d67f3e"/>
      <path id="Trazado_879101" data-name="Trazado 879101" d="M169.609,370.625h9.266V359.535a4.633,4.633,0,0,0-9.266,0Zm0,0" transform="translate(-151.338 -317.603)" fill="#efeec5"/>
      <path id="Trazado_879102" data-name="Trazado 879102" d="M262.978,236.7l-5.2,2.54v25.606h4.534l5.353-16.1A10.128,10.128,0,0,0,262.978,236.7Zm0,0" transform="translate(-230.24 -211.819)" fill="#ffaf5c"/>
      <path id="Trazado_879103" data-name="Trazado 879103" d="M75.8,236.7l5.2,2.54v25.606H76.464l-5.353-16.1A10.127,10.127,0,0,1,75.8,236.7Zm0,0" transform="translate(-62.727 -211.819)" fill="#ffaf5c"/>
      <path id="Trazado_879104" data-name="Trazado 879104" d="M79.019,454.309a5.276,5.276,0,0,0-5.221,4.515.672.672,0,0,0,.67.759h9.1a.672.672,0,0,0,.67-.759A5.276,5.276,0,0,0,79.019,454.309Zm0,0" transform="translate(-65.59 -406.562)" fill="#ededed"/>
      <path id="Trazado_879105" data-name="Trazado 879105" d="M121.3,458.824a5.281,5.281,0,0,0-6.1-4.443c1.6.376,2.866,2.177,3.1,4.443.041.4-.188.759-.477.759h2.805A.672.672,0,0,0,121.3,458.824Zm0,0" transform="translate(-102.65 -406.562)" fill="#c9c9c9"/>
      <path id="Trazado_879106" data-name="Trazado 879106" d="M259.343,454.309a5.276,5.276,0,0,0-5.221,4.515.672.672,0,0,0,.67.759h9.1a.672.672,0,0,0,.67-.759A5.276,5.276,0,0,0,259.343,454.309Zm0,0" transform="translate(-226.963 -406.562)" fill="#ededed"/>
      <path id="Trazado_879107" data-name="Trazado 879107" d="M301.623,458.824a5.281,5.281,0,0,0-6.1-4.443c1.6.376,2.866,2.177,3.1,4.443.041.4-.188.759-.477.759h2.805A.672.672,0,0,0,301.623,458.824Zm0,0" transform="translate(-264.022 -406.562)" fill="#c9c9c9"/>
      <path id="Trazado_879108" data-name="Trazado 879108" d="M272.586,9.88,275.9,7.968a3.5,3.5,0,0,1,1.748-.468h1.943a7.742,7.742,0,0,1,7.724,7.209l.262,3.8a3.628,3.628,0,0,1-5.193,3.519L275.2,18.568Zm0,0" transform="translate(-243.492 -6.712)" fill="#d67f3e"/>
      <path id="Trazado_879109" data-name="Trazado 879109" d="M283.044,27.462l-4.172-7.8a7.625,7.625,0,0,0-3.754-3.426L272.586,17.7l2.612,8.689,7.184,3.458a3.623,3.623,0,0,0,1.586.359A8.732,8.732,0,0,0,283.044,27.462Zm0,0" transform="translate(-243.492 -14.532)" fill="#b25d24"/>
      <path id="Trazado_879110" data-name="Trazado 879110" d="M27.094,9.88,23.783,7.968A3.494,3.494,0,0,0,22.035,7.5H20.091a7.742,7.742,0,0,0-7.723,7.209l-.263,3.8A3.628,3.628,0,0,0,17.3,22.026l7.184-3.458Zm0,0" transform="translate(-10.379 -6.712)" fill="#d67f3e"/>
      <path id="Trazado_879111" data-name="Trazado 879111" d="M88.106,34.736l-4.752-2.127a8.568,8.568,0,0,1-5.068-7.821V23.445a8.731,8.731,0,0,1,1.033-4.119l4.172-7.8A7.626,7.626,0,0,1,90.215,7.5h4.6a7.626,7.626,0,0,1,6.725,4.029l4.173,7.8a8.735,8.735,0,0,1,1.032,4.119v1.342a8.568,8.568,0,0,1-5.068,7.821l-4.752,2.127A10.8,10.8,0,0,1,88.106,34.736Zm0,0" transform="translate(-69.612 -6.712)" fill="#ffaf5c"/>
      <path id="Trazado_879112" data-name="Trazado 879112" d="M127.08,23.874l-4.172-7.8a7.627,7.627,0,0,0-3.921-3.494,7.618,7.618,0,0,1,1.2,1.659l4.172,7.8a8.731,8.731,0,0,1,1.033,4.12V27.5a8.569,8.569,0,0,1-5.068,7.821l-4.753,2.127a10.8,10.8,0,0,1-8.82,0l-4.591-2.055a8.557,8.557,0,0,0,2.559,1.762l4.753,2.127a10.8,10.8,0,0,0,8.82,0l4.753-2.127a8.569,8.569,0,0,0,5.068-7.821V27.993A8.733,8.733,0,0,0,127.08,23.874Zm0,0" transform="translate(-90.977 -11.26)" fill="#d67f3e"/>
      <path id="Trazado_879113" data-name="Trazado 879113" d="M181.766,224.979a4.248,4.248,0,1,1-4.248-4.248A4.248,4.248,0,0,1,181.766,224.979Zm0,0" transform="translate(-154.613 -197.532)" fill="#e573b7"/>
      <path id="Trazado_879114" data-name="Trazado 879114" d="M132.4,183.211h-9.888a5.183,5.183,0,1,0,4.944,6.744,5.184,5.184,0,1,0,4.944-6.744Zm0,0" transform="translate(-104.555 -163.956)" fill="#efeec5"/>
      <path id="Trazado_879115" data-name="Trazado 879115" d="M234.335,183.211h-3.1a5.184,5.184,0,0,1,1.55,10.13,5.184,5.184,0,1,0,1.55-10.13Zm0,0" transform="translate(-206.486 -163.956)" fill="#c9c793"/>
      <path id="Trazado_879116" data-name="Trazado 879116" d="M185.388,158.773a3.78,3.78,0,1,1-7.533,0C177.855,156.509,185.388,156.509,185.388,158.773Zm0,0" transform="translate(-158.717 -140.567)" fill="#5b586d"/>
      <path id="Trazado_879117" data-name="Trazado 879117" d="M44.319,36.531a14.773,14.773,0,0,0,.6-1.935,15.281,15.281,0,0,0-.009-6.875,1.857,1.857,0,0,0-1.792-1.456h-.048a1.857,1.857,0,0,0-1.813,1.37,15.36,15.36,0,0,1-1.309,3.137,11.61,11.61,0,0,1-1.269,1.879,10.892,10.892,0,0,0-4.046-7.45,9.4,9.4,0,0,0,3.294-7.125V16.733a9.5,9.5,0,0,0-.057-1.037l.681.328a4.417,4.417,0,0,0,6.321-4.284l-.263-3.8A8.555,8.555,0,0,0,36.1,0H34.153a4.292,4.292,0,0,0-2.142.574L30.184,1.628A8.407,8.407,0,0,0,25.2,0H20.6a8.406,8.406,0,0,0-4.979,1.628L13.8.574A4.292,4.292,0,0,0,11.656,0H9.713A8.555,8.555,0,0,0,1.2,7.942l-.263,3.8a4.417,4.417,0,0,0,6.321,4.284l.681-.328a9.393,9.393,0,0,0-.057,1.037v1.342A9.4,9.4,0,0,0,11.177,25.2,10.8,10.8,0,0,0,9.024,27.5a.788.788,0,0,0,1.3.9A9.237,9.237,0,0,1,12.3,26.325a5.98,5.98,0,0,0,6.5,4.027,5.036,5.036,0,0,0,8.227,0,5.98,5.98,0,0,0,6.5-4.024,9.338,9.338,0,0,1,3.164,10.344l-3.44,10.347a5.981,5.981,0,0,0-.857-.062,6.061,6.061,0,0,0-4.054,1.566V41.931c0-.023,0-.045,0-.067V35.236a.788.788,0,1,0-1.576,0v2.877a5.412,5.412,0,0,0-7.689,0V35.236a.788.788,0,0,0-1.576,0v6.629c0,.022,0,.044,0,.067v6.592a6.061,6.061,0,0,0-4.054-1.566,5.985,5.985,0,0,0-.857.062L9.131,36.672a9.306,9.306,0,0,1-.477-3.144c0-.025,0-.05,0-.076s0-.037,0-.055a9.351,9.351,0,0,1,.414-2.43A.788.788,0,1,0,7.565,30.5a10.919,10.919,0,0,0-.44,2.18,7.061,7.061,0,0,0-4.288,2A8.906,8.906,0,0,0,.781,43.046a14.237,14.237,0,0,0,4.653,7.17,24.617,24.617,0,0,0,2.05,1.608c-.021.107-.04.216-.056.325a1.443,1.443,0,0,0,.34,1.153,1.467,1.467,0,0,0,1.11.507c9.655,0,9.111.009,9.27-.009.1.016,9.429.013,9.513,0,.159.018-.392.006,9.27.009a1.466,1.466,0,0,0,1.11-.507,1.445,1.445,0,0,0,.34-1.152c-.016-.11-.035-.218-.057-.326a24.286,24.286,0,0,0,2.05-1.607,16.486,16.486,0,0,0,3.212-3.752.788.788,0,1,0-1.345-.822,14.9,14.9,0,0,1-2.907,3.39c-.474.417-.987.826-1.552,1.239a6.134,6.134,0,0,0-3.026-2.824l3.418-10.278a10.9,10.9,0,0,0,.541-2.9l.092.013a.731.731,0,0,0,.089.014,5.436,5.436,0,0,1,2.957,1.491A7.427,7.427,0,0,1,43.5,42.678c-.025.106-.054.215-.088.336a.788.788,0,1,0,1.517.431c.041-.143.075-.274.1-.4A9.37,9.37,0,0,0,44.319,36.531ZM6.578,14.6a2.889,2.889,0,0,1-1.525.266,2.829,2.829,0,0,1-2.54-3.021l.263-3.8A6.973,6.973,0,0,1,9.713,1.576h1.943a2.712,2.712,0,0,1,1.354.363l1.381.8a8.44,8.44,0,0,0-1.207,1.708l-4.172,7.8a9.511,9.511,0,0,0-.643,1.5Zm2.884,3.471V16.733a7.977,7.977,0,0,1,.94-3.748l4.172-7.8a6.848,6.848,0,0,1,1.58-1.968.84.84,0,0,0,.1-.08A6.828,6.828,0,0,1,20.6,1.576h4.6A6.829,6.829,0,0,1,29.56,3.14a.759.759,0,0,0,.095.08,6.85,6.85,0,0,1,1.58,1.968l.381.714a.788.788,0,0,0,1.39-.743l-.382-.714a8.443,8.443,0,0,0-1.207-1.708l1.381-.8a2.714,2.714,0,0,1,1.354-.363H36.1a6.974,6.974,0,0,1,6.937,6.475l.263,3.8a2.829,2.829,0,0,1-2.538,3.021,2.868,2.868,0,0,1-1.526-.266l-1.791-.862a9.5,9.5,0,0,0-.643-1.5L34.66,8.249a.788.788,0,1,0-1.39.744l2.136,3.992a7.977,7.977,0,0,1,.94,3.748v1.342a7.818,7.818,0,0,1-2.557,5.764,5.98,5.98,0,0,0-5.942-5.373h-.4c0-.086.007-.173.007-.261,0-.5-.217-1.422-1.672-2a8.013,8.013,0,0,0-2.883-.481,8.009,8.009,0,0,0-2.882.481c-1.455.583-1.672,1.506-1.672,2q0,.132.006.261h-.4a5.98,5.98,0,0,0-5.942,5.373A7.817,7.817,0,0,1,9.462,18.075Zm10.57,1,0-.021a3.648,3.648,0,0,1-.1-.852c0-.362,1.188-.909,2.978-.909a6.52,6.52,0,0,1,2.3.368c.414.166.682.379.682.541a3.648,3.648,0,0,1-.1.852l0,.021A3.053,3.053,0,0,1,22.9,21.514,3.053,3.053,0,0,1,20.031,19.078ZM22.9,30.906a3.458,3.458,0,0,1-2.464-1.031A5.933,5.933,0,0,0,22.9,27.795a5.934,5.934,0,0,0,2.464,2.081A3.459,3.459,0,0,1,22.9,30.906Zm4.944-2.074a4.447,4.447,0,0,1-.994-.112c-.024-.007-.048-.013-.072-.017a4.375,4.375,0,0,1-3.125-2.942.788.788,0,0,0-1.5,0A4.374,4.374,0,0,1,19.027,28.7c-.024,0-.048.01-.071.017A4.4,4.4,0,0,1,13.6,24.961c0-.017,0-.033-.006-.05a4.4,4.4,0,0,1,4.369-4.869h.723a4.446,4.446,0,0,0,8.441,0h.723a4.4,4.4,0,0,1,4.37,4.87c0,.016,0,.033-.006.05A4.4,4.4,0,0,1,27.848,28.833ZM22.9,38.086a3.85,3.85,0,0,1,3.845,3.79v8.9a5.97,5.97,0,0,0-.37,1.374c0,.028-.007.056-.009.084H19.439c0-.028-.005-.056-.009-.084a5.949,5.949,0,0,0-.369-1.374v-8.9A3.849,3.849,0,0,1,22.9,38.086ZM17.483,51.1v1.132h-.959V52.21a11.5,11.5,0,0,0-.158-1.317.788.788,0,0,0-1.551.282,9.876,9.876,0,0,1,.131,1.057h-3.03a9.761,9.761,0,0,1,.131-1.057.788.788,0,0,0-1.551-.282c-.055.3-.1.612-.128.933-.336-.206-.68-.422-1.028-.649a4.486,4.486,0,0,1,8.145-.077ZM6.476,49.031a12.9,12.9,0,0,1-4.162-6.356A7.425,7.425,0,0,1,3.956,35.79a5.45,5.45,0,0,1,3.133-1.518,10.912,10.912,0,0,0,.547,2.9l3.417,10.278a6.135,6.135,0,0,0-3.026,2.824C7.5,49.886,6.978,49.474,6.476,49.031Zm30.2,2.68v0a4.395,4.395,0,0,1,.124.516H35.475V52.21a11.5,11.5,0,0,0-.158-1.317.788.788,0,0,0-1.551.282,9.944,9.944,0,0,1,.131,1.057h-3.03A9.97,9.97,0,0,1,31,51.175a.788.788,0,0,0-1.551-.282,11.491,11.491,0,0,0-.158,1.318v.021h-.96V51.1a4.487,4.487,0,0,1,8.347.612ZM40.36,33.053a13.143,13.143,0,0,0,.972-1.533,16.952,16.952,0,0,0,1.44-3.46.312.312,0,0,1,.6.014,13.706,13.706,0,0,1,.01,6.163q-.081.342-.18.684-.113-.124-.23-.242A6.905,6.905,0,0,0,40.36,33.053Zm0,0"/>
      <path id="Trazado_879118" data-name="Trazado 879118" d="M150.413,128.051a.788.788,0,0,0,.788-.788v-.631a.788.788,0,0,0-1.576,0v.631A.788.788,0,0,0,150.413,128.051Zm0,0" transform="translate(-133.454 -112.618)"/>
      <path id="Trazado_879119" data-name="Trazado 879119" d="M263.546,128.051a.788.788,0,0,0,.788-.788v-.631a.788.788,0,0,0-1.576,0v.631A.788.788,0,0,0,263.546,128.051Zm0,0" transform="translate(-234.697 -112.618)"/>
    </g>
  </g>
</svg>
