<svg xmlns="http://www.w3.org/2000/svg" width="87.435" height="87.434" viewBox="0 0 87.435 87.434">
  <g id="Grupo_1189855" data-name="Grupo 1189855" transform="translate(-1176.499 -3189.354)">
    <g id="Grupo_1189674" data-name="Grupo 1189674" transform="translate(305.387 2912.189)">
      <g id="Grupo_1188789" data-name="Grupo 1188789" transform="translate(582.113 -5836.835)">
        <rect id="Rectángulo_400898" data-name="Rectángulo 400898" width="72.382" height="72.381" rx="36.191" transform="translate(296.527 6121.525)" fill="#ffd907"/>
        <rect id="Rectángulo_400907" data-name="Rectángulo 400907" width="78.382" height="78.381" rx="39.191" transform="translate(293.527 6118.525)" fill="none"/>
        <g id="Grupo_1098742" data-name="Grupo 1098742" transform="translate(289 6114)">
          <g id="Rectángulo_400898-2" data-name="Rectángulo 400898" transform="translate(0)" fill="none" stroke="#fff" stroke-width="2" opacity="0.859">
            <rect width="87.435" height="87.434" rx="43.717" stroke="none"/>
            <rect x="1" y="1" width="85.435" height="85.434" rx="42.717" fill="none"/>
          </g>
          <g id="Rectángulo_400907-2" data-name="Rectángulo 400907" transform="translate(0)" fill="none" stroke="#0f1f33" stroke-linecap="round" stroke-width="2">
            <rect width="87.435" height="87.434" rx="43.717" stroke="none"/>
            <rect x="1" y="1" width="85.435" height="85.434" rx="42.717" fill="none"/>
          </g>
        </g>
      </g>
    </g>
    <g id="grande" transform="translate(1165.072 3208.656)">
      <path id="Trazado_879120" data-name="Trazado 879120" d="M99.887,49.488a7.554,7.554,0,0,1-3.766-5.569,1.332,1.332,0,0,0-2.624,0,7.554,7.554,0,0,1-3.766,5.569c-3.779,1.89-3.779,6.377-.472,7.794,3.227,1.383,5.55-2.3,5.55-2.3s2.323,3.686,5.55,2.3C103.666,55.865,103.666,51.378,99.887,49.488Z" transform="translate(-39.5 -34.43)" fill="#f4dbce"/>
      <path id="Trazado_879121" data-name="Trazado 879121" d="M120.735,77.708a2.191,2.191,0,0,1-4.383,0c0-1.068,1.124-.637,2.191-.637S120.735,76.64,120.735,77.708Z" transform="translate(-63.235 -61.905)" fill="#7d3d1a"/>
      <path id="Trazado_879122" data-name="Trazado 879122" d="M96.91,56.068A5.6,5.6,0,0,1,92.8,53.806c-1.1,1.36-3.255,2.983-5.743,1.916a4.311,4.311,0,0,1-2.719-3.886,5.31,5.31,0,0,1,3.165-4.8A7.087,7.087,0,0,0,91,41.822a1.821,1.821,0,0,1,3.588,0,7.087,7.087,0,0,0,3.5,5.218,5.31,5.31,0,0,1,3.165,4.8,4.311,4.311,0,0,1-2.719,3.886A4.113,4.113,0,0,1,96.91,56.068ZM92.8,52.48a.49.49,0,0,1,.414.229,6.739,6.739,0,0,0,1.468,1.557,3.316,3.316,0,0,0,3.475.557,3.354,3.354,0,0,0,2.126-3.014,4.346,4.346,0,0,0-2.624-3.892A8.038,8.038,0,0,1,93.628,42a.842.842,0,0,0-1.66,0,8.038,8.038,0,0,1-4.029,5.919,4.346,4.346,0,0,0-2.624,3.892,3.353,3.353,0,0,0,2.126,3.014c2.811,1.2,4.922-2.081,4.943-2.114A.489.489,0,0,1,92.8,52.48Z" transform="translate(-37.489 -32.419)"/>
      <path id="Trazado_879123" data-name="Trazado 879123" d="M116.532,78.369a2.859,2.859,0,0,1-2.681-2.672,1.174,1.174,0,0,1,.35-.91,2.053,2.053,0,0,1,1.634-.261c.232.022.471.044.7.044s.466-.022.7-.044a2.052,2.052,0,0,1,1.634.261,1.174,1.174,0,0,1,.35.91A2.858,2.858,0,0,1,116.532,78.369Zm-1.383-2.905a.531.531,0,0,0-.289.047.352.352,0,0,0-.03.186,1.7,1.7,0,0,0,3.4,0,.349.349,0,0,0-.03-.186,2.282,2.282,0,0,0-.883-.01c-.254.024-.516.048-.788.048s-.535-.024-.788-.048C115.583,75.486,115.341,75.463,115.149,75.463Z" transform="translate(-61.223 -59.893)"/>
      <path id="Trazado_879124" data-name="Trazado 879124" d="M125.311,94.566a.49.49,0,0,1-.49-.49V91.769a.49.49,0,0,1,.98,0v2.307A.49.49,0,0,1,125.311,94.566Z" transform="translate(-70.044 -73.398)"/>
      <g id="Grupo_1189854" data-name="Grupo 1189854" transform="translate(39.336 0.489)">
        <path id="Trazado_879125" data-name="Trazado 879125" d="M161.612,5.139c-.314-.008-.593,0-.84.009a.979.979,0,0,0-.51,1.778,3.835,3.835,0,0,1,1.6,3.294c.065,3.4,1.7,12.852,4.118,12.085,1.87-.593-1.713-3.6,2.335-7.61S165.028,5.227,161.612,5.139Z" transform="translate(-137.543 -4.619)" fill="#eaa250"/>
        <path id="Trazado_879126" data-name="Trazado 879126" d="M53.893,5.139c.314-.008.593,0,.84.009a.979.979,0,0,1,.51,1.778,3.835,3.835,0,0,0-1.6,3.294c-.065,3.4-1.7,12.852-4.118,12.085-1.87-.593,1.713-3.6-2.335-7.61S50.478,5.227,53.893,5.139Z" transform="translate(-46.004 -4.619)" fill="#eaa250"/>
        <path id="Trazado_879127" data-name="Trazado 879127" d="M87.142,8.1a3.835,3.835,0,0,0-1.6-3.294.958.958,0,0,1-.332-1.19,7.565,7.565,0,0,0-4.29-1.108q-2.124.1-4.248,0a7.565,7.565,0,0,0-4.28,1.1.959.959,0,0,1-.33,1.2,3.835,3.835,0,0,0-1.6,3.294C70.4,11.225,69.019,19.452,66.92,20.18c.4,2.112,2.757,3.452,5.5,4.221-2.444-1.757-2.128-5.613,1.3-7.328A7.554,7.554,0,0,0,77.484,11.5a1.332,1.332,0,0,1,2.624,0,7.554,7.554,0,0,0,3.766,5.569c3.43,1.715,3.746,5.571,1.3,7.328,2.74-.769,5.1-2.11,5.5-4.225-2.093-.754-3.471-8.957-3.53-12.072Z" transform="translate(-62.822 -2.503)" fill="#eaa250"/>
      </g>
      <path id="Trazado_879128" data-name="Trazado 879128" d="M163.69,20.827a1.517,1.517,0,0,1-.9-.309c-.959-.688-1.8-2.589-2.506-5.65a37.062,37.062,0,0,1-.927-6.65,3.374,3.374,0,0,0-1.388-2.9,1.469,1.469,0,0,1,.761-2.67c.268-.015.563-.018.879-.01,2.556.066,6.851,2.8,8.033,5.788a4.017,4.017,0,0,1-1,4.606,5.333,5.333,0,0,0-1.724,5.452c.156.9.333,1.916-.808,2.277a1.4,1.4,0,0,1-.426.067Zm-4.41-17.214c-.175,0-.34,0-.494.013a.479.479,0,0,0-.444.36.467.467,0,0,0,.186.525A4.318,4.318,0,0,1,160.34,8.2c.062,3.246,1.382,10.344,3.025,11.523a.474.474,0,0,0,.455.1c.263-.083.318-.143.139-1.176a6.317,6.317,0,0,1,2-6.316,3.061,3.061,0,0,0,.777-3.549c-1.1-2.78-5.113-5.117-7.147-5.169q-.158,0-.307,0Z" transform="translate(-96.195 -2.119)"/>
      <path id="Trazado_879129" data-name="Trazado 879129" d="M47.784,20.828a1.4,1.4,0,0,1-.426-.067c-1.141-.362-.964-1.379-.808-2.277a5.333,5.333,0,0,0-1.724-5.452,4.017,4.017,0,0,1-1-4.606c1.182-2.983,5.477-5.721,8.033-5.787.315-.008.611-.005.879.009a1.469,1.469,0,0,1,.761,2.67,3.374,3.374,0,0,0-1.388,2.9,37.061,37.061,0,0,1-.927,6.65c-.7,3.061-1.547,4.962-2.506,5.65a1.519,1.519,0,0,1-.9.309Zm4.41-17.214q-.149,0-.307,0c-2.035.053-6.046,2.389-7.148,5.169a3.061,3.061,0,0,0,.777,3.549,6.317,6.317,0,0,1,2,6.316c-.18,1.033-.124,1.092.139,1.176a.473.473,0,0,0,.455-.1c.728-.522,1.5-2.371,2.123-5.074a35.976,35.976,0,0,0,.9-6.449,4.317,4.317,0,0,1,1.812-3.688.467.467,0,0,0,.186-.525.479.479,0,0,0-.444-.36c-.154-.009-.319-.013-.493-.013Zm-.32-.485h0Z" transform="translate(-4.649 -2.12)"/>
      <path id="Trazado_879130" data-name="Trazado 879130" d="M83.165,22.876a.49.49,0,0,1-.286-.888,3.277,3.277,0,0,0,1.379-2.983A4.444,4.444,0,0,0,81.644,15.5a8.039,8.039,0,0,1-4.029-5.919.842.842,0,0,0-1.66,0A8.038,8.038,0,0,1,71.926,15.5a4.444,4.444,0,0,0-2.614,3.509,3.276,3.276,0,0,0,1.379,2.983.49.49,0,0,1-.418.869c-3.434-.964-5.455-2.555-5.845-4.6a.49.49,0,0,1,.321-.554c.271-.094,1.231-.717,2.22-4.794a36.584,36.584,0,0,0,.992-6.829,4.317,4.317,0,0,1,1.812-3.688.47.47,0,0,0,.16-.6.49.49,0,0,1,.2-.618A8.016,8.016,0,0,1,74.685.007c1.394.067,2.807.067,4.2,0a8.023,8.023,0,0,1,4.565,1.177.49.49,0,0,1,.2.615.47.47,0,0,0,.161.593,4.317,4.317,0,0,1,1.812,3.688c.068,3.561,1.561,11.028,3.206,11.621a.49.49,0,0,1,.315.552c-.387,2.048-2.408,3.641-5.845,4.605a.467.467,0,0,1-.133.019ZM65.477,18.414c.437,1.365,1.85,2.3,3.362,2.921a4.315,4.315,0,0,1-.5-2.408,5.41,5.41,0,0,1,3.152-4.306,7.087,7.087,0,0,0,3.5-5.218,1.821,1.821,0,0,1,3.588,0,7.087,7.087,0,0,0,3.5,5.218,5.41,5.41,0,0,1,3.152,4.306,4.314,4.314,0,0,1-.5,2.408c1.514-.625,2.929-1.559,3.364-2.928-2.277-1.642-3.4-9.751-3.453-12.308a3.375,3.375,0,0,0-1.388-2.9,1.439,1.439,0,0,1-.62-1.352,7,7,0,0,0-3.7-.861c-1.425.069-2.87.069-4.295,0a7,7,0,0,0-3.689.854,1.438,1.438,0,0,1-.62,1.358,3.375,3.375,0,0,0-1.388,2.9C68.892,8.665,67.76,16.786,65.477,18.414Z" transform="translate(-21.476 0)"/>
      <path id="Trazado_879131" data-name="Trazado 879131" d="M118.324,107.083a6.829,6.829,0,0,1-2.369-2.178,6.78,6.78,0,0,1-2.461,2.222l-.327,2.085a2.779,2.779,0,1,0,5.491,0Z" transform="translate(-60.646 -84.355)" fill="#fd605b"/>
      <path id="Trazado_879132" data-name="Trazado 879132" d="M138.932,115.64c.046.025.09.051.137.075l.334,2.129a2.758,2.758,0,0,1-.132,1.366,6.506,6.506,0,0,0,2.6-3.231A3.654,3.654,0,0,1,138.932,115.64Z" transform="translate(-81.391 -92.987)" fill="#52565b"/>
      <path id="Trazado_879133" data-name="Trazado 879133" d="M103.828,118.219l.327-2.085.053-.028a3.615,3.615,0,0,1-2.689.269,6.576,6.576,0,0,0,2.4,3.1A2.762,2.762,0,0,1,103.828,118.219Z" transform="translate(-51.307 -93.362)" fill="#52565b"/>
      <path id="Trazado_879134" data-name="Trazado 879134" d="M85.187,112.34a6.576,6.576,0,0,1-2.4-3.1,3.969,3.969,0,0,1-.453-.16,4.361,4.361,0,0,1-.83-.466,12.645,12.645,0,0,1-3.281-1.379c.719,2.9,3.621,5.2,7.353,5.887A2.785,2.785,0,0,1,85.187,112.34Z" transform="translate(-32.575 -86.232)" fill="#039be6"/>
      <path id="Trazado_879135" data-name="Trazado 879135" d="M143.007,108.706a4.361,4.361,0,0,1-.83.466,4.022,4.022,0,0,1-.384.14,6.507,6.507,0,0,1-2.6,3.231,2.777,2.777,0,0,1-.357.682c3.754-.665,6.681-2.972,7.414-5.876A12.712,12.712,0,0,1,143.007,108.706Z" transform="translate(-81.319 -86.32)" fill="#039be6"/>
      <path id="Trazado_879136" data-name="Trazado 879136" d="M113.9,110.9a3.269,3.269,0,0,1-3.229-3.776L111,105.04a.489.489,0,0,1,.272-.366,6.28,6.28,0,0,0,2.259-2.042.49.49,0,0,1,.828,0,6.381,6.381,0,0,0,2.177,2,.49.49,0,0,1,.262.361l.334,2.129A3.269,3.269,0,0,1,113.9,110.9Zm-1.973-5.463-.288,1.839a2.289,2.289,0,1,0,4.523,0l-.3-1.889a7.133,7.133,0,0,1-1.923-1.671,7.068,7.068,0,0,1-2.016,1.721Z" transform="translate(-58.637 -82.344)"/>
      <path id="Trazado_879137" data-name="Trazado 879137" d="M137.261,117.689a.49.49,0,0,1-.461-.656,2.256,2.256,0,0,0,.109-1.125l-.3-1.9a.49.49,0,0,1,.547-.808h0a3.166,3.166,0,0,0,2.552.3.49.49,0,0,1,.6.645,7.019,7.019,0,0,1-2.8,3.472A.487.487,0,0,1,137.261,117.689Zm.414-3.219.2,1.287q.025.16.034.319a6.174,6.174,0,0,0,1.1-1.456A3.989,3.989,0,0,1,137.674,114.47Z" transform="translate(-79.38 -90.976)"/>
      <path id="Trazado_879138" data-name="Trazado 879138" d="M101.909,117.949a.489.489,0,0,1-.272-.083,7.111,7.111,0,0,1-2.584-3.324.49.49,0,0,1,.594-.648,3.133,3.133,0,0,0,2.334-.238.49.49,0,0,1,.621.716l-.3,1.911a2.266,2.266,0,0,0,.075,1.03.49.49,0,0,1-.468.635ZM100.345,115a6.274,6.274,0,0,0,.965,1.32q.009-.093.024-.186l.2-1.264A3.977,3.977,0,0,1,100.345,115Z" transform="translate(-49.297 -91.351)"/>
      <path id="Trazado_879139" data-name="Trazado 879139" d="M146.35,48.929a.49.49,0,0,1-.49-.488,1.82,1.82,0,0,1,1.814-1.826h.006a1.82,1.82,0,0,1,1.82,1.814.49.49,0,0,1-.488.491h0a.49.49,0,0,1-.49-.488.841.841,0,0,0-1.681.005.49.49,0,0,1-.488.491h0Z" transform="translate(-86.962 -37.484)"/>
      <path id="Trazado_879140" data-name="Trazado 879140" d="M93.956,48.925a.49.49,0,0,1-.49-.49.841.841,0,0,0-1.681,0,.49.49,0,0,1-.98,0,1.82,1.82,0,0,1,3.641,0A.49.49,0,0,1,93.956,48.925Z" transform="translate(-42.692 -37.484)"/>
      <path id="Trazado_879141" data-name="Trazado 879141" d="M83.566,111.6a.48.48,0,0,1-.088-.008c-3.938-.72-6.976-3.173-7.74-6.251a.49.49,0,0,1,.736-.532,12.087,12.087,0,0,0,3.153,1.322.491.491,0,0,1,.153.074,3.883,3.883,0,0,0,.737.414,3.452,3.452,0,0,0,.4.141.49.49,0,0,1,.318.291,6.125,6.125,0,0,0,2.217,2.867.49.49,0,0,1,.2.262,2.289,2.289,0,0,0,.32.647.49.49,0,0,1-.4.774Zm-6.45-5.337a8.46,8.46,0,0,0,5.235,4.049,7.271,7.271,0,0,1-1.94-2.686c-.1-.034-.19-.069-.28-.108a4.882,4.882,0,0,1-.85-.468A15.106,15.106,0,0,1,77.116,106.267Z" transform="translate(-30.565 -84.22)"/>
      <path id="Trazado_879142" data-name="Trazado 879142" d="M136.831,111.706a.49.49,0,0,1-.4-.775,2.29,2.29,0,0,0,.294-.562.49.49,0,0,1,.205-.252,6.036,6.036,0,0,0,2.394-2.99.49.49,0,0,1,.31-.29,3.543,3.543,0,0,0,.338-.123,3.9,3.9,0,0,0,.737-.414.488.488,0,0,1,.153-.074,12.158,12.158,0,0,0,3.122-1.3.49.49,0,0,1,.734.536c-.779,3.088-3.842,5.537-7.8,6.239A.507.507,0,0,1,136.831,111.706Zm3.322-4.01a7.249,7.249,0,0,1-1.908,2.67,8.413,8.413,0,0,0,5.095-3.991,15.207,15.207,0,0,1-2.129.771,4.9,4.9,0,0,1-.85.468C140.294,107.642,140.225,107.669,140.153,107.7Z" transform="translate(-79.308 -84.311)"/>
      <path id="Trazado_879143" data-name="Trazado 879143" d="M196.9,97.262l-.621-.4a.124.124,0,0,1-.027-.185,8.406,8.406,0,0,0,1.37-8.234.124.124,0,0,0-.156-.073l-.55.181a.124.124,0,0,1-.16-.1,5.256,5.256,0,0,0-3.739-4.2.124.124,0,0,0-.15.16c2.063,6.327-2.2,11.047-4.768,13.208q.043.385.075.779a5.034,5.034,0,0,1,4.378,1.754,9.571,9.571,0,0,0,4.377-2.715A.124.124,0,0,0,196.9,97.262Z" transform="translate(-120.926 -67.749)" fill="#eaa250"/>
      <path id="Trazado_879144" data-name="Trazado 879144" d="M190.543,98.639a.49.49,0,0,1-.4-.207c-.738-1.045-2.071-1.567-3.973-1.547h0a.49.49,0,0,1-.488-.449q-.032-.388-.074-.766a.489.489,0,0,1,.172-.429c2.565-2.157,6.576-6.673,4.618-12.682a.614.614,0,0,1,.746-.784,5.725,5.725,0,0,1,4,4.176l.168-.055a.612.612,0,0,1,.767.365,8.911,8.911,0,0,1-1.194,8.4l.279.179a.614.614,0,0,1,.146.9,10.069,10.069,0,0,1-4.6,2.869A.5.5,0,0,1,190.543,98.639Zm-3.93-2.728a5.357,5.357,0,0,1,4.1,1.659,9.6,9.6,0,0,0,3.551-2.138L194,95.266a.614.614,0,0,1-.138-.912,7.839,7.839,0,0,0,1.4-7.415l-.208.068a.614.614,0,0,1-.794-.464,4.806,4.806,0,0,0-2.735-3.583,10.86,10.86,0,0,1-.882,7.833,16.929,16.929,0,0,1-4.045,5.027C186.607,95.851,186.61,95.881,186.613,95.911Z" transform="translate(-118.916 -65.739)"/>
      <path id="Trazado_879145" data-name="Trazado 879145" d="M115.078,175.2a4.589,4.589,0,0,1,.315-1.1,4.105,4.105,0,0,0,.386-1.7V161.211a3.618,3.618,0,0,0-1.911-3.152,4.4,4.4,0,0,0-3.774,0,3.618,3.618,0,0,0-1.911,3.152V172.4a4.1,4.1,0,0,0,.386,1.7,4.6,4.6,0,0,1,.315,1.1,1,1,0,0,1,.013.228,9.121,9.121,0,0,0,6.169,0A1,1,0,0,1,115.078,175.2Z" transform="translate(-56.666 -126.754)" fill="#f4dbce"/>
      <path id="Trazado_879146" data-name="Trazado 879146" d="M176.613,172.415l2.437-5.774c3-8.408-.481-10.186-4.05-10.151a24.842,24.842,0,0,1-3.1,14.532,1.4,1.4,0,0,0,.383,1.8,6.043,6.043,0,0,1,1.048,1.026,1.022,1.022,0,0,1-.609,1.61l.037.037h7.311C180.878,172.03,176.613,172.415,176.613,172.415Z" transform="translate(-107.753 -125.834)" fill="#eaa250"/>
      <path id="Trazado_879147" data-name="Trazado 879147" d="M47.043,173.847a6.05,6.05,0,0,1,1.048-1.026,1.4,1.4,0,0,0,.383-1.8,24.84,24.84,0,0,1-3.1-14.532c-3.569-.035-7.045,1.743-4.05,10.151l2.437,5.774s-4.265-.385-3.452,3.079h7.311l.037-.037A1.022,1.022,0,0,1,47.043,173.847Z" transform="translate(-1.988 -125.834)" fill="#eaa250"/>
      <path id="Trazado_879148" data-name="Trazado 879148" d="M87.766,108.282c-.807,2.818-3.689,5.043-7.363,5.694h0a2.775,2.775,0,0,1-4.523-.012c-3.619-.661-6.457-2.851-7.281-5.626-1.677,3.93-4.88,13.976.767,23.92a1.4,1.4,0,0,1-.383,1.8,6.043,6.043,0,0,0-1.048,1.026,1.039,1.039,0,0,0,.9,1.647h5.18a1.063,1.063,0,0,0,1.086-1.214,4.588,4.588,0,0,0-.315-1.1,4.1,4.1,0,0,1-.386-1.7V121.527a3.8,3.8,0,0,1,7.6,0v11.191a4.1,4.1,0,0,1-.386,1.7,4.6,4.6,0,0,0-.315,1.1,1.063,1.063,0,0,0,1.086,1.214h5.18a1.039,1.039,0,0,0,.9-1.647,6.05,6.05,0,0,0-1.048-1.026,1.4,1.4,0,0,1-.383-1.8c5.674-9.993,2.413-20.088.743-23.976Z" transform="translate(-22.879 -87.07)" fill="#eaa250"/>
      <path id="Trazado_879149" data-name="Trazado 879149" d="M178.057,173.976h-7.311a.49.49,0,0,1-.348-.145l-.037-.037a.49.49,0,0,1,.228-.82.6.6,0,0,0,.422-.378.468.468,0,0,0-.08-.458,5.509,5.509,0,0,0-.963-.94,1.886,1.886,0,0,1-.507-2.427,24.259,24.259,0,0,0,3.042-14.249.49.49,0,0,1,.483-.53c2.235-.022,3.841.632,4.775,1.944,1.282,1.8,1.194,4.78-.26,8.861l-.01.026-2.149,5.091A3.929,3.929,0,0,1,178.066,171a2.793,2.793,0,0,1,.468,2.6A.49.49,0,0,1,178.057,173.976Zm-6.15-.98h5.742a1.646,1.646,0,0,0-.321-1.35,3.632,3.632,0,0,0-2.68-.752.49.49,0,0,1-.494-.678l2.432-5.761c1.336-3.755,1.464-6.43.38-7.951a4.212,4.212,0,0,0-3.445-1.524,25.139,25.139,0,0,1-3.206,14.275.9.9,0,0,0,.258,1.172,6.482,6.482,0,0,1,1.133,1.112,1.445,1.445,0,0,1,.233,1.377C171.928,172.943,171.918,172.97,171.907,173Z" transform="translate(-105.743 -123.826)"/>
      <path id="Trazado_879150" data-name="Trazado 879150" d="M45.628,173.975H38.317a.49.49,0,0,1-.477-.378,2.793,2.793,0,0,1,.468-2.6,3.928,3.928,0,0,1,2.722-1.087l-2.149-5.091-.01-.026c-1.454-4.081-1.542-7.063-.26-8.861.935-1.312,2.535-1.965,4.775-1.944a.49.49,0,0,1,.483.53,24.259,24.259,0,0,0,3.042,14.249,1.886,1.886,0,0,1-.507,2.427,5.509,5.509,0,0,0-.963.94.468.468,0,0,0-.08.458.6.6,0,0,0,.422.378.49.49,0,0,1,.228.82l-.037.037A.49.49,0,0,1,45.628,173.975Zm-6.9-.98h5.742c-.011-.026-.021-.053-.03-.081a1.444,1.444,0,0,1,.233-1.377,6.479,6.479,0,0,1,1.133-1.111.9.9,0,0,0,.259-1.172,25.139,25.139,0,0,1-3.206-14.275,4.211,4.211,0,0,0-3.445,1.524c-1.084,1.521-.956,4.2.38,7.951l2.432,5.761a.49.49,0,0,1-.5.678,3.631,3.631,0,0,0-2.679.752,1.645,1.645,0,0,0-.322,1.35Z" transform="translate(0 -123.824)"/>
      <path id="Trazado_879151" data-name="Trazado 879151" d="M109.971,174.445a9.589,9.589,0,0,1-3.25-.566.49.49,0,0,1-.323-.49.509.509,0,0,0-.006-.117,4.059,4.059,0,0,0-.278-.979,4.575,4.575,0,0,1-.43-1.9V159.2a4.126,4.126,0,0,1,2.163-3.58l.033-.017a4.889,4.889,0,0,1,4.183,0l.033.017a4.127,4.127,0,0,1,2.163,3.58V170.39a4.578,4.578,0,0,1-.43,1.9,4.053,4.053,0,0,0-.278.979.52.52,0,0,0-.006.117.49.49,0,0,1-.323.49A9.585,9.585,0,0,1,109.971,174.445Zm-2.623-1.388a8.664,8.664,0,0,0,5.246,0,4.952,4.952,0,0,1,.343-1.17,3.6,3.6,0,0,0,.342-1.5V159.2a3.145,3.145,0,0,0-1.643-2.715,3.906,3.906,0,0,0-3.33,0,3.146,3.146,0,0,0-1.643,2.715V170.39a3.6,3.6,0,0,0,.342,1.5,4.937,4.937,0,0,1,.343,1.17Z" transform="translate(-54.656 -124.743)"/>
      <path id="Trazado_879152" data-name="Trazado 879152" d="M85.562,135.211h-5.18a1.606,1.606,0,0,1-1.233-.565,1.5,1.5,0,0,1-.336-1.221,5.02,5.02,0,0,1,.352-1.22,3.6,3.6,0,0,0,.342-1.5V119.517a3.311,3.311,0,0,0-6.616,0v11.191a3.6,3.6,0,0,0,.342,1.5,5.02,5.02,0,0,1,.352,1.22,1.5,1.5,0,0,1-.336,1.221,1.606,1.606,0,0,1-1.233.565h-5.18a1.59,1.59,0,0,1-1.444-.885,1.447,1.447,0,0,1,.16-1.553,6.486,6.486,0,0,1,1.133-1.111.9.9,0,0,0,.259-1.172c-5.764-10.15-2.474-20.413-.792-24.354a.49.49,0,0,1,.92.053c.767,2.584,3.476,4.657,6.9,5.283a.491.491,0,0,1,.311.2,2.285,2.285,0,0,0,3.726.01.489.489,0,0,1,.312-.2c3.485-.618,6.224-2.716,6.977-5.347a.49.49,0,0,1,.921-.059c1.7,3.948,5.015,14.229-.767,24.412a.9.9,0,0,0,.258,1.172,6.482,6.482,0,0,1,1.133,1.112,1.447,1.447,0,0,1,.16,1.553A1.589,1.589,0,0,1,85.562,135.211Zm-9.37-19.837a4.267,4.267,0,0,1,4.295,4.143v11.191a4.579,4.579,0,0,1-.43,1.9,4.054,4.054,0,0,0-.278.98.516.516,0,0,0,.119.425.628.628,0,0,0,.484.217h5.18a.616.616,0,0,0,.564-.336.476.476,0,0,0-.054-.522,5.509,5.509,0,0,0-.963-.94,1.886,1.886,0,0,1-.507-2.427c5.084-8.952,2.846-18.01,1.173-22.418a9.925,9.925,0,0,1-7.093,4.824,3.263,3.263,0,0,1-5.073-.013,9.953,9.953,0,0,1-7-4.766c-1.66,4.4-3.881,13.443,1.19,22.373a1.886,1.886,0,0,1-.507,2.427,5.508,5.508,0,0,0-.963.94.476.476,0,0,0-.054.522.616.616,0,0,0,.564.336h5.18a.628.628,0,0,0,.484-.217.515.515,0,0,0,.119-.425,4.057,4.057,0,0,0-.278-.98,4.575,4.575,0,0,1-.43-1.9V119.517a4.265,4.265,0,0,1,4.281-4.143Z" transform="translate(-20.884 -85.06)"/>
    </g>
  </g>
</svg>
